<svg width="34" height="34" viewBox="0 0 34 34" fill="none" xmlns="http://www.w3.org/2000/svg">
<circle cx="17" cy="17" r="16" fill="#F36D40"/>
<path d="M25 18.7143H22.7143V16.4286H21.5714V21.5714H12.4286V12.4286L17.5714 12.4281V11.2857H15.2857V9H14.1429V11.2857H12.4286C12.1256 11.286 11.835 11.4065 11.6208 11.6208C11.4065 11.835 11.286 12.1256 11.2857 12.4286V14.1429H9V15.2857H11.2857V18.7143H9V19.8571H11.2857V21.5714C11.2861 21.8744 11.4066 22.1649 11.6208 22.3792C11.8351 22.5934 12.1256 22.7139 12.4286 22.7143H14.1429V25H15.2857V22.7143H18.7143V25H19.8571V22.7143H21.5714C21.8744 22.7139 22.1649 22.5933 22.3791 22.3791C22.5933 22.1649 22.7139 21.8744 22.7143 21.5714V19.8571H25V18.7143Z" fill="white"/>
<path d="M22.714 9C22.108 9.00064 21.527 9.24165 21.0985 9.67017C20.6699 10.0987 20.4289 10.6797 20.4283 11.2857C20.4305 11.6925 20.5424 12.0911 20.7522 12.4395L19.0488 14.1429H14.1426V19.8571H19.8569V14.9509L21.5602 13.2476C21.9086 13.4574 22.3073 13.5693 22.714 13.5714C23.3202 13.5714 23.9016 13.3306 24.3302 12.902C24.7589 12.4733 24.9997 11.8919 24.9997 11.2857C24.9997 10.6795 24.7589 10.0981 24.3302 9.66947C23.9016 9.24082 23.3202 9 22.714 9ZM18.714 18.7143H15.2854V15.2857H18.714V18.7143ZM22.714 12.4286C22.488 12.4286 22.267 12.3615 22.0791 12.236C21.8911 12.1104 21.7446 11.9319 21.6581 11.7231C21.5716 11.5142 21.549 11.2844 21.5931 11.0628C21.6372 10.8411 21.7461 10.6374 21.9059 10.4776C22.0657 10.3178 22.2694 10.2089 22.491 10.1648C22.7127 10.1207 22.9425 10.1434 23.1514 10.2299C23.3602 10.3164 23.5387 10.4628 23.6643 10.6508C23.7898 10.8387 23.8569 11.0597 23.8569 11.2857C23.8565 11.5887 23.736 11.8792 23.5217 12.0935C23.3075 12.3077 23.017 12.4282 22.714 12.4286Z" fill="white"/>
</svg>
