<?xml version="1.0" encoding="UTF-8"?>
<svg width="96px" height="84px" viewBox="0 0 96 84" version="1.1" xmlns="http://www.w3.org/2000/svg" xmlns:xlink="http://www.w3.org/1999/xlink">
    <title>award-2</title>
    <defs>
        <radialGradient cx="96.9564478%" cy="20.0199533%" fx="96.9564478%" fy="20.0199533%" r="127.041756%" gradientTransform="translate(0.969564,0.200200),scale(1.000000,0.572065),rotate(162.030000),translate(-0.969564,-0.200200)" id="radialGradient-1">
            <stop stop-color="#C6A057" offset="0%"></stop>
            <stop stop-color="#F9FBA0" offset="100%"></stop>
        </radialGradient>
        <radialGradient cx="96.9563633%" cy="20.019856%" fx="96.9563633%" fy="20.019856%" r="127.040474%" gradientTransform="translate(0.969564,0.200199),scale(1.000000,0.572125),rotate(162.031000),translate(-0.969564,-0.200199)" id="radialGradient-2">
            <stop stop-color="#C6A057" offset="0%"></stop>
            <stop stop-color="#F9FBA0" offset="100%"></stop>
        </radialGradient>
        <radialGradient cx="96.9569684%" cy="20.0199224%" fx="96.9569684%" fy="20.0199224%" r="133.707093%" gradientTransform="translate(0.969570,0.200199),scale(0.916781,1.000000),rotate(170.346000),translate(-0.969570,-0.200199)" id="radialGradient-3">
            <stop stop-color="#C6A057" offset="0%"></stop>
            <stop stop-color="#F9FBA0" offset="100%"></stop>
        </radialGradient>
        <radialGradient cx="96.9559487%" cy="20.0201138%" fx="96.9559487%" fy="20.0201138%" r="124.477509%" gradientTransform="translate(0.969559,0.200201),scale(1.000000,0.750968),rotate(166.121000),translate(-0.969559,-0.200201)" id="radialGradient-4">
            <stop stop-color="#C6A057" offset="0%"></stop>
            <stop stop-color="#F9FBA0" offset="100%"></stop>
        </radialGradient>
        <radialGradient cx="96.9561043%" cy="20.020152%" fx="96.9561043%" fy="20.020152%" r="358.443019%" gradientTransform="translate(0.969561,0.200202),scale(0.337797,1.000000),rotate(176.414000),translate(-0.969561,-0.200202)" id="radialGradient-5">
            <stop stop-color="#C6A057" offset="0%"></stop>
            <stop stop-color="#F9FBA0" offset="100%"></stop>
        </radialGradient>
        <radialGradient cx="96.957485%" cy="20.0194306%" fx="96.957485%" fy="20.0194306%" r="128.148016%" gradientTransform="translate(0.969575,0.200194),scale(1.000000,0.525795),rotate(160.563000),translate(-0.969575,-0.200194)" id="radialGradient-6">
            <stop stop-color="#C6A057" offset="0%"></stop>
            <stop stop-color="#F9FBA0" offset="100%"></stop>
        </radialGradient>
        <radialGradient cx="96.9556351%" cy="20.018836%" fx="96.9556351%" fy="20.018836%" r="343.374908%" gradientTransform="translate(0.969556,0.200188),scale(0.352683,1.000000),rotate(176.256000),translate(-0.969556,-0.200188)" id="radialGradient-7">
            <stop stop-color="#C6A057" offset="0%"></stop>
            <stop stop-color="#F9FBA0" offset="100%"></stop>
        </radialGradient>
        <radialGradient cx="96.9563516%" cy="20.0197193%" fx="96.9563516%" fy="20.0197193%" r="132.768702%" gradientTransform="translate(0.969564,0.200197),scale(1.000000,0.407735),rotate(155.531000),translate(-0.969564,-0.200197)" id="radialGradient-8">
            <stop stop-color="#C6A057" offset="0%"></stop>
            <stop stop-color="#F9FBA0" offset="100%"></stop>
        </radialGradient>
        <radialGradient cx="96.9564326%" cy="20.0196516%" fx="96.9564326%" fy="20.0196516%" r="297.791445%" gradientTransform="translate(0.969564,0.200197),scale(0.406957,1.000000),rotate(175.682000),translate(-0.969564,-0.200197)" id="radialGradient-9">
            <stop stop-color="#C6A057" offset="0%"></stop>
            <stop stop-color="#F9FBA0" offset="100%"></stop>
        </radialGradient>
        <radialGradient cx="96.9562648%" cy="20.0198486%" fx="96.9562648%" fy="20.0198486%" r="136.07051%" gradientTransform="translate(0.969563,0.200198),scale(1.000000,0.358490),rotate(152.635000),translate(-0.969563,-0.200198)" id="radialGradient-10">
            <stop stop-color="#C6A057" offset="0%"></stop>
            <stop stop-color="#F9FBA0" offset="100%"></stop>
        </radialGradient>
        <radialGradient cx="96.9561726%" cy="20.020818%" fx="96.9561726%" fy="20.020818%" r="239.313024%" gradientTransform="translate(0.969562,0.200208),scale(0.507192,1.000000),rotate(174.624000),translate(-0.969562,-0.200208)" id="radialGradient-11">
            <stop stop-color="#C6A057" offset="0%"></stop>
            <stop stop-color="#F9FBA0" offset="100%"></stop>
        </radialGradient>
        <radialGradient cx="96.9560973%" cy="20.0195261%" fx="96.9560973%" fy="20.0195261%" r="136.209291%" gradientTransform="translate(0.969561,0.200195),scale(1.000000,0.356776),rotate(152.522000),translate(-0.969561,-0.200195)" id="radialGradient-12">
            <stop stop-color="#C6A057" offset="0%"></stop>
            <stop stop-color="#F9FBA0" offset="100%"></stop>
        </radialGradient>
        <radialGradient cx="96.9559238%" cy="20.0190814%" fx="96.9559238%" fy="20.0190814%" r="181.521169%" gradientTransform="translate(0.969559,0.200191),scale(0.670870,1.000000),rotate(172.904000),translate(-0.969559,-0.200191)" id="radialGradient-13">
            <stop stop-color="#C6A057" offset="0%"></stop>
            <stop stop-color="#F9FBA0" offset="100%"></stop>
        </radialGradient>
        <radialGradient cx="96.9564857%" cy="20.0192801%" fx="96.9564857%" fy="20.0192801%" r="132.988162%" gradientTransform="translate(0.969565,0.200193),scale(1.000000,0.403878),rotate(155.325000),translate(-0.969565,-0.200193)" id="radialGradient-14">
            <stop stop-color="#C6A057" offset="0%"></stop>
            <stop stop-color="#F9FBA0" offset="100%"></stop>
        </radialGradient>
        <radialGradient cx="96.955939%" cy="20.0191268%" fx="96.955939%" fy="20.0191268%" r="133.023649%" gradientTransform="translate(0.969559,0.200191),scale(0.921628,1.000000),rotate(170.296000),translate(-0.969559,-0.200191)" id="radialGradient-15">
            <stop stop-color="#C6A057" offset="0%"></stop>
            <stop stop-color="#F9FBA0" offset="100%"></stop>
        </radialGradient>
        <radialGradient cx="96.957393%" cy="20.0204215%" fx="96.957393%" fy="20.0204215%" r="128.201708%" gradientTransform="translate(0.969574,0.200204),scale(1.000000,0.523778),rotate(160.493000),translate(-0.969574,-0.200204)" id="radialGradient-16">
            <stop stop-color="#C6A057" offset="0%"></stop>
            <stop stop-color="#F9FBA0" offset="100%"></stop>
        </radialGradient>
        <radialGradient cx="96.9555902%" cy="20.0199744%" fx="96.9555902%" fy="20.0199744%" r="124.31421%" gradientTransform="translate(0.969556,0.200200),scale(1.000000,0.768666),rotate(166.429000),translate(-0.969556,-0.200200)" id="radialGradient-17">
            <stop stop-color="#C6A057" offset="0%"></stop>
            <stop stop-color="#F9FBA0" offset="100%"></stop>
        </radialGradient>
        <radialGradient cx="96.9553004%" cy="20.0202781%" fx="96.9553004%" fy="20.0202781%" r="124.663326%" gradientTransform="translate(0.969553,0.200203),scale(1.000000,0.732232),rotate(165.781000),translate(-0.969553,-0.200203)" id="radialGradient-18">
            <stop stop-color="#C6A057" offset="0%"></stop>
            <stop stop-color="#F9FBA0" offset="100%"></stop>
        </radialGradient>
        <radialGradient cx="96.957195%" cy="20.0198912%" fx="96.957195%" fy="20.0198912%" r="128.022046%" gradientTransform="translate(0.969572,0.200199),scale(1.000000,0.530476),rotate(160.721000),translate(-0.969572,-0.200199)" id="radialGradient-19">
            <stop stop-color="#C6A057" offset="0%"></stop>
            <stop stop-color="#F9FBA0" offset="100%"></stop>
        </radialGradient>
        <radialGradient cx="96.9554341%" cy="20.0194767%" fx="96.9554341%" fy="20.0194767%" r="126.247037%" gradientTransform="translate(0.969554,0.200195),scale(0.972664,1.000000),rotate(169.770000),translate(-0.969554,-0.200195)" id="radialGradient-20">
            <stop stop-color="#C6A057" offset="0%"></stop>
            <stop stop-color="#F9FBA0" offset="100%"></stop>
        </radialGradient>
        <radialGradient cx="96.9571902%" cy="20.0198927%" fx="96.9571902%" fy="20.0198927%" r="134.690871%" gradientTransform="translate(0.969572,0.200199),scale(1.000000,0.376953),rotate(153.792000),translate(-0.969572,-0.200199)" id="radialGradient-21">
            <stop stop-color="#C6A057" offset="0%"></stop>
            <stop stop-color="#F9FBA0" offset="100%"></stop>
        </radialGradient>
        <radialGradient cx="96.9570458%" cy="20.0190882%" fx="96.9570458%" fy="20.0190882%" r="171.636768%" gradientTransform="translate(0.969570,0.200191),scale(0.710153,1.000000),rotate(172.494000),translate(-0.969570,-0.200191)" id="radialGradient-22">
            <stop stop-color="#C6A057" offset="0%"></stop>
            <stop stop-color="#F9FBA0" offset="100%"></stop>
        </radialGradient>
        <radialGradient cx="96.9559776%" cy="20.02005%" fx="96.9559776%" fy="20.02005%" r="139.355792%" gradientTransform="translate(0.969560,0.200200),scale(1.000000,0.323070),rotate(150.130000),translate(-0.969560,-0.200200)" id="radialGradient-23">
            <stop stop-color="#C6A057" offset="0%"></stop>
            <stop stop-color="#F9FBA0" offset="100%"></stop>
        </radialGradient>
        <radialGradient cx="96.9562814%" cy="20.0201957%" fx="96.9562814%" fy="20.0201957%" r="226.378311%" gradientTransform="translate(0.969563,0.200202),scale(0.536454,1.000000),rotate(174.316000),translate(-0.969563,-0.200202)" id="radialGradient-24">
            <stop stop-color="#C6A057" offset="0%"></stop>
            <stop stop-color="#F9FBA0" offset="100%"></stop>
        </radialGradient>
        <radialGradient cx="96.9567482%" cy="20.0199869%" fx="96.9567482%" fy="20.0199869%" r="137.518578%" gradientTransform="translate(0.969567,0.200200),scale(1.000000,0.341611),rotate(151.491000),translate(-0.969567,-0.200200)" id="radialGradient-25">
            <stop stop-color="#C6A057" offset="0%"></stop>
            <stop stop-color="#F9FBA0" offset="100%"></stop>
        </radialGradient>
        <radialGradient cx="96.9561339%" cy="20.0199734%" fx="96.9561339%" fy="20.0199734%" r="282.107532%" gradientTransform="translate(0.969561,0.200200),scale(0.429721,1.000000),rotate(175.441000),translate(-0.969561,-0.200200)" id="radialGradient-26">
            <stop stop-color="#C6A057" offset="0%"></stop>
            <stop stop-color="#F9FBA0" offset="100%"></stop>
        </radialGradient>
        <radialGradient cx="96.9562608%" cy="20.0198567%" fx="96.9562608%" fy="20.0198567%" r="131.523415%" gradientTransform="translate(0.969563,0.200199),scale(1.000000,0.431897),rotate(156.751000),translate(-0.969563,-0.200199)" id="radialGradient-27">
            <stop stop-color="#C6A057" offset="0%"></stop>
            <stop stop-color="#F9FBA0" offset="100%"></stop>
        </radialGradient>
        <radialGradient cx="96.9565726%" cy="20.0199224%" fx="96.9565726%" fy="20.0199224%" r="133.690922%" gradientTransform="translate(0.969566,0.200199),scale(0.916900,1.000000),rotate(170.345000),translate(-0.969566,-0.200199)" id="radialGradient-28">
            <stop stop-color="#C6A057" offset="0%"></stop>
            <stop stop-color="#F9FBA0" offset="100%"></stop>
        </radialGradient>
        <radialGradient cx="96.9563823%" cy="20.0201138%" fx="96.9563823%" fy="20.0201138%" r="124.47866%" gradientTransform="translate(0.969564,0.200201),scale(1.000000,0.750948),rotate(166.121000),translate(-0.969564,-0.200201)" id="radialGradient-29">
            <stop stop-color="#C6A057" offset="0%"></stop>
            <stop stop-color="#F9FBA0" offset="100%"></stop>
        </radialGradient>
        <radialGradient cx="96.9556823%" cy="20.020152%" fx="96.9556823%" fy="20.020152%" r="358.480783%" gradientTransform="translate(0.969557,0.200202),scale(0.337762,1.000000),rotate(176.414000),translate(-0.969557,-0.200202)" id="radialGradient-30">
            <stop stop-color="#C6A057" offset="0%"></stop>
            <stop stop-color="#F9FBA0" offset="100%"></stop>
        </radialGradient>
        <radialGradient cx="96.9561318%" cy="20.0194306%" fx="96.9561318%" fy="20.0194306%" r="128.147131%" gradientTransform="translate(0.969561,0.200194),scale(1.000000,0.525820),rotate(160.564000),translate(-0.969561,-0.200194)" id="radialGradient-31">
            <stop stop-color="#C6A057" offset="0%"></stop>
            <stop stop-color="#F9FBA0" offset="100%"></stop>
        </radialGradient>
        <radialGradient cx="96.9560482%" cy="20.0185047%" fx="96.9560482%" fy="20.0185047%" r="343.359294%" gradientTransform="translate(0.969560,0.200185),scale(0.352698,1.000000),rotate(176.256000),translate(-0.969560,-0.200185)" id="radialGradient-32">
            <stop stop-color="#C6A057" offset="0%"></stop>
            <stop stop-color="#F9FBA0" offset="100%"></stop>
        </radialGradient>
        <radialGradient cx="96.9578282%" cy="20.0197193%" fx="96.9578282%" fy="20.0197193%" r="132.770442%" gradientTransform="translate(0.969578,0.200197),scale(1.000000,0.407714),rotate(155.530000),translate(-0.969578,-0.200197)" id="radialGradient-33">
            <stop stop-color="#C6A057" offset="0%"></stop>
            <stop stop-color="#F9FBA0" offset="100%"></stop>
        </radialGradient>
        <radialGradient cx="96.9558661%" cy="20.0196516%" fx="96.9558661%" fy="20.0196516%" r="297.791445%" gradientTransform="translate(0.969559,0.200197),scale(0.406954,1.000000),rotate(175.682000),translate(-0.969559,-0.200197)" id="radialGradient-34">
            <stop stop-color="#C6A057" offset="0%"></stop>
            <stop stop-color="#F9FBA0" offset="100%"></stop>
        </radialGradient>
        <radialGradient cx="96.9571014%" cy="20.0198486%" fx="96.9571014%" fy="20.0198486%" r="136.085061%" gradientTransform="translate(0.969571,0.200198),scale(1.000000,0.358336),rotate(152.625000),translate(-0.969571,-0.200198)" id="radialGradient-35">
            <stop stop-color="#C6A057" offset="0%"></stop>
            <stop stop-color="#F9FBA0" offset="100%"></stop>
        </radialGradient>
        <radialGradient cx="96.9564926%" cy="20.020818%" fx="96.9564926%" fy="20.020818%" r="239.328581%" gradientTransform="translate(0.969565,0.200208),scale(0.507162,1.000000),rotate(174.624000),translate(-0.969565,-0.200208)" id="radialGradient-36">
            <stop stop-color="#C6A057" offset="0%"></stop>
            <stop stop-color="#F9FBA0" offset="100%"></stop>
        </radialGradient>
        <radialGradient cx="96.9563485%" cy="20.0195261%" fx="96.9563485%" fy="20.0195261%" r="136.21477%" gradientTransform="translate(0.969563,0.200195),scale(1.000000,0.356741),rotate(152.521000),translate(-0.969563,-0.200195)" id="radialGradient-37">
            <stop stop-color="#C6A057" offset="0%"></stop>
            <stop stop-color="#F9FBA0" offset="100%"></stop>
        </radialGradient>
        <radialGradient cx="96.9559889%" cy="20.0192596%" fx="96.9559889%" fy="20.0192596%" r="181.478666%" gradientTransform="translate(0.969560,0.200193),scale(0.671025,1.000000),rotate(172.903000),translate(-0.969560,-0.200193)" id="radialGradient-38">
            <stop stop-color="#C6A057" offset="0%"></stop>
            <stop stop-color="#F9FBA0" offset="100%"></stop>
        </radialGradient>
        <radialGradient cx="96.9560606%" cy="20.0192801%" fx="96.9560606%" fy="20.0192801%" r="132.985004%" gradientTransform="translate(0.969561,0.200193),scale(1.000000,0.403909),rotate(155.327000),translate(-0.969561,-0.200193)" id="radialGradient-39">
            <stop stop-color="#C6A057" offset="0%"></stop>
            <stop stop-color="#F9FBA0" offset="100%"></stop>
        </radialGradient>
        <radialGradient cx="96.9563816%" cy="20.0191268%" fx="96.9563816%" fy="20.0191268%" r="133.008914%" gradientTransform="translate(0.969564,0.200191),scale(0.921735,1.000000),rotate(170.295000),translate(-0.969564,-0.200191)" id="radialGradient-40">
            <stop stop-color="#C6A057" offset="0%"></stop>
            <stop stop-color="#F9FBA0" offset="100%"></stop>
        </radialGradient>
        <radialGradient cx="96.9559965%" cy="20.0204215%" fx="96.9559965%" fy="20.0204215%" r="128.204997%" gradientTransform="translate(0.969560,0.200204),scale(1.000000,0.523676),rotate(160.490000),translate(-0.969560,-0.200204)" id="radialGradient-41">
            <stop stop-color="#C6A057" offset="0%"></stop>
            <stop stop-color="#F9FBA0" offset="100%"></stop>
        </radialGradient>
        <radialGradient cx="96.956311%" cy="20.0199744%" fx="96.956311%" fy="20.0199744%" r="124.315606%" gradientTransform="translate(0.969563,0.200200),scale(1.000000,0.768590),rotate(166.428000),translate(-0.969563,-0.200200)" id="radialGradient-42">
            <stop stop-color="#C6A057" offset="0%"></stop>
            <stop stop-color="#F9FBA0" offset="100%"></stop>
        </radialGradient>
        <radialGradient cx="96.9570585%" cy="20.0202781%" fx="96.9570585%" fy="20.0202781%" r="124.663891%" gradientTransform="translate(0.969571,0.200203),scale(1.000000,0.732262),rotate(165.781000),translate(-0.969571,-0.200203)" id="radialGradient-43">
            <stop stop-color="#C6A057" offset="0%"></stop>
            <stop stop-color="#F9FBA0" offset="100%"></stop>
        </radialGradient>
        <radialGradient cx="96.9562249%" cy="20.0198912%" fx="96.9562249%" fy="20.0198912%" r="128.023377%" gradientTransform="translate(0.969562,0.200199),scale(1.000000,0.530458),rotate(160.721000),translate(-0.969562,-0.200199)" id="radialGradient-44">
            <stop stop-color="#C6A057" offset="0%"></stop>
            <stop stop-color="#F9FBA0" offset="100%"></stop>
        </radialGradient>
        <radialGradient cx="96.9564935%" cy="20.0194767%" fx="96.9564935%" fy="20.0194767%" r="126.243156%" gradientTransform="translate(0.969565,0.200195),scale(0.972698,1.000000),rotate(169.769000),translate(-0.969565,-0.200195)" id="radialGradient-45">
            <stop stop-color="#C6A057" offset="0%"></stop>
            <stop stop-color="#F9FBA0" offset="100%"></stop>
        </radialGradient>
        <radialGradient cx="96.9564226%" cy="20.0198927%" fx="96.9564226%" fy="20.0198927%" r="134.688458%" gradientTransform="translate(0.969564,0.200199),scale(1.000000,0.376985),rotate(153.794000),translate(-0.969564,-0.200199)" id="radialGradient-46">
            <stop stop-color="#C6A057" offset="0%"></stop>
            <stop stop-color="#F9FBA0" offset="100%"></stop>
        </radialGradient>
        <radialGradient cx="96.9558949%" cy="20.0190882%" fx="96.9558949%" fy="20.0190882%" r="171.636768%" gradientTransform="translate(0.969559,0.200191),scale(0.710150,1.000000),rotate(172.494000),translate(-0.969559,-0.200191)" id="radialGradient-47">
            <stop stop-color="#C6A057" offset="0%"></stop>
            <stop stop-color="#F9FBA0" offset="100%"></stop>
        </radialGradient>
        <radialGradient cx="96.9564537%" cy="20.02005%" fx="96.9564537%" fy="20.02005%" r="139.360022%" gradientTransform="translate(0.969565,0.200200),scale(1.000000,0.323037),rotate(150.128000),translate(-0.969565,-0.200200)" id="radialGradient-48">
            <stop stop-color="#C6A057" offset="0%"></stop>
            <stop stop-color="#F9FBA0" offset="100%"></stop>
        </radialGradient>
        <radialGradient cx="96.9566776%" cy="20.0201957%" fx="96.9566776%" fy="20.0201957%" r="226.360296%" gradientTransform="translate(0.969567,0.200202),scale(0.536498,1.000000),rotate(174.315000),translate(-0.969567,-0.200202)" id="radialGradient-49">
            <stop stop-color="#C6A057" offset="0%"></stop>
            <stop stop-color="#F9FBA0" offset="100%"></stop>
        </radialGradient>
        <radialGradient cx="96.9564321%" cy="20.0199869%" fx="96.9564321%" fy="20.0199869%" r="137.516436%" gradientTransform="translate(0.969564,0.200200),scale(1.000000,0.341638),rotate(151.493000),translate(-0.969564,-0.200200)" id="radialGradient-50">
            <stop stop-color="#C6A057" offset="0%"></stop>
            <stop stop-color="#F9FBA0" offset="100%"></stop>
        </radialGradient>
        <radialGradient cx="96.9558668%" cy="20.0199734%" fx="96.9558668%" fy="20.0199734%" r="282.123513%" gradientTransform="translate(0.969559,0.200200),scale(0.429695,1.000000),rotate(175.442000),translate(-0.969559,-0.200200)" id="radialGradient-51">
            <stop stop-color="#C6A057" offset="0%"></stop>
            <stop stop-color="#F9FBA0" offset="100%"></stop>
        </radialGradient>
        <radialGradient cx="96.956677%" cy="20.0198567%" fx="96.956677%" fy="20.0198567%" r="131.524154%" gradientTransform="translate(0.969567,0.200199),scale(1.000000,0.431898),rotate(156.751000),translate(-0.969567,-0.200199)" id="radialGradient-52">
            <stop stop-color="#C6A057" offset="0%"></stop>
            <stop stop-color="#F9FBA0" offset="100%"></stop>
        </radialGradient>
        <radialGradient cx="96.9564686%" cy="20.0201404%" fx="96.9564686%" fy="20.0201404%" r="165.04742%" gradientTransform="translate(0.969565,0.200201),scale(0.739034,1.000000),rotate(172.192000),translate(-0.969565,-0.200201)" id="radialGradient-53">
            <stop stop-color="#C6A057" offset="0%"></stop>
            <stop stop-color="#F9FBA0" offset="100%"></stop>
        </radialGradient>
    </defs>
    <g id="Page-1" stroke="none" stroke-width="1" fill="none" fill-rule="evenodd">
        <g id="award-2" transform="translate(0.472656, 0.000000)">
            <path d="M46.640644,79.8308 L46.694644,79.2287 C51.607644,79.6766 56.560744,79.1203 61.255344,77.5932 C65.899344,76.0899 70.217744,73.714 73.980044,70.5917 C81.908544,64.0426 87.021944,54.6961 88.379644,44.2738 C89.488744,35.7401 88.919444,28.1355 86.681744,21.6707 C84.286944,14.7283 80.015944,9.29701 73.989844,5.52529 L74.305544,5.01758 C80.449444,8.86254 84.803844,14.3992 87.247744,21.4731 C89.513244,28.0262 90.092344,35.7211 88.968544,44.3501 C87.592844,54.9238 82.404244,64.4068 74.357844,71.0531 C70.536744,74.2262 66.149644,76.6406 61.432044,78.1682 C56.663744,79.7185 51.632144,80.284 46.640644,79.8308 Z" id="Path" fill="url(#radialGradient-1)" fill-rule="nonzero"></path>
            <path d="M48.241044,79.8308 L48.187044,79.2287 C43.273444,79.6766 38.320444,79.1203 33.626344,77.5932 C28.980444,76.0906 24.660844,73.7147 20.896944,70.5917 C12.967744,64.0426 7.854154,54.6961 6.497774,44.2738 C5.387744,35.7401 5.957654,28.1355 8.194564,21.6707 C10.589144,14.7283 14.861144,9.29701 20.886944,5.52529 L20.571544,5.01758 C14.427944,8.86253 10.073044,14.3992 7.628584,21.4731 C5.363864,28.0261 4.784964,35.7211 5.907754,44.3501 C7.283274,54.9238 12.472544,64.4068 20.518544,71.0531 C24.340244,74.2262 28.726744,76.6406 33.444544,78.1682 C38.214844,79.7192 43.247844,80.2847 48.241044,79.8308 Z" id="Path" fill="url(#radialGradient-2)" fill-rule="nonzero"></path>
            <path d="M74.289244,2.09383 C76.414044,4.04039 76.795144,7.09469 76.795144,7.09469 C76.795144,7.09469 73.733044,6.99435 71.609844,5.04678 C69.486644,3.09922 69.105444,0.0449218998 69.105444,0.0449218998 C69.105444,0.0449218998 72.167644,0.146263 74.289244,2.09383 Z" id="Path" fill="url(#radialGradient-3)" fill-rule="nonzero"></path>
            <path d="M59.361844,73.8306 C57.533044,76.1886 57.423444,78.972 57.447944,78.9811 C57.441444,79.0161 61.283844,77.9366 63.007944,75.3367 C64.733744,72.769 63.892944,70.1082 63.917444,70.119166 C63.910944,70.1392 61.187344,71.4938 59.361844,73.8306 Z" id="Path" fill="url(#radialGradient-4)" fill-rule="nonzero"></path>
            <path d="M62.051144,81.9921 C58.679744,81.4161 57.421844,78.8526 57.421844,78.8756 C57.461144,78.8876 61.076144,77.8392 64.189044,78.2073 C67.334644,78.5916 69.179844,80.5553 69.179844,80.5763 C69.225644,80.5864 65.461644,82.5811 62.051144,81.9921 Z" id="Path" fill="url(#radialGradient-5)" fill-rule="nonzero"></path>
            <path d="M66.027744,70.8833 C64.771544,73.4691 65.222944,76.1721 65.245844,76.1772 C65.245844,76.2122 68.620444,74.5266 69.757244,71.7201 C70.899044,68.9468 69.600244,66.5136 69.624844,66.5175951 C69.618244,66.5437 67.285644,68.3206 66.027744,70.8833 Z" id="Path" fill="url(#radialGradient-6)" fill-rule="nonzero"></path>
            <path d="M70.147044,78.3142 C69.211344,78.3254 68.285544,78.1315 67.431644,77.7462 C66.579444,77.3608 65.820444,76.7932 65.207044,76.0826 C65.244644,76.0887 68.413144,74.4713 71.436044,74.2987 C74.488344,74.1372 76.626344,75.7205 76.626344,75.7406 C76.665544,75.7436 73.461144,78.3112 70.147044,78.3142 Z" id="Path" fill="url(#radialGradient-7)" fill-rule="nonzero"></path>
            <path d="M71.784744,66.9011 C71.071544,69.6192 72.020244,72.1538 72.043144,72.1548 C72.043144,72.191 74.936844,69.9856 75.515944,67.0697 C76.099844,64.184 74.410144,62.0527 74.433044,62.0527 C74.429744,62.0748 72.501144,64.205 71.784744,66.9011 Z" id="Path" fill="url(#radialGradient-8)" fill-rule="nonzero"></path>
            <path d="M77.115144,73.3865 C76.215444,73.5547 75.291244,73.5241 74.404644,73.297 C73.518044,73.0698 72.690344,72.6515 71.980444,72.0712 C72.014844,72.0712 74.720344,69.9639 77.596044,69.2787 C80.501144,68.5963 82.858244,69.7603 82.863144,69.7804 C82.902444,69.7763 80.277044,72.8185 77.115144,73.3865 Z" id="Path" fill="url(#radialGradient-9)" fill-rule="nonzero"></path>
            <path d="M76.586044,62.0446 C76.386544,64.807 77.770344,67.0997 77.790044,67.0968 C77.790044,67.1318 80.186444,64.488 80.233844,61.5571 C80.292744,58.6472 78.277444,56.8672 78.298744,56.8633 C78.303644,56.8902 76.795444,59.3035 76.586044,62.0446 Z" id="Path" fill="url(#radialGradient-10)" fill-rule="nonzero"></path>
            <path d="M82.913944,67.407 C82.073144,67.7255 81.171844,67.8561 80.273844,67.7896 C79.377444,67.7231 78.503944,67.4611 77.718744,67.0216 C77.749844,67.0157 79.972844,64.5131 82.647344,63.3343 C85.347944,62.1623 87.850644,62.8796 87.857244,62.8987 C87.894844,62.8918 85.866444,66.3092 82.913944,67.407 Z" id="Path" fill="url(#radialGradient-11)" fill-rule="nonzero"></path>
            <path d="M80.400144,56.4753 C80.684744,59.2005 82.433344,61.185 82.451344,61.185 C82.461144,61.2182 84.325944,58.2321 83.876144,55.3584 C83.439344,52.5129 81.170544,51.1272 81.188544,51.1211 C81.196744,51.1423 80.126944,53.7692 80.400144,56.4753 Z" id="Path" fill="url(#radialGradient-12)" fill-rule="nonzero"></path>
            <path d="M87.496644,60.584 C86.732744,61.0413 85.878844,61.3264 84.993844,61.4197 C84.110544,61.5129 83.215744,61.412 82.375044,61.1239 C82.401144,61.1138 84.126944,58.2832 86.542944,56.6639 C88.983544,55.0424 91.553344,55.2963 91.563144,55.3132 C91.590944,55.2983 90.187444,58.9957 87.496644,60.584 Z" id="Path" fill="url(#radialGradient-13)" fill-rule="nonzero"></path>
            <path d="M83.180044,50.3658 C83.914544,52.9807 85.962544,54.6051 85.975644,54.5972 C85.988644,54.6283 87.308744,51.3814 86.391044,48.6461 C85.493044,45.9369 83.039444,44.9827 83.057444,44.9727 C83.072144,44.9978 82.458744,47.7692 83.180044,50.3658 Z" id="Path" fill="url(#radialGradient-14)" fill-rule="nonzero"></path>
            <path d="M90.817544,53.12 C90.148544,53.7038 89.361744,54.1346 88.511144,54.3829 C87.660544,54.6313 86.767444,54.6914 85.890644,54.5588 C85.915144,54.5448 87.125644,51.4745 89.224344,49.4548 C91.344244,47.4289 93.904244,47.2151 93.915744,47.2313 C93.945144,47.2112 93.182844,51.0873 90.817544,53.12 Z" id="Path" fill="url(#radialGradient-15)" fill-rule="nonzero"></path>
            <path d="M84.889844,43.8787 C86.043144,46.315 88.318544,47.5381 88.333244,47.528 C88.352844,47.5562 89.106944,44.1356 87.755744,41.6081 C86.424244,39.0996 83.862644,38.5979 83.878944,38.5898 C83.893744,38.612 83.753044,41.4576 84.889844,43.8787 Z" id="Path" fill="url(#radialGradient-16)" fill-rule="nonzero"></path>
            <path d="M92.822044,45.2062 C92.267544,45.899 91.569044,46.4628 90.775744,46.8593 C89.983944,47.2557 89.115444,47.4752 88.230444,47.5029 C88.251744,47.4848 88.928944,44.2569 90.649744,41.891 C92.388544,39.5139 94.860144,38.8398 94.874944,38.8537 C94.905944,38.8297 94.804544,42.786 92.822044,45.2062 Z" id="Path" fill="url(#radialGradient-17)" fill-rule="nonzero"></path>
            <path d="M85.482144,37.1742 C87.019744,39.3725 89.450544,40.1653 89.463644,40.1523 C89.486544,40.1783 89.656644,36.6705 87.904744,34.4118 C86.177344,32.1712 83.583044,32.1352 83.597744,32.1211 C83.617344,32.1421 83.970644,34.9898 85.482144,37.1742 Z" id="Path" fill="url(#radialGradient-18)" fill-rule="nonzero"></path>
            <path d="M93.475544,37.0569 C93.051844,37.8391 92.464644,38.5202 91.754744,39.0541 C91.044844,39.588 90.230244,39.9623 89.363244,40.1514 C89.381244,40.1303 89.508844,36.8262 90.791244,34.1722 C92.088444,31.5062 94.388344,30.3885 94.406344,30.4005 C94.434144,30.3724 95.013144,34.3116 93.475544,37.0569 Z" id="Path" fill="url(#radialGradient-19)" fill-rule="nonzero"></path>
            <path d="M84.926844,30.4327 C86.809644,32.3391 89.318844,32.6833 89.333644,32.6682 C89.361444,32.6902 88.927944,29.1825 86.811244,27.2498 C84.720744,25.3304 82.172144,25.7579 82.1836052,25.7448 C82.208144,25.7569 83.065344,28.5372 84.926844,30.4327 Z" id="Path" fill="url(#radialGradient-20)" fill-rule="nonzero"></path>
            <path d="M92.721244,28.8663 C91.713644,31.8444 89.214144,32.6672 89.235444,32.6792 C89.250144,32.6562 88.810144,29.3589 89.590444,26.4843 C90.388644,23.5956 92.430144,22.0693 92.451344,22.0744 C92.471044,22.0414 93.753444,25.8671 92.721244,28.8663 Z" id="Path" fill="url(#radialGradient-21)" fill-rule="nonzero"></path>
            <path d="M83.174444,23.8077 C85.369644,25.3749 87.887044,25.2636 87.895244,25.2475 C87.927944,25.2655 86.869644,21.845 84.424144,20.2828 C82.008144,18.7306 79.583944,19.6085 79.5937144,19.5914 C79.621544,19.6055 81.003844,22.2473 83.174444,23.8077 Z" id="Path" fill="url(#radialGradient-22)" fill-rule="nonzero"></path>
            <path d="M90.519044,20.8478 C90.080644,24.0025 87.777544,25.2708 87.800444,25.2779 C87.811844,25.2527 86.787844,22.0429 87.002144,19.0228 C87.232744,15.9855 88.935644,14.0851 88.956844,14.0901 C88.976544,14.055 90.977044,17.6642 90.519044,20.8478 Z" id="Path" fill="url(#radialGradient-23)" fill-rule="nonzero"></path>
            <path d="M80.181044,17.4748 C82.649444,18.6638 85.093244,18.1019 85.101444,18.0848 C85.137444,18.098 83.436244,14.853 80.697944,13.7031 C79.917744,13.3724 79.075244,13.2141 78.227944,13.2388 C77.382244,13.2636 76.549644,13.4709 75.789044,13.8466 C75.820144,13.8556 77.745444,16.2878 80.181044,17.4748 Z" id="Path" fill="url(#radialGradient-24)" fill-rule="nonzero"></path>
            <path d="M86.814244,13.2024 C87.013744,16.4513 84.988744,18.1301 85.018144,18.133 C85.024644,18.1069 83.398744,15.0677 82.988144,11.9823 C82.587444,8.87784 83.860044,6.66437 83.886144,6.66437 C83.896044,6.62726 86.635944,9.92437 86.814244,13.2024 Z" id="Path" fill="url(#radialGradient-25)" fill-rule="nonzero"></path>
            <path d="M75.916244,11.606 C78.618544,12.3856 80.906944,11.3892 80.915144,11.3712 C80.957644,11.3792 78.590744,8.39616 75.600544,7.6938 C72.647944,6.99143 70.717744,8.68915 70.7226347,8.67008 C70.760244,8.67409 73.245044,10.8264 75.916244,11.606 Z" id="Path" fill="url(#radialGradient-26)" fill-rule="nonzero"></path>
            <path d="M81.572644,6.13401 C82.470744,9.38699 80.813644,11.4309 80.841444,11.4319 C80.841444,11.4048 78.600444,8.61638 77.496344,5.55507 C76.398644,2.47266 77.152744,0.00133878985 77.182244,0.000335403845 C77.192044,-0.0357864002 80.692644,2.85095 81.572644,6.13401 Z" id="Path" fill="url(#radialGradient-27)" fill-rule="nonzero"></path>
            <path d="M20.591244,2.09383 C18.467244,4.04039 18.085944,7.09469 18.085944,7.09469 C18.085944,7.09469 21.147244,6.99435 23.270344,5.04678 C25.393344,3.09922 25.774644,0.0449218998 25.774644,0.0449218998 C25.774644,0.0449218998 22.713344,0.146263 20.591244,2.09383 Z" id="Path" fill="url(#radialGradient-28)" fill-rule="nonzero"></path>
            <path d="M35.519844,73.8306 C37.348444,76.1886 37.458244,78.972 37.434144,78.9811 C37.441244,79.0161 33.598344,77.9366 31.873544,75.3367 C30.148844,72.769 30.989244,70.1082 30.964244,70.119166 C30.971244,70.1392 33.695144,71.4938 35.519844,73.8306 Z" id="Path" fill="url(#radialGradient-29)" fill-rule="nonzero"></path>
            <path d="M32.828444,81.9921 C36.201044,81.4161 37.458844,78.8526 37.458844,78.8756 C37.418944,78.8876 33.804544,77.8392 30.690344,78.2073 C27.545244,78.5916 25.699644,80.5553 25.699644,80.5763 C25.653844,80.5864 29.418744,82.5811 32.828444,81.9921 Z" id="Path" fill="url(#radialGradient-30)" fill-rule="nonzero"></path>
            <path d="M28.851844,70.8833 C30.108644,73.4691 29.657544,76.1721 29.634444,76.1772 C29.634444,76.2122 26.259644,74.5266 25.122844,71.7201 C23.981044,68.9468 25.279544,66.5136 25.255644,66.5175951 C25.261544,66.5437 27.595244,68.3206 28.851844,70.8833 Z" id="Path" fill="url(#radialGradient-31)" fill-rule="nonzero"></path>
            <path d="M24.732144,78.3142 C25.668344,78.3262 26.595644,78.1326 27.449644,77.7472 C28.303744,77.3618 29.063844,76.7938 29.677144,76.0826 C29.640144,76.0887 26.471944,74.4713 23.448544,74.2987 C20.396244,74.1372 18.258244,75.7205 18.258244,75.7406 C18.213344,75.7436 21.418444,78.3112 24.732144,78.3142 Z" id="Path" fill="url(#radialGradient-32)" fill-rule="nonzero"></path>
            <path d="M23.096344,66.9011 C23.809044,69.6192 22.859844,72.1538 22.837944,72.1548 C22.837944,72.191 19.943244,69.9856 19.365344,67.0697 C18.780444,64.184 20.470344,62.0527 20.448344,62.0527 C20.450344,62.0748 22.379744,64.205 23.096344,66.9011 Z" id="Path" fill="url(#radialGradient-33)" fill-rule="nonzero"></path>
            <path d="M17.764344,73.3865 C18.663944,73.5547 19.589044,73.5241 20.475544,73.297 C21.362344,73.0698 22.189044,72.6515 22.898844,72.0712 C22.864944,72.0712 20.159844,69.9639 17.283244,69.2787 C14.378744,68.5963 12.021144,69.7603 12.016044,69.7804 C11.977144,69.7763 14.602244,72.8185 17.764344,73.3865 Z" id="Path" fill="url(#radialGradient-34)" fill-rule="nonzero"></path>
            <path d="M18.295944,62.0446 C18.495544,64.807 17.112144,67.0997 17.092244,67.0968 C17.087144,67.1318 14.696644,64.488 14.649744,61.5571 C14.590844,58.6472 16.605044,56.8672 16.584144,56.8633 C16.579044,56.8902 18.087244,59.3035 18.295944,62.0446 Z" id="Path" fill="url(#radialGradient-35)" fill-rule="nonzero"></path>
            <path d="M11.962844,67.407 C12.804944,67.7255 13.705844,67.8561 14.603144,67.7896 C15.500444,67.7231 16.372644,67.4611 17.159144,67.0216 C17.128244,67.0157 14.905244,64.5131 12.230244,63.3343 C9.529344,62.1623 7.026904,62.8796 7.020024,62.8987 C6.983064,62.8918 9.010264,66.3092 11.962844,67.407 Z" id="Path" fill="url(#radialGradient-36)" fill-rule="nonzero"></path>
            <path d="M14.479144,56.4753 C14.195744,59.2005 12.445944,61.185 12.427944,61.185 C12.417944,61.2182 10.553544,58.2321 11.003744,55.3584 C11.440744,52.5129 13.709544,51.1272 13.690644,51.1211 C13.683544,51.1423 14.752644,53.7692 14.479144,56.4753 Z" id="Path" fill="url(#radialGradient-37)" fill-rule="nonzero"></path>
            <path d="M7.381374,60.585 C8.146094,61.043 9.000774,61.3283 9.886044,61.4213 C10.771444,61.5144 11.666244,61.4129 12.508844,61.1239 C12.481844,61.1138 10.756144,58.2832 8.340584,56.6639 C5.900024,55.0424 3.329914,55.2963 3.320914,55.3132 C3.286894,55.2992 4.690384,58.9967 7.381374,60.585 Z" id="Path" fill="url(#radialGradient-38)" fill-rule="nonzero"></path>
            <path d="M11.699244,50.3658 C10.965644,52.9807 8.917294,54.6051 8.904374,54.5972 C8.890474,54.6283 7.570884,51.3814 8.488234,48.6461 C9.386434,45.9369 11.839944,44.9827 11.822944,44.9727 C11.808044,44.9978 12.420844,47.7692 11.699244,50.3658 Z" id="Path" fill="url(#radialGradient-39)" fill-rule="nonzero"></path>
            <path d="M4.063074,53.12 C4.731934,53.7038 5.518744,54.1346 6.369344,54.3829 C7.219944,54.6313 8.113884,54.6914 8.989834,54.5588 C8.964814,54.5448 7.755164,51.4745 5.656954,49.4548 C3.537004,47.4289 0.976703997,47.2151 0.965743997,47.2313 C0.934823997,47.2112 1.697424,51.0873 4.063074,53.12 Z" id="Path" fill="url(#radialGradient-40)" fill-rule="nonzero"></path>
            <path d="M9.989944,43.8787 C8.838054,46.315 6.562364,47.5381 6.547314,47.528 C6.528344,47.5562 5.773764,44.1356 7.125244,41.6081 C8.456754,39.0996 11.018044,38.5979 11.001044,38.5898 C10.986144,38.612 11.126844,41.4576 9.989944,43.8787 Z" id="Path" fill="url(#radialGradient-41)" fill-rule="nonzero"></path>
            <path d="M2.056284,45.2062 C2.611784,45.899 3.309764,46.4628 4.102284,46.8593 C4.894644,47.2557 5.763074,47.4752 6.647854,47.5029 C6.626744,47.4848 5.949054,44.2569 4.229224,41.891 C2.489594,39.5139 0.0181329969,38.8398 0.0042289969,38.8537 C-0.0278310031,38.8297 0.0740729969,42.786 2.056284,45.2062 Z" id="Path" fill="url(#radialGradient-42)" fill-rule="nonzero"></path>
            <path d="M9.394084,37.1742 C7.857924,39.3725 5.426344,40.1653 5.413424,40.1523 C5.390364,40.1783 5.219754,36.6705 6.971504,34.4118 C8.700354,32.1712 11.293544,32.1352 11.2795013,32.1211 C11.259544,32.1421 10.906144,34.9898 9.394084,37.1742 Z" id="Path" fill="url(#radialGradient-43)" fill-rule="nonzero"></path>
            <path d="M1.403924,37.0569 C1.828414,37.8391 2.415494,38.5202 3.124934,39.0541 C3.834534,39.588 4.650124,39.9623 5.516274,40.1514 C5.498274,40.1303 5.370534,36.8262 4.088894,34.1722 C2.791394,31.5062 0.495579997,30.3885 0.472678997,30.4005 C0.445688997,30.3724 -0.133215003,34.3116 1.403924,37.0569 Z" id="Path" fill="url(#radialGradient-44)" fill-rule="nonzero"></path>
            <path d="M9.954844,30.4327 C8.071434,32.3391 5.563164,32.6833 5.548114,32.6682 C5.520144,32.6902 5.953294,29.1825 8.070454,27.2498 C10.160444,25.3304 12.709744,25.7579 12.6978855,25.7448 C12.673844,25.7569 11.815344,28.5372 9.954844,30.4327 Z" id="Path" fill="url(#radialGradient-45)" fill-rule="nonzero"></path>
            <path d="M2.159084,28.8663 C3.166214,31.8444 5.665484,32.6672 5.645524,32.6792 C5.630474,32.6562 6.070654,29.3589 5.290244,26.4843 C4.491664,23.5956 2.449434,22.0693 2.429474,22.0744 C2.409514,22.0414 1.126924,25.8671 2.159084,28.8663 Z" id="Path" fill="url(#radialGradient-46)" fill-rule="nonzero"></path>
            <path d="M11.706244,23.8077 C9.510414,25.3749 6.994114,25.2636 6.985114,25.2475 C6.952234,25.2655 8.010244,21.845 10.455744,20.2828 C12.872244,18.7306 15.296644,19.6085 15.2866748,19.5914 C15.259844,19.6055 13.877244,22.2473 11.706244,23.8077 Z" id="Path" fill="url(#radialGradient-47)" fill-rule="nonzero"></path>
            <path d="M4.361154,20.8478 C4.799374,24.0025 7.102034,25.2708 7.079134,25.2779 C7.068174,25.2527 8.092154,22.0429 7.877544,19.0228 C7.646084,15.9855 5.944244,14.0851 5.922324,14.0901 C5.903344,14.055 3.902974,17.6642 4.361154,20.8478 Z" id="Path" fill="url(#radialGradient-48)" fill-rule="nonzero"></path>
            <path d="M14.701544,17.4748 C12.233244,18.6638 9.789644,18.1019 9.781844,18.0848 C9.744844,18.098 11.446744,14.853 14.184544,13.7031 C14.965444,13.3724 15.807644,13.2141 16.654544,13.2388 C17.501344,13.2636 18.333144,13.4709 19.093444,13.8466 C19.062544,13.8556 17.138044,16.2878 14.701544,17.4748 Z" id="Path" fill="url(#radialGradient-49)" fill-rule="nonzero"></path>
            <path d="M8.060714,13.2024 C7.861154,16.4513 9.886344,18.1301 9.857444,18.133 C9.850444,18.1069 11.476344,15.0677 11.887644,11.9823 C12.286844,8.87784 11.014244,6.66437 10.989244,6.66437 C10.979244,6.62726 8.239344,9.92437 8.060714,13.2024 Z" id="Path" fill="url(#radialGradient-50)" fill-rule="nonzero"></path>
            <path d="M18.964144,11.606 C16.261244,12.3856 13.973444,11.3892 13.965444,11.3712 C13.922544,11.3792 16.289144,8.39616 19.279544,7.6938 C22.233044,6.99143 24.163444,8.68915 24.1585533,8.67008 C24.119544,8.67409 21.635144,10.8264 18.964144,11.606 Z" id="Path" fill="url(#radialGradient-51)" fill-rule="nonzero"></path>
            <path d="M13.310144,6.13401 C12.411944,9.38699 14.068844,11.4309 14.040844,11.4319 C14.040844,11.4048 16.281644,8.61638 17.386644,5.55507 C18.484544,2.47266 17.729044,0.00133878985 17.701044,0.000335403845 C17.695944,-0.0357864002 14.190544,2.85095 13.310144,6.13401 Z" id="Path" fill="url(#radialGradient-52)" fill-rule="nonzero"></path>
            <polygon id="Path" fill="url(#radialGradient-53)" fill-rule="nonzero" points="47.263344 76.7852 42.761744 80.1114 47.263344 83.4385 51.764444 80.1114"></polygon>
            <path d="M31.924144,50.1875 C31.937244,50.1875 31.947744,50.1928 31.955544,50.2033 C31.966044,50.2112 31.971244,50.2217 31.971244,50.2349 L31.971244,50.6216 C31.971244,50.6348 31.966044,50.6466 31.955544,50.6571 C31.947744,50.665 31.937244,50.669 31.924144,50.669 L31.221444,50.669 C31.208344,50.669 31.201844,50.6755 31.201844,50.6887 L31.201844,52.9027 C31.201844,52.9158 31.196544,52.9276 31.186144,52.9382 C31.178244,52.9461 31.167744,52.95 31.154744,52.95 L30.695344,52.95 C30.682344,52.95 30.670544,52.9461 30.660044,52.9382 C30.652244,52.9276 30.648244,52.9158 30.648244,52.9027 L30.648244,50.6887 C30.648244,50.6755 30.641744,50.669 30.628644,50.669 L29.945544,50.669 C29.932444,50.669 29.920644,50.665 29.910244,50.6571 C29.902344,50.6466 29.898444,50.6348 29.898444,50.6216 L29.898444,50.2349 C29.898444,50.2217 29.902344,50.2112 29.910244,50.2033 C29.920644,50.1928 29.932444,50.1875 29.945544,50.1875 L31.924144,50.1875 Z M32.850644,52.9816 C32.630844,52.9816 32.442344,52.9237 32.285344,52.8079 C32.128344,52.6922 32.021044,52.5343 31.963444,52.3344 C31.926744,52.2107 31.908444,52.0765 31.908444,51.9318 C31.908444,51.7766 31.926744,51.6372 31.963444,51.5135 C32.023644,51.3188 32.132244,51.1662 32.289244,51.0557 C32.446344,50.9452 32.634744,50.89 32.854644,50.89 C33.069244,50.89 33.252444,50.9452 33.404244,51.0557 C33.556044,51.1636 33.663344,51.3149 33.726144,51.5096 C33.768044,51.6411 33.788944,51.7792 33.788944,51.9239 C33.788944,52.066 33.770644,52.1989 33.733944,52.3225 C33.676444,52.5277 33.569144,52.6895 33.412044,52.8079 C33.257644,52.9237 33.070544,52.9816 32.850644,52.9816 Z M32.850644,52.5041 C32.937044,52.5041 33.010344,52.4778 33.070544,52.4251 C33.130744,52.3725 33.173944,52.3002 33.200044,52.2081 C33.221044,52.1239 33.231444,52.0318 33.231444,51.9318 C33.231444,51.8213 33.221044,51.7279 33.200044,51.6516 C33.171244,51.5622 33.126744,51.4925 33.066644,51.4425 C33.006444,51.3925 32.933144,51.3675 32.846744,51.3675 C32.757744,51.3675 32.683144,51.3925 32.622944,51.4425 C32.565344,51.4925 32.523544,51.5622 32.497344,51.6516 C32.476444,51.7148 32.465944,51.8082 32.465944,51.9318 C32.465944,52.0502 32.475144,52.1423 32.493444,52.2081 C32.519544,52.3002 32.562744,52.3725 32.622944,52.4251 C32.685744,52.4778 32.761644,52.5041 32.850644,52.5041 Z M35.946644,51.4661 C35.993844,51.6003 36.017344,51.7582 36.017344,51.9397 C36.017344,52.1213 35.992444,52.2857 35.942744,52.433 C35.882544,52.6014 35.787044,52.7356 35.656144,52.8356 C35.527944,52.9329 35.368244,52.9816 35.177244,52.9816 C34.988744,52.9816 34.842244,52.9158 34.737544,52.7843 C34.732244,52.7764 34.727044,52.7737 34.721844,52.7764 C34.716544,52.779 34.713944,52.7843 34.713944,52.7922 L34.713944,53.6367 C34.713944,53.6498 34.708744,53.6604 34.698244,53.6683 C34.690444,53.6788 34.679944,53.684 34.666844,53.684 L34.207544,53.684 C34.194444,53.684 34.182644,53.6788 34.172244,53.6683 C34.164344,53.6604 34.160444,53.6498 34.160444,53.6367 L34.160444,50.9689 C34.160444,50.9557 34.164344,50.9452 34.172244,50.9373 C34.182644,50.9268 34.194444,50.9215 34.207544,50.9215 L34.666844,50.9215 C34.679944,50.9215 34.690444,50.9268 34.698244,50.9373 C34.708744,50.9452 34.713944,50.9557 34.713944,50.9689 L34.713944,51.0991 C34.713944,51.107 34.716544,51.1123 34.721844,51.1149 C34.727044,51.1149 34.732244,51.1123 34.737544,51.107 C34.847444,50.9623 34.999244,50.89 35.192944,50.89 C35.373544,50.89 35.529244,50.9413 35.660144,51.0439 C35.793544,51.1439 35.889144,51.2846 35.946644,51.4661 Z M35.346044,52.3501 C35.411444,52.2475 35.444144,52.1081 35.444144,51.9318 C35.444144,51.7661 35.416744,51.6345 35.361744,51.5372 C35.301544,51.424 35.204744,51.3675 35.071244,51.3675 C34.950844,51.3675 34.860544,51.424 34.800344,51.5372 C34.745344,51.6319 34.717944,51.7648 34.717944,51.9358 C34.717944,52.112 34.746644,52.2489 34.804244,52.3462 C34.864444,52.4514 34.953444,52.5041 35.071244,52.5041 C35.189044,52.5041 35.280644,52.4528 35.346044,52.3501 Z M38.944344,52.95 C38.918244,52.95 38.901244,52.9369 38.893344,52.9105 L38.775544,52.5238 C38.770344,52.5133 38.763844,52.508 38.755944,52.508 L37.790144,52.508 C37.782344,52.508 37.775844,52.5133 37.770544,52.5238 L37.656744,52.9105 C37.648844,52.9369 37.631844,52.95 37.605644,52.95 L37.107144,52.95 C37.091444,52.95 37.079644,52.9461 37.071744,52.9382 C37.063944,52.9276 37.062644,52.9132 37.067844,52.8948 L37.915844,50.227 C37.923644,50.2007 37.940644,50.1875 37.966844,50.1875 L38.583244,50.1875 C38.609344,50.1875 38.626444,50.2007 38.634244,50.227 L39.482244,52.8948 C39.484844,52.9 39.486144,52.9066 39.486144,52.9145 C39.486144,52.9382 39.471744,52.95 39.442944,52.95 L38.944344,52.95 Z M37.911844,52.0542 C37.909244,52.07 37.914544,52.0778 37.927644,52.0778 L38.618544,52.0778 C38.634244,52.0778 38.639444,52.07 38.634244,52.0542 L38.280944,50.8821 C38.278344,50.8716 38.274344,50.8676 38.269144,50.8702 C38.263944,50.8702 38.259944,50.8742 38.257344,50.8821 L37.911844,52.0542 Z M41.597744,51.4661 C41.644844,51.6003 41.668444,51.7582 41.668444,51.9397 C41.668444,52.1213 41.643544,52.2857 41.593844,52.433 C41.533644,52.6014 41.438144,52.7356 41.307244,52.8356 C41.179044,52.9329 41.019344,52.9816 40.828344,52.9816 C40.639844,52.9816 40.493244,52.9158 40.388644,52.7843 C40.383344,52.7764 40.378144,52.7737 40.372944,52.7764 C40.367644,52.779 40.365044,52.7843 40.365044,52.7922 L40.365044,53.6367 C40.365044,53.6498 40.359844,53.6604 40.349344,53.6683 C40.341544,53.6788 40.331044,53.684 40.317944,53.684 L39.858644,53.684 C39.845544,53.684 39.833744,53.6788 39.823244,53.6683 C39.815444,53.6604 39.811544,53.6498 39.811544,53.6367 L39.811544,50.9689 C39.811544,50.9557 39.815444,50.9452 39.823244,50.9373 C39.833744,50.9268 39.845544,50.9215 39.858644,50.9215 L40.317944,50.9215 C40.331044,50.9215 40.341544,50.9268 40.349344,50.9373 C40.359844,50.9452 40.365044,50.9557 40.365044,50.9689 L40.365044,51.0991 C40.365044,51.107 40.367644,51.1123 40.372944,51.1149 C40.378144,51.1149 40.383344,51.1123 40.388644,51.107 C40.498544,50.9623 40.650344,50.89 40.844044,50.89 C41.024544,50.89 41.180344,50.9413 41.311144,51.0439 C41.444644,51.1439 41.540144,51.2846 41.597744,51.4661 Z M40.997144,52.3501 C41.062544,52.2475 41.095244,52.1081 41.095244,51.9318 C41.095244,51.7661 41.067744,51.6345 41.012844,51.5372 C40.952644,51.424 40.855744,51.3675 40.722344,51.3675 C40.601944,51.3675 40.511644,51.424 40.451444,51.5372 C40.396444,51.6319 40.368944,51.7648 40.368944,51.9358 C40.368944,52.112 40.397744,52.2489 40.455344,52.3462 C40.515544,52.4514 40.604544,52.5041 40.722344,52.5041 C40.840044,52.5041 40.931644,52.4528 40.997144,52.3501 Z M43.829144,51.4661 C43.876244,51.6003 43.899744,51.7582 43.899744,51.9397 C43.899744,52.1213 43.874944,52.2857 43.825144,52.433 C43.764944,52.6014 43.669444,52.7356 43.538644,52.8356 C43.410344,52.9329 43.250744,52.9816 43.059644,52.9816 C42.871244,52.9816 42.724644,52.9158 42.619944,52.7843 C42.614744,52.7764 42.609444,52.7737 42.604244,52.7764 C42.599044,52.779 42.596444,52.7843 42.596444,52.7922 L42.596444,53.6367 C42.596444,53.6498 42.591144,53.6604 42.580744,53.6683 C42.572844,53.6788 42.562344,53.684 42.549344,53.684 L42.089944,53.684 C42.076844,53.684 42.065144,53.6788 42.054644,53.6683 C42.046744,53.6604 42.042844,53.6498 42.042844,53.6367 L42.042844,50.9689 C42.042844,50.9557 42.046744,50.9452 42.054644,50.9373 C42.065144,50.9268 42.076844,50.9215 42.089944,50.9215 L42.549344,50.9215 C42.562344,50.9215 42.572844,50.9268 42.580744,50.9373 C42.591144,50.9452 42.596444,50.9557 42.596444,50.9689 L42.596444,51.0991 C42.596444,51.107 42.599044,51.1123 42.604244,51.1149 C42.609444,51.1149 42.614744,51.1123 42.619944,51.107 C42.729844,50.9623 42.881644,50.89 43.075344,50.89 C43.255944,50.89 43.411644,50.9413 43.542544,51.0439 C43.676044,51.1439 43.771544,51.2846 43.829144,51.4661 Z M43.228444,52.3501 C43.293844,52.2475 43.326644,52.1081 43.326644,51.9318 C43.326644,51.7661 43.299144,51.6345 43.244144,51.5372 C43.183944,51.424 43.087144,51.3675 42.953644,51.3675 C42.833244,51.3675 42.742944,51.424 42.682744,51.5372 C42.627844,51.6319 42.600344,51.7648 42.600344,51.9358 C42.600344,52.112 42.629144,52.2489 42.686644,52.3462 C42.746844,52.4514 42.835844,52.5041 42.953644,52.5041 C43.071444,52.5041 43.163044,52.4528 43.228444,52.3501 Z M45.126744,52.95 C45.113644,52.95 45.101944,52.9461 45.091444,52.9382 C45.083544,52.9276 45.079644,52.9158 45.079644,52.9027 L45.079644,50.2349 C45.079644,50.2217 45.083544,50.2112 45.091444,50.2033 C45.101944,50.1928 45.113644,50.1875 45.126744,50.1875 L46.108244,50.1875 C46.304544,50.1875 46.475944,50.223 46.622544,50.2941 C46.771744,50.3625 46.886844,50.4598 46.967944,50.5861 C47.049144,50.7124 47.089644,50.8584 47.089644,51.0241 L47.089644,52.1134 C47.089644,52.2791 47.049144,52.4251 46.967944,52.5514 C46.886844,52.6777 46.771744,52.7764 46.622544,52.8474 C46.475944,52.9158 46.304544,52.95 46.108244,52.95 L45.126744,52.95 Z M45.633244,52.4528 C45.633244,52.4659 45.639744,52.4725 45.652844,52.4725 L46.127844,52.4725 C46.248244,52.4725 46.345044,52.4317 46.418344,52.3501 C46.494244,52.2686 46.533544,52.1594 46.536144,52.0226 L46.536144,51.1149 C46.536144,50.9781 46.498244,50.8689 46.422344,50.7874 C46.349044,50.7058 46.249544,50.665 46.123944,50.665 L45.652844,50.665 C45.639744,50.665 45.633244,50.6716 45.633244,50.6848 L45.633244,52.4528 Z M49.257444,51.7266 C49.273144,51.8266 49.278344,51.9384 49.273144,52.0621 C49.270444,52.0936 49.253444,52.1094 49.222044,52.1094 L48.008944,52.1094 C47.993244,52.1094 47.988044,52.116 47.993244,52.1291 C48.001144,52.1818 48.015544,52.2344 48.036444,52.287 C48.104544,52.4343 48.243244,52.508 48.452644,52.508 C48.620144,52.5054 48.752244,52.437 48.849144,52.3028 C48.859544,52.287 48.871344,52.2791 48.884444,52.2791 C48.892344,52.2791 48.901444,52.2844 48.911944,52.2949 L49.194544,52.5751 C49.207644,52.5883 49.214244,52.6001 49.214244,52.6106 C49.214244,52.6159 49.208944,52.6264 49.198544,52.6422 C49.112144,52.7501 49.000944,52.8342 48.864844,52.8948 C48.728744,52.9526 48.579544,52.9816 48.417244,52.9816 C48.192244,52.9816 48.001144,52.9303 47.844144,52.8277 C47.689644,52.7251 47.578444,52.5817 47.510444,52.3975 C47.455444,52.266 47.427944,52.0936 47.427944,51.8805 C47.427944,51.7358 47.447544,51.6082 47.486844,51.4977 C47.547044,51.3109 47.651744,51.1623 47.800944,51.0518 C47.952744,50.9413 48.131944,50.886 48.338744,50.886 C48.600444,50.886 48.809844,50.9623 48.966844,51.1149 C49.126544,51.2675 49.223344,51.4714 49.257444,51.7266 Z M48.342644,51.3675 C48.177844,51.3675 48.069144,51.4451 48.016844,51.6003 C48.006344,51.6345 47.997244,51.6766 47.989344,51.7266 C47.989344,51.7398 47.995944,51.7463 48.008944,51.7463 L48.688144,51.7463 C48.703844,51.7463 48.709144,51.7398 48.703844,51.7266 C48.690744,51.6503 48.684244,51.6135 48.684244,51.6161 C48.660644,51.5372 48.618844,51.4767 48.558644,51.4346 C48.501044,51.3898 48.429044,51.3675 48.342644,51.3675 Z M50.064444,52.95 C50.038344,52.95 50.021344,52.9369 50.013444,52.9105 L49.385344,50.9728 C49.382744,50.9676 49.381344,50.961 49.381344,50.9531 C49.381344,50.9294 49.395744,50.9176 49.424544,50.9176 L49.931044,50.9176 C49.959844,50.9176 49.978144,50.9307 49.985944,50.9571 L50.307844,52.1528 C50.310544,52.1607 50.314444,52.1647 50.319644,52.1647 C50.324944,52.1647 50.328844,52.1607 50.331444,52.1528 L50.653344,50.9571 C50.661244,50.9307 50.679544,50.9176 50.708344,50.9176 L51.214644,50.9255 C51.230944,50.9255 51.242444,50.9307 51.250544,50.9413 C51.257144,50.9492 51.258744,50.9623 51.253844,50.9807 L50.629844,52.9105 C50.621944,52.9369 50.604944,52.95 50.578744,52.95 L50.064444,52.95 Z M53.198744,51.7266 C53.213544,51.8266 53.220044,51.9384 53.213544,52.0621 C53.211844,52.0936 53.193844,52.1094 53.162744,52.1094 L51.950744,52.1094 C51.934344,52.1094 51.929444,52.116 51.934344,52.1291 C51.942544,52.1818 51.957244,52.2344 51.976844,52.287 C52.045544,52.4343 52.184644,52.508 52.393944,52.508 C52.560844,52.5054 52.693344,52.437 52.789844,52.3028 C52.801244,52.287 52.812744,52.2791 52.825844,52.2791 C52.834044,52.2791 52.842144,52.2844 52.853644,52.2949 L53.134944,52.5751 C53.148044,52.5883 53.154644,52.6001 53.154644,52.6106 C53.154644,52.6159 53.149744,52.6264 53.139844,52.6422 C53.053244,52.7501 52.941944,52.8342 52.806244,52.8948 C52.670444,52.9526 52.519944,52.9816 52.358044,52.9816 C52.133944,52.9816 51.942544,52.9303 51.785444,52.8277 C51.630044,52.7251 51.518844,52.5817 51.451744,52.3975 C51.396144,52.266 51.368344,52.0936 51.368344,51.8805 C51.368344,51.7358 51.387944,51.6082 51.427244,51.4977 C51.487744,51.3109 51.592444,51.1623 51.741344,51.0518 C51.893444,50.9413 52.073344,50.886 52.279444,50.886 C52.541244,50.886 52.750544,50.9623 52.907644,51.1149 C53.067944,51.2675 53.164444,51.4714 53.198744,51.7266 Z M52.284344,51.3675 C52.119144,51.3675 52.009544,51.4451 51.957244,51.6003 C51.947444,51.6345 51.937644,51.6766 51.931044,51.7266 C51.931044,51.7398 51.937644,51.7463 51.950744,51.7463 L52.629544,51.7463 C52.644244,51.7463 52.650844,51.7398 52.644244,51.7266 C52.631144,51.6503 52.624644,51.6135 52.624644,51.6161 C52.601744,51.5372 52.559244,51.4767 52.500344,51.4346 C52.441444,51.3898 52.369444,51.3675 52.284344,51.3675 Z M53.602844,52.95 C53.589744,52.95 53.578244,52.9461 53.566844,52.9382 C53.558644,52.9276 53.555344,52.9158 53.555344,52.9027 L53.555344,50.2349 C53.555344,50.2217 53.558644,50.2112 53.566844,50.2033 C53.578244,50.1928 53.589744,50.1875 53.602844,50.1875 L54.062444,50.1875 C54.075544,50.1875 54.085344,50.1928 54.093544,50.2033 C54.103344,50.2112 54.108244,50.2217 54.108244,50.2349 L54.108244,52.9027 C54.108244,52.9158 54.103344,52.9276 54.093544,52.9382 C54.085344,52.9461 54.075544,52.95 54.062444,52.95 L53.602844,52.95 Z M55.405444,52.9816 C55.184544,52.9816 54.996444,52.9237 54.839444,52.8079 C54.682444,52.6922 54.576144,52.5343 54.517244,52.3344 C54.481244,52.2107 54.463244,52.0765 54.463244,51.9318 C54.463244,51.7766 54.481244,51.6372 54.517244,51.5135 C54.577744,51.3188 54.687344,51.1662 54.844344,51.0557 C55.001444,50.9452 55.189544,50.89 55.408744,50.89 C55.622944,50.89 55.806144,50.9452 55.958344,51.0557 C56.110444,51.1636 56.218444,51.3149 56.280544,51.5096 C56.323144,51.6411 56.342744,51.7792 56.342744,51.9239 C56.342744,52.066 56.324744,52.1989 56.288744,52.3225 C56.231444,52.5277 56.123544,52.6895 55.966544,52.8079 C55.812744,52.9237 55.624644,52.9816 55.405444,52.9816 Z M55.405444,52.5041 C55.492144,52.5041 55.564144,52.4778 55.624644,52.4251 C55.685144,52.3725 55.727644,52.3002 55.753844,52.2081 C55.775144,52.1239 55.786544,52.0318 55.786544,51.9318 C55.786544,51.8213 55.775144,51.7279 55.753844,51.6516 C55.726044,51.5622 55.681844,51.4925 55.621344,51.4425 C55.560844,51.3925 55.487244,51.3675 55.400544,51.3675 C55.312244,51.3675 55.236944,51.3925 55.178044,51.4425 C55.119144,51.4925 55.078244,51.5622 55.052144,51.6516 C55.030844,51.7148 55.021044,51.8082 55.021044,51.9318 C55.021044,52.0502 55.029244,52.1423 55.047244,52.2081 C55.073344,52.3002 55.117544,52.3725 55.178044,52.4251 C55.240244,52.4778 55.315444,52.5041 55.405444,52.5041 Z M58.501944,51.4661 C58.547744,51.6003 58.572244,51.7582 58.572244,51.9397 C58.572244,52.1213 58.547744,52.2857 58.497044,52.433 C58.436544,52.6014 58.341644,52.7356 58.210744,52.8356 C58.083144,52.9329 57.922844,52.9816 57.731544,52.9816 C57.543344,52.9816 57.396144,52.9158 57.291444,52.7843 C57.286544,52.7764 57.281644,52.7737 57.276744,52.7764 C57.271844,52.779 57.268544,52.7843 57.268544,52.7922 L57.268544,53.6367 C57.268544,53.6498 57.263644,53.6604 57.252244,53.6683 C57.245644,53.6788 57.234244,53.684 57.221144,53.684 L56.761444,53.684 C56.748344,53.684 56.736944,53.6788 56.727144,53.6683 C56.718944,53.6604 56.715644,53.6498 56.715644,53.6367 L56.715644,50.9689 C56.715644,50.9557 56.718944,50.9452 56.727144,50.9373 C56.736944,50.9268 56.748344,50.9215 56.761444,50.9215 L57.221144,50.9215 C57.234244,50.9215 57.245644,50.9268 57.252244,50.9373 C57.263644,50.9452 57.268544,50.9557 57.268544,50.9689 L57.268544,51.0991 C57.268544,51.107 57.271844,51.1123 57.276744,51.1149 C57.281644,51.1149 57.286544,51.1123 57.291444,51.107 C57.402744,50.9623 57.553144,50.89 57.747844,50.89 C57.927744,50.89 58.083144,50.9413 58.214044,51.0439 C58.348144,51.1439 58.443044,51.2846 58.501944,51.4661 Z M57.899944,52.3501 C57.965344,52.2475 57.998144,52.1081 57.998144,51.9318 C57.998144,51.7661 57.971944,51.6345 57.916344,51.5372 C57.855844,51.424 57.759344,51.3675 57.625144,51.3675 C57.505744,51.3675 57.415744,51.424 57.355244,51.5372 C57.299644,51.6319 57.271844,51.7648 57.271844,51.9358 C57.271844,52.112 57.301244,52.2489 57.358544,52.3462 C57.419044,52.4514 57.507344,52.5041 57.625144,52.5041 C57.742944,52.5041 57.834544,52.4528 57.899944,52.3501 Z M60.705344,51.7266 C60.721644,51.8266 60.726544,51.9384 60.721644,52.0621 C60.718344,52.0936 60.702044,52.1094 60.669344,52.1094 L59.457244,52.1094 C59.440844,52.1094 59.435944,52.116 59.440844,52.1291 C59.449044,52.1818 59.463744,52.2344 59.485044,52.287 C59.552144,52.4343 59.691144,52.508 59.900544,52.508 C60.067344,52.5054 60.199844,52.437 60.296344,52.3028 C60.307844,52.287 60.319244,52.2791 60.332344,52.2791 C60.340544,52.2791 60.348744,52.2844 60.360144,52.2949 L60.643144,52.5751 C60.656244,52.5883 60.662744,52.6001 60.662744,52.6106 C60.662744,52.6159 60.656244,52.6264 60.646444,52.6422 C60.559744,52.7501 60.448444,52.8342 60.312744,52.8948 C60.176944,52.9526 60.028144,52.9816 59.864544,52.9816 C59.640444,52.9816 59.449044,52.9303 59.292044,52.8277 C59.138244,52.7251 59.027044,52.5817 58.958344,52.3975 C58.902744,52.266 58.876544,52.0936 58.876544,51.8805 C58.876544,51.7358 58.896144,51.6082 58.935444,51.4977 C58.994344,51.3109 59.098944,51.1623 59.249444,51.0518 C59.399944,50.9413 59.579944,50.886 59.786044,50.886 C60.047744,50.886 60.257144,50.9623 60.414144,51.1149 C60.574444,51.2675 60.670944,51.4714 60.705344,51.7266 Z M59.790944,51.3675 C59.625744,51.3675 59.517744,51.4451 59.465444,51.6003 C59.453944,51.6345 59.445744,51.6766 59.437544,51.7266 C59.437544,51.7398 59.444144,51.7463 59.457244,51.7463 L60.136044,51.7463 C60.152444,51.7463 60.157344,51.7398 60.152444,51.7266 C60.139344,51.6503 60.132744,51.6135 60.132744,51.6161 C60.108244,51.5372 60.067344,51.4767 60.006844,51.4346 C59.949544,51.3898 59.877644,51.3675 59.790944,51.3675 Z M62.066244,50.8939 C62.161144,50.8939 62.236344,50.9123 62.290344,50.9492 C62.311644,50.9597 62.319844,50.9794 62.314844,51.0084 L62.231444,51.4583 C62.229844,51.4898 62.210244,51.499 62.177544,51.4859 C62.138244,51.4727 62.092444,51.4661 62.040144,51.4661 C62.018844,51.4661 61.989344,51.4688 61.953444,51.474 C61.858544,51.4819 61.778344,51.5175 61.712944,51.5806 C61.647544,51.6411 61.614844,51.7227 61.614844,51.8253 L61.614844,52.9027 C61.614844,52.9158 61.609844,52.9276 61.600044,52.9382 C61.591844,52.9461 61.582044,52.95 61.569044,52.95 L61.109344,52.95 C61.096244,52.95 61.084844,52.9461 61.073344,52.9382 C61.065144,52.9276 61.061944,52.9158 61.061944,52.9027 L61.061944,50.9689 C61.061944,50.9557 61.065144,50.9452 61.073344,50.9373 C61.084844,50.9268 61.096244,50.9215 61.109344,50.9215 L61.569044,50.9215 C61.582044,50.9215 61.591844,50.9268 61.600044,50.9373 C61.609844,50.9452 61.614844,50.9557 61.614844,50.9689 L61.614844,51.1189 C61.614844,51.1268 61.618044,51.132 61.622944,51.1346 C61.627844,51.1373 61.632744,51.136 61.634444,51.1307 C61.742344,50.9728 61.886344,50.8939 62.066244,50.8939 Z M63.338844,52.9776 C63.163844,52.9776 63.010144,52.9526 62.879244,52.9027 C62.748344,52.8527 62.646944,52.7829 62.573344,52.6935 C62.503044,52.604 62.467044,52.5027 62.467044,52.3896 L62.467044,52.3501 C62.467044,52.337 62.471944,52.3265 62.478444,52.3186 C62.489944,52.3081 62.501344,52.3028 62.514444,52.3028 L62.949544,52.3028 C62.962644,52.3028 62.974144,52.3081 62.982344,52.3186 C62.992144,52.3265 62.997044,52.337 62.997044,52.3501 L62.997044,52.3541 C62.997044,52.412 63.028044,52.462 63.091844,52.5041 C63.157344,52.5435 63.237444,52.5633 63.335644,52.5633 C63.423944,52.5633 63.495944,52.5462 63.551544,52.512 C63.605544,52.4751 63.633344,52.4304 63.633344,52.3778 C63.633344,52.3304 63.610444,52.2949 63.562944,52.2712 C63.515544,52.2475 63.438644,52.2225 63.330744,52.1962 C63.208044,52.1647 63.111544,52.1344 63.041144,52.1055 C62.872744,52.0476 62.740144,51.9766 62.640444,51.8924 C62.540644,51.8082 62.491544,51.6871 62.491544,51.5293 C62.491544,51.3346 62.565144,51.1807 62.714044,51.0676 C62.866144,50.9518 63.067344,50.8939 63.315944,50.8939 C63.482844,50.8939 63.630044,50.9215 63.754344,50.9768 C63.880344,51.0294 63.976844,51.1044 64.045544,51.2017 C64.115844,51.2991 64.151844,51.4096 64.151844,51.5332 C64.151844,51.5464 64.146944,51.5582 64.135544,51.5688 C64.127344,51.5766 64.117544,51.5806 64.104444,51.5806 L63.684044,51.5806 C63.670944,51.5806 63.659544,51.5766 63.649644,51.5688 C63.641544,51.5582 63.636644,51.5464 63.636644,51.5332 C63.636644,51.4754 63.607144,51.4267 63.546644,51.3872 C63.489344,51.3478 63.412444,51.328 63.315944,51.328 C63.229244,51.328 63.158944,51.3438 63.103344,51.3754 C63.047744,51.407 63.021544,51.4504 63.021544,51.5056 C63.021544,51.5582 63.047744,51.5977 63.100044,51.624 C63.154044,51.6503 63.244044,51.6779 63.369944,51.7069 C63.399444,51.7148 63.432144,51.724 63.468144,51.7345 C63.505744,51.7424 63.544944,51.7529 63.585844,51.7661 C63.772344,51.8213 63.917944,51.8924 64.025944,51.9792 C64.133844,52.066 64.186244,52.1923 64.186244,52.358 C64.186244,52.5527 64.109344,52.7053 63.955544,52.8158 C63.803444,52.9237 63.597344,52.9776 63.338844,52.9776 Z" id="Shape" fill="#FFFFFF" fill-rule="nonzero"></path>
            <polygon id="Path" fill="#FF9900" fill-rule="nonzero" points="26.481544 35.4062 25.223244 37.9698 22.410144 38.3786 24.445844 40.375 23.964644 43.1916 26.481544 41.8625 28.998744 43.1916 28.517344 40.375 30.553144 38.3814 27.740144 37.9698"></polygon>
            <polygon id="Path" fill="#FF9900" fill-rule="nonzero" points="36.993344 35.4062 35.734944 37.9698 32.921844 38.3786 34.957544 40.375 34.476344 43.1916 36.993344 41.8625 39.510444 43.1916 39.029044 40.375 41.064744 38.3814 38.251844 37.9698"></polygon>
            <polygon id="Path" fill="#FF9900" fill-rule="nonzero" points="47.501144 35.4062 46.242544 37.9698 43.429644 38.3786 45.465344 40.375 44.984144 43.1916 47.501144 41.8625 50.018044 43.1916 49.536744 40.375 51.572444 38.3814 48.759644 37.9698"></polygon>
            <polygon id="Path" fill="#FF9900" fill-rule="nonzero" points="58.012844 35.4062 56.754944 37.9698 53.941444 38.3786 55.977944 40.375 55.497044 43.1916 58.012844 41.8625 60.530244 43.1916 60.049344 40.375 62.085844 38.3814 59.272344 37.9698"></polygon>
            <polygon id="Path" fill="#FF9900" fill-rule="nonzero" points="68.524544 35.4062 67.266644 37.9698 64.453144 38.3786 66.488044 40.375 66.007144 43.1916 68.524544 41.8625 71.041944 43.1916 70.559444 40.375 72.595944 38.3814 69.782444 37.9698"></polygon>
            <path d="M39.477644,21.4381 L39.477644,26.6809 L40.301344,26.6809 L41.125044,26.6809 L41.125044,21.4381 L41.125044,16.1953 L40.301344,16.1953 L39.477644,16.1953 L39.477644,21.4381 Z M61.412644,21.4381 L61.412644,26.6809 L62.235144,26.6809 L63.057644,26.6809 L63.066044,24.6137 C63.075244,22.3599 63.071144,22.4325 63.207044,22.0779 C63.319444,21.7845 63.552244,21.5136 63.828644,21.3545 C64.119644,21.1869 64.636744,21.0724 64.952544,21.1056 C65.487044,21.1619 65.786344,21.4341 65.953844,22.0165 L66.004244,22.1918 L66.010944,24.4364 L66.017644,26.6809 L66.852944,26.6809 L67.688344,26.6809 L67.679744,24.3588 C67.670544,21.8458 67.675844,21.9609 67.546444,21.4825 C67.260344,20.4243 66.484344,19.7182 65.398744,19.5279 C65.122444,19.4795 64.582044,19.4791 64.311144,19.5272 C63.934044,19.594 63.526044,19.7516 63.200544,19.9558 C63.135144,19.9968 63.076744,20.0304 63.070844,20.0304 C63.064844,20.0304 63.059944,19.1675 63.059944,18.1129 L63.059944,16.1953 L62.236244,16.1953 L61.412644,16.1953 L61.412644,21.4381 Z M34.129344,16.5193 C32.548544,16.6616 31.261444,17.4103 30.413244,18.6808 C30.013544,19.2795 29.736744,20.0099 29.611844,20.7952 C29.545944,21.21 29.540144,22.0735 29.600544,22.48 C29.686244,23.0559 29.845144,23.5794 30.081744,24.0651 C30.336044,24.5868 30.655444,25.0388 31.033844,25.412 C31.440144,25.8129 31.811044,26.0738 32.335244,26.3273 C33.017344,26.6572 33.725844,26.8139 34.535544,26.8139 C35.348544,26.8139 36.041644,26.659 36.758344,26.3169 C37.320144,26.0488 37.725044,25.7626 38.178844,25.3126 L38.438044,25.0556 L37.897144,24.5076 C37.599644,24.2062 37.341344,23.9474 37.323044,23.9325 C37.295444,23.9099 37.243244,23.9488 37.012844,24.1634 C36.673944,24.4791 36.407444,24.6691 36.081344,24.8278 C35.561044,25.0808 35.111444,25.1832 34.524244,25.1822 C33.602744,25.1807 32.840544,24.8793 32.222244,24.2719 C31.159344,23.2278 30.883144,21.4015 31.570744,19.9649 C31.884544,19.3092 32.490744,18.7065 33.119444,18.425 C33.346844,18.3232 33.680944,18.2203 33.932444,18.1746 C34.247244,18.1173 34.833444,18.1226 35.156644,18.1857 C35.889844,18.3287 36.454344,18.6251 37.028744,19.1686 L37.268844,19.3958 L37.848344,18.8266 L38.427744,18.2573 L38.213644,18.0441 C37.390144,17.2241 36.421844,16.7313 35.301444,16.5619 C35.073544,16.5274 34.336544,16.5007 34.129344,16.5193 Z M50.755644,18.4399 L50.749744,19.6203 L50.168644,19.6262 L49.587544,19.6322 L49.587544,20.3962 L49.587544,21.1603 L50.168644,21.1662 L50.749744,21.1721 L50.755544,23.9265 L50.761244,26.6809 L51.584744,26.6809 L52.408244,26.6809 L52.413944,23.9265 L52.419744,21.1721 L53.102344,21.1662 L53.785044,21.1604 L53.785044,20.3962 L53.785044,19.632 L53.102344,19.6262 L52.419744,19.6203 L52.413844,18.4399 L52.408044,17.2594 L51.584744,17.2594 L50.761444,17.2594 L50.755644,18.4399 Z M57.350544,19.4984 C56.694044,19.5566 56.063844,19.7745 55.533944,20.1266 C55.268644,20.3029 54.829644,20.7341 54.650244,20.9948 C54.372744,21.3978 54.175944,21.863 54.077844,22.3477 C54.014544,22.6608 53.992744,23.2603 54.032644,23.5954 C54.218344,25.1579 55.320944,26.3757 56.854144,26.7115 C58.174344,27.0006 59.450244,26.6592 60.432044,25.7539 L60.608044,25.5917 L60.135844,25.1262 C59.876144,24.8701 59.607744,24.6125 59.539444,24.5537 L59.415144,24.4468 L59.212144,24.6207 C58.950544,24.8447 58.714644,24.9836 58.439644,25.0755 C58.029744,25.2124 57.617144,25.2272 57.188244,25.1203 C56.451944,24.9369 55.927344,24.4274 55.724944,23.6993 C55.651344,23.4345 55.639044,22.971 55.698144,22.6903 C55.832344,22.0529 56.186144,21.595 56.751344,21.3269 C57.095344,21.1638 57.270744,21.1289 57.745444,21.1295 C58.124044,21.1299 58.165444,21.1341 58.353444,21.1909 C58.629944,21.2746 58.906244,21.4196 59.129444,21.5983 C59.232544,21.6809 59.341944,21.7681 59.372444,21.7921 L59.428044,21.8357 L60.012744,21.2601 L60.597444,20.6844 L60.393044,20.507 C59.754744,19.9534 59.158944,19.6643 58.386844,19.5335 C58.138244,19.4914 57.625444,19.474 57.350544,19.4984 Z M42.553444,21.9646 C42.562644,24.4464 42.558644,24.3491 42.670744,24.7744 C42.884544,25.5852 43.378944,26.2078 44.070044,26.5364 C44.439544,26.7122 44.777744,26.7894 45.254744,26.8068 C45.526744,26.8168 45.659744,26.8111 45.852744,26.7813 C46.260644,26.7183 46.676544,26.5656 47.009744,26.3565 C47.075144,26.3155 47.133544,26.2819 47.139544,26.2819 C47.145444,26.2819 47.150344,26.3717 47.150344,26.4814 L47.150344,26.6809 L47.985344,26.6809 L48.820344,26.6809 L48.820344,23.1562 L48.820344,19.6314 L47.985344,19.6314 L47.150344,19.6314 L47.150344,21.6829 C47.150344,23.4659 47.145744,23.7566 47.114744,23.9039 C46.967244,24.6053 46.523744,25.0242 45.781144,25.1638 C45.279444,25.2581 44.858644,25.1611 44.595944,24.8905 C44.449244,24.7394 44.376344,24.6077 44.290444,24.3379 L44.228144,24.1426 L44.221744,21.887 L44.215244,19.6314 L43.380044,19.6314 L42.544844,19.6314 L42.553444,21.9646 Z" id="Shape" fill="#FFFFFF"></path>
            <path d="M57.267544,22.0405 C56.924644,22.1362 56.608644,22.4591 56.532444,22.7918 C56.498744,22.9391 56.507344,23.2288 56.549544,23.3642 C56.650344,23.6881 56.886944,23.9316 57.213844,24.0482 C57.386944,24.1098 57.697444,24.1099 57.875544,24.0484 C58.382844,23.8729 58.673644,23.3546 58.561944,22.8249 C58.485044,22.4599 58.179544,22.1355 57.825344,22.0428 C57.691044,22.0076 57.389644,22.0064 57.267544,22.0405 Z" id="Path" fill="#FF3D2E"></path>
        </g>
    </g>
</svg>