<?xml version="1.0" encoding="UTF-8"?>
<svg width="45px" height="45px" viewBox="0 0 45 45" version="1.1" xmlns="http://www.w3.org/2000/svg" xmlns:xlink="http://www.w3.org/1999/xlink">
    <title>Group 18728</title>
    <g id="Page-1" stroke="none" stroke-width="1" fill="none" fill-rule="evenodd">
        <g id="Group-18728" fill="#FF6E43" fill-rule="nonzero">
            <rect id="Rectangle" opacity="0.23" x="0" y="0" width="45" height="45" rx="3"></rect>
            <path d="M33.92,19.9199 L25.08,19.9199 L25.08,16.945 L23.52,16.425 L23.52,15.189 C24.5049,15.0038 25.08,14.2769 25.08,13.1594 C25.08,11.823 23.5309,10.3431 23.3541,10.1788 L23,9.84961 L22.6459,10.1793 C22.4691,10.3436 20.92,11.8235 20.92,13.1599 C20.92,14.2774 21.4951,15.0038 22.48,15.1895 L22.48,16.0787 L20.92,15.5587 L20.92,19.9199 L12.08,19.9199 L12.08,26.1599 L10.52,26.1599 L10.52,34.4799 L35.48,34.4799 L35.48,26.1599 L33.92,26.1599 L33.92,19.9199 Z M21.96,13.1599 C21.96,12.6264 22.505,11.8511 22.999,11.304 C23.4441,11.798 24.04,12.5879 24.04,13.1599 C24.04,13.8791 23.7192,14.1999 23,14.1999 C22.2809,14.1999 21.96,13.8791 21.96,13.1599 Z M21.96,17.0012 L24.04,17.6943 L24.04,19.9199 L21.96,19.9199 L21.96,17.0012 Z M20.92,20.9599 L25.08,20.9599 L32.88,20.9599 L32.88,23.4138 C32.7214,23.5079 32.5431,23.5599 32.36,23.5599 C31.7865,23.5599 31.32,23.0935 31.32,22.5199 L30.28,22.5199 C30.28,23.0935 29.8136,23.5599 29.24,23.5599 C28.6665,23.5599 28.2,23.0935 28.2,22.5199 L27.16,22.5199 C27.16,23.0935 26.6936,23.5599 26.12,23.5599 C25.5465,23.5599 25.08,23.0935 25.08,22.5199 L24.04,22.5199 C24.04,23.0935 23.5736,23.5599 23,23.5599 C22.4265,23.5599 21.96,23.0935 21.96,22.5199 L20.92,22.5199 C20.92,23.0935 20.4536,23.5599 19.88,23.5599 C19.3065,23.5599 18.84,23.0935 18.84,22.5199 L17.8,22.5199 C17.8,23.0935 17.3336,23.5599 16.76,23.5599 C16.1865,23.5599 15.72,23.0935 15.72,22.5199 L14.68,22.5199 C14.68,23.0935 14.2136,23.5599 13.64,23.5599 C13.457,23.5599 13.2786,23.5079 13.12,23.4138 L13.12,20.9599 L20.92,20.9599 Z M13.12,24.524 C13.2895,24.5687 13.4627,24.5999 13.64,24.5999 C14.264,24.5999 14.8183,24.3181 15.2,23.8813 C15.5817,24.3181 16.136,24.5999 16.76,24.5999 C17.384,24.5999 17.9383,24.3181 18.32,23.8813 C18.7017,24.3181 19.256,24.5999 19.88,24.5999 C20.504,24.5999 21.0583,24.3181 21.44,23.8813 C21.8217,24.3181 22.376,24.5999 23,24.5999 C23.624,24.5999 24.1783,24.3181 24.56,23.8813 C24.9417,24.3181 25.496,24.5999 26.12,24.5999 C26.744,24.5999 27.2983,24.3181 27.68,23.8813 C28.0617,24.3181 28.616,24.5999 29.24,24.5999 C29.864,24.5999 30.4183,24.3181 30.8,23.8813 C31.1817,24.3181 31.736,24.5999 32.36,24.5999 C32.5373,24.5999 32.7105,24.5687 32.88,24.524 L32.88,26.1599 L13.12,26.1599 L13.12,24.524 Z M34.44,27.1999 L34.44,33.4399 L11.56,33.4399 L11.56,27.1999 L12.08,27.1999 L33.92,27.1999 L34.44,27.1999 Z" id="Shape"></path>
        </g>
    </g>
</svg>