<?xml version="1.0" encoding="UTF-8"?>
<svg width="45px" height="45px" viewBox="0 0 45 45" version="1.1" xmlns="http://www.w3.org/2000/svg" xmlns:xlink="http://www.w3.org/1999/xlink">
    <title>Group 18725</title>
    <g id="Page-1" stroke="none" stroke-width="1" fill="none" fill-rule="evenodd">
        <g id="Group-18725" fill="#FF6E43" fill-rule="nonzero">
            <rect id="Rectangle" opacity="0.23" x="0" y="0" width="45" height="45" rx="3"></rect>
            <g id="Group" transform="translate(6.999977, 10.999533)">
                <path d="M29.0000212,19.0005673 L29.0000212,1.44056727 C28.9974228,1.24706727 28.9564228,1.05606727 28.8794228,0.878567267 C28.8024228,0.701167267 28.6908228,0.540767267 28.5512228,0.406767267 C28.4117228,0.272767267 28.2469228,0.167867267 28.0664228,0.0981672667 C27.8859228,0.0283672667 27.6934228,-0.00483273334 27.5000212,0.000567266656 L4.50002121,0.000567266656 C4.30662275,-0.00483273334 4.11412275,0.0283672667 3.93362275,0.0981672667 C3.75322275,0.167867267 3.58842275,0.272767267 3.44882275,0.406767267 C3.30922275,0.540767267 3.19772275,0.701167267 3.12062275,0.878567267 C3.04362275,1.05606727 3.00262275,1.24706727 3.00002121,1.44056727 L3.00002121,19.0005673 L2.12092196e-05,19.0005673 L2.12092196e-05,19.4405673 C-0.002707247,20.1099673 0.257912753,20.7536673 0.725652753,21.2326673 C1.19338275,21.7115673 1.83071275,21.9873673 2.50004275,22.0005673 L29.5000212,22.0005673 C30.1694228,21.9873673 30.8067228,21.7115673 31.2744228,21.2326673 C31.7422228,20.7536673 32.0028228,20.1099673 32.0000451,19.4405673 L32.0000451,19.0005673 L29.0000212,19.0005673 Z M4.00002275,1.44056727 C4.00252275,1.37826727 4.01762275,1.31726727 4.04432275,1.26096727 C4.07112275,1.20476727 4.10902275,1.15456727 4.15582275,1.11346727 C4.20252275,1.07226727 4.25712275,1.04106727 4.31632275,1.02166727 C4.37552275,1.00226727 4.43802275,0.995067267 4.50002275,1.00056727 L27.5000228,1.00056727 C27.5621228,0.995067267 27.6246228,1.00226727 27.6837228,1.02166727 C27.7429228,1.04106727 27.7975228,1.07226727 27.8443228,1.11346727 C27.8910228,1.15456727 27.9289228,1.20476727 27.9557228,1.26096727 C27.9825228,1.31726727 27.9976228,1.37826727 28.0000228,1.44056727 L28.0000228,19.0005673 L4.00002275,19.0005673 L4.00002275,1.44056727 Z M2.50004275,21.0005673 C2.19490275,20.9827673 1.90088275,20.8796673 1.65156275,20.7028673 C1.40224275,20.5259673 1.20767275,20.2826673 1.09004275,20.0005673 L14.0000228,20.0005673 L14.0000228,21.0005673 L2.50004275,21.0005673 Z M29.5000228,21.0005673 L18.0000228,21.0005673 L18.0000228,20.0005673 L30.9100228,20.0005673 C30.7924228,20.2826673 30.5978228,20.5259673 30.3485228,20.7028673 C30.0992228,20.8796673 29.8052228,20.9827673 29.5000228,21.0005673 Z" id="Shape"></path>
                <path d="M5.00002275,18.0004673 L27.0000228,18.0004673 L27.0000228,2.00046727 L5.00002275,2.00046727 L5.00002275,18.0004673 Z M6.00002275,3.00046727 L26.0000228,3.00046727 L26.0000228,17.0004673 L6.00002275,17.0004673 L6.00002275,3.00046727 Z" id="Shape"></path>
            </g>
        </g>
    </g>
</svg>