<?xml version="1.0" encoding="UTF-8"?>
<svg width="490px" height="335px" viewBox="0 0 490 335" version="1.1" xmlns="http://www.w3.org/2000/svg" xmlns:xlink="http://www.w3.org/1999/xlink">
    <title>Frame</title>
    <g id="Page-1" stroke="none" stroke-width="1" fill="none" fill-rule="evenodd">
        <g id="Frame" transform="translate(1.000000, 1.000000)">
            <path d="M58.873739,169.864539 C58.873739,169.864539 54.896139,166.759539 56.149339,164.184539 C57.402539,161.610539 59.800039,165.969539 62.742339,165.982539 C66.747139,165.982539 70.738339,158.872539 76.214339,160.533539 C77.998839,159.444539 80.927539,159.430539 79.810539,155.085539 C78.693539,150.739539 69.199139,141.395539 58.301639,148.001539 C52.975439,151.230539 52.403339,165.138539 58.900939,169.864539 L58.873739,169.864539 Z M110.241539,257.943539 L117.583539,232.307539 L155.629539,209.150539 L149.036539,234.500539 L110.241539,257.943539 Z M190.174539,222.894539 C192.141539,221.893539 194.316539,221.371539 196.522539,221.371539 C198.729539,221.371539 200.904539,221.893539 202.870539,222.894539 C206.371539,224.910539 206.371539,228.193539 202.870539,230.223539 C200.902539,231.217539 198.727539,231.734539 196.522539,231.734539 C194.317539,231.734539 192.143539,231.217539 190.174539,230.223539 C186.674539,228.193539 186.674539,224.910539 190.174539,222.894539 Z M191.973539,223.412539 C193.381539,222.700539 194.937539,222.329539 196.515539,222.329539 C198.094539,222.329539 199.650539,222.700539 201.058539,223.412539 C203.565539,224.870539 203.565539,227.213539 201.058539,228.670539 C199.650539,229.382539 198.094539,229.753539 196.515539,229.753539 C194.937539,229.753539 193.381539,229.382539 191.973539,228.670539 C189.466539,227.213539 189.466539,224.870539 191.973539,223.412539 Z M379.192539,160.465539 C379.192539,160.465539 371.849539,162.944539 369.057539,158.177539 C366.264539,153.409539 376.522539,145.154539 384.422539,145.754539 C392.323539,146.353539 395.756539,152.565539 395.211539,163.735539 C395.102539,166.064539 393.930539,163.735539 391.942539,165.097539 C389.953539,166.459539 388.182539,169.796539 385.730539,166.731539 C383.278539,163.666539 383.619539,159.062539 379.192539,160.520539 L379.192539,160.465539 Z M332.414539,227.825539 C333.068539,226.668539 337.863539,223.126539 337.863539,223.126539 C337.863539,223.126539 339.048539,221.028539 336.146539,217.950539 C334.648539,216.369539 333.422539,216.887539 333.422539,216.887539 L328.872539,221.355539 L323.424539,222.867539 L332.414539,227.825539 Z M298.455539,154.676539 C298.455539,154.676539 276.210539,160.642539 270.666539,140.141539 C268.582539,132.486539 272.028539,132.568539 266.825539,124.817539 C261.621539,117.066539 261.676539,107.381539 268.745539,108.471539 C275.815539,109.560539 290.813539,116.834539 302.255539,133.371539 C306.887539,140.060539 305.838539,148.819539 298.455539,154.608539 L298.455539,154.676539 Z M310.020539,156.270539 C310.020539,156.270539 307.677539,135.278539 322.375539,132.486539 C337.073539,129.693539 336.923539,127.037539 347.262539,124.626539 C357.601539,122.215539 368.812539,126.261539 364.494539,131.519539 C360.175539,136.777539 346.308539,149.118539 346.308539,149.118539 L335.765539,146.843539 L345.300539,155.017539 C345.300539,155.017539 327.592539,166.391539 309.979539,156.202539 L310.020539,156.270539 Z M312.077539,205.921539 C302.786539,208.918539 290.799539,208.142539 282.899539,203.579539 C273.363539,198.130539 273.363539,189.153539 282.899539,183.650539 C292.434539,178.201539 307.895539,178.201539 317.416539,183.650539 L312.077539,205.921539 Z M470.390539,292.325539 C470.380539,291.633539 470.206539,290.953539 469.885539,290.340539 C469.563539,289.727539 469.101539,289.199539 468.537539,288.797539 L424.021539,263.093539 C423.000539,262.507539 422.169539,263.093539 422.169539,264.455539 L422.169539,290.336539 C422.181539,291.028539 422.355539,291.707539 422.677539,292.320539 C422.999539,292.932539 423.459539,293.461539 424.021539,293.864539 L468.537539,319.569539 C469.559539,320.155539 470.390539,319.569539 470.390539,318.207539 L470.390539,292.325539 Z M463.089539,288.579539 L429.470539,269.168539 L429.470539,270.803539 L463.089539,290.227539 L463.089539,288.606539 L463.089539,288.579539 Z M432.167539,279.820539 C433.924539,280.961539 435.386539,282.501539 436.435539,284.314539 C437.483539,286.128539 438.089539,288.163539 438.202539,290.255539 C438.202539,294.096539 435.477539,295.703539 432.167539,293.728539 C430.413539,292.586539 428.953539,291.045539 427.907539,289.232539 C426.861539,287.419539 426.257539,285.384539 426.146539,283.294539 C426.146539,279.452539 428.871539,277.845539 432.167539,279.820539 Z M432.167539,280.746539 C433.687539,281.738539 434.951539,283.073539 435.857539,284.645539 C436.764539,286.217539 437.287539,287.980539 437.384539,289.791539 C437.384539,293.115539 435.055539,294.464539 432.167539,292.802539 C430.648539,291.810539 429.385539,290.474539 428.478539,288.903539 C427.572539,287.331539 427.048539,285.568539 426.950539,283.757539 C426.950539,280.433539 429.293539,279.085539 432.167539,280.746539 Z M432.167539,285.323539 C432.534539,285.563539 432.839539,285.884539 433.059539,286.263539 C433.279539,286.641539 433.407539,287.066539 433.434539,287.503539 C433.434539,288.307539 432.862539,288.620539 432.167539,288.225539 C431.803539,287.984539 431.500539,287.662539 431.283539,287.283539 C431.065539,286.905539 430.939539,286.481539 430.914539,286.045539 C430.914539,285.255539 431.486539,284.928539 432.167539,285.323539 Z M460.473539,296.221539 C462.226539,297.365539 463.684539,298.906539 464.731539,300.719539 C465.777539,302.532539 466.381539,304.565539 466.494539,306.655539 C466.494539,310.497539 463.770539,312.104539 460.473539,310.143539 C458.716539,308.999539 457.254539,307.456539 456.205539,305.641539 C455.157539,303.825539 454.552539,301.788539 454.439539,299.695539 C454.439539,295.853539 457.163539,294.246539 460.473539,296.221539 Z M460.473539,297.147539 C461.991539,298.140539 463.254539,299.476539 464.161539,301.047539 C465.067539,302.619539 465.591539,304.381539 465.690539,306.192539 C465.690539,309.516539 463.348539,310.864539 460.473539,309.203539 C458.952539,308.215539 457.686539,306.882539 456.777539,305.313539 C455.868539,303.744539 455.342539,301.982539 455.242539,300.171539 C455.242539,296.834539 457.585539,295.485539 460.473539,297.147539 Z M460.473539,301.724539 C460.837539,301.966539 461.139539,302.288539 461.356539,302.667539 C461.574539,303.045539 461.700539,303.468539 461.727539,303.904539 C461.727539,304.707539 461.154539,305.034539 460.473539,304.626539 C460.104539,304.393539 459.796539,304.074539 459.576539,303.697539 C459.355539,303.320539 459.229539,302.896539 459.206539,302.460539 C459.206539,301.656539 459.779539,301.329539 460.473539,301.724539 Z M450.734539,285.623539 L441.907539,280.529539 L441.907539,291.698539 L450.734539,296.793539 L450.734539,285.623539 Z M467.938539,273.663539 C468.674539,273.241539 469.300539,273.595539 469.300539,274.440539 C469.271539,274.904539 469.133539,275.354539 468.896539,275.754539 C468.659539,276.155539 468.331539,276.493539 467.938539,276.742539 C467.203539,277.178539 466.576539,276.823539 466.576539,275.979539 C466.606539,275.513539 466.745539,275.061539 466.982539,274.659539 C467.218539,274.257539 467.546539,273.916539 467.938539,273.663539 L467.938539,273.663539 Z" id="Shape" stroke="#444444" stroke-width="0.4" stroke-linecap="round" stroke-linejoin="round"></path>
            <path d="M58.873739,169.864539 L58.301639,178.255539 C58.301639,178.255539 60.031639,184.331539 68.790439,187.545539 C77.549339,190.760539 81.813039,188.635539 79.265739,183.949539 C77.562939,180.803539 76.132639,180.271539 75.941939,178.255539" id="Path" stroke="#444444" stroke-width="0.4" stroke-linecap="round" stroke-linejoin="round"></path>
            <path d="M76.677539,238.191539 C76.813739,238.191539 82.126239,256.935539 92.724039,260.341539 C103.321539,263.746539 130.170539,263.991539 130.170539,263.991539 C130.170539,263.991539 126.084539,278.417539 139.460539,294.545539 C148.383539,307.622539 149.227539,308.603539 148.737539,313.711539 C148.246539,318.819539 150.821539,319.051539 152.333539,321.503539 C153.845539,323.955539 157.237539,335.206539 167.617539,333.476539 C177.996539,331.746539 164.892539,321.217539 162.822539,317.008539 C160.751539,312.798539 148.778539,289.682539 146.939539,276.564539 C145.100539,263.446539 146.448539,251.677539 129.870539,246.310539" id="Path" stroke="#444444" stroke-width="0.4" stroke-linecap="round" stroke-linejoin="round"></path>
            <path d="M143.356539,237.865539 C143.356539,237.865539 155.275539,242.755539 157.128539,251.214539 C158.980539,259.673539 161.855539,294.109539 166.663539,303.168539 C171.472539,312.227539 172.943539,314.065539 180.734539,320.876539 C188.526539,327.687539 180.816539,328.151539 177.738539,326.325539 C174.659539,324.500539 162.195539,315.755539 162.195539,315.755539" id="Path" stroke="#444444" stroke-width="0.4" stroke-linecap="round" stroke-linejoin="round"></path>
            <path d="M64.540439,315.182539 C78.979639,322.566539 95.571039,329.009539 116.684539,324.445539 C148.709539,317.525539 148.682539,315.155539 148.682539,315.155539" id="Path" stroke="#444444" stroke-width="0.4" stroke-linecap="round" stroke-linejoin="round"></path>
            <path d="M30.199739,293.592539 C33.516239,298.075539 37.885839,301.673539 42.922539,304.067539" id="Path" stroke="#444444" stroke-width="0.4" stroke-linecap="round" stroke-linejoin="round"></path>
            <path d="M49.556339,169.537539 C49.556339,169.537539 14.234839,185.393539 15.133839,227.689539 C15.133839,229.596539 15.229239,231.462539 15.310939,233.301539" id="Path" stroke="#444444" stroke-width="0.4" stroke-linecap="round" stroke-linejoin="round"></path>
            <path d="M128.740539,181.674539 C116.766539,166.908539 99.317039,157.645539 79.837739,160.288539" id="Path" stroke="#444444" stroke-width="0.4" stroke-linecap="round" stroke-linejoin="round"></path>
            <path d="M148.709539,213.427539 C147.628539,212.084539 146.627539,210.679539 145.713539,209.218539" id="Path" stroke="#444444" stroke-width="0.4" stroke-linecap="round" stroke-linejoin="round"></path>
            <path d="M167.440539,304.530539 C167.440539,304.530539 194.016539,287.748539 186.510539,255.913539 C180.476539,230.427539 164.838539,227.757539 153.355539,218.085539" id="Path" stroke="#444444" stroke-width="0.4" stroke-linecap="round" stroke-linejoin="round"></path>
            <path d="M79.973939,158.490539 C79.574939,160.282539 79.328839,162.105539 79.238439,163.938539 C79.333739,165.396539 79.742439,171.526539 77.440339,175.313539 C75.138239,179.100539 76.173439,180.761539 70.629339,178.909539 C65.085239,177.056539 60.467439,172.752539 59.050739,169.864539" id="Path" stroke="#444444" stroke-width="0.4" stroke-linecap="round" stroke-linejoin="round"></path>
            <path d="M58.301639,178.255539 C56.807839,180.335539 55.207339,182.335539 53.506739,184.249539 C52.485039,185.175539 46.900039,189.425539 48.711839,198.920539 C50.523539,208.414539 55.304739,226.790539 55.304739,226.790539 C55.304739,226.790539 57.497939,237.919539 65.793639,238.164539 C74.089339,238.410539 91.852239,237.865539 91.852239,237.865539 C91.852239,237.865539 92.982939,237.442539 93.051039,231.585539 C89.809039,231.149539 74.075739,227.144539 65.493939,226.490539 C65.139739,224.706539 61.897739,196.522539 61.897739,196.522539" id="Path" stroke="#444444" stroke-width="0.4" stroke-linecap="round" stroke-linejoin="round"></path>
            <path d="M63.954739,214.462539 C66.926639,218.545539 69.590339,222.843539 71.923539,227.321539" id="Path" stroke="#444444" stroke-width="0.4" stroke-linecap="round" stroke-linejoin="round"></path>
            <path d="M93.023739,231.871539 C94.543439,231.615539 95.981139,231.004539 97.219339,230.086539 C99.588539,228.361539 102.388539,227.323539 105.310539,227.090539 C108.035539,226.953539 108.702539,229.555539 109.792539,231.585539 C110.882539,233.614539 109.628539,233.655539 109.165539,233.396539 C108.868539,232.906539 108.604539,232.397539 108.375539,231.871539" id="Path" stroke="#444444" stroke-width="0.4" stroke-linecap="round" stroke-linejoin="round"></path>
            <path d="M103.512539,229.187539 L105.978539,229.187539 C106.256539,229.119539 106.546539,229.112539 106.828539,229.170539 C107.109539,229.227539 107.374539,229.346539 107.603539,229.518539 C107.832539,229.690539 108.021539,229.911539 108.154539,230.165539 C108.288539,230.419539 108.363539,230.699539 108.375539,230.986539 C108.525539,233.206539 109.015539,236.271539 108.661539,236.366539 C108.307539,236.462539 107.558539,236.720539 107.176539,234.268539" id="Path" stroke="#444444" stroke-width="0.4" stroke-linecap="round" stroke-linejoin="round"></path>
            <path d="M101.632539,231.299539 C101.632539,231.299539 108.988539,231.544539 106.509539,235.508539 C105.869539,236.530539 104.588539,235.808539 105.065539,234.554539 C105.542539,233.301539 102.218539,234.691539 101.115539,234.881539" id="Path" stroke="#444444" stroke-width="0.4" stroke-linecap="round" stroke-linejoin="round"></path>
            <path d="M100.529539,234.868539 C100.529539,234.868539 104.956539,235.181539 106.127539,236.666539 C107.299539,238.151539 106.986539,239.390539 105.269539,238.300539 C104.246539,237.575539 103.061539,237.110539 101.817539,236.946539 C100.573539,236.782539 99.308339,236.925539 98.131939,237.360539 C95.257739,238.505539 93.309839,237.933539 92.437939,236.965539" id="Path" stroke="#444444" stroke-width="0.4" stroke-linecap="round" stroke-linejoin="round"></path>
            <polyline id="Path" stroke="#444444" stroke-width="0.4" stroke-linecap="round" stroke-linejoin="round" points="89.413939 237.933539 83.733639 241.161539 110.241539 256.445539 110.241539 257.943539 83.733639 242.768539 83.733639 241.161539"></polyline>
            <path d="M119.722539,231.026539 C118.809539,230.032539 117.774539,228.711539 118.183539,227.417539 C116.864539,225.689539 115.386539,224.088539 113.769539,222.635539 L113.769539,222.635539 C113.769539,222.635539 112.925539,220.660539 115.758539,218.208539 C117.229539,216.941539 118.251539,217.514539 118.251539,217.514539 L121.874539,221.873539 L128.154539,224.393539 C128.617539,224.546539 129.038539,224.808539 129.380539,225.155539" id="Path" stroke="#444444" stroke-width="0.4" stroke-linecap="round" stroke-linejoin="round"></path>
            <path d="M87.629539,182.151539 C89.442639,185.914539 91.989939,189.277539 95.121539,192.041539 C100.815539,197.408539 96.851539,202.421539 96.987739,207.025539 C97.123939,211.629539 99.167239,217.296539 111.726539,225.006539" id="Path" stroke="#444444" stroke-width="0.4" stroke-linecap="round" stroke-linejoin="round"></path>
            <path d="M96.987739,206.534539 C96.987739,206.534539 110.609539,220.633539 113.647539,222.444539" id="Path" stroke="#444444" stroke-width="0.4" stroke-linecap="round" stroke-linejoin="round"></path>
            <path d="M119.422539,218.712539 C117.077539,212.976539 113.597539,207.773539 109.192539,203.415539 C103.123539,197.117539 97.612939,190.303539 92.724039,183.050539 C91.266539,180.666539 88.460439,173.515539 77.930739,174.346539" id="Path" stroke="#444444" stroke-width="0.4" stroke-linecap="round" stroke-linejoin="round"></path>
            <line x1="107.394539" y1="227.499539" x2="114.709539" y2="223.535539" id="Path" stroke="#444444" stroke-width="0.4" stroke-linecap="round" stroke-linejoin="round"></line>
            <polyline id="Path" stroke="#444444" stroke-width="0.4" stroke-linecap="round" stroke-linejoin="round" points="120.621539 219.856539 122.678539 218.671539 131.968539 223.493539"></polyline>
            <path d="M55.291139,151.883539 C55.291139,151.883539 47.812739,151.257539 48.085239,161.187539 C48.357639,171.117539 52.171739,169.169539 47.090839,175.381539 C47.090839,175.381539 40.279839,182.192539 49.815139,188.690539" id="Path" stroke="#444444" stroke-width="0.4" stroke-linecap="round" stroke-linejoin="round"></path>
            <path d="M79.837739,246.120539 C80.602539,244.189539 81.968539,242.555539 83.733639,241.461539" id="Path" stroke="#444444" stroke-width="0.4" stroke-linecap="round" stroke-linejoin="round"></path>
            <path d="M147.538539,306.764539 C147.538539,306.764539 154.172539,308.549539 156.474539,303.822539" id="Path" stroke="#444444" stroke-width="0.4" stroke-linecap="round" stroke-linejoin="round"></path>
            <path d="M156.052539,302.841539 C156.052539,302.841539 161.786539,304.285539 165.519539,300.471539" id="Path" stroke="#444444" stroke-width="0.4" stroke-linecap="round" stroke-linejoin="round"></path>
            <path d="M205.417539,226.027539 C207.978539,228.384539 207.488539,231.476539 203.946539,233.587539 C201.624539,234.765539 199.058539,235.379539 196.454539,235.379539 C193.851539,235.379539 191.284539,234.765539 188.962539,233.587539 C185.434539,231.544539 184.876539,228.411539 187.450539,226.068539" id="Path" stroke="#444444" stroke-width="0.4" stroke-linecap="round" stroke-linejoin="round"></path>
            <path d="M203.592539,252.890539 C203.466539,253.446539 203.216539,253.967539 202.859539,254.413539 C202.503539,254.859539 202.050539,255.218539 201.535539,255.464539 C199.981539,256.249539 198.264539,256.659539 196.522539,256.659539 C194.781539,256.659539 193.064539,256.249539 191.509539,255.464539 C190.966539,255.217539 190.492539,254.838539 190.131539,254.363539 C189.769539,253.887539 189.532539,253.330539 189.439539,252.740539" id="Path" stroke="#444444" stroke-width="0.4" stroke-linecap="round" stroke-linejoin="round"></path>
            <path d="M206.003539,236.666539 C205.455539,237.803539 204.551539,238.731539 203.429539,239.309539 C201.289539,240.396539 198.923539,240.963539 196.522539,240.963539 C194.122539,240.963539 191.756539,240.396539 189.616539,239.309539 C188.515539,238.743539 187.623539,237.841539 187.069539,236.734539" id="Path" stroke="#444444" stroke-width="0.4" stroke-linecap="round" stroke-linejoin="round"></path>
            <path d="M204.382539,247.836539 C203.892539,248.552539 203.238539,249.140539 202.475539,249.552539 C200.648539,250.475539 198.630539,250.956539 196.584539,250.956539 C194.537539,250.956539 192.519539,250.475539 190.692539,249.552539 C189.918539,249.132539 189.255539,248.535539 188.758539,247.809539" id="Path" stroke="#444444" stroke-width="0.4" stroke-linecap="round" stroke-linejoin="round"></path>
            <path d="M205.417539,227.280539 C205.785539,228.833539 204.941539,230.468539 202.870539,231.666539 C200.902539,232.660539 198.727539,233.178539 196.522539,233.178539 C194.317539,233.178539 192.143539,232.660539 190.174539,231.666539 C188.104539,230.468539 187.259539,228.833539 187.627539,227.280539" id="Path" stroke="#444444" stroke-width="0.4" stroke-linecap="round" stroke-linejoin="round"></path>
            <line x1="185.979539" y1="229.324539" x2="189.493539" y2="253.135539" id="Path" stroke="#444444" stroke-width="0.4" stroke-linecap="round" stroke-linejoin="round"></line>
            <line x1="207.066539" y1="229.474539" x2="203.619539" y2="252.876539" id="Path" stroke="#444444" stroke-width="0.4" stroke-linecap="round" stroke-linejoin="round"></line>
            <polyline id="Path" stroke="#444444" stroke-width="0.4" stroke-linecap="round" stroke-linejoin="round" points="319.855539 220.919539 321.326539 220.224539 325.903539 218.004539 330.030539 220.224539"></polyline>
            <line x1="336.705539" y1="224.052539" x2="350.177539" y2="231.721539" id="Path" stroke="#444444" stroke-width="0.4" stroke-linecap="round" stroke-linejoin="round"></line>
            <line x1="363.703539" y1="239.186539" x2="365.134539" y2="239.922539" id="Path" stroke="#444444" stroke-width="0.4" stroke-linecap="round" stroke-linejoin="round"></line>
            <path d="M369.561539,158.898539 C369.561539,158.898539 366.986539,171.471539 372.980539,180.693539 C374.833539,183.554539 382.829539,181.647539 387.692539,175.789539" id="Path" stroke="#444444" stroke-width="0.4" stroke-linecap="round" stroke-linejoin="round"></path>
            <path d="M374.329539,181.729539 L371.672539,186.347539 C371.672539,186.347539 374.397539,193.757539 384.095539,188.213539 C393.794539,182.669539 392.173539,175.136539 391.942539,172.193539 C391.710539,169.251539 393.958539,171.022539 394.557539,164.919539" id="Path" stroke="#444444" stroke-width="0.4" stroke-linecap="round" stroke-linejoin="round"></path>
            <path d="M367.913539,229.487539 C374.342539,228.602539 382.175539,227.757539 386.384539,228.125539 C386.384539,226.000539 388.454539,209.054539 392.269539,199.791539" id="Path" stroke="#444444" stroke-width="0.4" stroke-linecap="round" stroke-linejoin="round"></path>
            <path d="M392.173539,176.089539 C392.173539,176.089539 401.709539,185.175539 404.365539,189.071539 C407.021539,192.967539 406.980539,199.246539 405.019539,206.235539 C403.057539,213.223539 397.172539,232.389539 397.172539,232.389539 C397.172539,232.389539 396.083539,238.804539 387.637539,238.927539 C379.192539,239.050539 357.560539,239.254539 357.560539,239.254539 L357.560539,231.081539 L360.284539,230.631539" id="Path" stroke="#444444" stroke-width="0.4" stroke-linecap="round" stroke-linejoin="round"></path>
            <path d="M337.155539,243.994539 C339.102539,242.278539 340.478539,239.908539 342.876539,238.696539 C342.045539,239.758539 335.956539,246.869539 339.416539,246.514539 C342.072539,246.283539 343.502539,240.153539 346.622539,239.704539 C346.404539,240.725539 338.013539,248.531539 343.897539,246.147539 C348.461539,242.142539 352.547539,239.418539 357.519539,238.246539" id="Path" stroke="#444444" stroke-width="0.4" stroke-linecap="round" stroke-linejoin="round"></path>
            <path d="M336.610539,240.371539 C338.122539,239.200539 340.342539,235.889539 340.901539,236.284539 C341.622539,236.911539 339.838539,237.742539 337.631539,240.548539 C337.334539,240.919539 337.056539,241.305539 336.800539,241.706539" id="Path" stroke="#444444" stroke-width="0.4" stroke-linecap="round" stroke-linejoin="round"></path>
            <path d="M357.615539,231.721539 C353.405539,231.721539 348.365539,231.721539 347.330539,231.721539 C344.940539,231.566539 342.550539,232.036539 340.396539,233.083539 C338.634539,234.094539 337.169539,235.551539 336.146539,237.306539" id="Path" stroke="#444444" stroke-width="0.4" stroke-linecap="round" stroke-linejoin="round"></path>
            <line x1="387.174539" y1="221.246539" x2="381.930539" y2="228.084539" id="Path" stroke="#444444" stroke-width="0.4" stroke-linecap="round" stroke-linejoin="round"></line>
            <path d="M349.006539,193.049539 C352.615539,186.442539 355.980539,179.754539 355.980539,179.754539 C355.980539,179.754539 358.841539,171.948539 369.942539,173.515539" id="Path" stroke="#444444" stroke-width="0.4" stroke-linecap="round" stroke-linejoin="round"></path>
            <path d="M332.101539,217.990539 C332.101539,217.990539 332.714539,216.969539 333.640539,215.484539" id="Path" stroke="#444444" stroke-width="0.4" stroke-linecap="round" stroke-linejoin="round"></path>
            <path d="M353.256539,203.905539 C353.855539,202.611539 354.441539,201.317539 354.999539,200.023539" id="Path" stroke="#444444" stroke-width="0.4" stroke-linecap="round" stroke-linejoin="round"></path>
            <path d="M337.849539,223.126539 C339.548539,222.519539 341.196539,221.781539 342.780539,220.919539" id="Path" stroke="#444444" stroke-width="0.4" stroke-linecap="round" stroke-linejoin="round"></path>
            <polyline id="Path" stroke="#444444" stroke-width="0.4" stroke-linecap="round" stroke-linejoin="round" points="365.134539 239.922539 338.980539 255.927539 334.893539 229.188539 295.322539 207.434539 300.403539 233.696539 338.980539 255.927539"></polyline>
            <path d="M305.034539,236.352539 C305.034539,236.352539 294.736539,240.439539 290.922539,248.885539 C287.108539,257.330539 278.812539,290.731539 276.537539,300.062539 C280.310539,302.187539 285.460539,305.742539 291.249539,301.043539 C292.747539,299.817539 296.194539,287.421539 301.710539,272.273539 C307.227539,257.126539 307.581539,255.273539 307.581539,255.273539 L316.735539,254.619539" id="Path" stroke="#444444" stroke-width="0.4" stroke-linecap="round" stroke-linejoin="round"></path>
            <path d="M323.587539,249.715539 C323.587539,249.715539 317.444539,251.227539 313.153539,259.986539 C308.862539,268.745539 295.172539,308.235539 295.172539,308.235539 C295.172539,308.235539 293.810539,312.444539 296.643539,313.793539 C299.476539,315.141539 305.443539,317.811539 309.883539,308.235539 C314.324539,298.659539 329.172539,267.369539 329.172539,267.369539 C329.172539,267.369539 356.811539,261.335539 365.134539,249.797539 C372.217539,240.575539 374.942539,239.240539 374.942539,239.240539" id="Path" stroke="#444444" stroke-width="0.4" stroke-linecap="round" stroke-linejoin="round"></path>
            <path d="M362.845539,241.366539 C362.845539,241.366539 365.433539,245.806539 365.134539,249.798539" id="Path" stroke="#444444" stroke-width="0.4" stroke-linecap="round" stroke-linejoin="round"></path>
            <path d="M295.185539,312.267539 C295.185539,312.267539 292.965539,317.839539 289.941539,320.658539 C286.917539,323.478539 282.258539,330.902539 287.653539,333.081539 C293.047539,335.261539 300.539539,330.357539 302.637539,325.562539 C304.734539,320.767539 303.508539,320.182539 307.214539,317.798539 C310.919539,315.414539 309.257539,309.393539 309.257539,309.393539" id="Path" stroke="#444444" stroke-width="0.4" stroke-linecap="round" stroke-linejoin="round"></path>
            <path d="M291.903539,300.838539 L290.540539,306.600539 C289.324539,307.300539 287.997539,307.788539 286.617539,308.044539 C283.798539,308.712539 284.383539,307.445539 280.733539,311.055539 C277.082539,314.665539 261.662539,322.524539 261.117539,315.427539 C260.572539,308.330539 272.709539,307.704539 276.483539,300.062539" id="Path" stroke="#444444" stroke-width="0.4" stroke-linecap="round" stroke-linejoin="round"></path>
            <path d="M320.141539,193.049539 C315.305539,200.500539 311.722539,207.216539 307.704539,211.779539 C307.295539,212.309539 306.839539,212.801539 306.342539,213.250539" id="Path" stroke="#444444" stroke-width="0.4" stroke-linecap="round" stroke-linejoin="round"></path>
            <path d="M368.730761,164.715539 C368.812539,164.579539 346.118539,162.713539 332.441539,177.138539 C331.079539,178.596539 329.717539,180.067539 328.532539,181.538539" id="Path" stroke="#444444" stroke-width="0.4" stroke-linecap="round" stroke-linejoin="round"></path>
            <path d="M297.637539,222.186539 C297.637539,222.186539 294.750539,225.959539 291.249539,226.177539 C287.748539,226.395539 274.548539,234.350539 270.979539,249.062539 C267.410539,263.774539 265.531539,280.311539 278.499539,291.658539" id="Path" stroke="#444444" stroke-width="0.4" stroke-linecap="round" stroke-linejoin="round"></path>
            <line x1="291.562539" y1="302.364539" x2="295.826539" y2="305.620539" id="Path" stroke="#444444" stroke-width="0.4" stroke-linecap="round" stroke-linejoin="round"></line>
            <path d="M427.658539,260.191539 C427.917539,257.725539 428.108539,255.096539 428.230539,252.331539 C429.375539,226.245539 437.371539,195.119539 392.596539,170.477539" id="Path" stroke="#444444" stroke-width="0.4" stroke-linecap="round" stroke-linejoin="round"></path>
            <path d="M309.883539,312.935539 C309.883539,312.935539 346.363539,328.504539 371.999539,316.735539 C397.636539,304.966539 401.300539,303.931539 410.576539,297.297539 C415.711539,293.566539 419.722539,288.496539 422.169539,282.640539" id="Path" stroke="#444444" stroke-width="0.4" stroke-linecap="round" stroke-linejoin="round"></path>
            <polyline id="Path" stroke="#444444" stroke-width="0.4" stroke-linecap="round" stroke-linejoin="round" points="128.753539 181.661539 197.912539 141.735539 197.912539 -1.42108547e-14 75.165439 70.874639 75.165439 149.077539"></polyline>
            <polyline id="Path" stroke="#444444" stroke-width="0.4" stroke-linecap="round" stroke-linejoin="round" points="112.462539 166.677539 178.296539 128.658539 178.296539 11.319839"></polyline>
            <line x1="131.546539" y1="155.657539" x2="131.546539" y2="38.318339" id="Path" stroke="#444444" stroke-width="0.4" stroke-linecap="round" stroke-linejoin="round"></line>
            <line x1="178.296539" y1="128.658539" x2="198.675539" y2="141.299539" id="Path" stroke="#444444" stroke-width="0.4" stroke-linecap="round" stroke-linejoin="round"></line>
            <path d="M269.685539,111.426539 C269.685539,111.426539 305.606539,129.707539 303.209539,200.472539" id="Path" stroke="#444444" stroke-width="0.4" stroke-linecap="round" stroke-linejoin="round"></path>
            <path d="M355.871539,129.612539 C355.871539,129.612539 298.319539,136.205539 297.460539,197.149539" id="Path" stroke="#444444" stroke-width="0.4" stroke-linecap="round" stroke-linejoin="round"></path>
            <path d="M282.885539,230.264539 C278.403539,227.676539 276.074539,224.338539 275.761539,220.960539" id="Path" stroke="#444444" stroke-width="0.4" stroke-linecap="round" stroke-linejoin="round"></path>
            <line x1="275.788539" y1="194.547539" x2="275.761539" y2="220.946539" id="Path" stroke="#444444" stroke-width="0.4" stroke-linecap="round" stroke-linejoin="round"></line>
            <path d="M276.864539,197.244539 C278.181539,194.390539 280.416539,192.060539 283.212539,190.624539 C292.488539,185.270539 307.554539,185.270539 316.831539,190.624539" id="Path" stroke="#444444" stroke-width="0.4" stroke-linecap="round" stroke-linejoin="round"></path>
            <path d="M477.296539,315.305539 C477.546539,315.143539 477.745539,314.914539 477.870539,314.644539 C477.996539,314.374539 478.042539,314.074539 478.005539,313.779539 L478.005539,287.897539 C477.991539,287.206539 477.817539,286.527539 477.495539,285.915539 C477.173539,285.302539 476.714539,284.773539 476.152539,284.369539 L431.636539,258.665539 C431.460539,258.545539 431.255539,258.473539 431.042539,258.456539 C430.830539,258.440539 430.616539,258.479539 430.423539,258.570539" id="Path" stroke="#444444" stroke-width="0.4" stroke-linecap="round" stroke-linejoin="round"></path>
            <line x1="422.169539" y1="269.059539" x2="470.390539" y2="296.902539" id="Path" stroke="#444444" stroke-width="0.4" stroke-linecap="round" stroke-linejoin="round"></line>
            <line x1="422.741539" y1="263.038539" x2="430.423539" y2="258.597539" id="Path" stroke="#444444" stroke-width="0.4" stroke-linecap="round" stroke-linejoin="round"></line>
            <line x1="477.419539" y1="315.223539" x2="469.750539" y2="319.664539" id="Path" stroke="#444444" stroke-width="0.4" stroke-linecap="round" stroke-linejoin="round"></line>
            <path d="M433.366539,257.289539 C433.232539,257.189539 433.127539,257.056539 433.060539,256.904539 C432.994539,256.751539 432.967539,256.583539 432.984539,256.418539 C433.013539,255.954539 433.152539,255.503539 433.389539,255.103539 C433.625539,254.703539 433.954539,254.364539 434.347539,254.115539 C434.469539,254.028539 434.611539,253.971539 434.760539,253.947539 C434.908539,253.924539 435.061539,253.934539 435.205539,253.979539" id="Path" stroke="#444444" stroke-width="0.4" stroke-linecap="round" stroke-linejoin="round"></path>
            <line x1="435.178539" y1="253.979539" x2="468.878539" y2="273.513539" id="Path" stroke="#444444" stroke-width="0.4" stroke-linecap="round" stroke-linejoin="round"></line>
            <line x1="433.366539" y1="257.289539" x2="466.998539" y2="276.769539" id="Path" stroke="#444444" stroke-width="0.4" stroke-linecap="round" stroke-linejoin="round"></line>
            <polyline id="Path" stroke="#444444" stroke-width="0.4" stroke-linecap="round" stroke-linejoin="round" points="467.938539 275.148539 470.744539 276.687539 470.744539 284.002539"></polyline>
            <polyline id="Path" stroke="#444444" stroke-width="0.4" stroke-linecap="round" stroke-linejoin="round" points="467.938539 275.148539 470.744539 276.687539 470.744539 285.473539"></polyline>
            <polyline id="Path" stroke="#444444" stroke-width="0.4" stroke-linecap="round" stroke-linejoin="round" points="433.366539 255.110539 430.696539 253.571539 430.696539 262.343539"></polyline>
            <path d="M27.611539,236.748539 C40.647639,244.267539 51.218239,262.629539 51.218239,277.613539 C51.218239,292.597539 40.593139,298.727539 27.611539,291.235539 C14.629839,283.743539 4.004819,265.354539 4.004819,250.370539 C4.004819,235.385539 14.589039,229.215539 27.611539,236.748539 Z" id="Path" fill="#FF6D41"></path>
            <path d="M59.282439,259.768539 C68.123039,264.863539 75.288139,277.272539 75.288139,287.475539 C75.288139,297.678539 68.123039,301.805539 59.282439,296.684539 C50.441839,291.562539 43.317539,279.193539 43.317539,269.004539 C43.317539,258.815539 50.482639,254.660539 59.309639,259.768539 L59.282439,259.768539 Z" id="Path" fill="#FF6D41"></path>
            <path d="M320.686539,65.493739 L305.879539,78.189339 L314.474539,85.286339 L305.770539,99.984539 L321.339539,86.975439 L313.657539,80.654939 L320.686539,65.493739 Z M320.440539,69.049139 L318.206539,73.898439 C322.514539,78.329239 325.036539,84.193039 325.290539,90.367339 C325.290539,97.791239 320.073539,100.801539 313.643539,97.082939 C313.120539,96.756339 312.616539,96.401639 312.131539,96.020439 L308.262539,99.371339 C309.903539,100.983539 311.733539,102.392539 313.711539,103.566539 C323.247539,109.015539 331.025569,104.615539 331.025569,93.582139 C331.038539,85.204639 326.788539,75.682939 320.440539,69.049139 Z M317.907539,66.678839 L313.711539,70.206939 L313.275539,69.948139 C306.846539,66.242939 301.629539,69.253439 301.629539,76.677339 C301.936539,82.833939 304.456539,88.672439 308.726539,93.118939 L306.219539,97.368939 C300.321539,90.993939 296.071539,81.458639 296.071539,73.353639 C296.071539,62.333539 303.835539,57.851939 313.384539,63.368739 C315.008539,64.303239 316.525539,65.413339 317.907539,66.678839 Z" id="Shape" fill="#FF6D41" fill-rule="nonzero"></path>
            <path d="M342.154539,63.464439 L284.601539,30.240739 L284.601539,103.362539 L331.297539,130.320539 L342.195539,126.097539 L342.195539,63.437239 L342.154539,63.464439 Z M15.828639,299.408539 C18.317939,298.141539 21.071939,297.480539 23.865539,297.480539 C26.659139,297.480539 29.413139,298.141539 31.902439,299.408539 C36.343139,301.969539 36.343139,306.138539 31.902439,308.698539 C29.413139,309.966539 26.659139,310.627539 23.865539,310.627539 C21.071939,310.627539 18.317939,309.966539 15.828639,308.698539 C11.401539,306.138539 11.401539,301.969539 15.828639,299.408539 Z M45.142939,302.228539 C47.632239,300.960539 50.386239,300.299539 53.179839,300.299539 C55.973439,300.299539 58.727339,300.960539 61.216739,302.228539 C65.657439,304.789539 65.657439,308.944539 61.216739,311.505539 C58.727339,312.772539 55.973439,313.433539 53.179839,313.433539 C50.386239,313.433539 47.632239,312.772539 45.142939,311.505539 C40.715739,308.944539 40.715739,304.789539 45.142939,302.228539 Z M23.606739,236.353539 C36.642839,243.872539 47.213439,262.234539 47.213439,277.218539 C47.213439,292.202539 36.642839,298.373539 23.606739,290.840539 C10.570539,283.307539 0,265.027539 0,249.988539 C0,234.950539 10.584239,228.833539 23.606739,236.366539 L23.606739,236.353539 Z" id="Shape" stroke="#444444" stroke-width="0.4" stroke-linecap="round" stroke-linejoin="round"></path>
            <polyline id="Path" stroke="#444444" stroke-width="0.4" stroke-linecap="round" stroke-linejoin="round" points="344.524539 125.348539 344.524539 62.020139 286.972539 28.796339"></polyline>
            <line x1="284.601539" y1="30.240339" x2="286.972539" y2="28.796339" id="Path" stroke="#444444" stroke-width="0.4" stroke-linecap="round" stroke-linejoin="round"></line>
            <path d="M35.226139,316.490539 C35.226139,318.166539 34.122739,319.841539 31.902439,321.122539 C29.413139,322.389539 26.659139,323.050539 23.865539,323.050539 C21.071939,323.050539 18.317939,322.389539 15.828639,321.122539 C14.967039,320.722539 14.215539,320.119539 13.638839,319.364539 C13.062239,318.610539 12.677739,317.726539 12.518539,316.790539" id="Path" stroke="#444444" stroke-width="0.4" stroke-linecap="round" stroke-linejoin="round"></path>
            <line x1="12.532139" y1="304.503539" x2="12.504839" y2="316.490539" id="Path" stroke="#444444" stroke-width="0.4" stroke-linecap="round" stroke-linejoin="round"></line>
            <line x1="35.226139" y1="304.067539" x2="35.226139" y2="316.490539" id="Path" stroke="#444444" stroke-width="0.4" stroke-linecap="round" stroke-linejoin="round"></line>
            <path d="M13.036139,305.783539 C13.647739,304.451539 14.688539,303.362539 15.992039,302.691539 C18.415239,301.462539 21.094039,300.822539 23.811039,300.822539 C26.528039,300.822539 29.206839,301.462539 31.629939,302.691539 C33.060339,303.396539 34.163239,304.626539 34.708539,306.124539" id="Path" stroke="#444444" stroke-width="0.4" stroke-linecap="round" stroke-linejoin="round"></path>
            <path d="M64.540439,319.310539 C64.540439,320.985539 63.437039,322.661539 61.216739,323.941539 C58.727339,325.209539 55.973439,325.870539 53.179839,325.870539 C50.386139,325.870539 47.632239,325.209539 45.142839,323.941539 C44.278539,323.546539 43.524639,322.944539 42.947439,322.188539 C42.370239,321.433539 41.987539,320.548539 41.832739,319.610539" id="Path" stroke="#444444" stroke-width="0.4" stroke-linecap="round" stroke-linejoin="round"></path>
            <line x1="41.846439" y1="307.323539" x2="41.819139" y2="319.310539" id="Path" stroke="#444444" stroke-width="0.4" stroke-linecap="round" stroke-linejoin="round"></line>
            <line x1="64.540439" y1="306.887539" x2="64.540439" y2="319.310539" id="Path" stroke="#444444" stroke-width="0.4" stroke-linecap="round" stroke-linejoin="round"></line>
            <path d="M42.350439,308.589539 C42.963639,307.261539 44.004439,306.177539 45.306339,305.511539 C47.729539,304.282539 50.408339,303.641539 53.125339,303.641539 C55.842339,303.641539 58.521039,304.282539 60.944239,305.511539 C62.374639,306.215539 63.477539,307.445539 64.022839,308.943539" id="Path" stroke="#444444" stroke-width="0.4" stroke-linecap="round" stroke-linejoin="round"></path>
            <polyline id="Path" stroke="#444444" stroke-width="0.4" stroke-linecap="round" stroke-linejoin="round" points="23.606739 307.023539 23.606739 286.168539 9.508059 263.051539"></polyline>
            <line x1="23.606739" y1="263.610539" x2="23.606739" y2="286.168539" id="Path" stroke="#444444" stroke-width="0.4" stroke-linecap="round" stroke-linejoin="round"></line>
            <line x1="23.606739" y1="274.889539" x2="32.624339" y2="268.827539" id="Path" stroke="#444444" stroke-width="0.4" stroke-linecap="round" stroke-linejoin="round"></line>
            <polyline id="Path" stroke="#444444" stroke-width="0.4" stroke-linecap="round" stroke-linejoin="round" points="52.348839 309.911539 52.348839 283.416539 49.338439 278.472539"></polyline>
            <line x1="52.348839" y1="272.137539" x2="52.348839" y2="294.681539" id="Path" stroke="#444444" stroke-width="0.4" stroke-linecap="round" stroke-linejoin="round"></line>
            <line x1="52.348839" y1="289.587539" x2="57.429839" y2="286.345539" id="Path" stroke="#444444" stroke-width="0.4" stroke-linecap="round" stroke-linejoin="round"></line>
            <path d="M41.819139,255.396539 C44.666139,254.252539 48.344039,254.701539 52.348839,257.017539 C61.352939,262.207539 68.695139,274.875539 68.695139,285.269539 C68.695139,295.662539 61.380139,299.885539 52.348839,294.681539 C49.492639,292.968539 46.949639,290.780539 44.829639,288.211539" id="Path" stroke="#444444" stroke-width="0.4" stroke-linecap="round" stroke-linejoin="round"></path>
            <path d="M447.478539,231.598539 L451.796539,234.091539 L451.796539,236.816539 L448.650539,235.004539 L448.650539,245.207539 C448.650539,247.931539 446.715539,249.089539 444.331539,247.713539 C443.070539,246.894539 442.019539,245.789539 441.267539,244.487539 C440.514539,243.185539 440.080539,241.723539 440.000539,240.221539 C440.000539,237.497539 441.948539,236.352539 444.331539,237.728539 C445.158539,238.229539 445.887539,238.875539 446.484539,239.635539 L446.484539,231.026539 L448.650539,232.280539" id="Path" fill="#FFC000"></path>
            <path d="M471.698539,227.594539 L488.657539,237.388539 L488.657539,253.816539 C488.657539,257.317539 486.205539,258.733539 483.208539,256.990539 C481.614539,255.940539 480.290539,254.530539 479.344539,252.874539 C478.397539,251.217539 477.854539,249.360539 477.760539,247.454539 C477.760539,243.954539 480.225539,242.537539 483.208539,244.280539 C484.252539,244.922539 485.175539,245.742539 485.933539,246.705539 L485.933539,239.240539 L473.210539,231.898539 L473.210539,244.921539 C473.210539,248.408539 470.758539,249.838539 467.761539,248.081539 C466.166539,247.033539 464.841539,245.624539 463.894539,243.966539 C462.947539,242.309539 462.405539,240.452539 462.312539,238.546539 C462.312539,235.058539 464.764539,233.628539 467.761539,235.385539 C468.809539,236.022539 469.732539,236.844539 470.485539,237.810539 L470.485539,226.913539 L473.210539,228.506539" id="Path" fill="#FF6D41"></path>
            <path d="M200.187539,205.445539 C200.187539,205.445539 197.108539,206.058539 200.187539,211.357539 C203.265539,216.655539 200.187539,217.691539 200.187539,217.691539 M194.329539,199.819539 C194.329539,199.819539 189.725539,200.731539 194.329539,208.632539 C198.933539,216.533539 194.329539,218.086539 194.329539,218.086539 L194.329539,199.819539 Z" id="Shape" stroke="#444444" stroke-width="0.4" stroke-linecap="round" stroke-linejoin="round"></path>
            <path d="M346.663539,197.966539 C346.588539,197.384539 346.396539,196.824539 346.099539,196.318539 C345.801539,195.812539 345.405539,195.372539 344.933539,195.024539 L321.871539,181.702539 C321.053539,181.225539 320.509539,181.797539 320.658539,182.955539 C320.733539,183.537539 320.925539,184.097539 321.222539,184.603539 C321.520539,185.109539 321.916539,185.549539 322.388539,185.897539 L345.450539,199.219539 C346.268539,199.682539 346.812539,199.124539 346.663539,197.966539 Z" id="Path" fill="#FF6D41"></path>
            <path d="M359.671539,218.958539 C359.595539,218.374539 359.403539,217.812539 359.106539,217.304539 C358.809539,216.797539 358.413539,216.354539 357.941539,216.002539 L334.825539,202.693539 C334.021539,202.230539 333.463539,202.802539 333.626539,203.960539 C333.701539,204.542539 333.893539,205.102539 334.190539,205.608539 C334.488539,206.114539 334.884539,206.554539 335.356539,206.902539 L358.418539,220.224539 C359.236539,220.688539 359.780539,220.129539 359.631539,218.971539 L359.671539,218.958539 Z" id="Path" fill="#444444"></path>
            <path d="M340.274539,201.331539 C340.201539,200.748539 340.011539,200.186539 339.717539,199.678539 C339.422539,199.170539 339.028539,198.727539 338.558539,198.375539 L322.824539,189.289539 C322.021539,188.826539 321.462539,189.398539 321.625539,190.556539 C321.698539,191.137539 321.887539,191.697539 322.182539,192.203539 C322.477539,192.709539 322.872539,193.149539 323.342539,193.498539 L339.062539,202.693539 C339.865539,203.156539 340.424539,202.598539 340.260539,201.440539 L340.274539,201.331539 Z" id="Path" fill="#444444"></path>
            <path d="M364.875539,228.575539 C364.803539,227.994539 364.613539,227.433539 364.318539,226.928539 C364.023539,226.422539 363.629539,225.981539 363.159539,225.632539 L347.412539,216.547539 C346.608539,216.083539 346.050539,216.642539 346.213539,217.800539 C346.288539,218.382539 346.480539,218.942539 346.777539,219.448539 C347.074539,219.954539 347.471539,220.394539 347.943539,220.742539 L363.676539,229.828539 C364.480539,230.291539 365.038539,229.732539 364.875539,228.575539 Z" id="Path" fill="#444444"></path>
            <path d="M351.171539,207.638539 C351.097539,207.056539 350.905539,206.495539 350.607539,205.990539 C350.310539,205.484539 349.913539,205.044539 349.441539,204.696539 L343.039539,200.990539 C342.235539,200.527539 341.677539,201.099539 341.840539,202.257539 C341.913539,202.838539 342.102539,203.398539 342.397539,203.904539 C342.692539,204.410539 343.087539,204.851539 343.557539,205.200539 L349.959539,208.891539 C350.776539,209.354539 351.321539,208.796539 351.171539,207.638539 Z" id="Path" fill="#FFC000"></path>
            <path d="M331.787539,202.857539 C331.712539,202.276539 331.521539,201.717539 331.227539,201.212539 C330.932539,200.707539 330.539539,200.265539 330.071539,199.914539 L323.655539,196.209539 C322.852539,195.746539 322.293539,196.304539 322.457539,197.462539 C322.531539,198.046539 322.723539,198.609539 323.020539,199.117539 C323.317539,199.625539 323.714539,200.067539 324.186539,200.418539 L330.589539,204.110539 C331.392539,204.573539 331.951539,204.014539 331.787539,202.857539 Z" id="Path" fill="#FF6D41"></path>
            <path d="M343.870539,216.397539 C343.798539,215.816539 343.608539,215.255539 343.313539,214.750539 C343.018539,214.244539 342.624539,213.803539 342.154539,213.454539 L335.751539,209.749539 C334.934539,209.286539 334.389539,209.845539 334.539539,211.002539 C334.614539,211.586539 334.805539,212.149539 335.103539,212.657539 C335.400539,213.165539 335.797539,213.607539 336.269539,213.958539 L342.671539,217.650539 C343.475539,218.113539 344.034539,217.554539 343.870539,216.397539 Z" id="Path" fill="#FF6D41"></path>
            <path d="M332.659539,209.926539 C332.585539,209.344539 332.395539,208.782539 332.100539,208.274539 C331.805539,207.767539 331.412539,207.323539 330.943539,206.970539 L324.541539,203.278539 C323.723539,202.815539 323.178539,203.374539 323.328539,204.532539 C323.405539,205.115539 323.598539,205.677539 323.895539,206.184539 C324.192539,206.692539 324.587539,207.135539 325.058539,207.488539 L331.461539,211.179539 C332.264539,211.642539 332.823539,211.084539 332.659539,209.926539 Z" id="Path" fill="#FFC000"></path>
            <path d="M131.328539,201.726539 C131.576539,200.527539 132.248539,199.458539 133.221539,198.715539 L156.011539,185.557539 C156.814539,185.093539 157.264539,185.693539 157.005539,186.919539 C156.771539,188.120539 156.102539,189.192539 155.125539,189.929539 L132.336539,203.088539 C131.532539,203.551539 131.083539,202.952539 131.328539,201.726539 Z" id="Path" fill="#FF6D41"></path>
            <path d="M122.951539,193.457539 C123.195539,192.254539 123.868539,191.179539 124.844539,190.433539 L147.633539,177.275539 C148.437539,176.812539 148.887539,177.425539 148.641539,178.637539 C148.397539,179.837539 147.724539,180.907539 146.748539,181.647539 L123.959539,194.806539 C123.155539,195.269539 122.705539,194.670539 122.951539,193.444539 L122.951539,193.457539 Z" id="Path" fill="#FF6D41"></path>
            <path d="M137.063539,204.995539 C137.302539,203.789539 137.976539,202.713539 138.956539,201.971539 L154.499539,192.994539 C155.289539,192.545539 155.738539,193.144539 155.493539,194.356539 C155.254539,195.563539 154.580539,196.639539 153.600539,197.380539 L138.057539,206.357539 C137.267539,206.820539 136.818539,206.207539 137.063539,204.995539 Z" id="Path" fill="#444444"></path>
            <path d="M117.474539,203.251539 C117.713539,202.045539 118.387539,200.969539 119.368539,200.227539 L134.910539,191.264539 C135.701539,190.801539 136.150539,191.400539 135.905539,192.626539 C135.663539,193.827539 134.989539,194.898539 134.011539,195.637539 L118.469539,204.600539 C117.679539,205.063539 117.229539,204.450539 117.474539,203.238539 L117.474539,203.251539 Z" id="Path" fill="#444444"></path>
            <path d="M126.329539,211.179539 C126.571539,209.970539 127.243539,208.891539 128.222539,208.141539 L134.584539,204.518539 C135.374539,204.055539 135.823539,204.654539 135.578539,205.880539 C135.340539,207.083539 134.665539,208.155539 133.685539,208.891539 L127.364539,212.541539 C126.560539,213.004539 126.111539,212.405539 126.356539,211.179539 L126.329539,211.179539 Z" id="Path" fill="#FFC000"></path>
            <path d="M150.494539,177.561539 C150.732539,176.358539 151.407539,175.286539 152.387539,174.550539 L158.708539,170.886539 C159.512539,170.436539 159.961539,171.036539 159.716539,172.248539 C159.468539,173.447539 158.796539,174.516539 157.823539,175.258539 L151.502539,178.909539 C150.698539,179.372539 150.249539,178.773539 150.494539,177.547539 L150.494539,177.561539 Z" id="Path" fill="#FFC000"></path>
            <path d="M138.221539,191.278539 C138.460539,190.072539 139.133539,188.996539 140.114539,188.254539 L146.435539,184.603539 C147.238539,184.140539 147.674539,184.753539 147.429539,185.965539 C147.190539,187.168539 146.522539,188.243539 145.549539,188.990539 L139.215539,192.640539 C138.425539,193.103539 137.975539,192.490539 138.221539,191.278539 Z" id="Path" fill="#FFC000"></path>
            <path d="M149.295539,184.875539 C149.537539,183.674539 150.211539,182.603539 151.189539,181.865539 L157.509539,178.214539 C158.299539,177.751539 158.749539,178.351539 158.504539,179.576539 C158.260539,180.774539 157.593539,181.843539 156.624539,182.587539 L150.290539,186.238539 C149.500539,186.701539 149.050539,186.101539 149.295539,184.875539 Z" id="Path" fill="#444444"></path>
        </g>
    </g>
</svg>