<?xml version="1.0" encoding="UTF-8"?>
<svg width="45px" height="45px" viewBox="0 0 45 45" version="1.1" xmlns="http://www.w3.org/2000/svg" xmlns:xlink="http://www.w3.org/1999/xlink">
    <title>Group 18726</title>
    <g id="Page-1" stroke="none" stroke-width="1" fill="none" fill-rule="evenodd">
        <g id="Group-18726" fill="#FF6E43" fill-rule="nonzero">
            <rect id="Rectangle" opacity="0.23" x="0" y="0" width="45" height="45" rx="3"></rect>
            <path d="M32.8368,25.5285 L30.6642,25.0359 L30.6642,24.1325 C31.1481,23.9203 31.5936,23.6187 31.9787,23.2339 C32.5829,22.6297 32.9847,21.8771 33.151,21.0583 C33.8663,20.9664 34.421,20.354 34.421,19.614 C34.421,19.2268 34.268,18.86 33.9978,18.5882 L33.9978,15.2484 C33.9978,13.1727 32.3091,11.484 30.2334,11.484 L30.2334,11.4952 C29.9854,11.1937 29.6099,11.0008 29.19,11 L29.1836,11 C29.1788,11 29.1739,11 29.1691,11 C27.7799,11 26.4623,11.5511 25.458,12.5527 C24.4287,13.5792 23.8618,14.9364 23.8618,16.3741 L23.8618,18.6059 C23.6024,18.8758 23.4554,19.2363 23.4554,19.6141 C23.4554,19.8748 23.5246,20.1195 23.645,20.3313 C23.2667,20.2317 22.8729,20.1803 22.4709,20.1825 C21.7217,20.1881 21.0159,20.3838 20.3972,20.723 L20.3972,20.1815 C20.3972,18.51 19.327,17.0496 17.7341,16.5476 L17.5697,17.0692 C18.9338,17.4991 19.8503,18.7498 19.8503,20.1815 L19.8503,21.077 C18.9168,21.7833 18.265,22.8507 18.0991,24.0695 C17.5022,24.4644 16.8096,24.673 16.088,24.673 C15.1124,24.673 14.1948,24.2929 13.5044,23.6031 C12.8143,22.9125 12.4343,21.9949 12.4343,21.0193 L12.4343,20.3214 C12.4343,19.1257 13.1297,18.0287 14.2087,17.5171 L14.2393,17.5031 C15.5284,16.9093 16.3614,15.608 16.3614,14.1879 L16.3614,13.72 L15.8146,13.72 L15.8146,14.1879 C15.8146,15.3835 15.1202,16.48 14.0424,16.9914 L14.01,17.0063 C12.7206,17.6007 11.8874,18.902 11.8874,20.3214 L11.8874,24.5816 C11.8874,25.1633 11.9743,25.7374 12.1449,26.2923 C11.2962,26.6102 10.5961,27.2295 10.1773,28.035 C9.77345,27.5407 9.54688,26.9169 9.54688,26.2725 C9.54688,25.4084 9.93805,24.6077 10.6203,24.0757 C11.0187,23.7643 11.2471,23.2981 11.2471,22.7966 L11.2471,17.1955 C11.2471,15.8981 11.7524,14.6783 12.6698,13.7609 C13.5775,12.8537 14.7836,12.3486 16.0662,12.3387 C17.3511,12.3285 18.5671,12.8298 19.4947,13.7502 C20.4415,14.6895 20.9629,15.9349 20.9629,17.2567 L20.9629,19.6307 L21.5098,19.6307 L21.5098,17.2567 C21.5098,15.788 20.931,14.4048 19.8799,13.362 C18.848,12.3382 17.493,11.7815 16.0619,11.7919 C14.635,11.803 13.293,12.3649 12.2831,13.3742 C11.2624,14.3949 10.7002,15.7521 10.7002,17.1955 L10.7002,22.7966 C10.7002,23.1288 10.5484,23.4379 10.2838,23.6446 C9.46796,24.2808 9,25.2387 9,26.2726 C9,27.1389 9.34158,27.9748 9.94254,28.5937 C9.82272,28.9601 9.7618,29.3422 9.7618,29.7321 L9.7618,34.9581 L16.4703,34.9581 L16.4703,34.4112 L10.3085,34.4112 L10.3085,29.7321 C10.3085,29.3481 10.3775,28.9732 10.5136,28.6176 C10.8876,27.6376 11.7216,26.914 12.7446,26.6819 L15.0931,26.1496 L15.0931,25.1013 C15.415,25.1792 15.7483,25.2198 16.0878,25.2198 C16.4386,25.2198 16.7833,25.1763 17.1165,25.0925 L17.1165,26.1496 L18.0564,26.3628 L18.0564,27.6738 C18.0564,28.826 18.9937,29.7633 20.1458,29.7633 L20.2218,29.7633 L20.2218,29.2164 L20.1458,29.2164 C19.2952,29.2164 18.6032,28.5244 18.6032,27.6738 L18.6032,24.6829 C18.6032,22.5187 20.3401,20.7452 22.4749,20.7293 C23.5252,20.7212 24.5094,21.1237 25.2528,21.8616 C25.9963,22.5996 26.4058,23.583 26.4058,24.6305 L26.4058,27.6738 C26.4058,28.5244 25.7138,29.2164 24.8632,29.2164 L24.8632,29.7633 C26.0153,29.7633 26.9526,28.826 26.9526,27.6738 L26.9526,25.6634 L27.2459,25.5967 L27.2459,28.0875 C27.2459,28.2445 27.3457,28.3841 27.4944,28.4348 C27.5333,28.448 27.5732,28.4544 27.6127,28.4544 C27.7242,28.4544 27.8324,28.4034 27.9033,28.3117 L28.9551,26.8474 L30.0013,28.3042 L30.0069,28.3118 C30.1029,28.4361 30.2671,28.4855 30.4158,28.4348 C30.5644,28.3841 30.6643,28.2446 30.6643,28.0875 L30.6643,25.5966 L32.7159,26.0618 C34.3332,26.4282 35.4626,27.8423 35.4626,29.5008 L35.4626,34.4112 L33.1385,34.4112 L33.1385,29.8417 L32.5916,29.8417 L32.5916,34.4112 L28.1971,34.4112 L28.1971,34.9581 L36.0095,34.9581 L36.0095,29.5008 C36.0095,28.5805 35.6932,27.6776 35.119,26.9587 C34.5446,26.2397 33.7341,25.7318 32.8368,25.5285 Z M13.1176,23.9898 C13.1328,24.005 13.1488,24.0191 13.1642,24.0341 L13.1642,24.5667 C13.1642,25.0465 13.2242,25.5226 13.3408,25.9861 L12.6694,26.1383 C12.5135,25.6334 12.4342,25.111 12.4342,24.5816 L12.4342,23.0928 C12.6187,23.417 12.8468,23.7188 13.1176,23.9898 Z M14.5462,25.713 L13.8742,25.8653 C13.7663,25.4414 13.7111,25.0057 13.7111,24.5667 L13.7111,24.4829 C13.973,24.6634 14.2529,24.8122 14.5462,24.9279 L14.5462,25.713 Z M17.6634,25.713 L17.6634,24.9147 C17.7973,24.8605 17.9283,24.7985 18.0564,24.7303 L18.0564,25.8021 L17.6634,25.713 Z M33.227,20.4849 C33.2334,20.3883 33.2378,20.2912 33.2378,20.1935 L33.2378,20.0795 C33.5115,19.9777 33.7366,19.7764 33.8689,19.519 C33.8722,19.5504 33.8741,19.5822 33.8741,19.6141 C33.8741,20.0245 33.601,20.3719 33.227,20.4849 Z M33.4508,15.2485 L33.4508,18.9892 C33.4508,19.175 33.368,19.3414 33.2378,19.4546 L33.2378,19.1496 C33.2378,18.6909 33.1015,18.2481 32.8435,17.8688 C32.7471,17.7278 32.6721,17.572 32.6209,17.4062 C32.5701,17.241 32.5444,17.0697 32.5444,16.897 L32.5444,16.3304 C32.5444,15.4734 31.8472,14.7762 30.9922,14.7762 L30.363,14.7716 C30.4806,14.4356 30.5412,14.0837 30.5412,13.7202 L30.5412,12.353 C30.5412,12.2464 30.5284,12.1429 30.505,12.0433 C32.1523,12.1817 33.4508,13.5659 33.4508,15.2485 Z M24.4085,16.3742 C24.4085,15.0828 24.9183,13.8631 25.8441,12.94 C26.7452,12.0413 27.9255,11.5469 29.1698,11.5469 C29.1741,11.5469 29.1784,11.5469 29.1827,11.5469 L29.1893,11.5469 C29.6332,11.5478 29.9943,11.9093 29.9943,12.353 L29.9943,13.7202 C29.9943,14.1417 29.8979,14.5447 29.708,14.9178 C29.2536,15.8091 28.3508,16.3627 27.3518,16.3627 C26.6264,16.3627 25.9449,16.6451 25.433,17.1575 C24.9205,17.6701 24.6382,18.3514 24.6382,19.0758 L24.6382,19.4062 C24.4951,19.2713 24.4085,19.0805 24.4085,18.8718 L24.4085,16.3742 Z M24.0137,19.478 C24.149,19.7307 24.3669,19.9344 24.6383,20.0499 L24.6383,20.1935 C24.6383,20.2909 24.6418,20.388 24.6483,20.4846 C24.2749,20.3713 24.0023,20.0241 24.0023,19.6141 C24.0022,19.5681 24.0069,19.5229 24.0137,19.478 Z M25.3181,21.1853 C25.2302,20.8646 25.1851,20.5315 25.1851,20.1936 L25.1851,19.0758 C25.1851,18.4974 25.4105,17.9535 25.8198,17.5441 C26.2286,17.135 26.7726,16.9096 27.3518,16.9096 C28.5,16.9096 29.5426,16.3034 30.1129,15.3166 L30.9902,15.3231 C31.5456,15.3231 31.9975,15.775 31.9975,16.3304 L31.9975,16.897 C31.9975,17.1242 32.0314,17.3496 32.0983,17.5673 C32.1659,17.7858 32.2647,17.9911 32.3916,18.1768 C32.5874,18.4646 32.691,18.801 32.691,19.1496 L32.691,20.1936 C32.691,21.1962 32.3006,22.1386 31.5921,22.8472 C30.8827,23.5559 29.9403,23.9462 28.9383,23.9462 C28.482,23.9462 28.0371,23.8655 27.6153,23.7061 C27.2978,23.5868 26.9991,23.4247 26.7256,23.2243 C26.5087,22.5712 26.1411,21.9728 25.638,21.4735 C25.5354,21.3716 25.4286,21.2757 25.3181,21.1853 Z M26.9526,25.1026 L26.9526,24.6305 C26.9526,24.4117 26.9366,24.1953 26.9058,23.9826 C27.0166,24.0421 27.13,24.0969 27.2458,24.1463 L27.2458,25.036 L26.9526,25.1026 Z M27.7928,27.5284 L27.7928,25.816 L28.58,26.4324 L27.7928,27.5284 Z M28.955,26.0315 L27.7926,25.1212 L27.7926,24.3386 C28.1635,24.4411 28.5474,24.493 28.9383,24.493 C29.3428,24.493 29.7385,24.4364 30.1174,24.329 L30.1174,25.1213 L28.955,26.0315 Z M30.1174,27.5284 L29.3302,26.4323 L30.1174,25.8159 L30.1174,27.5284 Z" id="Shape"></path>
            <path d="M23.6277,26.7178 C23.7727,26.7178 23.8902,26.6004 23.8902,26.4554 L23.8902,26.2751 C23.8902,26.1302 23.7727,26.0127 23.6277,26.0127 C23.4829,26.0127 23.3654,26.1302 23.3654,26.2751 L23.3654,26.4554 C23.3654,26.6004 23.4829,26.7178 23.6277,26.7178 Z" id="Path"></path>
            <path d="M21.4569,26.7178 C21.6018,26.7178 21.7193,26.6004 21.7193,26.4554 L21.7193,26.2751 C21.7193,26.1302 21.6019,26.0127 21.4569,26.0127 C21.312,26.0127 21.1945,26.1302 21.1945,26.2751 L21.1945,26.4554 C21.1945,26.6004 21.3119,26.7178 21.4569,26.7178 Z" id="Path"></path>
            <path d="M23.7623,27.7135 L23.2689,27.4775 C23.1332,27.7614 22.8424,27.9448 22.5282,27.9448 C22.2137,27.9448 21.923,27.7615 21.7876,27.4778 L21.2941,27.7133 C21.5198,28.1862 22.0042,28.4917 22.5282,28.4917 C23.0518,28.4917 23.5362,28.1862 23.7623,27.7135 Z" id="Path"></path>
            <polygon id="Path" points="19.1935 23.6733 20.1691 24.6489 20.5558 24.2622 19.5802 23.2866"></polygon>
            <polygon id="Path" points="21.1439 23.6738 20.1683 22.6982 19.7816 23.0849 20.7572 24.0605"></polygon>
            <path d="M27.6967,33.0827 C27.6967,31.658 26.7263,30.443 25.3368,30.1281 L23.8193,29.7842 L23.8193,29.3598 C25.0642,28.8611 25.9964,27.6742 26.1642,26.2176 C26.2031,25.8807 26.06,25.5435 25.791,25.3377 C25.5114,25.1237 25.0303,24.6639 24.9491,23.9882 C24.9188,23.7361 24.7548,23.5261 24.5211,23.4401 L24.4953,23.4306 C24.2246,23.3309 23.9242,23.4163 23.7479,23.6433 C22.7429,24.9374 20.8147,25.3194 19.7547,25.432 C19.4814,25.461 19.232,25.6056 19.0707,25.8284 C18.9095,26.051 18.85,26.3324 18.9075,26.6006 C19.0878,27.441 19.5402,28.2045 20.1815,28.7506 C20.4855,29.0093 20.8268,29.2133 21.1895,29.3584 L21.1895,29.7842 L19.672,30.1281 C18.2825,30.4431 17.3121,31.6581 17.3121,33.0827 L17.3121,34.9582 L27.6967,34.9582 L27.6967,33.0827 L27.6967,33.0827 Z M19.4423,26.4859 C19.4168,26.3673 19.4422,26.2478 19.5136,26.1492 C19.5853,26.0503 19.6915,25.9887 19.8126,25.9759 C20.9589,25.854 23.0506,25.4327 24.1798,23.9788 C24.2011,23.9516 24.2333,23.9366 24.2667,23.9366 C24.2799,23.9366 24.2933,23.9389 24.3063,23.9437 L24.3321,23.9532 C24.3721,23.968 24.4005,24.0064 24.4061,24.0534 L24.4061,24.0534 C24.5112,24.9284 25.1107,25.5057 25.4587,25.772 C25.5757,25.8615 25.6379,26.0083 25.621,26.155 C25.4297,27.8151 24.0898,29.067 22.5045,29.067 C21.0274,29.0669 19.7683,28.0056 19.4423,26.4859 Z M22.5044,29.6138 C22.7673,29.6138 23.0241,29.5837 23.2725,29.5284 L23.2725,29.8844 C23.0592,30.0693 22.7904,30.1704 22.5044,30.1704 C22.2185,30.1704 21.9496,30.0692 21.7363,29.8843 L21.7363,29.5283 C21.9876,29.5846 22.2451,29.6138 22.5044,29.6138 Z M21.3818,30.3013 C21.6939,30.5706 22.0868,30.7174 22.5044,30.7173 C22.922,30.7173 23.3149,30.5704 23.6269,30.3013 L24.5896,30.5195 L24.5896,32.0949 L20.4951,32.0949 L20.4951,30.5024 L21.3818,30.3013 Z M19.7929,30.6615 L19.9483,30.6262 L19.9483,32.6417 L25.1365,32.6417 L25.1365,30.6435 L25.2159,30.6614 C25.4027,30.7037 25.5799,30.7663 25.7462,30.8458 L25.7462,34.4113 L19.3102,34.4113 L19.3102,30.8236 C19.4627,30.7547 19.6239,30.6998 19.7929,30.6615 Z M17.859,33.0827 C17.859,32.3145 18.2034,31.6207 18.7634,31.1624 L18.7634,34.4113 L17.859,34.4113 L17.859,33.0827 Z M27.1498,34.4113 L26.2931,34.4113 L26.2931,31.203 C26.8247,31.6611 27.1498,32.3366 27.1498,33.0827 L27.1498,34.4113 Z" id="Shape"></path>
            <path d="M16.1049,22.8501 C15.8955,22.8501 15.702,22.7281 15.6118,22.5392 L15.1183,22.7747 C15.2986,23.1527 15.6859,23.397 16.1049,23.397 C16.5234,23.397 16.9106,23.1528 17.0913,22.7749 L16.598,22.5391 C16.5076,22.728 16.314,22.8501 16.1049,22.8501 Z" id="Path"></path>
            <polygon id="Path" points="17.5855 28.2468 11.4224 28.2468 11.4224 28.7937 17.5855 28.7937"></polygon>
            <path d="M18.0649,20.1533 C18.2316,20.1533 18.3673,20.289 18.3673,20.4557 L18.9142,20.4557 C18.9142,19.9875 18.5332,19.6064 18.0649,19.6064 C17.5966,19.6064 17.2156,19.9875 17.2156,20.4557 L17.7625,20.4557 C17.7625,20.289 17.8981,20.1533 18.0649,20.1533 Z" id="Path"></path>
            <path d="M13.2952,20.4557 L13.842,20.4557 C13.842,20.289 13.9777,20.1533 14.1445,20.1533 C14.3113,20.1533 14.4469,20.289 14.4469,20.4557 L14.9938,20.4557 C14.9938,19.9875 14.6128,19.6064 14.1445,19.6064 C13.6762,19.6064 13.2952,19.9875 13.2952,20.4557 Z" id="Path"></path>
            <path d="M28.9555,22.6039 C29.382,22.6039 29.7766,22.3551 29.9607,21.9701 L29.4673,21.7341 C29.3735,21.9303 29.1726,22.0571 28.9555,22.0571 C28.7382,22.0571 28.5374,21.9304 28.4439,21.7343 L27.9503,21.9699 C28.134,22.355 28.5286,22.6039 28.9555,22.6039 Z" id="Path"></path>
            <path d="M30.9158,19.45 C31.0826,19.45 31.2182,19.5856 31.2182,19.7524 L31.7651,19.7524 C31.7651,19.2841 31.3841,18.9031 30.9158,18.9031 C30.4475,18.9031 30.0665,19.2841 30.0665,19.7524 L30.6134,19.7524 C30.6133,19.5856 30.749,19.45 30.9158,19.45 Z" id="Path"></path>
            <path d="M26.9955,19.45 C27.1622,19.45 27.2978,19.5856 27.2978,19.7524 L27.8447,19.7524 C27.8447,19.2841 27.4637,18.9031 26.9955,18.9031 C26.5271,18.9031 26.1461,19.2841 26.1461,19.7524 L26.693,19.7524 C26.693,19.5856 26.8287,19.45 26.9955,19.45 Z" id="Path"></path>
            <polygon id="Path" points="29.2284 28.1814 28.6815 28.1814 28.6815 33.7936 29.2284 33.7936"></polygon>
        </g>
    </g>
</svg>