<?xml version="1.0" encoding="UTF-8"?>
<svg width="45px" height="45px" viewBox="0 0 45 45" version="1.1" xmlns="http://www.w3.org/2000/svg" xmlns:xlink="http://www.w3.org/1999/xlink">
    <title>Group 495</title>
    <g id="Page-1" stroke="none" stroke-width="1" fill="none" fill-rule="evenodd">
        <g id="Group-495" fill="#FF6E43" fill-rule="nonzero">
            <rect id="Rectangle" opacity="0.23" x="0" y="0" width="45" height="45" rx="3"></rect>
            <g id="Group" transform="translate(8.000000, 8.000000)">
                <path d="M7.1094,22.6406 L0.54688,22.6406 C0.24489,22.6406 0,22.8855 0,23.1875 L0,27.4531 C0,27.7551 0.24489,28 0.54688,28 L7.1094,28 C7.4114,28 7.6562,27.7551 7.6562,27.4531 L7.6562,23.1875 C7.6562,22.8855 7.4114,22.6406 7.1094,22.6406 Z M6.5625,26.9062 L1.09375,26.9062 L1.09375,23.7344 L6.5625,23.7344 L6.5625,26.9062 Z" id="Shape"></path>
                <path d="M17.2812,20.7812 L10.7188,20.7812 C10.4168,20.7812 10.1719,21.0261 10.1719,21.3281 L10.1719,27.4531 C10.1719,27.7551 10.4168,28 10.7188,28 L17.2812,28 C17.5832,28 17.8281,27.7551 17.8281,27.4531 L17.8281,21.3281 C17.8281,21.0261 17.5832,20.7812 17.2812,20.7812 Z M16.7344,26.9062 L11.2656,26.9062 L11.2656,21.875 L16.7344,21.875 L16.7344,26.9062 Z" id="Shape"></path>
                <path d="M27.4531,19.0312 L22.6762,19.0312 C22.7062,18.9767 22.7337,18.9203 22.7585,18.8623 C22.9552,18.4016 22.9608,17.8918 22.7742,17.427 L21.0078,13.0262 C20.8531,12.6406 20.57,12.3132 20.2111,12.1042 L18.4852,11.0993 C18.4859,11.0878 18.4869,11.0764 18.4869,11.0647 L18.4869,7.325 C20.646,7.0005 22.6004,6.0119 24.1648,4.4475 L24.2019,4.4103 C24.8899,3.7223 24.8899,2.6026 24.2019,1.91466 C23.8686,1.58129 23.4254,1.3977 22.954,1.3977 C22.4827,1.3977 22.0395,1.58129 21.7062,1.91461 L21.6691,1.95169 C20.595,3.0257 19.2201,3.6895 17.7344,3.8648 C17.9231,3.535 18.0315,3.1537 18.0315,2.7473 L18.0315,2.2583 C18.0315,1.01303 17.0184,0 15.7732,0 C14.528,0 13.5149,1.01303 13.5149,2.2583 L13.5149,2.7473 C13.5149,3.173 13.6334,3.5716 13.8391,3.9119 L13.761,3.9119 C11.0308,3.9119 8.4639,4.9751 6.5331,6.9057 L6.4961,6.9429 C5.808,7.6309 5.808,8.7505 6.4961,9.4386 C7.1841,10.1266 8.3038,10.1266 8.9918,9.4386 L9.0289,9.4015 C9.9188,8.5115 11.0091,7.9032 12.2111,7.6207 L12.2111,11.0648 C12.2111,11.1867 12.2515,11.2989 12.319,11.3899 L10.7108,14.655 L6.7067,16.5549 C6.2541,16.7697 5.9122,17.1478 5.744,17.6197 C5.5758,18.0916 5.6015,18.6007 5.8162,19.0532 C6.1251,19.7043 6.7905,20.1251 7.5115,20.1251 C7.7907,20.1251 8.0609,20.0641 8.3146,19.9437 L10.685,18.819 C10.9579,18.6895 11.0741,18.3634 10.9446,18.0905 C10.8152,17.8176 10.4891,17.7013 10.2161,17.8309 L7.8457,18.9556 C7.7397,19.0059 7.6273,19.0314 7.5116,19.0314 C7.2108,19.0314 6.9332,18.856 6.8044,18.5845 C6.7149,18.3958 6.7042,18.1836 6.7743,17.9869 C6.8444,17.7903 6.9869,17.6327 7.1756,17.5431 L11.3517,15.5616 C11.4631,15.5088 11.5533,15.4198 11.6078,15.3092 L13.429,11.6118 L17.1915,11.6118 L19.6608,13.0496 C19.8104,13.1368 19.9284,13.2732 19.9929,13.4339 L21.7593,17.8346 C21.837,18.0284 21.8348,18.2409 21.7527,18.4328 C21.6707,18.6249 21.5189,18.7735 21.325,18.8512 C21.2316,18.8887 21.1337,18.9078 21.0343,18.9078 C20.7131,18.9078 20.4282,18.7152 20.3085,18.4169 L18.7122,14.4398 C18.6597,14.3091 18.5589,14.2038 18.4307,14.1455 L15.6891,12.9006 C15.4517,12.7928 15.1716,12.8675 15.0193,13.0789 L13.6688,14.9536 C13.4922,15.1986 13.5478,15.5404 13.7929,15.717 C14.038,15.8936 14.3798,15.838 14.5563,15.5929 L15.6449,14.0816 L17.7789,15.0507 L19.2935,18.8243 C19.4904,19.3148 19.8738,19.6861 20.3439,19.8711 L20.3439,27.4531 C20.3439,27.7551 20.5888,28 20.8908,28 L27.4533,28 C27.7553,28 28.0002,27.7551 28.0002,27.4531 L28.0002,19.5781 C28.0002,19.2761 27.7551,19.0312 27.4531,19.0312 Z M14.6086,2.7473 L14.6086,2.2583 C14.6086,1.61618 15.1311,1.09375 15.7732,1.09375 C16.4153,1.09375 16.9378,1.61618 16.9378,2.2583 L16.9378,2.7473 C16.9378,3.3894 16.4153,3.9119 15.7732,3.9119 C15.1311,3.9119 14.6086,3.3895 14.6086,2.7473 Z M13.3048,10.5178 L13.3048,6.9635 C13.3048,6.8054 13.2364,6.6551 13.1172,6.5512 C12.9981,6.4474 12.84,6.4002 12.6832,6.4217 C10.9977,6.6539 9.4666,7.4169 8.2554,8.6281 L8.2183,8.6652 C7.9568,8.9269 7.531,8.9269 7.2694,8.6652 C7.0078,8.4036 7.0078,7.9779 7.2694,7.7162 L7.3065,7.6792 C9.0306,5.9551 11.3228,5.0056 13.7609,5.0056 L16.9368,5.0056 C19.0166,5.0056 20.9718,4.1957 22.4424,2.7251 L22.4795,2.6881 C22.6062,2.5613 22.7747,2.4915 22.9539,2.4915 C23.1332,2.4915 23.3016,2.5612 23.4284,2.688 L23.4284,2.6881 C23.69,2.9496 23.69,3.3753 23.4284,3.637 L23.3913,3.6741 C21.8891,5.1763 19.9847,6.084 17.8843,6.299 C17.6053,6.3275 17.3931,6.5625 17.3931,6.843 L17.3931,10.5178 L13.3048,10.5178 Z M26.9062,26.9062 L21.4375,26.9062 L21.4375,20.125 L26.9062,20.125 L26.9062,26.9062 Z" id="Shape"></path>
                <path d="M13.061,17.6564 C13.1626,17.5547 13.2206,17.4136 13.2206,17.2698 C13.2206,17.1259 13.1626,16.9849 13.061,16.8831 C12.9587,16.7814 12.8181,16.7229 12.6743,16.7229 C12.5305,16.7229 12.3894,16.7814 12.2871,16.8831 C12.1854,16.9849 12.1274,17.1259 12.1274,17.2698 C12.1274,17.4136 12.1854,17.5547 12.2871,17.6564 C12.3894,17.7581 12.5299,17.8167 12.6743,17.8167 C12.8181,17.8167 12.9587,17.7581 13.061,17.6564 Z" id="Path"></path>
            </g>
        </g>
    </g>
</svg>