<?xml version="1.0" encoding="UTF-8"?>
<svg width="45px" height="45px" viewBox="0 0 45 45" version="1.1" xmlns="http://www.w3.org/2000/svg" xmlns:xlink="http://www.w3.org/1999/xlink">
    <title>Group 495 (1)</title>
    <g id="Page-1" stroke="none" stroke-width="1" fill="none" fill-rule="evenodd">
        <g id="Group-495-(1)" fill="#FF6E43" fill-rule="nonzero">
            <rect id="Rectangle" opacity="0.23" x="0" y="0" width="45" height="45" rx="3"></rect>
            <path d="M22.0001,12.5652 C22.3348,12.5652 22.6087,12.2913 22.6087,11.9565 L22.6087,11.6522 C22.6087,11.3174 22.3348,11.0435 22.0001,11.0435 C21.6653,11.0435 21.3914,11.3174 21.3914,11.6522 L21.3914,11.9565 C21.3914,12.2913 21.6653,12.5652 22.0001,12.5652 Z" id="Path"></path>
            <path d="M22.0001,31.4348 C21.6653,31.4348 21.3914,31.7087 21.3914,32.0435 L21.3914,32.3479 C21.3914,32.6826 21.6653,32.9566 22.0001,32.9566 C22.3348,32.9566 22.6087,32.6826 22.6087,32.3479 L22.6087,32.0435 C22.6087,31.7087 22.3348,31.4348 22.0001,31.4348 Z" id="Path"></path>
            <path d="M11.9565,21.3914 L11.6522,21.3914 C11.3174,21.3914 11.0435,21.6653 11.0435,22.0001 C11.0435,22.3348 11.3174,22.6087 11.6522,22.6087 L11.9565,22.6087 C12.2913,22.6087 12.5652,22.3348 12.5652,22.0001 C12.5652,21.6653 12.2913,21.3914 11.9565,21.3914 Z" id="Path"></path>
            <path d="M32.3479,21.3914 L32.0435,21.3914 C31.7087,21.3914 31.4348,21.6653 31.4348,22.0001 C31.4348,22.3348 31.7087,22.6087 32.0435,22.6087 L32.3479,22.6087 C32.6826,22.6087 32.9566,22.3348 32.9566,22.0001 C32.9566,21.6653 32.6826,21.3914 32.3479,21.3914 Z" id="Path"></path>
            <path d="M15.1217,14.2695 C14.8782,14.026 14.513,14.026 14.2695,14.2695 C14.026,14.513 14.026,14.8782 14.2695,15.1217 L14.4826,15.3347 C14.6043,15.4565 14.7565,15.5173 14.9087,15.5173 C15.0608,15.5173 15.213,15.4565 15.3347,15.3347 C15.5782,15.0913 15.5782,14.726 15.3347,14.4826 L15.1217,14.2695 Z" id="Path"></path>
            <path d="M14.4826,28.6653 L14.2695,28.8783 C14.026,29.1218 14.026,29.487 14.2695,29.7305 C14.3913,29.8522 14.5434,29.9131 14.6956,29.9131 C14.8478,29.9131 15,29.8522 15.1217,29.7305 L15.3347,29.5175 C15.5782,29.274 15.5782,28.9088 15.3347,28.6653 C15.0913,28.4218 14.726,28.4218 14.4826,28.6653 Z" id="Path"></path>
            <path d="M28.8783,14.2695 L28.6653,14.4826 C28.4218,14.726 28.4218,15.0913 28.6653,15.3347 C28.787,15.4565 28.9392,15.5173 29.0914,15.5173 C29.2435,15.5173 29.3957,15.4565 29.5174,15.3347 L29.7305,15.1217 C29.9739,14.8782 29.9739,14.513 29.7305,14.2695 C29.487,14.026 29.1218,14.026 28.8783,14.2695 Z" id="Path"></path>
            <path d="M22.6087,21.7565 L22.6087,16.2173 C22.6087,15.8826 22.3348,15.6086 22.0001,15.6086 C21.6653,15.6086 21.3914,15.8826 21.3914,16.2173 L21.3914,21.9999 C21.3914,22.1521 21.4522,22.3043 21.574,22.426 L28.2392,29.0913 C28.3609,29.213 28.5131,29.2739 28.6653,29.2739 C28.8174,29.2739 28.9696,29.213 29.0913,29.0913 C29.3348,28.8478 29.3348,28.4826 29.0913,28.2391 L22.6087,21.7565 Z" id="Path"></path>
            <path d="M22,8 C14.2696,8 8,14.2696 8,22 C8,29.7304 14.2696,36 22,36 C29.7304,36 36,29.7304 36,22 C36,14.2696 29.7304,8 22,8 Z M22,34.7826 C14.9391,34.7826 9.21739,29.0609 9.21739,22 C9.21739,14.9391 14.9391,9.21739 22,9.21739 C29.0609,9.21739 34.7826,14.9391 34.7826,22 C34.7826,29.0609 29.0609,34.7826 22,34.7826 Z" id="Shape"></path>
        </g>
    </g>
</svg>