<svg width="45" height="45" viewBox="0 0 45 45" fill="none" xmlns="http://www.w3.org/2000/svg">
<g clip-path="url(#clip0_3_44)">
<path d="M45 36.5625H39.375V42.1875H19.6875V36.5625H14.0625V22.5C14.0625 22.1045 14.1357 21.7383 14.2822 21.4014C14.4287 21.0645 14.6265 20.7715 14.8755 20.5225C15.1245 20.2734 15.4248 20.0684 15.7764 19.9072C16.1279 19.7461 16.4941 19.6729 16.875 19.6875H19.6875V11.25H33.75V5.625H8.4375V19.6875H11.9971C11.499 20.5664 11.25 21.5039 11.25 22.5H7.62451L2.98828 27.1362C2.87109 27.2534 2.8125 27.3926 2.8125 27.5537C2.8125 27.7148 2.86377 27.8467 2.96631 27.9492C3.06885 28.0518 3.20801 28.1104 3.38379 28.125H11.25V30.9375H3.38379C2.91504 30.9375 2.47559 30.8496 2.06543 30.6738C1.65527 30.498 1.29639 30.2563 0.98877 29.9487C0.681152 29.6411 0.439453 29.2822 0.263672 28.8721C0.0878906 28.4619 0 28.0225 0 27.5537C0 27.0996 0.0805664 26.6675 0.241699 26.2573C0.402832 25.8472 0.651855 25.4736 0.98877 25.1367L5.625 20.5005V2.8125H36.5625V11.25H39.375V19.6875H42.1875C42.583 19.6875 42.9492 19.7607 43.2861 19.9072C43.623 20.0537 43.916 20.2515 44.165 20.5005C44.4141 20.7495 44.6191 21.0498 44.7803 21.4014C44.9414 21.7529 45.0146 22.1191 45 22.5V36.5625ZM22.5 19.6875H36.5625V14.0625H22.5V19.6875ZM36.5625 33.75H22.5V39.375H36.5625V33.75ZM42.1875 22.5H16.875V33.75H19.6875V30.9375H39.375V33.75H42.1875V22.5ZM21.0938 28.125C20.7129 28.125 20.3833 27.9858 20.105 27.7075C19.8267 27.4292 19.6875 27.0996 19.6875 26.7188C19.6875 26.3379 19.8267 26.0083 20.105 25.73C20.3833 25.4517 20.7129 25.3125 21.0938 25.3125C21.4746 25.3125 21.8042 25.4517 22.0825 25.73C22.3608 26.0083 22.5 26.3379 22.5 26.7188C22.5 27.0996 22.3608 27.4292 22.0825 27.7075C21.8042 27.9858 21.4746 28.125 21.0938 28.125Z" fill="black"/>
</g>
<defs>
<clipPath id="clip0_3_44">
<rect width="45" height="45" fill="white"/>
</clipPath>
</defs>
</svg>
