<?xml version="1.0" encoding="UTF-8"?>
<svg width="176px" height="29px" viewBox="0 0 176 29" version="1.1" xmlns="http://www.w3.org/2000/svg" xmlns:xlink="http://www.w3.org/1999/xlink">
    <title>company-2</title>
    <g id="Page-1" stroke="none" stroke-width="1" fill="none" fill-rule="evenodd">
        <g id="company-2" transform="translate(0.653807, 0.708853)">
            <path d="M0.083492,2.919649 L6.607943,26.551069 C6.947283,27.781569 8.229843,28.506269 9.472293,28.169669 C10.005693,28.025169 10.469693,27.697669 10.781993,27.245569 L29.588893,0 L2.332033,0 C1.044053,0 0,1.034269 0,2.310099 C0,2.516029 0.0282,2.721019 0.083492,2.919649 Z" id="Path" fill="#0088FF"></path>
            <path d="M39.000593,2.919629 L32.475093,26.550969 C32.135693,27.781569 30.853193,28.506269 29.610693,28.169569 C29.077293,28.025069 28.613293,27.697569 28.300993,27.245469 L9.494093,0 L36.750993,0 C38.038993,0 39.082993,1.034259 39.082993,2.310079 C39.082993,2.516009 39.054793,2.721009 39.000593,2.919629 Z" id="Path" fill="#FF0088"></path>
            <polygon id="Path" fill="#FFFFFF" points="29.589093 3e-06 19.542093 14.555269 9.494093 9e-06"></polygon>
            <path d="M58.156193,23.825469 L61.439093,10.853169 L64.750093,23.825469 L69.012993,23.825469 L74.379593,4.934139 L69.882493,4.934139 L66.585593,18.584069 L63.026293,4.934139 L59.880093,4.934139 L56.293593,18.584069 L52.996693,4.934139 L48.498493,4.934139 L53.893293,23.825469 L58.156193,23.825469 Z M80.228593,24.171269 C81.920993,24.171269 83.323893,23.470569 84.437293,22.069169 L84.437293,23.825469 L88.050793,23.825469 L88.050793,10.147969 L84.437393,10.147969 L84.437293,11.904269 C83.342293,10.502869 81.939393,9.802169 80.228593,9.802169 C78.453893,9.802169 77.003293,10.449869 75.876793,11.745269 C74.750393,13.040569 74.186593,14.780869 74.186593,16.965969 C74.186593,19.206369 74.752493,20.967369 75.883293,22.248969 C77.015193,23.530469 78.463593,24.171269 80.228593,24.171269 Z M81.360493,20.962769 C80.330493,20.962769 79.493593,20.593969 78.849593,19.856369 C78.205593,19.118869 77.883593,18.155369 77.883593,16.965969 C77.883593,15.785769 78.205593,14.831569 78.849593,14.103169 C79.493593,13.374869 80.330493,13.010669 81.360493,13.010669 C81.957893,13.010669 82.546593,13.160469 83.126593,13.460169 C83.705493,13.759769 84.142493,14.135469 84.437293,14.587269 L84.437293,19.413869 C84.142493,19.865569 83.705493,20.236669 83.126593,20.527169 C82.546593,20.817469 81.957893,20.962769 81.360493,20.962769 Z M93.390293,8.668149 C93.987693,8.668149 94.496193,8.458399 94.914693,8.038899 C95.333193,7.619399 95.542393,7.114609 95.542393,6.524549 C95.542393,5.934479 95.333193,5.431999 94.914693,5.017109 C94.496193,4.602209 93.987693,4.394769 93.390293,4.394769 C92.811393,4.394769 92.311593,4.602209 91.893093,5.017109 C91.474593,5.431999 91.265393,5.934479 91.265393,6.524549 C91.265393,7.114609 91.472493,7.621709 91.886593,8.045809 C92.309393,8.460709 92.811393,8.668149 93.390293,8.668149 Z M95.197593,23.825469 L95.197593,10.147969 L91.610093,10.147969 L91.610093,23.825469 L95.197593,23.825469 Z M103.337193,24.171269 C104.679193,24.171269 105.678193,23.876269 106.331193,23.286169 L105.572193,20.533969 C105.471193,20.653869 105.301193,20.755269 105.061193,20.838269 C104.823193,20.921269 104.574193,20.962769 104.316193,20.962769 C103.930193,20.962769 103.627193,20.819869 103.406193,20.533969 C103.186193,20.248169 103.075193,19.884069 103.075193,19.441469 L103.075193,13.287269 L105.847193,13.287269 L105.847193,10.147969 L103.075193,10.147969 L103.075193,6.400069 L99.487193,6.400069 L99.487193,10.147969 L97.224993,10.147969 L97.224993,13.287269 L99.487193,13.287269 L99.487193,20.395769 C99.487193,21.631169 99.817193,22.569269 100.474193,23.210069 C101.132193,23.850869 102.086193,24.171269 103.337193,24.171269 Z M114.525193,23.825469 L117.395193,14.504369 L120.278193,23.825469 L124.127193,23.825469 L128.279193,10.147869 L124.527193,10.147869 L121.975193,19.344669 L118.981193,10.147869 L115.794193,10.147869 L112.801193,19.344669 L110.249193,10.147869 L106.524193,10.147869 L110.676193,23.825469 L114.525193,23.825469 Z M133.660193,23.825469 L133.660193,14.587269 C133.991193,14.144669 134.428193,13.771269 134.970193,13.466969 C135.513193,13.162769 136.110193,13.010669 136.764193,13.010669 C137.583193,13.010669 138.208193,13.199669 138.640193,13.577669 C139.072193,13.955769 139.288193,14.596469 139.288193,15.499969 L139.288193,23.825469 L142.876193,23.825469 L142.876193,14.117069 C142.876193,12.752569 142.503193,11.692269 141.758193,10.936269 C141.013193,10.180169 139.905193,9.802169 138.433193,9.802169 C137.403193,9.802169 136.474193,10.007269 135.646193,10.417569 C134.818193,10.827869 134.157193,11.323369 133.660193,11.904269 L133.660193,4.934119 L130.046193,4.934119 L130.046193,23.825469 L133.660193,23.825469 Z M148.201193,8.668129 C148.798193,8.668129 149.307193,8.458379 149.725193,8.038879 C150.144193,7.619379 150.353193,7.114589 150.353193,6.524529 C150.353193,5.934459 150.144193,5.431979 149.725193,5.017089 C149.307193,4.602199 148.798193,4.394749 148.201193,4.394749 C147.621193,4.394749 147.122193,4.602199 146.704193,5.017089 C146.285193,5.431979 146.076193,5.934469 146.076193,6.524529 C146.076193,7.114599 146.283193,7.621689 146.697193,8.045789 C147.120193,8.460689 147.621193,8.668129 148.201193,8.668129 Z M150.007193,23.825469 L150.007193,10.147869 L146.421193,10.147869 L146.421193,23.825469 L150.007193,23.825469 Z M157.416193,24.171169 C158.758193,24.171169 159.757193,23.876169 160.410193,23.286069 L159.637193,20.533969 C159.536193,20.653869 159.368193,20.755269 159.134193,20.838269 C158.899193,20.921269 158.653193,20.962769 158.395193,20.962769 C158.009193,20.962769 157.706193,20.819869 157.485193,20.533969 C157.264193,20.248169 157.154193,19.883969 157.154193,19.441469 L157.154193,4.934109 L153.566193,4.934109 L153.566193,20.395769 C153.566193,21.631169 153.896193,22.569269 154.553193,23.209969 C155.211193,23.850869 156.165193,24.171169 157.416193,24.171169 Z M168.398193,24.171169 C169.483193,24.171169 170.524193,24.005269 171.522193,23.673369 C172.520193,23.341369 173.350193,22.871169 174.013193,22.262769 L172.412193,19.883969 C171.998193,20.289669 171.444193,20.614669 170.749193,20.858969 C170.055193,21.103369 169.405193,21.225469 168.798193,21.225469 C167.684193,21.225469 166.783193,20.935069 166.094193,20.354169 C165.403193,19.773369 164.995193,19.040469 164.866193,18.155369 L175.006193,18.155369 L175.006193,17.311769 C175.006193,15.080569 174.378193,13.271069 173.122193,11.883569 C171.867193,10.495969 170.218193,9.802169 168.177193,9.802169 C166.833193,9.802169 165.620193,10.122569 164.535193,10.763369 C163.450193,11.404169 162.607193,12.268469 162.010193,13.356369 C161.412193,14.444369 161.113193,15.647569 161.113193,16.965869 C161.113193,19.123369 161.801193,20.863669 163.175193,22.186669 C164.551193,23.509669 166.291193,24.171169 168.398193,24.171169 Z M171.557193,15.665969 L164.838193,15.665969 C164.875193,15.306369 164.966193,14.962869 165.114193,14.635569 C165.261193,14.308269 165.464193,13.999569 165.721193,13.709069 C165.979193,13.418669 166.318193,13.185869 166.742193,13.010669 C167.165193,12.835469 167.643193,12.747869 168.177193,12.747869 C168.738193,12.747869 169.239193,12.837769 169.680193,13.017569 C170.122193,13.197369 170.468193,13.434769 170.722193,13.729769 C170.975193,14.024769 171.170193,14.333669 171.309193,14.656369 C171.446193,14.979069 171.529193,15.315569 171.557193,15.665969 Z" id="Shape" fill="#FFFFFF" fill-rule="nonzero"></path>
        </g>
    </g>
</svg>