<?xml version="1.0" encoding="UTF-8"?>
<svg width="140px" height="27px" viewBox="0 0 140 27" version="1.1" xmlns="http://www.w3.org/2000/svg" xmlns:xlink="http://www.w3.org/1999/xlink">
    <title>company-9</title>
    <g id="Page-1" stroke="none" stroke-width="1" fill="none" fill-rule="evenodd">
        <g id="company-9" transform="translate(0.000000, 0.000122)" fill="#FFFFFF" fill-rule="nonzero">
            <path d="M84.9825,26.1334 C83.2222,26.1334 81.501,25.6225 80.0373,24.6653 C78.5736,23.7081 77.4331,22.3476 76.759,20.7559 C76.0855,19.1641 75.909,17.4126 76.2527,15.7228 C76.5957,14.033 77.4437,12.4809 78.6884,11.2626 C79.9332,10.0443 81.5196,9.21465 83.2461,8.87857 C84.9725,8.54243 86.7627,8.71498 88.3889,9.37426 C90.0152,10.0336 91.4059,11.1501 92.3839,12.5826 C93.3619,14.0152 93.8841,15.6994 93.8841,17.4223 C93.8794,19.7312 92.9399,21.9443 91.2718,23.5769 C89.6031,25.2096 87.3419,26.1289 84.9825,26.1334 Z M84.9825,10.1744796 C83.5174,10.1711 82.0836,10.5932 80.8634,11.3876 C79.6432,12.1819 78.6911,13.3127 78.1278,14.6367 C77.5645,15.9608 77.4158,17.4186 77.6991,18.8257 C77.9831,20.2327 78.6871,21.5258 79.7222,22.5411 C80.7573,23.5565 82.077,24.2484 83.5135,24.5295 C84.9506,24.8106 86.4409,24.6681 87.7951,24.12 C89.1493,23.5719 90.3071,22.643 91.1219,21.4507 C91.936,20.2585 92.3713,18.8565 92.3713,17.4223 C92.3713,15.503 91.593,13.6621 90.2082,12.3034 C88.8228,10.9447 86.9438,10.179 84.9825,10.1744796 Z" id="Shape"></path>
            <path d="M27.9346,4.68278 C28.0696,4.80954 28.1767,4.96197 28.2493,5.13072 C28.3219,5.29948 28.3584,5.48098 28.3567,5.66407 C28.3602,5.85251 28.3245,6.03967 28.2519,6.21425 C28.1794,6.38883 28.0714,6.54717 27.9346,6.6798 C27.803,6.81406 27.6444,6.92016 27.4687,6.99124 C27.2931,7.06239 27.1043,7.09702 26.9143,7.09296 C26.7234,7.09296 26.5343,7.05592 26.3582,6.98386 C26.182,6.91186 26.0222,6.80635 25.888,6.67346 C25.7538,6.54051 25.6479,6.38285 25.5765,6.20959 C25.505,6.03632 25.4695,5.8509 25.4718,5.66407 C25.4701,5.48098 25.5067,5.29948 25.5793,5.13072 C25.6519,4.96197 25.759,4.80954 25.894,4.68278 C26.0268,4.55015 26.1857,4.44518 26.361,4.37418 C26.5363,4.30317 26.7246,4.2676 26.9143,4.2696 C27.1043,4.26556 27.2931,4.30019 27.4687,4.37132 C27.6444,4.44244 27.803,4.54851 27.9346,4.68278 Z M27.6355,9.74419 L27.6355,25.2383 L26.193,25.2383 L26.193,9.74419 L27.6355,9.74419 Z" id="Shape"></path>
            <path d="M34.0039,0 L35.464,0 L35.464,11.9305 C35.7377,11.5603 36.0374,11.2094 36.3611,10.8803 C38.0256,9.26133 40.2769,8.3526 42.6236,8.3526 C44.9703,8.3526 47.2216,9.26133 48.886,10.8803 C49.7216,11.6787 50.3819,12.6356 50.8265,13.6924 C51.2711,14.7491 51.4908,15.8836 51.472,17.0263 C51.489,18.1636 51.2685,19.2924 50.8238,20.3434 C50.3791,21.3942 49.7197,22.3452 48.886,23.1378 C48.0654,23.9456 47.0896,24.5868 46.0148,25.0242 C44.9401,25.4617 43.7876,25.6869 42.6236,25.6869 C41.4596,25.6869 40.3071,25.4617 39.2323,25.0242 C38.1576,24.5868 37.1818,23.9456 36.3611,23.1378 C36.0374,22.8087 35.7377,22.4577 35.464,22.0876 L35.464,25.2381 L34.0039,25.2381 L34.0039,0 Z M35.464,15.5457 L35.464,18.5068 C35.7283,19.8644 36.424,21.1055 37.4518,22.0532 C38.1277,22.7227 38.9324,23.2546 39.8194,23.6181 C40.7065,23.9815 41.6583,24.1695 42.6199,24.1711103 C43.5816,24.1727 44.534,23.9879 45.4223,23.6273 C46.3106,23.2668 47.1172,22.7376 47.7954,22.0704 C48.4884,21.4193 49.0367,20.6353 49.406,19.7674 C49.7752,18.8994 49.9575,17.9663 49.9415,17.0263 C49.9557,16.084 49.7727,15.1487 49.4036,14.2783 C49.0345,13.4078 48.4872,12.6205 47.7954,11.9649 C47.1195,11.2944 46.3144,10.7621 45.4265,10.3988 C44.5387,10.0354 43.5859,9.84835 42.6236,9.84835 C41.6612,9.84835 40.7085,10.0354 39.8207,10.3988 C38.9329,10.7621 38.1277,11.2944 37.4518,11.9649 C36.4233,12.926 35.7282,14.1782 35.464,15.5457 Z" id="Shape"></path>
            <path d="M56.9778,16.2171 C56.9416,16.4854 56.924,16.7556 56.9251,17.0263 C56.9344,18.9212 57.7089,20.7358 59.0798,22.0742 C60.4506,23.4126 62.3067,24.1662 64.243,24.1707 C65.2076,24.1855 66.165,24.0051 67.0546,23.6407 C67.9451,23.2763 68.7486,22.7359 69.4147,22.0532 C69.6629,21.8189 69.8978,21.5718 70.1187,21.313 L71.6667,21.8466 C71.3343,22.3164 70.9508,22.7493 70.5228,23.1378 C69.7093,23.9594 68.7327,24.6093 67.6525,25.0475 C66.5723,25.4857 65.4121,25.7028 64.243,25.6857 C63.0791,25.7032 61.924,25.4861 60.8497,25.0478 C59.7752,24.6094 58.8046,23.9592 57.9982,23.1378 C57.1622,22.3461 56.5,21.3957 56.0524,20.3448 C55.6047,19.2939 55.3809,18.1647 55.3946,17.0263 C55.3946,14.616 56.2742,12.5846 57.9982,10.8803 C59.6626,9.26126 61.9139,8.35254 64.2606,8.35254 C66.6074,8.35254 68.8587,9.26126 70.5228,10.8803 C71.25,11.5736 71.8259,12.404 72.2161,13.3213 C72.6062,14.2385 72.802,15.2236 72.792,16.2171 L56.9778,16.2171 Z M57.2593,14.771 L71.1565,14.771 C70.8274,13.7065 70.2282,12.7411 69.4147,11.9648 C68.7386,11.2944 67.9338,10.7621 67.046,10.3988 C66.1581,10.0354 65.2053,9.84828 64.243,9.84828 C63.2807,9.84828 62.328,10.0354 61.4401,10.3988 C60.5523,10.7621 59.747,11.2944 59.0712,11.9648 C58.2494,12.7472 57.6286,13.7088 57.2593,14.771 Z" id="Shape"></path>
            <path d="M99.1791,13.2044 L99.1791,25.2381 L97.7188,25.2381 L97.7188,9.74408 L99.1791,9.74408 L99.1791,10.7426 C100.481,9.45139 102.011,8.81445 103.771,8.81445 C105.53,8.81445 107.166,9.38253 108.326,10.536 C109.487,11.6894 110.103,13.1355 110.138,14.8743 L110.138,25.2381 L108.696,25.2381 L108.696,15.012 C108.705,14.3812 108.58,13.7555 108.329,13.1745 C108.077,12.5936 107.705,12.0703 107.236,11.6378 C106.316,10.7471 105.076,10.246 103.783,10.2428 C102.489,10.2396 101.247,10.7345 100.322,11.6206 C99.8367,12.0682 99.4479,12.6068 99.1791,13.2044 Z" id="Path"></path>
            <path d="M117.474,4.68257 C117.615,4.80579 117.727,4.95717 117.803,5.12646 C117.879,5.29576 117.916,5.47902 117.914,5.66386 C117.918,5.85399 117.881,6.04286 117.805,6.21796 C117.729,6.39307 117.617,6.55043 117.474,6.6796 C117.345,6.8117 117.189,6.91656 117.016,6.98758 C116.844,7.05866 116.658,7.0944 116.471,7.09277 C116.279,7.09512 116.088,7.05977 115.909,6.98882 C115.732,6.91787 115.57,6.81275 115.434,6.6796 C115.296,6.54697 115.189,6.38862 115.116,6.21404 C115.043,6.03946 115.008,5.8523 115.011,5.66386 C115.01,5.48077 115.046,5.29927 115.118,5.13052 C115.191,4.96176 115.298,4.80933 115.434,4.68257 C115.57,4.54944 115.732,4.44429 115.909,4.37333 C116.088,4.30237 116.279,4.26703 116.471,4.2694 C116.658,4.26773 116.844,4.30352 117.016,4.37457 C117.189,4.44562 117.345,4.55044 117.474,4.68257 Z M117.175,9.74399 L117.175,25.2381 L115.732,25.2381 L115.732,9.74399 L117.175,9.74399 Z" id="Shape"></path>
            <polygon id="Path" points="126.428 17.0436 121.784 9.74414 123.472 9.74414 127.272 15.718 131.071 9.74414 132.76 9.74414 128.116 17.0436 133.305 25.2382 131.634 25.2382 127.272 18.3864 122.909 25.2382 121.238 25.2382"></polygon>
            <polygon id="Path" points="9.85102 16.5098 8.88356 18.5067 0 0.240967 1.89985 0.240967"></polygon>
            <polygon id="Path" points="12.0325 25.3588 11.0649 23.3617 22.3937 0.017334 24.2935 0.017334"></polygon>
            <polygon id="Path" points="135.337 10.8889 135.337 8.4848 134.423 8.4848 134.423 8.16663 136.654 8.16663 136.654 8.4848 135.703 8.4848 135.703 10.8889"></polygon>
            <path d="M137.211,10.8889 L137.211,8.16663 L137.785,8.16663 L138.472,10.0757 C138.548,10.2525 138.587,10.3939 138.625,10.4999 L138.778,10.0404 L139.465,8.16663 L140,8.16663 L140,10.8889 L139.618,10.8889 L139.618,8.5909 L138.778,10.8889 L138.434,10.8889 L137.594,8.55549 L137.594,10.8889 L137.211,10.8889 Z" id="Path"></path>
        </g>
    </g>
</svg>