<?xml version="1.0" encoding="UTF-8"?>
<svg width="120px" height="38px" viewBox="0 0 120 38" version="1.1" xmlns="http://www.w3.org/2000/svg" xmlns:xlink="http://www.w3.org/1999/xlink">
    <title>company-1</title>
    <defs>
        <linearGradient x1="4.27740079%" y1="40.4776675%" x2="158.27028%" y2="55.9557601%" id="linearGradient-1">
            <stop stop-color="#FC4C88" offset="0%"></stop>
            <stop stop-color="#9D07FF" offset="100%"></stop>
        </linearGradient>
        <linearGradient x1="47.6990209%" y1="35.946671%" x2="53.5815248%" y2="37.5231788%" id="linearGradient-2">
            <stop stop-color="#FC4C88" offset="0%"></stop>
            <stop stop-color="#9D07FF" offset="100%"></stop>
        </linearGradient>
        <linearGradient x1="-76.1778345%" y1="31.7831985%" x2="151.170162%" y2="51.2792367%" id="linearGradient-3">
            <stop stop-color="#FC4C88" offset="0%"></stop>
            <stop stop-color="#9D07FF" offset="100%"></stop>
        </linearGradient>
        <linearGradient x1="-62.6142804%" y1="25.4364951%" x2="91.3767483%" y2="40.9146109%" id="linearGradient-4">
            <stop stop-color="#FC4C88" offset="0%"></stop>
            <stop stop-color="#9D07FF" offset="100%"></stop>
        </linearGradient>
        <linearGradient x1="-43.9549106%" y1="20.8831301%" x2="61.7227057%" y2="32.6181292%" id="linearGradient-5">
            <stop stop-color="#FC4C88" offset="0%"></stop>
            <stop stop-color="#9D07FF" offset="100%"></stop>
        </linearGradient>
        <linearGradient x1="-277.688295%" y1="15.0559825%" x2="34.5542578%" y2="38.7350618%" id="linearGradient-6">
            <stop stop-color="#FC4C88" offset="0%"></stop>
            <stop stop-color="#9D07FF" offset="100%"></stop>
        </linearGradient>
        <linearGradient x1="-138.251307%" y1="8.43418768%" x2="15.7577759%" y2="23.9129552%" id="linearGradient-7">
            <stop stop-color="#FC4C88" offset="0%"></stop>
            <stop stop-color="#9D07FF" offset="100%"></stop>
        </linearGradient>
        <linearGradient x1="11.2337367%" y1="49.965937%" x2="88.8076352%" y2="49.6906755%" id="linearGradient-8">
            <stop stop-color="#FC4C88" offset="0%"></stop>
            <stop stop-color="#9D07FF" offset="100%"></stop>
        </linearGradient>
    </defs>
    <g id="Page-1" stroke="none" stroke-width="1" fill="none" fill-rule="evenodd">
        <g id="company-1" transform="translate(0.096397, 0.798935)" fill-rule="nonzero">
            <path d="M37.6132028,19.6567868 L37.5779028,8.2192768 C37.5687028,7.8836768 37.7001028,7.5595468 37.9416028,7.3224868 C38.1831028,7.0854268 38.5136028,6.9561468 38.8559028,6.9648068 L42.3743028,6.9676368 C45.2826028,6.9699668 46.7506028,8.4469968 46.7577028,10.7787868 C46.7616028,12.0354868 46.0734028,13.1112868 45.0177028,13.5680868 L45.0179028,13.6479868 C46.3781028,14.2071868 47.1581028,15.2647868 47.1632324,16.8991868 C47.1707028,19.3508868 45.7517028,20.9248868 42.3766028,20.9221903 L38.8978028,20.9193868 C38.5546028,20.9271868 38.2227028,20.7964868 37.9798028,20.5576868 C37.7369028,20.3189868 37.6043028,19.9931868 37.6132028,19.6567868 Z M42.3094028,12.7425882 C43.5912028,12.7436868 44.1783028,12.0866868 44.1748184,10.9498868 C44.1714028,9.8541868 43.5802028,9.1551268 42.2983028,9.1540968 L40.1223028,9.1523568 L40.1334028,12.7408868 L42.3094028,12.7425882 Z M42.1241028,18.7233897 C43.7505028,18.7246868 44.5630028,18.2869868 44.5583231,16.7881868 C44.5538028,15.3122868 43.7187028,14.8333868 42.2541028,14.8322868 L40.1398028,14.8305868 L40.1518028,18.7180868 L42.1241028,18.7233897 Z" id="Shape" fill="url(#linearGradient-1)"></path>
            <path d="M49.5431028,19.6995868 L49.5136992,8.1903168 C49.5119028,7.5114968 50.1787028,6.9613868 51.0030028,6.96160673 C51.8272028,6.9618368 52.4968028,7.5123168 52.4985028,8.1911468 L52.528006,19.7004868 C52.5297028,20.3792868 51.8629028,20.9293868 51.0387028,20.9291869 C50.2144028,20.9288868 49.5448028,20.3783868 49.5431028,19.6995868 Z" id="Path" fill="url(#linearGradient-2)"></path>
            <path d="M55.5028028,19.6511868 L55.4673028,8.2189468 C55.4577028,7.8834968 55.5945028,7.5595268 55.8459028,7.3225868 C56.0973028,7.0856468 56.4412028,6.9564468 56.7975028,6.9651168 L60.2471028,6.9679668 C63.8663028,6.9709468 66.2227028,9.2249868 66.2373592,13.9070868 C66.2506028,18.1909868 63.9097028,20.9239868 60.7570028,20.9213886 L56.8383028,20.9180868 C56.4804028,20.9256868 56.1345028,20.7940868 55.8818028,20.5544868 C55.6292028,20.3147868 55.4921028,19.9880868 55.5028028,19.6511868 Z M60.1139028,18.7183885 C62.9068028,18.7206868 63.5358028,16.4097868 63.5280028,13.8987868 C63.5210028,11.6466868 62.8783028,9.1556568 60.0842028,9.1533568 L58.1126028,9.1517268 L58.1423028,18.7118868 L60.1139028,18.7183885 Z" id="Shape" fill="url(#linearGradient-3)"></path>
            <path d="M68.6230028,19.6568868 L68.5877028,8.2193968 C68.5784028,7.8837968 68.7099028,7.5596668 68.9514028,7.3226068 C69.1929028,7.0855468 69.5234028,6.9562768 69.8657028,6.9649268 L73.3841028,6.9677568 C76.2924028,6.9700868 77.7603028,8.4471168 77.7675028,10.7788868 C77.7714028,12.0355868 77.0832028,13.1113868 76.0275028,13.5681868 L76.0277028,13.6480868 C77.3879028,14.2072868 78.1679028,15.2648868 78.1730324,16.8993868 C78.1805028,19.3509868 76.7615028,20.9249868 73.3864028,20.9222903 L69.9088028,20.9194868 C69.5654028,20.9276868 69.2331028,20.7969868 68.9900028,20.5582868 C68.7468028,20.3194868 68.6141028,19.9934868 68.6230028,19.6568868 Z M73.3191028,12.7427879 C74.6010028,12.7437868 75.1881028,12.0867868 75.1845193,10.9499868 C75.1812028,9.8542868 74.5899028,9.1552468 73.3081028,9.1542168 L71.1321028,9.1524668 L71.1432028,12.7409868 L73.3191028,12.7427879 Z M73.1338028,18.7234897 C74.7603028,18.7247868 75.5727028,18.2870868 75.5681222,16.7882868 C75.5636028,15.3123868 74.7285028,14.8335868 73.2638028,14.8323868 L71.1496028,14.8306868 L71.1616028,18.7181868 L73.1338028,18.7234897 Z" id="Shape" fill="url(#linearGradient-4)"></path>
            <path d="M80.5507028,19.6780868 L80.5156972,8.2052568 C80.5136028,7.5192568 81.0974028,6.9635968 81.8196028,6.96415637 C82.5418028,6.9647168 83.1290028,7.5212768 83.1311028,8.2072668 L83.1633028,18.7534868 L87.7323028,18.7569868 C88.1491028,18.7441868 88.5409028,18.9481868 88.7545028,19.2891868 C88.9680028,19.6301868 88.9693028,20.0538868 88.7578028,20.3945868 C88.5464028,20.7352868 88.1558028,20.9385868 87.7390028,20.9251868 L81.8653028,20.9205868 C81.5156028,20.9292868 81.1768028,20.8012868 80.9283028,20.5663868 C80.6798028,20.3314868 80.5433028,20.0103868 80.5507028,19.6780868 Z" id="Path" fill="url(#linearGradient-5)"></path>
            <path d="M90.0909028,19.6847868 C90.0926028,19.5099868 90.1279028,19.3370868 90.1952028,19.1738868 L94.4536028,7.7951468 C94.6022028,7.2863468 95.1141028,6.9430768 95.6839028,6.9700268 L96.3643028,6.9705968 C96.9340028,6.9445968 97.4480028,7.2887268 97.5998028,7.7977868 L101.929603,19.1836868 C101.997603,19.3469868 102.033603,19.5199868 102.036603,19.6947868 C102.058603,20.2952868 101.594603,20.8158868 100.953603,20.9100868 C100.312603,21.0043868 99.6936028,20.6429868 99.5087028,20.0663868 L98.6725028,17.6862868 L93.4426028,17.6818868 L92.6212028,20.0605868 C92.4399028,20.6368868 91.8232028,20.9972868 91.1814028,20.9019868 C90.5395028,20.8065868 90.0725028,20.2852868 90.0909028,19.6847868 Z M97.8794028,15.4984868 L96.0782028,10.4444868 L95.9930028,10.4443868 L94.2233028,15.4953868 L97.8794028,15.4984868 Z" id="Shape" fill="url(#linearGradient-6)"></path>
            <path d="M103.807603,19.6567868 L103.772603,8.2193568 C103.763603,7.8839668 103.894603,7.5600468 104.135603,7.3230268 C104.377603,7.0859968 104.707603,6.9565768 105.049603,6.9648968 L108.568603,6.9677068 C111.476603,6.9700368 112.945603,8.4470368 112.952603,10.7787868 C112.956603,12.0354868 112.267603,13.1112868 111.212603,13.5680868 L111.212603,13.6479868 C112.572603,14.2071868 113.352603,15.2647868 113.357636,16.8991868 C113.365603,19.3507868 111.946603,20.9247868 108.570603,20.9220903 L105.092603,20.9192868 C104.749603,20.9271868 104.417603,20.7963868 104.174603,20.5576868 C103.931603,20.3188868 103.799603,19.9931868 103.807603,19.6567868 Z M108.504603,12.7426879 C109.785603,12.7436868 110.373603,12.0866868 110.370614,10.9498868 C110.366603,9.8541868 109.774603,9.1551768 108.493603,9.1541568 L106.317603,9.1524068 L106.328603,12.7408868 L108.504603,12.7426879 Z M108.319603,18.7232897 C109.945603,18.7245868 110.758603,18.2869868 110.753626,16.7881868 C110.749603,15.3122868 109.914603,14.8333868 108.449603,14.8322868 L106.334603,14.8305868 L106.346603,18.7180868 L108.319603,18.7232897 Z" id="Shape" fill="url(#linearGradient-7)"></path>
            <path d="M37.6070028,28.2223868 L37.5943819,24.1338868 C37.5925028,23.9781868 37.7206028,23.8506868 37.8812028,23.8485868 L39.0193028,23.8495868 C39.9243028,23.8502868 40.4055028,24.2960868 40.4079028,25.0799868 C40.4092028,25.4989868 40.1569028,25.9177868 39.7866028,26.0562868 C40.2872028,26.1703868 40.5896028,26.5618868 40.5915125,27.1804868 C40.5938028,27.9180868 40.1867028,28.5020868 39.0963028,28.5011878 L37.8887028,28.5001868 C37.7333028,28.4958868 37.6089028,28.3730868 37.6070028,28.2223868 Z M39.0255028,25.8706868 C39.5530028,25.8710868 39.8124028,25.5857868 39.8110084,25.1138868 C39.8095028,24.6419868 39.5893028,24.3694868 39.0209028,24.3689868 L38.1772028,24.3683868 L38.1818028,25.8712868 L39.0255028,25.8706868 Z M39.0048028,27.9855868 C39.6699028,27.9860868 39.9978028,27.8065868 39.9960102,27.1932868 C39.9941028,26.5798868 39.6445028,26.3813868 39.0475028,26.3808868 L38.1834028,26.3801868 L38.1883028,27.9888868 L39.0048028,27.9855868 Z" id="Shape" fill="#FFFFFF"></path>
            <path d="M42.3786028,28.2218868 L42.3664028,24.1340868 C42.3664028,24.0561868 42.3983028,23.9817868 42.4546028,23.9278868 C42.5109028,23.8740868 42.5869028,23.8455868 42.6649028,23.8488868 L44.5435028,23.8501868 C44.6671028,23.8752868 44.7562028,23.9836868 44.7565028,24.1093868 C44.7569028,24.2350868 44.6685028,24.3433868 44.5451028,24.3682868 L42.9328028,24.3670868 L42.9373028,25.8697868 L44.3946028,25.8708868 C44.5181028,25.8959868 44.6072028,26.0042868 44.6076028,26.1300868 C44.6080028,26.2557868 44.5195028,26.3639868 44.3961028,26.3888868 L42.9388028,26.3878868 L42.9436028,27.9830868 L44.5559028,27.9841868 C44.6795028,28.0093868 44.7685028,28.1176868 44.7689042,28.2433868 C44.7693028,28.3690868 44.6809028,28.4773868 44.5575028,28.5022868 L42.6590028,28.5009868 C42.5049028,28.5000868 42.3798028,28.3755868 42.3786028,28.2218868 Z" id="Path" fill="#FFFFFF"></path>
            <path d="M46.5479028,26.9324868 L46.5431908,25.4142868 C46.5403028,24.4658868 47.0636028,23.8486868 48.1429028,23.8495858 C48.7025028,23.8499868 49.1871028,24.0389868 49.4802028,24.5521868 C49.5013028,24.5883868 49.5132028,24.6286868 49.5149028,24.6697868 C49.5153028,24.8125868 49.3926028,24.9281868 49.2407028,24.9279868 C49.1494028,24.9315868 49.0626028,24.8898868 49.0121028,24.8179868 C48.8379028,24.5260868 48.5007028,24.3537868 48.1459028,24.3753868 C47.4062028,24.3748868 47.1311028,24.7777868 47.1332028,25.4793868 L47.1375028,26.8695868 C47.1397028,27.5711868 47.4159028,27.9745868 48.1570028,27.9751868 C48.5036028,27.9783868 48.8270028,27.8141868 49.0136028,27.5403868 C49.0612028,27.4517868 49.1563028,27.3944868 49.2620028,27.3907868 C49.4139028,27.3908868 49.5374028,27.5066868 49.5378028,27.6493868 C49.5362028,27.7003868 49.5197028,27.7499868 49.4901028,27.7927868 C49.2274028,28.2491868 48.7099028,28.5236868 48.1572028,28.4997868 C47.0793028,28.5014868 46.5508028,27.8834868 46.5479028,26.9324868 Z" id="Path" fill="#FFFFFF"></path>
            <path d="M50.7264028,28.2185868 C50.7282028,28.1738868 50.7375028,28.1298868 50.7539028,28.0879868 L52.1569028,24.0664868 C52.1830028,23.9383868 52.3042028,23.8468868 52.4438028,23.8500868 L52.5708028,23.8501868 C52.7102028,23.8477868 52.8316028,23.9391868 52.8591028,24.0670868 L54.2829028,28.1065868 C54.2991028,28.1445868 54.3086028,28.1846868 54.3112142,28.2254868 C54.3119028,28.2997868 54.2802028,28.3709868 54.2236028,28.4228868 C54.1669028,28.4747868 54.0900028,28.5028868 54.0106028,28.5006868 C53.8758028,28.4971868 53.7588028,28.4117868 53.7224028,28.2901868 L53.3843028,27.3067868 L51.6421028,27.3053868 L51.3157028,28.2894868 C51.2785028,28.4127868 51.1589028,28.4981868 51.0218028,28.4994868 C50.9425028,28.5001868 50.8662028,28.4705868 50.8104028,28.4175868 C50.7547028,28.3645868 50.7244028,28.2926868 50.7264028,28.2185868 Z M53.2347028,26.7844868 L52.5189028,24.6634868 L52.4910028,24.6634868 L51.7885028,26.7831868 L53.2347028,26.7844868 Z" id="Shape" fill="#FFFFFF"></path>
            <path d="M56.0901028,27.0209868 L56.0812028,24.1172868 C56.0816028,24.0457868 56.1108028,23.9774868 56.1623028,23.9275868 C56.2138028,23.8776868 56.2833028,23.8502868 56.3554028,23.8513868 C56.4302028,23.8510868 56.5021028,23.8803868 56.5551028,23.9328868 C56.6082028,23.9852868 56.6380028,24.0564868 56.6378028,24.1305868 L56.6465028,26.9567868 C56.6484028,27.5677868 56.8465028,27.9773868 57.5869028,27.9779868 C58.3273028,27.9785868 58.5229028,27.5691868 58.5210028,26.9582868 L58.5123028,24.1165868 C58.5128028,24.0450868 58.5420028,23.9768868 58.5934028,23.9269868 C58.6449028,23.8770868 58.7144028,23.8495868 58.7865028,23.850655 C58.8613028,23.8503868 58.9332028,23.8797868 58.9863028,23.9321868 C59.0393028,23.9846868 59.0691028,24.0557868 59.0689028,24.1298868 L59.0778153,27.0206868 C59.0807028,27.9687868 58.5779028,28.5018868 57.5872028,28.5010877 C56.5965028,28.5002868 56.0930028,27.9677868 56.0901028,27.0209868 Z" id="Path" fill="#FFFFFF"></path>
            <path d="M61.0125028,28.1780868 C60.9218028,28.1298868 60.8653028,28.0407868 60.8639995,27.9440868 C60.8635028,27.8483868 60.9202028,27.7605868 61.0112028,27.7156868 C61.1022028,27.6707868 61.2128028,27.6762868 61.2985028,27.7299868 C61.6077028,27.8894868 61.9558028,27.9725868 62.3091028,27.9710868 C63.0386028,27.9716868 63.2761028,27.6268868 63.2747028,27.1965868 C63.2705028,25.8063868 60.9228028,26.6778868 60.9179028,25.0628868 C60.9155028,24.2876868 61.4121028,23.8487868 62.3313028,23.8494868 C62.7410028,23.8447868 63.1437028,23.9510868 63.4899028,24.1553868 C63.5748028,24.2027868 63.6301028,24.2850868 63.6385028,24.3763868 C63.6369028,24.4427868 63.6065028,24.5056868 63.5541028,24.5508868 C63.5018028,24.5960868 63.4319028,24.6196868 63.3602028,24.6164868 C63.2978028,24.6133868 63.2373028,24.5955868 63.1843028,24.5646868 C62.9191028,24.4367868 62.6258028,24.3675868 62.3273028,24.3624868 C61.6396028,24.3618868 61.4914028,24.6937868 61.4925028,25.0568868 C61.4957028,26.0904868 63.8439028,25.4166868 63.8493111,27.1505868 C63.8515028,27.8908868 63.4182028,28.5016868 62.3024028,28.5007868 C61.8491028,28.5040868 61.4031028,28.3924868 61.0125028,28.1780868 Z" id="Path" fill="#FFFFFF"></path>
            <path d="M66.2317028,28.2219868 L66.2194028,24.1339868 C66.2195028,24.0560868 66.2515028,23.9815868 66.3080028,23.9277868 C66.3646028,23.8739868 66.4409028,23.8454868 66.5193028,23.8487868 L68.3956028,23.8500868 C68.5197028,23.8751868 68.6092028,23.9835868 68.6096028,24.1092868 C68.6100028,24.2349868 68.5211028,24.3432868 68.3972028,24.3681868 L66.7897028,24.3670868 L66.7942028,25.8697868 L68.2580028,25.8708868 C68.3821028,25.8959868 68.4716028,26.0043868 68.4719028,26.1300868 C68.4723028,26.2557868 68.3835028,26.3639868 68.2595028,26.3889868 L66.7957028,26.3878868 L66.8005028,27.9831868 L68.4080028,27.9843868 C68.5322028,28.0094868 68.6216028,28.1177868 68.6220042,28.2435868 C68.6224028,28.3692868 68.5336028,28.4774868 68.4096028,28.5024868 L66.5133028,28.5010868 C66.3585028,28.5001868 66.2329028,28.3756868 66.2317028,28.2219868 Z" id="Path" fill="#FFFFFF"></path>
            <path d="M69.8084028,29.4372868 C69.8062028,29.4190868 69.8062028,29.4005868 69.8083028,29.3824868 L69.9932028,28.1384868 C70.0134028,28.0100868 70.0980028,27.9198868 70.1944028,27.9241868 C70.2493028,27.9231868 70.3023028,27.9525868 70.3413028,28.0055868 C70.3803028,28.0586868 70.4020028,28.1307868 70.4015028,28.2057868 C70.4008028,28.2474868 70.3948028,28.2886868 70.3839028,28.3275868 L70.1354028,29.4910868 C70.1147028,29.5934868 70.0477028,29.6653868 69.9698028,29.6688868 C69.8794028,29.6629868 69.8082028,29.5607868 69.8084028,29.4372868 Z" id="Path" fill="#FFFFFF"></path>
            <path d="M74.0061028,28.2219868 L74.0016028,26.7579868 L72.8049028,24.2382868 C72.7872028,24.2016868 72.7784028,24.1613868 72.7789741,24.1207868 C72.7792028,23.9705868 72.8992028,23.8491868 73.0479028,23.8484868 C73.1639028,23.8503868 73.2679028,23.9221868 73.3118028,24.0307868 L74.2568028,26.1745868 L74.2887028,26.1746868 L75.2269028,24.0193868 C75.2730028,23.9149868 75.3763028,23.8485868 75.4897028,23.8504868 C75.6438028,23.8527868 75.7677028,23.9803868 75.7667088,24.1360868 C75.7660028,24.1764868 75.7574028,24.2163868 75.7415028,24.2534868 L74.5475028,26.7583868 L74.5520028,28.2223868 C74.5543028,28.2958868 74.5270028,28.3669868 74.4763028,28.4194868 C74.4256028,28.4720868 74.3559028,28.5014868 74.2831028,28.5010908 C74.2098028,28.5012868 74.1393028,28.4719868 74.0872028,28.4195868 C74.0352028,28.3671868 74.0060028,28.2959868 74.0061028,28.2219868 Z" id="Path" fill="#FFFFFF"></path>
            <path d="M76.9619028,26.9333868 L76.957289,25.4147868 C76.9543028,24.4660868 77.4414028,23.8486868 78.4464028,23.849486 C79.4513028,23.8502868 79.9422028,24.4684868 79.9451028,25.4170868 L79.9498157,26.9357868 C79.9527028,27.8844868 79.4656028,28.5018868 78.4607028,28.5010876 C77.4558028,28.5002868 76.9649028,27.8846868 76.9619028,26.9333868 Z M79.4017157,26.8706868 L79.3974028,25.4812868 C79.3952028,24.7794868 79.1380028,24.3760868 78.4480028,24.3754863 C77.7580028,24.3749868 77.5032028,24.7779868 77.5053887,25.4797868 L77.5096028,26.8704868 C77.5118028,27.5722868 77.7691028,27.9757868 78.4591028,27.9762875 C79.1491028,27.9768868 79.4038028,27.5750868 79.4017157,26.8719868 L79.4017157,26.8706868 Z" id="Shape" fill="#FFFFFF"></path>
            <path d="M82.3294028,27.0207868 L82.3204028,24.1169868 C82.3209028,24.0454868 82.3501028,23.9772868 82.4016028,23.9273868 C82.4530028,23.8774868 82.5225028,23.8500868 82.5947028,23.8511868 C82.6695028,23.8508868 82.7414028,23.8801868 82.7944028,23.9326868 C82.8474028,23.9850868 82.8772028,24.0562868 82.8771028,24.1303868 L82.8858028,26.9566868 C82.8877028,27.5676868 83.0858028,27.9772868 83.8262028,27.9778868 C84.5666028,27.9784868 84.7622028,27.5691868 84.7603028,26.9581868 L84.7516028,24.1163868 C84.7520028,24.0448868 84.7812028,23.9766868 84.8327028,23.9267868 C84.8842028,23.8768868 84.9537028,23.8493868 85.0258028,23.850455 C85.1006028,23.8501868 85.1725028,23.8795868 85.2255028,23.9319868 C85.2786028,23.9843868 85.3084028,24.0555868 85.3082028,24.1296868 L85.3171161,27.0205868 C85.3201028,27.9687868 84.8172028,28.5018868 83.8265028,28.5010877 C82.8358028,28.5002868 82.3323028,27.9676868 82.3294028,27.0207868 Z" id="Path" fill="#FFFFFF"></path>
            <path d="M91.0264028,28.2750868 L90.0913028,24.2572868 C90.0797028,24.2187868 90.0732028,24.1787868 90.0720028,24.1384868 C90.0688028,23.9894868 90.1769028,23.8635868 90.3199028,23.8499868 C90.4628028,23.8363868 90.5921028,23.9396868 90.6161028,24.0867868 L91.4120028,27.7899868 L91.4371028,27.7899868 L92.1460028,24.1611868 C92.1594028,24.0153868 92.2756028,23.9034868 92.4166028,23.9003868 L92.5046028,23.9004868 C92.6456028,23.9037868 92.7625028,24.0159868 92.7769028,24.1616868 L93.5085028,27.7917868 L93.5336028,27.7917868 L94.3063028,24.0898868 C94.3294028,23.9428868 94.4580028,23.8397868 94.6011028,23.8535868 C94.7441028,23.8673868 94.8530028,23.9934868 94.8507386,24.1425868 C94.8498028,24.1828868 94.8436028,24.2227868 94.8322028,24.2612868 L93.9210028,28.2775868 C93.8921028,28.4085868 93.7798028,28.5010868 93.6502028,28.5004868 L93.4328028,28.5003868 C93.3004028,28.5052868 93.1832028,28.4112868 93.1543028,28.2768868 L92.4807028,25.0867868 L92.4555028,25.0866868 L91.7981028,28.2757868 C91.7701028,28.4100868 91.6534028,28.5038868 91.5210028,28.4986868 L91.2961028,28.4984868 C91.1675028,28.4976868 91.0559028,28.4051868 91.0264028,28.2750868 Z" id="Path" fill="#FFFFFF"></path>
            <path d="M96.6411028,26.9334868 L96.636489,25.4148868 C96.6335028,24.4661868 97.1198028,23.8487868 98.1229028,23.849586 C99.1261028,23.8503868 99.6213028,24.4685868 99.6242028,25.4172868 L99.6289157,26.9358868 C99.6318028,27.8845868 99.1455028,28.5019868 98.1424028,28.5011876 C97.1392028,28.5003868 96.6441028,27.8847868 96.6411028,26.9334868 Z M99.0766169,26.8708868 L99.0723028,25.4814868 C99.0702028,24.7795868 98.8134028,24.3761868 98.1246028,24.3755863 C97.4358028,24.3750868 97.1814028,24.7780868 97.1835887,25.4798868 L97.1879028,26.8705868 C97.1900028,27.5724868 97.4469028,27.9758868 98.1357028,27.9764873 C98.8244028,27.9769868 99.0788028,27.5751868 99.0766169,26.8720868 L99.0766169,26.8708868 Z" id="Shape" fill="#FFFFFF"></path>
            <path d="M102.012603,28.2578868 L101.999603,24.1070868 C101.996603,24.0396868 102.020603,23.9740868 102.065603,23.9252868 C102.109603,23.8764868 102.171603,23.8487868 102.236603,23.8485868 C102.330603,23.8501868 102.414603,23.9055868 102.456603,23.9923868 L104.477603,27.3375868 L104.508603,27.3375868 L104.498603,24.1038868 C104.522603,23.9833868 104.624603,23.8967868 104.742603,23.8968868 C104.861603,23.8969868 104.963603,23.9836868 104.987603,24.1042868 L105.000603,28.2433868 C104.991603,28.3930868 104.869603,28.5078868 104.725603,28.5018868 C104.628603,28.5041868 104.537603,28.4516868 104.487603,28.3645868 L102.522603,25.0711868 L102.491603,25.0710868 L102.500603,28.2452868 C102.477603,28.3658868 102.375603,28.4524868 102.257603,28.4523868 C102.138603,28.4522868 102.036603,28.3654868 102.012603,28.2448868 L102.012603,28.2578868 Z" id="Path" fill="#FFFFFF"></path>
            <path d="M110.362603,28.2297868 L110.352603,24.1243868 C110.352603,23.9713868 110.485603,23.8472868 110.650603,23.8472868 C110.815603,23.8472868 110.949603,23.9712868 110.950603,24.1243868 L110.959603,28.2297868 C110.955603,28.3813868 110.821603,28.5023868 110.658603,28.5029868 C110.495603,28.5022868 110.363603,28.3805868 110.362603,28.2297868 Z" id="Path" fill="#FFFFFF"></path>
            <path d="M113.977603,28.2086868 L113.965603,24.3719868 L112.985603,24.3712868 C112.917603,24.3749868 112.852603,24.3486868 112.804603,24.2988868 C112.756603,24.2490868 112.731603,24.1804868 112.734603,24.1101868 C112.732603,24.0402868 112.757603,23.9724868 112.804603,23.9229868 C112.851603,23.8735868 112.916603,23.8469868 112.983603,23.8495868 L115.470603,23.8515868 C115.538603,23.8455868 115.605603,23.8711868 115.653603,23.9214868 C115.702603,23.9717868 115.726603,24.0416868 115.721603,24.1125868 C115.725603,24.1828868 115.700603,24.2513868 115.652603,24.3010868 C115.605603,24.3508868 115.539603,24.3770868 115.472603,24.3731868 L114.498603,24.3723868 L114.510603,28.2260868 C114.508603,28.3796868 114.388603,28.5025868 114.241603,28.5011004 C114.169603,28.4992868 114.100603,28.4673868 114.050603,28.4123868 C114.001603,28.3574868 113.974603,28.2840868 113.977603,28.2086868 Z" id="Path" fill="#FFFFFF"></path>
            <path d="M117.518603,28.0868868 C117.517603,27.8571868 117.651603,27.6708868 117.816603,27.6708868 C117.981603,27.6708868 118.115603,27.8570868 118.115603,28.0868868 C118.116603,28.3165868 117.982603,28.5027868 117.818603,28.5027868 C117.738603,28.5042868 117.661603,28.4608868 117.605603,28.3825868 C117.549603,28.3042868 117.517603,28.1975868 117.518603,28.0868868 Z M117.665603,26.9952868 L117.603603,24.1300868 C117.602603,23.9738868 117.693603,23.8471868 117.805603,23.8471868 C117.917603,23.8471868 118.009603,23.9737868 118.009603,24.1300868 L117.955603,26.9952868 C117.955603,27.1065868 117.891603,27.1967868 117.811603,27.1967868 C117.731603,27.1967868 117.666603,27.1065868 117.666603,26.9952868 L117.665603,26.9952868 Z" id="Shape" fill="#FFFFFF"></path>
            <path d="M115.723603,6.3758068 C116.052603,6.3760668 116.321603,6.6364568 116.322606,6.9573968 C116.323603,7.2783468 116.056603,7.5383068 115.726603,7.53803701 C115.396603,7.5377768 115.128603,7.2773868 115.127603,6.9564468 C115.124603,6.8016168 115.186603,6.6524868 115.298603,6.5430868 C115.410603,6.4336768 115.563603,6.3733368 115.723603,6.3758068 Z" id="Path" fill="#FFFFFF"></path>
            <path d="M116.706603,8.12434599 L117.723603,8.1251668 C118.688603,8.1259568 119.301603,8.6714668 119.304603,9.7112868 C119.329603,10.1667868 119.132603,10.6059868 118.773603,10.8948868 C118.692603,10.9703868 118.586603,11.0138868 118.474603,11.0170868 C118.368603,11.0205868 118.266603,10.9809868 118.191603,10.9075868 C118.116603,10.8342868 118.075603,10.7337868 118.078603,10.6301868 C118.078603,10.5204868 118.126603,10.4160868 118.209603,10.3429868 C118.404603,10.1839868 118.515603,9.9478868 118.514603,9.6989868 C118.513603,9.1320968 118.118603,8.9745868 117.649603,8.9742068 L116.778603,8.9734968 C116.302603,8.9731068 115.915603,9.1518868 115.917603,9.7187868 C115.917603,9.9676868 116.031603,10.2039868 116.227603,10.3632868 C116.313603,10.4312868 116.362603,10.5347868 116.359603,10.6429868 C116.359603,10.8564868 116.184603,11.0293868 115.966603,11.029187 C115.854603,11.0262868 115.747603,10.9830868 115.666603,10.9078868 C115.305603,10.6183868 115.106603,10.1787868 115.128603,9.7232868 C115.135603,8.6899968 115.741603,8.1235668 116.706603,8.12434599 Z" id="Path" fill="#FFFFFF"></path>
            <path d="M116.687603,11.6191858 L117.716603,11.6199868 C118.695603,11.6206868 119.302603,12.0859868 119.305614,13.0737868 C119.308603,14.0614868 118.706603,14.5258868 117.725603,14.5250878 L116.696603,14.5242868 C115.717603,14.5234868 115.128603,14.0642868 115.125592,13.0704868 C115.122603,12.0766868 115.724603,11.6183868 116.687603,11.6191858 Z M116.745603,13.7084868 L117.686603,13.709188 C118.259603,13.7096868 118.524603,13.5488868 118.522614,13.0694868 C118.521603,12.5901868 118.256603,12.4289868 117.682603,12.4284868 L116.741603,12.4277861 C116.174603,12.4273868 115.903603,12.5892868 115.9046,13.0674868 C115.906603,13.5455868 116.179603,13.7079868 116.745603,13.7084868 Z" id="Shape" fill="#FFFFFF"></path>
            <path d="M115.557603,15.6952868 L118.899603,15.6980868 C119.117603,15.6982868 119.294603,15.8536868 119.295603,16.0452868 C119.290603,16.2231868 119.138603,16.3707868 118.937603,16.3917868 L118.805603,16.4113868 C119.117603,16.6525868 119.294603,17.0002868 119.291603,17.3643868 C119.293603,17.8267868 119.074603,18.1167868 118.781603,18.2887868 C119.001603,18.4946868 119.309603,18.8174868 119.310614,19.2868868 C119.313603,20.0464868 118.691603,20.3487868 117.892603,20.3481877 L115.572603,20.3461868 C115.329603,20.3459868 115.131603,20.1729868 115.131603,19.9596868 C115.130603,19.7464868 115.326603,19.5737868 115.569603,19.5739868 L117.687603,19.5756868 C118.252603,19.5761868 118.448603,19.3635868 118.447603,19.0156868 C118.430603,18.7906868 118.325603,18.5774868 118.152603,18.4107868 C118.022603,18.4299868 117.889603,18.4383868 117.757603,18.4358868 L115.566603,18.4340868 C115.323603,18.4338868 115.125603,18.2607868 115.125603,18.0475868 C115.124603,17.8342868 115.320603,17.6615868 115.563603,17.6617868 L117.695603,17.6635868 C118.238603,17.6640868 118.443603,17.4768868 118.441603,17.1231868 C118.425603,16.8819868 118.306603,16.6546868 118.109603,16.4858868 L115.559603,16.4837868 C115.317603,16.4835868 115.119599,16.3104868 115.119599,16.0972868 C115.118603,15.8839868 115.314603,15.7112868 115.557603,15.7114868 L115.557603,15.6952868 Z" id="Path" fill="#FFFFFF"></path>
            <path d="M32.2541778,15.6462868 L32.2541778,15.7208868 C32.2583028,17.0675868 32.0860028,18.4086868 31.7407028,19.7113868 C30.3647028,26.7656868 23.9303028,31.1068868 18.6469028,33.5324868 C18.3963028,33.6459868 18.1620028,33.7545868 17.9251028,33.8570868 C17.6519028,33.9790868 17.3837028,34.0912868 17.1230028,34.1973868 L16.8423028,34.3193868 C15.1340028,35.0775868 13.3511028,35.6661868 11.5204028,36.0763868 C11.3950028,36.1079868 11.3160028,36.1225868 11.3160028,36.1225868 L11.3160028,36.1152868 C10.1861028,36.3646868 9.03859281,36.5324868 7.88272281,36.6171868 C7.47446281,36.6464868 7.09130281,36.4194868 6.92937281,36.0525868 C6.76743281,35.6855868 6.86257281,35.2598868 7.16608281,34.9933868 C8.40320281,33.9132868 9.57099281,32.7602868 10.6629028,31.5406868 C10.8245028,31.3565868 10.8836028,31.1069868 10.8215028,30.8717868 C10.7593028,30.6364868 10.5836028,30.4449868 10.3505028,30.3583868 C10.0527028,30.2444868 9.75488281,30.1134868 9.47088281,29.9909868 C9.46042281,29.9848868 9.44949281,29.9795868 9.43820281,29.9750868 L9.43067281,29.9750868 C6.88203281,28.8322868 4.68054281,27.0635868 3.04319281,24.8431868 C2.77685281,24.4827868 2.52469281,24.1109868 2.28673281,23.7276868 C1.63491281,22.6609868 1.11410281,21.5236868 0.735048806,20.3392868 C-0.749482194,15.7192868 0.0400048063,10.6985868 2.87369281,6.7387968 C5.07790281,3.6484468 8.34700281,1.4318768 12.0907028,0.489336796 C13.1869028,0.212136796 14.3111028,0.0516087958 15.4437028,0.0105487958 C16.1608028,-0.0147442042 16.8789028,0.00545879582 17.5937028,0.0710287958 C25.6181028,0.807876796 31.8733028,7.2027368 32.2394028,15.0436868 C32.2476028,15.2428868 32.2532028,15.4433868 32.2541778,15.6462868 Z" id="Path" fill="url(#linearGradient-8)"></path>
            <path d="M31.6425028,15.4307868 L31.642786,15.5042868 C31.6471028,16.8320868 31.4770028,18.1542868 31.1366028,19.4386868 C29.7802028,26.3936868 23.4375028,30.6738868 18.2294028,33.0653868 C17.9823028,33.1772868 17.7513028,33.2843868 17.5178028,33.3853868 C17.2485028,33.5056868 16.9841028,33.6162868 16.7271028,33.7209868 L8.37991281,25.6080868 C8.37991281,25.6080868 23.0420028,19.7018868 23.0417028,19.6054868 C23.0414028,19.5090868 24.2753028,12.5466868 24.2753028,12.5466868 L24.1447028,7.5656668 L24.1571028,7.5777368 L31.6282028,14.8365868 C31.6363028,15.0330868 31.6418028,15.2306868 31.6425028,15.4307868 Z" id="Path" fill="#192944" opacity="0.17"></path>
            <polygon id="Path" fill="#192944" opacity="0.17" points="12.6100028 10.0729868 11.3523028 13.3352868 14.1505028 14.1037868 17.0959028 16.9014868 18.2409028 19.7599868 22.1167028 17.6120868 13.2872028 9.2930868"></polygon>
            <path d="M25.7227028,17.4635868 C25.6098028,17.2204868 25.4802028,16.9853868 25.3348028,16.7601868 C25.0911028,16.3736868 24.8037028,16.0163868 24.4784028,15.6953868 C24.6508028,15.5231868 24.8122028,15.3401868 24.9615028,15.1475868 C25.0061028,15.0961868 25.0473028,15.0418868 25.0850028,14.9852868 C25.0931028,14.9736868 25.1022028,14.9628868 25.1122028,14.9530868 C25.3441028,14.6310868 25.5437028,14.2868868 25.7079028,13.9254868 C26.0870028,13.1209868 26.2805028,12.2408868 26.2740028,11.3500868 C26.2734028,11.1677868 26.2729028,10.9842868 26.2524028,10.8019868 C26.1877028,10.0974868 26.0001028,9.4093868 25.6980028,8.7688668 C25.4534028,8.2415468 25.1327028,7.7527968 24.7462028,7.3183168 L24.7337028,7.3059068 C23.5683028,5.9880068 21.8951028,5.2318968 20.1395028,5.2297568 L10.2199028,5.2214393 C9.72069281,5.2200368 9.24229281,5.4175368 8.89042281,5.7702668 C8.53855281,6.1230068 8.34219281,6.6019368 8.34471828,7.1011968 L8.38621281,20.3907868 L14.1972028,15.0120868 L13.9024028,14.7179868 C13.8344028,14.6386868 13.8386028,14.5206868 13.9121028,14.4469868 C13.9856028,14.3732868 14.1035028,14.3687868 14.1830028,14.4366868 L14.9554028,15.2074868 L16.3335028,16.5863868 C16.3716028,16.6226868 16.3931028,16.6728868 16.3933028,16.7253868 C16.3935028,16.7777868 16.3722028,16.8279868 16.3344028,16.8641868 C16.2570028,16.9384868 16.1346028,16.9383868 16.0567028,16.8639868 L15.6661028,16.4742868 L8.72733281,24.0110868 C8.46949281,24.2951868 8.35361281,24.6807868 8.41178281,25.0609868 C8.46995281,25.4411868 8.69600281,25.7757868 9.02732281,25.9719868 C9.22291281,26.0900868 9.44706281,26.1520868 9.67513281,26.1511868 L20.1973028,26.1599897 C22.5762028,26.1622868 24.7351028,24.7842868 25.7313028,22.6276868 C26.1097028,21.8214868 26.3043028,20.9405868 26.3012393,20.0485868 C26.3006028,19.8625868 26.3000028,19.6765868 26.2796028,19.5004868 C26.2153028,18.7944868 26.0268028,18.1048868 25.7227028,17.4635868 Z M23.7237028,12.6253868 L23.8480028,12.7494868 C24.0989028,13.0039868 24.1001028,13.4117868 23.8509028,13.6659868 L20.7607028,16.7637868 L20.7286028,16.7996868 L19.2094028,18.3262868 C18.9527028,18.5764868 18.5427028,18.5761868 18.2844028,18.3254868 L18.1600028,18.1901868 C17.9096028,17.9369868 17.9084028,17.5302868 18.1572028,17.2774868 L19.6837028,15.7471868 L19.7159028,15.7149868 L22.8061028,12.6170868 C22.9276028,12.4939868 23.0938028,12.4252868 23.2672028,12.426276 C23.4405028,12.4273868 23.6064028,12.4982868 23.7274028,12.6228868 L23.7237028,12.6253868 Z M13.3635028,12.4926868 C13.1083028,12.7430868 12.6990028,12.7427868 12.4422028,12.4918868 L12.3104028,12.3677868 C12.0552028,12.1116868 12.0539028,11.6982868 12.3075028,11.4425868 L13.8353028,9.9134868 L13.8674028,9.8775868 L16.9576028,6.7797668 C17.0785028,6.6560168 17.2443028,6.5863568 17.4177028,6.58650655 C17.5910028,6.5866468 17.7572028,6.6565868 17.8789028,6.7805468 L18.0033028,6.9046568 C18.1275028,7.0260668 18.1978028,7.1921868 18.1983067,7.3655468 C18.1989028,7.5389068 18.1296028,7.7049068 18.0062028,7.8260968 L14.9160028,10.9238868 L14.8801028,10.9598868 L13.3635028,12.4926868 Z M13.9723028,12.8936868 L15.3889028,11.4736868 L15.4247028,11.4377868 L18.4049028,8.4465168 L20.0616028,10.0947868 L22.2321028,12.2606868 L19.2507028,15.2506868 L19.2148028,15.2866868 L17.7983028,16.7066868 L13.9723028,12.8936868 Z" id="Shape" fill="#FFFFFF"></path>
            <polygon id="Path" fill="#FFFFFF" opacity="0.15" points="19.7308028 15.6774868 19.6957028 15.7109868 19.7283028 15.6749868"></polygon>
        </g>
    </g>
</svg>