<?xml version="1.0" encoding="UTF-8"?>
<svg width="203px" height="26px" viewBox="0 0 203 26" version="1.1" xmlns="http://www.w3.org/2000/svg" xmlns:xlink="http://www.w3.org/1999/xlink">
    <title>company-6</title>
    <g id="Page-1" stroke="none" stroke-width="1" fill="none" fill-rule="evenodd">
        <g id="company-6" transform="translate(0.000000, -0.000000)" fill-rule="nonzero">
            <path d="M35.3859,0.02795407 C32.9436,0.02795407 30.0185,0.02795407 27.5762,0.02795407 L27.5762,19.5522221 C30.0185,19.5522221 32.9436,19.5522221 35.3859,19.5522221 C42.3436,19.5522221 45.4107,14.5596221 45.3255,9.62276207 C45.2403,4.79746207 42.2017,0.02795407 35.3859,0.02795407 Z M31.2964,3.51444207 L35.3859,3.51444207 C39.7025,3.51444207 41.5201,6.55465207 41.6053,9.59486207 C41.6905,12.7745221 39.9013,16.0100221 35.3859,16.0100221 L31.2964,16.0100221 L31.2964,3.51444207 Z M58.8119,7.69822207 C58.0168,6.33152207 56.2276,5.46687207 54.3533,5.46687207 C50.2638,5.43898207 47.0548,7.92135207 47.0548,12.6630221 C47.0548,17.4882221 50.1218,19.9985221 54.2681,19.9706221 C55.83,19.9427221 58.0168,19.1618221 58.8119,17.5440221 L58.9823,19.5522221 L62.2482,19.5522221 L62.2482,5.80157207 L58.9255,5.80157207 L58.8119,7.69822207 Z M54.6657,8.50708207 C60.1183,8.50708207 60.1183,16.8467221 54.6657,16.8467221 C52.3654,16.8467221 50.5194,15.2848221 50.5194,12.6630221 C50.5194,10.0411221 52.3654,8.50708207 54.6657,8.50708207 Z M76.2582,7.22406207 C74.6395,5.82946207 72.9923,5.41108207 70.8056,5.41108207 C68.2497,5.41108207 64.8986,6.52676207 64.8986,9.70643207 C64.8986,12.8303221 68.0509,13.7786221 70.692,13.9739221 C72.68,14.0854221 73.4751,14.4759221 73.4751,15.4242221 C73.4751,16.4284221 72.254,17.0978221 70.9476,17.0699221 C69.3857,17.0420221 67.1137,16.2331221 66.1198,15.1453221 L64.4158,17.5719221 C66.4606,19.6638221 68.6757,20.0264221 70.8908,20.0264221 C74.8951,20.0264221 76.9114,17.9345221 76.9114,15.5079221 C76.9114,11.8541221 73.5603,11.2684221 70.9192,11.1010221 C69.1301,10.9894221 68.3065,10.4874221 68.3065,9.59486207 C68.3065,8.73022207 69.2153,8.22816207 70.8624,8.22816207 C72.1972,8.22816207 73.3331,8.53497207 74.3271,9.45541207 L76.2582,7.22406207 Z M79.1326,0.02795407 L79.1326,19.5522221 L82.5973,19.5522221 L82.5973,12.5235221 C82.5973,10.4595221 84.0172,8.75811207 86.0619,8.75811207 C87.9079,8.75811207 89.2426,9.81800207 89.2426,12.3282221 L89.2426,19.5522221 L92.7073,19.5522221 L92.7073,12.3004221 C92.7073,8.25605207 90.9466,5.60633207 86.9707,5.60633207 C85.3804,5.60633207 83.8468,6.08049207 82.5973,7.67033207 L82.5973,0.02795407 L79.1326,0.02795407 Z" id="Shape" fill="#196CF3"></path>
            <path d="M99.6383,3.51437207 L105.261,3.51437207 C110.032,3.51437207 110.061,10.4315221 105.261,10.4315221 L99.6383,10.4315221 L99.6383,3.51437207 Z M105.261,0 C102.137,0 99.0135,0.02789187 95.8896,0.02789187 L95.8896,19.5522221 L99.6383,19.5522221 L99.6383,13.8065221 L105.261,13.8065221 C115.002,13.8065221 114.974,0 105.261,0 Z M114.216,5.80151207 L114.216,19.5522221 L117.68,19.5522221 L117.68,12.3003221 C117.68,9.76215207 119.356,8.81383207 121.174,8.81383207 C122.31,8.81383207 122.963,9.12064207 123.673,9.70637207 L125.235,6.74983207 C124.468,5.99675207 123.076,5.43891207 121.628,5.43891207 C120.208,5.43891207 118.76,5.68994207 117.68,7.39134207 L117.425,5.80151207 L114.216,5.80151207 Z M133.118,5.52259207 C128.659,5.52259207 125.876,8.75805207 125.876,12.6908221 C125.876,16.6514221 128.602,19.8590221 133.146,19.8590221 C137.69,19.8590221 140.445,16.6514221 140.445,12.6908221 C140.445,8.75805207 137.576,5.52259207 133.118,5.52259207 Z M133.146,8.61859207 C135.475,8.61859207 136.952,10.6268221 136.952,12.6908221 C136.952,14.7827221 135.674,16.7351221 133.146,16.7351221 C130.619,16.7351221 129.341,14.7827221 129.341,12.6908221 C129.341,10.6268221 130.647,8.61859207 133.146,8.61859207 Z M150.589,16.5956221 C148.232,16.5956221 146.613,14.8385221 146.613,12.6908221 C146.613,10.5431221 148.09,8.78594207 150.589,8.78594207 C153.088,8.78594207 154.565,10.5431221 154.565,12.6908221 C154.565,14.8385221 152.946,16.5956221 150.589,16.5956221 Z M146.301,25.2979221 L146.301,17.9345221 C147.295,19.4406221 149.481,19.8869221 150.958,19.8869221 C155.445,19.8869221 158.03,16.7072221 158.03,12.6908221 C158.03,8.64648207 155.161,5.49470207 150.845,5.49470207 C149.254,5.49470207 147.38,6.16410207 146.301,7.69815207 L146.074,5.80151207 L142.836,5.80151207 L142.836,25.2979221 L146.301,25.2979221 Z M160.585,0.02789187 L160.585,19.5522221 L164.05,19.5522221 L164.05,12.5234221 C164.05,10.4594221 165.47,8.75805207 167.515,8.75805207 C169.361,8.75805207 170.696,9.81794207 170.696,12.3282221 L170.696,19.5522221 L174.16,19.5522221 L174.16,12.3003221 C174.16,8.25599207 172.399,5.60626207 168.424,5.60626207 C166.833,5.60626207 165.3,6.08043207 164.05,7.67026207 L164.05,0.02789187 L160.585,0.02789187 Z M190.974,13.8901221 C191.514,8.22810207 188.589,5.38313207 183.903,5.38313207 C179.359,5.38313207 176.462,8.39545207 176.462,12.5792221 C176.462,16.9861221 179.331,19.9148221 184.159,19.9148221 C186.289,19.9148221 188.702,19.1896221 190.179,17.6834221 L187.964,15.5358221 C187.169,16.3446221 185.493,16.8188221 184.215,16.8188221 C181.773,16.8188221 180.268,15.5915221 180.041,13.8901221 L190.974,13.8901221 Z M180.098,11.0731221 C180.609,9.28799207 182.142,8.39545207 184.017,8.39545207 C186.005,8.39545207 187.425,9.28799207 187.652,11.0731221 L180.098,11.0731221 Z M194.454,2.28713207 L194.454,5.82940207 L191.841,5.82940207 L191.841,8.75805207 L194.454,8.75805207 L194.454,14.6990221 C194.454,18.1297221 196.442,19.8311221 199.48,19.7195221 C200.531,19.6916221 201.355,19.5243221 202.349,19.1338221 L201.383,16.2330221 C200.872,16.4841221 200.247,16.6514221 199.708,16.6514221 C198.628,16.6514221 197.89,16.0099221 197.89,14.6990221 L197.89,8.75805207 L201.781,8.75805207 L201.781,5.82940207 L197.918,5.82940207 L197.918,1.92454207 L194.454,2.28713207 Z" id="Shape" fill="#09C722"></path>
            <path d="M16.1577,10.8959221 C18.5915,10.8959221 20.5645,8.95823207 20.5645,6.56792207 C20.5645,4.17760207 18.5915,2.23987207 16.1577,2.23987207 C13.7239,2.23987207 11.751,4.17760207 11.751,6.56792207 C11.751,8.95823207 13.7239,10.8959221 16.1577,10.8959221 Z" id="Path" fill="#196CF3"></path>
            <path d="M4.40674,10.8959221 C6.84052,10.8959221 8.81348,8.95823207 8.81348,6.56792207 C8.81348,4.17760207 6.84052,2.23987207 4.40674,2.23987207 C1.97297,2.23987207 0,4.17760207 0,6.56792207 C0,8.95823207 1.97297,10.8959221 4.40674,10.8959221 Z" id="Path" fill="#09C722"></path>
            <path d="M16.1577,22.4377221 C18.5915,22.4377221 20.5645,20.5000221 20.5645,18.1096221 C20.5645,15.7193221 18.5915,13.7816221 16.1577,13.7816221 C13.7239,13.7816221 11.751,15.7193221 11.751,18.1096221 C11.751,20.5000221 13.7239,22.4377221 16.1577,22.4377221 Z" id="Path" fill="#09C722"></path>
            <path d="M4.40674,22.4377221 C6.84052,22.4377221 8.81348,20.5000221 8.81348,18.1096221 C8.81348,15.7193221 6.84052,13.7816221 4.40674,13.7816221 C1.97297,13.7816221 0,15.7193221 0,18.1096221 C0,20.5000221 1.97297,22.4377221 4.40674,22.4377221 Z" id="Path" fill="#196CF3"></path>
        </g>
    </g>
</svg>