<?xml version="1.0" encoding="UTF-8"?>
<svg width="62px" height="33px" viewBox="0 0 62 33" version="1.1" xmlns="http://www.w3.org/2000/svg" xmlns:xlink="http://www.w3.org/1999/xlink">
    <title>company-12</title>
    <defs>
        <linearGradient x1="8.37816294%" y1="0.841692077%" x2="96.3106227%" y2="70.063194%" id="linearGradient-1">
            <stop stop-color="#D73233" offset="0%"></stop>
            <stop stop-color="#185C9D" offset="100%"></stop>
        </linearGradient>
    </defs>
    <g id="Page-1" stroke="none" stroke-width="1" fill="none" fill-rule="evenodd">
        <g id="company-12" transform="translate(0.720215, 0.732666)">
            <path d="M26.092085,8.23050624 C28.926385,3.05934624 34.539385,-0.312198761 40.817185,0.0229002386 C46.801385,0.342326239 51.839085,3.94703624 54.279085,8.99936624 L51.990785,8.99936624 C49.602585,4.61455624 45.068785,1.53393624 39.729485,1.24893624 C34.143585,0.950766239 29.120285,3.78967624 26.361285,8.23050624 L26.092085,8.23050624 Z M25.627485,22.5826562 L25.629085,22.5826562 C27.919285,27.2867562 32.620485,30.6396562 38.201885,30.9375562 C40.035685,31.0354562 41.808885,30.7952562 43.461185,30.2712562 L46.778785,30.2712562 C44.485085,31.3566562 41.896685,31.9038562 39.184185,31.7590562 C33.121285,31.4354562 28.029985,27.7395562 25.627485,22.5826562 Z" id="Shape" fill="url(#linearGradient-1)"></path>
            <path d="M3.197335,11.9947562 L7.964125,19.2735562 L7.964125,11.9273562 C7.964125,11.4500562 8.065695,11.0919562 8.268835,10.8532562 C8.471975,10.6145562 8.746065,10.4952562 9.091125,10.4952562 C9.447285,10.4952562 9.728385,10.6145562 9.934285,10.8532562 C10.140185,11.0919562 10.243185,11.4500562 10.243185,11.9273562 L10.243185,21.6408562 C10.243185,22.7247562 9.797985,23.2667562 8.907465,23.2667562 C8.684845,23.2667562 8.484495,23.2344562 8.306405,23.1698562 C8.128305,23.1052562 7.961345,23.0027562 7.805515,22.8623562 C7.649675,22.7219562 7.504975,22.5576562 7.371405,22.3695562 C7.237835,22.1813562 7.104265,21.9890562 6.970695,21.7924562 L2.320785,14.5979562 L2.320785,21.8345562 C2.320785,22.3063562 2.212255,22.6629562 1.995205,22.9044562 C1.778155,23.1459562 1.499885,23.2667562 1.160395,23.2667562 C0.809765,23.2667562 0.528715,23.1445562 0.317225,22.9002562 C0.105742,22.6559562 0,22.3007562 0,21.8345562 L0,12.3064562 C0,11.9021562 0.044523,11.5848562 0.13357,11.3545562 C0.239314,11.1017562 0.414625,10.8953562 0.659505,10.7353562 C0.904385,10.5752562 1.168735,10.4952562 1.452575,10.4952562 C1.675195,10.4952562 1.865805,10.5317562 2.024425,10.6047562 C2.183035,10.6777562 2.322175,10.7760562 2.441835,10.8996562 C2.561485,11.0231562 2.683925,11.1832562 2.809145,11.3798562 C2.934375,11.5763562 3.063765,11.7813562 3.197335,11.9947562 Z M12.972985,17.9509562 L12.972985,12.0116562 C12.972985,11.5061562 13.085685,11.1270562 13.311085,10.8743562 C13.536485,10.6215562 13.832885,10.4952562 14.200185,10.4952562 C14.584185,10.4952562 14.888885,10.6215562 15.114285,10.8743562 C15.339685,11.1270562 15.452385,11.5061562 15.452385,12.0116562 L15.452385,18.0856562 C15.452385,18.7765562 15.528885,19.3535562 15.681985,19.8169562 C15.834985,20.2802562 16.106385,20.6397562 16.495885,20.8952562 C16.885485,21.1507562 17.430885,21.2785562 18.132185,21.2785562 C19.100585,21.2785562 19.785085,21.0188562 20.185785,20.4993562 C20.586485,19.9797562 20.786885,19.1921562 20.786885,18.1362562 L20.786885,12.0116562 C20.786885,11.5005562 20.898185,11.1200562 21.120785,10.8701562 C21.343385,10.6201562 21.641185,10.4952562 22.014085,10.4952562 C22.386885,10.4952562 22.688885,10.6201562 22.919785,10.8701562 C23.150785,11.1200562 23.266285,11.5005562 23.266285,12.0116562 L23.266285,17.9509562 C23.266285,18.9169562 23.173085,19.7228562 22.986585,20.3687562 C22.800185,21.0146562 22.448185,21.5818562 21.930585,22.0704562 C21.485285,22.4860562 20.967785,22.7893562 20.377785,22.9803562 C19.787885,23.1712562 19.097785,23.2667562 18.307485,23.2667562 C17.366885,23.2667562 16.557185,23.1642562 15.878185,22.9592562 C15.199185,22.7542562 14.645385,22.4369562 14.216885,22.0072562 C13.788385,21.5776562 13.473885,21.0272562 13.273585,20.3560562 C13.073185,19.6849562 12.972985,18.8832562 12.972985,17.9509562 Z M30.078385,21.1943562 L28.116585,13.3258562 L28.116585,21.8514562 C28.116585,22.3232562 28.012185,22.6770562 27.803485,22.9129562 C27.594785,23.1488562 27.317885,23.2667562 26.972885,23.2667562 C26.638885,23.2667562 26.366185,23.1502562 26.154685,22.9171562 C25.943285,22.6840562 25.837485,22.3288562 25.837485,21.8514562 L25.837485,12.0790562 C25.837485,11.5398562 25.976585,11.1762562 26.254885,10.9880562 C26.533185,10.7999562 26.908885,10.7058562 27.381885,10.7058562 L28.149885,10.7058562 C28.611885,10.7058562 28.947185,10.7479562 29.155885,10.8322562 C29.364585,10.9164562 29.518985,11.0680562 29.619185,11.2871562 C29.719385,11.5061562 29.833485,11.8628562 29.961485,12.3570562 L31.739685,19.1219562 L33.517785,12.3570562 C33.645785,11.8628562 33.759885,11.5061562 33.860085,11.2871562 C33.960285,11.0680562 34.114685,10.9164562 34.323385,10.8322562 C34.532085,10.7479562 34.867385,10.7058562 35.329285,10.7058562 L36.097385,10.7058562 C36.570385,10.7058562 36.946085,10.7999562 37.224385,10.9880562 C37.502685,11.1762562 37.641785,11.5398562 37.641785,12.0790562 L37.641785,21.8514562 C37.641785,22.3232562 37.537385,22.6770562 37.328685,22.9129562 C37.119985,23.1488562 36.840385,23.2667562 36.489685,23.2667562 C36.161385,23.2667562 35.891485,23.1488562 35.679985,22.9129562 C35.468485,22.6770562 35.362685,22.3232562 35.362685,21.8514562 L35.362685,13.3258562 L33.400885,21.1943562 C33.272885,21.7054562 33.168585,22.0802562 33.087885,22.3189562 C33.007185,22.5576562 32.858285,22.7753562 32.641285,22.9718562 C32.424185,23.1684562 32.123685,23.2667562 31.739685,23.2667562 C31.450185,23.2667562 31.205385,23.2035562 31.004985,23.0771562 C30.804685,22.9508562 30.648785,22.7893562 30.537485,22.5927562 C30.426185,22.3962562 30.338585,22.1785562 30.274585,21.9398562 C30.210485,21.7011562 30.145185,21.4526562 30.078385,21.1943562 Z M48.018485,21.6576562 L47.434185,20.1075562 L42.458685,20.1075562 L41.874285,21.6913562 C41.646085,22.3091562 41.451285,22.7261562 41.289885,22.9424562 C41.128485,23.1586562 40.864185,23.2667562 40.496785,23.2667562 C40.185185,23.2667562 39.909685,23.1516562 39.670385,22.9213562 C39.431085,22.6910562 39.311385,22.4299562 39.311385,22.1378562 C39.311385,21.9693562 39.339185,21.7952562 39.394885,21.6155562 C39.450485,21.4358562 39.542385,21.1859562 39.670385,20.8657562 L42.800885,12.8456562 C42.889985,12.6153562 42.997085,12.3387562 43.122285,12.0158562 C43.247585,11.6929562 43.381085,11.4247562 43.523085,11.2113562 C43.664985,10.9978562 43.851385,10.8251562 44.082385,10.6932562 C44.313285,10.5612562 44.598585,10.4952562 44.938085,10.4952562 C45.283085,10.4952562 45.571085,10.5612562 45.802085,10.6932562 C46.033085,10.8251562 46.219485,10.9950562 46.361385,11.2028562 C46.503285,11.4106562 46.622985,11.6339562 46.720385,11.8726562 C46.817785,12.1113562 46.941585,12.4300562 47.091885,12.8288562 L50.289185,20.7983562 C50.539685,21.4049562 50.664885,21.8458562 50.664885,22.1210562 C50.664885,22.4074562 50.546585,22.6700562 50.310085,22.9087562 C50.073585,23.1474562 49.788285,23.2667562 49.454385,23.2667562 C49.259585,23.2667562 49.092685,23.2316562 48.953485,23.1614562 C48.814385,23.0912562 48.697485,22.9957562 48.602885,22.8750562 C48.508285,22.7542562 48.406685,22.5689562 48.298185,22.3189562 C48.189685,22.0690562 48.096385,21.8486562 48.018485,21.6576562 Z M43.109785,18.2289562 L46.766285,18.2289562 L44.921385,13.1320562 L43.109785,18.2289562 Z M52.033985,20.6551562 L54.772185,16.6198562 L52.468085,13.0310562 C52.250985,12.6827562 52.088185,12.3837562 51.979685,12.1337562 C51.871185,11.8838562 51.816885,11.6437562 51.816885,11.4135562 C51.816885,11.1776562 51.921285,10.9656562 52.129985,10.7774562 C52.338685,10.5893562 52.593285,10.4952562 52.893785,10.4952562 C53.238885,10.4952562 53.507385,10.5977562 53.699385,10.8027562 C53.891385,11.0077562 54.157185,11.3882562 54.496685,11.9442562 L56.333285,14.9433562 L58.295085,11.9442562 C58.456485,11.6915562 58.594185,11.4752562 58.708285,11.2955562 C58.822385,11.1158562 58.932285,10.9670562 59.038085,10.8490562 C59.143785,10.7311562 59.262085,10.6426562 59.392885,10.5836562 C59.523685,10.5247562 59.675285,10.4952562 59.847785,10.4952562 C60.159485,10.4952562 60.414085,10.5893562 60.611685,10.7774562 C60.809285,10.9656562 60.908085,11.1888562 60.908085,11.4471562 C60.908085,11.8234562 60.693785,12.3345562 60.265285,12.9804562 L57.852585,16.6198562 L60.448885,20.6551562 C60.682685,21.0089562 60.852385,21.3024562 60.958085,21.5355562 C61.063885,21.7685562 61.116785,21.9890562 61.116785,22.1968562 C61.116785,22.3934562 61.069485,22.5731562 60.974785,22.7360562 C60.880185,22.8988562 60.746685,23.0280562 60.574085,23.1235562 C60.401585,23.2190562 60.206785,23.2667562 59.989785,23.2667562 C59.755985,23.2667562 59.558385,23.2176562 59.396985,23.1193562 C59.235585,23.0210562 59.104885,22.8988562 59.004685,22.7528562 C58.904485,22.6068562 58.718085,22.3232562 58.445385,21.9019562 L56.291485,18.4816562 L54.004085,22.0030562 C53.825985,22.2838562 53.699385,22.4804562 53.624285,22.5927562 C53.549185,22.7051562 53.458685,22.8146562 53.352985,22.9213562 C53.247185,23.0280562 53.121985,23.1122562 52.977285,23.1740562 C52.832585,23.2358562 52.662885,23.2667562 52.468085,23.2667562 C52.167485,23.2667562 51.918485,23.1740562 51.720885,22.9887562 C51.523385,22.8034562 51.424585,22.5338562 51.424585,22.1799562 C51.424585,21.7643562 51.627685,21.2561562 52.033985,20.6551562 Z" id="Shape" fill="#FFFFFF"></path>
            <path d="M39.719885,27.7427562 C39.719885,27.8500562 39.693885,27.9662562 39.641885,28.0912562 C39.589985,28.2162562 39.508285,28.3389562 39.396785,28.4593562 C39.285385,28.5797562 39.143085,28.6775562 38.969885,28.7527562 C38.796785,28.8278562 38.594985,28.8654562 38.364585,28.8654562 C38.189885,28.8654562 38.030985,28.8485562 37.887985,28.8148562 C37.744885,28.7810562 37.614985,28.7285562 37.498285,28.6572562 C37.381585,28.5859562 37.274285,28.4919562 37.176385,28.3754562 C37.089085,28.2695562 37.014585,28.1510562 36.952785,28.0199562 C36.891085,27.8888562 36.844785,27.7488562 36.813885,27.6000562 C36.782985,27.4513562 36.767585,27.2933562 36.767585,27.1261562 C36.767585,26.8546562 36.806385,26.6115562 36.883885,26.3968562 C36.961485,26.1821562 37.072485,25.9984562 37.217085,25.8458562 C37.361685,25.6932562 37.531085,25.5770562 37.725285,25.4973562 C37.919585,25.4175562 38.126585,25.3776562 38.346485,25.3776562 C38.614485,25.3776562 38.853185,25.4321562 39.062485,25.5410562 C39.271885,25.6499562 39.432185,25.7845562 39.543685,25.9447562 C39.655085,26.1050562 39.710785,26.2565562 39.710785,26.3991562 C39.710785,26.4773562 39.683685,26.5464562 39.629485,26.6062562 C39.575285,26.6660562 39.509785,26.6959562 39.432985,26.6959562 C39.347085,26.6959562 39.282785,26.6752562 39.239885,26.6338562 C39.196885,26.5924562 39.149085,26.5210562 39.096385,26.4198562 C39.009085,26.2526562 38.906285,26.1276562 38.788085,26.0448562 C38.669885,25.9620562 38.524185,25.9206562 38.350985,25.9206562 C38.075385,25.9206562 37.855985,26.0272562 37.692585,26.2404562 C37.529185,26.4536562 37.447485,26.7565562 37.447485,27.1491562 C37.447485,27.4114562 37.483585,27.6296562 37.555885,27.8036562 C37.628185,27.9777562 37.730585,28.1077562 37.863085,28.1936562 C37.995585,28.2795562 38.150685,28.3224562 38.328385,28.3224562 C38.521185,28.3224562 38.684185,28.2737562 38.817485,28.1764562 C38.950685,28.0790562 39.051185,27.9359562 39.118985,27.7473562 C39.147585,27.6583562 39.182985,27.5859562 39.225185,27.5299562 C39.267285,27.4739562 39.335085,27.4459562 39.428485,27.4459562 C39.508285,27.4459562 39.576785,27.4743562 39.633985,27.5310562 C39.691185,27.5878562 39.719885,27.6583562 39.719885,27.7427562 Z M40.485585,28.4835562 L40.485585,25.7595562 C40.485585,25.6338562 40.513085,25.5387562 40.568085,25.4743562 C40.622985,25.4098562 40.697185,25.3776562 40.790585,25.3776562 C40.883885,25.3776562 40.959185,25.4095562 41.016485,25.4731562 C41.073685,25.5368562 41.102285,25.6322562 41.102285,25.7595562 L41.102285,28.4835562 C41.102285,28.6108562 41.073285,28.7063562 41.015285,28.7699562 C40.957285,28.8336562 40.882385,28.8654562 40.790585,28.8654562 C40.700185,28.8654562 40.626785,28.8324562 40.570285,28.7665562 C40.513885,28.7005562 40.485585,28.6062562 40.485585,28.4835562 Z M44.253385,27.5885562 C44.253385,27.7757562 44.224785,27.9482562 44.167485,28.1062562 C44.110285,28.2642562 44.027485,28.3999562 43.919085,28.5134562 C43.810585,28.6269562 43.681085,28.7139562 43.530585,28.7745562 C43.379985,28.8351562 43.210585,28.8654562 43.022285,28.8654562 C42.835585,28.8654562 42.667685,28.8347562 42.518585,28.7734562 C42.369485,28.7120562 42.240385,28.6242562 42.131185,28.5099562 C42.021985,28.3957562 41.939185,28.2607562 41.882785,28.1050562 C41.826285,27.9494562 41.798085,27.7772562 41.798085,27.5885562 C41.798085,27.3984562 41.826685,27.2243562 41.883885,27.0663562 C41.941085,26.9083562 42.023185,26.7733562 42.130085,26.6614562 C42.236985,26.5494562 42.366485,26.4631562 42.518585,26.4026562 C42.670685,26.3420562 42.838585,26.3117562 43.022285,26.3117562 C43.209085,26.3117562 43.378485,26.3424562 43.530585,26.4037562 C43.682685,26.4651562 43.812885,26.5525562 43.921285,26.6660562 C44.029785,26.7795562 44.112185,26.9145562 44.168685,27.0709562 C44.225085,27.2273562 44.253385,27.3999562 44.253385,27.5885562 Z M43.634485,27.5885562 C43.634485,27.3324562 43.579085,27.1330562 43.468385,26.9904562 C43.357785,26.8477562 43.209085,26.7764562 43.022285,26.7764562 C42.901885,26.7764562 42.795685,26.8082562 42.703785,26.8719562 C42.611985,26.9355562 42.541185,27.0295562 42.491485,27.1537562 C42.441785,27.2780562 42.416985,27.4229562 42.416985,27.5885562 C42.416985,27.7527562 42.441385,27.8961562 42.490385,28.0188562 C42.539285,28.1415562 42.609285,28.2354562 42.700385,28.3006562 C42.791485,28.3658562 42.898785,28.3984562 43.022285,28.3984562 C43.209085,28.3984562 43.357785,28.3267562 43.468385,28.1833562 C43.579085,28.0398562 43.634485,27.8416562 43.634485,27.5885562 Z M46.546085,28.5111562 L46.546085,28.4306562 C46.472285,28.5257562 46.394785,28.6054562 46.313485,28.6698562 C46.232085,28.7343562 46.143285,28.7822562 46.046885,28.8136562 C45.950485,28.8451562 45.840585,28.8608562 45.717085,28.8608562 C45.567985,28.8608562 45.434385,28.8293562 45.316185,28.7665562 C45.197985,28.7036562 45.106485,28.6169562 45.041685,28.5065562 C44.964885,28.3731562 44.926485,28.1813562 44.926485,27.9313562 L44.926485,26.6867562 C44.926485,26.5609562 44.954385,26.4670562 45.010085,26.4049562 C45.065785,26.3427562 45.139585,26.3117562 45.231485,26.3117562 C45.324885,26.3117562 45.400085,26.3431562 45.457385,26.4060562 C45.514585,26.4689562 45.543185,26.5625562 45.543185,26.6867562 L45.543185,27.6921562 C45.543185,27.8378562 45.555285,27.9601562 45.579285,28.0590562 C45.603385,28.1579562 45.646685,28.2354562 45.709185,28.2914562 C45.771685,28.3474562 45.856385,28.3754562 45.963285,28.3754562 C46.067185,28.3754562 46.165085,28.3439562 46.256985,28.2810562 C46.348785,28.2181562 46.415885,28.1361562 46.457985,28.0349562 C46.492685,27.9459562 46.509985,27.7511562 46.509985,27.4505562 L46.509985,26.6867562 C46.509985,26.5625562 46.538585,26.4689562 46.595785,26.4060562 C46.652985,26.3431562 46.727585,26.3117562 46.819385,26.3117562 C46.911285,26.3117562 46.985085,26.3427562 47.040785,26.4049562 C47.096485,26.4670562 47.124385,26.5609562 47.124385,26.6867562 L47.124385,28.5065562 C47.124385,28.6261562 47.097585,28.7159562 47.044185,28.7757562 C46.990685,28.8355562 46.921785,28.8654562 46.837485,28.8654562 C46.753185,28.8654562 46.683485,28.8343562 46.628585,28.7722562 C46.573585,28.7101562 46.546085,28.6231562 46.546085,28.5111562 Z M49.633885,28.5065562 L49.633885,28.4444562 C49.551085,28.5410562 49.469385,28.6196562 49.388885,28.6802562 C49.308285,28.7408562 49.220985,28.7868562 49.126785,28.8182562 C49.032685,28.8497562 48.929985,28.8654562 48.818485,28.8654562 C48.670885,28.8654562 48.534285,28.8336562 48.408485,28.7699562 C48.282785,28.7063562 48.173985,28.6154562 48.082185,28.4973562 C47.990285,28.3792562 47.920585,28.2404562 47.873185,28.0809562 C47.825785,27.9214562 47.802085,27.7488562 47.802085,27.5632562 C47.802085,27.1706562 47.896185,26.8646562 48.084385,26.6453562 C48.272585,26.4260562 48.520385,26.3163562 48.827585,26.3163562 C49.005285,26.3163562 49.155085,26.3473562 49.277085,26.4095562 C49.398985,26.4716562 49.517985,26.5671562 49.633885,26.6959562 L49.633885,25.7687562 C49.633885,25.6399562 49.659185,25.5425562 49.709585,25.4766562 C49.760085,25.4106562 49.831985,25.3776562 49.925285,25.3776562 C50.018685,25.3776562 50.090585,25.4079562 50.140985,25.4685562 C50.191485,25.5291562 50.216685,25.6184562 50.216685,25.7365562 L50.216685,28.5065562 C50.216685,28.6261562 50.189585,28.7159562 50.135385,28.7757562 C50.081185,28.8355562 50.011185,28.8654562 49.925285,28.8654562 C49.840985,28.8654562 49.771385,28.8343562 49.716385,28.7722562 C49.661385,28.7101562 49.633885,28.6215562 49.633885,28.5065562 Z M48.420985,27.5839562 C48.420985,27.7542562 48.446885,27.8991562 48.498885,28.0188562 C48.550885,28.1384562 48.621985,28.2285562 48.712385,28.2891562 C48.802685,28.3497562 48.901285,28.3800562 49.008285,28.3800562 C49.116685,28.3800562 49.215685,28.3512562 49.305285,28.2937562 C49.394885,28.2362562 49.466385,28.1480562 49.519885,28.0291562 C49.573285,27.9102562 49.600085,27.7619562 49.600085,27.5839562 C49.600085,27.4168562 49.573285,27.2730562 49.519885,27.1526562 C49.466385,27.0322562 49.394085,26.9401562 49.302985,26.8765562 C49.211885,26.8128562 49.112185,26.7810562 49.003685,26.7810562 C48.890785,26.7810562 48.789885,26.8136562 48.701085,26.8788562 C48.612185,26.9440562 48.543285,27.0375562 48.494385,27.1595562 C48.445385,27.2814562 48.420985,27.4229562 48.420985,27.5839562 Z M51.075085,26.3669562 L51.142885,26.3669562 L51.142885,25.9896562 C51.142885,25.8884562 51.145485,25.8090562 51.150785,25.7515562 C51.156085,25.6940562 51.170685,25.6445562 51.194785,25.6031562 C51.218885,25.5601562 51.253585,25.5253562 51.298685,25.4984562 C51.343885,25.4716562 51.394385,25.4582562 51.450085,25.4582562 C51.528385,25.4582562 51.599185,25.4881562 51.662385,25.5479562 C51.704585,25.5878562 51.731285,25.6365562 51.742585,25.6940562 C51.753885,25.7515562 51.759485,25.8332562 51.759485,25.9390562 L51.759485,26.3669562 L51.985385,26.3669562 C52.072785,26.3669562 52.139385,26.3880562 52.185285,26.4302562 C52.231185,26.4723562 52.254185,26.5264562 52.254185,26.5924562 C52.254185,26.6767562 52.221485,26.7358562 52.155985,26.7695562 C52.090385,26.8033562 51.996685,26.8201562 51.874685,26.8201562 L51.759485,26.8201562 L51.759485,27.9750562 C51.759485,28.0732562 51.762885,28.1487562 51.769685,28.2017562 C51.776485,28.2546562 51.794485,28.2975562 51.823885,28.3305562 C51.853285,28.3635562 51.901085,28.3800562 51.967285,28.3800562 C52.003485,28.3800562 52.052385,28.3734562 52.114185,28.3604562 C52.175885,28.3474562 52.224085,28.3408562 52.258685,28.3408562 C52.308385,28.3408562 52.353185,28.3612562 52.393085,28.4018562 C52.432985,28.4425562 52.452985,28.4927562 52.452985,28.5525562 C52.452985,28.6537562 52.398785,28.7312562 52.290385,28.7849562 C52.181885,28.8386562 52.026085,28.8654562 51.822785,28.8654562 C51.629985,28.8654562 51.483985,28.8324562 51.384585,28.7665562 C51.285185,28.7005562 51.220085,28.6093562 51.189185,28.4927562 C51.158285,28.3761562 51.142885,28.2204562 51.142885,28.0257562 L51.142885,26.8201562 L51.061585,26.8201562 C50.972685,26.8201562 50.904985,26.7987562 50.858285,26.7557562 C50.811585,26.7128562 50.788185,26.6583562 50.788185,26.5924562 C50.788185,26.5264562 50.812685,26.4723562 50.861685,26.4302562 C50.910585,26.3880562 50.981785,26.3669562 51.075085,26.3669562 Z M54.605685,27.7427562 L53.399485,27.7427562 C53.400985,27.8853562 53.429185,28.0111562 53.484185,28.1200562 C53.539085,28.2289562 53.612185,28.3109562 53.703285,28.3662562 C53.794385,28.4214562 53.894885,28.4490562 54.004785,28.4490562 C54.078585,28.4490562 54.145985,28.4402562 54.206985,28.4225562 C54.267985,28.4049562 54.327085,28.3773562 54.384285,28.3397562 C54.441485,28.3021562 54.494185,28.2619562 54.542385,28.2189562 C54.590585,28.1760562 54.653085,28.1177562 54.729885,28.0441562 C54.761485,28.0165562 54.806685,28.0027562 54.865385,28.0027562 C54.928685,28.0027562 54.979885,28.0203562 55.018985,28.0556562 C55.058185,28.0908562 55.077785,28.1407562 55.077785,28.2051562 C55.077785,28.2619562 55.055885,28.3282562 55.012285,28.4041562 C54.968585,28.4800562 54.902685,28.5529562 54.814585,28.6227562 C54.726485,28.6925562 54.615785,28.7504562 54.482585,28.7964562 C54.349285,28.8424562 54.196085,28.8654562 54.022885,28.8654562 C53.626885,28.8654562 53.318885,28.7504562 53.099085,28.5203562 C52.879185,28.2902562 52.769285,27.9781562 52.769285,27.5839562 C52.769285,27.3984562 52.796385,27.2262562 52.850585,27.0674562 C52.904785,26.9087562 52.983885,26.7726562 53.087785,26.6591562 C53.191685,26.5456562 53.319685,26.4585562 53.471785,26.3980562 C53.623885,26.3374562 53.792485,26.3071562 53.977685,26.3071562 C54.218685,26.3071562 54.425385,26.3588562 54.597785,26.4624562 C54.770185,26.5659562 54.899285,26.6997562 54.985185,26.8638562 C55.070985,27.0280562 55.113885,27.1951562 55.113885,27.3654562 C55.113885,27.5234562 55.069485,27.6257562 54.980585,27.6725562 C54.891785,27.7193562 54.766785,27.7427562 54.605685,27.7427562 Z M53.399485,27.3861562 L54.517585,27.3861562 C54.502485,27.1714562 54.445685,27.0107562 54.346985,26.9041562 C54.248385,26.7975562 54.118485,26.7442562 53.957385,26.7442562 C53.803785,26.7442562 53.677685,26.7983562 53.579085,26.9064562 C53.480385,27.0145562 53.420585,27.1744562 53.399485,27.3861562 Z M58.050385,28.0878562 C58.050385,28.1660562 58.027385,28.2496562 57.981485,28.3385562 C57.935585,28.4275562 57.865585,28.5122562 57.771385,28.5928562 C57.677285,28.6733562 57.558685,28.7381562 57.415685,28.7872562 C57.272585,28.8363562 57.111485,28.8608562 56.932285,28.8608562 C56.551285,28.8608562 56.253885,28.7477562 56.040085,28.5214562 C55.826185,28.2952562 55.719285,27.9919562 55.719285,27.6115562 C55.719285,27.3539562 55.768285,27.1261562 55.866085,26.9283562 C55.963985,26.7304562 56.105585,26.5774562 56.290785,26.4693562 C56.475985,26.3612562 56.697385,26.3071562 56.954885,26.3071562 C57.114485,26.3071562 57.260985,26.3309562 57.394185,26.3784562 C57.527485,26.4260562 57.640385,26.4873562 57.732985,26.5625562 C57.825685,26.6376562 57.896385,26.7177562 57.945385,26.8029562 C57.994285,26.8880562 58.018785,26.9674562 58.018785,27.0410562 C58.018785,27.1161562 57.991285,27.1798562 57.936285,27.2319562 C57.881385,27.2841562 57.814685,27.3102562 57.736385,27.3102562 C57.685185,27.3102562 57.642685,27.2967562 57.608785,27.2699562 C57.574885,27.2431562 57.536885,27.1997562 57.494685,27.1399562 C57.419485,27.0233562 57.340785,26.9359562 57.258685,26.8776562 C57.176585,26.8194562 57.072285,26.7902562 56.945785,26.7902562 C56.763585,26.7902562 56.616785,26.8627562 56.505385,27.0076562 C56.393985,27.1526562 56.338185,27.3508562 56.338185,27.6023562 C56.338185,27.7204562 56.352485,27.8290562 56.381185,27.9279562 C56.409785,28.0268562 56.451185,28.1112562 56.505385,28.1810562 C56.559585,28.2507562 56.625085,28.3037562 56.701885,28.3397562 C56.778685,28.3757562 56.862985,28.3938562 56.954885,28.3938562 C57.078385,28.3938562 57.184185,28.3646562 57.272185,28.3063562 C57.360285,28.2481562 57.438285,28.1591562 57.505985,28.0395562 C57.543685,27.9689562 57.584285,27.9137562 57.627985,27.8738562 C57.671685,27.8339562 57.725085,27.8140562 57.788385,27.8140562 C57.863685,27.8140562 57.926185,27.8431562 57.975885,27.9014562 C58.025585,27.9597562 58.050385,28.0218562 58.050385,28.0878562 Z M59.396685,25.7595562 L59.396685,26.6913562 C59.474985,26.5993562 59.551385,26.5264562 59.625985,26.4727562 C59.700485,26.4190562 59.782985,26.3788562 59.873285,26.3519562 C59.963685,26.3251562 60.060785,26.3117562 60.164685,26.3117562 C60.321285,26.3117562 60.460185,26.3454562 60.581485,26.4129562 C60.702685,26.4804562 60.797885,26.5786562 60.867185,26.7074562 C60.910885,26.7826562 60.940185,26.8665562 60.955285,26.9593562 C60.970285,27.0521562 60.977885,27.1591562 60.977885,27.2803562 L60.977885,28.4835562 C60.977885,28.6093562 60.949585,28.7043562 60.893185,28.7688562 C60.836685,28.8332562 60.761785,28.8654562 60.668385,28.8654562 C60.465085,28.8654562 60.363485,28.7381562 60.363485,28.4835562 L60.363485,27.4229562 C60.363485,27.2220562 60.334085,27.0674562 60.275385,26.9593562 C60.216685,26.8512562 60.105185,26.7971562 59.941085,26.7971562 C59.831185,26.7971562 59.732085,26.8289562 59.643985,26.8926562 C59.555985,26.9562562 59.490085,27.0433562 59.446385,27.1537562 C59.413285,27.2473562 59.396685,27.4137562 59.396685,27.6530562 L59.396685,28.4835562 C59.396685,28.6077562 59.369185,28.7024562 59.314285,28.7676562 C59.259285,28.8328562 59.182885,28.8654562 59.084985,28.8654562 C58.881685,28.8654562 58.779985,28.7381562 58.779985,28.4835562 L58.779985,25.7595562 C58.779985,25.6322562 58.806785,25.5368562 58.860185,25.4731562 C58.913685,25.4095562 58.988585,25.3776562 59.084985,25.3776562 C59.182885,25.3776562 59.259285,25.4098562 59.314285,25.4743562 C59.369185,25.5387562 59.396685,25.6338562 59.396685,25.7595562 Z" id="Shape" fill="#FFFFFF"></path>
        </g>
    </g>
</svg>