<?xml version="1.0" encoding="UTF-8"?>
<svg width="130px" height="31px" viewBox="0 0 130 31" version="1.1" xmlns="http://www.w3.org/2000/svg" xmlns:xlink="http://www.w3.org/1999/xlink">
    <title>company-3</title>
    <g id="Page-1" stroke="none" stroke-width="1" fill="none" fill-rule="evenodd">
        <g id="company-3" transform="translate(0.915531, 0.708750)" fill-rule="nonzero">
            <path d="M2.720439,8.338632 C3.258539,7.405492 4.055729,6.631192 5.112019,6.015732 C6.188239,5.380392 7.433849,5.062742 8.848879,5.062742 C10.303769,5.062742 11.619169,5.410172 12.794969,6.105072 C13.990769,6.799972 14.927569,7.782742 15.605169,9.053382 C16.282769,10.304172 16.621569,11.763472 16.621569,13.431172 C16.621569,15.079072 16.282769,16.548172 15.605169,17.838772 C14.927569,19.129272 13.990769,20.131872 12.794969,20.846572 C11.619169,21.561372 10.303769,21.918672 8.848899,21.918672 C7.453809,21.918672 6.218149,21.610972 5.141929,20.995472 C4.085629,20.360172 3.278479,19.575972 2.720439,18.642772 L2.720449,29.393672 L0,29.393672 L0,5.330772 L2.720429,5.330772 L2.720439,8.338632 Z M13.841369,13.431172 C13.841369,12.200172 13.592169,11.128072 13.093969,10.214872 C12.595769,9.301572 11.918069,8.606672 11.061069,8.130172 C10.224069,7.653682 9.297269,7.415432 8.280879,7.415432 C7.284369,7.415432 6.357629,7.663612 5.500659,8.159952 C4.663599,8.636442 3.985999,9.341272 3.467809,10.274372 C2.969559,11.187672 2.720439,12.249872 2.720439,13.460972 C2.720439,14.691872 2.969569,15.773872 3.467819,16.707072 C3.986009,17.620372 4.663609,18.325172 5.500669,18.821472 C6.357639,19.297972 7.284379,19.536272 8.280889,19.536272 C9.297269,19.536272 10.224069,19.297972 11.061069,18.821472 C11.918069,18.325172 12.595769,17.620372 13.093969,16.707072 C13.592169,15.773872 13.841369,14.681972 13.841369,13.431172 Z M35.149869,12.865372 C35.149869,13.381572 35.119969,13.927472 35.060169,14.503272 L21.966169,14.503272 C22.065869,16.111472 22.613869,17.372172 23.610469,18.285472 C24.626869,19.178872 25.852569,19.625572 27.287469,19.625572 C28.463369,19.625572 29.439969,19.357572 30.217169,18.821472 C31.014369,18.265572 31.572469,17.530972 31.891269,16.617772 L34.820969,16.617772 C34.382569,18.186172 33.505669,19.466772 32.190269,20.459472 C30.874869,21.432272 29.240669,21.918672 27.287469,21.918672 C25.732969,21.918672 24.337869,21.571272 23.102169,20.876372 C21.886469,20.181472 20.929869,19.198672 20.232269,17.928072 C19.534769,16.637572 19.185969,15.148472 19.185969,13.460972 C19.185969,11.773372 19.524769,10.294272 20.202369,9.023602 C20.879969,7.752962 21.826669,6.780102 23.042369,6.105082 C24.278069,5.410182 25.693069,5.062752 27.287469,5.062752 C28.841969,5.062752 30.217169,5.400282 31.412969,6.075302 C32.608769,6.750322 33.525569,7.683472 34.163269,8.874702 C34.820969,10.046072 35.149869,11.376272 35.149869,12.865372 Z M32.339769,12.299472 C32.339769,11.267072 32.110569,10.383572 31.652169,9.648972 C31.193769,8.894542 30.565969,8.328712 29.768769,7.951492 C28.991469,7.554402 28.124569,7.355872 27.167869,7.355872 C25.792769,7.355872 24.616869,7.792652 23.640269,8.666232 C22.683669,9.539772 22.135569,10.750872 21.996069,12.299472 L32.339769,12.299472 Z M24.746369,3.126992 C24.307969,3.126992 23.929269,2.978092 23.610369,2.680282 C23.311469,2.382472 23.161969,2.015172 23.161969,1.578382 C23.161969,1.141602 23.311469,0.774302 23.610369,0.476492 C23.929269,0.158831 24.307969,0 24.746369,0 C25.164969,0 25.523669,0.158831 25.822669,0.476492 C26.141469,0.774302 26.300969,1.141602 26.300969,1.578392 C26.300969,2.015172 26.141469,2.382472 25.822669,2.680282 C25.523669,2.978092 25.164969,3.126992 24.746369,3.126992 Z M29.589369,3.126992 C29.150969,3.126992 28.782269,2.978092 28.483269,2.680282 C28.184369,2.382472 28.034869,2.015172 28.034869,1.578392 C28.034869,1.141602 28.184369,0.774302 28.483269,0.476492 C28.782269,0.158833 29.150969,1e-06 29.589369,1e-06 C30.027869,1e-06 30.396569,0.158833 30.695469,0.476502 C31.014369,0.774302 31.173769,1.141602 31.173769,1.578392 C31.173769,2.015172 31.014369,2.382472 30.695469,2.680282 C30.396569,2.978092 30.027869,3.126992 29.589369,3.126992 Z M41.461169,8.338652 C41.999269,7.405502 42.796369,6.631202 43.852769,6.015742 C44.928969,5.380402 46.174469,5.062762 47.589669,5.062762 C49.044369,5.062762 50.359769,5.410192 51.535769,6.105092 C52.731569,6.799992 53.668369,7.782762 54.345869,9.053392 C55.023369,10.304172 55.362369,11.763472 55.362369,13.431172 C55.362369,15.079072 55.023369,16.548272 54.345869,17.838772 C53.668369,19.129272 52.731569,20.131872 51.535769,20.846572 C50.359769,21.561372 49.044469,21.918772 47.589669,21.918772 C46.194669,21.918772 44.958869,21.610972 43.882669,20.995472 C42.826269,20.360172 42.019169,19.575972 41.461169,18.642872 L41.461269,29.393772 L38.740769,29.393772 L38.740769,5.330782 L41.461169,5.330782 L41.461169,8.338652 Z M52.582069,13.431172 C52.582069,12.200272 52.332869,11.128072 51.834769,10.214872 C51.336569,9.301572 50.658769,8.606682 49.801869,8.130192 C48.964769,7.653692 48.038069,7.415442 47.021669,7.415442 C46.025069,7.415442 45.098269,7.663632 44.241469,8.159962 C43.404369,8.636462 42.726869,9.341272 42.208569,10.274372 C41.710469,11.187672 41.461169,12.249872 41.461169,13.460972 C41.461169,14.691872 41.710469,15.773972 42.208569,16.707072 C42.726869,17.620372 43.404369,18.325172 44.241469,18.821472 C45.098269,19.297972 46.025069,19.536272 47.021669,19.536272 C48.038069,19.536272 48.964869,19.297972 49.801869,18.821472 C50.658769,18.325172 51.336569,17.620372 51.834769,16.707072 C52.332869,15.773972 52.582069,14.681972 52.582069,13.431172 Z M61.663369,8.338662 C62.201569,7.405512 62.998969,6.631212 64.054969,6.015752 C65.131169,5.380412 66.377069,5.062762 67.791869,5.062762 C69.246969,5.062762 70.562369,5.410192 71.737969,6.105092 C72.933769,6.799992 73.870569,7.782762 74.548069,9.053402 C75.225969,10.304172 75.564569,11.763472 75.564569,13.431172 C75.564569,15.079072 75.225969,16.548272 74.548069,17.838772 C73.870669,19.129272 72.933769,20.131872 71.737969,20.846672 C70.562369,21.561372 69.246969,21.918772 67.791869,21.918772 C66.396869,21.918772 65.161169,21.610972 64.084869,20.995572 C63.028869,20.360172 62.221669,19.575972 61.663469,18.642872 L61.663469,29.393772 L58.942969,29.393772 L58.942969,5.330792 L61.663369,5.330792 L61.663369,8.338662 Z M72.784269,13.431172 C72.784269,12.200272 72.535469,11.128172 72.036969,10.214872 C71.538769,9.301572 70.861369,8.606692 70.004069,8.130192 C69.167069,7.653702 68.240269,7.415452 67.223869,7.415452 C66.227569,7.415452 65.300869,7.663642 64.443669,8.159972 C63.606569,8.636472 62.929069,9.341272 62.410769,10.274372 C61.912669,11.187672 61.663369,12.249872 61.663369,13.460972 C61.663369,14.691872 61.912669,15.773972 62.410769,16.707072 C62.929069,17.620372 63.606569,18.325172 64.443669,18.821572 C65.300869,19.297972 66.227669,19.536272 67.223869,19.536272 C68.240269,19.536272 69.167069,19.297972 70.004069,18.821572 C70.861369,18.325172 71.538769,17.620372 72.036969,16.707072 C72.535469,15.773972 72.784269,14.681972 72.784269,13.431172 Z M94.092969,12.865372 C94.092969,13.381572 94.063069,13.927572 94.003269,14.503272 L80.909369,14.503272 C81.009169,16.111472 81.556969,17.372172 82.553569,18.285472 C83.569969,19.178872 84.795669,19.625572 86.230669,19.625572 C87.406669,19.625572 88.383069,19.357572 89.160369,18.821572 C89.957469,18.265672 90.515669,17.530972 90.834469,16.617772 L93.764169,16.617772 C93.325869,18.186172 92.448769,19.466772 91.133369,20.459472 C89.818069,21.432272 88.183869,21.918772 86.230669,21.918772 C84.676069,21.918772 83.281169,21.571272 82.045369,20.876372 C80.829769,20.181472 79.873169,19.198772 79.175469,17.928072 C78.477769,16.637572 78.129169,15.148572 78.129169,13.460972 C78.129169,11.773372 78.468069,10.294272 79.145569,9.023622 C79.823069,7.752982 80.769969,6.780122 81.985569,6.105102 C83.221369,5.410202 84.636069,5.062772 86.230669,5.062772 C87.785169,5.062772 89.160369,5.400302 90.356169,6.075322 C91.551969,6.750342 92.468569,7.683492 93.106469,8.874722 C93.764169,10.046072 94.092969,11.376272 94.092969,12.865372 Z M91.282869,12.299572 C91.282869,11.267172 91.053769,10.383572 90.595269,9.649072 C90.136769,8.894562 89.508969,8.328732 88.711869,7.951522 C87.934669,7.554422 87.067669,7.355902 86.111069,7.355902 C84.735869,7.355902 83.559869,7.792672 82.583469,8.666252 C81.626869,9.539872 81.078669,10.750872 80.939269,12.299472 L91.282869,12.299572 Z M100.404469,7.981302 C100.882469,7.048152 101.560469,6.323512 102.437469,5.807302 C103.333469,5.291082 104.420469,5.033002 105.695469,5.033002 L105.695469,7.832402 L104.978469,7.832402 C101.928469,7.832402 100.404469,9.480272 100.404469,12.775972 L100.404469,21.650672 L97.683769,21.650672 L97.683769,5.330802 L100.404469,5.330802 L100.404469,7.981302 Z" id="Shape" fill="#8C2F6D"></path>
            <path d="M111.556469,0.893542 L111.556469,21.650772 L108.835469,21.650772 L108.835469,0.893542 L111.556469,0.893542 Z M129.017469,0.893552 L129.017469,3.097332 L123.337469,3.097332 L123.337469,21.650772 L120.617469,21.650772 L120.617469,3.097332 L114.907469,3.097332 L114.907469,0.893552 L129.017469,0.893552 Z" id="Shape" fill="#FFFFFF"></path>
        </g>
    </g>
</svg>