<?xml version="1.0" encoding="UTF-8"?>
<svg width="40px" height="45px" viewBox="0 0 40 45" version="1.1" xmlns="http://www.w3.org/2000/svg" xmlns:xlink="http://www.w3.org/1999/xlink">
    <title>company-11</title>
    <g id="Page-1" stroke="none" stroke-width="1" fill="none" fill-rule="evenodd">
        <g id="company-11" transform="translate(0.000000, 0.000122)">
            <path d="M15.6554,5.83825 L15.2892,4.33318 C15.8556,4.19228 16.4363,4.07477 17.0151,3.98389 C17.6748,3.88047 18.3453,3.80946 19.0084,3.77283 L19.0918,5.32031 C18.4795,5.35413 17.8599,5.41979 17.2504,5.51546 C16.7153,5.59943 16.1786,5.70806 15.6554,5.83825 Z M24.6587,5.87826 C23.5379,5.58604 22.3843,5.40118 21.2299,5.32862 L21.3248,3.78185 C22.5761,3.86033 23.8266,4.06068 25.0413,4.37756 L24.6587,5.87826 Z M10.491,8.01143 L9.69238003,6.68868 C10.7624,6.02815 11.9006,5.46808 13.0754,5.02411 L13.6121,6.47578 C12.5282,6.88551 11.4781,7.40218 10.491,8.01143 Z M29.8024,8.10994 C28.8192,7.48971 27.774,6.96134 26.696,6.5395 L27.2493,5.09402 C28.4169,5.55096 29.5488,6.12314 30.6139,6.79494 L29.8024,8.10994 Z M6.21632003,11.6599 L5.06128003,10.641 C5.88635003,9.6849 6.80409003,8.80429 7.78927003,8.02344 L8.73488003,9.24319 C7.82550003,9.96402 6.97799003,10.7771 6.21632003,11.6599 Z M34.0481,11.7969 C33.2954,10.9099 32.4546,10.0897 31.549,9.35899 L32.505,8.14755 C33.4856,8.93869 34.3962,9.82705 35.2114,10.7878 L34.0481,11.7969 Z M3.21736003,16.438 L1.81372003,15.8153 C2.31704003,14.6556 2.93226003,13.5374 3.64237003,12.4918 L4.90583003,13.3692 C4.25006003,14.3348 3.68208003,15.3673 3.21736003,16.438 Z M36.9985,16.6009 C36.5459,15.5248 35.9886,14.487 35.3423,13.5163 L36.6139,12.6508 C37.3144,13.7029 37.9183,14.8278 38.4091,15.9942 L36.9985,16.6009 Z M1.77644003,21.9053 L0.252258029,21.7404 C0.385613029,20.4801 0.639364029,19.226 1.00640003,18.0127 L2.47220003,18.4661 C2.13344003,19.5855 1.89948003,20.7426 1.77644003,21.9053 Z M38.3813,22.0853 C38.3473,21.7377 38.3032,21.387 38.2504,21.0428 C38.1258,20.2301 37.9473,19.4205 37.7197,18.6364 L39.1905,18.2 C39.4369,19.0492 39.6302,19.9257 39.7652,20.8052 C39.8222,21.1773 39.8698,21.5565 39.9068,21.9323 L38.3813,22.0853 Z M0.533027029,27.8629 C0.475895029,27.5748 0.424197029,27.2802 0.379188029,26.9871 C0.231480029,26.0249 0.151495029,25.0471 0.141602029,24.0808 L1.67428003,24.0646 C1.68348003,24.9571 1.75733003,25.8602 1.89389003,26.7493 C1.93542003,27.0201 1.98335003,27.2926 2.03602003,27.5587 L0.533027029,27.8629 Z M39.5766,28.0543 L38.0767,27.7342 C38.3156,26.5901 38.4468,25.4165 38.4673,24.2462 L39.9998,24.2736 C39.9778,25.5419 39.8354,26.814 39.5766,28.0543 Z M2.61155003,33.6206 C2.00679003,32.5108 1.50416003,31.336 1.11761003,30.129 L2.57588003,29.6517 C2.93247003,30.7652 3.39621003,31.8488 3.95402003,32.8728 L2.61155003,33.6206 Z M37.4341,33.7897 L36.0992,33.0279 C36.669,32.0073 37.1448,30.9285 37.5138,29.821 L38.9664,30.3159 C38.5667,31.5156 38.0512,32.6845 37.4341,33.7897 Z M6.31085003,38.4733 C5.40217003,37.5976 4.57264003,36.6316 3.84497003,35.6018 L5.09212003,34.7009 C5.76378003,35.6513 6.52963003,36.543 7.36836003,37.3513 L6.31085003,38.4733 Z M33.6911,38.6097 L32.6427,37.4788 C33.4863,36.6792 34.2598,35.7938 34.9418,34.8471 L36.1807,35.7596 C35.4423,36.7847 34.6046,37.7436 33.6911,38.6097 Z M11.2814,41.9818 C10.1576,41.4221 9.07986003,40.7515 8.07837003,39.9884 L9.00085003,38.7506 C9.92569003,39.4552 10.9209,40.0746 11.9586,40.5914 L11.2814,41.9818 Z M28.6884,42.0713 L28.0262,40.6734 C29.0688,40.1686 30.0693,39.5596 31.0003,38.8633 L31.9118,40.1094 C30.9029,40.8639 29.8184,41.524 28.6884,42.0713 Z M17.065,43.8211 C15.8263,43.6303 14.5985,43.3182 13.4158,42.8934 L13.9288,41.4329 C15.0202,41.8249 16.153,42.113 17.2957,42.289 L17.065,43.8211 Z M20.0483,44.0493 C19.8248,44.0493 19.5981,44.0455 19.3745,44.0379 L19.4263,42.4889 C20.5788,42.5284 21.746,42.4568 22.8938,42.2766 C23.9673,42.1081 25.0286,41.8439 26.0476,41.4915 L26.5438,42.958 C25.4398,43.3398 24.291,43.6257 23.129,43.8081 C22.1091,43.9682 21.0727,44.0493 20.0483,44.0493 Z" id="Shape" fill="#FFE10B"></path>
            <polygon id="Path" fill="#FFFFFF" points="23.2116 10.7663 22.709 9.45214 29.1189 6.94542 26.4258 0.552038 27.7081 0 30.9656 7.73403"></polygon>
            <path d="M20.0778,44.1374 C19.227,44.1374 18.3723,44.0829 17.5159,43.9727 C12.2048,43.2891 7.47494003,40.555 4.19764003,36.2742 C0.920201029,31.9936 -0.512423971,26.6785 0.163687029,21.3083 C1.55966003,10.2225 11.6145,2.35205 22.5787,3.763 C25.0672,4.0834 27.4368,4.8551 29.6218,6.05654 L28.8229,7.54189 C26.821,6.44105 24.6492,5.73402 22.3675,5.44039 C12.3188,4.1461 3.10196003,11.3609 1.82261003,21.5219 C0.543129029,31.6829 7.67797003,41.0019 17.7271,42.2955 C22.4777,42.907 27.2063,41.6482 31.0416,38.7509 L32.0424,40.1054 C28.5491,42.7441 24.376,44.1374 20.0778,44.1374 Z" id="Path" fill="#FFFFFF"></path>
            <path d="M7.90207003,23.4171 C9.52783003,23.4171 10.7473,22.1158 10.7473,20.4491 C10.7473,18.7822 9.52783003,17.4808 7.90207003,17.4808 L5.62152003,17.4808 L5.62152003,23.4171 L7.90207003,23.4171 Z M4.28906003,16.2936 L7.90191003,16.2936 C10.2955,16.2936 12.0793,18.0059 12.0793,20.4491 C12.0793,22.7549 10.1826,24.6043 7.90191003,24.6043 L4.28906003,24.6043 L4.28906003,16.2936 Z" id="Shape" fill="#FFFFFF"></path>
            <path d="M18.0405,22.2299 L16.2341,17.8462 L14.4276,22.2299 L18.0405,22.2299 Z M15.6466,16.2936 L16.8207,16.2936 L20.3433,24.6043 L19.0335,24.6043 L18.5368,23.4171 L13.9304,23.4171 L13.4562,24.6043 L12.124,24.6043 L15.6466,16.2936 Z" id="Shape" fill="#FFFFFF"></path>
            <polygon id="Path" fill="#FFFFFF" points="21.2456 24.6042 22.578 24.6042 22.578 16.2935 21.2456 16.2935"></polygon>
            <polygon id="Path" fill="#FFFFFF" points="24.1128 16.2936 25.4451 16.2936 25.4451 23.4171 28.9676 23.4171 28.9676 24.6043 24.1128 24.6043"></polygon>
            <polygon id="Path" fill="#FFFFFF" points="31.4065 20.6772 27.8843 16.2936 29.4873 16.2936 32.0841 19.6041 34.6582 16.2936 36.2614 16.2936 32.739 20.6772 32.739 24.6043 31.4065 24.6043"></polygon>
            <path d="M20.0014,32.4521 L18.195,28.0685 L16.3885,32.4521 L20.0014,32.4521 Z M17.6075,26.5157 L18.7816,26.5157 L22.3041,34.8265 L20.9945,34.8265 L20.4977,33.6393 L15.8913,33.6393 L15.4171,34.8265 L14.085,34.8265 L17.6075,26.5157 Z" id="Shape" fill="#4880FF"></path>
            <polygon id="Path" fill="#4880FF" points="23.2051 34.8265 24.5375 34.8265 24.5375 26.5157 23.2051 26.5157"></polygon>
        </g>
    </g>
</svg>