<?xml version="1.0" encoding="UTF-8"?>
<svg width="120px" height="38px" viewBox="0 0 120 38" version="1.1" xmlns="http://www.w3.org/2000/svg" xmlns:xlink="http://www.w3.org/1999/xlink">
    <title>company-4</title>
    <g id="Page-1" stroke="none" stroke-width="1" fill="none" fill-rule="evenodd">
        <g id="company-4" transform="translate(0.187500, 0.000122)">
            <path d="M4.51783,9.76453 L0,14.2222 L0,37.1473 L1.41182,37.1473 C1.80354,36.8035 2.88252,36.0554 4.51783,35.3312 L4.51783,9.76453 Z" id="Path" fill="#FD2624"></path>
            <polygon id="Path" fill="#F94546" fill-rule="nonzero" points="1.20005 14.3636 0.98828 14.3636 0.98828 35.3076 1.20005 35.3076"></polygon>
            <polygon id="Path" fill="#F94546" fill-rule="nonzero" points="2.40074 13.9391 2.18896 13.9391 2.18896 35.3076 2.40074 35.3076"></polygon>
            <polygon id="Path" fill="#F94546" fill-rule="nonzero" points="3.60045 13.1608 3.38867 13.1608 3.38867 35.3076 3.60045 35.3076"></polygon>
            <path d="M11.2949,0 L5.36523,5.66053 L5.36523,34.9793 C5.55998,34.9037 5.7609,34.8291 5.96781,34.7561 C8.09852,34.0047 10.1953,33.7824 11.2949,33.7542 L11.2949,0 Z" id="Path" fill="#FFFFFF"></path>
            <path d="M18.9185,9.76453 L23.4363,14.2222 L23.4363,37.1473 L22.0245,37.1473 C21.6328,36.8035 20.5538,36.0554 18.9185,35.3312 L18.9185,9.76453 Z" id="Path" fill="#FD2624"></path>
            <path d="M12.1421,0 L18.0717,5.66053 L18.0717,34.9793 C17.877,34.9037 17.6761,34.8291 17.4692,34.7561 C15.3385,34.0047 13.2417,33.7824 12.1421,33.7542 L12.1421,0 Z" id="Path" fill="#FFFFFF"></path>
            <polygon id="Path" fill="#3B393A" fill-rule="nonzero" points="7.05943 6.7926 6.84766 6.7926 6.84766 32.1235 7.05943 32.1235"></polygon>
            <polygon id="Path" fill="#3B393A" fill-rule="nonzero" points="16.4479 6.7926 16.6597 6.7926 16.6597 32.1235 16.4479 32.1235"></polygon>
            <polygon id="Path" fill="#3B393A" fill-rule="nonzero" points="8.47105 5.66052 8.25928 5.66052 8.25928 32.1235 8.47105 32.1235"></polygon>
            <polygon id="Path" fill="#3B393A" fill-rule="nonzero" points="15.0363 5.66052 15.248 5.66052 15.248 32.1235 15.0363 32.1235"></polygon>
            <polygon id="Path" fill="#3B393A" fill-rule="nonzero" points="9.8832 4.8822 9.67139 4.8822 9.67139 32.1235 9.8832 32.1235"></polygon>
            <polygon id="Path" fill="#3B393A" fill-rule="nonzero" points="13.6242 4.8822 13.8359 4.8822 13.8359 32.1235 13.6242 32.1235"></polygon>
            <polygon id="Path" fill="#F94546" fill-rule="nonzero" points="22.2365 14.3636 22.4482 14.3636 22.4482 35.3076 22.2365 35.3076"></polygon>
            <polygon id="Path" fill="#F94546" fill-rule="nonzero" points="21.0363 13.9391 21.248 13.9391 21.248 35.3076 21.0363 35.3076"></polygon>
            <polygon id="Path" fill="#F94546" fill-rule="nonzero" points="19.8361 13.1608 20.0479 13.1608 20.0479 35.3076 19.8361 35.3076"></polygon>
            <path d="M12.0008,37.8548 C14.5739,37.8548 16.6598,37.6013 16.6598,37.2887 C16.6598,36.9761 14.5739,36.7227 12.0008,36.7227 C9.42771,36.7227 7.3418,36.9761 7.3418,37.2887 C7.3418,37.6013 9.42771,37.8548 12.0008,37.8548 Z" id="Path" fill="#ACACAC" fill-rule="nonzero"></path>
            <path d="M28.5728,25.7555 L31.2802,25.7555 L31.2802,21.4062 C31.5312,21.4601 31.854,21.4781 32.2126,21.4781 C33.8263,21.4781 35.2069,21.0647 36.1393,20.2021 C36.8744,19.5371 37.251,18.5127 37.251,17.3265 C37.251,16.1404 36.7489,15.1339 35.96,14.5229 C35.1531,13.8759 33.9518,13.5524 32.2664,13.5524 C30.5989,13.5524 29.4155,13.6602 28.5728,13.804 L28.5728,25.7555 Z M31.2802,15.727 C31.4774,15.6731 31.854,15.6371 32.3919,15.6371 C33.7725,15.6371 34.5435,16.3021 34.5435,17.4164 C34.5435,18.6385 33.647,19.3754 32.1946,19.3754 C31.7823,19.3754 31.5133,19.3574 31.2802,19.3035 L31.2802,15.727 Z" id="Shape" fill="#FFFFFF" fill-rule="nonzero"></path>
            <path d="M38.497,25.7555 L41.2224,25.7555 L41.2224,21.2984 C41.2224,21.0828 41.2403,20.8671 41.2762,20.6874 C41.4555,19.8427 42.1368,19.3035 43.1409,19.3035 C43.4457,19.3035 43.6609,19.3395 43.876,19.3754 L43.876,16.8054 C43.6788,16.7694 43.5533,16.7515 43.3023,16.7515 C42.4416,16.7515 41.3838,17.2906 40.9355,18.5846 L40.8638,18.5846 L40.7562,16.9671 L38.4253,16.9671 C38.4791,17.722 38.497,18.5667 38.497,19.8607 L38.497,25.7555 Z" id="Path" fill="#FFFFFF" fill-rule="nonzero"></path>
            <path d="M49.1166,16.7515 C46.2837,16.7515 44.4189,18.5667 44.4189,21.4242 C44.4189,24.2638 46.3913,25.9532 48.9553,25.9532 C51.3041,25.9532 53.5812,24.4795 53.5812,21.2625 C53.5812,18.6026 51.7882,16.7515 49.1166,16.7515 Z M49.027,18.7104 C50.2642,18.7104 50.7662,20.0404 50.7662,21.3344 C50.7662,22.9339 50.1028,23.9943 49.027,23.9943 C47.8615,23.9943 47.234,22.862 47.234,21.3523 C47.234,20.0583 47.736,18.7104 49.027,18.7104 Z" id="Shape" fill="#FFFFFF" fill-rule="nonzero"></path>
            <path d="M55.0224,29.3139 L57.7478,29.3139 L57.7478,24.9466 L57.7836,24.9466 C58.1781,25.5217 59.0029,25.9531 60.0608,25.9531 C62.0151,25.9531 64.0412,24.4434 64.0412,21.2444 C64.0412,18.4407 62.3199,16.7693 60.4014,16.7693 C59.1284,16.7693 58.1243,17.2725 57.4788,18.1891 L57.443,18.1891 L57.3175,16.967 L54.9507,16.967 C54.9865,17.7937 55.0224,18.7642 55.0224,19.9144 L55.0224,29.3139 Z M57.7478,20.7771 C57.7478,20.6153 57.7657,20.4356 57.8016,20.2918 C57.9809,19.4831 58.6622,18.908 59.4332,18.908 C60.6525,18.908 61.28,19.9683 61.28,21.3702 C61.28,22.8619 60.5807,23.8503 59.3973,23.8503 C58.6084,23.8503 57.9809,23.2932 57.8016,22.5563 C57.7657,22.3766 57.7478,22.1969 57.7478,21.9812 L57.7478,20.7771 Z" id="Shape" fill="#FFFFFF" fill-rule="nonzero"></path>
            <path d="M73.29,22.2328 C73.326,22.0351 73.3797,21.6218 73.3797,21.1545 C73.3797,18.9799 72.3039,16.7693 69.4707,16.7693 C66.4226,16.7693 65.042,19.2315 65.042,21.46 C65.042,24.2098 66.7454,25.9351 69.7218,25.9351 C70.9054,25.9351 71.9989,25.7554 72.8954,25.378 L72.5368,23.5268 C71.802,23.7784 71.0487,23.9042 70.1162,23.9042 C68.8432,23.9042 67.7136,23.3651 67.6419,22.2328 L73.29,22.2328 Z M67.6239,20.3637 C67.6957,19.6448 68.1618,18.5845 69.3094,18.5845 C70.5645,18.5845 70.8511,19.6988 70.8511,20.3637 L67.6239,20.3637 Z" id="Shape" fill="#FFFFFF" fill-rule="nonzero"></path>
            <path d="M74.7695,25.7555 L77.4951,25.7555 L77.4951,21.2984 C77.4951,21.0828 77.5134,20.8671 77.5487,20.6874 C77.728,19.8427 78.4099,19.3035 79.4137,19.3035 C79.7187,19.3035 79.934,19.3395 80.1486,19.3754 L80.1486,16.8054 C79.9516,16.7694 79.826,16.7515 79.5754,16.7515 C78.7142,16.7515 77.6567,17.2906 77.2085,18.5846 L77.1364,18.5846 L77.0291,16.9671 L74.6982,16.9671 C74.7519,17.722 74.7695,18.5667 74.7695,19.8607 L74.7695,25.7555 Z" id="Path" fill="#FFFFFF" fill-rule="nonzero"></path>
            <path d="M82.0951,15.3316 L82.0951,16.9671 L80.9297,16.9671 L80.9297,18.9799 L82.0951,18.9799 L82.0951,22.5744 C82.0951,23.8145 82.3465,24.6592 82.8484,25.1803 C83.2966,25.6297 84.0322,25.9352 84.9103,25.9352 C85.6635,25.9352 86.3271,25.8273 86.6673,25.7015 L86.6497,23.6347 C86.3984,23.6887 86.2191,23.7066 85.8428,23.7066 C85.036,23.7066 84.767,23.2214 84.767,22.161 L84.767,18.9799 L86.7217,18.9799 L86.7217,16.9671 L84.767,16.9671 L84.767,14.5947 L82.0951,15.3316 Z" id="Path" fill="#FFFFFF" fill-rule="nonzero"></path>
            <path d="M87.1572,16.967 L90.3847,25.0186 C90.4743,25.2342 90.492,25.3601 90.492,25.4679 C90.492,25.5757 90.4383,25.7195 90.3486,25.8633 C90.0973,26.2946 89.6314,26.7439 89.2192,26.9596 C88.8062,27.1932 88.3763,27.355 88.0354,27.4269 L88.6269,29.7273 C89.3088,29.6554 90.3126,29.3499 91.2452,28.5232 C92.2313,27.6425 93.0742,26.2587 94.3293,22.7541 L96.3729,16.967 L93.4681,16.967 L92.3746,21.2804 C92.249,21.8016 92.1057,22.4486 91.9984,22.9338 L91.9264,22.9338 C91.8191,22.4665 91.6398,21.8016 91.4958,21.2983 L90.187,16.967 L87.1572,16.967 Z" id="Path" fill="#FFFFFF" fill-rule="nonzero"></path>
            <path d="M102.4415,13.4265 C98.892,13.4265 96.561,16.1403 96.561,19.7707 C96.561,23.2393 98.6767,25.9531 102.2455,25.9531 C105.7955,25.9531 108.1795,23.5628 108.1795,19.573 C108.1795,16.2122 106.1535,13.4265 102.4415,13.4265 Z M102.3885,15.6011 C104.2715,15.6011 105.2935,17.4703 105.2935,19.6629 C105.2935,22.0172 104.2355,23.7785 102.3885,23.7785 C100.5595,23.7785 99.4475,22.1071 99.4475,19.7168 C99.4475,17.3624 100.5235,15.6011 102.3885,15.6011 Z" id="Shape" fill="#FD2624" fill-rule="nonzero"></path>
            <path d="M109.7225,25.7555 L112.4295,25.7555 L112.4295,21.8016 L113.4515,20.5256 L116.4285,25.7555 L119.6015,25.7555 L115.4065,18.8002 L119.4045,13.6422 L116.0335,13.6422 L113.3085,17.668 C113.0215,18.0993 112.7345,18.5306 112.4655,18.9979 L112.4295,18.9979 L112.4295,13.6422 L109.7225,13.6422 L109.7225,25.7555 Z" id="Path" fill="#FD2624" fill-rule="nonzero"></path>
            <path d="M31.606,32.7598 C31.4157,32.8524 31.1222,32.9124 30.8287,32.9124 C29.9427,32.9124 29.4263,32.3403 29.4263,31.4359 C29.4263,30.4716 29.9971,29.9213 30.8559,29.9213 C31.1603,29.9213 31.4157,29.9867 31.5897,30.0738 L31.7092,29.687 C31.5842,29.6216 31.2907,29.5236 30.8396,29.5236 C29.7035,29.5236 28.9263,30.2972 28.9263,31.4522 C28.9263,32.6618 29.6981,33.3156 30.7309,33.3156 C31.1766,33.3156 31.5299,33.2284 31.6984,33.1412 L31.606,32.7598 Z" id="Path" fill="#FFFFFF" fill-rule="nonzero"></path>
            <path d="M33.3543,30.5642 C32.6314,30.5642 32.0498,31.0818 32.0498,31.959 C32.0498,32.7926 32.6042,33.3156 33.3108,33.3156 C33.9414,33.3156 34.6208,32.8906 34.6208,31.9154 C34.6208,31.1145 34.1099,30.5642 33.3543,30.5642 Z M33.3435,30.9238 C33.9088,30.9238 34.1316,31.485 34.1316,31.9317 C34.1316,32.5256 33.7892,32.956 33.3326,32.956 C32.8651,32.956 32.539,32.5201 32.539,31.9426 C32.539,31.4468 32.7836,30.9238 33.3435,30.9238 Z" id="Shape" fill="#FFFFFF" fill-rule="nonzero"></path>
            <path d="M35.2405,33.2556 L35.7188,33.2556 L35.7188,31.6702 C35.7188,31.5885 35.7297,31.5068 35.7514,31.4468 C35.8384,31.1799 36.083,30.9565 36.3928,30.9565 C36.844,30.9565 37.0016,31.3106 37.0016,31.7356 L37.0016,33.2556 L37.4799,33.2556 L37.4799,31.6866 C37.4799,30.7821 36.9146,30.5642 36.5505,30.5642 C36.1156,30.5642 35.8112,30.8094 35.6808,31.0546 L35.6699,31.0546 L35.6427,30.6187 L35.2187,30.6187 C35.2351,30.8366 35.2405,31.0546 35.2405,31.3324 L35.2405,33.2556 Z" id="Path" fill="#FFFFFF" fill-rule="nonzero"></path>
            <path d="M38.2732,33.2556 L38.7515,33.2556 L38.7515,31.6702 C38.7515,31.5885 38.7624,31.5068 38.7841,31.4468 C38.8711,31.1799 39.1157,30.9565 39.4255,30.9565 C39.8767,30.9565 40.0343,31.3106 40.0343,31.7356 L40.0343,33.2556 L40.5126,33.2556 L40.5126,31.6866 C40.5126,30.7821 39.9473,30.5642 39.5832,30.5642 C39.1483,30.5642 38.8439,30.8094 38.7135,31.0546 L38.7026,31.0546 L38.6754,30.6187 L38.2515,30.6187 C38.2678,30.8366 38.2732,31.0546 38.2732,31.3324 L38.2732,33.2556 Z" id="Path" fill="#FFFFFF" fill-rule="nonzero"></path>
            <path d="M43.4204,32.0243 C43.4313,31.9699 43.4367,31.899 43.4367,31.801 C43.4367,31.3161 43.2138,30.5642 42.3496,30.5642 C41.5832,30.5642 41.1157,31.1853 41.1157,31.9808 C41.1157,32.7762 41.5995,33.3156 42.4094,33.3156 C42.8279,33.3156 43.1214,33.223 43.2899,33.1467 L43.203,32.8034 C43.029,32.8797 42.817,32.9397 42.4746,32.9397 C41.9908,32.9397 41.5832,32.6727 41.5723,32.0243 L43.4204,32.0243 Z M41.5777,31.6811 C41.6158,31.3488 41.8223,30.9074 42.3115,30.9074 C42.8497,30.9074 42.9801,31.3815 42.9747,31.6811 L41.5777,31.6811 Z" id="Shape" fill="#FFFFFF" fill-rule="nonzero"></path>
            <path d="M45.8404,32.8034 C45.7045,32.8634 45.5252,32.9288 45.2534,32.9288 C44.7316,32.9288 44.3402,32.5528 44.3402,31.9426 C44.3402,31.3978 44.6663,30.9456 45.2697,30.9456 C45.5306,30.9456 45.71,31.011 45.8241,31.0709 L45.9328,30.7059 C45.8024,30.635 45.5523,30.5642 45.2697,30.5642 C44.4109,30.5642 43.8564,31.1581 43.8564,31.9699 C43.8564,32.7762 44.3728,33.3156 45.1664,33.3156 C45.5197,33.3156 45.7969,33.223 45.922,33.163 L45.8404,32.8034 Z" id="Path" fill="#FFFFFF" fill-rule="nonzero"></path>
            <path d="M46.6782,30.1284 L46.6782,30.6187 L46.2705,30.6187 L46.2705,30.9837 L46.6782,30.9837 L46.6782,32.4221 C46.6782,32.7326 46.7325,32.9669 46.863,33.114 C46.9771,33.2393 47.1565,33.3156 47.3793,33.3156 C47.5642,33.3156 47.7109,33.2829 47.8033,33.2502 L47.7816,32.8852 C47.7109,32.907 47.6348,32.9179 47.5044,32.9179 C47.238,32.9179 47.1456,32.7326 47.1456,32.4057 L47.1456,30.9837 L47.8305,30.9837 L47.8305,30.6187 L47.1456,30.6187 L47.1456,29.9867 L46.6782,30.1284 Z" id="Path" fill="#FFFFFF" fill-rule="nonzero"></path>
            <path d="M48.8653,33.2556 L48.8653,30.6186 L48.3869,30.6186 L48.3869,33.2556 L48.8653,33.2556 Z M48.6261,29.578 C48.4467,29.578 48.3271,29.7142 48.3271,29.8777 C48.3271,30.0411 48.4413,30.1719 48.6152,30.1719 C48.8055,30.1719 48.9196,30.0411 48.9196,29.8777 C48.9196,29.7088 48.8,29.578 48.6261,29.578 Z" id="Shape" fill="#FFFFFF" fill-rule="nonzero"></path>
            <path d="M49.6785,33.2556 L50.1568,33.2556 L50.1568,31.6702 C50.1568,31.5885 50.1677,31.5068 50.1894,31.4468 C50.2764,31.1799 50.521,30.9565 50.8308,30.9565 C51.282,30.9565 51.4396,31.3106 51.4396,31.7356 L51.4396,33.2556 L51.9179,33.2556 L51.9179,31.6866 C51.9179,30.7821 51.3526,30.5642 50.9884,30.5642 C50.5536,30.5642 50.2492,30.8094 50.1188,31.0546 L50.1079,31.0546 L50.0807,30.6187 L49.6567,30.6187 C49.673,30.8366 49.6785,31.0546 49.6785,31.3324 L49.6785,33.2556 Z" id="Path" fill="#FFFFFF" fill-rule="nonzero"></path>
            <path d="M54.961,31.3379 C54.961,31.0219 54.9665,30.8039 54.9828,30.6187 L54.5588,30.6187 L54.5425,31.0164 L54.5316,31.0164 C54.4121,30.7985 54.1675,30.5642 53.7109,30.5642 C53.1021,30.5642 52.5205,31.0655 52.5205,31.959 C52.5205,32.689 52.988,33.2448 53.6402,33.2448 C54.0479,33.2448 54.336,33.0486 54.4773,32.8035 L54.4882,32.8035 L54.4882,33.0922 C54.4882,33.7624 54.1294,34.0184 53.6402,34.0184 C53.3141,34.0184 53.0423,33.9204 52.8684,33.8059 L52.7488,34.1764 C52.9608,34.3181 53.3087,34.3944 53.6239,34.3944 C53.9555,34.3944 54.3251,34.3126 54.586,34.0784 C54.836,33.8441 54.961,33.479 54.961,32.8688 L54.961,31.3379 Z M54.4827,32.1333 C54.4827,32.215 54.4719,32.3077 54.4447,32.3894 C54.3468,32.6945 54.0805,32.8797 53.7815,32.8797 C53.2706,32.8797 53.0043,32.4493 53.0043,31.9317 C53.0043,31.3215 53.3304,30.9347 53.787,30.9347 C54.1403,30.9347 54.3686,31.1635 54.4555,31.4468 C54.4773,31.5068 54.4827,31.5776 54.4827,31.6593 L54.4827,32.1333 Z" id="Shape" fill="#FFFFFF" fill-rule="nonzero"></path>
            <path d="M56.9343,34.3344 L57.4072,34.3344 L57.4072,32.9015 L57.4181,32.9015 C57.5757,33.163 57.8801,33.3156 58.228,33.3156 C58.8476,33.3156 59.4292,32.847 59.4292,31.899 C59.4292,31.1036 58.9509,30.5642 58.3095,30.5642 C57.8801,30.5642 57.5649,30.7494 57.3746,31.0709 L57.3637,31.0709 L57.3366,30.6187 L56.9126,30.6187 C56.9235,30.8693 56.9343,31.1417 56.9343,31.4795 L56.9343,34.3344 Z M57.4072,31.7247 C57.4072,31.6648 57.4235,31.5939 57.4398,31.534 C57.5268,31.1744 57.8366,30.9456 58.1628,30.9456 C58.6683,30.9456 58.9455,31.3978 58.9455,31.9208 C58.9455,32.5256 58.652,32.9397 58.1465,32.9397 C57.804,32.9397 57.5159,32.7108 57.429,32.3785 C57.4127,32.3186 57.4072,32.2532 57.4072,32.1823 L57.4072,31.7247 Z" id="Shape" fill="#FFFFFF" fill-rule="nonzero"></path>
            <path d="M62.1611,32.0243 C62.172,31.9699 62.1774,31.899 62.1774,31.801 C62.1774,31.3161 61.9546,30.5642 61.0903,30.5642 C60.3239,30.5642 59.8564,31.1853 59.8564,31.9808 C59.8564,32.7762 60.3402,33.3156 61.1501,33.3156 C61.5686,33.3156 61.8622,33.223 62.0307,33.1467 L61.9437,32.8034 C61.7697,32.8797 61.5578,32.9397 61.2153,32.9397 C60.7316,32.9397 60.3239,32.6727 60.313,32.0243 L62.1611,32.0243 Z M60.3185,31.6811 C60.3565,31.3488 60.5631,30.9074 61.0523,30.9074 C61.5904,30.9074 61.7208,31.3815 61.7154,31.6811 L60.3185,31.6811 Z" id="Shape" fill="#FFFFFF" fill-rule="nonzero"></path>
            <path d="M63.9017,30.5642 C63.1788,30.5642 62.5972,31.0818 62.5972,31.959 C62.5972,32.7926 63.1516,33.3156 63.8582,33.3156 C64.4887,33.3156 65.1682,32.8906 65.1682,31.9154 C65.1682,31.1145 64.6573,30.5642 63.9017,30.5642 Z M63.8908,30.9238 C64.4561,30.9238 64.679,31.485 64.679,31.9317 C64.679,32.5256 64.3365,32.956 63.88,32.956 C63.4125,32.956 63.0864,32.5201 63.0864,31.9426 C63.0864,31.4468 63.331,30.9238 63.8908,30.9238 Z" id="Shape" fill="#FFFFFF" fill-rule="nonzero"></path>
            <path d="M65.7883,34.3344 L66.2612,34.3344 L66.2612,32.9015 L66.2721,32.9015 C66.4297,33.163 66.7341,33.3156 67.082,33.3156 C67.7016,33.3156 68.2832,32.847 68.2832,31.899 C68.2832,31.1036 67.8049,30.5642 67.1635,30.5642 C66.7341,30.5642 66.4189,30.7494 66.2286,31.0709 L66.2177,31.0709 L66.1906,30.6187 L65.7666,30.6187 C65.7775,30.8693 65.7883,31.1417 65.7883,31.4795 L65.7883,34.3344 Z M66.2612,31.7247 C66.2612,31.6648 66.2775,31.5939 66.2938,31.534 C66.3808,31.1744 66.6906,30.9456 67.0168,30.9456 C67.5223,30.9456 67.7995,31.3978 67.7995,31.9208 C67.7995,32.5256 67.506,32.9397 67.0005,32.9397 C66.658,32.9397 66.3699,32.7108 66.283,32.3785 C66.2667,32.3186 66.2612,32.2532 66.2612,32.1823 L66.2612,31.7247 Z" id="Shape" fill="#FFFFFF" fill-rule="nonzero"></path>
            <polygon id="Path" fill="#FFFFFF" fill-rule="nonzero" points="68.9004 33.2556 69.3787 33.2556 69.3787 29.3873 68.9004 29.3873"></polygon>
            <path d="M72.3169,32.0243 C72.3275,31.9699 72.3331,31.899 72.3331,31.801 C72.3331,31.3161 72.11,30.5642 71.246,30.5642 C70.4797,30.5642 70.0122,31.1853 70.0122,31.9808 C70.0122,32.7762 70.496,33.3156 71.306,33.3156 C71.7246,33.3156 72.0183,33.223 72.1863,33.1467 L72.0995,32.8034 C71.9258,32.8797 71.7133,32.9397 71.371,32.9397 C70.8874,32.9397 70.4797,32.6727 70.4688,32.0243 L72.3169,32.0243 Z M70.4742,31.6811 C70.5123,31.3488 70.7187,30.9074 71.2079,30.9074 C71.7465,30.9074 71.8764,31.3815 71.8714,31.6811 L70.4742,31.6811 Z" id="Shape" fill="#FFFFFF" fill-rule="nonzero"></path>
            <path d="M76.9884,33.2556 C76.771,33.0213 76.5811,32.8143 76.3856,32.6018 C76.6573,32.2803 76.8148,31.8227 76.9122,31.2452 L76.4773,31.2452 C76.4067,31.7083 76.2931,32.0624 76.1244,32.3185 C75.8907,32.057 75.5427,31.6592 75.2328,31.2997 L75.2328,31.2779 C75.8145,30.9891 76.0376,30.684 76.0376,30.2972 C76.0376,29.8177 75.6839,29.5181 75.2272,29.5181 C74.6187,29.5181 74.2982,29.9757 74.2982,30.4279 C74.2982,30.684 74.4119,30.9564 74.6024,31.1961 L74.6024,31.2125 C74.1838,31.4413 73.8853,31.7845 73.8853,32.2858 C73.8853,32.8361 74.2982,33.3155 75.0098,33.3155 C75.4178,33.3155 75.7658,33.1902 76.0806,32.9014 C76.2225,33.0431 76.3199,33.1521 76.423,33.2556 L76.9884,33.2556 Z M75.0973,32.9559 C74.6512,32.9559 74.3413,32.6345 74.3413,32.215 C74.3413,31.8227 74.613,31.5939 74.8142,31.4631 C75.2222,31.9371 75.6295,32.3839 75.847,32.6236 C75.6733,32.8143 75.4072,32.9559 75.0973,32.9559 Z M75.1898,29.845 C75.494,29.845 75.6189,30.0956 75.6189,30.319 C75.6189,30.635 75.3796,30.8311 75.0098,31.0436 C74.858,30.8474 74.733,30.6459 74.733,30.3789 C74.733,30.0956 74.8905,29.845 75.1898,29.845 Z" id="Shape" fill="#FFFFFF" fill-rule="nonzero"></path>
            <path d="M78.5912,34.3344 L79.0642,34.3344 L79.0642,32.9015 L79.0748,32.9015 C79.2322,33.163 79.5371,33.3156 79.8844,33.3156 C80.5042,33.3156 81.0859,32.847 81.0859,31.899 C81.0859,31.1036 80.608,30.5642 79.9663,30.5642 C79.5371,30.5642 79.2216,30.7494 79.0317,31.0709 L79.0204,31.0709 L78.9936,30.6187 L78.5693,30.6187 C78.5799,30.8693 78.5912,31.1417 78.5912,31.4795 L78.5912,34.3344 Z M79.0642,31.7247 C79.0642,31.6648 79.0804,31.5939 79.0966,31.534 C79.1835,31.1744 79.4934,30.9456 79.8195,30.9456 C80.3249,30.9456 80.6024,31.3978 80.6024,31.9208 C80.6024,32.5256 80.3087,32.9397 79.8033,32.9397 C79.4609,32.9397 79.1729,32.7108 79.0861,32.3785 C79.0691,32.3186 79.0642,32.2532 79.0642,32.1823 L79.0642,31.7247 Z" id="Shape" fill="#FFFFFF" fill-rule="nonzero"></path>
            <path d="M81.704,33.2556 L82.1819,33.2556 L82.1819,31.85 C82.1819,31.7737 82.1876,31.692 82.1981,31.6266 C82.2638,31.267 82.5031,31.0164 82.8398,31.0164 C82.9048,31.0164 82.9542,31.0164 83.0029,31.0273 L83.0029,30.5751 C82.9591,30.5697 82.921,30.5642 82.8723,30.5642 C82.5518,30.5642 82.2581,30.7876 82.1388,31.1417 L82.1226,31.1417 L82.1007,30.6187 L81.6821,30.6187 C81.6984,30.8639 81.704,31.1308 81.704,31.4414 L81.704,33.2556 Z" id="Path" fill="#FFFFFF" fill-rule="nonzero"></path>
            <path d="M84.5604,30.5642 C83.8375,30.5642 83.2559,31.0818 83.2559,31.959 C83.2559,32.7926 83.81,33.3156 84.5166,33.3156 C85.1477,33.3156 85.8268,32.8906 85.8268,31.9154 C85.8268,31.1145 85.3157,30.5642 84.5604,30.5642 Z M84.5498,30.9238 C85.1145,30.9238 85.3376,31.485 85.3376,31.9317 C85.3376,32.5256 84.9952,32.956 84.5385,32.956 C84.0712,32.956 83.745,32.5201 83.745,31.9426 C83.745,31.4468 83.99,30.9238 84.5498,30.9238 Z" id="Shape" fill="#FFFFFF" fill-rule="nonzero"></path>
            <path d="M86.4477,34.3344 L86.9199,34.3344 L86.9199,32.9015 L86.9312,32.9015 C87.0886,33.163 87.3929,33.3156 87.7409,33.3156 C88.3607,33.3156 88.9424,32.847 88.9424,31.899 C88.9424,31.1036 88.4637,30.5642 87.8228,30.5642 C87.3929,30.5642 87.078,30.7494 86.8874,31.0709 L86.8769,31.0709 L86.8493,30.6187 L86.4258,30.6187 C86.4364,30.8693 86.4477,31.1417 86.4477,31.4795 L86.4477,34.3344 Z M86.9199,31.7247 C86.9199,31.6648 86.9369,31.5939 86.9531,31.534 C87.0399,31.1744 87.3498,30.9456 87.6759,30.9456 C88.1814,30.9456 88.4588,31.3978 88.4588,31.9208 C88.4588,32.5256 88.1651,32.9397 87.6597,32.9397 C87.3173,32.9397 87.0286,32.7108 86.9418,32.3785 C86.9256,32.3186 86.9199,32.2532 86.9199,32.1823 L86.9199,31.7247 Z" id="Shape" fill="#FFFFFF" fill-rule="nonzero"></path>
            <path d="M91.674,32.0243 C91.6846,31.9699 91.6902,31.899 91.6902,31.801 C91.6902,31.3161 91.4671,30.5642 90.6031,30.5642 C89.8365,30.5642 89.3691,31.1853 89.3691,31.9808 C89.3691,32.7762 89.8527,33.3156 90.6631,33.3156 C91.081,33.3156 91.3747,33.223 91.5434,33.1467 L91.4565,32.8034 C91.2822,32.8797 91.0704,32.9397 90.728,32.9397 C90.2445,32.9397 89.8365,32.6727 89.8259,32.0243 L91.674,32.0243 Z M89.8308,31.6811 C89.8689,31.3488 90.0758,30.9074 90.565,30.9074 C91.1029,30.9074 91.2335,31.3815 91.2278,31.6811 L89.8308,31.6811 Z" id="Shape" fill="#FFFFFF" fill-rule="nonzero"></path>
            <path d="M92.3002,33.2556 L92.7788,33.2556 L92.7788,31.85 C92.7788,31.7737 92.7838,31.692 92.795,31.6266 C92.86,31.267 93.0993,31.0164 93.436,31.0164 C93.5017,31.0164 93.5504,31.0164 93.5991,31.0273 L93.5991,30.5751 C93.556,30.5697 93.5179,30.5642 93.4685,30.5642 C93.148,30.5642 92.8543,30.7876 92.735,31.1417 L92.7188,31.1417 L92.6969,30.6187 L92.2783,30.6187 C92.2946,30.8639 92.3002,31.1308 92.3002,31.4414 L92.3002,33.2556 Z" id="Path" fill="#FFFFFF" fill-rule="nonzero"></path>
            <path d="M94.3372,30.1284 L94.3372,30.6187 L93.9292,30.6187 L93.9292,30.9837 L94.3372,30.9837 L94.3372,32.4221 C94.3372,32.7326 94.3916,32.9669 94.5222,33.114 C94.6358,33.2393 94.8158,33.3156 95.0382,33.3156 C95.2231,33.3156 95.37,33.2829 95.4624,33.2502 L95.4405,32.8852 C95.37,32.907 95.2937,32.9179 95.1631,32.9179 C94.897,32.9179 94.8045,32.7326 94.8045,32.4057 L94.8045,30.9837 L95.4893,30.9837 L95.4893,30.6187 L94.8045,30.6187 L94.8045,29.9867 L94.3372,30.1284 Z" id="Path" fill="#FFFFFF" fill-rule="nonzero"></path>
            <path d="M95.7456,30.6188 L96.7134,33.0487 C96.7402,33.1086 96.7508,33.1468 96.7508,33.174 C96.7508,33.2013 96.7346,33.2394 96.7134,33.2884 C96.599,33.5336 96.4416,33.7188 96.311,33.8224 C96.1699,33.9422 96.0117,34.0185 95.8924,34.0566 L96.0117,34.4544 C96.1317,34.4326 96.3597,34.3508 96.5991,34.1492 C96.9252,33.8605 97.1588,33.4028 97.5012,32.4984 L98.2184,30.6188 L97.713,30.6188 L97.1913,32.1661 C97.1264,32.3568 97.072,32.5584 97.0226,32.7164 L97.012,32.7164 C96.9682,32.5584 96.9033,32.3513 96.8383,32.177 L96.2673,30.6188 L95.7456,30.6188 Z" id="Path" fill="#FFFFFF" fill-rule="nonzero"></path>
            <path d="M99.8395,34.3344 L100.3125,34.3344 L100.3125,32.9015 L100.3225,32.9015 C100.4805,33.163 100.7855,33.3156 101.1335,33.3156 C101.7525,33.3156 102.3335,32.847 102.3335,31.899 C102.3335,31.1036 101.8565,30.5642 101.2145,30.5642 C100.7855,30.5642 100.4695,30.7494 100.2795,31.0709 L100.2685,31.0709 L100.2415,30.6187 L99.8175,30.6187 C99.8285,30.8693 99.8395,31.1417 99.8395,31.4795 L99.8395,34.3344 Z M100.3125,31.7247 C100.3125,31.6648 100.3285,31.5939 100.3445,31.534 C100.4315,31.1744 100.7415,30.9456 101.0675,30.9456 C101.5725,30.9456 101.8505,31.3978 101.8505,31.9208 C101.8505,32.5256 101.5565,32.9397 101.0515,32.9397 C100.7085,32.9397 100.4205,32.7108 100.3345,32.3785 C100.3175,32.3186 100.3125,32.2532 100.3125,32.1823 L100.3125,31.7247 Z" id="Shape" fill="#FFFFFF" fill-rule="nonzero"></path>
            <path d="M105.0655,32.0243 C105.0765,31.9699 105.0815,31.899 105.0815,31.801 C105.0815,31.3161 104.8585,30.5642 103.9945,30.5642 C103.2285,30.5642 102.7605,31.1853 102.7605,31.9808 C102.7605,32.7762 103.2455,33.3156 104.0545,33.3156 C104.4735,33.3156 104.7665,33.223 104.9345,33.1467 L104.8485,32.8034 C104.6745,32.8797 104.4615,32.9397 104.1195,32.9397 C103.6365,32.9397 103.2285,32.6727 103.2175,32.0243 L105.0655,32.0243 Z M103.2235,31.6811 C103.2615,31.3488 103.4675,30.9074 103.9565,30.9074 C104.4955,30.9074 104.6255,31.3815 104.6205,31.6811 L103.2235,31.6811 Z" id="Shape" fill="#FFFFFF" fill-rule="nonzero"></path>
            <path d="M105.6925,33.2556 L106.1705,33.2556 L106.1705,31.85 C106.1705,31.7737 106.1765,31.692 106.1865,31.6266 C106.2515,31.267 106.4915,31.0164 106.8285,31.0164 C106.8935,31.0164 106.9425,31.0164 106.9915,31.0273 L106.9915,30.5751 C106.9475,30.5697 106.9095,30.5642 106.8615,30.5642 C106.5405,30.5642 106.2465,30.7876 106.1265,31.1417 L106.1105,31.1417 L106.0885,30.6187 L105.6705,30.6187 C105.6875,30.8639 105.6925,31.1308 105.6925,31.4414 L105.6925,33.2556 Z" id="Path" fill="#FFFFFF" fill-rule="nonzero"></path>
            <path d="M108.1755,33.2556 L108.1755,30.9837 L108.8115,30.9837 L108.8115,30.6186 L108.1755,30.6186 L108.1755,30.477 C108.1755,30.0684 108.2785,29.7142 108.6855,29.7142 C108.8275,29.7142 108.9195,29.7415 108.9905,29.7742 L109.0555,29.4037 C108.9625,29.3655 108.8215,29.3274 108.6485,29.3274 C108.4245,29.3274 108.1855,29.3982 108.0065,29.5726 C107.7885,29.785 107.7025,30.1228 107.7025,30.4933 L107.7025,30.6186 L107.3375,30.6186 L107.3375,30.9837 L107.7025,30.9837 L107.7025,33.2556 L108.1755,33.2556 Z" id="Path" fill="#FFFFFF" fill-rule="nonzero"></path>
            <path d="M111.3025,32.0243 C111.3135,31.9699 111.3185,31.899 111.3185,31.801 C111.3185,31.3161 111.0965,30.5642 110.2315,30.5642 C109.4655,30.5642 108.9985,31.1853 108.9985,31.9808 C108.9985,32.7762 109.4815,33.3156 110.2915,33.3156 C110.7095,33.3156 111.0035,33.223 111.1725,33.1467 L111.0845,32.8034 C110.9115,32.8797 110.6995,32.9397 110.3565,32.9397 C109.8725,32.9397 109.4655,32.6727 109.4545,32.0243 L111.3025,32.0243 Z M109.4595,31.6811 C109.4975,31.3488 109.7045,30.9074 110.1935,30.9074 C110.7315,30.9074 110.8625,31.3815 110.8565,31.6811 L109.4595,31.6811 Z" id="Shape" fill="#FFFFFF" fill-rule="nonzero"></path>
            <path d="M113.7235,32.8034 C113.5875,32.8634 113.4085,32.9288 113.1365,32.9288 C112.6145,32.9288 112.2225,32.5528 112.2225,31.9426 C112.2225,31.3978 112.5485,30.9456 113.1525,30.9456 C113.4135,30.9456 113.5925,31.011 113.7065,31.0709 L113.8155,30.7059 C113.6855,30.635 113.4345,30.5642 113.1525,30.5642 C112.2935,30.5642 111.7395,31.1581 111.7395,31.9699 C111.7395,32.7762 112.2555,33.3156 113.0495,33.3156 C113.4025,33.3156 113.6795,33.223 113.8045,33.163 L113.7235,32.8034 Z" id="Path" fill="#FFFFFF" fill-rule="nonzero"></path>
            <path d="M114.5605,30.1284 L114.5605,30.6187 L114.1525,30.6187 L114.1525,30.9837 L114.5605,30.9837 L114.5605,32.4221 C114.5605,32.7326 114.6155,32.9669 114.7455,33.114 C114.8595,33.2393 115.0385,33.3156 115.2615,33.3156 C115.4465,33.3156 115.5935,33.2829 115.6865,33.2502 L115.6645,32.8852 C115.5935,32.907 115.5175,32.9179 115.3865,32.9179 C115.1205,32.9179 115.0285,32.7326 115.0285,32.4057 L115.0285,30.9837 L115.7125,30.9837 L115.7125,30.6187 L115.0285,30.6187 L115.0285,29.9867 L114.5605,30.1284 Z" id="Path" fill="#FFFFFF" fill-rule="nonzero"></path>
            <polygon id="Path" fill="#FFFFFF" fill-rule="nonzero" points="116.2695 33.2556 116.7475 33.2556 116.7475 29.3873 116.2695 29.3873"></polygon>
            <path d="M117.2235,30.6188 L118.1905,33.0487 C118.2185,33.1086 118.2285,33.1468 118.2285,33.174 C118.2285,33.2013 118.2125,33.2394 118.1905,33.2884 C118.0775,33.5336 117.9185,33.7188 117.7895,33.8224 C117.6475,33.9422 117.4895,34.0185 117.3705,34.0566 L117.4895,34.4544 C117.6095,34.4326 117.8375,34.3508 118.0775,34.1492 C118.4035,33.8605 118.6365,33.4028 118.9795,32.4984 L119.6965,30.6188 L119.1915,30.6188 L118.6695,32.1661 C118.6045,32.3568 118.5505,32.5584 118.5005,32.7164 L118.4905,32.7164 C118.4465,32.5584 118.3815,32.3513 118.3165,32.177 L117.7455,30.6188 L117.2235,30.6188 Z" id="Path" fill="#FFFFFF" fill-rule="nonzero"></path>
        </g>
    </g>
</svg>