<?xml version="1.0" encoding="UTF-8"?>
<svg width="107px" height="21px" viewBox="0 0 107 21" version="1.1" xmlns="http://www.w3.org/2000/svg" xmlns:xlink="http://www.w3.org/1999/xlink">
    <title>Facebook</title>
    <g id="Page-1" stroke="none" stroke-width="1" fill="none" fill-rule="evenodd">
        <g id="Facebook" transform="translate(0.000000, 0.000128)" fill="#1877F2" fill-rule="nonzero">
            <path d="M8.35223,3.22361 C7.09542,3.22361 6.73206,3.77882 6.73206,5.00338 L6.73206,7.03481 L10.0844,7.03481 L9.74839,10.3167 L6.73336,10.3167 L6.73336,20.2767 L2.71027,20.2767 L2.71027,10.3167 L0,10.3167 L0,7.03481 L2.71027,7.03481 L2.71027,5.05916 C2.71027,1.74869 4.05043,0 7.7896,0 C8.57311,-0.00176469005 9.35611,0.0445445999 10.1339,0.138852 L10.1339,3.2275 L8.35223,3.22361 Z" id="Path"></path>
            <path d="M10.3643,13.2387 C10.3643,9.53909 12.1238,6.75269 15.8109,6.75269 C17.8217,6.75269 19.0499,7.78267 19.6373,9.06172 L19.6373,7.03548 L23.4911,7.03548 L23.4911,20.2774 L19.6373,20.2774 L19.6373,18.2745 C19.0786,19.5548 17.8217,20.5563 15.8109,20.5563 C12.1238,20.5563 10.3643,17.7738 10.3643,14.0702 L10.3643,13.2387 Z M14.386,14.1299 C14.386,16.1043 15.1115,17.4119 16.983,17.4119 C18.6318,17.4119 19.4693,16.2158 19.4693,14.3245 L19.4693,12.9949 C19.4693,11.1035 18.6318,9.9075 16.983,9.9075 C15.1115,9.9075 14.386,11.2151 14.386,13.1894 L14.386,14.1299 Z" id="Shape"></path>
            <path d="M31.8714,6.7561 C33.4343,6.7561 34.9151,7.09078 35.7252,7.64599 L34.8318,10.4843 C33.9938,10.0868 33.0782,9.87771 32.1501,9.872 C29.9712,9.872 29.0244,11.1238 29.0244,13.2668 L29.0244,14.0451 C29.0244,16.1881 29.9738,17.4399 32.1501,17.4399 C33.0782,17.4341 33.9938,17.2251 34.8318,16.8276 L35.7252,19.6646 C34.9151,20.2211 33.4356,20.5558 31.8714,20.5558 C27.1503,20.5558 25,18.0237 25,13.9621 L25,13.3498 C25,9.28825 27.1503,6.7561 31.8714,6.7561 Z" id="Path"></path>
            <path d="M36.2539,14.1619 L36.2539,12.9944 C36.2539,9.23901 38.4042,6.76782 42.7906,6.76782 C46.9244,6.76782 48.7399,9.27143 48.7399,12.9438 L48.7399,15.0583 L40.2744,15.0583 C40.359,16.8666 41.1691,17.6735 43.4001,17.6735 C44.9096,17.6735 46.5011,17.3673 47.6746,16.8666 L48.4104,19.6102 C47.349,20.168 45.1701,20.5844 43.2438,20.5844 C38.1528,20.5831 36.2539,18.0535 36.2539,14.1619 Z M40.2757,12.4366 L45.1362,12.4366 L45.1362,12.1032 C45.1362,10.6569 44.5501,9.50883 42.7919,9.50883 C40.9751,9.51012 40.2757,10.6517 40.2757,12.4314 L40.2757,12.4366 Z" id="Shape"></path>
            <path d="M63.6496,14.0733 C63.6496,17.773 61.8627,20.5594 58.1796,20.5594 C56.1687,20.5594 54.7725,19.5579 54.2138,18.2776 L54.2138,20.2805 L50.416,20.2805 L50.416,0.385191 L54.4378,0.0219726999 L54.4378,8.86894 C55.0239,7.70145 56.3093,6.75448 58.1809,6.75448 C61.8679,6.75448 63.6509,9.537 63.6509,13.2405 L63.6496,14.0733 Z M59.6278,13.1549 C59.6278,11.2908 58.9024,9.90022 56.9749,9.90022 C55.326,9.90022 54.4326,11.0677 54.4326,12.9603 L54.4326,14.3509 C54.4326,16.2423 55.326,17.4111 56.9749,17.4111 C58.9024,17.4111 59.6278,16.0204 59.6278,14.1564 L59.6278,13.1549 Z" id="Shape"></path>
            <path d="M64.9922,13.9893 L64.9922,13.3226 C64.9922,9.51008 67.1711,6.7561 71.6123,6.7561 C76.0534,6.7561 78.2336,9.51008 78.2336,13.3226 L78.2336,13.9893 C78.2336,17.8005 76.0547,20.5558 71.6136,20.5558 C67.1724,20.5558 64.9922,17.8005 64.9922,13.9893 Z M74.2105,13.0437 C74.2105,11.2911 73.4838,9.90054 71.6057,9.90054 C69.7277,9.90054 69.0075,11.2911 69.0075,13.0437 L69.0075,14.2682 C69.0075,16.0208 69.7342,17.4114 71.6057,17.4114 C73.4773,17.4114 74.2105,16.0208 74.2105,14.2682 L74.2105,13.0437 Z" id="Shape"></path>
            <path d="M79.5742,13.9893 L79.5742,13.3226 C79.5742,9.51008 81.7531,6.7561 86.1943,6.7561 C90.6354,6.7561 92.8143,9.51008 92.8143,13.3226 L92.8143,13.9893 C92.8143,17.8005 90.6354,20.5558 86.1943,20.5558 C81.7531,20.5558 79.5742,17.8005 79.5742,13.9893 Z M88.7926,13.0437 C88.7926,11.2911 88.0658,9.90054 86.1943,9.90054 C84.3227,9.90054 83.5973,11.2911 83.5973,13.0437 L83.5973,14.2682 C83.5973,16.0208 84.3227,17.4114 86.1943,17.4114 C88.0658,17.4114 88.7926,16.0208 88.7926,14.2682 L88.7926,13.0437 Z" id="Shape"></path>
            <polygon id="Path" points="98.3414 13.3495 102.307 7.03468 106.58 7.03468 102.419 13.5726 106.748 20.2766 102.475 20.2766 98.3414 13.7905 98.3414 20.2766 94.3184 20.2766 94.3184 0.385192 98.3414 0.0219726999"></polygon>
        </g>
    </g>
</svg>