<?xml version="1.0" encoding="UTF-8"?>
<svg width="95px" height="84px" viewBox="0 0 95 84" version="1.1" xmlns="http://www.w3.org/2000/svg" xmlns:xlink="http://www.w3.org/1999/xlink">
    <title>Group 18396</title>
    <defs>
        <radialGradient cx="96.9570322%" cy="20.0194285%" fx="96.9570322%" fy="20.0194285%" r="128.146944%" gradientTransform="translate(0.969570,0.200194),scale(1.000000,0.525821),rotate(160.564000),translate(-0.969570,-0.200194)" id="radialGradient-1">
            <stop stop-color="#C6A057" offset="0%"></stop>
            <stop stop-color="#F9FBA0" offset="100%"></stop>
        </radialGradient>
        <radialGradient cx="96.955272%" cy="20.0199144%" fx="96.955272%" fy="20.0199144%" r="133.688666%" gradientTransform="translate(0.969553,0.200199),scale(0.916900,1.000000),rotate(170.345000),translate(-0.969553,-0.200199)" id="radialGradient-2">
            <stop stop-color="#C6A057" offset="0%"></stop>
            <stop stop-color="#F9FBA0" offset="100%"></stop>
        </radialGradient>
        <radialGradient cx="96.957033%" cy="20.0201034%" fx="96.957033%" fy="20.0201034%" r="124.478964%" gradientTransform="translate(0.969570,0.200201),scale(1.000000,0.750958),rotate(166.121000),translate(-0.969570,-0.200201)" id="radialGradient-3">
            <stop stop-color="#C6A057" offset="0%"></stop>
            <stop stop-color="#F9FBA0" offset="100%"></stop>
        </radialGradient>
        <radialGradient cx="96.9563344%" cy="20.020827%" fx="96.9563344%" fy="20.020827%" r="358.473211%" gradientTransform="translate(0.969563,0.200208),scale(0.337771,1.000000),rotate(176.414000),translate(-0.969563,-0.200208)" id="radialGradient-4">
            <stop stop-color="#C6A057" offset="0%"></stop>
            <stop stop-color="#F9FBA0" offset="100%"></stop>
        </radialGradient>
        <radialGradient cx="96.9576921%" cy="20.0194285%" fx="96.9576921%" fy="20.0194285%" r="128.148071%" gradientTransform="translate(0.969577,0.200194),scale(1.000000,0.525811),rotate(160.563000),translate(-0.969577,-0.200194)" id="radialGradient-5">
            <stop stop-color="#C6A057" offset="0%"></stop>
            <stop stop-color="#F9FBA0" offset="100%"></stop>
        </radialGradient>
        <radialGradient cx="96.9562696%" cy="20.018836%" fx="96.9562696%" fy="20.018836%" r="343.360011%" gradientTransform="translate(0.969563,0.200188),scale(0.352698,1.000000),rotate(176.256000),translate(-0.969563,-0.200188)" id="radialGradient-6">
            <stop stop-color="#C6A057" offset="0%"></stop>
            <stop stop-color="#F9FBA0" offset="100%"></stop>
        </radialGradient>
        <radialGradient cx="96.9559719%" cy="20.0197193%" fx="96.9559719%" fy="20.0197193%" r="132.769918%" gradientTransform="translate(0.969560,0.200197),scale(1.000000,0.407716),rotate(155.530000),translate(-0.969560,-0.200197)" id="radialGradient-7">
            <stop stop-color="#C6A057" offset="0%"></stop>
            <stop stop-color="#F9FBA0" offset="100%"></stop>
        </radialGradient>
        <radialGradient cx="96.9565381%" cy="20.0196516%" fx="96.9565381%" fy="20.0196516%" r="297.791445%" gradientTransform="translate(0.969565,0.200197),scale(0.406954,1.000000),rotate(175.682000),translate(-0.969565,-0.200197)" id="radialGradient-8">
            <stop stop-color="#C6A057" offset="0%"></stop>
            <stop stop-color="#F9FBA0" offset="100%"></stop>
        </radialGradient>
        <radialGradient cx="96.9548832%" cy="20.0198486%" fx="96.9548832%" fy="20.0198486%" r="136.084194%" gradientTransform="translate(0.969549,0.200198),scale(1.000000,0.358330),rotate(152.624000),translate(-0.969549,-0.200198)" id="radialGradient-9">
            <stop stop-color="#C6A057" offset="0%"></stop>
            <stop stop-color="#F9FBA0" offset="100%"></stop>
        </radialGradient>
        <radialGradient cx="96.9565046%" cy="20.0188734%" fx="96.9565046%" fy="20.0188734%" r="239.328581%" gradientTransform="translate(0.969565,0.200189),scale(0.507163,1.000000),rotate(174.624000),translate(-0.969565,-0.200189)" id="radialGradient-10">
            <stop stop-color="#C6A057" offset="0%"></stop>
            <stop stop-color="#F9FBA0" offset="100%"></stop>
        </radialGradient>
        <radialGradient cx="96.9552649%" cy="20.0195261%" fx="96.9552649%" fy="20.0195261%" r="136.211364%" gradientTransform="translate(0.969553,0.200195),scale(1.000000,0.356750),rotate(152.521000),translate(-0.969553,-0.200195)" id="radialGradient-11">
            <stop stop-color="#C6A057" offset="0%"></stop>
            <stop stop-color="#F9FBA0" offset="100%"></stop>
        </radialGradient>
        <radialGradient cx="96.9566037%" cy="20.0191244%" fx="96.9566037%" fy="20.0191244%" r="181.518314%" gradientTransform="translate(0.969566,0.200191),scale(0.670881,1.000000),rotate(172.904000),translate(-0.969566,-0.200191)" id="radialGradient-12">
            <stop stop-color="#C6A057" offset="0%"></stop>
            <stop stop-color="#F9FBA0" offset="100%"></stop>
        </radialGradient>
        <radialGradient cx="96.9570963%" cy="20.0201111%" fx="96.9570963%" fy="20.0201111%" r="132.984491%" gradientTransform="translate(0.969571,0.200201),scale(1.000000,0.403909),rotate(155.327000),translate(-0.969571,-0.200201)" id="radialGradient-13">
            <stop stop-color="#C6A057" offset="0%"></stop>
            <stop stop-color="#F9FBA0" offset="100%"></stop>
        </radialGradient>
        <radialGradient cx="96.956982%" cy="20.02024%" fx="96.956982%" fy="20.02024%" r="133.007883%" gradientTransform="translate(0.969570,0.200202),scale(0.921738,1.000000),rotate(170.295000),translate(-0.969570,-0.200202)" id="radialGradient-14">
            <stop stop-color="#C6A057" offset="0%"></stop>
            <stop stop-color="#F9FBA0" offset="100%"></stop>
        </radialGradient>
        <radialGradient cx="96.9557012%" cy="20.0204215%" fx="96.9557012%" fy="20.0204215%" r="128.205737%" gradientTransform="translate(0.969557,0.200204),scale(1.000000,0.523673),rotate(160.490000),translate(-0.969557,-0.200204)" id="radialGradient-15">
            <stop stop-color="#C6A057" offset="0%"></stop>
            <stop stop-color="#F9FBA0" offset="100%"></stop>
        </radialGradient>
        <radialGradient cx="96.9554909%" cy="20.0202332%" fx="96.9554909%" fy="20.0202332%" r="124.314674%" gradientTransform="translate(0.969555,0.200202),scale(1.000000,0.768604),rotate(166.428000),translate(-0.969555,-0.200202)" id="radialGradient-16">
            <stop stop-color="#C6A057" offset="0%"></stop>
            <stop stop-color="#F9FBA0" offset="100%"></stop>
        </radialGradient>
        <radialGradient cx="96.9561142%" cy="20.0190388%" fx="96.9561142%" fy="20.0190388%" r="124.663422%" gradientTransform="translate(0.969561,0.200190),scale(1.000000,0.732276),rotate(165.781000),translate(-0.969561,-0.200190)" id="radialGradient-17">
            <stop stop-color="#C6A057" offset="0%"></stop>
            <stop stop-color="#F9FBA0" offset="100%"></stop>
        </radialGradient>
        <radialGradient cx="96.9562506%" cy="20.0198912%" fx="96.9562506%" fy="20.0198912%" r="128.023971%" gradientTransform="translate(0.969563,0.200199),scale(1.000000,0.530460),rotate(160.721000),translate(-0.969563,-0.200199)" id="radialGradient-18">
            <stop stop-color="#C6A057" offset="0%"></stop>
            <stop stop-color="#F9FBA0" offset="100%"></stop>
        </radialGradient>
        <radialGradient cx="96.9565357%" cy="20.0197473%" fx="96.9565357%" fy="20.0197473%" r="126.242849%" gradientTransform="translate(0.969565,0.200197),scale(0.972703,1.000000),rotate(169.769000),translate(-0.969565,-0.200197)" id="radialGradient-19">
            <stop stop-color="#C6A057" offset="0%"></stop>
            <stop stop-color="#F9FBA0" offset="100%"></stop>
        </radialGradient>
        <radialGradient cx="96.956598%" cy="20.0191482%" fx="96.956598%" fy="20.0191482%" r="134.687159%" gradientTransform="translate(0.969566,0.200191),scale(1.000000,0.376993),rotate(153.794000),translate(-0.969566,-0.200191)" id="radialGradient-20">
            <stop stop-color="#C6A057" offset="0%"></stop>
            <stop stop-color="#F9FBA0" offset="100%"></stop>
        </radialGradient>
        <radialGradient cx="96.95581%" cy="20.0198233%" fx="96.95581%" fy="20.0198233%" r="171.640717%" gradientTransform="translate(0.969558,0.200198),scale(0.710133,1.000000),rotate(172.494000),translate(-0.969558,-0.200198)" id="radialGradient-21">
            <stop stop-color="#C6A057" offset="0%"></stop>
            <stop stop-color="#F9FBA0" offset="100%"></stop>
        </radialGradient>
        <radialGradient cx="96.9554658%" cy="20.02005%" fx="96.9554658%" fy="20.02005%" r="139.360427%" gradientTransform="translate(0.969555,0.200200),scale(1.000000,0.323044),rotate(150.128000),translate(-0.969555,-0.200200)" id="radialGradient-22">
            <stop stop-color="#C6A057" offset="0%"></stop>
            <stop stop-color="#F9FBA0" offset="100%"></stop>
        </radialGradient>
        <radialGradient cx="96.9558275%" cy="20.0201957%" fx="96.9558275%" fy="20.0201957%" r="226.362298%" gradientTransform="translate(0.969558,0.200202),scale(0.536487,1.000000),rotate(174.315000),translate(-0.969558,-0.200202)" id="radialGradient-23">
            <stop stop-color="#C6A057" offset="0%"></stop>
            <stop stop-color="#F9FBA0" offset="100%"></stop>
        </radialGradient>
        <radialGradient cx="96.9563543%" cy="20.019831%" fx="96.9563543%" fy="20.019831%" r="137.515589%" gradientTransform="translate(0.969564,0.200198),scale(1.000000,0.341639),rotate(151.493000),translate(-0.969564,-0.200198)" id="radialGradient-24">
            <stop stop-color="#C6A057" offset="0%"></stop>
            <stop stop-color="#F9FBA0" offset="100%"></stop>
        </radialGradient>
        <radialGradient cx="96.9571332%" cy="20.019822%" fx="96.9571332%" fy="20.019822%" r="282.119348%" gradientTransform="translate(0.969571,0.200198),scale(0.429706,1.000000),rotate(175.441000),translate(-0.969571,-0.200198)" id="radialGradient-25">
            <stop stop-color="#C6A057" offset="0%"></stop>
            <stop stop-color="#F9FBA0" offset="100%"></stop>
        </radialGradient>
        <radialGradient cx="96.9566597%" cy="20.0200208%" fx="96.9566597%" fy="20.0200208%" r="131.524482%" gradientTransform="translate(0.969567,0.200200),scale(1.000000,0.431898),rotate(156.751000),translate(-0.969567,-0.200200)" id="radialGradient-26">
            <stop stop-color="#C6A057" offset="0%"></stop>
            <stop stop-color="#F9FBA0" offset="100%"></stop>
        </radialGradient>
        <radialGradient cx="96.9563883%" cy="20.0198733%" fx="96.9563883%" fy="20.0198733%" r="127.041823%" gradientTransform="translate(0.969564,0.200199),scale(1.000000,0.572062),rotate(162.030000),translate(-0.969564,-0.200199)" id="radialGradient-27">
            <stop stop-color="#C6A057" offset="0%"></stop>
            <stop stop-color="#F9FBA0" offset="100%"></stop>
        </radialGradient>
        <radialGradient cx="96.9565726%" cy="20.0199144%" fx="96.9565726%" fy="20.0199144%" r="133.691078%" gradientTransform="translate(0.969566,0.200199),scale(0.916900,1.000000),rotate(170.345000),translate(-0.969566,-0.200199)" id="radialGradient-28">
            <stop stop-color="#C6A057" offset="0%"></stop>
            <stop stop-color="#F9FBA0" offset="100%"></stop>
        </radialGradient>
        <radialGradient cx="96.9557655%" cy="20.0201034%" fx="96.9557655%" fy="20.0201034%" r="124.477785%" gradientTransform="translate(0.969558,0.200201),scale(1.000000,0.750968),rotate(166.121000),translate(-0.969558,-0.200201)" id="radialGradient-29">
            <stop stop-color="#C6A057" offset="0%"></stop>
            <stop stop-color="#F9FBA0" offset="100%"></stop>
        </radialGradient>
        <radialGradient cx="96.9565327%" cy="20.020827%" fx="96.9565327%" fy="20.020827%" r="358.478246%" gradientTransform="translate(0.969565,0.200208),scale(0.337765,1.000000),rotate(176.414000),translate(-0.969565,-0.200208)" id="radialGradient-30">
            <stop stop-color="#C6A057" offset="0%"></stop>
            <stop stop-color="#F9FBA0" offset="100%"></stop>
        </radialGradient>
        <radialGradient cx="96.9568712%" cy="20.0185047%" fx="96.9568712%" fy="20.0185047%" r="343.356812%" gradientTransform="translate(0.969569,0.200185),scale(0.352704,1.000000),rotate(176.256000),translate(-0.969569,-0.200185)" id="radialGradient-31">
            <stop stop-color="#C6A057" offset="0%"></stop>
            <stop stop-color="#F9FBA0" offset="100%"></stop>
        </radialGradient>
        <radialGradient cx="96.9554758%" cy="20.0197193%" fx="96.9554758%" fy="20.0197193%" r="132.769289%" gradientTransform="translate(0.969555,0.200197),scale(1.000000,0.407717),rotate(155.530000),translate(-0.969555,-0.200197)" id="radialGradient-32">
            <stop stop-color="#C6A057" offset="0%"></stop>
            <stop stop-color="#F9FBA0" offset="100%"></stop>
        </radialGradient>
        <radialGradient cx="96.9567576%" cy="20.0196516%" fx="96.9567576%" fy="20.0196516%" r="297.791445%" gradientTransform="translate(0.969568,0.200197),scale(0.406958,1.000000),rotate(175.682000),translate(-0.969568,-0.200197)" id="radialGradient-33">
            <stop stop-color="#C6A057" offset="0%"></stop>
            <stop stop-color="#F9FBA0" offset="100%"></stop>
        </radialGradient>
        <radialGradient cx="96.9571022%" cy="20.0198486%" fx="96.9571022%" fy="20.0198486%" r="136.084516%" gradientTransform="translate(0.969571,0.200198),scale(1.000000,0.358336),rotate(152.625000),translate(-0.969571,-0.200198)" id="radialGradient-34">
            <stop stop-color="#C6A057" offset="0%"></stop>
            <stop stop-color="#F9FBA0" offset="100%"></stop>
        </radialGradient>
        <radialGradient cx="96.9555001%" cy="20.0188734%" fx="96.9555001%" fy="20.0188734%" r="239.326636%" gradientTransform="translate(0.969555,0.200189),scale(0.507163,1.000000),rotate(174.624000),translate(-0.969555,-0.200189)" id="radialGradient-35">
            <stop stop-color="#C6A057" offset="0%"></stop>
            <stop stop-color="#F9FBA0" offset="100%"></stop>
        </radialGradient>
        <radialGradient cx="96.9544318%" cy="20.0195261%" fx="96.9544318%" fy="20.0195261%" r="136.210538%" gradientTransform="translate(0.969544,0.200195),scale(1.000000,0.356755),rotate(152.521000),translate(-0.969544,-0.200195)" id="radialGradient-36">
            <stop stop-color="#C6A057" offset="0%"></stop>
            <stop stop-color="#F9FBA0" offset="100%"></stop>
        </radialGradient>
        <radialGradient cx="96.9559813%" cy="20.0192596%" fx="96.9559813%" fy="20.0192596%" r="181.478666%" gradientTransform="translate(0.969560,0.200193),scale(0.671027,1.000000),rotate(172.903000),translate(-0.969560,-0.200193)" id="radialGradient-37">
            <stop stop-color="#C6A057" offset="0%"></stop>
            <stop stop-color="#F9FBA0" offset="100%"></stop>
        </radialGradient>
        <radialGradient cx="96.9559408%" cy="20.0201111%" fx="96.9559408%" fy="20.0201111%" r="132.985214%" gradientTransform="translate(0.969559,0.200201),scale(1.000000,0.403907),rotate(155.327000),translate(-0.969559,-0.200201)" id="radialGradient-38">
            <stop stop-color="#C6A057" offset="0%"></stop>
            <stop stop-color="#F9FBA0" offset="100%"></stop>
        </radialGradient>
        <radialGradient cx="96.9563711%" cy="20.02024%" fx="96.9563711%" fy="20.02024%" r="133.007613%" gradientTransform="translate(0.969564,0.200202),scale(0.921743,1.000000),rotate(170.295000),translate(-0.969564,-0.200202)" id="radialGradient-39">
            <stop stop-color="#C6A057" offset="0%"></stop>
            <stop stop-color="#F9FBA0" offset="100%"></stop>
        </radialGradient>
        <radialGradient cx="96.955983%" cy="20.0204215%" fx="96.955983%" fy="20.0204215%" r="128.205988%" gradientTransform="translate(0.969560,0.200204),scale(1.000000,0.523674),rotate(160.490000),translate(-0.969560,-0.200204)" id="radialGradient-40">
            <stop stop-color="#C6A057" offset="0%"></stop>
            <stop stop-color="#F9FBA0" offset="100%"></stop>
        </radialGradient>
        <radialGradient cx="96.9564596%" cy="20.0202332%" fx="96.9564596%" fy="20.0202332%" r="124.315681%" gradientTransform="translate(0.969565,0.200202),scale(1.000000,0.768599),rotate(166.428000),translate(-0.969565,-0.200202)" id="radialGradient-41">
            <stop stop-color="#C6A057" offset="0%"></stop>
            <stop stop-color="#F9FBA0" offset="100%"></stop>
        </radialGradient>
        <radialGradient cx="96.9570744%" cy="20.0190388%" fx="96.9570744%" fy="20.0190388%" r="124.663634%" gradientTransform="translate(0.969571,0.200190),scale(1.000000,0.732263),rotate(165.781000),translate(-0.969571,-0.200190)" id="radialGradient-42">
            <stop stop-color="#C6A057" offset="0%"></stop>
            <stop stop-color="#F9FBA0" offset="100%"></stop>
        </radialGradient>
        <radialGradient cx="96.9562243%" cy="20.0198912%" fx="96.9562243%" fy="20.0198912%" r="128.023401%" gradientTransform="translate(0.969562,0.200199),scale(1.000000,0.530458),rotate(160.721000),translate(-0.969562,-0.200199)" id="radialGradient-43">
            <stop stop-color="#C6A057" offset="0%"></stop>
            <stop stop-color="#F9FBA0" offset="100%"></stop>
        </radialGradient>
        <radialGradient cx="96.9564538%" cy="20.0197473%" fx="96.9564538%" fy="20.0197473%" r="126.244143%" gradientTransform="translate(0.969565,0.200197),scale(0.972694,1.000000),rotate(169.769000),translate(-0.969565,-0.200197)" id="radialGradient-44">
            <stop stop-color="#C6A057" offset="0%"></stop>
            <stop stop-color="#F9FBA0" offset="100%"></stop>
        </radialGradient>
        <radialGradient cx="96.956346%" cy="20.0191482%" fx="96.956346%" fy="20.0191482%" r="134.687785%" gradientTransform="translate(0.969563,0.200191),scale(1.000000,0.376995),rotate(153.795000),translate(-0.969563,-0.200191)" id="radialGradient-45">
            <stop stop-color="#C6A057" offset="0%"></stop>
            <stop stop-color="#F9FBA0" offset="100%"></stop>
        </radialGradient>
        <radialGradient cx="96.9559069%" cy="20.0198233%" fx="96.9559069%" fy="20.0198233%" r="171.63902%" gradientTransform="translate(0.969559,0.200198),scale(0.710145,1.000000),rotate(172.494000),translate(-0.969559,-0.200198)" id="radialGradient-46">
            <stop stop-color="#C6A057" offset="0%"></stop>
            <stop stop-color="#F9FBA0" offset="100%"></stop>
        </radialGradient>
        <radialGradient cx="96.9561674%" cy="20.02005%" fx="96.9561674%" fy="20.02005%" r="139.35923%" gradientTransform="translate(0.969562,0.200200),scale(1.000000,0.323042),rotate(150.128000),translate(-0.969562,-0.200200)" id="radialGradient-47">
            <stop stop-color="#C6A057" offset="0%"></stop>
            <stop stop-color="#F9FBA0" offset="100%"></stop>
        </radialGradient>
        <radialGradient cx="96.95669%" cy="20.0201957%" fx="96.95669%" fy="20.0201957%" r="226.360296%" gradientTransform="translate(0.969567,0.200202),scale(0.536496,1.000000),rotate(174.315000),translate(-0.969567,-0.200202)" id="radialGradient-48">
            <stop stop-color="#C6A057" offset="0%"></stop>
            <stop stop-color="#F9FBA0" offset="100%"></stop>
        </radialGradient>
        <radialGradient cx="96.9556195%" cy="20.019831%" fx="96.9556195%" fy="20.019831%" r="137.517592%" gradientTransform="translate(0.969556,0.200198),scale(1.000000,0.341633),rotate(151.493000),translate(-0.969556,-0.200198)" id="radialGradient-49">
            <stop stop-color="#C6A057" offset="0%"></stop>
            <stop stop-color="#F9FBA0" offset="100%"></stop>
        </radialGradient>
        <radialGradient cx="96.9568477%" cy="20.019822%" fx="96.9568477%" fy="20.019822%" r="282.123914%" gradientTransform="translate(0.969568,0.200198),scale(0.429698,1.000000),rotate(175.442000),translate(-0.969568,-0.200198)" id="radialGradient-50">
            <stop stop-color="#C6A057" offset="0%"></stop>
            <stop stop-color="#F9FBA0" offset="100%"></stop>
        </radialGradient>
        <radialGradient cx="96.9567086%" cy="20.0200208%" fx="96.9567086%" fy="20.0200208%" r="131.523596%" gradientTransform="translate(0.969567,0.200200),scale(1.000000,0.431906),rotate(156.751000),translate(-0.969567,-0.200200)" id="radialGradient-51">
            <stop stop-color="#C6A057" offset="0%"></stop>
            <stop stop-color="#F9FBA0" offset="100%"></stop>
        </radialGradient>
        <radialGradient cx="96.9563705%" cy="20.0199233%" fx="96.9563705%" fy="20.0199233%" r="127.040406%" gradientTransform="translate(0.969564,0.200199),scale(1.000000,0.572127),rotate(162.032000),translate(-0.969564,-0.200199)" id="radialGradient-52">
            <stop stop-color="#C6A057" offset="0%"></stop>
            <stop stop-color="#F9FBA0" offset="100%"></stop>
        </radialGradient>
        <radialGradient cx="96.9563334%" cy="20.0198395%" fx="96.9563334%" fy="20.0198395%" r="165.035921%" gradientTransform="translate(0.969563,0.200198),scale(0.739078,1.000000),rotate(172.192000),translate(-0.969563,-0.200198)" id="radialGradient-53">
            <stop stop-color="#C6A057" offset="0%"></stop>
            <stop stop-color="#F9FBA0" offset="100%"></stop>
        </radialGradient>
    </defs>
    <g id="Page-1" stroke="none" stroke-width="1" fill="none" fill-rule="evenodd">
        <g id="Group-18396" transform="translate(0.000000, 0.000977)" fill-rule="nonzero">
            <path d="M36.6742,50.2685234 C36.6873,50.2685234 36.6978,50.2738234 36.7056,50.2843234 C36.7161,50.2922234 36.7213,50.3027234 36.7213,50.3159234 L36.7213,50.7026234 C36.7213,50.7158234 36.7161,50.7276234 36.7056,50.7382234 C36.6978,50.7461234 36.6873,50.7500234 36.6742,50.7500234 L35.9715,50.7500234 C35.9584,50.7500234 35.9518,50.7566234 35.9518,50.7697234 L35.9518,52.9837234 C35.9518,52.9968234 35.9466,53.0087234 35.9361,53.0192234 C35.9283,53.0271234 35.9178,53.0311234 35.9047,53.0311234 L35.4454,53.0311234 C35.4323,53.0311234 35.4205,53.0271234 35.4101,53.0192234 C35.4022,53.0087234 35.3983,52.9968234 35.3983,52.9837234 L35.3983,50.7697234 C35.3983,50.7566234 35.3918,50.7500234 35.3787,50.7500234 L34.6956,50.7500234 C34.6825,50.7500234 34.6707,50.7461234 34.6602,50.7382234 C34.6524,50.7276234 34.6485,50.7158234 34.6485,50.7026234 L34.6485,50.3159234 C34.6485,50.3027234 34.6524,50.2922234 34.6602,50.2843234 C34.6707,50.2738234 34.6825,50.2685234 34.6956,50.2685234 L36.6742,50.2685234 Z M37.6007,53.0626234 C37.3808,53.0626234 37.1924,53.0047234 37.0354,52.8890234 C36.8783,52.7732234 36.771,52.6154234 36.7135,52.4154234 C36.6768,52.2917234 36.6585,52.1576234 36.6585,52.0129234 C36.6585,51.8576234 36.6768,51.7182234 36.7135,51.5945234 C36.7737,51.3998234 36.8823,51.2473234 37.0393,51.1368234 C37.1963,51.0263234 37.3848,50.9710234 37.6046,50.9710234 C37.8192,50.9710234 38.0024,51.0263234 38.1542,51.1368234 C38.306,51.2446234 38.4133,51.3959234 38.4762,51.5906234 C38.518,51.7221234 38.539,51.8603234 38.539,52.0050234 C38.539,52.1470234 38.5206,52.2799234 38.484,52.4036234 C38.4264,52.6088234 38.3191,52.7706234 38.1621,52.8890234 C38.0077,53.0047234 37.8205,53.0626234 37.6007,53.0626234 Z M37.6007,52.5851234 C37.6871,52.5851234 37.7603,52.5588234 37.8205,52.5062234 C37.8807,52.4536234 37.9239,52.3812234 37.9501,52.2891234 C37.971,52.2049234 37.9815,52.1128234 37.9815,52.0129234 C37.9815,51.9024234 37.971,51.8090234 37.9501,51.7327234 C37.9213,51.6432234 37.8768,51.5735234 37.8166,51.5235234 C37.7564,51.4735234 37.6831,51.4485234 37.5968,51.4485234 C37.5078,51.4485234 37.4332,51.4735234 37.373,51.5235234 C37.3154,51.5735234 37.2735,51.6432234 37.2474,51.7327234 C37.2264,51.7958234 37.216,51.8892234 37.216,52.0129234 C37.216,52.1313234 37.2251,52.2233234 37.2434,52.2891234 C37.2696,52.3812234 37.3128,52.4536234 37.373,52.5062234 C37.4358,52.5588234 37.5117,52.5851234 37.6007,52.5851234 Z M40.6967,51.5472234 C40.7438,51.6814234 40.7674,51.8392234 40.7674,52.0208234 C40.7674,52.2023234 40.7425,52.3667234 40.6928,52.5141234 C40.6326,52.6824234 40.5371,52.8166234 40.4062,52.9166234 C40.278,53.0139234 40.1183,53.0626234 39.9272,53.0626234 C39.7388,53.0626234 39.5922,52.9968234 39.4875,52.8653234 C39.4823,52.8574234 39.4771,52.8548234 39.4718,52.8574234 C39.4666,52.8600234 39.464,52.8653234 39.464,52.8732234 L39.464,53.7177234 C39.464,53.7309234 39.4588,53.7414234 39.4483,53.7493234 C39.4404,53.7598234 39.43,53.7651234 39.4169,53.7651234 L38.9576,53.7651234 C38.9445,53.7651234 38.9327,53.7598234 38.9222,53.7493234 C38.9144,53.7414234 38.9105,53.7309234 38.9105,53.7177234 L38.9105,51.0499234 C38.9105,51.0368234 38.9144,51.0263234 38.9222,51.0184234 C38.9327,51.0078234 38.9445,51.0026234 38.9576,51.0026234 L39.4169,51.0026234 C39.43,51.0026234 39.4404,51.0078234 39.4483,51.0184234 C39.4588,51.0263234 39.464,51.0368234 39.464,51.0499234 L39.464,51.1802234 C39.464,51.1881234 39.4666,51.1933234 39.4718,51.1960234 C39.4771,51.1960234 39.4823,51.1933234 39.4875,51.1881234 C39.5975,51.0434234 39.7493,50.9710234 39.9429,50.9710234 C40.1235,50.9710234 40.2793,51.0223234 40.4101,51.1249234 C40.5436,51.2249234 40.6391,51.3656234 40.6967,51.5472234 Z M40.0961,52.4312234 C40.1615,52.3286234 40.1942,52.1891234 40.1942,52.0129234 C40.1942,51.8471234 40.1667,51.7156234 40.1118,51.6182234 C40.0516,51.5051234 39.9547,51.4485234 39.8212,51.4485234 C39.7009,51.4485234 39.6106,51.5051234 39.5504,51.6182234 C39.4954,51.7129234 39.4679,51.8458234 39.4679,52.0168234 C39.4679,52.1931234 39.4967,52.3299234 39.5543,52.4272234 C39.6145,52.5325234 39.7035,52.5851234 39.8212,52.5851234 C39.939,52.5851234 40.0306,52.5338234 40.0961,52.4312234 Z M41.0715,52.1036234 C41.0584,52.1036234 41.0466,52.0997234 41.0361,52.0918234 C41.0283,52.0813234 41.0244,52.0694234 41.0244,52.0563234 L41.0244,51.6735234 C41.0244,51.6603234 41.0283,51.6498234 41.0361,51.6419234 C41.0466,51.6314234 41.0584,51.6261234 41.0715,51.6261234 L42.3552,51.6261234 C42.3683,51.6261234 42.3788,51.6314234 42.3866,51.6419234 C42.3971,51.6498234 42.4023,51.6603234 42.4023,51.6735234 L42.4023,52.0563234 C42.4023,52.0694234 42.3971,52.0813234 42.3866,52.0918234 C42.3788,52.0997234 42.3683,52.1036234 42.3552,52.1036234 L41.0715,52.1036234 Z M44.2638,53.0311234 C44.2377,53.0311234 44.2193,53.0192234 44.2089,52.9955234 L43.7181,51.9024234 C43.7129,51.8918234 43.705,51.8866234 43.6946,51.8866234 L43.3295,51.8866234 C43.3164,51.8866234 43.3098,51.8932234 43.3098,51.9063234 L43.3098,52.9837234 C43.3098,52.9968234 43.3046,53.0087234 43.2941,53.0192234 C43.2863,53.0271234 43.2758,53.0311234 43.2627,53.0311234 L42.8034,53.0311234 C42.7903,53.0311234 42.7785,53.0271234 42.7681,53.0192234 C42.7602,53.0087234 42.7563,52.9968234 42.7563,52.9837234 L42.7563,50.3159234 C42.7563,50.3027234 42.7602,50.2922234 42.7681,50.2843234 C42.7785,50.2738234 42.7903,50.2685234 42.8034,50.2685234 L43.9262,50.2685234 C44.0937,50.2685234 44.2403,50.3027234 44.3659,50.3711234 C44.4941,50.4395234 44.5923,50.5369234 44.6603,50.6632234 C44.731,50.7895234 44.7663,50.9355234 44.7663,51.1012234 C44.7663,51.2801234 44.7218,51.4341234 44.6328,51.5630234 C44.5439,51.6893234 44.4195,51.7787234 44.2599,51.8313234 C44.2468,51.8366234 44.2429,51.8458234 44.2481,51.8590234 L44.782,52.9758234 C44.7873,52.9863234 44.7899,52.9942234 44.7899,52.9995234 C44.7899,53.0205234 44.7755,53.0311234 44.7467,53.0311234 L44.2638,53.0311234 Z M43.3295,50.7461234 C43.3164,50.7461234 43.3098,50.7526234 43.3098,50.7658234 L43.3098,51.4406234 C43.3098,51.4538234 43.3164,51.4604234 43.3295,51.4604234 L43.8438,51.4604234 C43.9537,51.4604234 44.0427,51.4275234 44.1107,51.3617234 C44.1814,51.2959234 44.2167,51.2104234 44.2167,51.1052234 C44.2167,50.9999234 44.1814,50.9144234 44.1107,50.8487234 C44.0427,50.7803234 43.9537,50.7461234 43.8438,50.7461234 L43.3295,50.7461234 Z M45.9372,50.9710234 C46.1073,50.9710234 46.2591,51.0013234 46.3926,51.0618234 C46.5261,51.1197234 46.6295,51.1999234 46.7028,51.3025234 C46.7787,51.4051234 46.8166,51.5196234 46.8166,51.6458234 L46.8166,52.9837234 C46.8166,52.9968234 46.8114,53.0087234 46.8009,53.0192234 C46.793,53.0271234 46.7826,53.0311234 46.7695,53.0311234 L46.3102,53.0311234 C46.2971,53.0311234 46.2853,53.0271234 46.2748,53.0192234 C46.267,53.0087234 46.2631,52.9968234 46.2631,52.9837234 L46.2631,52.8535234 C46.2631,52.8456234 46.2604,52.8403234 46.2552,52.8377234 C46.25,52.8350234 46.2447,52.8377234 46.2395,52.8456234 C46.1296,52.9903234 45.9529,53.0626234 45.7095,53.0626234 C45.5054,53.0626234 45.3405,53.0126234 45.2149,52.9127234 C45.0892,52.8127234 45.0264,52.6653234 45.0264,52.4707234 C45.0264,52.2681234 45.0971,52.1115234 45.2384,52.0010234 C45.3797,51.8879234 45.5813,51.8313234 45.843,51.8313234 L46.2434,51.8313234 C46.2565,51.8313234 46.2631,51.8248234 46.2631,51.8116234 L46.2631,51.7248234 C46.2631,51.6380234 46.2369,51.5709234 46.1845,51.5235234 C46.1322,51.4735234 46.0537,51.4485234 45.949,51.4485234 C45.8679,51.4485234 45.7998,51.4630234 45.7448,51.4919234 C45.6925,51.5209234 45.6585,51.5617234 45.6428,51.6143234 C45.6349,51.6432234 45.6179,51.6564234 45.5917,51.6537234 L45.1167,51.5906234 C45.0853,51.5853234 45.0709,51.5735234 45.0735,51.5551234 C45.084,51.4446234 45.1272,51.3446234 45.2031,51.2551234 C45.2816,51.1657234 45.3837,51.0960234 45.5093,51.0460234 C45.6375,50.9960234 45.7802,50.9710234 45.9372,50.9710234 Z M45.8587,52.6482234 C45.9712,52.6482234 46.0668,52.6180234 46.1453,52.5575234 C46.2238,52.4970234 46.2631,52.4193234 46.2631,52.3246234 L46.2631,52.1826234 C46.2631,52.1694234 46.2565,52.1628234 46.2434,52.1628234 L45.9608,52.1628234 C45.843,52.1628234 45.7501,52.1852234 45.682,52.2299234 C45.6166,52.2746234 45.5839,52.3378234 45.5839,52.4194234 C45.5839,52.4904234 45.6088,52.5470234 45.6585,52.5890234 C45.7082,52.6285234 45.7749,52.6482234 45.8587,52.6482234 Z M48.3225,51.4012234 C48.3225,51.4143234 48.3173,51.4262234 48.3068,51.4367234 C48.2989,51.4446234 48.2885,51.4485234 48.2754,51.4485234 L47.8985,51.4485234 C47.8854,51.4485234 47.8789,51.4551234 47.8789,51.4683234 L47.8789,52.3049234 C47.8789,52.3917234 47.8959,52.4562234 47.9299,52.4983234 C47.9665,52.5404234 48.0241,52.5614234 48.1026,52.5614234 L48.2322,52.5614234 C48.2453,52.5614234 48.2557,52.5667234 48.2636,52.5772234 C48.2741,52.5851234 48.2793,52.5956234 48.2793,52.6088234 L48.2793,52.9837234 C48.2793,53.0126234 48.2636,53.0297234 48.2322,53.0350234 C48.1223,53.0403234 48.0438,53.0429234 47.9966,53.0429234 C47.7794,53.0429234 47.6171,53.0074234 47.5098,52.9363234 C47.4025,52.8627234 47.3476,52.7259234 47.345,52.5259234 L47.345,51.4683234 C47.345,51.4551234 47.3384,51.4485234 47.3253,51.4485234 L47.1015,51.4485234 C47.0885,51.4485234 47.0767,51.4446234 47.0662,51.4367234 C47.0584,51.4262234 47.0544,51.4143234 47.0544,51.4012234 L47.0544,51.0499234 C47.0544,51.0368234 47.0584,51.0263234 47.0662,51.0184234 C47.0767,51.0078234 47.0885,51.0026234 47.1015,51.0026234 L47.3253,51.0026234 C47.3384,51.0026234 47.345,50.9960234 47.345,50.9828234 L47.345,50.5132234 C47.345,50.5001234 47.3489,50.4895234 47.3567,50.4816234 C47.3672,50.4711234 47.379,50.4659234 47.3921,50.4659234 L47.8318,50.4659234 C47.8448,50.4659234 47.8553,50.4711234 47.8632,50.4816234 C47.8736,50.4895234 47.8789,50.5001234 47.8789,50.5132234 L47.8789,50.9828234 C47.8789,50.9960234 47.8854,51.0026234 47.8985,51.0026234 L48.2754,51.0026234 C48.2885,51.0026234 48.2989,51.0078234 48.3068,51.0184234 C48.3173,51.0263234 48.3225,51.0368234 48.3225,51.0499234 L48.3225,51.4012234 Z M50.4151,51.8077234 C50.4308,51.9076234 50.4361,52.0194234 50.4308,52.1431234 C50.4282,52.1747234 50.4112,52.1905234 50.3798,52.1905234 L49.1667,52.1905234 C49.151,52.1905234 49.1458,52.1970234 49.151,52.2102234 C49.1588,52.2628234 49.1732,52.3154234 49.1942,52.3680234 C49.2622,52.5154234 49.4009,52.5890234 49.6103,52.5890234 C49.7778,52.5864234 49.91,52.5180234 50.0068,52.3838234 C50.0173,52.3680234 50.0291,52.3602234 50.0422,52.3602234 C50.05,52.3602234 50.0592,52.3654234 50.0696,52.3759234 L50.3523,52.6561234 C50.3654,52.6693234 50.3719,52.6811234 50.3719,52.6917234 C50.3719,52.6969234 50.3667,52.7074234 50.3562,52.7232234 C50.2699,52.8311234 50.1586,52.9153234 50.0225,52.9758234 C49.8864,53.0337234 49.7373,53.0626234 49.575,53.0626234 C49.3499,53.0626234 49.1589,53.0113234 49.0018,52.9087234 C48.8474,52.8061234 48.7362,52.6627234 48.6681,52.4785234 C48.6132,52.3470234 48.5857,52.1747234 48.5857,51.9616234 C48.5857,51.8169234 48.6053,51.6893234 48.6446,51.5788234 C48.7048,51.3920234 48.8095,51.2433234 48.9586,51.1328234 C49.1104,51.0223234 49.2897,50.9671234 49.4965,50.9671234 C49.7582,50.9671234 49.9676,51.0434234 50.1246,51.1960234 C50.2843,51.3485234 50.3811,51.5524234 50.4151,51.8077234 Z M49.5004,51.4485234 C49.3355,51.4485234 49.2269,51.5261234 49.1746,51.6814234 C49.1641,51.7156234 49.1549,51.7577234 49.1471,51.8077234 C49.1471,51.8208234 49.1536,51.8274234 49.1667,51.8274234 L49.8459,51.8274234 C49.8616,51.8274234 49.8668,51.8208234 49.8616,51.8077234 C49.8485,51.7314234 49.8419,51.6945234 49.8419,51.6972234 C49.8184,51.6182234 49.7765,51.5577234 49.7163,51.5156234 C49.6587,51.4709234 49.5868,51.4485234 49.5004,51.4485234 Z M52.0244,50.3159234 C52.0244,50.3027234 52.0283,50.2922234 52.0362,50.2843234 C52.0466,50.2738234 52.0584,50.2685234 52.0715,50.2685234 L52.5308,50.2685234 C52.5439,50.2685234 52.5544,50.2738234 52.5622,50.2843234 C52.5727,50.2922234 52.5779,50.3027234 52.5779,50.3159234 L52.5779,52.9837234 C52.5779,52.9968234 52.5727,53.0087234 52.5622,53.0192234 C52.5544,53.0271234 52.5439,53.0311234 52.5308,53.0311234 L52.0715,53.0311234 C52.0584,53.0311234 52.0466,53.0271234 52.0362,53.0192234 C52.0283,53.0087234 52.0244,52.9968234 52.0244,52.9837234 L52.0244,52.8535234 C52.0244,52.8456234 52.0218,52.8416234 52.0165,52.8416234 C52.0113,52.8390234 52.0061,52.8403234 52.0008,52.8456234 C51.8909,52.9903234 51.7404,53.0626234 51.5494,53.0626234 C51.3662,53.0626234 51.2078,53.0113234 51.0743,52.9087234 C50.9435,52.8061234 50.8493,52.6653234 50.7917,52.4864234 C50.7472,52.3496234 50.7249,52.1905234 50.7249,52.0089234 C50.7249,51.8221234 50.7485,51.6590234 50.7956,51.5196234 C50.8558,51.3512234 50.95,51.2183234 51.0783,51.1210234 C51.2091,51.0210234 51.3701,50.9710234 51.5611,50.9710234 C51.7496,50.9710234 51.8961,51.0368234 52.0008,51.1683234 C52.0061,51.1762234 52.0113,51.1789234 52.0165,51.1762234 C52.0218,51.1736234 52.0244,51.1683234 52.0244,51.1604234 L52.0244,50.3159234 Z M51.9419,52.4154234 C51.9943,52.3181234 52.0205,52.1852234 52.0205,52.0168234 C52.0205,51.8405234 51.9917,51.7024234 51.9341,51.6024234 C51.8739,51.4998234 51.7862,51.4485234 51.6711,51.4485234 C51.5481,51.4485234 51.4551,51.4998234 51.3923,51.6024234 C51.3269,51.7050234 51.2942,51.8445234 51.2942,52.0208234 C51.2942,52.1786234 51.3217,52.3102234 51.3766,52.4154234 C51.4421,52.5285234 51.5389,52.5851234 51.6671,52.5851234 C51.7849,52.5851234 51.8765,52.5285234 51.9419,52.4154234 Z M55.5639,53.0311234 C55.5377,53.0311234 55.5207,53.0179234 55.5128,52.9916234 L55.395,52.6048234 C55.3898,52.5943234 55.3833,52.5890234 55.3754,52.5890234 L54.4097,52.5890234 C54.4018,52.5890234 54.3953,52.5943234 54.39,52.6048234 L54.2762,52.9916234 C54.2683,53.0179234 54.2513,53.0311234 54.2251,53.0311234 L53.7266,53.0311234 C53.7109,53.0311234 53.6991,53.0271234 53.6912,53.0192234 C53.6834,53.0087234 53.6821,52.9942234 53.6873,52.9758234 L54.5353,50.3080234 C54.5431,50.2817234 54.5601,50.2685234 54.5863,50.2685234 L55.2027,50.2685234 C55.2289,50.2685234 55.2459,50.2817234 55.2537,50.3080234 L56.1017,52.9758234 C56.1043,52.9811234 56.1056,52.9876234 56.1056,52.9955234 C56.1056,53.0192234 56.0912,53.0311234 56.0624,53.0311234 L55.5639,53.0311234 Z M54.5314,52.1352234 C54.5287,52.1510234 54.534,52.1589234 54.5471,52.1589234 L55.238,52.1589234 C55.2537,52.1589234 55.259,52.1510234 55.2537,52.1352234 L54.9004,50.9631234 C54.8978,50.9526234 54.8938,50.9486234 54.8886,50.9513234 C54.8834,50.9513234 54.8794,50.9552234 54.8768,50.9631234 L54.5314,52.1352234 Z M58.2174,51.5472234 C58.2645,51.6814234 58.2881,51.8392234 58.2881,52.0208234 C58.2881,52.2023234 58.2632,52.3667234 58.2135,52.5141234 C58.1533,52.6824234 58.0577,52.8166234 57.9269,52.9166234 C57.7986,53.0139234 57.639,53.0626234 57.4479,53.0626234 C57.2595,53.0626234 57.1129,52.9968234 57.0082,52.8653234 C57.003,52.8574234 56.9978,52.8548234 56.9925,52.8574234 C56.9873,52.8600234 56.9847,52.8653234 56.9847,52.8732234 L56.9847,53.7177234 C56.9847,53.7309234 56.9794,53.7414234 56.969,53.7493234 C56.9611,53.7598234 56.9507,53.7651234 56.9376,53.7651234 L56.4782,53.7651234 C56.4652,53.7651234 56.4534,53.7598234 56.4429,53.7493234 C56.4351,53.7414234 56.4311,53.7309234 56.4311,53.7177234 L56.4311,51.0499234 C56.4311,51.0368234 56.4351,51.0263234 56.4429,51.0184234 C56.4534,51.0078234 56.4652,51.0026234 56.4782,51.0026234 L56.9376,51.0026234 C56.9507,51.0026234 56.9611,51.0078234 56.969,51.0184234 C56.9794,51.0263234 56.9847,51.0368234 56.9847,51.0499234 L56.9847,51.1802234 C56.9847,51.1881234 56.9873,51.1933234 56.9925,51.1960234 C56.9978,51.1960234 57.003,51.1933234 57.0082,51.1881234 C57.1182,51.0434234 57.27,50.9710234 57.4636,50.9710234 C57.6442,50.9710234 57.7999,51.0223234 57.9308,51.1249234 C58.0643,51.2249234 58.1598,51.3656234 58.2174,51.5472234 Z M57.6167,52.4312234 C57.6822,52.3286234 57.7149,52.1891234 57.7149,52.0129234 C57.7149,51.8471234 57.6874,51.7156234 57.6324,51.6182234 C57.5723,51.5051234 57.4754,51.4485234 57.3419,51.4485234 C57.2215,51.4485234 57.1312,51.5051234 57.0711,51.6182234 C57.0161,51.7129234 56.9886,51.8458234 56.9886,52.0168234 C56.9886,52.1931234 57.0174,52.3299234 57.075,52.4272234 C57.1352,52.5325234 57.2242,52.5851234 57.3419,52.5851234 C57.4597,52.5851234 57.5513,52.5338234 57.6167,52.4312234 Z M60.4486,51.5472234 C60.4957,51.6814234 60.5192,51.8392234 60.5192,52.0208234 C60.5192,52.2023234 60.4944,52.3667234 60.4447,52.5141234 C60.3845,52.6824234 60.2889,52.8166234 60.1581,52.9166234 C60.0298,53.0139234 59.8702,53.0626234 59.6791,53.0626234 C59.4907,53.0626234 59.3441,52.9968234 59.2394,52.8653234 C59.2342,52.8574234 59.229,52.8548234 59.2237,52.8574234 C59.2185,52.8600234 59.2159,52.8653234 59.2159,52.8732234 L59.2159,53.7177234 C59.2159,53.7309234 59.2106,53.7414234 59.2002,53.7493234 C59.1923,53.7598234 59.1818,53.7651234 59.1688,53.7651234 L58.7094,53.7651234 C58.6964,53.7651234 58.6846,53.7598234 58.6741,53.7493234 C58.6663,53.7414234 58.6623,53.7309234 58.6623,53.7177234 L58.6623,51.0499234 C58.6623,51.0368234 58.6663,51.0263234 58.6741,51.0184234 C58.6846,51.0078234 58.6964,51.0026234 58.7094,51.0026234 L59.1688,51.0026234 C59.1818,51.0026234 59.1923,51.0078234 59.2002,51.0184234 C59.2106,51.0263234 59.2159,51.0368234 59.2159,51.0499234 L59.2159,51.1802234 C59.2159,51.1881234 59.2185,51.1933234 59.2237,51.1960234 C59.229,51.1960234 59.2342,51.1933234 59.2394,51.1881234 C59.3493,51.0434234 59.5011,50.9710234 59.6948,50.9710234 C59.8754,50.9710234 60.0311,51.0223234 60.162,51.1249234 C60.2955,51.2249234 60.391,51.3656234 60.4486,51.5472234 Z M59.8479,52.4312234 C59.9134,52.3286234 59.9461,52.1891234 59.9461,52.0129234 C59.9461,51.8471234 59.9186,51.7156234 59.8636,51.6182234 C59.8034,51.5051234 59.7066,51.4485234 59.5731,51.4485234 C59.4527,51.4485234 59.3624,51.5051234 59.3022,51.6182234 C59.2473,51.7129234 59.2198,51.8458234 59.2198,52.0168234 C59.2198,52.1931234 59.2486,52.3299234 59.3062,52.4272234 C59.3664,52.5325234 59.4553,52.5851234 59.5731,52.5851234 C59.6909,52.5851234 59.7825,52.5338234 59.8479,52.4312234 Z M27.9377,58.2930234 C27.9246,58.2930234 27.9129,58.2890234 27.9024,58.2812234 C27.8945,58.2706234 27.8906,58.2588234 27.8906,58.2456234 L27.8906,55.5778234 C27.8906,55.5647234 27.8945,55.5542234 27.9024,55.5463234 C27.9129,55.5357234 27.9246,55.5305234 27.9377,55.5305234 L28.9192,55.5305234 C29.1155,55.5305234 29.2869,55.5660234 29.4335,55.6370234 C29.5827,55.7054234 29.6978,55.8028234 29.779,55.9291234 C29.8601,56.0554234 29.9007,56.2014234 29.9007,56.3671234 L29.9007,57.4563234 C29.9007,57.6221234 29.8601,57.7681234 29.779,57.8944234 C29.6978,58.0207234 29.5827,58.1193234 29.4335,58.1904234 C29.2869,58.2588234 29.1155,58.2930234 28.9192,58.2930234 L27.9377,58.2930234 Z M28.4442,57.7957234 C28.4442,57.8089234 28.4507,57.8155234 28.4638,57.8155234 L28.9388,57.8155234 C29.0592,57.8155234 29.1561,57.7747234 29.2293,57.6931234 C29.3052,57.6116234 29.3445,57.5024234 29.3471,57.3656234 L29.3471,56.4579234 C29.3471,56.3211234 29.3092,56.2119234 29.2333,56.1303234 C29.16,56.0488234 29.0605,56.0080234 28.9349,56.0080234 L28.4638,56.0080234 C28.4507,56.0080234 28.4442,56.0146234 28.4442,56.0277234 L28.4442,57.7957234 Z M32.0684,57.0696234 C32.0841,57.1696234 32.0893,57.2814234 32.0841,57.4050234 C32.0815,57.4366234 32.0644,57.4524234 32.033,57.4524234 L30.82,57.4524234 C30.8042,57.4524234 30.799,57.4590234 30.8043,57.4721234 C30.8121,57.5247234 30.8265,57.5774234 30.8474,57.6300234 C30.9155,57.7773234 31.0542,57.8510234 31.2636,57.8510234 C31.4311,57.8484234 31.5632,57.7800234 31.6601,57.6458234 C31.6706,57.6300234 31.6823,57.6221234 31.6954,57.6221234 C31.7033,57.6221234 31.7124,57.6274234 31.7229,57.6379234 L32.0056,57.9181234 C32.0186,57.9312234 32.0252,57.9431234 32.0252,57.9536234 C32.0252,57.9589234 32.02,57.9694234 32.0095,57.9852234 C31.9231,58.0930234 31.8119,58.1772234 31.6758,58.2377234 C31.5397,58.2956234 31.3905,58.3246234 31.2282,58.3246234 C31.0032,58.3246234 30.8121,58.2733234 30.6551,58.1706234 C30.5007,58.0680234 30.3894,57.9247234 30.3214,57.7405234 C30.2664,57.6089234 30.2389,57.4366234 30.2389,57.2235234 C30.2389,57.0788234 30.2586,56.9512234 30.2978,56.8407234 C30.358,56.6539234 30.4627,56.5052234 30.6119,56.3947234 C30.7637,56.2842234 30.943,56.2290234 31.1497,56.2290234 C31.4114,56.2290234 31.6208,56.3053234 31.7779,56.4579234 C31.9375,56.6105234 32.0343,56.8144234 32.0684,57.0696234 Z M31.1537,56.7105234 C30.9888,56.7105234 30.8801,56.7881234 30.8278,56.9433234 C30.8173,56.9775234 30.8082,57.0196234 30.8003,57.0696234 C30.8003,57.0827234 30.8069,57.0893234 30.82,57.0893234 L31.4991,57.0893234 C31.5148,57.0893234 31.5201,57.0827234 31.5148,57.0696234 C31.5017,56.9933234 31.4952,56.9565234 31.4952,56.9591234 C31.4716,56.8802234 31.4298,56.8196234 31.3696,56.7776234 C31.312,56.7328234 31.24,56.7105234 31.1537,56.7105234 Z M32.8755,58.2930234 C32.8493,58.2930234 32.8323,58.2798234 32.8244,58.2535234 L32.1963,56.3158234 C32.1937,56.3106234 32.1924,56.3040234 32.1924,56.2961234 C32.1924,56.2724234 32.2068,56.2606234 32.2355,56.2606234 L32.742,56.2606234 C32.7708,56.2606234 32.7891,56.2737234 32.7969,56.3000234 L33.1189,57.4958234 C33.1215,57.5037234 33.1254,57.5076234 33.1306,57.5076234 C33.1359,57.5076234 33.1398,57.5037234 33.1424,57.4958234 L33.4643,56.3000234 C33.4722,56.2737234 33.4905,56.2606234 33.5193,56.2606234 L34.0257,56.2685234 C34.0414,56.2685234 34.0532,56.2737234 34.0611,56.2842234 C34.0689,56.2921234 34.0702,56.3053234 34.065,56.3237234 L33.4408,58.2535234 C33.4329,58.2798234 33.4159,58.2930234 33.3897,58.2930234 L32.8755,58.2930234 Z M36.0096,57.0696234 C36.0253,57.1696234 36.0305,57.2814234 36.0253,57.4050234 C36.0227,57.4366234 36.0057,57.4524234 35.9743,57.4524234 L34.7612,57.4524234 C34.7455,57.4524234 34.7402,57.4590234 34.7455,57.4721234 C34.7533,57.5247234 34.7677,57.5774234 34.7886,57.6300234 C34.8567,57.7773234 34.9954,57.8510234 35.2048,57.8510234 C35.3723,57.8484234 35.5045,57.7800234 35.6013,57.6458234 C35.6118,57.6300234 35.6235,57.6221234 35.6366,57.6221234 C35.6445,57.6221234 35.6536,57.6274234 35.6641,57.6379234 L35.9468,57.9181234 C35.9599,57.9312234 35.9664,57.9431234 35.9664,57.9536234 C35.9664,57.9589234 35.9612,57.9694234 35.9507,57.9852234 C35.8643,58.0930234 35.7531,58.1772234 35.617,58.2377234 C35.4809,58.2956234 35.3317,58.3246234 35.1695,58.3246234 C34.9444,58.3246234 34.7533,58.2733234 34.5963,58.1706234 C34.4419,58.0680234 34.3306,57.9247234 34.2626,57.7405234 C34.2076,57.6089234 34.1801,57.4366234 34.1801,57.2235234 C34.1801,57.0788234 34.1998,56.9512234 34.239,56.8407234 C34.2992,56.6539234 34.4039,56.5052234 34.5531,56.3947234 C34.7049,56.2842234 34.8842,56.2290234 35.0909,56.2290234 C35.3527,56.2290234 35.562,56.3053234 35.7191,56.4579234 C35.8787,56.6105234 35.9756,56.8144234 36.0096,57.0696234 Z M35.0949,56.7105234 C34.93,56.7105234 34.8214,56.7881234 34.769,56.9433234 C34.7585,56.9775234 34.7494,57.0196234 34.7415,57.0696234 C34.7415,57.0827234 34.7481,57.0893234 34.7612,57.0893234 L35.4403,57.0893234 C35.456,57.0893234 35.4613,57.0827234 35.456,57.0696234 C35.443,56.9933234 35.4364,56.9565234 35.4364,56.9591234 C35.4129,56.8802234 35.371,56.8196234 35.3108,56.7776234 C35.2532,56.7328234 35.1812,56.7105234 35.0949,56.7105234 Z M36.4135,58.2930234 C36.4004,58.2930234 36.3886,58.2890234 36.3781,58.2812234 C36.3703,58.2706234 36.3663,58.2588234 36.3663,58.2456234 L36.3663,55.5778234 C36.3663,55.5647234 36.3703,55.5542234 36.3781,55.5463234 C36.3886,55.5357234 36.4004,55.5305234 36.4135,55.5305234 L36.8728,55.5305234 C36.8859,55.5305234 36.8963,55.5357234 36.9042,55.5463234 C36.9147,55.5542234 36.9199,55.5647234 36.9199,55.5778234 L36.9199,58.2456234 C36.9199,58.2588234 36.9147,58.2706234 36.9042,58.2812234 C36.8963,58.2890234 36.8859,58.2930234 36.8728,58.2930234 L36.4135,58.2930234 Z M38.2161,58.3246234 C37.9962,58.3246234 37.8078,58.2667234 37.6507,58.1509234 C37.4937,58.0352234 37.3864,57.8773234 37.3288,57.6773234 C37.2922,57.5537234 37.2739,57.4195234 37.2739,57.2748234 C37.2739,57.1196234 37.2922,56.9801234 37.3288,56.8565234 C37.389,56.6618234 37.4976,56.5092234 37.6547,56.3987234 C37.8117,56.2882234 38.0001,56.2329234 38.22,56.2329234 C38.4346,56.2329234 38.6178,56.2882234 38.7696,56.3987234 C38.9214,56.5066234 39.0287,56.6578234 39.0915,56.8525234 C39.1334,56.9841234 39.1543,57.1222234 39.1543,57.2669234 C39.1543,57.4090234 39.136,57.5418234 39.0994,57.6655234 C39.0418,57.8707234 38.9345,58.0325234 38.7775,58.1509234 C38.623,58.2667234 38.4359,58.3246234 38.2161,58.3246234 Z M38.2161,57.8470234 C38.3024,57.8470234 38.3757,57.8207234 38.4359,57.7681234 C38.4961,57.7155234 38.5393,57.6431234 38.5655,57.5511234 C38.5864,57.4669234 38.5969,57.3748234 38.5969,57.2748234 C38.5969,57.1643234 38.5864,57.0709234 38.5655,56.9946234 C38.5367,56.9052234 38.4922,56.8354234 38.432,56.7854234 C38.3718,56.7355234 38.2985,56.7105234 38.2121,56.7105234 C38.1232,56.7105234 38.0486,56.7355234 37.9884,56.7854234 C37.9308,56.8354234 37.8889,56.9052234 37.8627,56.9946234 C37.8418,57.0577234 37.8313,57.1511234 37.8313,57.2748234 C37.8313,57.3932234 37.8405,57.4853234 37.8588,57.5511234 C37.885,57.6431234 37.9282,57.7155234 37.9884,57.7681234 C38.0512,57.8207234 38.1271,57.8470234 38.2161,57.8470234 Z M41.3121,56.8091234 C41.3592,56.9433234 41.3827,57.1012234 41.3827,57.2827234 C41.3827,57.4642234 41.3579,57.6287234 41.3082,57.7760234 C41.248,57.9444234 41.1524,58.0786234 41.0216,58.1785234 C40.8933,58.2759234 40.7337,58.3246234 40.5426,58.3246234 C40.3542,58.3246234 40.2076,58.2588234 40.1029,58.1272234 C40.0977,58.1193234 40.0925,58.1167234 40.0872,58.1193234 C40.082,58.1220234 40.0794,58.1272234 40.0794,58.1351234 L40.0794,58.9797234 C40.0794,58.9928234 40.0741,59.0034234 40.0637,59.0112234 C40.0558,59.0218234 40.0453,59.0270234 40.0323,59.0270234 L39.5729,59.0270234 C39.5599,59.0270234 39.5481,59.0218234 39.5376,59.0112234 C39.5298,59.0034234 39.5258,58.9928234 39.5258,58.9797234 L39.5258,56.3119234 C39.5258,56.2987234 39.5298,56.2882234 39.5376,56.2803234 C39.5481,56.2698234 39.5599,56.2645234 39.5729,56.2645234 L40.0323,56.2645234 C40.0453,56.2645234 40.0558,56.2698234 40.0637,56.2803234 C40.0741,56.2882234 40.0794,56.2987234 40.0794,56.3119234 L40.0794,56.4421234 C40.0794,56.4500234 40.082,56.4553234 40.0872,56.4579234 C40.0925,56.4579234 40.0977,56.4553234 40.1029,56.4500234 C40.2128,56.3053234 40.3646,56.2329234 40.5583,56.2329234 C40.7389,56.2329234 40.8946,56.2842234 41.0255,56.3869234 C41.159,56.4868234 41.2545,56.6276234 41.3121,56.8091234 Z M40.7114,57.6931234 C40.7769,57.5905234 40.8096,57.4511234 40.8096,57.2748234 C40.8096,57.1091234 40.7821,56.9775234 40.7271,56.8802234 C40.6669,56.7670234 40.5701,56.7105234 40.4366,56.7105234 C40.3162,56.7105234 40.2259,56.7670234 40.1657,56.8802234 C40.1108,56.9749234 40.0833,57.1077234 40.0833,57.2788234 C40.0833,57.4550234 40.1121,57.5918234 40.1697,57.6892234 C40.2299,57.7944234 40.3188,57.8470234 40.4366,57.8470234 C40.5544,57.8470234 40.646,57.7957234 40.7114,57.6931234 Z M43.9792,56.2329234 C44.1833,56.2329234 44.343,56.2948234 44.4582,56.4184234 C44.5733,56.5421234 44.6309,56.7157234 44.6309,56.9394234 L44.6309,58.2456234 C44.6309,58.2588234 44.6257,58.2706234 44.6152,58.2812234 C44.6073,58.2890234 44.5969,58.2930234 44.5838,58.2930234 L44.1245,58.2930234 C44.1114,58.2930234 44.0996,58.2890234 44.0891,58.2812234 C44.0813,58.2706234 44.0773,58.2588234 44.0773,58.2456234 L44.0773,57.0617234 C44.0773,56.9538234 44.0499,56.8683234 43.9949,56.8052234 C43.9399,56.7420234 43.8667,56.7105234 43.7751,56.7105234 C43.6835,56.7105234 43.6089,56.7420234 43.5513,56.8052234 C43.4937,56.8683234 43.4649,56.9525234 43.4649,57.0577234 L43.4649,58.2456234 C43.4649,58.2588234 43.4597,58.2706234 43.4492,58.2812234 C43.4414,58.2890234 43.4309,58.2930234 43.4178,58.2930234 L42.9624,58.2930234 C42.9493,58.2930234 42.9375,58.2890234 42.9271,58.2812234 C42.9192,58.2706234 42.9153,58.2588234 42.9153,58.2456234 L42.9153,57.0617234 C42.9153,56.9565234 42.8865,56.8723234 42.8289,56.8091234 C42.7714,56.7433234 42.6968,56.7105234 42.6052,56.7105234 C42.5214,56.7105234 42.4507,56.7355234 42.3932,56.7854234 C42.3382,56.8354234 42.3055,56.9052234 42.295,56.9946234 L42.295,58.2456234 C42.295,58.2588234 42.2898,58.2706234 42.2793,58.2812234 C42.2715,58.2890234 42.261,58.2930234 42.2479,58.2930234 L41.7886,58.2930234 C41.7755,58.2930234 41.7637,58.2890234 41.7532,58.2812234 C41.7454,58.2706234 41.7415,58.2588234 41.7415,58.2456234 L41.7415,56.3119234 C41.7415,56.2987234 41.7454,56.2882234 41.7532,56.2803234 C41.7637,56.2698234 41.7755,56.2645234 41.7886,56.2645234 L42.2479,56.2645234 C42.261,56.2645234 42.2715,56.2698234 42.2793,56.2803234 C42.2898,56.2882234 42.295,56.2987234 42.295,56.3119234 L42.295,56.4658234 C42.295,56.4737234 42.2976,56.4789234 42.3029,56.4816234 C42.3081,56.4842234 42.3133,56.4816234 42.3186,56.4737234 C42.4259,56.3132234 42.5921,56.2329234 42.8172,56.2329234 C42.948,56.2329234 43.0619,56.2606234 43.1587,56.3158234 C43.2582,56.3711234 43.3341,56.4500234 43.3864,56.5526234 C43.3942,56.5684234 43.4034,56.5684234 43.4139,56.5526234 C43.4715,56.4447234 43.5487,56.3645234 43.6455,56.3119234 C43.745,56.2593234 43.8562,56.2329234 43.9792,56.2329234 Z M46.794,57.0696234 C46.8097,57.1696234 46.815,57.2814234 46.8097,57.4050234 C46.8071,57.4366234 46.7901,57.4524234 46.7587,57.4524234 L45.5456,57.4524234 C45.5299,57.4524234 45.5247,57.4590234 45.5299,57.4721234 C45.5378,57.5247234 45.5522,57.5774234 45.5731,57.6300234 C45.6411,57.7773234 45.7799,57.8510234 45.9892,57.8510234 C46.1567,57.8484234 46.2889,57.7800234 46.3857,57.6458234 C46.3962,57.6300234 46.408,57.6221234 46.4211,57.6221234 C46.4289,57.6221234 46.4381,57.6274234 46.4486,57.6379234 L46.7312,57.9181234 C46.7443,57.9312234 46.7508,57.9431234 46.7508,57.9536234 C46.7508,57.9589234 46.7456,57.9694234 46.7351,57.9852234 C46.6488,58.0930234 46.5375,58.1772234 46.4014,58.2377234 C46.2653,58.2956234 46.1162,58.3246234 45.9539,58.3246234 C45.7288,58.3246234 45.5378,58.2733234 45.3807,58.1706234 C45.2263,58.0680234 45.1151,57.9247234 45.047,57.7405234 C44.9921,57.6089234 44.9646,57.4366234 44.9646,57.2235234 C44.9646,57.0788234 44.9842,56.9512234 45.0235,56.8407234 C45.0837,56.6539234 45.1884,56.5052234 45.3375,56.3947234 C45.4893,56.2842234 45.6686,56.2290234 45.8754,56.2290234 C46.1371,56.2290234 46.3465,56.3053234 46.5035,56.4579234 C46.6632,56.6105234 46.76,56.8144234 46.794,57.0696234 Z M45.8793,56.7105234 C45.7144,56.7105234 45.6058,56.7881234 45.5535,56.9433234 C45.543,56.9775234 45.5338,57.0196234 45.526,57.0696234 C45.526,57.0827234 45.5325,57.0893234 45.5456,57.0893234 L46.2248,57.0893234 C46.2405,57.0893234 46.2457,57.0827234 46.2405,57.0696234 C46.2274,56.9933234 46.2209,56.9565234 46.2209,56.9591234 C46.1973,56.8802234 46.1554,56.8196234 46.0952,56.7776234 C46.0376,56.7328234 45.9657,56.7105234 45.8793,56.7105234 Z M48.2031,56.2329234 C48.4125,56.2329234 48.5813,56.2974234 48.7095,56.4263234 C48.8378,56.5552234 48.9019,56.7302234 48.9019,56.9512234 L48.9019,58.2456234 C48.9019,58.2588234 48.8966,58.2706234 48.8862,58.2812234 C48.8783,58.2890234 48.8678,58.2930234 48.8548,58.2930234 L48.3954,58.2930234 C48.3824,58.2930234 48.3706,58.2890234 48.3601,58.2812234 C48.3523,58.2706234 48.3483,58.2588234 48.3483,58.2456234 L48.3483,57.0656234 C48.3483,56.9604234 48.3182,56.8749234 48.258,56.8091234 C48.2005,56.7433234 48.1232,56.7105234 48.0264,56.7105234 C47.9296,56.7105234 47.8511,56.7433234 47.7909,56.8091234 C47.7333,56.8749234 47.7045,56.9604234 47.7045,57.0656234 L47.7045,58.2456234 C47.7045,58.2588234 47.6993,58.2706234 47.6888,58.2812234 C47.6809,58.2890234 47.6705,58.2930234 47.6574,58.2930234 L47.1981,58.2930234 C47.185,58.2930234 47.1732,58.2890234 47.1627,58.2812234 C47.1549,58.2706234 47.1509,58.2588234 47.1509,58.2456234 L47.1509,56.3119234 C47.1509,56.2987234 47.1549,56.2882234 47.1627,56.2803234 C47.1732,56.2698234 47.185,56.2645234 47.1981,56.2645234 L47.6574,56.2645234 C47.6705,56.2645234 47.6809,56.2698234 47.6888,56.2803234 C47.6993,56.2882234 47.7045,56.2987234 47.7045,56.3119234 L47.7045,56.4500234 C47.7045,56.4579234 47.7071,56.4632234 47.7123,56.4658234 C47.7176,56.4684234 47.7215,56.4671234 47.7241,56.4618234 C47.8314,56.3092234 47.9911,56.2329234 48.2031,56.2329234 Z M50.456,56.6631234 C50.456,56.6763234 50.4508,56.6881234 50.4403,56.6986234 C50.4325,56.7065234 50.422,56.7105234 50.4089,56.7105234 L50.032,56.7105234 C50.0189,56.7105234 50.0124,56.7170234 50.0124,56.7302234 L50.0124,57.5668234 C50.0124,57.6537234 50.0294,57.7181234 50.0634,57.7602234 C50.1001,57.8023234 50.1576,57.8234234 50.2362,57.8234234 L50.3657,57.8234234 C50.3788,57.8234234 50.3893,57.8286234 50.3971,57.8391234 C50.4076,57.8470234 50.4128,57.8576234 50.4128,57.8707234 L50.4128,58.2456234 C50.4128,58.2746234 50.3971,58.2917234 50.3657,58.2969234 C50.2558,58.3022234 50.1773,58.3048234 50.1302,58.3048234 C49.9129,58.3048234 49.7507,58.2693234 49.6434,58.1983234 C49.5361,58.1246234 49.4811,57.9878234 49.4785,57.7878234 L49.4785,56.7302234 C49.4785,56.7170234 49.4719,56.7105234 49.4589,56.7105234 L49.2351,56.7105234 C49.222,56.7105234 49.2102,56.7065234 49.1997,56.6986234 C49.1919,56.6881234 49.188,56.6763234 49.188,56.6631234 L49.188,56.3119234 C49.188,56.2987234 49.1919,56.2882234 49.1997,56.2803234 C49.2102,56.2698234 49.222,56.2645234 49.2351,56.2645234 L49.4589,56.2645234 C49.4719,56.2645234 49.4785,56.2579234 49.4785,56.2448234 L49.4785,55.7752234 C49.4785,55.7620234 49.4824,55.7515234 49.4903,55.7436234 C49.5007,55.7331234 49.5125,55.7278234 49.5256,55.7278234 L49.9653,55.7278234 C49.9784,55.7278234 49.9888,55.7331234 49.9967,55.7436234 C50.0072,55.7515234 50.0124,55.7620234 50.0124,55.7752234 L50.0124,56.2448234 C50.0124,56.2579234 50.0189,56.2645234 50.032,56.2645234 L50.4089,56.2645234 C50.422,56.2645234 50.4325,56.2698234 50.4403,56.2803234 C50.4508,56.2882234 50.456,56.2987234 50.456,56.3119234 L50.456,56.6631234 Z M52.5763,58.3246234 C52.3721,58.3246234 52.1929,58.2851234 52.0385,58.2062234 C51.884,58.1246234 51.765,58.0115234 51.6812,57.8668234 C51.5975,57.7221234 51.5556,57.5550234 51.5556,57.3656234 L51.5556,56.4539234 C51.5556,56.2645234 51.5975,56.0974234 51.6812,55.9527234 C51.765,55.8080234 51.884,55.6962234 52.0385,55.6173234 C52.1929,55.5384234 52.3721,55.4989234 52.5763,55.4989234 C52.7778,55.4989234 52.9545,55.5370234 53.1063,55.6133234 C53.2607,55.6870234 53.3798,55.7936234 53.4635,55.9330234 C53.5499,56.0698234 53.5931,56.2290234 53.5931,56.4105234 C53.5931,56.4342234 53.5774,56.4487234 53.546,56.4539234 L53.0867,56.4816234 L53.0788,56.4816234 C53.0526,56.4816234 53.0395,56.4671234 53.0395,56.4382234 C53.0395,56.2987234 52.9964,56.1869234 52.91,56.1027234 C52.8262,56.0185234 52.715,55.9764234 52.5763,55.9764234 C52.435,55.9764234 52.3211,56.0185234 52.2347,56.1027234 C52.151,56.1869234 52.1091,56.2987234 52.1091,56.4382234 L52.1091,57.3893234 C52.1091,57.5261234 52.151,57.6366234 52.2347,57.7208234 C52.3211,57.8049234 52.435,57.8470234 52.5763,57.8470234 C52.715,57.8470234 52.8262,57.8049234 52.91,57.7208234 C52.9964,57.6366234 53.0395,57.5261234 53.0395,57.3893234 C53.0395,57.3603234 53.0552,57.3458234 53.0867,57.3458234 L53.546,57.3656234 C53.5591,57.3656234 53.5695,57.3695234 53.5774,57.3774234 C53.5879,57.3853234 53.5931,57.3945234 53.5931,57.4050234 C53.5931,57.5866234 53.5499,57.7471234 53.4635,57.8865234 C53.3798,58.0259234 53.2607,58.1338234 53.1063,58.2101234 C52.9545,58.2864234 52.7778,58.3246234 52.5763,58.3246234 Z M54.851,58.3246234 C54.6311,58.3246234 54.4427,58.2667234 54.2857,58.1509234 C54.1286,58.0352234 54.0213,57.8773234 53.9637,57.6773234 C53.9271,57.5537234 53.9088,57.4195234 53.9088,57.2748234 C53.9088,57.1196234 53.9271,56.9801234 53.9637,56.8565234 C54.0239,56.6618234 54.1326,56.5092234 54.2896,56.3987234 C54.4466,56.2882234 54.6351,56.2329234 54.8549,56.2329234 C55.0695,56.2329234 55.2527,56.2882234 55.4045,56.3987234 C55.5563,56.5066234 55.6636,56.6578234 55.7264,56.8525234 C55.7683,56.9841234 55.7893,57.1222234 55.7893,57.2669234 C55.7893,57.4090234 55.7709,57.5418234 55.7343,57.6655234 C55.6767,57.8707234 55.5694,58.0325234 55.4124,58.1509234 C55.258,58.2667234 55.0708,58.3246234 54.851,58.3246234 Z M54.851,57.8470234 C54.9374,57.8470234 55.0106,57.8207234 55.0708,57.7681234 C55.131,57.7155234 55.1742,57.6431234 55.2004,57.5511234 C55.2213,57.4669234 55.2318,57.3748234 55.2318,57.2748234 C55.2318,57.1643234 55.2213,57.0709234 55.2004,56.9946234 C55.1716,56.9052234 55.1271,56.8354234 55.0669,56.7854234 C55.0067,56.7355234 54.9334,56.7105234 54.8471,56.7105234 C54.7581,56.7105234 54.6835,56.7355234 54.6233,56.7854234 C54.5657,56.8354234 54.5238,56.9052234 54.4977,56.9946234 C54.4767,57.0577234 54.4663,57.1511234 54.4663,57.2748234 C54.4663,57.3932234 54.4754,57.4853234 54.4937,57.5511234 C54.5199,57.6431234 54.5631,57.7155234 54.6233,57.7681234 C54.6861,57.8207234 54.762,57.8470234 54.851,57.8470234 Z M58.3828,56.2329234 C58.5869,56.2329234 58.7466,56.2948234 58.8617,56.4184234 C58.9769,56.5421234 59.0345,56.7157234 59.0345,56.9394234 L59.0345,58.2456234 C59.0345,58.2588234 59.0292,58.2706234 59.0188,58.2812234 C59.0109,58.2890234 59.0004,58.2930234 58.9873,58.2930234 L58.528,58.2930234 C58.5149,58.2930234 58.5032,58.2890234 58.4927,58.2812234 C58.4848,58.2706234 58.4809,58.2588234 58.4809,58.2456234 L58.4809,57.0617234 C58.4809,56.9538234 58.4534,56.8683234 58.3985,56.8052234 C58.3435,56.7420234 58.2702,56.7105234 58.1786,56.7105234 C58.087,56.7105234 58.0124,56.7420234 57.9549,56.8052234 C57.8973,56.8683234 57.8685,56.9525234 57.8685,57.0577234 L57.8685,58.2456234 C57.8685,58.2588234 57.8633,58.2706234 57.8528,58.2812234 C57.8449,58.2890234 57.8345,58.2930234 57.8214,58.2930234 L57.366,58.2930234 C57.3529,58.2930234 57.3411,58.2890234 57.3306,58.2812234 C57.3228,58.2706234 57.3189,58.2588234 57.3189,58.2456234 L57.3189,57.0617234 C57.3189,56.9565234 57.2901,56.8723234 57.2325,56.8091234 C57.1749,56.7433234 57.1003,56.7105234 57.0087,56.7105234 C56.925,56.7105234 56.8543,56.7355234 56.7967,56.7854234 C56.7418,56.8354234 56.7091,56.9052234 56.6986,56.9946234 L56.6986,58.2456234 C56.6986,58.2588234 56.6934,58.2706234 56.6829,58.2812234 C56.675,58.2890234 56.6646,58.2930234 56.6515,58.2930234 L56.1922,58.2930234 C56.1791,58.2930234 56.1673,58.2890234 56.1568,58.2812234 C56.149,58.2706234 56.145,58.2588234 56.145,58.2456234 L56.145,56.3119234 C56.145,56.2987234 56.149,56.2882234 56.1568,56.2803234 C56.1673,56.2698234 56.1791,56.2645234 56.1922,56.2645234 L56.6515,56.2645234 C56.6646,56.2645234 56.675,56.2698234 56.6829,56.2803234 C56.6934,56.2882234 56.6986,56.2987234 56.6986,56.3119234 L56.6986,56.4658234 C56.6986,56.4737234 56.7012,56.4789234 56.7064,56.4816234 C56.7117,56.4842234 56.7169,56.4816234 56.7221,56.4737234 C56.8294,56.3132234 56.9956,56.2329234 57.2207,56.2329234 C57.3516,56.2329234 57.4654,56.2606234 57.5623,56.3158234 C57.6617,56.3711234 57.7376,56.4500234 57.79,56.5526234 C57.7978,56.5684234 57.807,56.5684234 57.8175,56.5526234 C57.875,56.4447234 57.9522,56.3645234 58.0491,56.3119234 C58.1485,56.2593234 58.2598,56.2329234 58.3828,56.2329234 Z M61.2249,56.8091234 C61.272,56.9433234 61.2956,57.1012234 61.2956,57.2827234 C61.2956,57.4642234 61.2707,57.6287234 61.221,57.7760234 C61.1608,57.9444234 61.0653,58.0786234 60.9344,58.1785234 C60.8062,58.2759234 60.6465,58.3246234 60.4554,58.3246234 C60.267,58.3246234 60.1204,58.2588234 60.0158,58.1272234 C60.0105,58.1193234 60.0053,58.1167234 60.0001,58.1193234 C59.9948,58.1220234 59.9922,58.1272234 59.9922,58.1351234 L59.9922,58.9797234 C59.9922,58.9928234 59.987,59.0034234 59.9765,59.0112234 C59.9687,59.0218234 59.9582,59.0270234 59.9451,59.0270234 L59.4858,59.0270234 C59.4727,59.0270234 59.4609,59.0218234 59.4504,59.0112234 C59.4426,59.0034234 59.4387,58.9928234 59.4387,58.9797234 L59.4387,56.3119234 C59.4387,56.2987234 59.4426,56.2882234 59.4504,56.2803234 C59.4609,56.2698234 59.4727,56.2645234 59.4858,56.2645234 L59.9451,56.2645234 C59.9582,56.2645234 59.9687,56.2698234 59.9765,56.2803234 C59.987,56.2882234 59.9922,56.2987234 59.9922,56.3119234 L59.9922,56.4421234 C59.9922,56.4500234 59.9948,56.4553234 60.0001,56.4579234 C60.0053,56.4579234 60.0105,56.4553234 60.0158,56.4500234 C60.1257,56.3053234 60.2775,56.2329234 60.4712,56.2329234 C60.6517,56.2329234 60.8075,56.2842234 60.9383,56.3869234 C61.0718,56.4868234 61.1673,56.6276234 61.2249,56.8091234 Z M60.6243,57.6931234 C60.6897,57.5905234 60.7224,57.4511234 60.7224,57.2748234 C60.7224,57.1091234 60.6949,56.9775234 60.64,56.8802234 C60.5798,56.7670234 60.4829,56.7105234 60.3495,56.7105234 C60.2291,56.7105234 60.1388,56.7670234 60.0786,56.8802234 C60.0236,56.9749234 59.9961,57.1077234 59.9961,57.2788234 C59.9961,57.4550234 60.0249,57.5918234 60.0825,57.6892234 C60.1427,57.7944234 60.2317,57.8470234 60.3495,57.8470234 C60.4672,57.8470234 60.5588,57.7957234 60.6243,57.6931234 Z M62.4591,56.2329234 C62.6292,56.2329234 62.781,56.2632234 62.9145,56.3237234 C63.048,56.3816234 63.1514,56.4618234 63.2246,56.5644234 C63.3005,56.6670234 63.3385,56.7815234 63.3385,56.9078234 L63.3385,58.2456234 C63.3385,58.2588234 63.3333,58.2706234 63.3228,58.2812234 C63.3149,58.2890234 63.3045,58.2930234 63.2914,58.2930234 L62.8321,58.2930234 C62.819,58.2930234 62.8072,58.2890234 62.7967,58.2812234 C62.7889,58.2706234 62.7849,58.2588234 62.7849,58.2456234 L62.7849,58.1154234 C62.7849,58.1075234 62.7823,58.1022234 62.7771,58.0996234 C62.7719,58.0970234 62.7666,58.0996234 62.7614,58.1075234 C62.6515,58.2522234 62.4748,58.3246234 62.2314,58.3246234 C62.0273,58.3246234 61.8624,58.2746234 61.7367,58.1746234 C61.6111,58.0746234 61.5483,57.9273234 61.5483,57.7326234 C61.5483,57.5300234 61.619,57.3735234 61.7603,57.2630234 C61.9016,57.1498234 62.1032,57.0933234 62.3649,57.0933234 L62.7653,57.0933234 C62.7784,57.0933234 62.7849,57.0867234 62.7849,57.0735234 L62.7849,56.9867234 C62.7849,56.8999234 62.7588,56.8328234 62.7064,56.7854234 C62.6541,56.7355234 62.5756,56.7105234 62.4709,56.7105234 C62.3897,56.7105234 62.3217,56.7249234 62.2667,56.7539234 C62.2144,56.7828234 62.1804,56.8236234 62.1647,56.8762234 C62.1568,56.9052234 62.1398,56.9183234 62.1136,56.9157234 L61.6386,56.8525234 C61.6072,56.8473234 61.5928,56.8354234 61.5954,56.8170234 C61.6059,56.7065234 61.6491,56.6065234 61.725,56.5171234 C61.8035,56.4276234 61.9056,56.3579234 62.0312,56.3079234 C62.1594,56.2579234 62.3021,56.2329234 62.4591,56.2329234 Z M62.3806,57.9102234 C62.4931,57.9102234 62.5886,57.8799234 62.6672,57.8194234 C62.7457,57.7589234 62.7849,57.6813234 62.7849,57.5866234 L62.7849,57.4445234 C62.7849,57.4313234 62.7784,57.4248234 62.7653,57.4248234 L62.4827,57.4248234 C62.3649,57.4248234 62.272,57.4471234 62.2039,57.4919234 C62.1385,57.5366234 62.1058,57.5997234 62.1058,57.6813234 C62.1058,57.7523234 62.1306,57.8089234 62.1804,57.8510234 C62.2301,57.8905234 62.2968,57.9102234 62.3806,57.9102234 Z M64.7806,56.2329234 C64.99,56.2329234 65.1588,56.2974234 65.287,56.4263234 C65.4153,56.5552234 65.4794,56.7302234 65.4794,56.9512234 L65.4794,58.2456234 C65.4794,58.2588234 65.4741,58.2706234 65.4637,58.2812234 C65.4558,58.2890234 65.4454,58.2930234 65.4323,58.2930234 L64.9729,58.2930234 C64.9599,58.2930234 64.9481,58.2890234 64.9376,58.2812234 C64.9298,58.2706234 64.9258,58.2588234 64.9258,58.2456234 L64.9258,57.0656234 C64.9258,56.9604234 64.8957,56.8749234 64.8355,56.8091234 C64.778,56.7433234 64.7008,56.7105234 64.6039,56.7105234 C64.5071,56.7105234 64.4286,56.7433234 64.3684,56.8091234 C64.3108,56.8749234 64.282,56.9604234 64.282,57.0656234 L64.282,58.2456234 C64.282,58.2588234 64.2768,58.2706234 64.2663,58.2812234 C64.2584,58.2890234 64.248,58.2930234 64.2349,58.2930234 L63.7756,58.2930234 C63.7625,58.2930234 63.7507,58.2890234 63.7402,58.2812234 C63.7324,58.2706234 63.7285,58.2588234 63.7285,58.2456234 L63.7285,56.3119234 C63.7285,56.2987234 63.7324,56.2882234 63.7402,56.2803234 C63.7507,56.2698234 63.7625,56.2645234 63.7756,56.2645234 L64.2349,56.2645234 C64.248,56.2645234 64.2584,56.2698234 64.2663,56.2803234 C64.2768,56.2882234 64.282,56.2987234 64.282,56.3119234 L64.282,56.4500234 C64.282,56.4579234 64.2846,56.4632234 64.2899,56.4658234 C64.2951,56.4684234 64.299,56.4671234 64.3016,56.4618234 C64.4089,56.3092234 64.5686,56.2329234 64.7806,56.2329234 Z M65.7755,59.0783234 C65.7676,59.0783234 65.7611,59.0731234 65.7558,59.0625234 C65.7506,59.0547234 65.748,59.0441234 65.748,59.0310234 L65.748,58.6679234 C65.748,58.6548234 65.7519,58.6429234 65.7597,58.6324234 C65.7702,58.6245234 65.782,58.6205234 65.7951,58.6205234 C65.905,58.6179234 65.9914,58.6087234 66.0542,58.5929234 C66.1196,58.5771234 66.1707,58.5469234 66.2073,58.5021234 C66.2466,58.4574234 66.2766,58.3917234 66.2976,58.3048234 C66.3002,58.2996234 66.3002,58.2917234 66.2976,58.2812234 L65.6538,56.3158234 C65.6511,56.3106234 65.6498,56.3040234 65.6498,56.2961234 C65.6498,56.2724234 65.6642,56.2606234 65.693,56.2606234 L66.1837,56.2606234 C66.2125,56.2606234 66.2309,56.2737234 66.2387,56.3000234 L66.5685,57.5787234 C66.5711,57.5866234 66.575,57.5905234 66.5803,57.5905234 C66.5855,57.5905234 66.5894,57.5866234 66.592,57.5787234 L66.9218,56.3000234 C66.9296,56.2737234 66.948,56.2606234 66.9768,56.2606234 L67.4557,56.2606234 C67.4714,56.2606234 67.4819,56.2658234 67.4871,56.2764234 C67.495,56.2842234 67.4963,56.2974234 67.491,56.3158234 L66.8119,58.3680234 C66.7464,58.5600234 66.6797,58.7034234 66.6117,58.7981234 C66.5436,58.8955234 66.4481,58.9665234 66.3251,59.0112234 C66.2021,59.0560234 66.028,59.0783234 65.8029,59.0783234 L65.7755,59.0783234 Z" id="Shape" fill="#CACDDD"></path>
            <path d="M37.2693,25.0695234 C36.5329,25.0695234 35.8429,24.7551234 35.2161,24.2434234 L35.3687,23.5208234 L35.3753,23.4940234 C35.5112,22.7248234 35.9425,21.4337234 37.2693,21.4337234 C38.2644,21.4337234 39.0737,22.2499234 39.0737,23.2533234 C39.0705,24.2534234 38.2611,25.0695234 37.2693,25.0695234 Z M37.2693,19.5908234 C35.5743,19.5908234 34.2608,20.7013234 33.7267,22.5275234 C32.9108,21.2932234 32.2938,19.8115234 31.9323,18.5639234 L30.1079,18.5639234 L30.1079,23.3503234 C30.1079,24.2935234 29.345,25.0628234 28.4095,25.0628234 C27.4742,25.0628234 26.7113,24.2935234 26.7113,23.3503234 L26.7113,18.5639234 L24.88668,18.5639234 L24.88668,23.3503234 C24.8802,25.3104234 26.4623,26.9191234 28.4061,26.9191234 C30.3499,26.9191234 31.9321,25.3104234 31.9321,23.3503234 L31.9321,22.5476234 C32.2871,23.2934234 32.7216,24.0459234 33.2491,24.7150234 L32.1311,30.0129234 L33.9986,30.0129234 L34.808,26.1699234 C35.5177,26.6280234 36.3338,26.9158234 37.2693,26.9158234 C39.2694,26.9158234 40.8981,25.2635234 40.8981,23.2466234 C40.8981,21.2331234 39.2694,19.5908234 37.2693,19.5908234 Z" id="Shape" fill="#6FDA44"></path>
            <path d="M46.4677,20.0006234 L47.6453,24.7868234 L48.9423,20.0006234 L50.4881,20.0006234 L48.4946,26.9176234 L46.9488,26.9176234 L45.7249,22.1011234 L44.5041,26.9141234 L42.9585,26.9141234 L40.9648,19.9973234 L42.5106,19.9973234 L43.8075,24.7835234 L44.9851,19.9973234 L46.4677,19.9973234 L46.4677,20.0008234 L46.4677,20.0006234 Z M54.1864,19.7933234 C52.1797,19.7933234 50.5544,21.4355234 50.5544,23.4557234 C50.5544,25.4793234 52.1831,27.1182234 54.1864,27.1182234 C56.1933,27.1182234 57.8219,25.4793234 57.8219,23.4557234 C57.8219,21.4322234 56.1933,19.7933234 54.1864,19.7933234 Z M54.1864,25.6131234 C53.0057,25.6131234 52.0504,24.6497234 52.0504,23.4590234 C52.0504,22.2683234 53.009,21.3051234 54.1864,21.3051234 C55.3674,21.3051234 56.3226,22.2683234 56.3226,23.4590234 C56.3226,24.6464234 55.3674,25.6131234 54.1864,25.6131234 Z M62.2368,21.5493234 C61.1988,21.5493234 60.3595,22.3987234 60.3595,23.4422234 L60.3595,26.9141234 L58.8037,26.9141234 L58.8037,20.0006234 L60.3595,20.0006234 L60.3595,21.0642234 C60.3595,21.0642234 61.0229,19.9972234 62.3862,19.9972234 L62.8638,19.9972234 L62.8638,21.5493234 L62.2368,21.5493234 Z M67.4579,23.1882234 C68.5623,22.5592234 69.3122,21.3653234 69.3122,19.9972234 L67.7564,19.9972234 C67.7564,21.1512234 66.8276,22.0876234 65.6832,22.0876234 L65.4743,22.0876234 L65.4743,16.6626234 L63.9187,16.6626234 L63.9187,26.9141234 L65.4743,26.9141234 L65.4743,23.6563234 L65.6602,23.6563234 C65.8126,23.6563234 66.0117,23.7568234 66.1013,23.8805234 L68.3103,26.9141234 L70.1746,26.9141234 L67.4579,23.1882234 Z" id="Shape" fill="#6FDA44"></path>
            <path d="M21.943,38.9545234 L20.3374,38.9545234 L20.3374,43.3311234 L19.0477,43.3311234 L19.0477,38.9545234 L17.4717,38.9545234 L17.4717,37.9536234 L21.943,37.9536234 L21.943,38.9545234 Z M26.9177,40.7531234 C26.9177,41.2777234 26.8209,41.7417234 26.6274,42.1456234 C26.4339,42.5494234 26.1584,42.8609234 25.8008,43.0799234 C25.4455,43.2966234 25.0402,43.4050234 24.5846,43.4050234 C24.1291,43.4050234 23.7249,43.3004234 23.3722,43.0911234 C23.0195,42.8793234 22.7439,42.5777234 22.5455,42.1862234 C22.3495,41.7947234 22.2466,41.3453234 22.2368,40.8381234 L22.2368,40.5352234 C22.2368,40.0082234 22.3324,39.5442234 22.5234,39.1428234 C22.7169,38.7390234 22.9926,38.4275234 23.3501,38.2083234 C23.7102,37.9893234 24.1193,37.8796234 24.5773,37.8796234 C25.0304,37.8796234 25.4346,37.9880234 25.7897,38.2047234 C26.1448,38.4214234 26.4205,38.7304234 26.6164,39.1318234 C26.8148,39.5305234 26.9153,39.9887234 26.9177,40.5056234 L26.9177,40.7531234 Z M25.606,40.5278234 C25.606,39.9936234 25.5167,39.5884234 25.3378,39.3127234 C25.1614,39.0344234 24.908,38.8953234 24.5773,38.8953234 C23.9307,38.8953234 23.589,39.3829234 23.5521,40.3580234 L23.5486,40.7531234 C23.5486,41.2800234 23.6356,41.6851234 23.8095,41.9683234 C23.9833,42.2515234 24.2418,42.3930234 24.5846,42.3930234 C24.9105,42.3930234 25.1614,42.2539234 25.3378,41.9757234 C25.5143,41.6975234 25.6036,41.2972234 25.606,40.7753234 L25.606,40.5278234 Z M28.8723,41.5066234 L28.8723,43.3311234 L27.5827,43.3311234 L27.5827,37.9536234 L29.7174,37.9536234 C30.1265,37.9536234 30.4876,38.0299234 30.8012,38.1825234 C31.1172,38.3328234 31.3608,38.5482234 31.5324,38.8289234 C31.7063,39.1071234 31.7931,39.4235234 31.7931,39.7780234 C31.7931,40.3026234 31.6058,40.7224234 31.2311,41.0376234 C30.8588,41.3502234 30.3468,41.5066234 29.6953,41.5066234 L28.8723,41.5066234 Z M28.8723,40.5056234 L29.7174,40.5056234 C29.9671,40.5056234 30.157,40.4428234 30.2868,40.3174234 C30.4191,40.1917234 30.4852,40.0145234 30.4852,39.7854234 C30.4852,39.5343234 30.4178,39.3337234 30.2832,39.1834234 C30.1484,39.0333234 29.9647,38.9570234 29.7321,38.9545234 L28.8723,38.9545234 L28.8723,40.5056234 Z M36.3453,41.4327234 L35.6473,41.4327234 L35.6473,43.3311234 L34.3577,43.3311234 L34.3577,37.9536234 L36.4629,37.9536234 C37.0973,37.9536234 37.5934,38.0952234 37.951,38.3783234 C38.3086,38.6615234 38.4873,39.0616234 38.4873,39.5786234 C38.4873,39.9530234 38.4114,40.2631234 38.2596,40.5094234 C38.1101,40.7556234 37.8751,40.9550234 37.5541,41.1076234 L38.671,43.2757234 L38.671,43.3311234 L37.2896,43.3311234 L36.3453,41.4327234 Z M35.6473,40.4318234 L36.4629,40.4318234 C36.708,40.4318234 36.8917,40.3679234 37.014,40.2398234 C37.139,40.1092234 37.2015,39.9283234 37.2015,39.6968234 C37.2015,39.4654234 37.139,39.2844234 37.014,39.1538234 C36.8892,39.0210234 36.7055,38.9545234 36.4629,38.9545234 L35.6473,38.9545234 L35.6473,40.4318234 Z M42.3047,42.3264234 L40.5375,42.3264234 L40.2289,43.3311234 L38.8511,43.3311234 L40.8131,37.9536234 L42.0255,37.9536234 L44.0022,43.3311234 L42.617,43.3311234 L42.3047,42.3264234 Z M40.8461,41.3257234 L41.9961,41.3257234 L41.4193,39.4605234 L40.8461,41.3257234 Z M48.1539,38.9545234 L46.5482,38.9545234 L46.5482,43.3311234 L45.2588,43.3311234 L45.2588,38.9545234 L43.6825,38.9545234 L43.6825,37.9536234 L48.1539,37.9536234 L48.1539,38.9545234 Z M52.0191,41.0522234 L49.9909,41.0522234 L49.9909,42.3338234 L52.3865,42.3338234 L52.3865,43.3311234 L48.7014,43.3311234 L48.7014,37.9536234 L52.3938,37.9536234 L52.3938,38.9545234 L49.9909,38.9545234 L49.9909,40.0883234 L52.0191,40.0883234 L52.0191,41.0522234 Z M52.9119,43.3311234 L52.9119,37.9536234 L54.635,37.9536234 C55.1077,37.9536234 55.5327,38.0620234 55.9099,38.2785234 C56.2871,38.4928234 56.581,38.7968234 56.7917,39.1908234 C57.0047,39.5823234 57.1125,40.0219234 57.115,40.5094234 L57.115,40.7569234 C57.115,41.2492234 57.0109,41.6912234 56.8027,42.0827234 C56.5969,42.4718234 56.3054,42.7772234 55.9282,42.9987234 C55.5535,43.2178234 55.1347,43.3287234 54.6718,43.3311234 L52.9119,43.3311234 Z M54.2015,38.9545234 L54.2015,42.3338234 L54.6497,42.3338234 C55.0195,42.3338234 55.3037,42.2021234 55.5021,41.9387234 C55.7005,41.6728234 55.7996,41.2788234 55.7996,40.7569234 L55.7996,40.5241234 C55.7996,40.0046234 55.7005,39.6131234 55.5021,39.3497234 C55.3037,39.0862234 55.0146,38.9545234 54.635,38.9545234 L54.2015,38.9545234 Z M60.9397,41.5066234 L60.9397,43.3311234 L59.6501,43.3311234 L59.6501,37.9536234 L61.7847,37.9536234 C62.1938,37.9536234 62.555,38.0299234 62.8686,38.1825234 C63.1846,38.3328234 63.4282,38.5482234 63.5998,38.8289234 C63.7737,39.1071234 63.8605,39.4235234 63.8605,39.7780234 C63.8605,40.3026234 63.6732,40.7224234 63.2985,41.0376234 C62.9262,41.3502234 62.4142,41.5066234 61.7627,41.5066234 L60.9397,41.5066234 Z M60.9397,40.5056234 L61.7847,40.5056234 C62.0345,40.5056234 62.2244,40.4428234 62.3542,40.3174234 C62.4865,40.1917234 62.5526,40.0145234 62.5526,39.7854234 C62.5526,39.5343234 62.4853,39.3337234 62.3506,39.1834234 C62.2158,39.0333234 62.0321,38.9570234 61.7995,38.9545234 L60.9397,38.9545234 L60.9397,40.5056234 Z M65.841,42.3338234 L68.0857,42.3338234 L68.0857,43.3311234 L64.5513,43.3311234 L64.5513,37.9536234 L65.841,37.9536234 L65.841,42.3338234 Z M72.7372,37.9536234 L72.7372,41.4734234 C72.7372,41.8723234 72.6526,42.2182234 72.4836,42.5111234 C72.3147,42.8017234 72.0722,43.0233234 71.7562,43.1759234 C71.4402,43.3287234 71.0667,43.4050234 70.6355,43.4050234 C69.984,43.4050234 69.4709,43.2351234 69.0961,42.8952234 C68.7214,42.5555234 68.5303,42.0901234 68.523,41.4992234 L68.523,37.9536234 L69.82,37.9536234 L69.82,41.5250234 C69.8347,42.1135234 70.1065,42.4078234 70.6355,42.4078234 C70.9027,42.4078234 71.1047,42.3338234 71.2418,42.1862234 C71.379,42.0384234 71.4475,41.7984234 71.4475,41.4660234 L71.4475,37.9536234 L72.7372,37.9536234 Z M76.3048,41.9017234 C76.3048,41.7121234 76.2374,41.5644234 76.1026,41.4586234 C75.9704,41.3527234 75.7365,41.2431234 75.4009,41.1298234 C75.0654,41.0166234 74.791,40.9070234 74.5779,40.8011234 C73.8847,40.4589234 73.538,39.9887234 73.538,39.3903234 C73.538,39.0923234 73.6239,38.8301234 73.7954,38.6036234 C73.9692,38.3746234 74.2141,38.1973234 74.5301,38.0717234 C74.8462,37.9437234 75.2013,37.8796234 75.5957,37.8796234 C75.9802,37.8796234 76.3242,37.9487234 76.628,38.0865234 C76.9342,38.2244234 77.1717,38.4214234 77.3409,38.6775234 C77.5098,38.9310234 77.5943,39.2216234 77.5943,39.5491234 L76.3084,39.5491234 C76.3084,39.3299234 76.241,39.1601234 76.1064,39.0394234 C75.974,38.9187234 75.7941,38.8585234 75.5662,38.8585234 C75.3359,38.8585234 75.1535,38.9101234 75.0187,39.0136234 C74.8866,39.1145234 74.8203,39.2438234 74.8203,39.4013234 C74.8203,39.5393234 74.8939,39.6649234 75.0408,39.7780234 C75.1877,39.8889234 75.4462,40.0046234 75.816,40.1253234 C76.1859,40.2434234 76.4896,40.3715234 76.7273,40.5094234 C77.3052,40.8442234 77.5943,41.3060234 77.5943,41.8943234 C77.5943,42.3648234 77.4179,42.7341234 77.0653,43.0024234 C76.7126,43.2708234 76.2287,43.4050234 75.614,43.4050234 C75.1805,43.4050234 74.7873,43.3274234 74.4346,43.1723234 C74.0844,43.0148234 73.8199,42.8005234 73.6409,42.5297234 C73.4646,42.2564234 73.3764,41.9423234 73.3764,41.5878234 L74.6697,41.5878234 C74.6697,41.8759234 74.7433,42.0888234 74.8902,42.2268234 C75.0397,42.3623234 75.2808,42.4299234 75.614,42.4299234 C75.8271,42.4299234 75.9948,42.3843234 76.1173,42.2932234 C76.2423,42.1997234 76.3048,42.0693234 76.3048,41.9017234 Z" id="Shape" fill="#CACDDD"></path>
            <path d="M28.8511,70.8836234 C30.1077,73.4693234 29.6565,76.1723234 29.6334,76.1774234 C29.6334,76.2124234 26.2589,74.5268234 25.1218,71.7204234 C23.9801,68.9470234 25.2785,66.5139234 25.2547,66.5178188 C25.2607,66.5439234 27.5943,68.3208234 28.8511,70.8836234 Z" id="Path" fill="url(#radialGradient-1)"></path>
            <path d="M74.2897,2.09407343 C76.4138,4.04063343 76.7951,7.09493343 76.7951,7.09493343 C76.7951,7.09493343 73.7337,6.99459343 71.6108,5.04702343 C69.4877,3.09947343 69.1064,0.045166034 69.1064,0.045166034 C69.1064,0.045166034 72.1676,0.146507434 74.2897,2.09407343 Z" id="Path" fill="url(#radialGradient-2)"></path>
            <path d="M59.3614,73.8311234 C57.5327,76.1891234 57.423,78.9725234 57.4469,78.9815234 C57.44,79.0166234 61.2827,77.9370234 63.0076,75.3372234 C64.7324,72.7695234 63.8919,70.1086234 63.9168,70.1195894 C63.9099,70.1397234 61.1859,71.4943234 59.3614,73.8311234 Z" id="Path" fill="url(#radialGradient-3)"></path>
            <path d="M62.0522,81.9926234 C58.6795,81.4166234 57.4219,78.8530234 57.4219,78.8761234 C57.4618,78.8881234 61.076,77.8396234 64.1902,78.2078234 C67.3354,78.5921234 69.1809,80.5558234 69.1809,80.5768234 C69.2269,80.5868234 65.4618,82.5816234 62.0522,81.9926234 Z" id="Path" fill="url(#radialGradient-4)"></path>
            <path d="M66.0292,70.8836234 C64.7727,73.4693234 65.2238,76.1723234 65.2467,76.1774234 C65.2467,76.2124234 68.6214,74.5268234 69.7583,71.7204234 C70.9002,68.9470234 69.6016,66.5139234 69.6256,66.5178188 C69.6196,66.5439234 67.286,68.3208234 66.0292,70.8836234 Z" id="Path" fill="url(#radialGradient-5)"></path>
            <path d="M70.1479,78.3137234 C69.2127,78.3249234 68.2862,78.1310234 67.4331,77.7457234 C66.5799,77.3603234 65.8208,76.7926234 65.208,76.0821234 C65.245,76.0882234 68.4131,74.4708234 71.4365,74.2982234 C74.4889,74.1367234 76.6268,75.7200234 76.6268,75.7401234 C76.6667,75.7431234 73.4618,78.3107234 70.1479,78.3137234 Z" id="Path" fill="url(#radialGradient-6)"></path>
            <path d="M71.7843,66.9011234 C71.0716,69.6192234 72.0209,72.1538234 72.0429,72.1548234 C72.0429,72.1910234 74.9374,69.9856234 75.5153,67.0696234 C76.1003,64.1840234 74.4105,62.0527234 74.4325,62.0527234 C74.4305,62.0747234 72.501,64.2050234 71.7843,66.9011234 Z" id="Path" fill="url(#radialGradient-7)"></path>
            <path d="M77.116,73.3860234 C76.2164,73.5542234 75.2913,73.5236234 74.4047,73.2965234 C73.5181,73.0693234 72.6912,72.6509234 71.9814,72.0706234 C72.0155,72.0706234 74.7204,69.9634234 77.597,69.2782234 C80.5017,68.5958234 82.8593,69.7598234 82.8642,69.7799234 C82.9031,69.7758234 80.2781,72.8180234 77.116,73.3860234 Z" id="Path" fill="url(#radialGradient-8)"></path>
            <path d="M76.5842,62.0439234 C76.3844,64.8062234 77.768,67.0990234 77.7879,67.0960234 C77.7879,67.1310234 80.1835,64.4872234 80.2303,61.5563234 C80.2892,58.6465234 78.2751,56.8665234 78.296,56.8625234 C78.3009,56.8895234 76.7927,59.3027234 76.5842,62.0439234 Z" id="Path" fill="url(#radialGradient-9)"></path>
            <path d="M82.9161,67.4070234 C82.074,67.7255234 81.173,67.8561234 80.2756,67.7896234 C79.3782,67.7230234 78.5062,67.4611234 77.7197,67.0216234 C77.7506,67.0156234 79.9735,64.5131234 82.6484,63.3343234 C85.3494,62.1623234 87.8518,62.8796234 87.8588,62.8987234 C87.8958,62.8918234 85.8685,66.3092234 82.9161,67.4070234 Z" id="Path" fill="url(#radialGradient-10)"></path>
            <path d="M80.4022,56.4743234 C80.6857,59.1995234 82.4354,61.1840234 82.4533,61.1840234 C82.4633,61.2172234 84.3279,58.2311234 83.8777,55.3574234 C83.4405,52.5119234 81.1717,51.1262234 81.1906,51.1201234 C81.1977,51.1413234 80.1287,53.7682234 80.4022,56.4743234 Z" id="Path" fill="url(#radialGradient-11)"></path>
            <path d="M87.4985,60.5835234 C86.7345,61.0408234 85.8806,61.3259234 84.9963,61.4192234 C84.1118,61.5124234 83.2177,61.4114234 82.376,61.1234234 C82.403,61.1133234 84.1287,58.2827234 86.5442,56.6634234 C88.9846,55.0419234 91.5549,55.2958234 91.5639,55.3127234 C91.5928,55.2977234 90.1895,58.9952234 87.4985,60.5835234 Z" id="Path" fill="url(#radialGradient-12)"></path>
            <path d="M83.1834,50.3653234 C83.9171,52.9801234 85.9652,54.6046234 85.9781,54.5967234 C85.9922,54.6278234 87.3118,51.3808234 86.3944,48.6456234 C85.4961,45.9364234 83.0426,44.9822234 83.0596,44.9721234 C83.0747,44.9973234 82.4617,47.7687234 83.1834,50.3653234 Z" id="Path" fill="url(#radialGradient-13)"></path>
            <path d="M90.8166,53.1193234 C90.1475,53.7030234 89.3607,54.1338234 88.5101,54.3821234 C87.6595,54.6306234 86.7656,54.6906234 85.8896,54.5581234 C85.9147,54.5441234 87.1243,51.4738234 89.2225,49.4540234 C91.3425,47.4282234 93.9028,47.2144234 93.9137,47.2305234 C93.9447,47.2104234 93.1821,51.0865234 90.8166,53.1193234 Z" id="Path" fill="url(#radialGradient-14)"></path>
            <path d="M84.8901,43.8777234 C86.042,46.3140234 88.3178,47.5371234 88.3327,47.5270234 C88.3517,47.5552234 89.1062,44.1346234 87.7548,41.6071234 C86.4233,39.0986234 83.862,38.5969234 83.879,38.5888234 C83.894,38.6110234 83.7532,41.4566234 84.8901,43.8777234 Z" id="Path" fill="url(#radialGradient-15)"></path>
            <path d="M92.8238,45.2054234 C92.2683,45.8982234 91.5705,46.4620234 90.778,46.8585234 C89.9855,47.2550234 89.1172,47.4745234 88.2324,47.5021234 C88.2534,47.4840234 88.9311,44.2561234 90.6509,41.8903234 C92.3907,39.5132234 94.862,38.8390234 94.8761,38.8530234 C94.908,38.8290234 94.8062,42.7853234 92.8238,45.2054234 Z" id="Path" fill="url(#radialGradient-16)"></path>
            <path d="M85.4852,37.1742234 C87.0214,39.3725234 89.4529,40.1652234 89.4659,40.1523234 C89.4888,40.1782234 89.6595,36.6705234 87.9078,34.4118234 C86.1789,32.1712234 83.5858,32.1352234 83.5996444,32.1211234 C83.6198,32.1421234 83.9731,34.9898234 85.4852,37.1742234 Z" id="Path" fill="url(#radialGradient-17)"></path>
            <path d="M93.4746,37.0569234 C93.0501,37.8391234 92.4632,38.5202234 91.7536,39.0541234 C91.044,39.5880234 90.2284,39.9623234 89.3623,40.1514234 C89.3803,40.1303234 89.5081,36.8262234 90.7897,34.1722234 C92.0873,31.5062234 94.388,30.3885234 94.406,30.4005234 C94.4328,30.3724234 95.0119,34.3116234 93.4746,37.0569234 Z" id="Path" fill="url(#radialGradient-18)"></path>
            <path d="M84.9255,30.4321234 C86.8089,32.3386234 89.3174,32.6828234 89.3323,32.6676234 C89.3602,32.6897234 88.9271,29.1819234 86.8101,27.2493234 C84.7199,25.3299234 82.1706,25.7574234 82.1826571,25.7443234 C82.2065,25.7564234 83.065,28.5367234 84.9255,30.4321234 Z" id="Path" fill="url(#radialGradient-19)"></path>
            <path d="M92.7217,28.8665234 C91.7147,31.8446234 89.2152,32.6674234 89.2352,32.6794234 C89.2502,32.6564234 88.8101,29.3591234 89.5906,26.4845234 C90.3891,23.5958234 92.4313,22.0696234 92.4513,22.0747234 C92.4712,22.0416234 93.7539,25.8674234 92.7217,28.8665234 Z" id="Path" fill="url(#radialGradient-20)"></path>
            <path d="M83.1732,23.8072234 C85.369,25.3744234 87.8855,25.2631234 87.8945,25.2469234 C87.9274,25.2650234 86.8693,21.8445234 84.4239,20.2823234 C82.0074,18.7300234 79.5828,19.6080234 79.5927692,19.5909234 C79.6198,19.6050234 81.0022,22.2468234 83.1732,23.8072234 Z" id="Path" fill="url(#radialGradient-21)"></path>
            <path d="M90.5178,20.8478234 C90.0796,24.0025234 87.7769,25.2708234 87.7998,25.2779234 C87.8108,25.2527234 86.7866,22.0429234 87.0013,19.0227234 C87.2329,15.9855234 88.9347,14.0851234 88.9566,14.0901234 C88.9756,14.0550234 90.9758,17.6642234 90.5178,20.8478234 Z" id="Path" fill="url(#radialGradient-22)"></path>
            <path d="M80.179,17.4748234 C82.6473,18.6638234 85.0909,18.1019234 85.0989,18.0848234 C85.1357,18.0980234 83.434,14.8530234 80.696,13.7031234 C79.9153,13.3724234 79.073,13.2141234 78.226,13.2388234 C77.3792,13.2636234 76.5474,13.4708234 75.7871,13.8466234 C75.818,13.8556234 77.7425,16.2878234 80.179,17.4748234 Z" id="Path" fill="url(#radialGradient-23)"></path>
            <path d="M86.8165,13.2034234 C87.0162,16.4523234 84.991,18.1310234 85.0199,18.1340234 C85.0268,18.1078234 83.4008,15.0687234 82.9896,11.9833234 C82.5903,8.87881343 83.8629,6.66535343 83.8879,6.66535343 C83.8979,6.62823343 86.6378,9.92534343 86.8165,13.2034234 Z" id="Path" fill="url(#radialGradient-24)"></path>
            <path d="M75.9159,11.6060234 C78.6188,12.3856234 80.9066,11.3892234 80.9146,11.3712234 C80.9575,11.3792234 78.591,8.39616343 75.6005,7.69379343 C72.647,6.99142343 70.7166,8.68915343 70.7216899,8.67008343 C70.7605,8.67409343 73.2449,10.8263234 75.9159,11.6060234 Z" id="Path" fill="url(#radialGradient-25)"></path>
            <path d="M81.5705,6.13401343 C82.4689,9.38698343 80.812,11.4308234 80.84,11.4318234 C80.84,11.4048234 78.5992,8.61637343 77.4942,5.55507343 C76.3961,2.47266343 77.1519,0.00133878397 77.1798,0.000335403972 C77.1898,-0.035786366 80.6902,2.85094343 81.5705,6.13401343 Z" id="Path" fill="url(#radialGradient-26)"></path>
            <path d="M46.6416,79.8318234 L46.6956,79.2296234 C51.6093,79.6776234 56.5622,79.1213234 61.2565,77.5942234 C65.9005,76.0909234 70.2184,73.7150234 73.9808,70.5927234 C81.91,64.0435234 87.0234,54.6970234 88.38,44.2748234 C89.4898,35.7411234 88.9199,28.1365234 86.6832,21.6717234 C84.2886,14.7293234 80.0166,9.29798343 73.9908,5.52626343 L74.3062,5.01855343 C80.4498,8.86351343 84.8047,14.4002234 87.2492,21.4740234 C89.5139,28.0271234 90.0928,35.7220234 88.9698,44.3511234 C87.5945,54.9248234 82.4052,64.4078234 74.359,71.0541234 C70.5374,74.2272234 66.1511,76.6416234 61.4332,78.1692234 C56.6644,79.7195234 51.6331,80.2850234 46.6416,79.8318234 Z" id="Path" fill="url(#radialGradient-27)"></path>
            <path d="M20.5893,2.09407343 C18.4653,4.04063343 18.084,7.09493343 18.084,7.09493343 C18.084,7.09493343 21.1453,6.99459343 23.2684,5.04702343 C25.3914,3.09947343 25.7727,0.045166034 25.7727,0.045166034 C25.7727,0.045166034 22.7114,0.146507434 20.5893,2.09407343 Z" id="Path" fill="url(#radialGradient-28)"></path>
            <path d="M35.5199,73.8311234 C37.3485,76.1891234 37.4582,78.9725234 37.4344,78.9815234 C37.4412,79.0166234 33.5985,77.9370234 31.8736,75.3372234 C30.1488,72.7695234 30.9893,70.1086234 30.9643,70.1195894 C30.9713,70.1397234 33.6952,71.4943234 35.5199,73.8311234 Z" id="Path" fill="url(#radialGradient-29)"></path>
            <path d="M32.8285,81.9926234 C36.2011,81.4166234 37.4588,78.8530234 37.4588,78.8761234 C37.4189,78.8881234 33.8047,77.8396234 30.6904,78.2078234 C27.5453,78.5921234 25.6996,80.5558234 25.6996,80.5768234 C25.6538,80.5868234 29.4187,82.5816234 32.8285,81.9926234 Z" id="Path" fill="url(#radialGradient-30)"></path>
            <path d="M24.7331,78.3137234 C25.6693,78.3257234 26.5966,78.1321234 27.4506,77.7467234 C28.3047,77.3613234 29.0648,76.7933234 29.678,76.0821234 C29.6411,76.0882234 26.4729,74.4708234 23.4495,74.2982234 C20.3972,74.1367234 18.2593,75.7200234 18.2593,75.7401234 C18.2143,75.7431234 21.4194,78.3107234 24.7331,78.3137234 Z" id="Path" fill="url(#radialGradient-31)"></path>
            <path d="M23.0954,66.9011234 C23.8081,69.6192234 22.8589,72.1538234 22.8369,72.1548234 C22.8369,72.1910234 19.9423,69.9856234 19.3644,67.0696234 C18.7794,64.1840234 20.4693,62.0527234 20.4474,62.0527234 C20.4494,62.0747234 22.3788,64.2050234 23.0954,66.9011234 Z" id="Path" fill="url(#radialGradient-32)"></path>
            <path d="M17.7633,73.3860234 C18.6628,73.5542234 19.588,73.5236234 20.4746,73.2965234 C21.3612,73.0693234 22.1881,72.6509234 22.8978,72.0706234 C22.8638,72.0706234 20.1589,69.9634234 17.2823,69.2782234 C14.3777,68.5958234 12.0201,69.7598234 12.0151,69.7799234 C11.9761,69.7758234 14.6013,72.8180234 17.7633,73.3860234 Z" id="Path" fill="url(#radialGradient-33)"></path>
            <path d="M18.294,62.0439234 C18.4936,64.8062234 17.1102,67.0990234 17.0902,67.0960234 C17.0852,67.1310234 14.6947,64.4872234 14.6478,61.5563234 C14.5889,58.6465234 16.6031,56.8665234 16.5822,56.8625234 C16.5771,56.8895234 18.0854,59.3027234 18.294,62.0439234 Z" id="Path" fill="url(#radialGradient-34)"></path>
            <path d="M11.9638,67.4070234 C12.8059,67.7255234 13.7069,67.8561234 14.6042,67.7896234 C15.5015,67.7230234 16.3737,67.4611234 17.1601,67.0216234 C17.1291,67.0156234 14.9063,64.5131234 12.2313,63.3343234 C9.53034001,62.1623234 7.02799001,62.8796234 7.02100001,62.8987234 C6.98407001,62.8918234 9.01129001,66.3092234 11.9638,67.4070234 Z" id="Path" fill="url(#radialGradient-35)"></path>
            <path d="M14.4783,56.4743234 C14.1948,59.1995234 12.445,61.1840234 12.4271,61.1840234 C12.4171,61.2172234 10.5526,58.2311234 11.0027,55.3574234 C11.4399,52.5119234 13.7087,51.1262234 13.6897,51.1201234 C13.6827,51.1413234 14.7517,53.7682234 14.4783,56.4743234 Z" id="Path" fill="url(#radialGradient-36)"></path>
            <path d="M7.38232001,60.5845234 C8.14711001,61.0425234 9.00176001,61.3277234 9.88710001,61.4208234 C10.7724,61.5139234 11.6673,61.4124234 12.5098,61.1234234 C12.4828,61.1133234 10.7571,58.2827234 8.34155001,56.6634234 C5.90108001,55.0419234 3.33087001,55.2958234 3.32189001,55.3127234 C3.28795001,55.2987234 4.69134001,58.9962234 7.38232001,60.5845234 Z" id="Path" fill="url(#radialGradient-37)"></path>
            <path d="M11.6973,50.3653234 C10.9637,52.9801234 8.91546001,54.6046234 8.90249001,54.5967234 C8.88850001,54.6278234 7.56896001,51.3808234 8.48625001,48.6456234 C9.38458001,45.9364234 11.838,44.9822234 11.8211,44.9721234 C11.8061,44.9973234 12.4189,47.7687234 11.6973,50.3653234 Z" id="Path" fill="url(#radialGradient-38)"></path>
            <path d="M4.06395001,53.1193234 C4.73287001,53.7030234 5.51974001,54.1338234 6.37030001,54.3821234 C7.22087001,54.6306234 8.11491001,54.6906234 8.99078001,54.5581234 C8.96584001,54.5441234 7.75609001,51.4738234 5.65799001,49.4540234 C3.53794001,47.4282234 0.977699006,47.2144234 0.966719006,47.2305234 C0.935777006,47.2104234 1.69836001,51.0865234 4.06395001,53.1193234 Z" id="Path" fill="url(#radialGradient-39)"></path>
            <path d="M9.99090001,43.8777234 C8.83905001,46.3140234 6.56327001,47.5371234 6.54830001,47.5270234 C6.52933001,47.5552234 5.77473001,44.1346234 7.12622001,41.6071234 C8.45775001,39.0986234 11.019,38.5969234 11.002,38.5888234 C10.987,38.6110234 11.1278,41.4566234 9.99090001,43.8777234 Z" id="Path" fill="url(#radialGradient-40)"></path>
            <path d="M2.05639001,45.2054234 C2.61189001,45.8982234 3.30978001,46.4620234 4.10226001,46.8585234 C4.89475001,47.2550234 5.76310001,47.4745234 6.64785001,47.5021234 C6.62688001,47.4840234 5.94915001,44.2561234 4.22934001,41.8903234 C2.48959001,39.5132234 0.0181784059,38.8390234 0.00420449591,38.8530234 C-0.0277360941,38.8290234 0.0740749059,42.7853234 2.05639001,45.2054234 Z" id="Path" fill="url(#radialGradient-41)"></path>
            <path d="M9.39593001,37.1742234 C7.85979001,39.3725234 5.42832001,40.1652234 5.41533001,40.1523234 C5.39238001,40.1782234 5.22169001,36.6705234 6.97343001,34.4118234 C8.70222001,32.1712234 11.2954,32.1352234 11.2814565,32.1211234 C11.2615,32.1421234 10.9081,34.9898234 9.39593001,37.1742234 Z" id="Path" fill="url(#radialGradient-42)"></path>
            <path d="M1.40490001,37.0569234 C1.82944001,37.8391234 2.41644001,38.5202234 3.12600001,39.0541234 C3.83556001,39.5880234 4.65111001,39.9623234 5.51725001,40.1514234 C5.49928001,40.1303234 5.37152001,36.8262234 4.08991001,34.1722234 C2.79232001,31.5062234 0.496587006,30.3885234 0.473631006,30.4005234 C0.446680006,30.3724234 -0.132241994,34.3116234 1.40490001,37.0569234 Z" id="Path" fill="url(#radialGradient-43)"></path>
            <path d="M9.95392001,30.4321234 C8.07044001,32.3386234 5.56210001,32.6828234 5.54714001,32.6676234 C5.51918001,32.6897234 5.95238001,29.1819234 8.06944001,27.2493234 C10.1596,25.3299234 12.7088,25.7574234 12.6968422,25.7443234 C12.6729,25.7564234 11.8145,28.5367234 9.95392001,30.4321234 Z" id="Path" fill="url(#radialGradient-44)"></path>
            <path d="M2.15903001,28.8665234 C3.16615001,31.8446234 5.66550001,32.6674234 5.64553001,32.6794234 C5.63056001,32.6564234 6.07075001,29.3591234 5.29019001,26.4845234 C4.49168001,23.5958234 2.44949001,22.0696234 2.42952001,22.0747234 C2.40956001,22.0416234 1.12694001,25.8674234 2.15903001,28.8665234 Z" id="Path" fill="url(#radialGradient-45)"></path>
            <path d="M11.7054,23.8072234 C9.50944001,25.3744234 6.99312001,25.2631234 6.98414001,25.2469234 C6.95120001,25.2650234 8.00923001,21.8445234 10.4547,20.2823234 C12.8712,18.7300234 15.2957,19.6080234 15.2857308,19.5909234 C15.2587,19.6050234 13.8763,22.2468234 11.7054,23.8072234 Z" id="Path" fill="url(#radialGradient-46)"></path>
            <path d="M4.36212001,20.8478234 C4.80031001,24.0025234 7.10301001,25.2708234 7.08006001,25.2779234 C7.06908001,25.2527234 8.09317001,22.0429234 7.87858001,19.0227234 C7.64700001,15.9855234 5.94517001,14.0851234 5.92321001,14.0901234 C5.90425001,14.0550234 3.90397001,17.6642234 4.36212001,20.8478234 Z" id="Path" fill="url(#radialGradient-47)"></path>
            <path d="M14.7007,17.4748234 C12.2323,18.6638234 9.78885001,18.1019234 9.78086001,18.0848234 C9.74393001,18.0980234 11.4458,14.8530234 14.1837,13.7031234 C14.9644,13.3724234 15.8067,13.2141234 16.6536,13.2388234 C17.5004,13.2636234 18.3322,13.4708234 19.0925,13.8466234 C19.0616,13.8556234 17.1371,16.2878234 14.7007,17.4748234 Z" id="Path" fill="url(#radialGradient-48)"></path>
            <path d="M8.06365001,13.2034234 C7.86402001,16.4523234 9.88925001,18.1310234 9.86030001,18.1340234 C9.85331001,18.1078234 11.4793,15.0687234 11.8905,11.9833234 C12.2898,8.87881343 11.0171,6.66535343 10.9922,6.66535343 C10.9822,6.62823343 8.24231001,9.92534343 8.06365001,13.2034234 Z" id="Path" fill="url(#radialGradient-49)"></path>
            <path d="M18.9641,11.6060234 C16.2612,12.3856234 13.9734,11.3892234 13.9654,11.3712234 C13.9225,11.3792234 16.2891,8.39616343 19.2795,7.69379343 C22.2331,6.99142343 24.1634,8.68915343 24.1585093,8.67008343 C24.1196,8.67409343 21.6352,10.8263234 18.9641,11.6060234 Z" id="Path" fill="url(#radialGradient-50)"></path>
            <path d="M13.3092,6.13401343 C12.4109,9.38698343 14.0678,11.4308234 14.0398,11.4318234 C14.0398,11.4048234 16.2807,8.61637343 17.3857,5.55507343 C18.4836,2.47266343 17.7281,0.00133878397 17.7001,0.000335403972 C17.695,-0.035786366 14.1896,2.85094343 13.3092,6.13401343 Z" id="Path" fill="url(#radialGradient-51)"></path>
            <path d="M48.2431,79.8318234 L48.1891,79.2296234 C43.2754,79.6775234 38.3225,79.1213234 33.6281,77.5941234 C28.9824,76.0915234 24.6627,73.7156234 20.8989,70.5927234 C12.9697,64.0435234 7.85616001,54.6970234 6.49969001,44.2748234 C5.38975001,35.7411234 5.95969001,28.1365234 8.19653001,21.6717234 C10.5911,14.7293234 14.8631,9.29798343 20.889,5.52626343 L20.5734,5.01855343 C14.4299,8.86351343 10.075,14.4002234 7.63059001,21.4740234 C5.36579001,28.0271234 4.78688001,35.7220234 5.90978001,44.3511234 C7.28523001,54.9248234 12.4746,64.4078234 20.5206,71.0541234 C24.3422,74.2272234 28.7287,76.6416234 33.4466,78.1692234 C38.2168,79.7201234 43.2497,80.2856234 48.2431,79.8318234 Z" id="Path" fill="url(#radialGradient-52)"></path>
            <polygon id="Path" fill="url(#radialGradient-53)" points="47.2653 76.7844234 42.7637 80.1106234 47.2653 83.4378234 51.766 80.1106234"></polygon>
        </g>
    </g>
</svg>