<?xml version="1.0" encoding="UTF-8"?>
<svg width="19px" height="8px" viewBox="0 0 19 8" version="1.1" xmlns="http://www.w3.org/2000/svg" xmlns:xlink="http://www.w3.org/1999/xlink">
    <title>icon-13</title>
    <g id="Page-1" stroke="none" stroke-width="1" fill="none" fill-rule="evenodd">
        <g id="icon-13" fill="#F36D45" fill-rule="nonzero">
            <path d="M2.12301,3.98659 L4.74315,1.44957 C4.90761,1.29032 5,1.07434 5,0.849137 C5,0.623932 4.90761,0.40795 4.74315,0.248707 C4.57868,0.0894627 4.35563,1.54543045e-13 4.12305,1.54543045e-13 C3.89046,1.54543045e-13 3.66741,0.0894627 3.50295,0.248707 L0.253972,3.40308 C0.0913045,3.56152 0,3.77586 0,3.99928 C0,4.22269 0.0913045,4.43703 0.253972,4.59548 L3.50295,7.74985 C3.58414,7.82911 3.68074,7.89203 3.78716,7.93496 C3.89359,7.97789 4.00775,8 4.12305,8 C4.23834,8 4.3525,7.97789 4.45893,7.93496 C4.56536,7.89203 4.66195,7.82911 4.74315,7.74985 C4.90581,7.5914 4.99712,7.37706 4.99712,7.15365 C4.99712,6.93023 4.90581,6.7159 4.74315,6.55745 L2.12301,3.98659 Z" id="Path"></path>
            <path d="M14.2581,7.75255 C14.4217,7.91104 14.643,8 14.8736,8 C15.1043,8 15.3256,7.91104 15.4892,7.75255 L18.7461,4.62109 C18.9087,4.46166 18.9999948,4.24598 18.9999948,4.02118 C18.9999948,3.79637 18.9087,3.5807 18.7461,3.42126 L15.4892,0.247251 C15.3248,0.0881444 15.1023,-0.000792594 14.8706,0 C14.6389,0.00080324 14.417,0.09127 14.2537,0.251505 C14.0904,0.411741 13.9992,0.628619 13.9999948,0.854428 C14.0008,1.08024 14.0937,1.29648 14.2581,1.45559 L16.8775,4.00841 L14.2581,6.56123 C14.0981,6.7203 14.0085,6.93416 14.0085,7.15689 C14.0085,7.37963 14.0981,7.59349 14.2581,7.75255 Z" id="Path"></path>
            <path d="M11.5303,1.11066 C11.4312,1.05635 11.3217,1.02112 11.2081,1.007 C11.0945,0.992885 10.9791,1.00016 10.8685,1.02841 C10.7579,1.05667 10.6543,1.10533 10.5637,1.17161 C10.473,1.23789 10.3972,1.32048 10.3404,1.41461 L7.13556,6.73781 C7.07272,6.83131 7.03053,6.93587 7.01152,7.04519 C6.9925,7.15452 6.99707,7.26635 7.02494,7.37396 C7.05281,7.48157 7.1034,7.58274 7.17368,7.67137 C7.24395,7.76001 7.33246,7.83429 7.43388,7.88973 C7.53529,7.94518 7.64751,7.98065 7.76379,7.99401 C7.88008,8.00737 7.99801,7.99834 8.11051,7.96747 C8.22301,7.9366 8.32774,7.88453 8.41841,7.81438 C8.50908,7.74424 8.58381,7.65747 8.63811,7.55929 L11.8777,2.26074 C11.9383,2.16448 11.9775,2.05752 11.9927,1.94643 C12.008,1.83533 11.9991,1.72246 11.9666,1.61474 C11.934,1.50702 11.8786,1.40673 11.8035,1.32005 C11.7285,1.23336 11.6355,1.1621 11.5303,1.11066 Z" id="Path"></path>
        </g>
    </g>
</svg>