<?xml version="1.0" encoding="UTF-8"?>
<svg width="46px" height="30px" viewBox="0 0 46 30" version="1.1" xmlns="http://www.w3.org/2000/svg" xmlns:xlink="http://www.w3.org/1999/xlink">
    <title>icon-1</title>
    <g id="Page-1" stroke="none" stroke-width="1" fill="none" fill-rule="evenodd">
        <g id="icon-1" transform="translate(1.000003, 1.000002)" fill="#F36D45" fill-rule="nonzero" stroke="#E9F2F8">
            <path d="M32.7600966,28.0009983 L8.86803665,28.0009983 C6.61548665,27.9988983 4.44799665,27.1411983 2.80482665,25.6018983 C1.16166665,24.0624983 0.165736649,21.9565983 0.018896649,19.7108983 C-0.127955351,17.4651983 0.585256649,15.2476983 2.01399665,13.5078983 C3.44272665,11.7679983 5.48010665,10.6358983 7.71323665,10.3409983 C8.41428665,7.75610832 9.84259665,5.42625832 11.8286966,3.62770832 C13.8147966,1.82915832 16.2755966,0.637348321 18.9190966,0.193588321 C21.5625966,-0.250180679 24.2780966,0.0727183206 26.7434966,1.12397832 C29.2088966,2.17524832 31.3208966,3.91079832 32.8289966,6.12484832 C35.7148966,6.16126832 38.4696966,7.33450832 40.4942966,9.38939832 C42.5188966,11.4442983 43.6495966,14.2146983 43.6405512,17.0980983 C43.6313966,19.9814983 42.4832966,22.7446983 40.4457966,24.7868983 C38.4082966,26.8289983 35.6461966,27.9848983 32.7600966,28.0031983 L32.7600966,28.0009983 Z M8.86803665,13.5421983 C7.38395665,13.5421983 5.96064665,14.1311983 4.91124665,15.1795983 C3.86183665,16.2280983 3.27228665,17.6500983 3.27228665,19.1327983 C3.27228665,20.6154983 3.86183665,22.0374983 4.91124665,23.0858983 C5.96064665,24.1342983 7.38395665,24.7233983 8.86803665,24.7233983 L32.7600966,24.7233983 C34.7780966,24.6992983 36.7052966,23.8814983 38.1236966,22.4472983 C39.5421966,21.0130983 40.3376966,19.0780983 40.3376966,17.0617983 C40.3376966,15.0455983 39.5421966,13.1105983 38.1236966,11.6763983 C36.7052966,10.2421983 34.7780966,9.42439832 32.7600966,9.40029832 C32.5523966,9.40029832 32.3336966,9.41019832 32.0897966,9.43199832 C31.7797966,9.45869832 31.4684966,9.39679832 31.1923966,9.25349832 C30.9162966,9.11009832 30.6866966,8.89124832 30.5303966,8.62242832 C29.4243966,6.71624832 27.7575966,5.19662832 25.7566966,4.27018832 C23.7557966,3.34374832 21.5177966,3.05543832 19.3470966,3.44445832 C17.1764966,3.83347832 15.1782966,4.88095832 13.6244966,6.44446832 C12.0706966,8.00797832 11.0364966,10.0115983 10.6625966,12.1830983 C10.5961966,12.5712983 10.3920966,12.9225983 10.0876966,13.1727983 C9.78319665,13.4229983 9.39879665,13.5552983 9.00469665,13.5454983 L8.92818665,13.5454983 L8.86803665,13.5421983 Z" id="Shape"></path>
        </g>
    </g>
</svg>