<?xml version="1.0" encoding="UTF-8"?>
<svg width="14px" height="14px" viewBox="0 0 14 14" version="1.1" xmlns="http://www.w3.org/2000/svg" xmlns:xlink="http://www.w3.org/1999/xlink">
    <title>icon-w-6</title>
    <g id="Page-1" stroke="none" stroke-width="1" fill="none" fill-rule="evenodd">
        <g id="icon-w-6" transform="translate(0.000245, 0.000000)" fill="#F36D45" fill-rule="nonzero">
            <path d="M4.9997556,11.0000006 C4.60419497,11.0000006 4.21751497,10.8827 3.88861497,10.6629 C3.55971497,10.4432 3.30337497,10.1308 3.15199497,9.7654 C3.00062497,9.3999 2.96101497,8.99778 3.03818497,8.60982 C3.11535497,8.22186 3.30583497,7.86549 3.58554497,7.58579 C3.86524497,7.30608 4.22161497,7.1156 4.60957497,7.03843 C4.99753497,6.96126 5.39967497,7.00087 5.76512497,7.15224 C6.13057497,7.30362 6.44293497,7.55996 6.66269497,7.88886 C6.88245497,8.21776 6.9997556,8.60444 6.9997556,9.00000064 C6.99920497,9.5303 6.78830497,10.0386 6.41335497,10.4136 C6.03840497,10.7886 5.53001497,10.9994 4.9997556,11.0000006 Z M4.99975566,8 C4.80197497,8 4.60863497,8.05865 4.44418497,8.16853 C4.27973497,8.27841 4.15156497,8.43459 4.07587497,8.61732 C4.00018497,8.80004 3.98038497,9.0011 4.01897497,9.1951 C4.05755497,9.3891 4.15279497,9.5673 4.29264497,9.7071 C4.43250497,9.847 4.61068497,9.9422 4.80466497,9.9808 C4.99864497,10.0194 5.19971497,9.9996 5.38243497,9.9239 C5.56516497,9.8482 5.72134497,9.72 5.83122497,9.5556 C5.94110497,9.3911 5.99975566,9.1978 5.99975566,9 C5.99945497,8.73488 5.89399497,8.4807 5.70652497,8.29323 C5.51905497,8.10576 5.26487497,8.00031 4.99975566,8 Z" id="Shape"></path>
            <path d="M13.999755,2 C13.999255,1.46974 13.788355,0.96135 13.413355,0.5864 C13.038455,0.21145 12.530055,0.00056 11.999755,-8.8817842e-16 C11.675955,0.00226 11.357655,0.08413 11.072955,0.2384 L2.87834497,4.47895 C2.15036497,4.81964 1.51532497,5.33095 1.02713497,5.96946 C0.538954966,6.60797 0.212024966,7.35485 0.0741049663,8.14668 C-0.0638180337,8.93852 -0.00865603372,9.7519 0.234904966,10.5179 C0.478464966,11.2839 0.903234966,11.9798 1.47315497,12.5465 C2.04308497,13.1133 2.74133497,13.5342 3.50864497,13.7735 C4.27595497,14.0128 5.08967497,14.0634 5.88073497,13.9211 C6.67178497,13.7787 7.41682497,13.4477 8.05261497,12.9559 C8.68840497,12.4642 9.19615497,11.8263 9.53275497,11.0964 L13.777755,2.89675 C13.921655,2.61959 13.997755,2.31227 13.999755,2 Z M11.999755,1 C12.197555,1 12.390955,1.05865 12.555355,1.16853 C12.719855,1.27841 12.847955,1.43459 12.923655,1.61732 C12.999355,1.80004 13.019155,2.00111 12.980555,2.19509 C12.941955,2.38907 12.846755,2.56725 12.706855,2.70711 C12.567055,2.84696 12.388855,2.9422 12.194855,2.98079 C12.000855,3.01937 11.799855,2.99957 11.617155,2.92388 C11.434355,2.84819 11.278255,2.72002 11.168355,2.55557 C11.058455,2.39112 10.999755,2.19778 10.999755,2 C11.000055,1.73488 11.105555,1.4807 11.293055,1.29323 C11.480455,1.10576 11.734655,1.0003 11.999755,1 Z M10.009455,1.90415 C10.007955,1.9366 9.99975497,1.96715 9.99975497,2 C10.000355,2.53026 10.211255,3.03865 10.586155,3.4136 C10.961155,3.78855 11.469555,3.99944 11.999755,4 C12.032055,4 12.062055,3.992 12.093855,3.9905 L9.92795497,8.17135 C9.75335497,7.14637 9.26405497,6.20114 8.52797497,5.4668 C7.79188497,4.73247 6.84549497,4.24543 5.82009497,4.07325 L10.009455,1.90415 Z M4.99979403,12.9999991 C4.20866497,12.9999991 3.43531497,12.7654 2.77751497,12.3259 C2.11971497,11.8864 1.60702497,11.2616 1.30427497,10.5307 C1.00152497,9.7998 0.922314966,8.99556 1.07665497,8.21964 C1.23099497,7.44371 1.61195497,6.73098 2.17136497,6.17157 C2.73077497,5.61216 3.44350497,5.2312 4.21943497,5.07686 C4.99535497,4.92252 5.79962497,5.00173 6.53052497,5.30448 C7.26143497,5.60723 7.88614497,6.11992 8.32567497,6.77772 C8.76519497,7.43552 8.99975497,8.20887 8.99975497,8.99999906 C8.99857497,10.0605 8.57675497,11.0772 7.82687497,11.8271 C7.07699497,12.577 6.06028497,12.9988 4.99979403,12.9999991 Z" id="Shape"></path>
        </g>
    </g>
</svg>