<?xml version="1.0" encoding="UTF-8"?>
<svg width="13px" height="16px" viewBox="0 0 13 16" version="1.1" xmlns="http://www.w3.org/2000/svg" xmlns:xlink="http://www.w3.org/1999/xlink">
    <title>icon-w-5</title>
    <g id="Page-1" stroke="none" stroke-width="1" fill="none" fill-rule="evenodd">
        <g id="icon-w-5" fill="#F36D45" fill-rule="nonzero">
            <path d="M12.3333,16 L7.66659,16 C7.48225,16 7.33325,15.8507 7.33325,15.6667 L7.33325,0.333333 C7.33325,0.149333 7.48225,0 7.66659,0 L12.3333,0 C12.5176,0 12.6666,0.149333 12.6666,0.333333 L12.6666,15.6667 C12.6666,15.8507 12.5176,16 12.3333,16 Z M7.99992,15.3333 L11.9999,15.3333 L11.9999,0.666667 L7.99992,0.666667 L7.99992,15.3333 Z" id="Shape"></path>
            <polygon id="Path" points="9.3334 2.66675 7.66675 2.66675 7.66675 3.33341 9.3334 3.33341"></polygon>
            <polygon id="Path" points="9.3334 4.66675 7.66675 4.66675 7.66675 5.33342 9.3334 5.33342"></polygon>
            <polygon id="Path" points="9.3334 6.66675 7.66675 6.66675 7.66675 7.33342 9.3334 7.33342"></polygon>
            <polygon id="Path" points="9.3334 8.66675 7.66675 8.66675 7.66675 9.33341 9.3334 9.33341"></polygon>
            <polygon id="Path" points="9.3334 10.6667 7.66675 10.6667 7.66675 11.3334 9.3334 11.3334"></polygon>
            <polygon id="Path" points="9.3334 12.6667 7.66675 12.6667 7.66675 13.3334 9.3334 13.3334"></polygon>
            <path d="M3,15.3334 L1.66667,15.3334 C0.74767,15.3334 0,14.5857 0,13.6667 L0,4.00003 C0,3.93436 0.01967,3.8697 0.056,3.81503 L2.056,0.815031 C2.17967,0.629365 2.487,0.629365 2.61067,0.815031 L4.61067,3.81503 C4.647,3.8697 4.66667,3.93436 4.66667,4.00003 L4.66667,13.6667 C4.66667,14.5857 3.919,15.3334 3,15.3334 Z M0.66667,4.10103 L0.66667,13.6667 C0.66667,14.218 1.11533,14.6667 1.66667,14.6667 L3,14.6667 C3.55133,14.6667 4,14.218 4,13.6667 L4,4.10103 L2.33333,1.60103 L0.66667,4.10103 Z" id="Shape"></path>
            <path d="M4.33333,13.3334 L0.33333,13.3334 C0.149,13.3334 0,13.1841 0,13.0001 C0,12.8161 0.149,12.6667 0.33333,12.6667 L4.33333,12.6667 C4.51767,12.6667 4.66667,12.8161 4.66667,13.0001 C4.66667,13.1841 4.51767,13.3334 4.33333,13.3334 Z" id="Path"></path>
            <path d="M4.33333,11.9999 L0.33333,11.9999 C0.149,11.9999 0,11.8506 0,11.6666 C0,11.4826 0.149,11.3333 0.33333,11.3333 L4.33333,11.3333 C4.51767,11.3333 4.66667,11.4826 4.66667,11.6666 C4.66667,11.8506 4.51767,11.9999 4.33333,11.9999 Z" id="Path"></path>
            <path d="M1.666585,12 C1.48225,12 1.33325,11.8507 1.33325,11.6667 L1.33325,5.33333 C1.33325,5.14933 1.48225,5 1.666585,5 C1.85092,5 1.99992,5.14933 1.99992,5.33333 L1.99992,11.6667 C1.99992,11.8507 1.85092,12 1.666585,12 Z" id="Path"></path>
            <path d="M3.000085,12 C2.81575,12 2.66675,11.8507 2.66675,11.6667 L2.66675,5.33333 C2.66675,5.14933 2.81575,5 3.000085,5 C3.18441,5 3.33342,5.14933 3.33342,5.33333 L3.33342,11.6667 C3.33342,11.8507 3.18441,12 3.000085,12 Z" id="Path"></path>
            <polygon id="Path" points="3.33325 2.33325 1.33325 2.33325 1.33325 2.99992 3.33325 2.99992"></polygon>
            <path d="M1.33333,5.66667 C0.598,5.66667 0,5.06867 0,4.33333 C0,4.14933 0.149,4 0.33333,4 C0.51767,4 0.66667,4.14933 0.66667,4.33333 C0.66667,4.701 0.96567,5 1.33333,5 C1.701,5 2,4.701 2,4.33333 C2,4.14933 2.149,4 2.33333,4 C2.51767,4 2.66667,4.14933 2.66667,4.33333 C2.66667,5.06867 2.06867,5.66667 1.33333,5.66667 Z" id="Path"></path>
            <path d="M3.33333,5.66667 C2.598,5.66667 2,5.06867 2,4.33333 C2,4.14933 2.149,4 2.33333,4 C2.51767,4 2.66667,4.14933 2.66667,4.33333 C2.66667,4.701 2.96567,5 3.33333,5 C3.701,5 4,4.701 4,4.33333 C4,4.14933 4.149,4 4.33333,4 C4.51767,4 4.66667,4.14933 4.66667,4.33333 C4.66667,5.06867 4.06867,5.66667 3.33333,5.66667 Z" id="Path"></path>
        </g>
    </g>
</svg>