<?xml version="1.0" encoding="UTF-8"?>
<svg width="14px" height="18px" viewBox="0 0 14 18" version="1.1" xmlns="http://www.w3.org/2000/svg" xmlns:xlink="http://www.w3.org/1999/xlink">
    <title>icon-11</title>
    <g id="Page-1" stroke="none" stroke-width="1" fill="none" fill-rule="evenodd">
        <g id="icon-11" transform="translate(0.411620, 0.464111)" fill="#F36D45" fill-rule="nonzero" stroke="#F36D45" stroke-width="0.2">
            <path d="M13.08518,5.498439 C13.05698,5.336719 12.89528,5.217189 12.73358,5.217189 L12.48748,5.217189 C12.29768,5.217189 12.10778,5.217189 11.91098,5.217189 C11.78438,4.703909 11.58048,4.211719 11.29918,3.754689 L11.37658,3.677339 C11.54528,3.508589 11.72108,3.332809 11.88988,3.164059 C12.00938,3.044529 12.02348,2.861719 11.92498,2.728129 C11.50308,2.144529 10.98988,1.631249 10.40628,1.216409 C10.27268,1.117969 10.08988,1.139059 9.97028,1.258589 C9.86488,1.364059 9.75938,1.476559 9.64688,1.582029 C9.56248,1.666409 9.47108,1.757809 9.37968,1.849219 C8.92268,1.574999 8.43048,1.371089 7.91018,1.244529 C7.91018,1.181249 7.91018,1.124999 7.91018,1.061719 L7.91018,0.956249 C7.91018,0.942189 7.91018,0.928129 7.91018,0.914059 L7.91018,0.745309 C7.91018,0.639849 7.91018,0.534375 7.91018,0.414844 C7.91018,0.246094 7.79058,0.105469 7.62888,0.084375 C6.91875,-0.028125 6.24375,-0.028125 5.53359,0.084375 C5.36484,0.1125 5.24531,0.260157 5.25234,0.435938 C5.25234,0.541409 5.25234,0.646879 5.25234,0.752339 L5.25234,0.921099 C5.25234,0.935159 5.25234,0.949219 5.25234,0.963279 L5.25234,1.068749 C5.25234,1.132029 5.25234,1.195309 5.25234,1.251559 C4.73906,1.378129 4.24688,1.582029 3.78281,1.856249 C3.69141,1.764839 3.60703,1.680469 3.51563,1.589059 C3.41016,1.483589 3.29766,1.378129 3.19219,1.265629 C3.07969,1.146089 2.88984,1.132029 2.75625,1.223439 C2.17969,1.631249 1.66641,2.144529 1.24453,2.728129 C1.14609,2.861719 1.16719,3.051559 1.27969,3.164059 C1.45547,3.332809 1.62422,3.508589 1.79297,3.677339 L1.87031,3.754689 C1.59609,4.211719 1.39219,4.703909 1.25859,5.217189 C1.06875,5.217189 0.87891,5.217189 0.68203,5.217189 L0.41484,5.217189 C0.24609,5.217189 0.10547,5.336719 0.08438,5.505469 C0.02813,5.878129 -8.8817842e-16,6.229689 -8.8817842e-16,6.574219 C-8.8817842e-16,6.932809 0.02813,7.291409 0.08438,7.642969 C0.1125,7.797659 0.25313,7.917189 0.40781,7.924219 C0.42188,7.924219 0.44297,7.924219 0.47813,7.924219 C0.64688,7.924219 0.80859,7.924219 0.97734,7.924219 C1.06875,7.924219 1.16016,7.924219 1.25156,7.924219 C1.38516,8.444529 1.58906,8.936719 1.87031,9.400779 C1.69453,9.576589 1.51875,9.745289 1.34297,9.928089 C1.31484,9.956289 1.28672,9.984389 1.26563,10.012489 C1.16016,10.131989 1.15313,10.300789 1.24453,10.427389 C1.66641,11.003889 2.17266,11.510189 2.75625,11.924989 C2.88984,12.023389 3.09375,11.988289 3.21328,11.861689 C3.32578,11.742189 3.44531,11.629689 3.55781,11.510189 C3.63516,11.439889 3.70547,11.362489 3.77578,11.292189 C3.83906,11.327389 3.90234,11.369489 3.97266,11.404689 C4.13438,11.496089 4.33828,11.432789 4.42969,11.271089 C4.52109,11.109389 4.45781,10.905489 4.29609,10.814089 C4.14844,10.736689 4.02188,10.659389 3.91641,10.581989 C3.78984,10.497689 3.62109,10.511689 3.50859,10.610189 L3.45234,10.652389 C3.44531,10.659389 3.43828,10.666389 3.43125,10.673389 C3.31875,10.792989 3.19922,10.912489 3.07969,11.031989 C3.02344,11.088289 2.96719,11.144489 2.91094,11.200789 C2.55938,10.919489 2.23594,10.603089 1.96172,10.251589 C2.13047,10.075789 2.30625,9.906989 2.48906,9.731289 C2.52422,9.696089 2.55938,9.660889 2.58047,9.625789 C2.65781,9.513279 2.65781,9.365619 2.58047,9.253119 C2.22188,8.718749 1.97578,8.128129 1.85625,7.509379 C1.82813,7.354689 1.6875,7.235159 1.52578,7.235159 L1.49063,7.235159 C1.32188,7.235159 1.15313,7.235159 0.98438,7.235159 C0.89297,7.235159 0.80156,7.235159 0.71719,7.235159 C0.68906,7.010159 0.68203,6.785159 0.68203,6.560159 C0.68203,6.335159 0.69609,6.110159 0.72422,5.878129 C0.95625,5.878129 1.18828,5.878129 1.41328,5.885159 C1.48359,5.892189 1.56094,5.885159 1.63125,5.864059 C1.75781,5.828909 1.84922,5.730469 1.87031,5.603909 C1.98984,4.992189 2.22891,4.422659 2.58047,3.895309 C2.65078,3.782809 2.65781,3.642189 2.5875,3.529689 C2.55234,3.466409 2.50313,3.417189 2.44688,3.367969 L2.42578,3.346879 L2.27813,3.199219 C2.17266,3.093749 2.07422,2.988279 1.96875,2.889849 C2.25,2.531249 2.57344,2.214839 2.93203,1.933589 C2.97422,1.975779 3.00938,2.010939 3.05156,2.053129 C3.17813,2.179689 3.30469,2.299219 3.41719,2.418749 C3.4875,2.496089 3.55781,2.545309 3.64219,2.573439 C3.74063,2.608599 3.85313,2.594529 3.94453,2.538279 C4.47188,2.193749 5.04844,1.954689 5.66016,1.835159 C5.78672,1.807029 5.89219,1.715629 5.92031,1.582029 C5.93438,1.532809 5.94141,1.483589 5.93437,1.413279 C5.92734,1.293749 5.92734,1.174219 5.93437,1.047659 L5.93437,0.892969 C5.93437,0.878909 5.93437,0.864839 5.93437,0.850779 L5.93437,0.724219 C5.93437,0.710159 5.93437,0.696099 5.93437,0.674999 C6.37734,0.625779 6.80625,0.625779 7.24922,0.674999 C7.24922,0.689059 7.24922,0.703129 7.24922,0.724219 L7.24922,0.843749 C7.24922,0.857809 7.24922,0.871879 7.24922,0.885939 L7.24922,1.040629 C7.24922,1.160159 7.24922,1.279689 7.24219,1.420309 C7.24219,1.476559 7.24922,1.525779 7.26328,1.574999 C7.29141,1.701559 7.39688,1.799999 7.52344,1.828129 C8.13518,1.947659 8.71168,2.179689 9.23908,2.531249 C9.33048,2.587499 9.43598,2.601559 9.54138,2.566409 C9.61878,2.538279 9.69608,2.489059 9.75938,2.418749 C9.87888,2.292189 10.00548,2.165629 10.13208,2.046089 C10.17418,2.003909 10.20938,1.968749 10.25158,1.926559 C10.61018,2.207809 10.93358,2.531249 11.21488,2.882809 C11.10938,2.988279 11.00388,3.093749 10.90548,3.192189 L10.75778,3.339839 L10.73668,3.360939 C10.68048,3.417189 10.63828,3.466409 10.59608,3.522659 C10.52578,3.635159 10.53278,3.775779 10.60308,3.888279 C10.95468,4.415629 11.19378,4.985159 11.31328,5.596879 C11.34138,5.723439 11.43278,5.821879 11.55238,5.857029 C11.62268,5.878129 11.69298,5.885159 11.75628,5.878129 C11.98828,5.871089 12.22028,5.871089 12.45238,5.871089 C12.48048,6.096089 12.48748,6.328129 12.48748,6.553129 C12.48748,6.778129 12.47348,7.010159 12.45238,7.228129 C12.36098,7.228129 12.26958,7.228129 12.18518,7.228129 C12.01638,7.228129 11.84768,7.228129 11.67888,7.228129 L11.64378,7.228129 C11.48208,7.228129 11.34848,7.340629 11.31328,7.502339 C11.18668,8.121089 10.94768,8.704689 10.58908,9.246089 C10.51168,9.358589 10.51168,9.506249 10.58908,9.618789 C10.61018,9.653889 10.63828,9.681989 10.68048,9.724189 C10.85628,9.892989 11.02498,10.068789 11.20078,10.244489 C10.91958,10.596089 10.60308,10.912489 10.25158,11.193789 C10.18828,11.130489 10.12498,11.067189 10.06168,11.003889 C9.94918,10.891389 9.83668,10.785889 9.73128,10.673389 C9.72418,10.666389 9.71718,10.659389 9.71018,10.652389 L9.64688,10.603089 C9.53438,10.504689 9.36558,10.497689 9.24608,10.581989 C9.12658,10.666389 8.99998,10.736689 8.86638,10.806989 C8.70468,10.898389 8.64138,11.102389 8.73278,11.264089 C8.82418,11.425789 9.02808,11.489089 9.18988,11.397689 C9.26018,11.362489 9.32348,11.320289 9.39378,11.285189 C9.45708,11.348389 9.52738,11.418789 9.59058,11.481989 C9.71718,11.608589 9.83668,11.728089 9.95628,11.854689 C9.97738,11.875789 10.01248,11.910889 10.03358,11.924989 C10.08988,11.960189 10.15308,11.981289 10.22348,11.981289 C10.29378,11.981289 10.36408,11.960189 10.42028,11.917989 C11.00388,11.503089 11.51018,10.996889 11.92498,10.420289 C12.01638,10.293789 12.00938,10.117989 11.90388,10.005489 C11.88278,9.977389 11.85468,9.949189 11.81958,9.914089 C11.64378,9.738289 11.47498,9.562489 11.29918,9.393749 C11.58048,8.929689 11.78438,8.430469 11.91798,7.917189 C12.00938,7.917189 12.10078,7.917189 12.19218,7.917189 C12.36098,7.917189 12.52268,7.917189 12.69138,7.917189 C12.71958,7.917189 12.74768,7.917189 12.75468,7.917189 C12.91638,7.917189 13.05698,7.797659 13.08518,7.635939 C13.14138,7.284379 13.16958,6.925779 13.16958,6.567189 C13.16958,6.208589 13.14138,5.849999 13.08518,5.498439 Z" id="Path"></path>
            <path d="M8.14918,8.845359 C8.14918,8.760979 8.12808,8.669579 8.08588,8.592229 L7.07342,6.679729 C7.04529,6.630509 7.01014,6.581299 6.98201,6.560199 C6.87654,6.454729 6.73592,6.391449 6.60232,6.398479 C6.44764,6.391449 6.30701,6.454729 6.22264,6.546139 C6.18045,6.588329 6.14529,6.630509 6.11717,6.686759 L5.10467,8.599259 C5.06248,8.676609 5.04138,8.760979 5.04138,8.852389 L5.01326,15.918789 C5.00623,16.544589 5.49842,17.057889 6.1242,17.078989 L6.60936,17.092989 L7.07342,17.078989 C7.69918,17.057889 8.18438,16.551589 8.18438,15.918789 L8.14918,8.845359 Z M6.58826,7.207079 L7.31951,8.585199 L5.86404,8.585199 L6.58826,7.207079 Z M7.03826,16.396889 L6.59529,16.410989 L6.13123,16.396889 C5.87107,16.389889 5.66717,16.178989 5.66717,15.911789 L5.69529,9.253169 L7.46717,9.253169 L7.49529,15.911789 C7.50232,16.171889 7.29842,16.382889 7.03826,16.396889 Z" id="Shape"></path>
        </g>
    </g>
</svg>