<?xml version="1.0" encoding="UTF-8"?>
<svg width="42px" height="36px" viewBox="0 0 42 36" version="1.1" xmlns="http://www.w3.org/2000/svg" xmlns:xlink="http://www.w3.org/1999/xlink">
    <title>icon-4</title>
    <g id="Page-1" stroke="none" stroke-width="1" fill="none" fill-rule="evenodd">
        <g id="icon-4" fill="#F36D45" fill-rule="nonzero">
            <path d="M40.8641,7.11880003 L21.0694,0.055513725 C20.862,-0.018504575 20.6351,-0.018504575 20.4276,0.055513725 L0.633024,7.11880003 C0.249978,7.25551003 -0.00429073001,7.61999003 0,8.02640003 C0.00429442999,8.43281003 0.266194,8.79189003 0.652102,8.92044003 L8.66937,11.5911 L8.66937,20.899 C8.66937,21.3238 8.95077,21.6974 9.35957,21.8149 L20.4849,25.0131 C20.571,25.0378 20.6598,25.0503 20.7486,25.0503 C20.8374,25.0503 20.9262,25.0379 21.0123,25.0131 L24.5153,24.0061 C25.0217,23.8605 25.314,23.3325 25.1683,22.8267 C25.0226,22.3208 24.4945,22.0286 23.9878,22.1743 L20.7486,23.1055 L10.5772,20.1815 L10.5772,12.2266 L20.4468,15.5143 C20.6427,15.5795 20.8545,15.5796 21.0502,15.5143 L22.8224,14.9241 C22.8226,14.9241 22.8227,14.924 22.8229,14.9239 L24.3155,14.4267 C24.8153,14.2602 25.0855,13.7205 24.9187,13.2211 C24.752,12.7218 24.2119,12.4518 23.712,12.6185 L20.7486,13.6056 L11.8787,10.6509 L3.87662,7.98531003 L20.7486,1.96495003 L37.6205,7.98531003 L31.5723,10.0001 C31.5722,10.0001 31.5722,10.0001 31.5722,10.0001 L30.8257,10.2487 L30.2104,10.4538 L30.2103,10.4538 L29.2561,10.7715 C28.7563,10.938 28.4862,11.4777 28.653,11.9771 C28.8196,12.4764 29.3596,12.7459 29.8597,12.5797 L30.9201,12.2265 L30.9201,20.1814 L29.7311,20.5232 C29.2248,20.6688 28.9325,21.1968 29.0781,21.7026 C29.1985,22.1205 29.5798,22.3924 29.9945,22.3924 C30.0817,22.3924 30.1705,22.3804 30.2586,22.355 L32.1377,21.8148 C32.5464,21.6973 32.8279,21.3236 32.8279,20.8989 L32.8279,11.591 L40.8452,8.92034003 C41.2312,8.79179003 41.493,8.43281003 41.4972513,8.02629003 C41.5014,7.61988003 41.2472,7.25551003 40.8641,7.11880003 Z" id="Path"></path>
            <path d="M28.0845,12.4586 C28.0838,12.4366 28.0832,12.4144 28.0811,12.3924 C28.0795,12.3764 28.0767,12.3609 28.0744,12.3451 C28.0722,12.3303 28.0706,12.3155 28.0677,12.3009 C28.0643,12.2834 28.0597,12.2662 28.0553,12.249 C28.052,12.2363 28.0492,12.2235 28.0455,12.2109 C28.0404,12.194 28.0343,12.1777 28.0284,12.1612 C28.0238,12.1483 28.0195,12.1355 28.0143,12.1229 C28.0082,12.1079 28.0011,12.0935 27.9943,12.0789 C27.9878,12.0652 27.9817,12.0513 27.9745,12.0379 C27.9677,12.025 27.9599,12.0127 27.9526,12.0003 C27.9442,11.986 27.9359,11.9716 27.9267,11.9576 C27.9189,11.946 27.9103,11.9349 27.902,11.9234 C27.892,11.9099 27.8824,11.8961 27.8718,11.883 C27.8615,11.8705 27.8505,11.8587 27.8396,11.8469 C27.8297,11.8359 27.8203,11.8246 27.8099,11.814 C27.7929,11.7969 27.7749,11.7809 27.7567,11.7651 C27.7516,11.7607 27.7471,11.7559 27.7419,11.7516 L27.7396,11.7496 C27.7391,11.7491 27.7384,11.7486 27.7378,11.7481 L21.3587,6.44554003 C20.9539,6.10891003 20.3524,6.16398003 20.0153,6.56859003 C19.6783,6.97320003 19.7336,7.57414003 20.1386,7.91077003 L26.1778,12.9309 L26.1778,29.8265 C25.1192,30.0438 24.3207,30.9818 24.3207,32.1028 L24.3207,33.3973 C24.3207,34.6786 25.364,35.7209 26.6464,35.7209 L27.9422,35.7209 C29.2247,35.7209 30.268,34.6785 30.268,33.3973 L30.268,32.1028 C30.268,30.8697 29.3015,29.8584 28.0856,29.7841 L28.0856,12.4888 C28.0856,12.4886 28.0856,12.4883 28.0856,12.4879 L28.0856,12.484 C28.0858,12.4755 28.0847,12.4672 28.0845,12.4586 Z M28.3602,32.1028 L28.3602,33.3973 C28.3602,33.6276 28.1727,33.8148 27.9422,33.8148 L26.6464,33.8148 C26.4159,33.8148 26.2285,33.6275 26.2285,33.3973 L26.2285,32.1028 C26.2285,31.8725 26.416,31.6853 26.6464,31.6853 L27.9422,31.6853 C28.1728,31.6853 28.3602,31.8725 28.3602,32.1028 Z" id="Shape"></path>
        </g>
    </g>
</svg>