<?xml version="1.0" encoding="UTF-8"?>
<svg width="19px" height="15px" viewBox="0 0 19 15" version="1.1" xmlns="http://www.w3.org/2000/svg" xmlns:xlink="http://www.w3.org/1999/xlink">
    <title>icon-03</title>
    <g id="Page-1" stroke="none" stroke-width="1" fill="none" fill-rule="evenodd">
        <g id="icon-03" transform="translate(0.718748, 0.718748)" fill="#F36D45" stroke="#F36D45" stroke-width="0.2">
            <path d="M0.61948175,0.0584718087 C0.52759175,0.0894018087 0.38551175,0.182021809 0.28974175,0.273371809 C-0.02246025,0.571161809 0.000371750003,0.161001809 0.000371750003,5.46973181 C0.000371750003,10.6221018 -0.01167925,10.3349018 0.21536175,10.5977018 C0.27260175,10.6639018 0.40692175,10.7643018 0.51383175,10.8208018 L0.70827175,10.9235018 L3.85752175,10.9329018 L7.00676175,10.9423018 L7.00676175,11.6324018 L7.00676175,12.3226018 L6.07778175,12.3329018 C5.15127175,12.3432018 5.14862175,12.3434018 5.07946175,12.4250018 C4.98286175,12.5389018 4.98986175,12.7112018 5.09492175,12.8054018 L5.17973175,12.8814018 L7.26400175,12.8818018 L9.34830175,12.8823018 L9.43000175,12.7926018 C9.56400175,12.6455018 9.53470175,12.4608018 9.36380175,12.3766018 C9.28240175,12.3364018 9.08770175,12.3259018 8.42437175,12.3259018 L7.58760175,12.3259018 L7.58760175,11.6334018 L7.58760175,10.9408018 L8.74983175,10.9408018 L9.91210175,10.9408018 L10.1774018,11.1419018 C10.5116018,11.3952018 11.0005018,11.6374018 11.4198018,11.7573018 C11.6900018,11.8346018 11.8352018,11.8528018 12.2888018,11.8660018 C12.9259018,11.8847018 13.3128018,11.8213018 13.8081018,11.6170018 L14.1030018,11.4954018 L15.3390018,12.6724018 C16.6292018,13.9012018 16.6412018,13.9104018 16.8290018,13.8050018 C16.9692018,13.7263018 17.9707018,12.6992018 17.9942018,12.6100018 C18.0080018,12.5578018 17.9966018,12.4855018 17.9666018,12.4346018 C17.9386018,12.3869018 17.3503018,11.8950018 16.6593018,11.3414018 L15.4030018,10.3349018 L15.5075018,10.1575018 C15.8030018,9.65640181 15.9568018,9.01350181 15.9248018,8.41304181 C15.8820018,7.60966181 15.5760018,6.90936181 15.0234018,6.35023181 L14.8498018,6.17460181 L14.8399018,3.42424181 L14.8300018,0.673871809 L14.7395018,0.504921809 C14.6898018,0.412021809 14.5857018,0.284311809 14.5084018,0.221121809 C14.2155018,-0.0179821913 14.7428018,-0.00163819129 7.40870175,0.00137180871 C1.48373175,0.00383180871 0.76374175,0.00986180871 0.61948175,0.0584718087 Z M14.1484018,0.665971809 L14.2491018,0.761991809 L14.2589018,3.24771181 L14.2686018,5.73342181 L13.9956018,5.60637181 C13.4100018,5.33389181 12.9465018,5.24556181 12.2389018,5.27149181 C11.6775018,5.29206181 11.3817018,5.35875181 10.9030018,5.57258181 C10.5853018,5.71451181 10.3569018,5.85226181 10.0874018,6.06435181 C9.91970175,6.19635181 9.91770175,6.19690181 9.59120175,6.19690181 C9.20310175,6.19690181 9.16290175,6.20851181 9.09090175,6.34133181 C8.99835175,6.51212181 9.10320175,6.69855181 9.31300175,6.73608181 L9.43120175,6.75724181 L9.27500175,7.03977181 C9.08770175,7.37856181 8.94216175,7.80676181 8.90883175,8.11684181 L8.88447175,8.34379181 L4.73284175,8.34379181 L0.58121175,8.34379181 L0.58121175,4.56596181 L0.58121175,0.788141809 L0.70493175,0.670131809 L0.82865175,0.552121809 L7.43822175,0.561051809 L14.0478018,0.569991809 L14.1484018,0.665971809 Z M2.81019175,2.06813181 C2.66167175,2.16273181 2.69112175,2.35256181 2.86497175,2.42122181 C3.00499175,2.47656181 3.00448175,2.49602181 2.86119175,2.56105181 C2.71892175,2.62566181 2.67293175,2.73460181 2.74601175,2.83408181 C2.81868175,2.93305181 2.91724175,2.92654181 3.27359175,2.79911181 C3.65052175,2.66434181 3.76872175,2.56756181 3.71946175,2.43393181 C3.69056175,2.35554181 3.62053175,2.31485181 3.30372175,2.19227181 C2.89750175,2.03513181 2.87208175,2.02873181 2.81019175,2.06813181 Z M6.73449175,2.22014181 C6.55087175,2.31592181 6.51207175,2.53068181 6.65513175,2.65891181 L6.73917175,2.73419181 L9.90590175,2.73419181 L13.0726018,2.73419181 L13.1617018,2.64918181 C13.2816018,2.53484181 13.2756018,2.40627181 13.1447018,2.28137181 L13.0386018,2.18015181 L9.92280175,2.18119181 C7.73775175,2.18195181 6.78542175,2.19359181 6.73449175,2.22014181 Z M4.52004175,2.25477181 C4.33471175,2.35145181 4.30110175,2.54578181 4.44580175,2.68380181 C4.53354175,2.76753181 4.54436175,2.76881181 5.16550175,2.76881181 C5.79066175,2.76881181 5.79687175,2.76805181 5.88109175,2.68252181 C6.00002175,2.56178181 5.99421175,2.40003181 5.86726175,2.29587181 C5.77229175,2.21793181 5.74547175,2.21481181 5.18053175,2.21582181 C4.82556175,2.21647181 4.56389175,2.23188181 4.52004175,2.25477181 Z M1.93250175,4.17319181 C1.78152175,4.27402181 1.84145175,4.43043181 2.06584175,4.52105181 L2.16037175,4.55925181 L2.02772175,4.61313181 C1.88799175,4.66988181 1.83154175,4.76569181 1.86992175,4.88100181 C1.90869175,4.99749181 2.05139175,5.00261181 2.33561175,4.89766181 C2.79610175,4.72767181 2.86827175,4.68380181 2.86827175,4.57410181 C2.86827175,4.52029181 2.83970175,4.45287181 2.80474175,4.42427181 C2.74557175,4.37583181 2.10323175,4.11927181 2.04116175,4.11927181 C2.02576175,4.11927181 1.97686175,4.14355181 1.93250175,4.17319181 Z M3.57098175,4.25750181 C3.47191175,4.29563181 3.37651175,4.42465181 3.37651175,4.52053181 C3.37651175,4.56132181 3.41038175,4.63577181 3.45176175,4.68595181 L3.52698175,4.77719181 L4.77916175,4.77719181 C5.51139175,4.77719181 6.05847175,4.76337181 6.09662175,4.74388181 C6.20712175,4.68747181 6.25933175,4.52195181 6.20230175,4.40855181 C6.11256175,4.23001181 6.06711175,4.22406181 4.81046175,4.22586181 C4.17153175,4.22679181 3.61378175,4.24102181 3.57098175,4.25750181 Z M6.80038175,4.25754181 C6.63234175,4.32316181 6.58718175,4.58574181 6.72320175,4.70658181 C6.80107175,4.77580181 6.84060175,4.77719181 8.72147175,4.77719181 L10.6403018,4.77719181 L10.7294018,4.69218181 C10.8423018,4.58456181 10.8428018,4.46170181 10.7309018,4.33763181 L10.6433018,4.24047181 L8.76152175,4.23354181 C7.72000175,4.22970181 6.84427175,4.24043181 6.80038175,4.25754181 Z M13.1056018,5.88689181 C14.1363018,6.12208181 14.9618018,6.87529181 15.2556018,7.84866181 C15.3629018,8.20428181 15.3702018,8.90070181 15.2702018,9.24410181 C15.1785018,9.55900181 14.9738018,9.96860181 14.8444018,10.0961018 C14.7843018,10.1552018 14.7075018,10.2561018 14.6737018,10.3204018 C14.5119018,10.6276018 13.7048018,11.1142018 13.1270018,11.2528018 C12.5454018,11.3924018 11.7475018,11.3273018 11.1997018,11.0957018 C10.4067018,10.7604018 9.75540175,10.0352018 9.54610175,9.25450181 C9.45000175,8.89602181 9.44230175,8.28160181 9.52970175,7.94558181 C9.79470175,6.92716181 10.6058018,6.15916181 11.7077018,5.88346181 C12.0699018,5.79284181 12.7002018,5.79440181 13.1056018,5.88689181 Z M2.77628175,6.10836181 C2.66414175,6.21533181 2.69703175,6.33012181 2.86119175,6.40467181 C2.92414175,6.43324181 2.97562175,6.46440181 2.97562175,6.47392181 C2.97562175,6.48344181 2.92414175,6.51461181 2.86119175,6.54318181 C2.69798175,6.61728181 2.66414175,6.73252181 2.77468175,6.83796181 C2.87448175,6.93315181 2.89695175,6.92979181 3.33835175,6.75336181 C3.73605175,6.59443181 3.82517175,6.48933181 3.67332175,6.35823181 C3.62071175,6.31284181 2.93402175,6.02377181 2.87876175,6.02377181 C2.87118175,6.02377181 2.82507175,6.06182181 2.77628175,6.10836181 Z M4.68605175,6.28815181 C4.58331175,6.41270181 4.59017175,6.54726181 4.70445175,6.64969181 L4.79808175,6.73363181 L6.40160175,6.74391181 C7.28349175,6.74959181 8.05823175,6.74498181 8.12321175,6.73366181 C8.37068175,6.69062181 8.47349175,6.42565181 8.30225175,6.27218181 C8.21839175,6.19708181 8.21444175,6.19690181 6.48974175,6.19690181 L4.76127175,6.19690181 L4.68605175,6.28815181 Z M11.6337018,6.59356181 C11.5418018,6.68120181 11.5172018,6.86234181 11.5774018,7.00898181 C11.5995018,7.06297181 11.5716018,7.10185181 11.4387018,7.20210181 C11.3472018,7.27111181 11.2244018,7.38749181 11.1659018,7.46069181 C11.0445018,7.61257181 10.8933018,7.94243181 10.8920018,8.05812181 C10.8901018,8.23208181 10.8289018,8.11916181 10.7888018,7.86767181 C10.7539018,7.64927181 10.7280018,7.58421181 10.6492018,7.51821181 C10.5391018,7.42582181 10.3754018,7.43524181 10.2653018,7.54023181 C10.1831018,7.61863181 10.1787018,7.70696181 10.2380018,8.07948181 C10.3076018,8.51620181 10.4483018,8.68830181 10.7368018,8.68954181 L10.8548018,8.69006181 L10.8553018,8.87186181 C10.8556018,8.97182181 10.8657018,9.08870181 10.8777018,9.13160181 C10.8964018,9.19800181 10.8854018,9.20950181 10.8035018,9.20950181 C10.6557018,9.20950181 10.4680018,9.29750181 10.3977018,9.39990181 C10.3291018,9.49980181 10.1976018,10.1610018 10.2292018,10.2474018 C10.2714018,10.3628018 10.3968018,10.4560018 10.5100018,10.4560018 C10.6833018,10.4560018 10.7686018,10.3435018 10.8249018,10.0405018 C10.8704018,9.79570181 10.8790018,9.78020181 10.9736018,9.76980181 C11.0553018,9.76080181 11.1133018,9.79690181 11.2856018,9.96380181 C11.9041018,10.5630018 12.8498018,10.5631018 13.4633018,9.96410181 C13.6075018,9.82330181 13.6959018,9.76390181 13.7616018,9.76370181 C13.8500018,9.76350181 13.8572018,9.77750181 13.8984018,10.0303018 C13.9490018,10.3407018 14.0341018,10.4567018 14.2101018,10.4549018 C14.3349018,10.4537018 14.4171018,10.4051018 14.4777018,10.2963018 C14.5316018,10.1999018 14.4199018,9.53800181 14.3270018,9.40270181 C14.2590018,9.30380181 14.0703018,9.20950181 13.9401018,9.20950181 C13.8698018,9.20950181 13.8655018,9.19270181 13.8754018,8.95929181 L13.8861018,8.70907181 L14.0461018,8.68314181 C14.2211018,8.65478181 14.3492018,8.56104181 14.4084018,8.41827181 C14.4810018,8.24299181 14.5562018,7.72133181 14.5215018,7.63418181 C14.4420018,7.43465181 14.1461018,7.39272181 14.0283018,7.56426181 C13.9980018,7.60834181 13.9528018,7.75890181 13.9279018,7.89887181 L13.8825018,8.15334181 L13.8373018,7.98460181 C13.7475018,7.64955181 13.4963018,7.29950181 13.2244018,7.13025181 C13.1504018,7.08423181 13.1466018,7.06691181 13.1801018,6.92875181 C13.2225018,6.75385181 13.2028018,6.67164181 13.0959018,6.57663181 C12.9339018,6.43272181 12.6980018,6.52302181 12.6329018,6.75381181 L12.5936018,6.89267181 L12.3742018,6.88238181 L12.1547018,6.87213181 L12.1051018,6.73408181 C12.0778018,6.65817181 12.0272018,6.57635181 11.9927018,6.55228181 C11.8916018,6.48175181 11.7316018,6.50013181 11.6337018,6.59356181 Z M12.8015018,7.54072181 C12.9758018,7.62552181 13.1567018,7.81230181 13.2327018,7.98571181 C13.2626018,8.05400181 13.2871018,8.11574181 13.2871018,8.12294181 C13.2871018,8.13014181 12.8787018,8.13603181 12.3795018,8.13603181 C11.8804018,8.13603181 11.4720018,8.12775181 11.4720018,8.11761181 C11.4720018,8.10746181 11.4973018,8.04125181 11.5283018,7.97044181 C11.6244018,7.75056181 11.8557018,7.55810181 12.1252018,7.47375181 C12.2756018,7.42669181 12.6416018,7.46291181 12.8015018,7.54072181 Z M13.2871018,8.94298181 C13.2871018,9.37780181 13.0511018,9.70350181 12.6543018,9.81650181 C12.4271018,9.88110181 12.3300018,9.88050181 12.0913018,9.81280181 C11.6970018,9.70120181 11.4357018,9.32700181 11.4357018,8.87421181 L11.4357018,8.69006181 L12.3614018,8.69006181 L13.2871018,8.69006181 L13.2871018,8.94298181 Z M8.93671175,9.19220181 C9.01860175,9.56080181 9.11890175,9.82600181 9.29270175,10.1334018 L9.43650175,10.3876018 L5.11478175,10.3786018 L0.79307175,10.3695018 L0.68714175,10.2564018 L0.58121175,10.1433018 L0.58121175,9.52040181 L0.58121175,8.89755181 L4.72820175,8.90634181 L8.87518175,8.91514181 L8.93671175,9.19220181 Z M16.2792018,11.7546018 C16.8273018,12.1926018 17.2760018,12.5588018 17.2763023,12.5683018 C17.2766018,12.5778018 17.1467018,12.7177018 16.9876018,12.8792018 L16.6984018,13.1728018 L15.6525018,12.1756018 L14.6066018,11.1783018 L14.8262018,10.9758018 L15.0458018,10.7733018 L15.1642018,10.8658018 C15.2294018,10.9166018 15.7311018,11.3165018 16.2792018,11.7546018 Z" id="Shape"></path>
        </g>
    </g>
</svg>