<?xml version="1.0" encoding="UTF-8"?>
<svg width="37px" height="37px" viewBox="0 0 37 37" version="1.1" xmlns="http://www.w3.org/2000/svg" xmlns:xlink="http://www.w3.org/1999/xlink">
    <title>icon-2</title>
    <g id="Page-1" stroke="none" stroke-width="1" fill="none" fill-rule="evenodd" stroke-linecap="round">
        <g id="icon-2" transform="translate(1.558108, 1.556880)" stroke="#FF6B00" stroke-width="2">
            <path d="M14.804192,0 C25.330692,0 34.283392,8.16592 34.283392,18.68272" id="Path"></path>
            <polyline id="Path" points="14.804192 0 14.804192 18.68272 34.283392 18.68272"></polyline>
            <path d="M14.804192,3.89234 C6.38916202,3.89234 0,10.61812 0,19.02532 C-0.00102798323,21.02522 0.392482017,23.00562 1.15803202,24.85352 C1.92357202,26.70132 3.04614202,28.38022 4.46155202,29.79432 C5.87697202,31.20842 7.55747202,32.33002 9.40699202,33.09482 C11.256492,33.85972 13.238792,34.25282 15.240492,34.2518219 C23.655492,34.2518219 30.387492,27.09012 30.387492,18.68282" id="Path"></path>
            <line x1="18.700192" y1="6.22754" x2="18.700192" y2="14.79042" id="Path"></line>
            <line x1="24.933492" y1="6.22754" x2="18.700192" y2="6.22754" id="Path"></line>
            <line x1="24.933492" y1="10.11992" x2="18.700192" y2="10.11992" id="Path"></line>
        </g>
    </g>
</svg>