<?xml version="1.0" encoding="UTF-8"?>
<svg width="18px" height="15px" viewBox="0 0 18 15" version="1.1" xmlns="http://www.w3.org/2000/svg" xmlns:xlink="http://www.w3.org/1999/xlink">
    <title>icon-06</title>
    <g id="Page-1" stroke="none" stroke-width="1" fill="none" fill-rule="evenodd">
        <g id="icon-06" transform="translate(0.281250, 0.703125)" fill="#F36D45" fill-rule="nonzero">
            <path d="M14.0625,5.906245 L12.9375,5.906245 L12.9375,6.890625 L14.0625,6.890625 C14.5101,6.890625 14.9393,7.046185 15.2557,7.323095 C15.5722,7.600005 15.75,7.975575 15.75,8.367185 L15.75,10.335925 L16.875,10.335925 L16.875,8.367185 C16.875,7.714505 16.5787,7.088565 16.0512,6.627045 C15.5238,6.165535 14.8084,5.906245 14.0625,5.906245 Z" id="Path"></path>
            <path d="M12.9375,0.984375 C13.2713,0.984375 13.5975,1.070985 13.875,1.233235 C14.1525,1.395475 14.3688,1.626065 14.4965,1.895875 C14.6243,2.165675 14.6577,2.462575 14.5926,2.748995 C14.5275,3.035425 14.3667,3.298535 14.1307,3.505035 C13.8947,3.711535 13.5941,3.852165 13.2667,3.909145 C12.9394,3.966115 12.6001,3.936875 12.2917,3.825115 C11.9834,3.713365 11.7198,3.524075 11.5344,3.281265 C11.349,3.038445 11.25,2.752975 11.25,2.460935 C11.25,2.069325 11.4278,1.693755 11.7443,1.416845 C12.0607,1.139935 12.4899,0.984375 12.9375,0.984375 Z M12.9375,0 C12.3812,0 11.8375,0.144335 11.375,0.414745 C10.9124,0.685155 10.552,1.069515 10.3391,1.519195 C10.1262,1.968865 10.0705,2.463675 10.179,2.941045 C10.2876,3.418425 10.5554,3.856905 10.9488,4.201075 C11.3421,4.545245 11.8432,4.779635 12.3888,4.874595 C12.9344,4.969545 13.4999,4.920805 14.0138,4.734545 C14.5277,4.548275 14.967,4.232855 15.276,3.828155 C15.5851,3.423455 15.75,2.947665 15.75,2.460935 C15.75,1.808255 15.4537,1.182315 14.9262,0.720795 C14.3988,0.259285 13.6834,0 12.9375,0 Z" id="Shape"></path>
            <path d="M12.375,13.781225 L11.25,13.781225 L11.25,12.796825 C11.25,12.405225 11.0722,12.029725 10.7557,11.752825 C10.4393,11.475825 10.0101,11.320325 9.5625,11.320325 L7.3125,11.320325 C6.86495,11.320325 6.43573,11.475825 6.11926,11.752825 C5.8028,12.029725 5.625,12.405225 5.625,12.796825 L5.625,13.781225 L4.5,13.781225 L4.5,12.796825 C4.5,12.144225 4.79632,11.518225 5.32377,11.056725 C5.85121,10.595225 6.56658,10.335925 7.3125,10.335925 L9.5625,10.335925 C10.3084,10.335925 11.0238,10.595225 11.5512,11.056725 C12.0787,11.518225 12.375,12.144225 12.375,12.796825 L12.375,13.781225 Z" id="Path"></path>
            <path d="M8.4375,5.414065 C8.77126,5.414065 9.09752,5.500675 9.37503,5.662915 C9.6525,5.825165 9.8688,6.055755 9.9965,6.325555 C10.1243,6.595365 10.1577,6.892265 10.0926,7.178685 C10.0275,7.465115 9.8667,7.728215 9.6307,7.934725 C9.39474,8.141225 9.09406,8.281855 8.76671,8.338825 C8.43937,8.395805 8.10008,8.366565 7.79173,8.254805 C7.48338,8.143045 7.21982,7.953765 7.03439,7.710945 C6.84897,7.468125 6.75,7.182665 6.75,6.890625 C6.75,6.499015 6.9278,6.123435 7.24427,5.846525 C7.56073,5.569615 7.98995,5.414065 8.4375,5.414065 Z M8.4375,4.429685 C7.88124,4.429685 7.33747,4.574015 6.87495,4.844425 C6.41244,5.114845 6.05197,5.499205 5.8391,5.948875 C5.62623,6.398555 5.57052,6.893365 5.67904,7.370735 C5.78756,7.848115 6.05543,8.286595 6.44877,8.630765 C6.84211,8.974935 7.34323,9.209325 7.8888,9.304325 C8.43437,9.399225 8.99988,9.350525 9.5138,9.164225 C10.0277,8.977965 10.467,8.662535 10.776,8.257835 C11.0851,7.853145 11.25,7.377355 11.25,6.890625 C11.25,6.237945 10.9537,5.612005 10.4262,5.150485 C9.8988,4.688965 9.18342,4.429685 8.4375,4.429685 Z" id="Shape"></path>
            <path d="M3.9375,5.906245 L2.8125,5.906245 C2.06658,5.906245 1.35121,6.165535 0.82377,6.627045 C0.296323,7.088565 0,7.714505 0,8.367185 L0,10.335925 L1.125,10.335925 L1.125,8.367185 C1.125,7.975575 1.3028,7.600005 1.61926,7.323095 C1.93573,7.046185 2.36495,6.890625 2.8125,6.890625 L3.9375,6.890625 L3.9375,5.906245 Z" id="Path"></path>
            <path d="M3.9375,0.984375 C4.27126,0.984375 4.59752,1.070985 4.87503,1.233235 C5.15254,1.395475 5.36882,1.626065 5.49655,1.895875 C5.62427,2.165675 5.65769,2.462575 5.59257,2.748995 C5.52746,3.035425 5.36674,3.298535 5.13074,3.505035 C4.89474,3.711535 4.59406,3.852165 4.26671,3.909145 C3.93937,3.966115 3.60008,3.936875 3.29173,3.825115 C2.98338,3.713365 2.71982,3.524075 2.53439,3.281265 C2.34897,3.038445 2.25,2.752975 2.25,2.460935 C2.25,2.069325 2.4278,1.693755 2.74427,1.416845 C3.06073,1.139935 3.48995,0.984375 3.9375,0.984375 Z M3.9375,0 C3.38124,0 2.83747,0.144335 2.37495,0.414745 C1.91244,0.685155 1.55197,1.069515 1.3391,1.519195 C1.12623,1.968865 1.07052,2.463675 1.17904,2.941045 C1.28756,3.418425 1.55543,3.856905 1.94877,4.201075 C2.34211,4.545245 2.84323,4.779635 3.3888,4.874595 C3.93437,4.969545 4.49988,4.920805 5.0138,4.734545 C5.52772,4.548275 5.96697,4.232855 6.27601,3.828155 C6.58505,3.423455 6.75,2.947665 6.75,2.460935 C6.75,1.808255 6.45368,1.182315 5.92623,0.720795 C5.39879,0.259285 4.68342,0 3.9375,0 Z" id="Shape"></path>
        </g>
    </g>
</svg>