<?xml version="1.0" encoding="UTF-8"?>
<svg width="14px" height="14px" viewBox="0 0 14 14" version="1.1" xmlns="http://www.w3.org/2000/svg" xmlns:xlink="http://www.w3.org/1999/xlink">
    <title>icon-w-2</title>
    <g id="Page-1" stroke="none" stroke-width="1" fill="none" fill-rule="evenodd">
        <g id="icon-w-2" fill="#F36D45" fill-rule="nonzero">
            <path d="M13,7.5 L13,10 L1,10 L1,2 L6,2 L6,1 L1,1 C0.73478,1 0.48043,1.10536 0.29289,1.29289 C0.10536,1.48043 0,1.73478 0,2 L0,10 C0,10.2652 0.10536,10.5196 0.29289,10.7071 C0.48043,10.8946 0.73478,11 1,11 L5,11 L5,13 L3,13 L3,14 L11,14 L11,13 L9,13 L9,11 L13,11 C13.2652,11 13.5196,10.8946 13.7071,10.7071 C13.8946,10.5196 14,10.2652 14,10 L14,7.5 L13,7.5 Z M8,13 L6,13 L6,11 L8,11 L8,13 Z" id="Shape"></path>
            <path d="M14,4 L14,3 L12.9494,3 C12.885,2.68703 12.7607,2.38944 12.5835,2.12355 L13.3285,1.37855 L12.6215,0.67155 L11.8765,1.41655 C11.6106,1.2393 11.313,1.11503 11,1.05055 L11,0 L10,0 L10,1.05055 C9.687,1.11502 9.3894,1.23928 9.1236,1.4165 L8.37855,0.6715 L7.67155,1.3785 L8.41655,2.1235 C8.2393,2.3894 8.11503,2.68701 8.05055,3 L7,3 L7,4 L8.05055,4 C8.11502,4.31297 8.23928,4.61056 8.4165,4.87645 L7.6715,5.62145 L8.3785,6.32845 L9.1235,5.58345 C9.3894,5.7607 9.687,5.88497 10,5.94945 L10,7 L11,7 L11,5.94945 C11.313,5.88498 11.6106,5.76072 11.8764,5.5835 L12.6215,6.3285 L13.3285,5.6215 L12.5835,4.8765 C12.7607,4.6106 12.885,4.31299 12.9494,4 L14,4 Z M10.5,4.99999696 C10.2033,4.99999696 9.9133,4.91203 9.6666,4.7472 C9.42,4.58238 9.2277,4.34811 9.1142,4.07403 C9.0006,3.79994 8.97094,3.49834 9.0288,3.20736 C9.0867,2.91639 9.2296,2.64912 9.4393,2.43934 C9.6491,2.22956 9.9164,2.0867 10.2074,2.02882 C10.4983,1.97094 10.7999,2.00065 11.074,2.11418 C11.3481,2.22771 11.5824,2.41997 11.7472,2.66664 C11.912,2.91332 12,3.20333 12,3.49999696 C11.9996,3.89769 11.8414,4.27897 11.5602,4.56018 C11.279,4.84139 10.8977,4.99956 10.5,4.99999696 Z" id="Shape"></path>
        </g>
    </g>
</svg>