<?xml version="1.0" encoding="UTF-8"?>
<svg width="20px" height="20px" viewBox="0 0 20 20" version="1.1" xmlns="http://www.w3.org/2000/svg" xmlns:xlink="http://www.w3.org/1999/xlink">
    <title>icon-08</title>
    <g id="Page-1" stroke="none" stroke-width="1" fill="none" fill-rule="evenodd">
        <g id="icon-08" transform="translate(1.000000, 1.000000)" fill="#F36D45" stroke="#F36D45" stroke-width="0.2">
            <path d="M6.75,0.64012 L6.75,1.28025 L6.36458,1.41742 C6.15258,1.49283 5.78912,1.64321 5.55683,1.7515 L5.13454,1.94842 L4.68229,1.49479 L4.23008,1.04117 L2.63608,2.63475 L1.04213,4.22829 L1.49496,4.68708 L1.94775,5.14583 L1.76825,5.52083 C1.6695,5.72708 1.51942,6.08804 1.43471,6.32292 L1.28067,6.75 L0.64033,6.75 L0,6.75 L0,9 L0,11.25 L0.64033,11.25 L1.28067,11.25 L1.43342,11.6771 C1.51746,11.912 1.66763,12.2729 1.76721,12.4792 L1.94821,12.8542 L1.49517,13.3129 L1.04213,13.7717 L2.63608,15.3652 L4.23008,16.9588 L4.68229,16.5052 L5.13454,16.0516 L5.55683,16.2485 C5.78912,16.3568 6.15258,16.5072 6.36458,16.5826 L6.75,16.7197 L6.75,17.3599 L6.75,18 L9,18 L11.25,18 L11.25,17.3597 L11.25,16.7193 L11.6771,16.5666 C11.912,16.4825 12.2729,16.3324 12.4792,16.2328 L12.8542,16.0518 L13.3129,16.5048 L13.7717,16.9579 L15.3652,15.3639 L16.9588,13.7699 L16.5052,13.3177 L16.0516,12.8655 L16.2485,12.4432 C16.3568,12.2109 16.5072,11.8474 16.5826,11.6354 L16.7197,11.25 L17.3599,11.25 L18,11.25 L18,9 L18,6.75 L17.3599,6.75 L16.7197,6.75 L16.5826,6.36458 C16.5072,6.15258 16.3568,5.78912 16.2485,5.55683 L16.0516,5.13454 L16.5052,4.68229 L16.9588,4.23008 L15.3652,2.63608 L13.7717,1.04213 L13.3129,1.49517 L12.8542,1.94821 L12.4792,1.76721 C12.2729,1.66763 11.912,1.51746 11.6771,1.43342 L11.25,1.28067 L11.25,0.64033 L11.25,0 L9,0 L6.75,0 L6.75,0.64012 Z M10.5926,1.23321 L10.6042,1.79975 L11.0833,1.94429 C11.641,2.1125 12.184,2.34304 12.625,2.59883 L12.9375,2.78008 L13.3441,2.38008 L13.7507,1.98004 L14.8856,3.11492 L16.0205,4.24983 L15.621,4.64925 L15.2216,5.04867 L15.4446,5.45142 C15.6988,5.9105 15.9489,6.52467 16.0922,7.04167 L16.1903,7.39583 L16.7618,7.40742 L17.3333,7.419 L17.3333,9.0012 L17.3333,10.5833 L16.7695,10.5833 C16.3544,10.5833 16.2017,10.5971 16.1905,10.6354 C15.9321,11.518 15.5708,12.401 15.2998,12.8125 L15.2175,12.9375 L15.6187,13.3441 L16.02,13.7507 L14.8853,14.8853 L13.7507,16.02 L13.3441,15.6208 L12.9375,15.2218 L12.6264,15.402 C12.1883,15.6558 11.6419,15.8873 11.0833,16.0557 L10.6042,16.2003 L10.5926,16.7668 L10.581,17.3333 L9,17.3333 L7.419,17.3333 L7.40742,16.7668 L7.39583,16.2003 L6.9375,16.0613 C6.35733,15.8854 5.86767,15.6799 5.41667,15.4229 L5.0625,15.2211 L4.65592,15.6205 L4.24933,16.02 L3.11467,14.8853 L1.98004,13.7507 L2.38129,13.3441 L2.7825,12.9375 L2.70017,12.8125 C2.42917,12.401 2.06788,11.518 1.80954,10.6354 C1.79829,10.5971 1.64562,10.5833 1.23046,10.5833 L0.66667,10.5833 L0.66667,9.0012 L0.66667,7.419 L1.23321,7.40742 L1.79975,7.39583 L1.94429,6.91667 C2.11275,6.35813 2.34421,5.81175 2.59804,5.37358 L2.77825,5.0625 L2.37917,4.65592 L1.98004,4.24933 L3.11467,3.11467 L4.24933,1.98004 L4.65592,2.37946 L5.0625,2.77888 L5.41667,2.57708 C5.86767,2.32013 6.35733,2.11458 6.9375,1.93871 L7.39583,1.79975 L7.40742,1.23321 L7.419,0.66667 L9,0.66667 L10.581,0.66667 L10.5926,1.23321 Z M8.5,4.019 C8.46562,4.02733 8.29688,4.05692 8.125,4.08475 C7.15929,4.24104 6.21338,4.73754 5.47546,5.47546 C4.76829,6.18262 4.31142,7.02092 4.09958,8 C3.99308,8.49204 3.99308,9.508 4.09958,10 C4.31142,10.9791 4.76829,11.8174 5.47546,12.5245 C6.20092,13.25 7.08421,13.7193 8.10417,13.9214 C8.53513,14.0068 9.5579,13.9953 10,13.9 C11.5107,13.5748 12.7821,12.5925 13.4759,11.2148 C13.8269,10.5179 13.9792,9.8476 13.9792,9 C13.9792,8.34375 13.9304,8.01863 13.7468,7.45192 C13.3454,6.21233 12.4178,5.13112 11.2498,4.54154 C10.5545,4.19058 9.969,4.04579 9.1458,4.02125 C8.825,4.01167 8.53438,4.01067 8.5,4.019 Z M9.6098,4.71175 C10.2449,4.80008 10.9861,5.09742 11.5208,5.47833 C11.8037,5.67983 12.3755,6.26008 12.5687,6.54167 C12.9049,7.03171 13.1736,7.70842 13.272,8.3125 C13.501,9.7198 13.0374,11.0946 11.9922,12.1078 C11.4971,12.5878 11.0051,12.8892 10.3542,13.1114 C9.0718,13.5491 7.51908,13.3014 6.43471,12.4861 C6.141,12.2653 5.61579,11.7269 5.42838,11.4545 C4.6915,10.3835 4.4755,8.96379 4.86183,7.73088 C5.08863,7.00721 5.44958,6.4275 6.00529,5.89454 C6.41337,5.50312 6.61375,5.359 7.065,5.13242 C7.85725,4.73462 8.73317,4.58983 9.6098,4.71175 Z M9.5314,8.65592 L8.33383,9.8535 L7.80175,9.3226 C7.50913,9.0306 7.2505,8.79167 7.22704,8.79167 C7.173,8.79167 6.79167,9.1765 6.79167,9.231 C6.79167,9.2534 7.13858,9.6182 7.56258,10.0418 L8.33354,10.8118 L9.7709,9.3749 C10.5615,8.58458 11.2083,7.91842 11.2083,7.8945 C11.2083,7.84008 10.8241,7.45833 10.7693,7.45833 C10.7471,7.45833 10.1901,7.99725 9.5314,8.65592 Z" id="Shape"></path>
        </g>
    </g>
</svg>