<?xml version="1.0" encoding="UTF-8"?>
<svg width="14px" height="15px" viewBox="0 0 14 15" version="1.1" xmlns="http://www.w3.org/2000/svg" xmlns:xlink="http://www.w3.org/1999/xlink">
    <title>icon-04</title>
    <g id="Page-1" stroke="none" stroke-width="1" fill="none" fill-rule="evenodd">
        <g id="icon-04" transform="translate(0.531250, 0.703125)" fill="#F36D45" fill-rule="nonzero">
            <path d="M12.6266,3.497245 L9.2516,2.020685 C9.1735,1.986535 9.0873,1.968745 9,1.968745 C8.9127,1.968745 8.8265,1.986535 8.7484,2.020685 L5.37339,3.497245 C5.27996,3.538135 5.20139,3.600975 5.14648,3.678735 C5.09157,3.756495 5.0625,3.846105 5.0625,3.937515 L5.0625,7.382825 C5.0625,7.474225 5.09157,7.563835 5.14648,7.641595 C5.20139,7.719355 5.27996,7.782195 5.37339,7.823085 L8.7484,9.299625 C8.8265,9.333825 8.9127,9.351525 9,9.351525 C9.0873,9.351525 9.1735,9.333825 9.2516,9.299625 L12.6266,7.823085 C12.72,7.782195 12.7986,7.719355 12.8535,7.641595 C12.9084,7.563835 12.9375,7.474225 12.9375,7.382825 L12.9375,3.937515 C12.9375,3.846105 12.9084,3.756495 12.8535,3.678735 C12.7986,3.600975 12.72,3.538135 12.6266,3.497245 Z M9,3.011315 L11.1171,3.937515 L9,4.863705 L6.88292,3.937515 L9,3.011315 Z M6.1875,4.733965 L8.4375,5.718345 L8.4375,8.062925 L6.1875,7.078555 L6.1875,4.733965 Z M9.5625,8.062925 L9.5625,5.718345 L11.8125,4.733965 L11.8125,7.078555 L9.5625,8.062925 Z" id="Shape"></path>
            <path d="M4.78125,11.812525 C5.24724,11.812525 5.625,11.481925 5.625,11.074225 C5.625,10.666525 5.24724,10.335925 4.78125,10.335925 C4.31526,10.335925 3.9375,10.666525 3.9375,11.074225 C3.9375,11.481925 4.31526,11.812525 4.78125,11.812525 Z" id="Path"></path>
            <path d="M8.4375,13.781225 L1.125,13.781225 C0.82674,13.780925 0.54079,13.677125 0.32988,13.492625 C0.11898,13.308025 0.00034,13.057825 0,12.796825 L0,0.984375 C0.00034,0.723395 0.11898,0.473185 0.32988,0.288645 C0.54079,0.104105 0.82674,0.0003 1.125,0 L8.4375,0 L8.4375,0.984375 L1.125,0.984375 L1.125,12.796825 L8.4375,12.796825 L8.4375,10.828125 L9.5625,10.828125 L9.5625,12.796825 C9.5622,13.057825 9.4435,13.308025 9.2326,13.492625 C9.0217,13.677125 8.7358,13.780925 8.4375,13.781225 Z" id="Path"></path>
        </g>
    </g>
</svg>