<?xml version="1.0" encoding="UTF-8"?>
<svg width="14px" height="14px" viewBox="0 0 14 14" version="1.1" xmlns="http://www.w3.org/2000/svg" xmlns:xlink="http://www.w3.org/1999/xlink">
    <title>icon-w-7</title>
    <g id="Page-1" stroke="none" stroke-width="1" fill="none" fill-rule="evenodd">
        <g id="icon-w-7" transform="translate(0.000001, 0.000000)" fill="#F36D45" fill-rule="nonzero">
            <path d="M14.0000362,0.70705 L13.2929992,0 L6.64649924,6.6465 C6.55542924,6.7408 6.50502924,6.8671 6.50616924,6.9982 C6.50730924,7.1293 6.55988924,7.25471 6.65259924,7.34741 C6.74529924,7.44011 6.87070924,7.4927 7.00179924,7.49384 C7.13289924,7.49498 7.25919924,7.44458 7.35349924,7.3535 L9.44349924,5.2639 C9.83219924,5.81206 10.0253992,6.4749 9.99219924,7.14604 C9.95889924,7.81718 9.70119924,8.4577 9.26029924,8.96479 C8.81935924,9.4719 8.22087924,9.8161 7.56085924,9.9423 C6.90084924,10.0685 6.21758924,9.9692 5.62073924,9.6605 C5.02389924,9.3518 4.54807924,8.85148 4.26965924,8.23991 C3.99122924,7.62834 3.92635924,6.94097 4.08543924,6.28811 C4.24450924,5.63525 4.61832924,5.05476 5.14686924,4.63982 C5.67540924,4.22488 6.32803924,3.99956 7,4 L7,3 C6.09457924,2.99876 5.21543924,3.30432 4.50595924,3.86685 C3.79647924,4.42938 3.29851924,5.21569 3.09327924,6.09755 C2.88803924,6.97941 2.98762924,7.90479 3.37581924,8.72278 C3.76400924,9.5408 4.41787924,10.2031 5.23080924,10.6018 C6.04373924,11.0005 6.96776924,11.112 7.85218924,10.9181 C8.73661924,10.7242 9.52929924,10.2364 10.1008992,9.5342 C10.6724992,8.83205 10.9892992,7.95691 10.9997992,7.05155 C11.0101992,6.14618 10.7134992,5.26399 10.1581992,4.54885 L11.5815992,3.1255 C12.5020992,4.20605 13.0052992,5.58051 13,7 C13,8.18669 12.6480992,9.3467 11.9887992,10.3334 C11.3294992,11.3201 10.3924992,12.0892 9.29609924,12.5433 C8.19974924,12.9974 6.99334924,13.1162 5.82945924,12.8847 C4.66557924,12.6532 3.59647924,12.0818 2.75735924,11.2426 C1.91824924,10.4035 1.34679924,9.3344 1.11528924,8.17054 C0.883779238,7.00666 1.00259924,5.80026 1.45672924,4.7039 C1.91084924,3.60754 2.67988924,2.67047 3.66657924,2.01118 C4.65327924,1.35189 5.81331924,1 7,1 L7,0 C5.61552924,0 4.26215924,0.41054 3.11100924,1.17971 C1.95986924,1.94888 1.06265924,3.04213 0.532849238,4.32122 C0.00302923845,5.6003 -0.135590762,7.00777 0.134509238,8.36563 C0.404599238,9.7235 1.07128924,10.9708 2.05025924,11.9497 C3.02921924,12.9287 4.27649924,13.5954 5.63436924,13.8655 C6.99223924,14.1356 8.39970924,13.997 9.67879924,13.4672 C10.9578992,12.9373 12.0510992,12.0401 12.8202992,10.889 C13.5894992,9.7378 14.0000362,8.38447 14.0000362,7 C14.0054992,5.3155 13.3971992,3.68667 12.2887992,2.4182 L14.0000362,0.70705 Z" id="Path"></path>
        </g>
    </g>
</svg>