<?xml version="1.0" encoding="UTF-8"?>
<svg width="17px" height="16px" viewBox="0 0 17 16" version="1.1" xmlns="http://www.w3.org/2000/svg" xmlns:xlink="http://www.w3.org/1999/xlink">
    <title>icon-07</title>
    <g id="Page-1" stroke="none" stroke-width="1" fill="none" fill-rule="evenodd">
        <g id="icon-07" transform="translate(0.000000, 0.881835)" fill="#F36D45" fill-rule="nonzero">
            <path d="M14.1652,4.4367749 C13.827,3.0845649 13.0198,1.8975049 11.8884,1.0884749 C10.757,0.279434901 9.37547998,-0.0986450994 7.99148998,0.0220149006 C6.60748998,0.142684901 5.31159998,0.754204901 4.33619998,1.7469149 C3.36078998,2.7396349 2.76968998,4.0486049 2.66888998,5.4390849 C1.87813998,5.5699449 1.16552998,5.9949449 0.672995975,6.6294249 C0.180465975,7.2638949 -0.0558345249,8.0612849 0.0111642751,8.8627649 C0.0781630751,9.6642649 0.443543975,10.4109649 1.03452998,10.9542649 C1.62550998,11.4974649 2.39871998,11.7973649 3.20013998,11.7941649 L7.98141998,11.7941649 L7.98141998,13.9267649 L3.73139998,13.9267649 L3.73139998,14.9930649 L13.2939,14.9930649 L13.2939,13.9267649 L9.04391998,13.9267649 L9.04391998,11.7941649 L13.2939,11.7941649 C14.2023,11.7914649 15.0782,11.4551649 15.7564,10.8487649 C16.4347,10.2423649 16.8683,9.4077649 16.9755,8.5025649 C17.0827,7.5973949 16.856,6.6841049 16.3383,5.9350849 C15.8206,5.1860649 15.0476,4.6531049 14.1652,4.4367749 Z M13.2939,10.7278649 L3.20013998,10.7278649 C2.63655998,10.7278649 2.09604998,10.5032649 1.69753998,10.1032649 C1.29901998,9.7033649 1.07512998,9.1608649 1.07512998,8.5952649 C1.07512998,8.0297149 1.29901998,7.4872849 1.69753998,7.0873449 C2.09604998,6.6874149 2.63655998,6.4627249 3.20013998,6.4627249 C3.34103998,6.4627249 3.47616998,6.4065549 3.57579998,6.3065749 C3.67542998,6.2065849 3.73139998,6.0709849 3.73139998,5.9295849 C3.73020998,4.7373049 4.17135998,3.5872849 4.96890998,2.7035949 C5.76645998,1.8199149 6.86326998,1.2658649 8.04562998,1.1494049 C9.22798998,1.0329349 10.4112,1.3624049 11.3647,2.0736149 C12.3183,2.7848249 12.9738,3.8268149 13.2036,4.9965749 C13.2249,5.1061649 13.2799,5.2062949 13.361,5.2828149 C13.442,5.3593449 13.5449,5.4084049 13.6552,5.4230949 C14.3193,5.5180049 14.9231,5.8615949 15.3452,6.3848549 C15.7673,6.9081149 15.9765,7.5722849 15.9308,8.2439649 C15.8851,8.9156649 15.5878,9.5450649 15.0986,10.0058649 C14.6095,10.4665649 13.9648,10.7245649 13.2939,10.7278649 Z" id="Shape"></path>
        </g>
    </g>
</svg>