<?xml version="1.0" encoding="UTF-8"?>
<svg width="18px" height="15px" viewBox="0 0 18 15" version="1.1" xmlns="http://www.w3.org/2000/svg" xmlns:xlink="http://www.w3.org/1999/xlink">
    <title>icon-w-4</title>
    <g id="Page-1" stroke="none" stroke-width="1" fill="none" fill-rule="evenodd">
        <g id="icon-w-4" transform="translate(1.000000, 1.000000)" fill="#F36D45" stroke="#F36D45" stroke-width="0.2">
            <path d="M3.06227679,0.05858 C2.26446679,0.17363 1.84587679,0.44947 1.62795679,1.00377 C1.45182679,1.45165 1.41128679,1.86541 1.39024679,3.4291 C1.37932679,4.24266 1.35119679,5.03305 1.32782679,5.18551 C1.27232679,5.54685 1.09631679,5.91219 0.886696791,6.10119 C0.733646791,6.2392 0.329516791,6.42916 0.189056791,6.42916 C0.0171767912,6.42916 -0.000281208754,6.46907 3.35558256e-06,6.86071 L0.000306791246,7.24167 L0.291936791,7.31201 C0.652186791,7.39884 0.896106791,7.55759 1.07227679,7.81981 C1.32999679,8.2034 1.34107679,8.28619 1.37744679,10.0959 C1.41224679,11.8284 1.45070679,12.2254 1.63024679,12.7053 C1.73258679,12.9787 1.98562679,13.2741 2.22000679,13.3937 C2.52176679,13.5477 2.99506679,13.642 3.59353679,13.6673 L4.16645679,13.6917 L4.16645679,13.3163 L4.16645679,12.9409 L3.69770679,12.9192 C2.90835679,12.8826 2.57567679,12.692 2.40846679,12.1803 C2.32630679,11.9289 2.31725679,11.7815 2.28817679,10.2209 C2.25454679,8.41928 2.23009679,8.18761 2.02629679,7.74239 C1.85670679,7.37201 1.50024679,7.08204 1.00273679,6.90979 L0.857526791,6.85954 L1.05944679,6.79071 C1.50220679,6.63987 1.88545679,6.31228 2.04733679,5.94636 C2.22354679,5.54793 2.25429679,5.23218 2.28834679,3.47077 C2.32334679,1.65753 2.33550679,1.5559 2.55726679,1.22077 C2.74230679,0.94118 3.28981679,0.76239 3.96112679,0.76239 L4.16645679,0.76239 L4.16645679,0.38738 L4.16645679,0.01238 L3.73936679,0.01746 C3.50448679,0.02025 3.19977679,0.03875 3.06227679,0.05858 Z M11.8333068,0.38121 L11.8333068,0.76239 L12.0386068,0.76239 C12.7099068,0.76239 13.2574068,0.94118 13.4425068,1.22077 C13.6642068,1.5559 13.6764068,1.65753 13.7114068,3.47077 C13.7454068,5.23218 13.7762068,5.54793 13.9524068,5.94636 C14.1130068,6.30957 14.5368068,6.66445 14.9785068,6.80566 L15.1445068,6.85875 L14.9981068,6.90942 C14.4994068,7.08209 14.1432068,7.37167 13.9734068,7.74239 C13.7696068,8.18761 13.7452068,8.41928 13.7115068,10.2209 C13.6825068,11.7815 13.6734068,11.9289 13.5912068,12.1803 C13.4240068,12.692 13.0914068,12.8826 12.3020068,12.9192 L11.8333068,12.9409 L11.8333068,13.3101 L11.8333068,13.6793 L12.2187068,13.679 C13.1001068,13.6783 13.7266068,13.5034 14.0670068,13.163 C14.5003068,12.7296 14.5754068,12.3143 14.6214068,10.0959 C14.6589068,8.28669 14.6702068,8.20265 14.9274068,7.81981 C15.1036068,7.55759 15.3475068,7.39884 15.7078068,7.31201 L15.9994068,7.24167 L15.9997068,6.85704 L16.0000068,6.47241 L15.8854068,6.44703 C15.2482068,6.30595 14.9271068,6.04511 14.7496068,5.52414 C14.6580068,5.25555 14.6517068,5.16043 14.6209068,3.59577 C14.5868068,1.86224 14.5483068,1.46332 14.3705068,0.99868 C14.1208068,0.3463 13.5715068,0.07379 12.4062068,0.02433 L11.8333068,0 L11.8333068,0.38121 Z M7.70818679,2.42392 C7.31389679,2.55359 6.94850679,2.89239 6.82254679,3.24514 C6.67029679,3.67152 6.75829679,4.19658 7.04205679,4.55483 C7.11605679,4.64821 7.16913679,4.72846 7.16009679,4.73313 C7.15101679,4.73779 7.02867679,4.8518 6.88817679,4.98642 L6.63271679,5.23122 L5.88886679,4.71204 C5.07264679,4.14237 4.99730679,4.09578 4.89184679,4.09578 C4.78542679,4.09578 3.96595679,4.50754 3.87228679,4.60808 C3.76036679,4.72821 3.76953679,4.91101 3.89374679,5.03517 C4.03449679,5.17597 4.15695679,5.16413 4.53738679,4.97284 L4.86480679,4.80821 L5.55198679,5.28422 L6.23916679,5.76019 L6.06078679,6.10507 C5.74061679,6.72416 5.61598679,7.3503 5.72190679,7.80764 L5.75648679,7.95693 L5.21601679,8.36077 L4.67559679,8.76466 L4.36892679,8.59753 C4.20029679,8.50557 4.02803679,8.43011 3.98616679,8.42978 C3.87537679,8.42894 3.66644679,8.65491 3.66644679,8.77553 C3.66644679,8.83208 3.69924679,8.91649 3.73936679,8.9632 C3.85828679,9.1017 4.56817679,9.4709 4.71546679,9.4709 C4.81976679,9.4709 4.98289679,9.368 5.49077679,8.98208 L6.13399679,8.49328 L6.22316679,8.60611 C6.31562679,8.7232 6.68537679,9.3582 6.72892679,9.4747 C6.74717679,9.5236 6.60671679,9.6515 6.19566679,9.9601 L5.63761679,10.3791 L5.34993679,10.2175 C5.02768679,10.0365 4.87192679,10.0154 4.75084679,10.1365 C4.62238679,10.265 4.60096679,10.4191 4.69425679,10.544 C4.79797679,10.683 5.52798679,11.0922 5.67590679,11.0943 C5.75773679,11.0954 5.96632679,10.9619 6.42224679,10.6164 L7.05501679,10.137 L7.26063679,10.5204 C7.59189679,11.138 7.75514679,11.3045 8.02902679,11.3041007 C8.30099679,11.3037 8.52332679,11.048 8.81429679,10.4009 L8.96754679,10.06 L9.65700679,10.578 C10.1051068,10.9146 10.3824068,11.0959 10.4493068,11.0959 C10.5705068,11.0959 11.3012068,10.7101 11.4187068,10.5841 C11.5310068,10.4635 11.5220068,10.2809 11.3976068,10.1565 C11.2587068,10.0176 11.1235068,10.0276 10.8152068,10.2001 C10.6717068,10.2803 10.5324068,10.3459 10.5054068,10.3459 C10.4785068,10.3459 10.1864068,10.1429 9.85620679,9.8948 L9.25600679,9.4437 L9.41280679,9.1547 C9.62980679,8.75474 9.78620679,8.51253 9.82740679,8.51253 C9.84650679,8.51253 10.1467068,8.72816 10.4945068,8.9917 C10.9795068,9.3591 11.1565068,9.4709 11.2536068,9.4709 C11.4063068,9.4709 12.1403068,9.085 12.2293068,8.95787 C12.3566068,8.77624 12.2902068,8.55657 12.0820068,8.47032 C11.9613068,8.42036 11.9301068,8.42844 11.6219068,8.58982 L11.2912068,8.76295 L10.7474068,8.35648 C10.2555068,7.98877 10.2060068,7.9401 10.2284068,7.84585 C10.2421068,7.78856 10.2641068,7.6093 10.2774068,7.44751 C10.3063068,7.09509 10.2048068,6.64224 9.98050679,6.12353 C9.87210679,5.8729 9.84780679,5.77823 9.88600679,5.75615 C9.91420679,5.73977 10.2350068,5.51981 10.5987068,5.2673 L11.2600068,4.80825 L11.5873068,4.97284 C11.9678068,5.16413 12.0902068,5.17597 12.2310068,5.03517 C12.3436068,4.92259 12.3582068,4.82117 12.2850068,4.66046 C12.2318068,4.54362 11.4113068,4.09578 11.2505068,4.09578 C11.1251068,4.09578 11.0698068,4.12928 10.2424068,4.70671 C9.83720679,4.98946 9.49350679,5.2208 9.47860679,5.2208 C9.46370679,5.2208 9.34030679,5.10951 9.20430679,4.97351 L8.95700679,4.72625 L9.11850679,4.49571 C9.32500679,4.20091 9.39140679,3.96186 9.36580679,3.60565 C9.31700679,2.92459 8.80754679,2.43071 8.12486679,2.40254 C7.95298679,2.3955 7.76548679,2.40509 7.70818679,2.42392 Z M8.44645679,3.17072 C8.70970679,3.35819 8.79204679,3.7924 8.61433679,4.05611 C8.24503679,4.60408 7.41651679,4.36012 7.41651679,3.70344 C7.41651679,3.44902 7.54468679,3.23023 7.75723679,3.12185 C7.94327679,3.02701 8.27794679,3.05076 8.44645679,3.17072 Z M8.31807679,5.13422 C8.93366679,5.41376 9.62650679,6.59708 9.62431202,7.36501 C9.62360679,7.60293 9.62880679,7.59214 9.21540679,8.20544 C8.89783679,8.67661 8.40453679,9.6443 8.16157679,10.2728 C8.08411679,10.4733 8.01006679,10.6373 7.99706679,10.6374001 C7.98406679,10.6375 7.94006679,10.5319 7.89935679,10.4026 C7.77410679,10.0053 7.15051679,8.81108 6.78458679,8.26773 C6.59358679,7.98414 6.41291679,7.71226 6.38308679,7.66355 C6.30120679,7.52993 6.35162679,7.10984 6.49333679,6.74487 C6.75775679,6.06394 7.31426679,5.36439 7.75468679,5.15938 C8.02244679,5.03472 8.09211679,5.03163 8.31807679,5.13422 Z" id="Shape"></path>
        </g>
    </g>
</svg>