<?xml version="1.0" encoding="UTF-8"?>
<svg width="37px" height="37px" viewBox="0 0 37 37" version="1.1" xmlns="http://www.w3.org/2000/svg" xmlns:xlink="http://www.w3.org/1999/xlink">
    <title>icon-3</title>
    <g id="Page-1" stroke="none" stroke-width="1" fill="none" fill-rule="evenodd">
        <g id="icon-3" transform="translate(1.000001, 0.999999)" fill="#F36D45" fill-rule="nonzero" stroke="#F36D45" stroke-width="0.5">
            <path d="M32.175299,7.71786125 L32.175299,0.59596125 C32.175299,0.43794125 32.112599,0.28638125 32.000799,0.17464125 C31.889099,0.06290125 31.737499,0 31.579499,0 L25.620999,0 C25.462999,0 25.311499,0.06290125 25.199699,0.17464125 C25.087999,0.28638125 25.025199,0.43794125 25.025199,0.59596125 L25.025199,2.26886125 C22.784699,1.22028125 20.419699,0.46151125 17.987399,0.01090125 C17.913199,-0.00363375 17.836899,-0.00363375 17.762699,0.01090125 C2.04154897,3.03404125 0.0253289692,14.6859013 0.0072789692,14.8034013 C-0.0061350308,14.8884013 -0.000966030796,14.9754013 0.0224289692,15.0582012 C0.0458189692,15.1410012 0.0868889692,15.2178013 0.142788969,15.2832013 C0.198698969,15.3487013 0.268118969,15.4013013 0.346278969,15.4373013 C0.424438969,15.4734013 0.509478969,15.4920013 0.595548969,15.4921013 L3.57477897,15.4921013 L3.57477897,30.9841013 L2.38308897,30.9841013 C2.22505897,30.9841013 2.07350897,31.0468012 1.96175897,31.1586013 C1.85001897,31.2703012 1.78723897,31.4219013 1.78723897,31.5799012 L1.78723897,35.1550012 C1.78723897,35.3130012 1.85001897,35.4646012 1.96175897,35.5763013 C2.07350897,35.6880012 2.22505897,35.7508012 2.38308897,35.7508012 L33.366999,35.7508012 C33.525099,35.7508012 33.676599,35.6880012 33.788399,35.5763013 C33.900099,35.4646012 33.962899,35.3130012 33.962899,35.1550012 L33.962899,31.5799012 C33.962899,31.4219013 33.900099,31.2703012 33.788399,31.1586013 C33.676599,31.0468012 33.525099,30.9841013 33.366999,30.9841013 L32.175299,30.9841013 L32.175299,15.4921013 L35.154599,15.4921013 C35.240699,15.4921013 35.325899,15.4734013 35.404199,15.4372013 C35.482399,15.4011012 35.551899,15.3485013 35.607799,15.2829013 C35.663699,15.2173013 35.704799,15.1404013 35.728099,15.0574013 C35.751399,14.9744012 35.756399,14.8874012 35.742799,14.8023013 C35.161699,12.1808013 33.935399,9.74570125 32.175299,7.71786125 Z M32.771199,34.5591013 L2.97892897,34.5591013 L2.97892897,32.1757013 L32.771199,32.1757013 L32.771199,34.5591013 Z M31.579499,14.3004013 C31.421499,14.3004013 31.269899,14.3632013 31.158199,14.4749013 C31.046399,14.5867013 30.983599,14.7382013 30.983599,14.8962013 L30.983599,30.9841013 L4.76646897,30.9841013 L4.76646897,14.8962013 C4.76646897,14.7382013 4.70368897,14.5867013 4.59194897,14.4749013 C4.48020897,14.3632013 4.32864897,14.3004013 4.17061897,14.3004013 L1.33916897,14.3004013 C1.99673897,11.8487013 5.11270897,3.70085125 17.875099,1.20289125 C20.475599,1.68778125 22.991399,2.54970125 25.342899,3.76139125 C25.433699,3.80932125 25.535299,3.83297125 25.637999,3.83005125 C25.740599,3.82713125 25.840799,3.79774125 25.928699,3.74473125 C26.016599,3.69172125 26.089399,3.61689125 26.139799,3.52749125 C26.190299,3.43809125 26.216899,3.33716125 26.216899,3.23448125 L26.216899,1.19181125 L30.983599,1.19181125 L30.983599,7.93522125 C30.983799,8.07666125 31.034099,8.21346125 31.125599,8.32127125 C32.627899,10.0602013 33.744099,12.0981013 34.400499,14.3004013 L31.579499,14.3004013 Z" id="Shape"></path>
            <path d="M16.370899,10.2853013 C15.517299,11.1396013 14.916399,12.2132013 14.634299,13.3874013 C14.352299,14.5617013 14.400099,15.7911013 14.772499,16.9399013 L8.36592897,23.3465013 C8.25418897,23.4582013 8.19140897,23.6097013 8.19140897,23.7678013 L8.19140897,27.1383013 C8.19140897,27.2633013 8.23072897,27.3852013 8.30382897,27.4867013 C8.37693897,27.5881013 8.48009897,27.6640013 8.59872897,27.7036013 L11.126399,28.5462013 C11.231399,28.5811013 11.344099,28.5862013 11.451799,28.5608013 C11.559499,28.5353013 11.657999,28.4804012 11.736199,28.4021013 L13.825099,26.3135013 C13.935199,26.2032012 13.997899,26.0543013 13.999699,25.8986012 L14.011599,24.7977013 L15.058499,24.8207012 C15.138699,24.8215013 15.218299,24.8065013 15.292699,24.7766012 C15.367099,24.7466013 15.434899,24.7023013 15.492199,24.6461013 L18.985299,21.1534013 C20.093299,21.5124013 21.276999,21.5697013 22.414499,21.3192012 C23.551999,21.0688013 24.602199,20.5197013 25.457099,19.7286013 C26.311899,18.9374013 26.940399,17.9327013 27.277899,16.8179013 C27.615399,15.7031012 27.649699,14.5185013 27.377299,13.3861013 C27.104899,12.2536013 26.535599,11.2143013 25.727999,10.3749013 C24.920399,9.53560125 23.903699,8.92667125 22.782599,8.61081125 C21.661499,8.29495125 20.476499,8.28358125 19.349499,8.57788125 C18.222599,8.87217125 17.194399,9.46150125 16.370899,10.2852013 L16.370899,10.2853013 Z M24.797699,18.7118013 C24.059599,19.4490013 23.122599,19.9551013 22.101399,20.1680013 C21.080099,20.3809013 20.018999,20.2915013 19.047799,19.9108013 C18.939899,19.8686013 18.822099,19.8587013 18.708699,19.8824013 C18.595299,19.9061012 18.491299,19.9624012 18.409399,20.0443013 L14.829699,23.6238012 L13.434999,23.5932012 C13.276199,23.5914013 13.122999,23.6516012 13.007899,23.7610012 C12.951199,23.8158012 12.905899,23.8812013 12.874799,23.9536013 C12.843599,24.0260013 12.827099,24.1038013 12.826299,24.1826013 L12.810599,25.6428013 L11.154099,27.2993012 L9.38349897,26.7090013 L9.38349897,24.0146013 L15.881499,17.5161013 C15.963499,17.4342013 16.019799,17.3301013 16.043499,17.2166013 C16.067199,17.1032013 16.057199,16.9853012 16.014799,16.8774013 C15.661899,15.9775013 15.558799,14.9988013 15.716499,14.0450013 C15.874199,13.0913013 16.286799,12.1979013 16.910699,11.4595013 C17.534499,10.7210013 18.346399,10.1650013 19.260399,9.85010125 C20.174399,9.53530125 21.156599,9.47350125 22.102799,9.67110125 C23.049099,9.86870125 23.924399,10.3185013 24.635999,10.9729013 C25.347599,11.6272013 25.868999,12.4618013 26.145199,13.3882013 C26.421299,14.3146013 26.441799,15.2985013 26.204599,16.2356013 C25.967399,17.1727013 25.481199,18.0283013 24.797499,18.7118013 L24.797699,18.7118013 Z" id="Shape"></path>
            <path d="M21.004499,11.3456855 C20.177399,11.3458012 19.375899,11.6326012 18.736599,12.1574012 C18.097199,12.6821012 17.659699,13.4123012 17.498299,14.2235012 C17.336999,15.0348012 17.461999,15.8768012 17.851899,16.6062013 C18.241799,17.3356012 18.872599,17.9073012 19.636799,18.2238013 C20.400899,18.5403012 21.251199,18.5820013 22.042599,18.3419012 C22.834099,18.1018013 23.517899,17.5947012 23.977399,16.9069013 C24.436899,16.2192013 24.643699,15.3935012 24.562599,14.5704012 C24.481499,13.7472012 24.117599,12.9777012 23.532699,12.3929012 C23.201499,12.0598012 22.807499,11.7957013 22.373499,11.6159012 C21.939499,11.4362012 21.474199,11.3443012 21.004499,11.3456855 Z M22.690199,16.6060012 C22.356799,16.9393012 21.932199,17.1663012 21.469799,17.2582012 C21.007499,17.3502012 20.528299,17.3030013 20.092799,17.1226012 C19.657299,16.9422012 19.284999,16.6368012 19.023099,16.2448013 C18.761199,15.8529013 18.621499,15.3921012 18.621499,14.9207012 C18.621499,14.4493012 18.761199,13.9885012 19.023099,13.5965012 C19.284999,13.2046012 19.657299,12.8991012 20.092799,12.7187012 C20.528299,12.5383012 21.007499,12.4911012 21.469799,12.5831012 C21.932199,12.6751012 22.356799,12.9021012 22.690199,13.2354012 C22.913099,13.4558012 23.090199,13.7182012 23.210999,14.0075012 C23.331799,14.2968012 23.394099,14.6072012 23.394099,14.9207012 C23.394099,15.2342012 23.331799,15.5446012 23.210999,15.8339012 C23.090199,16.1231012 22.913099,16.3856013 22.690199,16.6060012 Z" id="Shape"></path>
        </g>
    </g>
</svg>