<?xml version="1.0" encoding="UTF-8"?>
<svg width="44px" height="44px" viewBox="0 0 44 44" version="1.1" xmlns="http://www.w3.org/2000/svg" xmlns:xlink="http://www.w3.org/1999/xlink">
    <title>icon-7</title>
    <g id="Page-1" stroke="none" stroke-width="1" fill="none" fill-rule="evenodd">
        <g id="icon-7" fill="#F36D45">
            <path d="M7.5888,0.207264 L7.34766,0.414441 L7.3211,4.05104 C7.30649,6.0511 7.3187,7.8615 7.34809,8.07409 C7.39956,8.44567 7.50217,8.56068 9.99573,11.0423 C11.4225,12.4622 12.8219,13.799 13.1055,14.0128 C14.7008,15.2161 16.4082,15.8755 18.42,16.065 C18.9431,16.1143 19.386,16.1696 19.4043,16.1879 C19.4226,16.2062 19.0279,17.1421 18.527,18.2676 C18.0263,19.3932 17.6167,20.4221 17.6168,20.5541 C17.6174,20.9662 17.9299,21.1652 19.2741,21.6094 C20.2952,21.9469 20.575,22.0094 20.7642,21.9425 C20.9369,21.8815 21.5118,21.126 22.984,19.0256 L24.9707,16.1911 L32.1435,16.1482 C39.1987,16.1059 39.3228,16.1023 39.7031,15.9253 C40.5726,15.5206 41.1687,14.4746 41.0356,13.5871 C40.9252,12.8515 40.646,12.4773 39.0026,10.862 C37.1073,8.999 36.1772,8.34861 34.6758,7.83616 C33.4066,7.40299 33.0621,7.36924 29.4598,7.32517 L26.0486,7.28343 L24.358,4.56504 C23.4283,3.06996 22.5732,1.75972 22.4579,1.65347 C22.2592,1.47034 22.1782,1.46021 20.9144,1.46021 L19.5805,1.46021 L19.3293,1.71128 C19.1911,1.8494 19.0781,2.04369 19.0781,2.14307 C19.0781,2.24245 19.3488,3.40392 19.6797,4.7242 C20.0105,6.04449 20.2812,7.16438 20.2812,7.21282 C20.2812,7.2714 19.3056,7.30104 17.3759,7.30104 L14.4704,7.30104 L13.4481,3.88673 C12.6017,1.06011 12.3855,0.431792 12.1921,0.23621 L11.9585,0 L9.89424,0 C7.83613,0 7.82916,0.00060128 7.5888,0.207264 Z M12.0435,4.29473 C12.5064,5.83009 12.8863,7.13466 12.887907,7.19367 C12.89,7.27664 12.4224,7.30104 10.8281,7.30104 L8.76562,7.30104 L8.76562,4.3783 L8.76562,1.45548 L9.98388,1.47936 L11.202,1.50315 L12.0435,4.29473 Z M22.961,5.11073 L24.3087,7.25809 L23.0995,7.28197 C22.4344,7.29511 21.8724,7.28807 21.8506,7.26625 C21.7929,7.20853 20.8018,3.24965 20.7991,3.06601 C20.7972,2.93442 20.8586,2.91492 21.2051,2.93716 L21.6133,2.96336 L22.961,5.11073 Z M33.5,9.00098 C34.2769,9.20738 35.2765,9.63926 35.7996,9.99461 L36.1299,10.2189 L33.4692,10.2416 L30.8086,10.2644 L30.8086,10.9945 L30.8086,11.7246 L34.3313,11.747 L37.854,11.7695 L38.6128,12.5201 C39.0302,12.933 39.4294,13.3798 39.4999,13.5132 C39.663,13.8216 39.5889,14.1744 39.3051,14.4409 L39.0878,14.645 L32.5634,14.6686 L26.0391,14.6922 L26.2106,14.4109 C26.4427,14.0304 26.4294,13.696 26.1718,13.4386 L25.9609,13.2278 L23.5022,13.2278 C21.8964,13.2278 20.9828,13.2601 20.8689,13.3211 C20.7729,13.3725 20.5637,13.701 20.4041,14.0512 L20.1137,14.688 L19.7033,14.6865 C18.3831,14.6817 16.9177,14.3909 15.7839,13.9086 C14.6358,13.4203 13.9095,12.8402 11.8164,10.7398 L9.83984,8.75643 L21.3125,8.78375 L32.7852,8.81106 L33.5,9.00098 Z M16.1562,10.9945 L16.1562,11.7745 L16.8652,11.7495 L17.5742,11.7246 L17.5742,10.9945 L17.5742,10.2644 L16.8652,10.2395 L16.1562,10.2145 L16.1562,10.9945 Z M19.0781,10.9945 L19.0781,11.7745 L19.7871,11.7495 L20.4961,11.7246 L20.4961,10.9945 L20.4961,10.2644 L19.7871,10.2395 L19.0781,10.2145 L19.0781,10.9945 Z M22,10.9945 L22,11.7676 L22.7305,11.7676 L23.4609,11.7676 L23.4609,10.9945 L23.4609,10.2215 L22.7305,10.2215 L22,10.2215 L22,10.9945 Z M24.9581,10.3369 C24.9337,10.4004 24.9253,10.7385 24.9393,11.0885 L24.9648,11.7246 L25.6738,11.7495 L26.3828,11.7745 L26.3828,10.9979 L26.3828,10.2215 L25.6926,10.2215 C25.1941,10.2215 24.9901,10.2535 24.9581,10.3369 Z M27.88,10.3369 C27.8556,10.4004 27.8472,10.7385 27.8612,11.0885 L27.8867,11.7246 L28.5957,11.7495 L29.3047,11.7745 L29.3047,10.9979 L29.3047,10.2215 L28.6145,10.2215 C28.116,10.2215 27.912,10.2535 27.88,10.3369 Z M22.2888,17.4581 C21.2226,18.9817 20.3188,20.2614 20.2805,20.302 C20.1816,20.4069 19.3147,20.1048 19.3652,19.9831 C19.4998,19.6588 21.6022,14.962 21.6681,14.8383 C21.7388,14.7057 21.8951,14.688 22.9879,14.688 L24.2275,14.688 L22.2888,17.4581 Z M7.5888,20.736 C7.34809,20.9428 7.34757,20.9452 7.31809,22.1962 L7.28853,23.4492 L5.78849,23.4492 C4.04671,23.4492 3.84012,23.5068 3.70356,24.0296 C3.65741,24.2065 3.32054,26.0025 2.95505,28.021 L2.29049,31.6908 L1.37723,31.9949 C0.87493,32.1623 0.381906,32.3566 0.281703,32.4267 C-0.125641,32.7119 -0.0955625,32.8369 1.36159,36.9122 C2.11767,39.0268 2.76195,40.8222 2.79331,40.902 C2.838,41.0159 2.77922,41.0664 2.52089,41.1366 C2.02959,41.27 1.55126,41.5495 1.10653,41.9631 C0.887992,42.1663 0.549656,42.3804 0.354578,42.4388 L0,42.545 L0,43.2725 L0,44 L0.365234,43.942 C0.91618,43.8546 1.5467,43.534 2.05477,43.083 C2.92823,42.3076 3.45967,42.3173 4.33632,43.125 C5.22311,43.9419 6.48605,44.1761 7.48559,43.7087 C7.75053,43.5849 8.18366,43.2877 8.44809,43.0483 C9.23605,42.3351 9.84208,42.3351 10.63,43.0483 C10.8945,43.2877 11.3276,43.5849 11.5925,43.7087 C12.5921,44.1761 13.855,43.9419 14.7418,43.125 C15.6134,42.3221 16.1861,42.3088 17.0033,43.0729 C17.4607,43.5005 18.155,43.8535 18.7129,43.942 L19.0781,44 L19.0781,43.2725 L19.0781,42.545 L18.726,42.4396 C18.5323,42.3816 18.2132,42.1892 18.017,42.0121 C17.4839,41.5311 17.1891,41.3474 16.6868,41.1832 C16.4347,41.1008 16.2483,40.992 16.2679,40.9388 C17.6681,37.1363 19.0812,33.0076 19.0395,32.8412 C18.9505,32.487 18.6992,32.3274 17.7138,31.9992 C17.188,31.8242 16.7572,31.6551 16.7564,31.6235 C16.7497,31.3415 15.3746,24.0391 15.2957,23.8667 C15.1272,23.4983 14.8892,23.4492 13.2733,23.4492 L11.7734,23.4492 L11.7734,22.3728 C11.7734,21.2191 11.6713,20.7899 11.3566,20.6216 C11.2494,20.5642 10.5432,20.5288 9.50658,20.5288 C7.8583,20.5288 7.82581,20.5323 7.5888,20.736 Z M10.2266,22.7191 L10.2266,23.4492 L9.49609,23.4492 L8.76562,23.4492 L8.76562,22.7191 L8.76562,21.989 L9.49609,21.989 L10.2266,21.989 L10.2266,22.7191 Z M14.6181,28.0016 C14.9445,29.801 15.1423,31.0938 15.0911,31.0938 C15.0428,31.0938 13.7736,30.6858 12.2708,30.1872 L9.53829,29.2806 L6.69909,30.2234 C4.49582,30.955 3.86891,31.134 3.89993,31.0226 C3.92193,30.9437 4.1818,29.536 4.47752,27.8943 L5.01514,24.9094 L9.53614,24.9094 L14.0571,24.9094 L14.6181,28.0016 Z M6.61719,27.0997 L6.61719,27.8298 L9.53906,27.8298 L12.4609,27.8298 L12.4609,27.0997 L12.4609,26.3696 L9.53906,26.3696 L6.61719,26.3696 L6.61719,27.0997 Z M20.7656,27.3691 L20.5391,27.5956 L20.5391,34.4594 L20.5391,41.3231 L20.75,41.5339 C20.9595,41.7432 20.9728,41.7448 22.6249,41.7448 L24.2887,41.7448 L24.485,42.2182 C24.7365,42.8246 25.3096,43.4123 25.9342,43.7042 C26.5425,43.9885 27.4627,44.0185 28.1634,43.7769 C28.7847,43.5628 29.4076,42.9797 29.7436,42.2975 L30.0158,41.7448 L32.6522,41.7448 L35.2887,41.7448 L35.485,42.2182 C35.7365,42.8246 36.3096,43.4123 36.9342,43.7042 C37.5425,43.9885 38.4627,44.0185 39.1634,43.7769 C39.7847,43.5628 40.4076,42.9797 40.7436,42.2975 L41.0158,41.7448 L42.243,41.7448 C42.918,41.7448 43.5329,41.7207 43.6094,41.6914 C43.9728,41.552 44,41.3023 44,38.0979 L44,35.0438 L42.7985,32.6433 C42.0967,31.2409 41.5272,30.2053 41.4292,30.1529 C41.3245,30.0969 40.4042,30.0631 38.9847,30.0631 L36.708,30.0631 L36.6802,28.8243 C36.6538,27.6504 36.6414,27.5739 36.444,27.3641 L36.2356,27.1427 L28.6139,27.1427 L20.9922,27.1427 L20.7656,27.3691 Z M35.2344,34.4437 L35.2344,40.2845 L32.5796,40.2845 L29.9249,40.2845 L29.8692,40.0627 C29.7078,39.4201 28.8833,38.5935 28.1142,38.3034 C27.4733,38.0617 26.5377,38.1028 25.9102,38.4004 C25.3494,38.6663 24.7384,39.2823 24.4826,39.8396 L24.2784,40.2845 L23.1392,40.2845 L22,40.2845 L22,34.4437 L22,28.6029 L28.6172,28.6029 L35.2344,28.6029 L35.2344,34.4437 Z M8.76562,36.111 L8.76562,41.1282 L8.38922,41.3103 C8.1822,41.4104 7.79479,41.6832 7.52821,41.9163 C6.67159,42.6655 6.05791,42.682 5.26006,41.9771 C5.03516,41.7784 4.77022,41.5579 4.67122,41.4871 C4.54137,41.3941 4.10102,40.2619 3.0922,37.4269 C2.3228,35.2648 1.71334,33.4757 1.73783,33.4512 C1.78183,33.4072 8.57639,31.1136 8.70117,31.1004955 C8.73658,31.0968 8.76562,33.3516 8.76562,36.111 Z M13.8649,32.263 C16.7596,33.2275 17.3676,33.457 17.336,33.5729 C17.3149,33.6503 16.6913,35.4143 15.9501,37.493 L14.6024,41.2723 L14.1118,41.7281 C13.0813,42.6853 12.4994,42.7367 11.591,41.9503 C11.2896,41.6894 10.8592,41.3917 10.6348,41.2887 L10.2266,41.1016 L10.2266,36.0977 C10.2266,33.3456 10.2555,31.0938 10.291,31.0938 C10.3264,31.0938 11.9347,31.62 13.8649,32.263 Z M38.1562,33.503 L38.1562,35.4826 L38.3836,35.6933 L38.611,35.9039 L40.575,35.9039 L42.5391,35.9039 L42.5391,38.0942 L42.5391,40.2845 L41.7319,40.2845 C40.9358,40.2845 40.9241,40.2815 40.8692,40.0627 C40.7092,39.4256 39.8827,38.5924 39.1325,38.3118 C38.4089,38.0412 37.6832,38.0805 36.8457,38.4354 C36.7039,38.4955 36.6953,38.3 36.6953,35.0112 L36.6953,31.5233 L37.4258,31.5233 L38.1562,31.5233 L38.1562,33.503 Z M41.3157,32.9412 C41.705,33.7211 42.0234,34.3782 42.0234,34.4015 C42.0234,34.4247 41.482,34.4437 40.8203,34.4437 L39.6172,34.4437 L39.6172,32.9835 L39.6172,31.5233 L40.1125,31.5233 L40.6079,31.5233 L41.3157,32.9412 Z M27.6975,39.7134 C27.8503,39.7773 28.0978,39.9689 28.2475,40.1393 C29.2682,41.3013 27.8389,43.058 26.4688,42.3252 C25.9221,42.0328 25.6792,41.5906 25.7181,40.9586 C25.7814,39.9308 26.7536,39.3193 27.6975,39.7134 Z M38.6975,39.7134 C38.8503,39.7773 39.0978,39.9689 39.2475,40.1393 C40.2682,41.3013 38.8389,43.058 37.4688,42.3252 C36.9221,42.0328 36.6792,41.5906 36.7181,40.9586 C36.7814,39.9308 37.7536,39.3193 38.6975,39.7134 Z" id="Shape"></path>
        </g>
    </g>
</svg>