<?xml version="1.0" encoding="UTF-8"?>
<svg width="14px" height="14px" viewBox="0 0 14 14" version="1.1" xmlns="http://www.w3.org/2000/svg" xmlns:xlink="http://www.w3.org/1999/xlink">
    <title>icon-w-3</title>
    <g id="Page-1" stroke="none" stroke-width="1" fill="none" fill-rule="evenodd">
        <g id="icon-w-3" fill="#F36D45" fill-rule="nonzero">
            <path d="M13,14 L10.5,14 C10.2349,13.9997 9.9807,13.8942 9.7932,13.7068 C9.6058,13.5193 9.5003,13.2651 9.5,13 L9.5,10.5 C9.5003,10.2349 9.6058,9.9807 9.7932,9.7932 C9.9807,9.6058 10.2349,9.5003 10.5,9.5 L13,9.5 C13.2651,9.5003 13.5193,9.6058 13.7068,9.7932 C13.8942,9.9807 13.9997,10.2349 14,10.5 L14,13 C13.9997,13.2651 13.8942,13.5193 13.7068,13.7068 C13.5193,13.8942 13.2651,13.9997 13,14 Z M10.5,10.5 L10.4994,10.5 L10.5,13 L13,13 L13,10.5 L10.5,10.5 Z" id="Shape"></path>
            <path d="M7,10.5 L4.5,10.5 C4.23488,10.4997 3.9807,10.3942 3.79323,10.2068 C3.60576,10.0193 3.5003,9.7651 3.5,9.5 L3.5,4.5 C3.5003,4.23488 3.60576,3.9807 3.79323,3.79323 C3.9807,3.60576 4.23488,3.5003 4.5,3.5 L9.5,3.5 C9.7651,3.5003 10.0193,3.60576 10.2068,3.79323 C10.3942,3.9807 10.4997,4.23488 10.5,4.5 L10.5,7 L9.5,7 L9.5,4.5 L4.5,4.5 L4.5,9.5 L7,9.5 L7,10.5 Z" id="Path"></path>
            <path d="M7,14 L1,14 C0.73488,13.9997 0.4807,13.8942 0.29323,13.7068 C0.10576,13.5193 0.0003,13.2651 0,13 L0,1 C0.0003,0.73488 0.10576,0.4807 0.29323,0.29323 C0.4807,0.10576 0.73488,0.0003 1,0 L13,0 C13.2651,0.0003 13.5193,0.10576 13.7068,0.29323 C13.8942,0.4807 13.9997,0.73488 14,1 L14,7 L13,7 L13,1 L1,1 L1,13 L7,13 L7,14 Z" id="Path"></path>
        </g>
    </g>
</svg>