<?xml version="1.0" encoding="UTF-8"?>
<svg width="17px" height="17px" viewBox="0 0 17 17" version="1.1" xmlns="http://www.w3.org/2000/svg" xmlns:xlink="http://www.w3.org/1999/xlink">
    <title>icon-02</title>
    <g id="Page-1" stroke="none" stroke-width="1" fill="none" fill-rule="evenodd">
        <g id="icon-02" transform="translate(0.843750, 0.843750)" fill="#F36D45" fill-rule="nonzero">
            <polygon id="Path" points="15.75 0 13.5 0 13.5 2.25 15.75 2.25"></polygon>
            <polygon id="Path" points="15.75 3.375 13.5 3.375 13.5 5.625 15.75 5.625"></polygon>
            <polygon id="Path" points="12.375 0 10.125 0 10.125 2.25 12.375 2.25"></polygon>
            <polygon id="Path" points="12.375 3.375 10.125 3.375 10.125 5.625 12.375 5.625"></polygon>
            <path d="M14.625,7.875 L14.625,11.25 L1.125,11.25 L1.125,2.25 L7.875,2.25 L7.875,1.125 L1.125,1.125 C0.82663,1.125 0.54048,1.24353 0.3295,1.4545 C0.11853,1.66548 0,1.95163 0,2.25 L0,11.25 C0,11.5484 0.11853,11.8345 0.3295,12.0455 C0.54048,12.2565 0.82663,12.375 1.125,12.375 L5.625,12.375 L5.625,14.625 L3.375,14.625 L3.375,15.75 L12.375,15.75 L12.375,14.625 L10.125,14.625 L10.125,12.375 L14.625,12.375 C14.9234,12.375 15.2095,12.2565 15.4205,12.0455 C15.6315,11.8345 15.75,11.5484 15.75,11.25 L15.75,7.875 L14.625,7.875 Z M9,14.625 L6.75,14.625 L6.75,12.375 L9,12.375 L9,14.625 Z" id="Shape"></path>
        </g>
    </g>
</svg>