<?xml version="1.0" encoding="UTF-8"?>
<svg width="236px" height="181px" viewBox="0 0 236 181" version="1.1" xmlns="http://www.w3.org/2000/svg" xmlns:xlink="http://www.w3.org/1999/xlink">
    <title>ill-002</title>
    <defs>
        <path d="M59.0110027,23.5776999 C81.6461027,28.4836999 104.050003,-9.23231012 159.560003,2.15288988 C203.432003,11.1471999 225.646003,36.4843999 211.947003,71.3023999 C207.521003,82.5529999 235.171003,100.428 234.551003,127.814 C233.941003,154.58 214.166003,168.325 187.630003,175.084 C171.566003,179.182 153.378003,180.621 136.841003,180.931 C116.434003,181.325 92.2539027,179.979 74.7599027,178.096 C-24.0857973,167.445 5.22518265,132.462 0.883209652,87.2209999 C-3.54286735,41.1626999 22.3197027,15.6287999 59.0110027,23.5776999 Z" id="path-1"></path>
    </defs>
    <g id="Page-1" stroke="none" stroke-width="1" fill="none" fill-rule="evenodd">
        <g id="ill-002" transform="translate(0.000010, 0.000003)">
            <path d="M59.9345027,23.5776999 C82.5695027,28.4836999 104.973003,-9.23231012 160.483003,2.15288988 C204.355003,11.1471999 226.570003,36.4843999 212.871003,71.3023999 C208.445003,82.5529999 236.095003,100.428 235.474003,127.814 C234.865003,154.58 215.089003,168.325 188.554003,175.084 C172.489003,179.182 154.301003,180.621 137.764003,180.931 C117.358003,181.325 93.1774027,179.979 75.6833027,178.096 C-23.1622973,167.445 6.14865265,132.462 1.80667265,87.2209999 C-2.61940735,41.1626999 23.2432027,15.6287999 59.9345027,23.5776999 Z" id="Path" fill="#EBF3FA" fill-rule="nonzero"></path>
            <g id="Clipped">
                <mask id="mask-2" fill="white">
                    <use xlink:href="#path-1"></use>
                </mask>
                <g id="Path"></g>
                <g id="Group" mask="url(#mask-2)">
                    <g transform="translate(-25.206797, 12.975600)">
                        <polygon id="Path" fill="#ABD7F2" fill-rule="nonzero" points="192.1308 140.4794 108.1335 109.8284 148.2158 0 232.2128 30.6518"></polygon>
                        <path d="M178.1418,35.059 C176.7498,38.8716 174.1068,41.8672 170.8488,43.7533 C170.6538,43.8609 170.4588,43.9685 170.2638,44.0761 C168.6608,44.9132 166.9258,45.4982 165.1198,45.7806 C162.4168,46.2143 159.5728,45.9823 156.8088,44.9838 C154.2168,44.0357 152.0078,42.5127 150.2628,40.6064 C149.2548,39.507 148.3978,38.2765 147.7218,36.9653 C147.2378,36.0172 146.8438,35.0389 146.5418,34.0202 C145.5838,30.7321 145.6238,27.1112 146.8848,23.6516 C150.0318,15.0179 159.5828,10.58 168.2168,13.7269 C176.8508,16.8737 181.2878,26.4253 178.1418,35.059 Z" id="Path" fill="#E9F4F6" fill-rule="nonzero"></path>
                        <path d="M173.7538,35.4624886 C169.0938,35.4724 164.3538,34.6353 159.9258,33.0215 C156.6578,31.8314 153.3898,30.0663 151.7158,27.3632 C151.5338,27.0606 151.3628,26.7379 151.3828,26.405 C151.4028,26.052 151.6448,25.7393 151.8768,25.4569 C153.0878,24.0045 154.3548,22.5891 155.6798,21.2106 C156.8598,20.0003 158.0898,18.8001 159.6228,17.9226 C161.1568,17.035 163.0218,16.4802 164.9488,16.6618 C164.9488,16.6618 171.1318,17.4586 172.9168,25.3863 C173.6728,28.7248 173.8648,32.1239 173.7538,35.4624886 Z" id="Path" fill="#384955" fill-rule="nonzero"></path>
                        <path d="M170.2638,44.0757 C168.6608,44.9129 166.9258,45.4979 165.1198,45.7803 C162.4168,46.214 159.5728,45.982 156.8088,44.9835 C154.2168,44.0354 152.0078,42.5124 150.2628,40.6061 C149.2548,39.5067 148.3978,38.2762 147.7218,36.965 C149.1338,36.3497 150.8278,35.9866 152.6938,35.8858 C154.0558,35.8152 155.5078,35.8858 157.0108,36.1178 C157.7778,36.2388 158.5508,36.4002 159.3308,36.6019 C160.7028,36.9549 161.9938,37.4189 163.1838,37.9635 C164.5448,38.5989 165.7758,39.3352 166.8348,40.1522 C168.3778,41.3424 169.5578,42.6838 170.2638,44.0757 Z" id="Path" fill="#FFCFBF" fill-rule="nonzero"></path>
                        <path d="M156.8798,36.3903 L160.5608,28.8458 C161.3378,27.0707 162.2158,27.1513 163.9098,27.928 C165.6038,28.6945 166.3408,30.7622 165.5638,32.5373 L162.9008,38.6092 C162.9008,38.6092 164.2028,42.8353 162.6088,42.6336 C160.3498,42.3512 156.0928,38.1654 156.8798,36.3903 Z" id="Path" fill="#FFCFBF" fill-rule="nonzero"></path>
                        <path d="M169.7898,22.6127 C169.7898,22.6127 171.7268,33.6066 166.8648,35.0388 C163.8798,35.9163 161.2168,33.5158 158.3018,29.5015 C155.7908,26.0521 164.9588,13.7268 169.7898,22.6127 Z" id="Path" fill="#FFCFBF" fill-rule="nonzero"></path>
                        <path d="M161.3888,33.0819 C162.4578,34.0703 163.6068,34.7259 165.0598,34.8772 C165.3828,34.9075 165.3418,35.442 165.0088,35.4017 C163.4758,35.2504 162.2258,34.5645 161.0958,33.5156 C160.8538,33.2937 161.1458,32.8499 161.3888,33.0819 Z" id="Path" fill="#FF9F89" fill-rule="nonzero"></path>
                        <path d="M170.6168,24.8114 C168.3578,23.7322 165.7658,23.3691 163.2948,23.7927 C162.5178,23.934 161.7518,24.1458 160.9648,24.2365 C161.3078,23.0262 160.8538,21.7553 160.5008,20.5349 C160.4908,20.4744 160.4708,20.4139 160.4908,20.3534 C160.5108,20.2828 160.5918,20.2323 160.6618,20.192 C162.2358,19.3145 164.0918,19.022 165.8968,19.0926 C166.4818,19.1128 167.0868,19.1733 167.6218,19.4254 C168.1458,19.6675 168.5798,20.081 169.0038,20.4845 C169.4778,20.9384 169.9518,21.3922 170.2838,21.9571 C170.6168,22.5118 170.7988,23.1977 170.6268,23.823 L170.6168,24.8114 Z" id="Path" fill="#384955" fill-rule="nonzero"></path>
                        <path d="M159.2098,31.3471 C159.1188,31.4379 159.0178,31.5388 158.8868,31.5589 C158.7558,31.5791 158.6348,31.5085 158.5338,31.448 C157.9998,31.1454 157.4648,30.8327 157.1018,30.3486 C156.6178,29.7031 156.5068,28.8559 156.5368,28.049 C156.5868,26.4251 157.1218,24.7811 158.1708,23.5304 C159.2298,22.2898 160.8238,21.4627 162.4578,21.493 L162.9108,22.5318 C162.6688,25.7695 161.4088,28.9567 159.2098,31.3471 Z" id="Path" fill="#384955" fill-rule="nonzero"></path>
                        <path d="M163.6478,18.6892 C161.7108,19.1734 160.3188,20.6258 158.9778,22.0177 C157.4718,23.5642 155.9488,25.0939 154.4088,26.6069 C154.3178,26.6976 154.1968,26.5463 154.2878,26.4556 C155.9718,24.8014 157.6258,23.1171 159.2698,21.4327 C160.5208,20.1517 161.8418,18.9414 163.6178,18.4976 C163.7388,18.4673 163.7688,18.659 163.6478,18.6892 Z" id="Path" fill="#4D6371" fill-rule="nonzero"></path>
                        <path d="M162.0238,21.8055 C160.1778,24.0446 158.4328,26.6469 156.0628,28.3817 C155.9618,28.4523 155.8408,28.301 155.9418,28.2304 C158.2918,26.5057 160.0268,23.9135 161.8728,21.6845 C161.9528,21.5937 162.1048,21.7047 162.0238,21.8055 Z" id="Path" fill="#4D6371" fill-rule="nonzero"></path>
                        <path d="M170.2638,44.0762 C168.6608,44.9133 166.9258,45.4983 165.1198,45.7807 C162.4168,46.2144 159.5728,45.9824 156.8088,44.9839 C154.2168,44.0358 152.0078,42.5128 150.2638,40.6065 C149.2548,39.5071 148.3978,38.2766 147.7218,36.9654 C149.1338,36.3502 150.8278,35.9871 152.6938,35.8862 C153.9748,37.1571 156.5368,39.4668 159.3208,40.7679 L159.3308,40.7679 C160.6718,41.3932 162.0638,41.7967 163.3858,41.7261 C164.6258,41.6656 165.8058,41.2016 166.8348,40.1527 C168.3778,41.3428 169.5578,42.6843 170.2638,44.0762 Z" id="Path" fill="#384955" fill-rule="nonzero"></path>
                        <path d="M142.3558,48.6556 C150.1018,51.4057 157.8518,54.1592 165.6038,56.9161 C166.4108,57.2086 165.9168,58.4391 165.1098,58.1466 C157.3638,55.3965 149.6148,52.643 141.8618,49.8861 C141.0648,49.6037 141.5488,48.3732 142.3558,48.6556 Z" id="Path" fill="#D3F0F4" fill-rule="nonzero"></path>
                        <path d="M140.3988,53.8902 C143.0488,54.8316 145.6978,55.7729 148.3468,56.7143 C155.4278,59.2291 162.5108,61.7473 169.5988,64.2688 C175.1658,66.2457 180.7338,68.2259 186.3008,70.2096 C187.1078,70.492 186.6138,71.7225 185.8068,71.4401 C183.1578,70.4987 180.5078,69.5573 177.8588,68.6159 C170.7788,66.0944 163.6948,63.5762 156.6078,61.0614 C151.0398,59.0778 145.4758,57.0976 139.9148,55.1207 C139.1078,54.8383 139.5918,53.6078 140.3988,53.8902 Z" id="Path" fill="#D3F0F4" fill-rule="nonzero"></path>
                        <path d="M169.5888,58.6104 C171.8748,59.424 174.1608,60.2376 176.4468,61.0512 C186.5468,64.6419 196.6428,68.2292 206.7358,71.8132 C207.5428,72.1057 207.0478,73.3362 206.2518,73.0537 C203.9588,72.2401 201.6688,71.4265 199.3828,70.6129 C189.2898,67.0222 179.1938,63.4316 169.0938,59.8409 C168.2868,59.5585 168.7818,58.328 169.5888,58.6104 Z" id="Path" fill="#D3F0F4" fill-rule="nonzero"></path>
                        <path d="M190.7588,71.8836 C195.6138,73.6049 200.4688,75.323 205.3238,77.0376 C206.1308,77.3301 205.6358,78.5606 204.8298,78.2782 C199.9748,76.5568 195.1228,74.8388 190.2748,73.1242 C189.4678,72.8317 189.9518,71.6012 190.7588,71.8836 Z" id="Path" fill="#D3F0F4" fill-rule="nonzero"></path>
                        <path d="M138.0788,58.6506 C145.4218,61.1016 152.6938,63.7643 159.8758,66.659 C160.6718,66.9717 160.1878,68.2022 159.3908,67.8895 C152.1998,64.9948 144.9378,62.3321 137.5848,59.8811 C136.7778,59.6088 137.2728,58.3783 138.0788,58.6506 Z" id="Path" fill="#D3F0F4" fill-rule="nonzero"></path>
                        <path d="M164.0308,68.1115 C177.0828,72.8789 190.1308,77.6496 203.1748,82.4237 C203.9818,82.7162 203.4878,83.9467 202.6908,83.6542 C189.6398,78.8869 176.5878,74.1161 163.5368,69.342 C162.7398,69.0495 163.2238,67.819 164.0308,68.1115 Z" id="Path" fill="#D3F0F4" fill-rule="nonzero"></path>
                        <path d="M133.0358,68.878 C135.6858,69.8194 138.3348,70.7608 140.9838,71.7022 C148.0708,74.217 155.1548,76.7351 162.2358,79.2567 C167.8028,81.2336 173.3708,83.2104 178.9378,85.1873 C179.7448,85.4798 179.2508,86.7103 178.4438,86.4279 C175.8018,85.4866 173.1558,84.5452 170.5058,83.6038 C163.4188,81.0823 156.3318,78.5641 149.2448,76.0493 C143.6838,74.0657 138.1198,72.0854 132.5518,70.1086 C131.7448,69.8261 132.2398,68.5855 133.0358,68.878 Z" id="Path" fill="#D3F0F4" fill-rule="nonzero"></path>
                        <path d="M183.3958,86.8716 C188.2508,88.5934 193.1058,90.3114 197.9608,92.0254 C198.7678,92.3084 198.2738,93.5484 197.4668,93.2564 C192.6188,91.5414 187.7668,89.8264 182.9118,88.1124 C182.1048,87.8194 182.5998,86.5892 183.3958,86.8716 Z" id="Path" fill="#D3F0F4" fill-rule="nonzero"></path>
                        <path d="M130.7168,73.6384 C138.0588,76.0793 145.3308,78.7521 152.5228,81.6367 C153.3088,81.9595 152.8248,83.19 152.0288,82.8773 C144.8468,79.9826 137.5748,77.3199 130.2218,74.8689 C129.4148,74.5966 129.9098,73.3661 130.7168,73.6384 Z" id="Path" fill="#D3F0F4" fill-rule="nonzero"></path>
                        <path d="M156.6678,83.0995 C169.7198,87.8674 182.7708,92.6374 195.8228,97.4114 C196.6188,97.7044 196.1348,98.9344 195.3278,98.6424 C182.2768,93.8744 169.2248,89.1044 156.1738,84.33 C155.3768,84.0375 155.8608,82.807 156.6678,83.0995 Z" id="Path" fill="#D3F0F4" fill-rule="nonzero"></path>
                        <path d="M192.3728,27.323 C201.3358,30.4699 210.2998,33.6202 219.2628,36.7738 C220.0698,37.0562 219.5748,38.2867 218.7688,38.0043 C209.8118,34.8574 200.8518,31.7072 191.8888,28.5536 C191.0818,28.2711 191.5658,27.0406 192.3728,27.323 Z" id="Path" fill="#D3F0F4" fill-rule="nonzero"></path>
                        <path d="M190.9408,31.2159 C199.9038,34.3627 208.8638,37.513 217.8198,40.6666 C218.6268,40.949 218.1428,42.1795 217.3358,41.8971 C208.3728,38.7502 199.4098,35.6 190.4468,32.4464 C189.6398,32.164 190.1338,30.9335 190.9408,31.2159 Z" id="Path" fill="#D3F0F4" fill-rule="nonzero"></path>
                        <path d="M189.5188,36.1485 C198.2738,39.2483 207.0248,42.3481 215.7728,45.4479 C216.5798,45.7303 216.0858,46.9709 215.2788,46.6784 C206.5308,43.5786 197.7828,40.4788 189.0348,37.379 C188.2278,37.0966 188.7218,35.8661 189.5188,36.1485 Z" id="Path" fill="#D3F0F4" fill-rule="nonzero"></path>
                        <path d="M187.7338,41.4639 C192.3128,43.0239 196.8918,44.5839 201.4708,46.1438 C202.2778,46.4162 201.7838,47.6467 200.9768,47.3743 C196.3978,45.8144 191.8218,44.2544 187.2488,42.6944 C186.4428,42.4221 186.9268,41.1915 187.7338,41.4639 Z" id="Path" fill="#D3F0F4" fill-rule="nonzero"></path>
                        <path d="M205.0718,47.6967 C208.2858,48.8936 211.5028,50.0871 214.7238,51.2773 C215.5208,51.5698 215.0368,52.8003 214.2398,52.5078 C211.0188,51.3176 207.7978,50.1274 204.5768,48.9373 C203.7808,48.6347 204.2648,47.4042 205.0718,47.6967 Z" id="Path" fill="#D3F0F4" fill-rule="nonzero"></path>
                        <path d="M185.9678,46.3051 C194.8038,49.6033 203.7298,52.6695 212.7168,55.5037 C213.5338,55.7659 213.0398,56.9964 212.2328,56.7342 C203.2358,53.9 194.3198,50.8338 185.4738,47.5356 C184.6768,47.2431 185.1718,46.0126 185.9678,46.3051 Z" id="Path" fill="#D3F0F4" fill-rule="nonzero"></path>
                        <path d="M29.47162,113.4284 C44.621,107.2054 57.0068,101.9404 57.5716,101.0124 C57.622,100.9314 57.501,101.0224 57.8843,100.8204 C68.4142,95.2534 90.5028,66.3361 92.2377,64.2786 C92.2578,64.2886 91.3501,101.1634 91.3501,101.1834 C92.3183,103.1504 93.5085,105.5414 95.8081,110.1804 C93.4581,111.6634 89.2925,116.8274 88.4049,117.8464 C88.3948,117.8664 81.3245,122.0624 60.9807,134.2364 L28.75551,114.5984 L29.47162,113.4284 Z" id="Path" fill="#FDBAA0" fill-rule="nonzero"></path>
                        <path d="M87.2652,72.3675 C87.6989,72.5894 97.4926,74.415 96.4638,75.6758 C92.4495,80.618 91.34,88.2334 93.0143,90.9364 C96.2217,96.1104 102.3944,94.0024 103.0601,93.7304 L86.9929,108.7784 C82.6256,109.4644 58.5702,110.4224 58.5903873,108.9504 C58.7114,102.9384 86.1759,71.7724 87.2652,72.3675 Z" id="Path" fill="#FDBAA0" fill-rule="nonzero"></path>
                        <path d="M52.5488,104.5524 C52.5488,104.5524 63.7847,97.7644 68.9186,89.1714 C76.0596,77.2292 82.6256,62.6346 84.2495,60.9906 C87.0535,58.1564 96.1915,52.5787 98.6828,52.3165 C101.164,52.0643 109.243,50.7027 110.8769,51.3482 C112.5109,51.9836 107.6292,57.642 101.517,60.8998 C95.4149,64.1475 88.8488,69.7857 88.8488,69.7857 L79.0652,100.2254 L52.5488,104.5524 Z" id="Path" fill="#FDBAA0" fill-rule="nonzero"></path>
                        <path d="M77.6834,80.5778 C77.6834,80.5778 88.5764,59.7701 94.2449,57.2385 C99.9133,54.7068 106.4693,52.9115 110.2818,55.0397 C114.1045,57.1779 121.1345,63.623 120.963,64.8837 C120.7815,66.1344 114.6794,66.2655 110.5844,64.6417 C106.4995,63.0178 95.4955,67.839 95.4955,67.839 L83.4023,81.2031 L77.6834,80.5778 Z" id="Path" fill="#FDBAA0" fill-rule="nonzero"></path>
                        <path d="M78.7626,101.1634 C78.7626,101.1634 89.3833,67.8189 92.2377,64.2787 C95.0921,60.7384 107.9116,61.6966 111.9057,62.443 C115.8897,63.1793 123.7267,72.6804 123.7267,75.4138 C123.7166,78.7725 116.8378,76.4426 112.4907,73.2957 C108.5067,70.401 102.7172,71.9946 100.7403,71.9845 C100.1553,71.9845 99.0257,72.8418 97.8053,74.1227 C96.2318,75.787 94.5172,78.1673 93.7507,80.2551 C91.1383,87.3454 99.1266,94.3854 99.1266,94.3854 L78.7626,101.1634 Z" id="Path" fill="#FDBAA0" fill-rule="nonzero"></path>
                        <path d="M105.9145,56.3915 C104.0318,56.5529 102.149,56.7345 100.2663,56.9362 C98.4407,57.1379 96.5344,57.259 94.7895,57.8742 C91.6527,58.9635 89.5044,61.6868 87.5275,64.2083 C87.2249,64.5916 86.6399,64.0974 86.9425,63.704 C88.9597,61.1421 91.1585,58.4189 94.3054,57.2287 C96.02,56.5832 97.8859,56.4319 99.6914,56.2302 C101.7355,56.0016 103.7863,55.8032 105.8439,55.6351 C106.3381,55.5947 106.3986,56.3512 105.9145,56.3915 Z" id="Path" fill="#EF9F8A" fill-rule="nonzero"></path>
                        <polygon id="Path" fill="#FFFFFF" fill-rule="nonzero" points="182.7908 157.5554 90.6945 137.6554 116.7168 17.2168 195.0958 34.1514 206.4028 48.3023"></polygon>
                        <path d="M153.0068,49.5027 C152.0988,53.6884 149.7788,57.1984 146.6428,59.6292 C144.9478,60.9505 143.0318,61.949 140.9638,62.5844 C138.2008,63.4216 135.1948,63.593 132.1688,62.9374 C129.3248,62.3222 126.7928,61.0513 124.705,59.3165 C122.6273,57.6019 120.9732,55.4233 119.8738,52.9723 C118.3911,49.6842 117.9171,45.9019 118.7341,42.0995 C120.7815,32.6387 130.1108,26.6273 139.5718,28.6647 C149.0328,30.7122 155.0538,40.0419 153.0068,49.5027 Z" id="Path" fill="#E9F4F6" fill-rule="nonzero"></path>
                        <path d="M134.1758,34.1311 C132.8038,34.0302 131.2708,34.4639 130.5448,35.7751 C129.9298,36.8947 130.3538,38.1655 130.3028,39.3658 C130.2728,39.9508 130.1108,40.4752 129.7888,40.9594 C129.4358,41.4939 129.0318,41.9781 129.0618,42.6538 C129.1028,43.2691 129.2738,43.8339 129.0418,44.4391 C128.9308,44.7316 128.7498,45.0039 128.5988,45.2762 C128.4168,45.5889 128.2758,45.9117 128.1948,46.2647 C128.0238,46.9505 128.0338,47.6667 128.1038,48.3626 C128.1448,48.8871 128.2658,49.5023 128.7298,49.815 C128.8298,49.8755 128.7498,50.0369 128.6488,49.9764 C128.1448,49.6435 127.9928,49.0283 127.9328,48.4433 C127.8418,47.6767 127.8418,46.8497 128.0538,46.0932 C128.1448,45.7604 128.2958,45.4376 128.4668,45.135 C128.6488,44.8325 128.8408,44.5399 128.9408,44.197 C129.1328,43.5414 128.7898,42.8858 128.9108,42.2201 C129.0318,41.5847 129.5258,41.1208 129.8188,40.5761 C130.1318,39.9911 130.1518,39.3254 130.1108,38.6799 C130.0708,38.0445 129.9798,37.4191 130.0508,36.7938 C130.1218,36.1785 130.3638,35.6238 130.7568,35.1598 C131.6138,34.1714 132.9358,33.8587 134.1658,33.9495 C134.2768,33.9495 134.2868,34.1411 134.1758,34.1311 Z" id="Path" fill="#384955" fill-rule="nonzero"></path>
                        <path d="M135.5578,53.638 C135.4968,53.7893 135.4168,53.9507 135.2648,54.0112 C135.1948,54.0314 135.1038,54.0313 135.0228,54.0213 C133.3588,53.8195 131.6848,53.3051 130.4238,52.1957 C129.1528,51.0862 128.3768,49.3009 128.7398,47.6266 C129.0728,46.0936 130.2728,44.8832 130.7058,43.3804 C131.1098,41.9683 130.8168,40.4655 130.7168,39.003 C130.6158,37.5405 130.7968,35.8965 131.8758,34.9181 C132.5928,34.2726 133.5708,34.0406 134.5188,33.9297 L139.0278,38.0549 C138.5428,39.6485 138.1498,41.2623 137.8468,42.8862 C137.1718,46.497 136.9198,50.2289 135.5578,53.638 Z" id="Path" fill="#384955" fill-rule="nonzero"></path>
                        <path d="M146.6428,59.6289 C144.9478,60.9502 143.0318,61.9487 140.9638,62.5841 C138.4118,62.4631 135.2548,62.0496 131.8968,61.3234 C129.2338,60.7485 126.7828,60.0525 124.705,59.3162 C122.6273,57.6016 120.9732,55.423 119.8738,52.972 C121.064,51.9332 122.6676,51.1465 124.5437,50.6522 C125.8948,50.3093 127.3778,50.1076 128.9518,50.0874 C129.8688,50.0773 130.8068,50.1177 131.7658,50.2286 C132.5718,50.316 133.3858,50.4472 134.2058,50.622 C134.7308,50.7363 135.2448,50.8674 135.7498,51.0153 C135.9508,51.0691 136.1528,51.1297 136.3548,51.1969 C136.4888,51.2372 136.6238,51.2809 136.7578,51.328 C137.0198,51.4154 137.2758,51.5062 137.5248,51.6003 C137.5848,51.6205 137.6418,51.6407 137.6958,51.6609 C139.4208,52.3165 140.9638,53.1536 142.2748,54.1017 C142.4968,54.2631 142.7118,54.4245 142.9208,54.5858 C144.7968,56.0887 146.1078,57.8336 146.6428,59.6289 Z" id="Path" fill="#FCBFAF" fill-rule="nonzero"></path>
                        <path d="M146.6428,59.629 C144.9478,60.9503 143.0318,61.9488 140.9638,62.5842 C138.2008,63.4214 135.1948,63.5928 132.1688,62.9373 C129.3248,62.322 126.7928,61.0511 124.705,59.3163 C122.6273,57.6017 120.9732,55.4231 119.8738,52.9721 C121.064,51.9333 122.6676,51.1466 124.5437,50.6523 C124.5437,50.6523 130.9488,60.5973 142.1038,54.2027 C142.1578,54.169 142.2148,54.1354 142.2748,54.1018 C142.4968,54.2632 142.7118,54.4245 142.9208,54.5859 C144.7968,56.0888 146.1078,57.8337 146.6428,59.629 Z" id="Path" fill="#FF8D67" fill-rule="nonzero"></path>
                        <path d="M132.8748,52.8709 C131.4428,52.3767 131.5838,51.2269 131.8758,49.5727 L133.0358,42.9764 C133.3688,41.1205 135.0328,39.8396 136.7678,40.122 C138.4928,40.3943 138.6038,40.7675 138.2808,42.6234 L137.0508,50.5107 C136.7178,52.3565 134.4478,53.5467 132.8748,52.8709 Z" id="Path" fill="#FCBFAF" fill-rule="nonzero"></path>
                        <path d="M139.3298,45.6696 C135.2348,47.1119 132.1288,47.5053 130.4638,45.3368 C127.7508,41.7965 134.6908,34.7362 134.6908,34.7362 C142.6278,30.7119 142.8498,44.429 139.3298,45.6696 Z" id="Path" fill="#FCBFAF" fill-rule="nonzero"></path>
                        <path d="M135.3158,47.1823 C133.9738,47.3639 132.7438,47.2328 131.5838,46.557 C131.3318,46.4158 131.5738,46.0022 131.8158,46.1435 C132.9148,46.7789 134.0648,46.8898 135.3358,46.7083 C135.6178,46.6679 135.6078,47.142 135.3158,47.1823 Z" id="Path" fill="#F3A99C" fill-rule="nonzero"></path>
                        <path d="M141.4678,47.2532 C140.9338,47.9592 140.1768,48.6754 139.3298,48.514 C138.8358,48.4232 138.4318,48.0097 138.2708,47.5255 C138.1198,47.0414 138.1898,46.4867 138.4218,46.0328 C138.5738,45.7403 138.7858,45.468 138.8658,45.1553 C138.9368,44.8426 138.8758,44.5299 138.8758,44.2173 C138.8858,43.5818 138.7858,42.9969 138.9068,42.3715 C139.0378,41.6655 139.3398,40.8989 139.0478,40.2534 C138.6038,39.2852 137.7158,38.4984 137.6258,37.4394 C137.5748,36.925 137.7258,36.4207 137.7868,35.9063 C137.8578,35.3919 137.4538,34.8372 136.8488,34.6556 L139.7338,33.8992 C141.2258,34.6758 142.7088,35.7348 143.2938,37.3385 C143.6468,38.2967 143.6468,39.3558 143.6268,40.3845 C143.6168,41.3932 143.6068,42.4018 143.3848,43.3902 C143.0718,44.8023 142.3458,46.1034 141.4678,47.2532 Z" id="Path" fill="#384955" fill-rule="nonzero"></path>
                        <path d="M145.6638,55.5139 C144.9078,55.6652 144.1608,55.3223 143.5058,54.939 C142.8498,54.5456 142.1838,54.1018 141.4278,54.0413 C141.0248,54.0111 140.6208,54.0918 140.2178,54.1422 C139.1278,54.2733 137.9678,54.1724 137.0508,53.5774 C136.1228,52.9823 135.5178,51.8022 135.8098,50.7129 C136.0218,49.906 136.6878,49.2504 136.7978,48.4133 C136.8788,47.7778 136.6168,47.1021 136.8088,46.4868 C136.9498,46.043 137.3028,45.7001 137.5848,45.3168 C138.0898,44.631 138.3218,43.7333 138.2308,42.886 L140.0558,40.4149 C139.9958,36.7032 136.5868,32.5175 134.0548,35.4324 C133.9138,35.5938 133.1778,31.7005 136.4148,30.8835 C139.6628,30.0666 142.6888,31.6501 145.1498,35.2508 C147.0958,38.0951 148.1048,40.0418 148.1658,42.1699 C148.1958,43.5013 147.9338,44.7923 147.6208,46.0834 C147.3278,47.2533 147.1668,48.4536 147.2478,49.6539 C147.3178,50.7734 147.6108,51.8829 147.4998,52.9924 C147.3888,54.1119 146.7328,55.3021 145.6638,55.5139 Z" id="Path" fill="#384955" fill-rule="nonzero"></path>
                        <path d="M137.6048,42.5735 C137.6048,42.5735 139.1178,41.2522 139.7238,41.9179 C140.3188,42.5735 139.6028,44.268 138.7858,44.3285 C137.9688,44.3991 137.5348,43.0677 137.5648,42.8156 L137.6048,42.5735 Z" id="Path" fill="#FCBFAF" fill-rule="nonzero"></path>
                        <path d="M138.1398,44.1268 C138.0388,43.9352 138.0588,44.0965 138.1698,44.0764 C138.2108,44.0663 138.3008,44.0965 138.3518,44.0965 C138.5528,44.1066 138.7648,44.0461 138.9568,43.9452 C139.2698,43.7637 139.4808,43.4611 139.6528,43.1383 C139.7638,42.9467 139.8948,42.7551 139.8548,42.5231 C139.7938,42.049 139.3498,41.9784 139.0278,42.16 C138.7648,42.3012 138.6138,41.8675 138.8658,41.7263 C139.4008,41.4237 140.0458,41.6355 140.2578,42.2508 C140.4498,42.8559 140.0058,43.5721 139.6228,43.9856 C139.2898,44.3386 138.8658,44.5504 138.4018,44.5706 C138.1798,44.5807 137.8468,44.5605 137.7258,44.3083 C137.5948,44.0461 138.0088,43.8646 138.1398,44.1268 Z" id="Path" fill="#FDBAA0" fill-rule="nonzero"></path>
                        <path d="M136.4658,34.4236 C137.0808,33.8184 138.0688,33.6772 138.7748,34.1614 C139.1078,34.3832 139.3698,34.7262 139.5118,35.1095 C139.6628,35.5532 139.6228,35.997 139.5118,36.4408 C139.4108,36.8745 139.2388,37.2981 139.2488,37.752 C139.2488,38.2261 139.5218,38.5791 139.8548,38.8817 C140.1668,39.1641 140.4998,39.4061 140.7718,39.7188 C141.0248,40.0113 141.2258,40.3442 141.3778,40.6972 C141.6998,41.4637 141.7508,42.3412 141.4778,43.1481 C141.3468,43.5314 141.1458,43.9046 140.8828,44.2172 C140.6008,44.5501 140.2478,44.7619 139.9048,45.0241 C139.5018,45.3469 139.3398,45.7604 139.4108,46.2748 C139.4808,46.7589 139.7128,47.1927 139.8648,47.6566 C139.9958,48.0802 140.0358,48.5139 139.8948,48.9476 C139.7438,49.3713 139.4608,49.7344 139.1488,50.0571 C138.5128,50.7026 137.6358,51.2775 137.5148,52.2559 C137.3938,53.2645 138.3518,53.6881 139.1178,53.9504 C139.2288,53.9907 139.1888,54.1622 139.0778,54.1319 C138.3518,53.8798 137.4638,53.5267 137.3428,52.6392 C137.1918,51.6104 138.0388,50.8539 138.7048,50.2387 C139.0478,49.9159 139.3908,49.573 139.6128,49.1393 C139.8548,48.6652 139.8448,48.1811 139.6828,47.6869 C139.4308,46.9304 138.8958,46.0025 139.4508,45.2359 C139.6828,44.9031 140.0458,44.7215 140.3588,44.4694 C140.7018,44.1971 140.9838,43.834 141.1758,43.4305 C141.5588,42.6236 141.5688,41.6856 141.2468,40.8586 C141.0848,40.4551 140.8628,40.092 140.5808,39.7793 C140.3088,39.4767 139.9858,39.2549 139.6928,38.9825 C139.4208,38.7304 139.1788,38.4177 139.0978,38.0344 C139.0168,37.631 139.1178,37.2074 139.2288,36.814 C139.3498,36.4005 139.4808,35.9668 139.4208,35.523 C139.3698,35.1195 139.1688,34.7363 138.8758,34.4639 C138.2308,33.8789 137.2218,33.9395 136.5968,34.5446 C136.5158,34.6253 136.3848,34.5043 136.4658,34.4236 Z" id="Path" fill="#4D6371" fill-rule="nonzero"></path>
                        <path d="M136.9698,33.9999 C137.1448,33.852 137.3298,33.7242 137.5248,33.6166 C139.0578,32.7896 141.2258,33.1123 142.2348,34.6051 C142.4868,34.9883 142.6588,35.4422 142.6278,35.9163 C142.5978,36.4811 142.2248,36.935 142.0638,37.4695 C141.7208,38.5992 142.2148,39.7893 142.8398,40.6971 C143.9498,42.3109 145.9568,43.9549 145.3718,46.194 C145.2508,46.6479 145.0288,47.0715 144.6858,47.3842 C144.3328,47.6969 143.8888,47.8482 143.4648,48.0297 C142.9708,48.2516 142.5268,48.5744 142.3858,49.1493 C142.2648,49.6536 142.4368,50.1377 142.7388,50.5311 C143.0218,50.9143 143.3848,51.2169 143.6868,51.5699 C144.0098,51.9431 144.2518,52.3668 144.3828,52.8509 C144.5038,53.335 144.5648,53.92 144.2718,54.3638 C144.0498,54.7168 143.6168,54.8883 143.2438,54.7269 C143.1328,54.6765 143.2128,54.5151 143.3238,54.5554 C143.5558,54.6664 143.8288,54.5756 144.0098,54.4041 C144.4238,54.0007 144.3228,53.2846 144.1818,52.7904 C144.0298,52.3062 143.7478,51.9028 143.4148,51.5296 C142.8598,50.9446 142.1338,50.3495 142.1638,49.4519 C142.1848,48.998 142.3858,48.5542 142.7288,48.2617 C143.0618,47.9692 143.4858,47.828 143.8788,47.6565 C144.3228,47.4649 144.7058,47.1926 144.9578,46.7589 C145.1898,46.3453 145.3008,45.8511 145.2908,45.367 C145.2708,44.3281 144.7058,43.4002 144.1008,42.6034 C143.4648,41.7662 142.7188,40.9997 142.2348,40.0415 C141.8008,39.1741 141.5998,38.115 141.9828,37.1669 C142.1948,36.6727 142.4968,36.2289 142.4468,35.654 C142.3958,35.1699 142.1338,34.716 141.8108,34.363 C140.5908,33.072 138.4218,33.0316 137.0608,34.1512 C136.9698,34.2218 136.8788,34.0705 136.9698,33.9999 Z" id="Path" fill="#4D6371" fill-rule="nonzero"></path>
                        <path d="M144.0098,49.0185 C143.6668,49.0285 143.4448,49.3614 143.4448,49.6942 C143.4548,50.0271 143.6468,50.3196 143.8588,50.5515 C144.0908,50.7936 144.3628,50.9853 144.6048,51.2172 C144.8268,51.419 145.0358,51.6408 145.2308,51.8829 C145.9968,52.8108 146.4708,54.0716 146.1178,55.292 C146.0878,55.403 145.9058,55.3626 145.9468,55.2517 C146.1178,54.6364 146.0878,53.9808 145.8858,53.3858 C145.7048,52.8411 145.4018,52.3469 145.0388,51.9233 C144.6858,51.5097 144.2718,51.1769 143.8788,50.8138 C143.5458,50.5011 143.2338,50.0876 143.2738,49.5934 C143.3038,49.2101 143.6068,48.847 143.9998,48.8369 C144.1108,48.8369 144.1208,49.0185 144.0098,49.0185 Z" id="Path" fill="#4D6371" fill-rule="nonzero"></path>
                        <path d="M140.3588,46.2648 C140.3858,46.5405 140.4558,46.8028 140.5708,47.0516 C140.6208,47.1625 140.4698,47.2634 140.4188,47.1524 C140.2918,46.8767 140.2108,46.5842 140.1768,46.2749 C140.1668,46.1539 140.3488,46.1438 140.3588,46.2648 Z" id="Path" fill="#4D6371" fill-rule="nonzero"></path>
                        <path d="M144.5038,41.0401 C144.6458,41.2552 144.7828,41.4704 144.9178,41.6856 C144.9778,41.7864 144.8268,41.8873 144.7668,41.7864 C144.6318,41.5713 144.4938,41.3561 144.3528,41.1409 C144.2928,41.0401 144.4438,40.9392 144.5038,41.0401 Z" id="Path" fill="#4D6371" fill-rule="nonzero"></path>
                        <path d="M141.6098,125.0784 C132.4008,123.0814 126.5208,113.9634 128.5178,104.7544 C130.5048,95.5364 139.6228,89.6554 148.8408,91.6534 C158.0498,93.6394 163.9298,102.7574 161.9328,111.9764 C159.9458,121.1854 150.8278,127.0654 141.6098,125.0784 Z M148.2758,94.2144 C140.4798,92.5304 132.7638,97.5024 131.0798,105.3094 C129.3948,113.1064 134.3678,120.8224 142.1738,122.5064 C149.9708,124.1904 157.6868,119.2184 159.3708,111.4214 C161.0558,103.6154 156.0828,95.9094 148.2758,94.2144 Z" id="Shape" fill="#4E94DD" fill-rule="evenodd"></path>
                        <path d="M136.4548,100.2864 C137.3028,99.9634 138.4528,100.1044 139.2388,100.5184 C140.1068,100.9714 140.6308,101.7084 140.9938,102.5854 C141.8478,104.6504 142.7058,106.7114 143.5658,108.7684 C143.7948,109.3264 144.0268,109.8814 144.2618,110.4324 C144.3898,110.7554 144.5208,111.0744 144.6558,111.3904 C144.6658,111.4114 144.8668,111.8044 144.8468,111.8654 C144.3698,110.5534 143.2058,110.0154 141.3568,110.2514 C140.8328,110.5264 140.7248,110.5574 141.0348,110.3424 C140.2078,110.8964 140.4598,110.8464 140.6818,110.6444 C140.8158,110.5234 140.9508,110.4024 141.0848,110.2814 C147.7118,104.3714 153.7828,97.8454 160.4908,92.0354 C161.2368,91.3904 161.9528,90.9764 162.9418,90.8754 C163.9098,90.7744 164.8478,91.2084 165.5738,91.8134 C166.2498,92.3784 166.6938,93.4074 166.7338,94.2644 C166.7848,95.0914 166.4518,96.3324 165.7958,96.8974 C164.0708,98.4004 162.4168,99.9834 160.7528,101.5564 C156.8698,105.2384 153.0268,108.9704 149.1238,112.6414 C148.3968,113.3174 147.6608,114.0034 146.9248,114.6684 C145.5828,115.8894 144.2518,117.2514 142.3158,117.3114 C140.8728,117.3514 139.4308,116.6154 138.6538,115.3954 C138.3008,114.8504 138.0588,114.2254 137.8068,113.6304 C137.4168,112.6754 137.0238,111.7234 136.6268,110.7754 C135.7998,108.7924 134.9758,106.8084 134.1558,104.8244 C133.3788,102.9694 134.7408,100.9314 136.4548,100.2864 Z" id="Path" fill="#F36D45" fill-rule="nonzero"></path>
                        <path d="M118.2903,65.5798 C126.7828,67.3415 135.2718,69.0999 143.7578,70.8549 C144.5848,71.0364 144.3028,72.3174 143.4758,72.1459 C134.9898,70.3842 126.5038,68.6259 118.0179,66.8709 C117.1909,66.6994 117.4632,65.4084 118.2903,65.5798 Z" id="Path" fill="#ABD7F2" fill-rule="nonzero"></path>
                        <path d="M117.0093,71.3284 C119.9074,71.9335 122.8088,72.5353 125.7138,73.1338 C133.4668,74.7409 141.2228,76.3479 148.9828,77.955 C155.0808,79.2191 161.1798,80.4832 167.2788,81.7474 C168.1058,81.9188 167.8228,83.2098 166.9958,83.0384 C164.0978,82.4332 161.1968,81.8314 158.2918,81.233 C150.5388,79.6259 142.7828,78.0188 135.0228,76.4118 C128.9248,75.1477 122.8256,73.8835 116.7269,72.6194 C115.8998,72.4479 116.1822,71.1569 117.0093,71.3284 Z" id="Path" fill="#ABD7F2" fill-rule="nonzero"></path>
                        <path d="M148.1548,72.0544 C150.6428,72.5722 153.1308,73.0866 155.6188,73.5976 C161.6638,74.855 167.7118,76.1091 173.7638,77.3598 C178.7868,78.402 183.8128,79.4442 188.8428,80.4865 C189.6798,80.6579 189.3978,81.9489 188.5708,81.7775 C186.0828,81.2597 183.5948,80.742 181.1068,80.2242 C175.0548,78.9735 169.0068,77.7229 162.9618,76.4722 C157.9318,75.4299 152.9058,74.3877 147.8828,73.3455 C147.0458,73.174 147.3278,71.883 148.1548,72.0544 Z" id="Path" fill="#ABD7F2" fill-rule="nonzero"></path>
                        <path d="M172.1708,82.8671 C177.4888,83.9564 182.8048,85.049 188.1168,86.1451 C188.9438,86.3165 188.6708,87.6074 187.8438,87.4364 C182.5258,86.3401 177.2098,85.244 171.8978,84.148 C171.0608,83.9765 171.3428,82.6956 172.1708,82.8671 Z" id="Path" fill="#ABD7F2" fill-rule="nonzero"></path>
                        <path d="M115.2644,76.634 C123.293,78.1267 131.2708,79.8716 139.1788,81.8485 C140.0058,82.0502 139.7228,83.3412 138.9058,83.1395 C130.9888,81.1525 123.0105,79.4177 114.9921,77.925 C114.1549,77.7636 114.4373,76.4827 115.2644,76.634 Z" id="Path" fill="#ABD7F2" fill-rule="nonzero"></path>
                        <path d="M143.7278,82.777 C146.8748,83.4561 150.0248,84.1386 153.1778,84.8244 C164.3398,87.2384 175.4988,89.6554 186.6538,92.0764 C187.4908,92.2474 187.2088,93.5384 186.3818,93.3574 C183.2278,92.6784 180.0748,91.9954 176.9208,91.3094 C165.7658,88.8954 154.6068,86.4786 143.4448,84.0579 C142.6178,83.8864 142.8908,82.5954 143.7278,82.777 Z" id="Path" fill="#ABD7F2" fill-rule="nonzero"></path>
                        <path d="M165.7048,44.1466 C175.5158,46.1504 185.3258,48.1508 195.1368,50.1478 C195.9638,50.3193 195.6808,51.6002 194.8538,51.4288 C185.0438,49.4317 175.2328,47.4313 165.4228,45.4275 C164.5958,45.2661 164.8778,43.9852 165.7048,44.1466 Z" id="Path" fill="#ABD7F2" fill-rule="nonzero"></path>
                        <path d="M164.7568,48.4235 C174.5678,50.4205 184.3778,52.4176 194.1888,54.4146 C195.0158,54.5861 194.7428,55.867 193.9158,55.6956 C184.1058,53.6985 174.2948,51.7015 164.4848,49.7044 C163.6578,49.5329 163.9398,48.252 164.7568,48.4235 Z" id="Path" fill="#ABD7F2" fill-rule="nonzero"></path>
                        <path d="M163.9908,53.7789 C173.5728,55.7558 183.1538,57.7327 192.7358,59.7096 C193.5628,59.881 193.2808,61.1519 192.4638,60.9905 C182.8818,59.0136 173.2998,57.0367 163.7178,55.0599 C162.8908,54.8884 163.1738,53.6075 163.9908,53.7789 Z" id="Path" fill="#ABD7F2" fill-rule="nonzero"></path>
                        <path d="M162.9008,59.5786 C167.9038,60.5536 172.9038,61.5253 177.8998,62.4935 C178.7368,62.6549 178.4538,63.9258 177.6268,63.7745 C172.6248,62.7995 167.6218,61.8278 162.6188,60.8596 C161.7918,60.6982 162.0738,59.4273 162.9008,59.5786 Z" id="Path" fill="#ABD7F2" fill-rule="nonzero"></path>
                        <path d="M181.8838,63.6029 C185.4198,64.3829 188.9538,65.1629 192.4838,65.9429 C193.3108,66.1244 193.0288,67.3953 192.2118,67.2137 C188.6748,66.4337 185.1408,65.6537 181.6108,64.8737 C180.7838,64.6922 181.0668,63.4213 181.8838,63.6029 Z" id="Path" fill="#ABD7F2" fill-rule="nonzero"></path>
                        <path d="M161.7518,64.894 C171.4438,67.0625 181.1978,68.9789 191.0008,70.6431 C191.8388,70.7843 191.5558,72.0653 190.7288,71.9241 C180.9248,70.2598 171.1718,68.3435 161.4688,66.175 C160.6518,65.9934 160.9248,64.7125 161.7518,64.894 Z" id="Path" fill="#ABD7F2" fill-rule="nonzero"></path>
                        <polygon id="Path" fill="#6DA2C2" fill-rule="nonzero" points="206.4028 48.3024 192.6758 45.3371 195.0958 34.1516"></polygon>
                        <path d="M99.1265,94.3864 L90.1095,97.3814 L80.1545,96.8674 C82.0809,90.9564 85.6514,80.1748 88.5361,72.5698 C90.8055,73.9012 93.6699,75.6259 95.6266,76.8161 C94.8399,77.9457 94.1641,79.1359 93.7506,80.2554 C91.1383,87.3464 99.1265,94.3864 99.1265,94.3864 Z" id="Path" fill="#FDBAA0" fill-rule="nonzero"></path>
                        <path d="M85.7725,93.3364 C85.7725,93.3364 96.6151,93.9214 98.3701,94.1834 C102.808,94.8394 108.0124,88.9794 115.113,85.7922 C122.597,82.4537 126.1168,85.8326 126.157881,87.4064 C126.1878,88.9694 117.8262,92.8724 112.1679,100.9514 C109.132,105.2684 96.1108,118.4414 84.784,120.4884 C80.4571,121.2654 85.7725,93.3364 85.7725,93.3364 Z" id="Path" fill="#FDBAA0" fill-rule="nonzero"></path>
                        <path d="M124.1805,88.5754 C124.2007,87.9504 123.3635,88.3544 123.1416,88.4954 C122.9702,88.6064 122.8189,88.7374 122.6676,88.8584 C122.3146,89.1404 121.9615,89.4334 121.6186,89.7254 C121.0034,90.2404 119.5711,91.0674 120.4083,91.9744 C120.6302,92.2274 120.2066,92.5294 119.9847,92.2874 C118.7542,90.9464 120.8319,89.6954 121.7094,88.9594 C122.2742,88.4954 122.9702,87.7184 123.7569,87.7084 C124.3217,87.6984 124.7151,88.1224 124.6949,88.6664 C124.6848,88.9994 124.1603,88.9084 124.1805,88.5754 Z" id="Path" fill="#E79780" fill-rule="nonzero"></path>
                        <path d="M92.1066,93.9114 C94.6685,94.2854 97.2606,94.3554 99.8326,94.1134 C100.3268,94.0634 100.3066,94.8294 99.8225,94.8804 C97.2404,95.1224 94.6584,95.0514 92.0965,94.6784 C91.6124,94.6074 91.6225,93.8414 92.1066,93.9114 Z" id="Path" fill="#EF9F8A" fill-rule="nonzero"></path>
                        <path d="M86.5794,120.4484 C84.1587,120.7714 81.7481,120.5694 79.4182,119.8634 C78.9643,119.7224 79.2165,119.0264 79.6804,119.1674 C82.4541,120.0044 83.8359,120.0644 86.4583,119.7224 C86.9223,119.6614 87.0534,120.3874 86.5794,120.4484 Z" id="Path" fill="#EF9F8A" fill-rule="nonzero"></path>
                        <path d="M41.4036,127.0854 L37.6818,105.4104 C37.6818,105.4104 53.9507,99.4594 55.8973,98.9254 C57.844,98.3904 57.8137,99.7114 57.8137,99.7114 C59.4275,106.6104 72.5294,128.5684 73.1446,129.8284 C73.7599,131.0994 59.1148,141.5794 59.1148,141.5794 L41.4036,127.0854 Z" id="Path" fill="#FFFFFF" fill-rule="nonzero"></path>
                        <path d="M37.4599,101.2444 C39.8906,100.8014 41.5851,101.5774 43.0577,103.4534 C43.4813,103.9884 43.8847,104.6134 44.2781,105.3294 C45.5187,107.5484 46.6786,110.6144 48.131,114.4174 C50.7433,121.2354 58.0961,129.7884 61.7876,135.4364 C62.5138,136.5364 63.0988,137.5344 63.4821,138.3714 C63.8049,139.0984 63.9763,139.7134 63.9666222,140.1974 C63.9259,142.4064 56.9564,148.0444 44.5101,157.3544 L0,146.7634 L9.1783,108.1644 C17.44897,105.0374 35.9369,101.5274 37.4599,101.2444 Z" id="Path" fill="#384955" fill-rule="nonzero"></path>
                        <path d="M67.7586,131.1304 C67.1433,130.8774 66.8509,130.1714 67.1131,129.5664 C67.3652,128.9514 68.0612,128.6594 68.6764,128.9114 C69.2917,129.1634 69.5842,129.8694 69.332,130.4844 C69.0799,131.0994 68.3739,131.3924 67.7586,131.1304 Z" id="Path" fill="#198DA5" fill-rule="nonzero"></path>
                    </g>
                </g>
            </g>
        </g>
    </g>
</svg>