<?xml version="1.0" encoding="UTF-8"?>
<svg width="245px" height="158px" viewBox="0 0 245 158" version="1.1" xmlns="http://www.w3.org/2000/svg" xmlns:xlink="http://www.w3.org/1999/xlink">
    <title>ill-003</title>
    <g id="Page-1" stroke="none" stroke-width="1" fill="none" fill-rule="evenodd">
        <g id="ill-003" fill-rule="nonzero">
            <path d="M18.6903126,157.527003 C18.6903126,157.527003 -10.2533874,117.744003 3.89574265,76.793803 C13.1133126,50.108603 47.7028126,35.479903 67.2224126,50.108603 C75.5362126,56.333203 102.208013,50.314803 116.452013,24.523103 C144.130013,-25.587697 240.721013,4.84793302 223.138013,81.791103 C214.626013,119.031003 249.035013,120.385003 231.503013,157.605003 L18.6903126,157.527003 Z" id="Path" fill="#EBF3FA"></path>
            <path d="M78.9696126,156.751003 L73.6768126,119.721003 L76.8878126,119.437003 L80.5800126,156.270003 C80.6291126,156.790003 80.2068126,157.242003 79.6471126,157.252003 L79.5882126,157.252003 C79.2740126,157.252003 79.0088126,157.046003 78.9696126,156.751003 Z" id="Path" fill="#8CB4F4"></path>
            <path d="M44.0706126,157.252003 L44.0019126,157.252003 C43.4520126,157.242003 43.0297126,156.790003 43.0788126,156.270003 L46.7612126,119.437003 L49.9820126,119.721003 L44.6893126,156.751003 C44.6500126,157.046003 44.3848126,157.252003 44.0706126,157.252003 Z" id="Path" fill="#8CB4F4"></path>
            <path d="M104.982013,156.751003 L99.6890126,119.721003 L102.910013,119.437003 L106.592013,156.270003 C106.651013,156.790003 106.219013,157.242003 105.669013,157.252003 L105.600013,157.252003 C105.296013,157.252003 105.031013,157.046003 104.982013,156.751003 Z" id="Path" fill="#8CB4F4"></path>
            <path d="M45.1704126,114.075003 L38.6207126,81.748503 C37.7860126,77.378803 41.4095126,73.372403 46.1229126,73.480403 L58.7411126,73.765203 C63.1010126,73.863403 66.8914126,76.779803 68.0992126,80.963003 L77.6734126,114.075003 L45.1704126,114.075003 Z" id="Path" fill="#8CB4F4"></path>
            <path d="M49.1277126,114.075003 L42.5878126,81.748503 C41.7433126,77.378803 45.3766126,73.372403 50.0802126,73.480403 L62.7082126,73.765203 C67.0583126,73.863403 70.8487126,76.779803 72.0565126,80.963003 L81.6307126,114.075003 L49.1277126,114.075003 Z" id="Path" fill="#8CB4F4"></path>
            <path d="M45.1703126,118.150003 L45.1703126,114.075003 L96.9395126,114.075003 C97.9509126,114.075003 98.7660126,114.900003 98.7660126,115.902003 L98.7660126,118.150003 C98.7660126,119.152003 97.9509126,119.977003 96.9395126,119.977003 L46.9968126,119.977003 C45.9952126,119.977003 45.1703126,119.152003 45.1703126,118.150003 Z" id="Path" fill="#8CB4F4"></path>
            <path d="M68.9634126,118.504003 L68.9634126,115.548003 C68.9634126,114.743003 69.6311126,114.075003 70.4363126,114.075003 L102.272013,114.075003 C103.087013,114.075003 103.745013,114.743003 103.745013,115.548003 L103.745013,118.504003 C103.745013,119.309003 103.087013,119.977003 102.272013,119.977003 L70.4363126,119.977003 C69.6311126,119.977003 68.9634126,119.309003 68.9634126,118.504003 Z" id="Path" fill="#8CB4F4"></path>
            <path d="M142.434013,40.584903 L124.326013,40.584903 C123.492013,40.584903 122.814013,39.907403 122.814013,39.072703 L122.814013,21.593803 C122.814013,20.759103 123.492013,20.081503 124.326013,20.081503 L142.434013,20.081503 C143.269013,20.081503 143.946013,20.759103 143.946013,21.593803 L143.946013,39.072703 C143.946013,39.907403 143.269013,40.584903 142.434013,40.584903 Z" id="Path" fill="#C0D8FB"></path>
            <path d="M141.648013,39.690903 L125.112013,39.690903 C124.346013,39.690903 123.727013,39.072303 123.727013,38.316103 L123.727013,22.349403 C123.727013,21.593303 124.346013,20.964803 125.112013,20.964803 L141.648013,20.964803 C142.414013,20.964803 143.033013,21.593303 143.033013,22.349403 L143.033013,38.316103 C143.033013,39.072303 142.414013,39.690903 141.648013,39.690903 Z" id="Path" fill="#DFEBFD"></path>
            <path d="M132.938013,22.840803 C132.938013,22.595303 133.135013,22.398903 133.380013,22.398903 C133.626013,22.398903 133.822013,22.595303 133.822013,22.840803 C133.822013,23.076503 133.626013,23.272903 133.380013,23.272903 C133.135013,23.272903 132.938013,23.076503 132.938013,22.840803 Z" id="Path" fill="#B7D3F3"></path>
            <path d="M136.473013,23.459403 C136.591013,23.243403 136.856013,23.174603 137.072013,23.292503 C137.279013,23.400503 137.357013,23.675403 137.239013,23.881703 C137.121013,24.097703 136.856013,24.166403 136.640013,24.048603 C136.434013,23.930703 136.356013,23.665603 136.473013,23.459403 Z" id="Path" fill="#B7D3F3"></path>
            <path d="M139.498013,25.865403 C139.704013,25.728003 139.979013,25.786903 140.107013,25.993103 C140.234013,26.199303 140.175013,26.464403 139.979013,26.601903 C139.773013,26.729603 139.498013,26.670703 139.370013,26.464403 C139.243013,26.268103 139.301013,25.993103 139.498013,25.865403 Z" id="Path" fill="#B7D3F3"></path>
            <path d="M141.000013,29.587403 C141.246013,29.587403 141.442013,29.783803 141.442013,30.019503 C141.442013,30.265003 141.246013,30.461403 141.000013,30.461403 C140.755013,30.461403 140.558013,30.265003 140.558013,30.019503 C140.558013,29.783803 140.755013,29.587403 141.000013,29.587403 Z" id="Path" fill="#B7D3F3"></path>
            <path d="M140.234013,33.897903 C140.401013,34.074703 140.401013,34.349603 140.234013,34.526403 C140.067013,34.693303 139.783013,34.693303 139.616013,34.526403 C139.449013,34.349603 139.449013,34.074703 139.616013,33.897903 C139.783013,33.731003 140.067013,33.731003 140.234013,33.897903 Z" id="Path" fill="#B7D3F3"></path>
            <path d="M137.485013,36.657203 C137.652013,36.833903 137.652013,37.108903 137.485013,37.275803 C137.318013,37.452603 137.033013,37.452603 136.866013,37.275803 C136.699013,37.108903 136.699013,36.833903 136.866013,36.657203 C137.033013,36.490203 137.318013,36.490203 137.485013,36.657203 Z" id="Path" fill="#B7D3F3"></path>
            <path d="M132.938013,38.081303 C132.938013,37.835803 133.135013,37.639403 133.380013,37.639403 C133.626013,37.639403 133.822013,37.835803 133.822013,38.081303 C133.822013,38.317003 133.626013,38.513403 133.380013,38.513403 C133.135013,38.513403 132.938013,38.317003 132.938013,38.081303 Z" id="Path" fill="#B7D3F3"></path>
            <path d="M130.100013,24.048603 C129.894013,24.166403 129.619013,24.097703 129.501013,23.881703 C129.384013,23.675403 129.462013,23.400503 129.678013,23.292503 C129.884013,23.174603 130.150013,23.243403 130.267013,23.459403 C130.385013,23.665603 130.316013,23.930703 130.100013,24.048603 Z" id="Path" fill="#B7D3F3"></path>
            <path d="M127.371013,26.464403 C127.243013,26.670703 126.978013,26.729603 126.772013,26.601903 C126.565013,26.464403 126.506013,26.199303 126.644013,25.993103 C126.772013,25.786903 127.037013,25.728003 127.243013,25.865403 C127.449013,25.993103 127.508013,26.268103 127.371013,26.464403 Z" id="Path" fill="#B7D3F3"></path>
            <path d="M126.182013,30.019503 C126.182013,30.265003 125.986013,30.461403 125.750013,30.461403 C125.505013,30.461403 125.308013,30.265003 125.308013,30.019503 C125.308013,29.783803 125.505013,29.587403 125.750013,29.587403 C125.986013,29.587403 126.182013,29.783803 126.182013,30.019503 Z" id="Path" fill="#B7D3F3"></path>
            <path d="M127.135013,33.897903 C127.302013,34.074703 127.302013,34.349603 127.135013,34.526403 C126.958013,34.693303 126.683013,34.693303 126.506013,34.526403 C126.339013,34.349603 126.339013,34.074703 126.506013,33.897903 C126.683013,33.731003 126.958013,33.731003 127.135013,33.897903 Z" id="Path" fill="#B7D3F3"></path>
            <path d="M129.875013,36.657203 C130.051013,36.833903 130.051013,37.108903 129.875013,37.275803 C129.708013,37.452603 129.433013,37.452603 129.256013,37.275803 C129.089013,37.108903 129.089013,36.833903 129.256013,36.657203 C129.433013,36.490203 129.708013,36.490203 129.875013,36.657203 Z" id="Path" fill="#B7D3F3"></path>
            <path d="M133.262013,30.019003 C133.262013,29.783303 133.459013,29.586903 133.704013,29.586903 C133.940013,29.586903 134.136013,29.783303 134.136013,30.019003 C134.136013,30.264503 133.940013,30.460903 133.704013,30.460903 C133.459013,30.460903 133.262013,30.264503 133.262013,30.019003 Z" id="Path" fill="#B7D3F3"></path>
            <polygon id="Path" fill="#B7D3F3" points="133.763013 30.018603 133.636013 30.018603 133.636013 24.549103 133.763013 24.549103"></polygon>
            <polygon id="Path" fill="#B7D3F3" points="133.753013 30.156403 133.537013 29.871703 136.434013 27.593503 136.650013 27.878303"></polygon>
            <path d="M88.6811126,107.309003 C85.9807126,112.012003 82.5831126,113.829003 82.5831126,113.829003 L68.4428126,113.829003 C68.4428126,113.829003 90.7432126,103.724003 88.6811126,107.309003 Z" id="Path" fill="#233862"></path>
            <path d="M106.553013,152.538003 C106.897013,151.655003 107.280013,150.496003 107.044013,149.455003 C106.622013,147.668003 105.414013,143.504003 105.414013,143.504003 L109.862013,144.506003 C109.862013,144.506003 111.099013,149.131003 112.435013,150.594003 C113.849013,152.126003 114.850013,153.776003 116.677013,154.601003 C116.880013,154.692003 117.083013,154.784003 117.286013,154.876003 C118.906013,155.592003 120.428013,156.221003 120.212013,156.614003 C119.966013,157.055003 118.641013,157.939003 115.361013,157.301003 C112.091013,156.673003 112.818013,156.191003 110.432013,156.044003 C108.036013,155.907003 105.974013,155.524003 106.121013,154.041003 C106.180013,153.511003 106.366013,153.020003 106.553013,152.538003 Z" id="Path" fill="#FFB27D"></path>
            <path d="M106.121013,154.041003 C106.180013,153.511003 106.366013,153.020003 106.553013,152.539003 C108.036013,152.980003 110.127013,154.296003 112.288013,154.905003 C114.949013,155.661003 117.256013,154.905003 117.256013,154.905003 L117.286013,154.876003 C118.906013,155.592003 120.428013,156.221003 120.212013,156.614003 C119.966013,157.056003 118.641013,157.939003 115.361013,157.301003 C112.091013,156.673003 112.818013,156.191003 110.432013,156.044003 C108.036013,155.907003 105.974013,155.524003 106.121013,154.041003 Z" id="Path" fill="#0F2549"></path>
            <path d="M111.698013,147.687003 C111.698013,147.687003 111.129013,148.100003 109.892013,148.168003 C108.733013,148.237003 106.248013,147.442003 106.248013,147.442003 C106.248013,147.442003 94.3078126,128.480003 93.6302126,123.825003 C92.9527126,119.161003 90.2424126,114.045003 88.1901126,113.829003 C86.9332126,113.701003 58.2992126,113.485003 58.2992126,113.485003 C58.2992126,113.485003 56.4531126,113.093003 56.4821652,109.076003 C56.5414126,100.455003 64.1418126,89.201403 64.1418126,89.201403 L73.0777126,96.949103 C81.1495126,97.813203 96.9885126,100.818003 99.3845126,102.497003 C104.785013,106.288003 111.698013,147.687003 111.698013,147.687003 Z" id="Path" fill="#233862"></path>
            <path d="M99.1391126,152.538003 C99.4926126,151.655003 99.8755126,150.496003 99.6300126,149.455003 C99.2176126,147.668003 98.0098126,143.504003 98.0098126,143.504003 L102.458013,144.506003 C102.458013,144.506003 103.695013,149.131003 105.031013,150.594003 C106.435013,152.126003 107.446013,153.776003 109.273013,154.601003 C109.476013,154.692003 109.679013,154.784003 109.882013,154.876003 C111.502013,155.592003 113.014013,156.221003 112.798013,156.614003 C112.562013,157.055003 111.237013,157.939003 107.957013,157.301003 C104.687013,156.673003 105.414013,156.191003 103.018013,156.044003 C100.632013,155.907003 98.5597126,155.524003 98.7168126,154.041003 C98.7659126,153.511003 98.9623126,153.020003 99.1391126,152.538003 Z" id="Path" fill="#FFB27D"></path>
            <path d="M98.7168126,154.041003 C98.7659126,153.511003 98.9623126,153.020003 99.1390126,152.539003 C100.632013,152.980003 102.723013,154.296003 104.884013,154.905003 C107.535013,155.661003 109.852013,154.905003 109.852013,154.905003 L109.882013,154.876003 C111.502013,155.592003 113.014013,156.221003 112.798013,156.614003 C112.562013,157.056003 111.237013,157.939003 107.957013,157.301003 C104.687013,156.673003 105.414013,156.191003 103.018013,156.044003 C100.632013,155.907003 98.5597126,155.524003 98.7168126,154.041003 Z" id="Path" fill="#233862"></path>
            <path d="M104.226013,147.687003 C104.226013,147.687003 103.656013,148.100003 102.419013,148.168003 C101.270013,148.237003 98.7757126,147.442003 98.7757126,147.442003 C98.7757126,147.442003 86.8350126,128.480003 86.1574126,123.825003 C85.4799126,119.161003 82.7697126,114.045003 80.7174126,113.829003 C79.4605126,113.701003 50.8264126,113.485003 50.8264126,113.485003 C50.8264126,113.485003 48.9803126,113.093003 49.0093652,109.076003 C49.0687126,100.455003 56.6691126,89.201403 56.6691126,89.201403 L72.7340126,95.574403 C73.1955126,97.440103 74.7667126,98.834503 76.6717126,99.060303 C83.5749126,99.904803 89.8300126,101.034003 91.9118126,102.497003 C97.3126126,106.288003 104.226013,147.687003 104.226013,147.687003 Z" id="Path" fill="#2B478B"></path>
            <path d="M70.9960126,68.855003 C64.8587126,72.233003 52.4172126,79.234403 52.3485126,79.185303 C52.3485126,79.185303 47.7823126,80.913503 45.1801126,79.185303 C40.8595126,76.317903 38.5421126,68.580103 46.4469126,61.932203 C50.3944126,58.613103 53.1930126,57.807903 53.6250126,52.505303 C53.8509126,49.628103 57.7787126,40.142403 64.3088126,41.026103 C64.8587126,41.094903 68.2170126,41.252003 70.4166126,42.410703 C76.0433126,45.366403 80.1970126,67.539203 70.9960126,68.855003 Z" id="Path" fill="#233862"></path>
            <path d="M69.0615126,65.585803 C69.0909126,65.605403 66.1549126,66.931103 64.0436126,66.233903 C62.0601126,65.585803 60.3024126,62.590803 60.3318126,62.581003 C61.1959126,62.453303 62.0699126,61.608803 62.3154126,56.561503 L62.6983126,56.649903 L69.1302126,58.280003 C69.1302126,58.280003 68.8749126,60.312603 68.7669126,62.237303 C68.6785126,63.857503 68.6982126,65.399203 69.0615126,65.585803 Z" id="Path" fill="#F79556"></path>
            <path d="M69.1302126,58.279503 C69.1302126,58.279503 69.1302126,58.701703 68.8847126,60.596903 C65.2515126,59.673903 63.6509126,58.466103 62.5216126,57.091303 L69.1302126,58.279503 Z" id="Path" fill="#ED975D"></path>
            <path d="M70.4952126,58.534903 C70.4952126,58.534903 62.0012126,59.919403 61.2156126,54.607003 C60.4399126,49.304403 58.8196126,45.906803 64.2106126,44.797203 C69.6016126,43.687603 70.9567126,45.563103 71.6539126,47.271703 C72.3413126,48.980403 72.6948126,58.034103 70.4952126,58.534903 Z" id="Path" fill="#F79556"></path>
            <path d="M70.5049126,44.581103 C70.5049126,44.581103 66.6458126,50.669303 63.1991126,52.112803 C59.7524126,53.556303 58.0634126,52.829603 58.0634126,52.829603 C58.0634126,52.829603 59.6248126,50.453303 60.0372126,47.252103 C60.1550126,46.319203 60.7737126,45.504203 61.6476126,45.160503 C64.1222126,44.168703 68.9043126,42.607403 70.5049126,44.581103 Z" id="Path" fill="#233862"></path>
            <path d="M70.9665126,44.355403 C73.2937126,46.466603 72.1743126,52.594003 72.1743126,52.594003 C72.2529126,51.307703 71.2120126,48.460003 70.3086126,47.419103 C69.3757126,46.329103 67.1172126,45.170403 67.1172126,45.170403 C67.1172126,45.170403 68.5018126,42.126303 70.9665126,44.355403 Z" id="Path" fill="#233862"></path>
            <path d="M75.8567126,78.556903 C75.6014126,95.829603 75.7879126,92.225803 73.9026126,93.865703 C73.4410126,94.258503 72.1645126,94.494103 70.4755126,94.602203 C65.1827126,94.955703 55.8639126,94.081703 55.5104126,93.099803 C54.2928126,89.712003 55.1569126,88.661303 54.1356126,83.476503 C54.0276126,82.926603 53.8902126,82.327603 53.7429126,81.679503 C52.8885126,78.115003 52.0637126,76.897303 55.0783126,71.182303 C57.8180126,65.997503 61.0290126,61.784903 61.2843126,61.932203 C68.5018126,66.213603 68.7473126,62.629403 68.7473126,62.629403 C68.7473126,62.629403 75.9843126,70.121803 75.8567126,78.556903 Z" id="Path" fill="#FFFFFF"></path>
            <path d="M68.7473126,62.629403 C68.7473126,62.629403 76.1316126,63.876503 77.0056126,67.077703 C77.8795126,70.269103 83.0152126,89.063903 83.0152126,89.063903 C83.0152126,89.063903 79.2346126,89.741403 77.4966126,88.003303 C75.7487126,86.255403 71.4280126,71.820603 71.4280126,71.820603 L68.7473126,62.629403 Z" id="Path" fill="#FFFFFF"></path>
            <path d="M70.4755126,94.602303 C65.1827126,94.955803 55.8639126,94.081803 55.5104126,93.099803 C54.2927126,89.712103 55.1569126,88.661403 54.1356126,83.476603 L56.6887126,76.278803 C56.6887126,76.278803 56.2665126,84.291603 58.6330126,86.402903 C60.9897126,88.504303 68.3054126,90.468203 69.4543126,92.235703 C70.0042126,93.080203 70.3773126,93.924703 70.4755126,94.602303 Z" id="Path" fill="#EBF3FF"></path>
            <path d="M64.4070126,91.234503 C64.4070126,91.234503 69.6310126,90.066003 70.4755126,90.537303 C71.3200126,90.998803 73.3821126,92.687803 73.6374126,93.277003 C73.9026126,93.866203 71.7619126,92.825303 71.0647126,92.638703 C70.6228126,92.520903 69.4346126,92.933303 68.8455126,93.129703 C66.3807126,93.954603 64.8685126,93.532303 64.8685126,93.532303 L64.4070126,91.234503 Z" id="Path" fill="#F79556"></path>
            <path d="M58.6625126,75.021703 C58.6625126,76.641903 51.3665126,86.638303 51.9066126,87.178403 C52.4466126,87.718503 64.1516126,89.603903 64.8685126,90.782203 C65.5853126,91.950803 65.0747126,94.366403 65.0747126,94.366403 C65.0747126,94.366403 49.5204126,96.624903 45.1408126,93.571003 C41.2522126,90.860803 48.0376126,70.524303 51.4549126,65.752003 C53.8901126,62.364203 61.2843126,61.932103 61.2843126,61.932103 C61.2843126,61.932103 58.6625126,73.401503 58.6625126,75.021703 Z" id="Path" fill="#FFFFFF"></path>
            <path d="M72.0368126,92.373203 L72.7733126,93.698803 C72.7733126,93.698803 72.5475126,93.738103 72.1841126,93.571203 C71.8306126,93.404303 70.7308126,91.990203 70.7308126,91.990203 L72.0368126,92.373203 Z" id="Path" fill="#FFB27D"></path>
            <path d="M70.4755126,90.536903 L73.6669126,92.078503 C73.6669126,92.078503 73.5294126,92.304403 73.1367126,92.284803 C72.7439126,92.265103 71.7521126,91.901803 71.7521126,91.901803 L70.4755126,90.536903 Z" id="Path" fill="#FFB27D"></path>
            <path d="M82.2100126,94.199803 L67.4216126,94.199803 C67.4216126,93.551703 67.9519126,93.021503 68.6000126,93.021503 L82.2100126,93.021503 L82.2100126,94.199803 Z" id="Path" fill="#ED7D2B"></path>
            <polygon id="Path" fill="#ED7D2B" points="82.1707126 78.095203 105.031013 78.095203 99.5515126 94.199403 76.5342126 94.199403"></polygon>
            <polygon id="Path" fill="#F99746" points="105.375013 78.095203 99.8854126 94.199403 76.8681126 94.199403 82.5046126 78.095203"></polygon>
            <path d="M93.0411126,86.000303 C92.9036126,86.609103 92.2850126,87.109903 91.6663126,87.109903 C91.0575126,87.109903 90.6745126,86.609103 90.8120126,86.000303 C90.9593126,85.381703 91.5681126,84.880903 92.1868126,84.880903 C92.8054126,84.880903 93.1884126,85.381703 93.0411126,86.000303 Z" id="Path" fill="#FFFFFF"></path>
            <path d="M61.5397126,97.057203 L61.5397126,94.965603 C61.5397126,94.543403 61.8834126,94.199703 62.3056126,94.199703 L162.515013,94.199703 C162.937013,94.199703 163.281013,94.543403 163.281013,94.965603 L163.281013,97.057203 C163.281013,97.479503 162.937013,97.823103 162.515013,97.823103 L62.3056126,97.823103 C61.8834126,97.823103 61.5397126,97.479503 61.5397126,97.057203 Z" id="Path" fill="#182D4F"></path>
            <path d="M164.135013,156.908003 L153.628013,96.133803 L156.898013,96.045403 L165.824013,156.485003 C165.893013,156.996003 165.530013,157.448003 165.009013,157.516003 L164.970013,157.516003 C164.567013,157.565003 164.204013,157.300003 164.135013,156.908003 Z" id="Path" fill="#182D4F"></path>
            <path d="M58.9473126,157.516003 L58.9081126,157.516003 C58.3974126,157.448003 58.0341126,156.996003 58.0930126,156.485003 L67.0289126,96.045403 L70.2988126,96.133803 L59.7918126,156.908003 C59.7231126,157.300003 59.3499126,157.565003 58.9473126,157.516003 Z" id="Path" fill="#182D4F"></path>
            <path d="M79.6275126,157.516003 L79.5784126,157.516003 C79.0677126,157.448003 78.7044126,156.996003 78.7732126,156.485003 L87.6992126,96.045403 L90.9692126,96.133803 L80.4621126,156.908003 C80.3934126,157.300003 80.0301126,157.565003 79.6275126,157.516003 Z" id="Path" fill="#182D4F"></path>
            <path d="M244.678013,157.900003 L5.43634265,157.900003 C5.25858265,157.900003 5.10621265,157.762003 5.10621265,157.583003 L5.10621265,157.332003 C5.10621265,157.154003 5.25858265,157.016003 5.43634265,157.016003 L244.678013,157.016003 C244.856013,157.016003 245.000013,157.154003 245.000013,157.332003 L245.000013,157.583003 C245.000013,157.762003 244.856013,157.900003 244.678013,157.900003 Z" id="Path" fill="#2E3552"></path>
            <path d="M134.961013,155.631003 C137.671013,155.189003 142.375013,153.618003 143.416013,150.152003 C143.455013,150.034003 143.488013,149.919003 143.514013,149.808003 C144.339013,146.096003 150.388013,150.937003 150.388013,150.937003 C150.388013,150.937003 150.407013,151.085003 150.437013,151.340003 C150.565013,152.587003 150.879013,156.427003 150.024013,157.467003 L132.310013,157.467003 C132.545013,156.829003 133.203013,155.916003 134.961013,155.631003 Z" id="Path" fill="#233862"></path>
            <path d="M191.503013,105.668003 C193.516013,109.626003 184.393013,117.747003 180.662013,118.719003 C176.920013,119.681003 156.525013,117.963003 156.623013,119.976003 C156.977013,127.262003 152.165013,151.271003 152.165013,151.271003 C145.606013,153.461003 142.571013,149.690003 142.571013,149.690003 C142.571013,149.690003 142.935013,114.595003 145.390013,111.550003 C150.309013,105.472003 180.023013,99.894503 180.662013,99.894503 C180.662013,99.894503 189.499013,101.711003 191.503013,105.668003 Z" id="Path" fill="#233862"></path>
            <path d="M144.830013,94.199603 C144.830013,94.199603 142.562013,94.199603 142.071013,94.199603 C141.589013,94.199603 140.607013,94.356703 139.822013,94.229003 C139.026013,94.111203 135.354013,94.415603 134.588013,94.199603 C133.812013,93.983603 136.689013,92.589203 138.103013,91.980303 C139.527013,91.381303 145.517013,91.293003 145.517013,91.293003 L144.830013,94.199603 Z" id="Path" fill="#FFB27D"></path>
            <path d="M138.506013,76.907403 C138.506013,76.907403 136.464013,75.454103 134.480013,75.169403 C133.351013,75.002403 132.251013,74.806003 131.583013,74.570403 C129.757013,73.922303 126.094013,70.632703 126.369013,70.249703 C127.253013,69.002603 131.534013,71.624503 132.280013,71.349503 C133.027013,71.064803 130.847013,69.513303 131.603013,68.963403 C131.996013,68.678603 132.928013,70.112303 133.685013,70.249703 C134.706013,70.446103 135.511013,71.899403 135.815013,71.968203 C136.424013,72.115503 139.056013,74.079403 139.056013,74.079403 L138.506013,76.907403 Z" id="Path" fill="#FFB27D"></path>
            <path d="M177.696013,81.012103 C175.212013,86.314703 166.924013,94.199903 166.924013,94.199903 L144.830013,94.199903 L144.830013,90.527303 C144.830013,90.527303 159.167013,87.669803 160.806013,87.188703 C162.436013,86.697703 164.145013,86.029903 168.642013,73.657203 C173.140013,61.274603 177.696013,59.860603 177.696013,59.860603 C177.696013,59.860603 180.181013,75.699703 177.696013,81.012103 Z" id="Path" fill="#ED7D2B"></path>
            <path d="M127.135013,155.631003 C129.845013,155.189003 134.539013,153.618003 135.590013,150.152003 C135.622013,150.034003 135.652013,149.919003 135.678013,149.808003 C136.513013,146.096003 142.562013,150.937003 142.562013,150.937003 C142.562013,150.937003 142.581013,151.085003 142.601013,151.340003 C142.738013,152.587003 143.052013,156.427003 142.198013,157.467003 L124.474013,157.467003 C124.719013,156.829003 125.367013,155.916003 127.135013,155.631003 Z" id="Path" fill="#1B3051"></path>
            <path d="M182.753013,105.668003 C184.757013,109.626003 175.634013,117.747003 171.903013,118.719003 C168.171013,119.681003 147.766013,117.963003 147.864013,119.976003 C148.218013,127.262003 143.416013,151.271003 143.416013,151.271003 C136.856013,153.461003 133.812013,149.690003 133.812013,149.690003 C133.812013,149.690003 134.176013,114.595003 136.630013,111.550003 C141.550013,105.472003 171.264013,99.894503 171.903013,99.894503 C171.903013,99.894503 180.740013,101.711003 182.753013,105.668003 Z" id="Path" fill="#2B478B"></path>
            <path d="M172.708013,60.626203 C172.734013,60.613103 172.757013,60.600003 172.777013,60.586903 C173.150013,60.351303 173.346013,59.919203 173.287013,59.487103 C173.202013,58.950303 173.127013,58.449503 173.061013,57.984703 C172.727013,55.441403 172.718013,53.988103 172.718013,53.988103 L175.781013,51.523403 L180.289013,47.890103 C180.161013,51.660903 182.037013,56.217203 183.195013,58.259703 C184.452013,60.469103 182.498013,61.618003 180.082013,62.403603 C178.138013,63.032003 175.899013,63.601603 173.759013,63.778303 C171.971013,63.925603 171.186013,61.588503 172.708013,60.626203 Z" id="Path" fill="#FFB27D"></path>
            <path d="M175.182013,51.503803 C176.213013,51.356503 176.724013,52.858903 178.109013,53.241903 C178.109013,53.241903 175.556013,55.421803 172.835013,55.863703 C172.561013,53.919403 172.718013,53.389103 172.718013,53.389103 L175.182013,51.503803 Z" id="Path" fill="#ED975D"></path>
            <path d="M168.819013,39.916603 C169.683013,37.805303 171.363013,35.497703 178.020013,36.892103 C184.678013,38.276703 182.665013,42.469703 181.673013,49.019403 C180.691013,55.578903 170.194013,53.831003 170.194013,53.831003 C167.494013,53.212403 167.955013,42.018003 168.819013,39.916603 Z" id="Path" fill="#FFB27D"></path>
            <path d="M171.628013,35.900703 C172.482013,35.900703 176.164013,34.761603 178.826013,35.154403 C181.477013,35.557003 184.285013,38.463603 184.982013,41.223003 C185.680013,43.972503 182.174013,52.878903 180.308013,53.016303 C178.433013,53.153803 176.351013,50.433803 176.125013,49.108103 C175.997013,48.332403 177.883013,46.663003 176.852013,45.258803 C175.644013,43.599303 175.104013,45.671303 173.749013,45.720303 C172.394013,45.769403 173.061013,42.087103 170.057013,41.144403 C168.034013,40.515903 166.826013,38.591303 167.278013,37.010303 C167.513013,36.156003 170.773013,35.900703 171.628013,35.900703 Z" id="Path" fill="#2B478B"></path>
            <path d="M193.359013,105.698003 C190.422013,115.616003 173.935013,105.895003 166.816013,101.132003 C163.703013,99.050303 166.453013,69.738703 168.525013,64.652103 C171.323013,57.729203 178.266013,56.452703 183.097013,56.442903 C185.935013,56.442903 190.128013,62.845303 191.640013,68.953103 C194.282013,79.548503 196.039013,96.615003 193.359013,105.698003 Z" id="Path" fill="#F99746"></path>
            <path d="M179.690013,72.262403 C170.675013,79.774503 159.599013,84.104903 156.299013,85.293103 C155.681013,85.518903 155.003013,85.528803 154.375013,85.322503 C152.146013,84.595903 146.568013,82.681103 142.866013,80.638603 C140.067013,79.087103 134.431013,75.208303 135.000013,75.571603 C135.000013,75.571603 134.706013,74.776203 135.285013,73.607703 C135.717013,72.733803 136.444013,72.193703 136.444013,72.193703 C136.444013,72.193703 150.751013,75.228003 152.440013,75.424303 C154.139013,75.630603 155.965013,75.689503 164.980013,66.085903 C167.405013,63.503303 169.418013,61.686703 171.058013,60.410103 C174.092013,58.053403 178.531013,59.290703 179.915013,62.874803 C181.192013,66.203703 182.066013,70.278903 179.690013,72.262403 Z" id="Path" fill="#F99746"></path>
            <path d="M171.058013,60.410103 C172.698013,54.842303 182.488013,54.037103 182.488013,54.037103 L183.588013,56.501803 C178.649013,56.629503 171.058013,60.410103 171.058013,60.410103 Z" id="Path" fill="#FFFFFF"></path>
            <path d="M206.743013,156.751003 L201.440013,119.721003 L204.661013,119.437003 L208.353013,156.270003 C208.402013,156.790003 207.980013,157.242003 207.420013,157.252003 L207.351013,157.252003 C207.047013,157.252003 206.782013,157.046003 206.743013,156.751003 Z" id="Path" fill="#8CB4F4"></path>
            <path d="M187.761013,156.751003 L182.459013,119.721003 L185.680013,119.437003 L189.372013,156.270003 C189.421013,156.790003 188.999013,157.242003 188.439013,157.252003 L188.370013,157.252003 C188.066013,157.252003 187.801013,157.046003 187.761013,156.751003 Z" id="Path" fill="#8CB4F4"></path>
            <path d="M152.735013,157.252003 L152.666013,157.252003 C152.116013,157.242003 151.694013,156.790003 151.743013,156.270003 L155.435013,119.437003 L158.646013,119.721003 L153.353013,156.751003 C153.314013,157.046003 153.049013,157.252003 152.735013,157.252003 Z" id="Path" fill="#73A2E5"></path>
            <path d="M173.935013,117.030003 L180.613013,83.211503 C181.457013,78.939903 184.472013,73.382003 191.139013,73.666803 L202.393013,74.344303 C208.785013,74.688003 210.268013,79.028303 209.816013,83.456903 L206.311013,114.222003 L173.935013,117.030003 Z" id="Path" fill="#8CB4F4"></path>
            <path d="M204.435013,119.976003 L154.483013,119.976003 C153.481013,119.976003 152.656013,119.151003 152.656013,118.150003 L152.656013,115.901003 C152.656013,114.900003 153.481013,114.075003 154.483013,114.075003 L206.262013,114.075003 L206.262013,118.150003 C206.262013,119.151003 205.437013,119.976003 204.435013,119.976003 Z" id="Path" fill="#73A2E5"></path>
            <path d="M204.838013,119.976003 L175.349013,119.976003 C174.564013,119.976003 173.935013,119.338003 173.935013,118.552003 L173.935013,115.499003 C173.935013,114.713003 174.564013,114.075003 175.349013,114.075003 L206.262013,114.075003 L206.262013,118.552003 C206.262013,119.338003 205.623013,119.976003 204.838013,119.976003 Z" id="Path" fill="#8CB4F4"></path>
        </g>
    </g>
</svg>