<svg width="45" height="45" viewBox="0 0 45 45" fill="none" xmlns="http://www.w3.org/2000/svg">
<path d="M22.4036 43.3928C25.954 43.3928 28.8322 40.5147 28.8322 36.9643C28.8322 33.4139 25.954 30.5357 22.4036 30.5357C18.8532 30.5357 15.975 33.4139 15.975 36.9643C15.975 40.5147 18.8532 43.3928 22.4036 43.3928Z" stroke="black" stroke-width="3.21429" stroke-linecap="round" stroke-linejoin="round"/>
<path d="M22.4036 30.5357V1.60712M22.4036 1.60712L17.5822 6.42855M22.4036 1.60712L27.225 6.42855M19.2857 31.4357C17.4437 30.8853 15.7428 29.9423 14.3001 28.6716C12.8574 27.4009 11.7072 25.8327 10.9286 24.075" stroke="black" stroke-width="3.21429" stroke-linecap="round" stroke-linejoin="round"/>
<path d="M10.35 24.1071C12.569 24.1071 14.3679 22.3083 14.3679 20.0893C14.3679 17.8703 12.569 16.0714 10.35 16.0714C8.13101 16.0714 6.33215 17.8703 6.33215 20.0893C6.33215 22.3083 8.13101 24.1071 10.35 24.1071Z" stroke="black" stroke-width="3.21429" stroke-linecap="round" stroke-linejoin="round"/>
<path d="M22.5 27.6428C24.9673 26.8971 27.2457 25.6302 29.1811 23.9277C31.1164 22.2253 32.6636 20.1271 33.7179 17.775" stroke="black" stroke-width="3.21429" stroke-linecap="round" stroke-linejoin="round"/>
<path d="M34.65 17.9036C36.869 17.9036 38.6679 16.1047 38.6679 13.8857C38.6679 11.6667 36.869 9.86786 34.65 9.86786C32.431 9.86786 30.6321 11.6667 30.6321 13.8857C30.6321 16.1047 32.431 17.9036 34.65 17.9036Z" stroke="black" stroke-width="3.21429" stroke-linecap="round" stroke-linejoin="round"/>
</svg>
