<?xml version="1.0" encoding="UTF-8"?>
<svg width="82px" height="21px" viewBox="0 0 82 21" version="1.1" xmlns="http://www.w3.org/2000/svg" xmlns:xlink="http://www.w3.org/1999/xlink">
    <title>linkedin</title>
    <g id="Page-1" stroke="none" stroke-width="1" fill="none" fill-rule="evenodd">
        <g id="linkedin" transform="translate(0.632812, 0.000000)" fill="#0A66C2" fill-rule="nonzero">
            <path d="M0,3.04457751 L3.174098,3.04457751 L3.174098,14.6067275 L9.050548,14.6067275 L9.050548,17.5360275 L0,17.5360275 L0,3.04457751 Z M10.453888,7.71036751 L13.503188,7.71036751 L13.503188,17.5305275 L10.453888,17.5305275 L10.453888,7.71036751 Z M11.978488,2.82824751 C12.948788,2.82843751 13.747188,3.62688751 13.747188,4.59719751 C13.747188,5.56759751 12.948588,6.36613751 11.978188,6.36613751 C11.007788,6.36613751 10.209288,5.56759751 10.209288,4.59719751 C10.209288,3.62679751 11.008088,2.82824751 11.978488,2.82824751 Z M26.258988,3.04235751 L29.308388,3.04235751 L29.308388,11.7028275 L32.764388,7.70594751 L36.502988,7.70594751 L32.500688,12.2523275 L36.418788,17.5347275 L32.586188,17.5347275 L29.349088,12.6804275 L29.309088,12.6804275 L29.309088,17.5340275 L26.259688,17.5340275 L26.258988,3.04235751 Z M15.193988,7.71137751 L18.122388,7.71137751 L18.122388,9.05338751 L18.163988,9.05338751 C18.759088,8.03373751 19.871488,7.42260751 21.051288,7.46707751 C24.143588,7.46707751 24.712788,9.50158751 24.712788,12.1446275 L24.712788,17.5299275 L21.663388,17.5299275 L21.663388,12.7555275 C21.663388,11.6158275 21.642488,10.1508275 20.075188,10.1508275 C18.490188,10.1508275 18.245588,11.3918275 18.245588,12.6725275 L18.245588,17.5287275 L15.196288,17.5287275 L15.193988,7.71137751 Z" id="Shape"></path>
            <path d="M42.926388,11.4779275 C42.926588,11.4635275 42.926788,11.4491275 42.926788,11.4347275 C42.926788,10.4317275 42.101488,9.60641751 41.098488,9.60641751 C41.083688,9.60641751 41.068888,9.60660751 41.054088,9.60696751 C39.952688,9.53839751 38.985988,10.3777275 38.899288,11.4779275 L42.926388,11.4779275 Z M45.509388,15.8295275 C44.483888,17.0731275 42.951188,17.7912275 41.339388,17.7834904 C38.289988,17.7834904 35.848588,15.7479275 35.848588,12.5959275 C35.848588,9.44404751 38.289688,7.40953751 41.339388,7.40953751 C44.189588,7.40953751 45.976888,9.44238751 45.976888,12.5959275 L45.976888,13.5521275 L38.899288,13.5521275 C39.080588,14.6681275 40.066988,15.4886275 41.197388,15.4640275 C42.078388,15.4584275 42.898788,15.0060275 43.373488,14.2639275 L45.509388,15.8295275 Z M52.332988,10.0837275 C50.808288,10.0837275 49.893488,11.1018275 49.893488,12.5852275 C49.893488,14.0686275 50.807888,15.0875275 52.332988,15.0875275 C53.857988,15.0875275 54.774688,14.0711275 54.774688,12.5852275 C54.774688,11.0992275 53.859488,10.0837275 52.332988,10.0837275 Z M57.581988,17.5283275 L54.774688,17.5283275 L54.774688,16.2260275 L54.733088,16.2260275 C54.019688,17.1854275 52.896988,17.7581275 51.701488,17.7722275 C48.771588,17.7722275 46.841588,15.6576275 46.841588,12.6674275 C46.841588,9.92114751 48.549588,7.39931751 51.357088,7.39931751 C52.619088,7.39931751 53.797888,7.74459751 54.489388,8.70164751 L54.529488,8.70164751 L54.529488,3.04097751 L57.581588,3.04097751 L57.581988,17.5283275 Z M78.167988,17.5340275 L75.118588,17.5340275 L75.118588,12.7586275 C75.118588,11.6198275 75.098288,10.1539275 73.532688,10.1539275 C71.944388,10.1539275 71.701388,11.3946275 71.701388,12.6756275 L71.701388,17.5336275 L68.652088,17.5336275 L68.652088,7.71348751 L71.579388,7.71348751 L71.579388,9.05549751 L71.620488,9.05549751 C72.216488,8.03639751 73.328888,7.42545751 74.508788,7.46927751 C77.599388,7.46927751 78.169288,9.50212751 78.169288,12.1468275 L78.167988,17.5340275 Z M65.211388,6.37110751 C64.240688,6.37110751 63.441488,5.57237751 63.441488,4.60160751 C63.441488,3.63083751 64.240288,2.83202751 65.211088,2.83202751 C66.181788,2.83202751 66.980488,3.63065751 66.980688,4.60123751 C66.980688,5.57182751 66.181988,6.37101751 65.211388,6.37110751 Z M66.736088,17.5340275 L63.683588,17.5340275 L63.683588,7.71348751 L66.736088,7.71348751 L66.736088,17.5340275 Z M79.688088,0.000127512009 L62.151188,0.000127512009 C61.327988,-0.0090390281 60.642688,0.660354512 60.632588,1.48356751 L60.632588,19.0933275 C60.642288,19.9169275 61.327488,20.5871275 62.151188,20.578347 L79.688088,20.578347 C80.513788,20.5886275 81.201388,19.9186275 81.212488,19.0933275 L81.212488,1.48236751 C81.201388,0.657408512 80.512888,-0.0106038881 79.688088,0.000127512009 Z" id="Shape"></path>
        </g>
    </g>
</svg>