<svg width="34" height="34" viewBox="0 0 34 34" fill="none" xmlns="http://www.w3.org/2000/svg">
<circle cx="17" cy="17" r="16" fill="#F36D40"/>
<path d="M22.9999 11.8574H20.7141V14.1432H22.9999V11.8574Z" fill="white"/>
<path d="M22.9999 15.2852H20.7141V17.571H22.9999V15.2852Z" fill="white"/>
<path d="M19.5717 11.8574H17.2859V14.1432H19.5717V11.8574Z" fill="white"/>
<path d="M19.5717 15.2852H17.2859V17.571H19.5717V15.2852Z" fill="white"/>
<path d="M15.8569 22.7144C16.3303 22.7144 16.7141 22.3306 16.7141 21.8572C16.7141 21.3838 16.3303 21 15.8569 21C15.3835 21 14.9998 21.3838 14.9998 21.8572C14.9998 22.3306 15.3835 22.7144 15.8569 22.7144Z" fill="white"/>
<path d="M19.5718 25.0006H12.1429C11.8399 25.0003 11.5494 24.8798 11.3351 24.6655C11.1209 24.4512 11.0003 24.1607 11 23.8577V10.1429C11.0003 9.83989 11.1209 9.54939 11.3351 9.33513C11.5494 9.12087 11.8399 9.00035 12.1429 9H19.5718V10.1429H12.1429V23.8577H19.5718V19.2861H20.7147V23.8577C20.7143 24.1607 20.5938 24.4512 20.3795 24.6655C20.1653 24.8798 19.8748 25.0003 19.5718 25.0006V25.0006Z" fill="white"/>
</svg>
