<?xml version="1.0" encoding="UTF-8"?>
<svg width="43px" height="39px" viewBox="0 0 43 39" version="1.1" xmlns="http://www.w3.org/2000/svg" xmlns:xlink="http://www.w3.org/1999/xlink">
    <title>noun-developer-3596065 1</title>
    <g id="Page-1" stroke="none" stroke-width="1" fill="none" fill-rule="evenodd">
        <g id="noun-developer-3596065-1" transform="translate(0.200000, 0.000000)" fill="#F36D45" fill-rule="nonzero">
            <path d="M38.0936,31.0392 L4.23262,31.0392 C1.89585,31.0374 0.00176,29.1433 0,26.8066 L0,4.2326 C0.00176,1.89585 1.89585,0.00176 4.23262,0 L21.1631,0 C21.9426,0 22.574,0.63135 22.574,1.41087 C22.574,2.1904 21.9426,2.82174 21.1631,2.82174 L4.23262,2.82174 C3.45309,2.82174 2.82174,3.45309 2.82174,4.2326 L2.82174,26.8066 C2.82174,27.5861 3.45309,28.2174 4.23262,28.2174 L38.0936,28.2174 C38.8731,28.2174 39.5044,27.5861 39.5044,26.8066 L39.5044,16.9111 C39.5044,16.1333 40.1358,15.5002 40.9153,15.5002 C41.6948,15.5002 42.3262,16.1333 42.3262,16.9111 L42.3262,26.8066 C42.3244,29.1433 40.4303,31.0374 38.0936,31.0392 Z" id="Path"></path>
            <path d="M28.2174,38.094 L14.1087,38.094 C13.6855,38.094 13.2851,37.9035 13.0188,37.5773 C12.7507,37.251 12.6432,36.8207 12.726,36.4062 L14.1369,29.3519 C14.2692,28.6923 14.8476,28.2179 15.5196,28.2179 L26.8065,28.2179 C27.4785,28.2179 28.0569,28.6923 28.1892,29.3519 L29.6001,36.4062 C29.683,36.8207 29.5754,37.251 29.3073,37.5773 C29.041,37.9036 28.6407,38.094 28.2174,38.094 L28.2174,38.094 Z M15.8298,35.2723 L26.4959,35.2723 L25.6494,31.0396 L16.6745,31.0396 L15.8298,35.2723 Z" id="Shape"></path>
            <path d="M33.861,38.094 L8.4653,38.094 C7.6857,38.094 7.0544,37.4626 7.0544,36.6831 C7.0544,35.9036 7.6857,35.2722 8.4653,35.2722 L33.861,35.2722 C34.6405,35.2722 35.2718,35.9036 35.2718,36.6831 C35.2718,37.4626 34.6405,38.094 33.861,38.094 Z" id="Path"></path>
            <path d="M12.6979,18.3418 L7.0544,18.3418 C6.2748,18.3418 5.64349,17.7104 5.64349,16.9309 C5.64349,16.1514 6.2748,15.52 7.0544,15.52 L12.6979,15.52 C13.4774,15.52 14.1087,16.1514 14.1087,16.9309 C14.1087,17.7104 13.4774,18.3418 12.6979,18.3418 Z" id="Path"></path>
            <path d="M18.3413,23.9853 L7.0544,23.9853 C6.2748,23.9853 5.64349,23.354 5.64349,22.5744 C5.64349,21.7949 6.2748,21.1636 7.0544,21.1636 L18.3413,21.1636 C19.1209,21.1636 19.7522,21.7949 19.7522,22.5744 C19.7522,23.354 19.1209,23.9853 18.3413,23.9853 Z" id="Path"></path>
            <path d="M29.6283,12.6983 C29.2545,12.6983 28.8947,12.5502 28.6302,12.2857 L25.103,8.7585 C24.8384,8.4939 24.6903,8.1342 24.6903,7.7603 C24.6903,7.3864 24.8384,7.0266 25.103,6.7621 L28.6302,3.23494 C28.8929,2.96335 29.2545,2.80815 29.6337,2.80456903 C30.0111,2.8011 30.3761,2.951 30.6442,3.21731 C30.9105,3.48537 31.0604,3.85041 31.0569599,4.2279 C31.0534,4.607 30.8982,4.9685 30.6266,5.2314 L28.0958,7.7604 L30.6266,10.2894 C31.0287,10.6932 31.1504,11.2999 30.9317,11.8272 C30.713,12.3545 30.1998,12.6984 29.6284,12.6984 L29.6283,12.6983 Z" id="Path"></path>
            <path d="M33.8627,14.1087 C33.4201,14.1087 33.0021,13.9006 32.7358,13.5479 C32.4695,13.1934 32.3831,12.7366 32.503,12.3098 L35.3248,2.43373 C35.5399,1.68418 36.3212,1.25036 37.0707,1.46553 C37.8203,1.67893 38.2541,2.46018 38.0407,3.20973 L35.2189,13.0858 C35.0443,13.6907 34.4923,14.1087 33.8627,14.1087 L33.8627,14.1087 Z" id="Path"></path>
        </g>
    </g>
</svg>