<?xml version="1.0" encoding="UTF-8"?>
<svg width="50px" height="29px" viewBox="0 0 50 29" version="1.1" xmlns="http://www.w3.org/2000/svg" xmlns:xlink="http://www.w3.org/1999/xlink">
    <title>noun-responsive-3629284 1</title>
    <g id="Page-1" stroke="none" stroke-width="1" fill="none" fill-rule="evenodd">
        <g id="noun-responsive-3629284-1" transform="translate(0.000000, 0.914060)" fill="#F36D45" fill-rule="nonzero">
            <path d="M47.322,7.0001 L41.0718,7.0001 L41.0718,4.375 C41.0718,1.9622 39.0695,0 36.6075,0 L13.3932,0 C10.9311,0 8.92887,1.9622 8.92887,4.375 L8.92887,12.2498 L2.67857,12.2498 C1.20092,12.2498 0,13.4267 0,14.8749 L0,25.375 C0,26.8231 1.20092,28 2.67857,28 L9.82144,28 C11.2991,28 12.5,26.8231 12.5,25.375 L12.5,20.884 C12.7947,20.9431 13.0893,20.9999 13.3929,20.9999 L21.1786,20.9999 L20.2254,24.7384 C20.0246,25.5281 20.2009,26.3484 20.7121,26.9894 C21.2232,27.6325 21.9911,28 22.8237,28 L27.1786,28 C28.0089,28 28.779,27.6325 29.2902,26.9894 C29.8013,26.3484 29.9799,25.5281 29.7768,24.7384 L28.8214,20.9999 L33.9286,20.9999 L33.9286,25.375 C33.9286,26.8231 35.1295,28 36.6071,28 L47.3214,28 C48.7991,28 50,26.8231 50,25.375 L50,9.6248 C50,8.1767 48.7991,6.9998 47.3214,6.9998 L47.322,7.0001 Z M10.7152,25.375 C10.7152,25.8562 10.3156,26.25 9.82229,26.25 L2.67943,26.25 C2.18613,26.25 1.78657,25.8562 1.78657,25.375 L1.78657,14.8749 C1.78657,14.3914 2.18613,13.9999 2.67943,13.9999 L9.82229,13.9999 C10.3156,13.9999 10.7152,14.3914 10.7152,14.8749 L10.7152,25.375 Z M28.0455,25.1628 C28.1124,25.4253 28.0544,25.6987 27.8825,25.9131 C27.7106,26.1274 27.4562,26.2499 27.1771,26.2499 L22.8222,26.2499 C22.5454,26.2499 22.2887,26.1274 22.1191,25.9131 C21.9472,25.6987 21.8892,25.4252 21.9561,25.1628 L23.0186,20.9999 L26.9807,20.9999 L28.0455,25.1628 Z M13.3934,19.2497 C13.0854,19.2497 12.7885,19.1797 12.5006,19.0812 L12.5006,14.8746 C12.5006,13.7349 11.7528,12.7724 10.7149,12.4115 L10.7149,4.3743 C10.7149,2.9262 11.9158,1.7493 13.3934,1.7493 L36.6077,1.7493 C38.0854,1.7493 39.2863,2.9262 39.2863,4.3743 L39.2863,6.9993 L36.6077,6.9993 C35.1301,6.9993 33.9292,8.1763 33.9292,9.6244 L33.9292,19.2497 L13.3932,19.2497 L13.3934,19.2497 Z M48.2152,25.375 C48.2152,25.8563 47.8156,26.25 47.3223,26.25 L36.608,26.25 C36.1147,26.25 35.7152,25.8563 35.7152,25.375 L35.7152,9.6249 C35.7152,9.1414 36.1147,8.7499 36.608,8.7499 L47.3223,8.7499 C47.8156,8.7499 48.2152,9.1414 48.2152,9.6249 L48.2152,25.375 Z M30.358,6.1248 C30.358,6.6083 29.9585,6.9998 29.4652,6.9998 L15.1794,6.9998 C14.6861,6.9998 14.2866,6.6083 14.2866,6.1248 C14.2866,5.6414 14.6861,5.2498 15.1794,5.2498 L29.4652,5.2498 C29.9585,5.2498 30.358,5.6414 30.358,6.1248 Z M23.2152,11.3749 C23.2152,11.8583 22.8156,12.2499 22.3223,12.2499 L15.1794,12.2499 C14.6861,12.2499 14.2866,11.8583 14.2866,11.3749 C14.2866,10.8914 14.6861,10.4999 15.1794,10.4999 L22.3223,10.4999 C22.8156,10.4999 23.2152,10.8914 23.2152,11.3749 Z M44.6438,11.3749 C44.6438,11.8583 44.2442,12.2499 43.7509,12.2499 L38.3937,12.2499 C37.9004,12.2499 37.5009,11.8583 37.5009,11.3749 C37.5009,10.8914 37.9004,10.4999 38.3937,10.4999 L43.7509,10.4999 C44.2442,10.4999 44.6438,10.8914 44.6438,11.3749 Z M41.0723,14.8749 C41.0723,15.3584 40.6728,15.7499 40.1795,15.7499 L38.3937,15.7499 C37.9004,15.7499 37.5009,15.3584 37.5009,14.8749 C37.5009,14.3915 37.9004,13.9999 38.3937,13.9999 L40.1795,13.9999 C40.6728,13.9999 41.0723,14.3915 41.0723,14.8749 Z M7.14372,16.6249 C7.14372,17.1084 6.74417,17.4999 6.25086,17.4999 L4.46515,17.4999 C3.97184,17.4999 3.57229,17.1084 3.57229,16.6249 C3.57229,16.1415 3.97184,15.7499 4.46515,15.7499 L6.25086,15.7499 C6.74417,15.7499 7.14372,16.1415 7.14372,16.6249 Z" id="Shape"></path>
        </g>
    </g>
</svg>