<svg width="50" height="50" viewBox="0 0 50 50" fill="none" xmlns="http://www.w3.org/2000/svg">
<path fill-rule="evenodd" clip-rule="evenodd" d="M25.638 13.1187C32.5861 13.1187 38.241 18.7735 38.241 25.7279C38.241 29.9622 36.1451 33.7267 32.9224 36.011V40.9571C32.9224 41.0843 32.8981 41.2115 32.8467 41.3296C32.7982 41.4478 32.7255 41.5568 32.6346 41.6477C32.5438 41.7385 32.4347 41.8112 32.3166 41.8597C32.1985 41.9082 32.0713 41.9354 31.9441 41.9354H28.8637V44.9279C28.8637 45.0551 28.8395 45.1823 28.788 45.3005C28.7395 45.4186 28.6668 45.5276 28.576 45.6185C28.4851 45.7094 28.3761 45.7821 28.2579 45.8305C28.1398 45.879 28.0126 45.9062 27.8854 45.9062H23.3785C23.2513 45.9062 23.1241 45.882 23.0059 45.8305C22.8878 45.7821 22.7788 45.7094 22.6879 45.6185C22.597 45.5276 22.5243 45.4186 22.4759 45.3005C22.4274 45.1824 22.4002 45.0551 22.4002 44.9279V41.9354H19.3228C19.1956 41.9354 19.0684 41.9112 18.9503 41.8597C18.8322 41.8112 18.7231 41.7385 18.6322 41.6477C18.5414 41.5568 18.4687 41.4478 18.4202 41.3296C18.3718 41.2115 18.3445 41.0843 18.3445 40.9571V36.011C15.1219 33.7273 13.0228 29.9624 13.0228 25.7279C13.0228 18.7737 18.6807 13.1187 25.6321 13.1187H25.638ZM25.638 15.0722C19.7438 15.0722 14.9827 19.8275 14.9827 25.7275C14.9827 29.4833 16.9242 32.7756 19.8591 34.6746C19.9954 34.7625 20.1105 34.8867 20.1863 35.029C20.265 35.1714 20.3044 35.3349 20.3044 35.4955V39.9842H23.3817C23.5089 39.9842 23.6361 40.0085 23.7543 40.0599C23.8724 40.1084 23.9814 40.1811 24.0723 40.272C24.1632 40.3628 24.2358 40.4719 24.2843 40.59C24.3328 40.7081 24.36 40.8353 24.36 40.9625V43.955H26.9134V40.9625C26.9134 40.8353 26.9376 40.7081 26.9891 40.59C27.0375 40.4719 27.1102 40.3628 27.2011 40.272C27.292 40.1811 27.401 40.1084 27.5191 40.0599C27.6373 40.0115 27.7645 39.9842 27.8917 39.9842H30.972V35.4955C30.972 35.3319 31.0144 35.1714 31.0902 35.029C31.1689 34.8867 31.281 34.7625 31.4173 34.6746C34.3523 32.7786 36.2876 29.4832 36.2876 25.7275C36.2876 19.8273 31.5323 15.0722 25.6385 15.0722H25.638Z" fill="#F36D45"/>
<path fill-rule="evenodd" clip-rule="evenodd" d="M30.3415 21.3092C30.5141 21.3031 30.6898 21.3455 30.8442 21.4303C30.9957 21.5151 31.1259 21.6393 31.2138 21.7907C32.3799 23.7141 32.8918 25.6343 32.6101 27.4698C32.3284 29.3053 31.2622 30.9711 29.5721 32.4159C29.4752 32.5007 29.3601 32.5673 29.239 32.6067C29.1178 32.6491 28.9876 32.6642 28.8573 32.6552C28.7301 32.6461 28.6029 32.6097 28.4878 32.5522C28.3727 32.4946 28.2697 32.4128 28.1849 32.3159C28.1001 32.219 28.0365 32.1039 27.9971 31.9797C27.9578 31.8555 27.9426 31.7253 27.9547 31.5981C27.9668 31.4709 28.0032 31.3437 28.0638 31.2286C28.1243 31.1135 28.2061 31.0105 28.3061 30.9287C29.7478 29.696 30.4838 28.4602 30.6837 27.1729C30.8806 25.8826 30.5504 24.4561 29.5479 22.8023C29.4571 22.6569 29.4056 22.4873 29.3995 22.3177C29.3935 22.1481 29.4328 21.9755 29.5146 21.824C29.5964 21.6726 29.7145 21.5454 29.8599 21.4545C30.0053 21.3636 30.1749 21.3121 30.3445 21.3091L30.3415 21.3092Z" fill="#F36D45"/>
<path fill-rule="evenodd" clip-rule="evenodd" d="M25.6527 3.09922C25.7799 3.10225 25.9071 3.12951 26.0253 3.17797C26.1434 3.22946 26.2494 3.30215 26.3402 3.39301C26.4281 3.48388 26.5008 3.59292 26.5462 3.71407C26.5947 3.83219 26.6159 3.95941 26.6159 4.08965V8.7783C26.6189 8.90854 26.5947 9.03575 26.5462 9.15691C26.4977 9.27503 26.4251 9.38709 26.3342 9.47796C26.2433 9.56883 26.1343 9.64454 26.0162 9.69301C25.898 9.74147 25.7678 9.76873 25.6406 9.76873C25.5103 9.76873 25.3831 9.74147 25.265 9.69301C25.1469 9.64454 25.0378 9.56882 24.947 9.47796C24.8561 9.38709 24.7834 9.27503 24.735 9.15691C24.6865 9.03878 24.6623 8.90854 24.6653 8.7783V4.08965C24.6623 3.95941 24.6895 3.82917 24.738 3.70801C24.7864 3.58686 24.8591 3.47782 24.953 3.38393C25.0439 3.29306 25.156 3.21734 25.2771 3.16888C25.3983 3.12042 25.5285 3.09619 25.6587 3.09619L25.6527 3.09922Z" fill="#F36D45"/>
<path fill-rule="evenodd" clip-rule="evenodd" d="M13.556 8.10889C13.6802 8.11192 13.8043 8.1422 13.9194 8.1937C14.0345 8.24519 14.1375 8.31788 14.2254 8.40874L17.5207 11.7405C17.6146 11.8313 17.6873 11.9404 17.7388 12.0585C17.7903 12.1766 17.8145 12.3069 17.8175 12.4371C17.8175 12.5674 17.7933 12.6946 17.7418 12.8157C17.6934 12.9338 17.6176 13.0459 17.5268 13.1368C17.4359 13.2276 17.3238 13.3003 17.2057 13.3488C17.0846 13.3973 16.9574 13.4215 16.8271 13.4185C16.6969 13.4154 16.5697 13.3882 16.4515 13.3367C16.3334 13.2852 16.2244 13.2095 16.1365 13.1156L12.8412 9.78383C12.7018 9.64753 12.6049 9.46883 12.5686 9.27499C12.5322 9.08417 12.5534 8.88124 12.6292 8.70254C12.7049 8.52383 12.8381 8.36634 13.0047 8.26335C13.1683 8.15734 13.3652 8.10586 13.562 8.11191L13.556 8.10889Z" fill="#F36D45"/>
<path fill-rule="evenodd" clip-rule="evenodd" d="M6.43178 15.9054C6.61654 15.8993 6.80433 15.9478 6.96486 16.0417L11.0265 18.386C11.1386 18.4496 11.2386 18.5344 11.3173 18.6343C11.3961 18.7373 11.4566 18.8524 11.49 18.9766C11.5233 19.1008 11.5324 19.231 11.5172 19.3612C11.5021 19.4885 11.4597 19.6126 11.393 19.7247C11.3294 19.8368 11.2416 19.9337 11.1386 20.0124C11.0356 20.0912 10.9175 20.1487 10.7933 20.1821C10.6691 20.2154 10.5359 20.2214 10.4087 20.2033C10.2814 20.1851 10.1573 20.1427 10.0452 20.0761L5.98352 17.7318C5.79876 17.6288 5.65034 17.4622 5.56554 17.2683C5.48074 17.0745 5.46256 16.8534 5.51102 16.6474C5.55948 16.4415 5.68063 16.2537 5.84419 16.1204C6.00775 15.9871 6.21674 15.9084 6.42876 15.9023L6.43178 15.9054Z" fill="#F36D45"/>
<path fill-rule="evenodd" clip-rule="evenodd" d="M9.67908 26.552C9.80932 26.552 9.93653 26.5732 10.0577 26.6217C10.1758 26.6701 10.2879 26.7428 10.3787 26.8337C10.4696 26.9246 10.5453 27.0336 10.5938 27.1517C10.6422 27.2698 10.6695 27.4001 10.6695 27.5273C10.6695 27.6575 10.6422 27.7848 10.5938 27.9029C10.5453 28.021 10.4696 28.13 10.3787 28.2209C10.2879 28.3118 10.1758 28.3845 10.0577 28.4329C9.93956 28.4814 9.80932 28.5056 9.67908 28.5026H4.99042C4.86018 28.5026 4.73297 28.4814 4.61182 28.4329C4.4937 28.3845 4.38162 28.3118 4.29077 28.2209C4.1999 28.13 4.12418 28.021 4.07572 27.9029C4.02726 27.7848 4 27.6545 4 27.5273C4 27.3971 4.02726 27.2699 4.07572 27.1517C4.12418 27.0336 4.19991 26.9246 4.29077 26.8337C4.38163 26.7428 4.4937 26.6701 4.61182 26.6217C4.72994 26.5732 4.86018 26.549 4.99042 26.552H9.67908Z" fill="#F36D45"/>
<path fill-rule="evenodd" clip-rule="evenodd" d="M36.4383 7.16123C36.6321 7.16123 36.8229 7.21878 36.9835 7.32479C37.144 7.4308 37.2712 7.58829 37.3439 7.767C37.4166 7.9457 37.4348 8.1456 37.3984 8.33339C37.359 8.52118 37.2621 8.69988 37.1258 8.83315L33.8304 12.1649C33.7426 12.2588 33.6336 12.3345 33.5154 12.386C33.3973 12.4375 33.2671 12.4647 33.1399 12.4678C33.0096 12.4708 32.8824 12.4466 32.7613 12.3981C32.6401 12.3496 32.5311 12.277 32.4402 12.1861C32.3493 12.0952 32.2736 11.9862 32.2252 11.865C32.1767 11.7469 32.1494 11.6167 32.1494 11.4864C32.1494 11.3562 32.1767 11.229 32.2282 11.1078C32.2797 10.9897 32.3524 10.8807 32.4463 10.7898L35.7416 7.45806C35.8325 7.36417 35.9415 7.28844 36.0597 7.23695C36.1808 7.18546 36.308 7.1582 36.4383 7.1582L36.4383 7.16123Z" fill="#F36D45"/>
<path fill-rule="evenodd" clip-rule="evenodd" d="M44.2983 15.5601C44.4164 15.5631 44.5315 15.5843 44.6406 15.6297C44.7496 15.6721 44.8496 15.7357 44.9374 15.8145C45.0252 15.8932 45.0949 15.9871 45.1494 16.0901C45.2039 16.1931 45.2373 16.3082 45.2524 16.4233C45.2645 16.5384 45.2585 16.6565 45.2312 16.7716C45.204 16.8837 45.1555 16.9927 45.0889 17.0896C45.0222 17.1865 44.9404 17.2714 44.8435 17.338C44.7466 17.4046 44.6406 17.4561 44.5285 17.4834L40.0065 18.7192C39.8823 18.7555 39.7521 18.7676 39.6218 18.7525C39.4946 18.7373 39.3674 18.698 39.2553 18.6344C39.1433 18.5708 39.0433 18.486 38.9646 18.383C38.8858 18.28 38.8252 18.1649 38.7919 18.0377C38.7586 17.9135 38.7495 17.7833 38.7647 17.653C38.7828 17.5258 38.8252 17.4016 38.8889 17.2896C38.9525 17.1775 39.0403 17.0806 39.1433 17.0018C39.2462 16.9231 39.3644 16.8655 39.4886 16.8353L44.0106 15.5994C44.1045 15.5722 44.2014 15.5601 44.3014 15.5601L44.2983 15.5601Z" fill="#F36D45"/>
<path fill-rule="evenodd" clip-rule="evenodd" d="M46.0096 25.5549C46.1398 25.5549 46.267 25.5761 46.3882 25.6246C46.5063 25.6731 46.6184 25.7458 46.7092 25.8366C46.8001 25.9275 46.8758 26.0365 46.9243 26.1547C46.9727 26.2728 47 26.403 47 26.5302C47 26.6605 46.9727 26.7877 46.9243 26.9058C46.8758 27.0239 46.8001 27.133 46.7092 27.2238C46.6184 27.3147 46.5063 27.3874 46.3882 27.4359C46.2701 27.4843 46.1398 27.5085 46.0096 27.5055H41.3209C41.1907 27.5055 41.0635 27.4843 40.9423 27.4359C40.8242 27.3874 40.7121 27.3147 40.6213 27.2238C40.5304 27.133 40.4547 27.0239 40.4062 26.9058C40.3578 26.7877 40.3305 26.6574 40.3305 26.5302C40.3305 26.4 40.3578 26.2728 40.4062 26.1547C40.4547 26.0365 40.5304 25.9275 40.6213 25.8366C40.7121 25.7458 40.8242 25.6731 40.9423 25.6246C41.0604 25.5761 41.1907 25.5519 41.3209 25.5549H46.0096Z" fill="#F36D45"/>
</svg>
