<?xml version="1.0" encoding="UTF-8"?>
<svg width="41px" height="40px" viewBox="0 0 41 40" version="1.1" xmlns="http://www.w3.org/2000/svg" xmlns:xlink="http://www.w3.org/1999/xlink">
    <title>noun-design-2349632 1</title>
    <g id="Page-1" stroke="none" stroke-width="1" fill="none" fill-rule="evenodd">
        <g id="noun-design-2349632-1" transform="translate(0.200003, 0.000000)" fill="#F36D45" fill-rule="nonzero">
            <path d="M39.2409975,6.4484 L33.5567975,0.75819 C32.5468975,-0.25273 30.8198975,-0.25273 29.8511975,0.75819 L19.2410975,11.3369 L11.7888975,3.83552 C9.5997975,1.64409 6.0617975,1.64409 3.8727375,3.83552 C2.8201175,4.88926 2.2313175,6.2805 2.2313175,7.7969 C2.2313175,9.315 2.8201175,10.7046 3.8727375,11.7583 L11.3248975,19.2183 L0.7573875,29.8413 C-0.2524625,30.8522 -0.2524625,32.5382 0.7573875,33.5508 L6.4415975,39.241 C6.9464975,39.7464 7.5780975,40 8.2934975,40 C9.0089975,40 9.6405975,39.7464 10.1454975,39.241 L20.7146975,28.6606 L29.2624975,37.2174 C29.6834975,37.6389 30.1883975,37.9336 30.7788975,37.9764 L35.5780975,38.8194 C35.7046975,38.8622 35.8724975,38.8622 35.9990975,38.8622 C36.7573975,38.8622 37.4727975,38.5675 37.9776975,38.0192 C38.5664975,37.387 38.8625975,36.5012 38.7359975,35.617 L37.9365975,30.8537 C37.8526975,30.2643 37.5582975,29.7571 37.1783975,29.3356 L28.6735975,20.7363 L39.2427975,10.1559 C40.2526975,9.145 40.2526975,7.459 39.2411975,6.4481 L39.2409975,6.4484 Z M13.0519975,17.575 L8.2936975,12.7708 L12.7984975,8.2612 L17.5567975,13.0245 L13.0519975,17.575 Z M4.6309275,7.7967 C4.6309275,6.9537 4.9253775,6.1536 5.5568975,5.5213 C6.1884975,4.93192 7.0305975,4.59438 7.8299975,4.59438 C8.6720975,4.59438 9.4713975,4.8891 10.1029975,5.5213 L11.1127975,6.5323 L6.5683975,11.0848 L5.5584975,10.0739 C4.9681075,9.44 4.6309275,8.6399 4.6309275,7.7969 L4.6309275,7.7967 Z M36.2935975,36.2907 C36.2507975,36.3335 36.1669975,36.4175 35.9991975,36.3746 L31.0303975,35.4888 L30.2720975,34.7726 L34.7769975,30.263 L35.5351975,31.0221 C35.5779975,31.0649 35.6190975,31.1489 35.6190975,31.2328 L36.3772975,35.9961 C36.4200975,36.1641 36.3361975,36.2481 36.2933975,36.2909 L36.2935975,36.2907 Z M33.0517975,28.5769 L28.5469975,33.0865 L22.4417975,26.9748 L26.9465975,22.4652 L33.0517975,28.5769 Z M37.5157975,8.472 L8.4632975,37.5552 C8.3793975,37.6391 8.2527975,37.6391 8.1688975,37.5552 L2.4830075,31.865 C2.3991275,31.781 2.3991275,31.6542 2.4830075,31.5703 L4.5454875,29.5056 L6.6079975,31.5703 C6.8612975,31.8238 7.1556975,31.9078 7.4500975,31.9078 C7.7444975,31.9078 8.0815975,31.781 8.2921975,31.5703 C8.7559975,31.1059 8.7559975,30.3486 8.2921975,29.8414 L6.2296975,27.7768 L9.1342975,24.8691 L11.1967975,26.9338 C11.4499975,27.1874 11.7444975,27.2713 12.0388975,27.2713 C12.3332975,27.2713 12.6703975,27.1446 12.8809975,26.9338 C13.3447975,26.4695 13.3447975,25.7121 12.8809975,25.205 L10.8184975,23.1403 L13.7230975,20.2327 L17.0519975,23.3923 C17.3052975,23.6458 17.5996975,23.7298 17.8940975,23.7298 C18.1884975,23.7298 18.5256975,23.603 18.7361975,23.3923 C19.1999975,22.928 19.1999975,22.1706 18.7361975,21.6635 L15.5354975,18.4594 L18.4400975,15.5518 L20.5025975,17.6164 C20.7558975,17.87 21.0502975,17.954 21.3446975,17.954 C21.6390975,17.954 21.9762975,17.8272 22.1867975,17.6164 C22.6505975,17.1521 22.6505975,16.3948 22.1867975,15.8876 L20.1242975,13.823 L23.0288975,10.9153 L25.0913975,12.98 C25.3445975,13.2335 25.6390975,13.3175 25.9334975,13.3175 C26.2278975,13.3175 26.5649975,13.1907 26.7755975,12.98 C27.2393975,12.5157 27.2393975,11.7583 26.7755975,11.2512 L24.7130975,9.1865 L27.6176975,6.2789 L30.9465975,9.4829 C31.1998975,9.7365 31.4942975,9.8204 31.7886975,9.8204 C32.0830975,9.8204 32.4202975,9.6937 32.6307975,9.4829 C33.0945975,9.0186 33.0945975,8.2613 32.6307975,7.7541 L29.4300975,4.55008 L31.4925975,2.48542 L31.7869975,2.48542 L37.4711975,8.1756 C37.5994975,8.2612 37.5994975,8.3864 37.5155975,8.472 L37.5157975,8.472 Z" id="Shape"></path>
        </g>
    </g>
</svg>