<svg width="842" height="693" viewBox="0 0 842 693" fill="none" xmlns="http://www.w3.org/2000/svg">
<path opacity="0.7" d="M584.899 55.6636C526.151 8.35759 433.202 0.340364 429.217 0.0598354C426.189 -0.189507 423.158 0.509361 420.545 2.0596C417.932 3.60983 415.866 5.93467 414.633 8.71194C412.86 12.7017 411.356 16.8056 410.131 20.9961C448.996 27.5664 496.733 40.7808 539.923 67.5935C541.571 68.6163 543.001 69.9537 544.132 71.5293C545.263 73.1049 546.072 74.8879 546.514 76.7765C546.956 78.6651 547.022 80.6223 546.708 82.5363C546.394 84.4503 545.706 86.2837 544.683 87.9318C543.661 89.5799 542.324 91.0104 540.749 92.1416C539.174 93.2729 537.391 94.0827 535.503 94.5248C533.615 94.967 531.658 95.0328 529.745 94.7186C527.831 94.4044 525.998 93.7162 524.35 92.6934C450.103 46.5833 357.375 44.2948 339.5 44.2948C321.639 44.2948 228.853 46.5981 154.65 92.6787C153.002 93.7015 151.169 94.3896 149.256 94.7038C147.342 95.0181 145.385 94.9522 143.497 94.5101C139.684 93.6171 136.382 91.2455 134.317 87.9171C132.251 84.5886 131.593 80.5759 132.486 76.7617C133.378 72.9476 135.749 69.6443 139.077 67.5787C182.267 40.8399 230.004 27.5664 268.869 21.0552C266.626 13.7319 264.589 9.11058 264.441 8.71194C263.213 5.91505 261.137 3.57498 258.507 2.02242C255.876 0.469855 252.825 -0.216678 249.783 0.0598354C245.798 0.355129 152.849 8.35758 93.2887 56.2985C62.2171 85.0601 0 253.245 0 398.647C0 401.246 0.693759 403.726 1.96319 405.97C44.8583 481.418 161.971 501.129 188.659 502H189.116C191.445 502.006 193.743 501.461 195.821 500.409C197.899 499.356 199.698 497.827 201.073 495.946L228.041 458.798C155.225 440.003 118.028 408.052 115.902 406.148C112.966 403.555 111.18 399.903 110.936 395.993C110.693 392.083 112.012 388.237 114.603 385.3C117.195 382.363 120.847 380.576 124.756 380.332C128.664 380.089 132.51 381.408 135.446 384.001C136.302 384.813 204.807 442.941 339.5 442.941C474.414 442.941 542.92 384.576 543.613 384.001C546.559 381.427 550.405 380.127 554.307 380.388C558.209 380.648 561.849 382.446 564.426 385.388C565.702 386.839 566.68 388.526 567.304 390.354C567.927 392.182 568.185 394.116 568.062 396.043C567.938 397.971 567.436 399.856 566.585 401.589C565.733 403.323 564.548 404.872 563.098 406.148C560.972 408.052 523.775 440.003 450.959 458.798L477.942 495.946C479.315 497.825 481.112 499.353 483.187 500.405C485.263 501.457 487.557 502.004 489.884 502H490.327C517.044 501.129 634.142 481.403 677.052 405.97C678.306 403.726 679 401.246 679 398.647C679 253.245 616.783 85.0749 584.899 55.6636ZM243.554 339.588C215.007 339.588 191.891 313.16 191.891 280.53C191.891 247.9 215.007 221.471 243.554 221.471C272.102 221.471 295.217 247.9 295.217 280.53C295.217 313.16 272.102 339.588 243.554 339.588ZM435.446 339.588C406.898 339.588 383.783 313.16 383.783 280.53C383.783 247.9 406.898 221.471 435.446 221.471C463.993 221.471 487.109 247.9 487.109 280.53C487.109 313.16 463.993 339.588 435.446 339.588Z" fill="#E6EDFA"/>
<path opacity="0.7" d="M805.552 520.511C782.796 502.23 746.794 499.132 745.25 499.023C744.078 498.927 742.904 499.197 741.892 499.796C740.88 500.395 740.079 501.293 739.602 502.367C738.915 503.909 738.332 505.495 737.858 507.114C752.912 509.653 771.402 514.76 788.131 525.122C788.769 525.517 789.323 526.034 789.761 526.643C790.199 527.252 790.513 527.941 790.684 528.671C790.855 529.4 790.88 530.157 790.759 530.897C790.637 531.636 790.371 532.345 789.975 532.982C789.579 533.619 789.061 534.171 788.451 534.609C787.84 535.046 787.15 535.359 786.419 535.53C785.687 535.7 784.929 535.726 784.188 535.604C783.447 535.483 782.737 535.217 782.099 534.822C753.34 517.002 717.424 516.118 710.5 516.118C703.582 516.118 667.642 517.008 638.901 534.816C638.263 535.211 637.553 535.477 636.812 535.599C636.071 535.72 635.313 535.695 634.581 535.524C633.104 535.179 631.825 534.262 631.025 532.976C630.226 531.69 629.97 530.139 630.316 528.665C630.662 527.191 631.58 525.914 632.869 525.116C649.598 514.783 668.088 509.653 683.142 507.137C682.273 504.307 681.484 502.521 681.427 502.367C680.951 501.286 680.147 500.382 679.128 499.782C678.11 499.182 676.928 498.916 675.75 499.023C674.206 499.137 638.204 502.23 615.134 520.757C603.099 531.872 579 596.867 579 653.059C579 654.063 579.269 655.022 579.76 655.889C596.375 685.046 641.737 692.663 652.074 693H652.251C653.153 693.002 654.043 692.792 654.848 692.385C655.653 691.978 656.35 691.387 656.882 690.661L667.328 676.305C639.124 669.041 624.716 656.693 623.893 655.957C622.756 654.956 622.064 653.544 621.969 652.033C621.875 650.522 622.386 649.036 623.39 647.901C624.394 646.766 625.808 646.075 627.322 645.981C628.836 645.887 630.326 646.397 631.463 647.399C631.794 647.712 658.329 670.176 710.5 670.176C762.757 670.176 789.291 647.621 789.56 647.399C790.701 646.404 792.191 645.902 793.702 646.002C795.214 646.103 796.623 646.798 797.622 647.935C798.116 648.495 798.495 649.147 798.736 649.854C798.978 650.56 799.078 651.308 799.03 652.053C798.982 652.798 798.788 653.526 798.458 654.196C798.128 654.866 797.669 655.464 797.107 655.957C796.284 656.693 781.876 669.041 753.672 676.305L764.123 690.661C764.655 691.387 765.351 691.977 766.155 692.384C766.959 692.79 767.848 693.001 768.749 693H768.92C779.269 692.663 824.625 685.04 841.245 655.889C841.731 655.022 842 654.063 842 653.059C842 596.867 817.901 531.878 805.552 520.511ZM673.337 630.235C662.28 630.235 653.326 620.022 653.326 607.412C653.326 594.802 662.28 584.588 673.337 584.588C684.394 584.588 693.348 594.802 693.348 607.412C693.348 620.022 684.394 630.235 673.337 630.235ZM747.663 630.235C736.606 630.235 727.652 620.022 727.652 607.412C727.652 594.802 736.606 584.588 747.663 584.588C758.72 584.588 767.674 594.802 767.674 607.412C767.674 620.022 758.72 630.235 747.663 630.235Z" fill="#E6EDFA"/>
</svg>
