<svg width="99" height="100" viewBox="0 0 99 100" fill="none" xmlns="http://www.w3.org/2000/svg">
<path d="M98.0898 96L3.08984 0L44.0898 0L98.0898 55.1754V96Z" fill="#FF6C23"/>
<path d="M98.0898 96L95.0898 99.0547V92.9648L98.0898 96Z" fill="#9F3500"/>
<path d="M3.08984 0L6.22266 3L0 3L3.08984 0Z" fill="#9F3500"/>
<path d="M30.9315 15.2471L32.5224 16.8637L35.2864 14.1436L37.5941 16.4885L38.8114 15.2905L36.5038 12.9456L38.3897 11.0896L41.3062 14.0533L42.5735 12.8061L38.0662 8.22598L30.9315 15.2471ZM36.5031 20.9088L38.0841 22.5153L40.8382 19.8051L41.5256 20.5036L40.4507 24.9202L42.1397 26.6365L43.3172 21.7653C44.3916 22.358 45.579 22.427 46.6567 21.3664L46.6966 21.3271C48.1734 19.8738 47.8112 18.1285 46.1517 16.4422L43.6378 13.8876L36.5031 20.9088ZM41.9358 18.7249L43.9814 16.7119L44.875 17.6199C45.641 18.3982 45.8236 19.0828 45.0952 19.7996L45.0552 19.8389C44.3667 20.5165 43.6248 20.4412 42.8294 19.633L41.9358 18.7249ZM43.1008 27.6131L47.8339 32.4228L49.0912 31.1855L45.9391 27.9824L47.7153 26.2345L50.1113 28.6692L51.2888 27.5105L48.8927 25.0757L50.5592 23.4358L53.5542 26.4793L54.8115 25.242L50.2355 20.592L43.1008 27.6131ZM48.9409 33.5477L53.674 38.3573L54.9313 37.12L51.7792 33.9169L53.5554 32.169L55.9514 34.6038L57.1289 33.445L54.7328 31.0103L56.3993 29.3703L59.3943 32.4138L60.6516 31.1765L56.0756 26.5265L48.9409 33.5477ZM58.3326 43.0912L59.9332 44.7177L65.8106 38.9339L67.7058 40.8597L68.9631 39.6224L63.5721 34.1442L62.3148 35.3815L64.21 37.3074L58.3326 43.0912ZM62.8171 47.6482L64.3981 49.2548L67.1522 46.5445L67.8396 47.243L66.7647 51.6596L68.4537 53.3759L69.6312 48.5047C70.7055 49.0975 71.893 49.1664 72.9706 48.1058L73.0106 48.0666C74.4874 46.6132 74.1252 44.868 72.4656 43.1816L69.9518 40.6271L62.8171 47.6482ZM68.2498 45.4643L70.2954 43.4513L71.189 44.3593C71.955 45.1376 72.1376 45.8222 71.4091 46.539L71.3692 46.5783C70.6807 47.2559 69.9388 47.1806 69.1434 46.3724L68.2498 45.4643ZM69.4541 54.3925L71.0547 56.019L78.1894 48.9978L76.5887 47.3713L69.4541 54.3925ZM72.0582 57.0387L73.5508 58.5555L75.6186 57.4831L78.1619 60.0675L77.0565 62.1178L78.716 63.8042L83.5725 54.468L81.5005 52.3626L72.0582 57.0387ZM81.1261 54.6167L78.9658 58.589L77.1098 56.7031L81.1261 54.6167ZM79.6757 64.7794L84.1241 69.2997L85.3913 68.0526L82.5338 65.1488L88.4012 59.3748L86.8104 57.7582L79.6757 64.7794Z" fill="white"/>
</svg>
