<?xml version="1.0" encoding="UTF-8"?>
<svg width="80px" height="15px" viewBox="0 0 80 15" version="1.1" xmlns="http://www.w3.org/2000/svg" xmlns:xlink="http://www.w3.org/1999/xlink">
    <title>ubisoft</title>
    <g id="Page-1" stroke="none" stroke-width="1" fill="none" fill-rule="evenodd">
        <g id="ubisoft" transform="translate(0.161133, 0.000128)" fill="#000000" fill-rule="nonzero">
            <path d="M79.244567,3.2217 L75.159367,3.2217 L75.159367,14.704 L71.991067,14.704 L71.991067,3.2217 L67.885067,3.2217 L67.885067,0.247768 L79.244567,0.247768 L79.244567,3.2217 Z M59.853767,3.2217 L59.853767,6.56743 L66.044367,6.56743 L66.044367,8.96293 L59.853767,8.96293 L59.853767,14.704 L56.685967,14.704 L56.685967,0.247768 L66.669467,0.247768 L66.669467,3.2217 L59.853767,3.2217 Z M52.184567,7.47588 C52.184567,4.8738 50.517267,2.97375 47.974267,2.97375 C46.494467,2.97375 45.389867,3.53135 44.722967,4.25419 L45.223167,4.74996 C44.451867,5.3902 43.764167,6.27822 43.764167,7.8683 C43.764167,10.0576 45.327267,11.9779 47.974267,11.9779 C50.517267,11.9779 52.184567,10.078 52.184567,7.47588 Z M55.394367,7.47588 C55.394367,11.7302 52.309567,14.9518 47.974267,14.9518 C43.534967,14.9518 40.554367,11.7921 40.554367,7.97152 C40.554367,5.49324 41.533967,3.69659 42.972067,2.5193 L42.471867,2.02372 C43.576567,0.888017 45.598167,0 47.974267,0 C52.309567,0 55.394367,3.26289 55.394367,7.47588 Z M35.880267,6.09222 C38.381267,6.95966 39.673567,8.07486 39.673567,10.3052 C39.673567,13.2997 37.360067,14.9518 34.629767,14.9518 C32.107767,14.9518 30.169267,13.8367 29.356367,11.7714 L31.878367,9.91296 C32.337067,11.214 33.524967,12.0195 34.713067,12.0195 C35.755067,12.0195 36.505567,11.4617 36.505567,10.5324 C36.505567,9.66495 35.942667,9.12811 33.858467,8.3847 C31.607367,7.57909 29.939967,6.46402 29.939967,4.06839 C29.939967,1.75526 31.878467,0 34.692267,0 C36.922267,0 38.652367,0.888017 39.465267,2.64335 L36.943067,4.37797 C36.463867,3.30427 35.713467,2.70548 34.567167,2.70548 C33.608367,2.70548 32.899767,3.2217 32.899767,3.96515 C32.899767,4.81179 33.691667,5.328 35.880267,6.09222 Z M25.055867,0.247768 L28.223867,0.247768 L28.223867,14.704 L25.055867,14.704 L25.055867,0.247768 Z M18.534367,11.9367 C19.889067,11.9367 20.660267,11.3171 20.660267,10.1194 C20.660267,8.92155 19.889067,8.30212 18.534367,8.30212 L16.783567,8.30212 L16.783567,11.9367 L18.534367,11.9367 Z M16.783567,3.01513 L16.783567,6.07166 L18.451167,6.07166 C19.430567,6.07166 20.097567,5.51399 20.097567,4.54321 C20.097567,3.57273 19.430567,3.01513 18.451167,3.01513 L16.783567,3.01513 Z M23.828467,10.4084 C23.828467,12.9073 21.848467,14.704 18.659467,14.704 L13.615467,14.704 L13.615467,0.247768 L18.471967,0.247768 C21.285467,0.247768 23.140667,1.59009 23.140667,3.73778 C23.140667,5.36938 22.369467,6.36068 21.223067,6.83569 C22.765267,7.41392 23.828467,8.46729 23.828467,10.4084 Z M12.047167,0.247768 L12.047167,8.92155 C12.047167,12.3705 9.921167,14.9518 6.023557,14.9518 C2.125957,14.9518 4.71844785e-16,12.3705 4.71844785e-16,8.92155 L4.71844785e-16,0.247768 L3.168127,0.247768 L3.168127,8.67361 C3.168127,10.7802 4.168587,11.9779 6.023557,11.9779 C7.878527,11.9779 8.878977,10.7802 8.878977,8.67361 L8.878977,0.247768 L12.047167,0.247768 Z" id="Shape"></path>
        </g>
    </g>
</svg>