<svg width="34" height="34" viewBox="0 0 34 34" fill="none" xmlns="http://www.w3.org/2000/svg">
<circle cx="17" cy="17" r="16" fill="#F36D40"/>
<g clip-path="url(#clip0_3638_40987)">
<path d="M24.875 9.125H22.625V11.375H24.875V9.125Z" fill="white"/>
<path d="M24.875 12.5H22.625V14.75H24.875V12.5Z" fill="white"/>
<path d="M21.5 9.125H19.25V11.375H21.5V9.125Z" fill="white"/>
<path d="M21.5 12.5H19.25V14.75H21.5V12.5Z" fill="white"/>
<path d="M23.75 17V20.375H10.25V11.375H17V10.25H10.25C9.95163 10.25 9.66548 10.3685 9.4545 10.5795C9.24353 10.7905 9.125 11.0766 9.125 11.375V20.375C9.125 20.6734 9.24353 20.9595 9.4545 21.1705C9.66548 21.3815 9.95163 21.5 10.25 21.5H14.75V23.75H12.5V24.875H21.5V23.75H19.25V21.5H23.75C24.0484 21.5 24.3345 21.3815 24.5455 21.1705C24.7565 20.9595 24.875 20.6734 24.875 20.375V17H23.75ZM18.125 23.75H15.875V21.5H18.125V23.75Z" fill="white"/>
</g>
<defs>
<clipPath id="clip0_3638_40987">
<rect width="18" height="18" fill="white" transform="translate(8 8)"/>
</clipPath>
</defs>
</svg>
