<?xml version="1.0" encoding="UTF-8"?>
<svg width="19px" height="19px" viewBox="0 0 19 19" version="1.1" xmlns="http://www.w3.org/2000/svg" xmlns:xlink="http://www.w3.org/1999/xlink">
    <title>icon-01</title>
    <g id="Page-1" stroke="none" stroke-width="1" fill="none" fill-rule="evenodd">
        <g id="icon-01" transform="translate(1.000000, 1.000000)" fill="#F36D45" fill-rule="nonzero" stroke="#F36D45" stroke-width="0.2">
            <path d="M17.43755,7.03125 C17.43755,6.06572 16.87305,5.18597 16.01715,4.76438 C16.02615,4.67747 16.03125,4.58944 16.03125,4.5 C16.03125,3.10416 14.89555,1.96875 13.49995,1.96875 C13.47865,1.96875 13.45755,1.97241 13.43585,1.97297 C13.18075,0.84516 12.17245,0 10.96875,0 C9.98915,0 9.13922,0.560531 8.71875,1.377 C8.29828,0.560531 7.44834,0 6.46875,0 C5.274,0 4.25756,0.83109 4.00078,1.97184 C3.97969,1.97156 3.95887,1.96875 3.9375,1.96875 C2.54194,1.96875 1.40625,3.10416 1.40625,4.5 C1.40625,4.58578 1.41075,4.67241 1.42003,4.75931 C0.562219,5.18063 0,6.06656 0,7.03125 C0,7.67897 0.246656,8.26875 0.648281,8.71678 C0.234,9.17859 0,9.77935 0,10.40625 C0,11.37155 0.564469,12.25155 1.42031,12.67315 C1.41131,12.76005 1.40625,12.84805 1.40625,12.93755 C1.40625,14.33335 2.54194,15.46875 3.9375,15.46875 C3.95887,15.46875 3.97969,15.46595 4.00078,15.46565 C4.25756,16.60645 5.274,17.43755 6.46875,17.43755 C7.44834,17.43755 8.29828,16.87695 8.71875,16.06045 C9.13922,16.87695 9.98915,17.43755 10.96875,17.43755 C12.17245,17.43755 13.18075,16.59235 13.43585,15.46455 C13.45755,15.46505 13.47865,15.46875 13.49995,15.46875 C14.89555,15.46875 16.03125,14.33335 16.03125,12.93755 C16.03125,12.85175 16.02645,12.76535 16.01745,12.67815 C16.87525,12.25715 17.43755,11.37095 17.43755,10.40625 C17.43755,9.75855 17.19085,9.16875 16.78925,8.72072 C17.20355,8.25891 17.43755,7.65816 17.43755,7.03125 Z M15.60745,12.24365 L15.38665,12.32805 L15.43165,12.56005 C15.45635,12.68715 15.46875,12.81435 15.46875,12.93755 C15.46875,14.02285 14.58565,14.90625 13.49995,14.90625 C13.49995,13.51045 12.36435,12.37495 10.96875,12.37495 L10.96875,12.93755 C12.05435,12.93755 12.93755,13.82095 12.93755,14.90625 C12.93755,15.99155 12.05435,16.87495 10.96875,16.87495 C9.88315,16.87495 9,15.99155 9,14.90625 L9,4.21875 L8.4375,4.21875 L8.4375,14.90625 C8.4375,15.99155 7.55438,16.87495 6.46875,16.87495 C5.55553,16.87495 4.77759,16.25095 4.56103,15.38775 C5.65566,15.10905 6.46875,14.11765 6.46875,12.93755 L5.90625,12.93755 C5.90625,14.02285 5.02313,14.90625 3.9375,14.90625 C2.85188,14.90625 1.96875,14.02285 1.96875,12.93755 C1.96875,11.85215 2.85188,10.96875 3.9375,10.96875 L3.9375,10.40625 C2.83162,10.40625 1.89141,11.12035 1.54772,12.11065 C0.94837,11.76305 0.5625,11.11215 0.5625,10.40625 C0.5625,9.91855 0.74447,9.45141 1.06678,9.09197 C1.48078,9.387 1.98534,9.5625 2.53125,9.5625 L2.53125,9 C1.44563,9 0.5625,8.11659 0.5625,7.03125 C0.5625,6.22181 1.07212,5.48325 1.83009,5.19384 L2.05116,5.10919 L2.00588,4.87716 C1.98112,4.75087 1.96875,4.62375 1.96875,4.5 C1.96875,3.41466 2.85188,2.53125 3.9375,2.53125 C5.02313,2.53125 5.90625,3.41466 5.90625,4.5 L6.46875,4.5 C6.46875,3.31988 5.65566,2.32847 4.56103,2.04975 C4.77759,1.18659 5.55553,0.5625 6.46875,0.5625 C7.55438,0.5625 8.4375,1.44591 8.4375,2.53125 L8.4375,3.65625 L9,3.65625 L9,2.53125 C9,1.44591 9.88315,0.5625 10.96875,0.5625 C12.05435,0.5625 12.93755,1.44591 12.93755,2.53125 C12.93755,3.61659 12.05435,4.5 10.96875,4.5 L10.96875,5.0625 C12.36435,5.0625 13.49995,3.92709 13.49995,2.53125 C14.58565,2.53125 15.46875,3.41466 15.46875,4.5 C15.46875,5.58534 14.58565,6.46875 13.49995,6.46875 L13.49995,7.03125 C14.60585,7.03125 15.54605,6.31716 15.88975,5.32659 C16.48915,5.67422 16.87495,6.32531 16.87495,7.03125 C16.87495,7.51894 16.69305,7.98609 16.37075,8.34553 C15.95675,8.0505 15.45215,7.875 14.90625,7.875 C13.51065,7.875 12.37495,9.01041 12.37495,10.40625 L12.93755,10.40625 C12.93755,9.32091 13.82065,8.4375 14.90625,8.4375 C15.99185,8.4375 16.87495,9.32091 16.87495,10.40625 C16.87495,11.21565 16.36535,11.95425 15.60745,12.24365 Z" id="Shape"></path>
            <path d="M11.81255,2.53125 L12.37495,2.53125 C12.37495,1.75584 11.74415,1.125 10.96875,1.125 L10.96875,1.6875 C11.43395,1.6875 11.81255,2.06606 11.81255,2.53125 Z" id="Path"></path>
            <path d="M10.12495,14.90625 L9.5625,14.90625 C9.5625,15.68165 10.19335,16.31255 10.96875,16.31255 L10.96875,15.74995 C10.50355,15.74995 10.12495,15.37145 10.12495,14.90625 Z" id="Path"></path>
            <path d="M14.90625,11.24995 L14.90625,11.81255 C15.68165,11.81255 16.31255,11.18165 16.31255,10.40625 L15.74995,10.40625 C15.74995,10.87145 15.37145,11.24995 14.90625,11.24995 Z" id="Path"></path>
            <path d="M10.68755,10.12495 L10.12495,10.12495 C10.12495,11.05565 10.88185,11.81255 11.81255,11.81255 L11.81255,11.24995 C11.19205,11.24995 10.68755,10.74545 10.68755,10.12495 Z" id="Path"></path>
            <path d="M11.24995,6.1875 L11.24995,5.625 C10.31935,5.625 9.5625,6.38184 9.5625,7.3125 L10.12495,7.3125 C10.12495,6.69206 10.62955,6.1875 11.24995,6.1875 Z" id="Path"></path>
            <path d="M6.75,10.12495 L6.1875,10.12495 C6.1875,11.05565 6.94434,11.81255 7.875,11.81255 L7.875,11.24995 C7.25456,11.24995 6.75,10.74545 6.75,10.12495 Z" id="Path"></path>
            <path d="M10.96875,7.59375 L10.40625,7.59375 C10.40625,8.52441 11.16305,9.28125 12.09375,9.28125 L12.09375,8.71875 C11.47335,8.71875 10.96875,8.21419 10.96875,7.59375 Z" id="Path"></path>
            <path d="M7.3125,6.1875 L7.3125,5.625 C6.38184,5.625 5.625,6.38184 5.625,7.3125 L6.1875,7.3125 C6.1875,6.69206 6.69206,6.1875 7.3125,6.1875 Z" id="Path"></path>
            <path d="M3.65625,9.84375 L4.21875,9.84375 C4.21875,9.22331 4.72331,8.71875 5.34375,8.71875 L5.34375,8.15625 C4.41309,8.15625 3.65625,8.91309 3.65625,9.84375 Z" id="Path"></path>
            <path d="M3.9375,13.78125 L3.9375,14.34375 C4.71291,14.34375 5.34375,13.71295 5.34375,12.93755 L4.78125,12.93755 C4.78125,13.40265 4.40269,13.78125 3.9375,13.78125 Z" id="Path"></path>
            <path d="M1.125,7.03125 L1.6875,7.03125 C1.6875,6.56606 2.06606,6.1875 2.53125,6.1875 L2.53125,5.625 C1.75584,5.625 1.125,6.25584 1.125,7.03125 Z" id="Path"></path>
            <path d="M3.9375,3.09375 L3.9375,3.65625 C4.40269,3.65625 4.78125,4.03481 4.78125,4.5 L5.34375,4.5 C5.34375,3.72459 4.71291,3.09375 3.9375,3.09375 Z" id="Path"></path>
            <path d="M6.46875,1.125 L6.46875,1.6875 C6.93394,1.6875 7.3125,2.06606 7.3125,2.53125 L7.875,2.53125 C7.875,1.75584 7.24416,1.125 6.46875,1.125 Z" id="Path"></path>
        </g>
    </g>
</svg>