<?xml version="1.0" encoding="UTF-8"?>
<svg width="20px" height="20px" viewBox="0 0 20 20" version="1.1" xmlns="http://www.w3.org/2000/svg" xmlns:xlink="http://www.w3.org/1999/xlink">
    <title>icon-09</title>
    <g id="Page-1" stroke="none" stroke-width="1" fill="none" fill-rule="evenodd">
        <g id="icon-09" transform="translate(0.999991, 1.000001)" fill="#F36D45" stroke="#F36D45" stroke-width="0.2">
            <path d="M8.64939851,0.0369793505 C8.27227851,0.0920693505 7.81517851,0.333219351 7.52365851,0.630919351 C7.12576851,1.03722935 6.92399851,1.52624935 6.92304851,2.08664935 C6.92209851,2.65430935 7.11059851,3.11695935 7.51246851,3.53329935 C7.64313851,3.66864935 7.74573851,3.78057935 7.74047851,3.78203935 C7.73525851,3.78348935 7.58418851,3.85760935 7.40480851,3.94669935 C6.28976851,4.50067935 5.51304851,5.71769935 5.51304851,6.91088935 C5.51304851,7.39455935 5.15884851,7.34990935 8.99534851,7.34990935 C12.8319085,7.34990935 12.4777085,7.39455935 12.4777085,6.91088935 C12.4777085,5.71769935 11.7009085,4.50067935 10.5859085,3.94669935 C10.4065085,3.85760935 10.2557085,3.78372935 10.2508085,3.78261935 C10.2458085,3.78144935 10.3484085,3.66831935 10.4788085,3.53113935 C10.8846085,3.10409935 11.0686085,2.65268935 11.0676085,2.08664935 C11.0659085,1.06346935 10.3061085,0.179549351 9.30390851,0.0346993505 C8.98125851,-0.0119396495 8.98419851,-0.0119396495 8.64939851,0.0369793505 Z M9.63870851,0.788119351 C9.89420851,0.919579351 10.2143085,1.25437935 10.3350085,1.51633935 C10.4063085,1.67104935 10.4252085,1.78981935 10.425409,2.08498935 C10.4255085,2.41053935 10.4107085,2.48843935 10.3088085,2.69600935 C9.85640851,3.61724935 8.68679851,3.82199935 7.97022851,3.10542935 C7.67240851,2.80756935 7.56507851,2.53710935 7.56532807,2.08498935 C7.56557851,1.63506935 7.64632851,1.42711935 7.94464851,1.10819935 C8.27753851,0.752299351 8.53087851,0.652349351 9.05750851,0.669139351 C9.36240851,0.678839351 9.46870851,0.700609351 9.63870851,0.788119351 Z M5.15386851,2.14837935 C3.88502851,2.80748935 2.82896851,3.75479935 2.01261851,4.96618935 C1.73291851,5.38123935 1.26280851,6.31296935 1.11944851,6.73639935 C1.00167851,7.08425935 1.02654851,7.23162935 1.21860851,7.32370935 C1.32096851,7.37274935 1.35591851,7.37170935 1.47252851,7.31611935 C1.57998851,7.26487935 1.62235851,7.20638935 1.67889851,7.03131935 C1.79696851,6.66575935 2.25098851,5.75131935 2.50859851,5.36013935 C3.20779851,4.29836935 4.21832851,3.36589935 5.28196851,2.80101935 C5.91570851,2.46439935 6.03484851,2.31121935 5.83432851,2.09066935 C5.67219851,1.91227935 5.59587851,1.91878935 5.15386851,2.14837935 Z M12.2831085,1.98213935 C12.1508085,2.03486935 12.0490085,2.20976935 12.0796085,2.33177935 C12.1108085,2.45580935 12.1722085,2.50120935 12.7174085,2.80271935 C13.8343085,3.42036935 14.7448085,4.25972935 15.4636085,5.33435935 C15.7287085,5.73058935 16.1894085,6.65232935 16.3118085,7.03131935 C16.3683085,7.20638935 16.4107085,7.26487935 16.5182085,7.31611935 C16.6348085,7.37170935 16.6697085,7.37274935 16.7721085,7.32370935 C16.9641085,7.23162935 16.9890085,7.08425935 16.8712085,6.73639935 C16.7275085,6.31188935 16.2573085,5.38045935 15.9776085,4.96618935 C15.1583085,3.75272935 14.0165085,2.73294935 12.7859085,2.11557935 C12.4719085,1.95808935 12.3948085,1.93760935 12.2831085,1.98213935 Z M9.67050851,4.25914935 C10.5893085,4.49416935 11.3179085,5.13299935 11.6587085,6.00258935 C11.7169085,6.15078935 11.7770085,6.33733935 11.7925085,6.41714935 C11.8079085,6.49694935 11.8297085,6.59486935 11.8410085,6.63478935 C11.8603085,6.70339935 11.7052085,6.70733935 8.99916851,6.70733935 L6.13695851,6.70733935 L6.16157851,6.57260935 C6.21294851,6.29157935 6.39539851,5.80744935 6.54028851,5.56770935 C7.18413851,4.50236935 8.48883851,3.95693935 9.67050851,4.25914935 Z M2.94276851,7.72006935 C2.38883851,7.87386935 1.86830851,8.29493935 1.62765851,8.78382935 C1.46199851,9.12039935 1.41104851,9.34309935 1.41038851,9.73359935 C1.40943851,10.2977994 1.59333851,10.7482994 1.99545851,11.1670994 L2.23971851,11.4213994 L2.06000851,11.4899994 C1.74103851,11.6118994 1.26329851,11.9603994 0.924028505,12.3188994 C0.365408505,12.9089994 -0.00143849465,13.7738994 4.2401443e-06,14.4972994 C0.000388505351,14.6703994 0.0143585054,14.8324994 0.0311085054,14.8575994 C0.122308505,14.9941994 0.230008505,14.9984994 3.49409851,14.9984994 C6.72073851,14.9984994 6.74635851,14.9978994 6.85476851,14.9125994 C6.95011851,14.8375994 6.96400851,14.7963994 6.96400851,14.5885994 C6.96400851,13.7992994 6.61212851,12.9402994 6.03248851,12.3143994 C5.74602851,12.0050994 5.21244851,11.6182994 4.90115851,11.4943994 L4.72458851,11.4239994 L4.96333851,11.1678994 C5.36699851,10.7349994 5.55449851,10.2799994 5.55449851,9.73359935 C5.55449851,8.80869935 4.93298851,7.99412935 4.02344851,7.72694935 C3.75758851,7.64884935 3.21165851,7.64535935 2.94276851,7.72006935 Z M13.8872085,7.75517935 C13.5228085,7.87983935 13.2858085,8.02613935 13.0297085,8.28457935 C12.4012085,8.91859935 12.2545085,9.92199935 12.6759085,10.7030994 C12.7379085,10.8178994 12.8952085,11.0261994 13.0257085,11.1660994 L13.2627085,11.4203994 L13.0481085,11.5200994 C11.8905085,12.0581994 11.1091085,13.1860994 11.0382085,14.4210994 C11.0155085,14.8167994 11.0158085,14.8180994 11.1303085,14.9081994 L11.2452085,14.9984994 L14.5090085,14.9984994 C18.3470085,14.9984994 17.9913085,15.0489994 17.9913085,14.5046994 C17.9913085,14.0641994 17.8691085,13.6103994 17.6125085,13.0976994 C17.4436085,12.7601994 17.3270085,12.5937994 17.0667085,12.3188994 C16.7274085,11.9603994 16.2497085,11.6118994 15.9307085,11.4899994 L15.7510085,11.4213994 L15.9952085,11.1670994 C16.3974085,10.7482994 16.5813085,10.2977994 16.5803085,9.73359935 C16.5793085,9.13799935 16.3901085,8.67579935 15.9795085,8.26562935 C15.4294085,7.71612935 14.5957085,7.51274935 13.8872085,7.75517935 Z M4.13537851,8.44670935 C4.44525851,8.61186935 4.65415851,8.83149935 4.80269851,9.14829935 C4.89435851,9.34379935 4.91172851,9.43799935 4.91072851,9.73359935 C4.90927851,10.1653994 4.79050851,10.4583994 4.49844851,10.7503994 C4.20336851,11.0454994 3.91225851,11.1638994 3.48169851,11.1638994 C3.18760851,11.1638994 3.09080851,11.1457994 2.89633851,11.0545994 C2.58093851,10.9066994 2.36097851,10.6981994 2.19237851,10.3872994 C2.06025851,10.1436994 2.05146851,10.1028994 2.05150837,9.73359935 C2.05154851,9.27969935 2.12446851,9.07189935 2.38480851,8.78370935 C2.72164851,8.41088935 3.04624851,8.27387935 3.54387851,8.29447935 C3.82520851,8.30608935 3.91495851,8.32921935 4.13537851,8.44670935 Z M15.1361085,8.42120935 C15.4106085,8.55225935 15.7208085,8.86694935 15.8489085,9.14419935 C15.9216085,9.30169935 15.9392085,9.41659935 15.9392085,9.73359935 C15.9392085,10.1028994 15.9304085,10.1436994 15.7983085,10.3872994 C15.6297085,10.6981994 15.4098085,10.9066994 15.0944085,11.0545994 C14.8999085,11.1457994 14.8031085,11.1638994 14.5090085,11.1638994 C14.2137085,11.1638994 14.1184085,11.1458994 13.9205085,11.0531994 C13.6184085,10.9115994 13.3300085,10.6226994 13.1907085,10.3220994 C13.0336085,9.98339935 13.0318085,9.48129935 13.1866085,9.15129935 C13.3714085,8.75746935 13.6585085,8.49835935 14.0880085,8.33800935 C14.3353085,8.24564935 14.8548085,8.28689935 15.1361085,8.42120935 Z M4.20717851,11.9096994 C4.99728851,12.1202994 5.71223851,12.7133994 6.05744851,13.4447994 C6.17973851,13.7038994 6.34742851,14.2912994 6.31459851,14.3455994 C6.28856851,14.3886994 0.621228505,14.3849994 0.621228505,14.3418994 C0.621228505,14.2156994 0.804178505,13.6327994 0.912088505,13.4150994 C1.31814851,12.5961994 2.09946851,12.0135994 3.01560851,11.8464994 C3.28710851,11.7969994 3.90794851,11.8298994 4.20717851,11.9096994 Z M15.3606085,11.9479994 C16.3214085,12.2514994 17.0380085,13.0110994 17.2888085,13.9916994 C17.3332085,14.1651994 17.3695085,14.3228994 17.3695085,14.3421994 C17.3695085,14.3614994 16.0869085,14.3724994 14.5194085,14.3665994 L11.6693085,14.3559994 L11.6838085,14.2315994 C11.6917085,14.1631994 11.7426085,13.9672994 11.7967085,13.7962994 C12.2639085,12.3203994 13.8824085,11.4809994 15.3606085,11.9479994 Z M4.11074851,15.9650994 C4.01958851,16.0620994 3.99827851,16.1771994 4.04765851,16.3058994 C4.08915851,16.4139994 4.77180851,16.8452994 5.32648851,17.1138994 C6.52879851,17.6959994 7.65569851,17.9536994 8.99534851,17.9529012 C10.3519085,17.9519994 11.4533085,17.7001994 12.6642085,17.1138994 C13.2189085,16.8452994 13.9015085,16.4139994 13.9430085,16.3058994 C13.9922085,16.1777994 13.9712085,16.0517994 13.8855085,15.9598994 C13.7447085,15.8086994 13.5780085,15.8422994 13.1824085,16.1016994 C12.4316085,16.5939994 11.4839085,16.9815994 10.5316085,17.1856994 C10.0467085,17.2895994 9.94150851,17.2972994 8.99534851,17.2972994 C8.04923851,17.2972994 7.94402851,17.2895994 7.45907851,17.1856994 C6.51528851,16.9833994 5.55006851,16.5887994 4.80828851,16.1018994 C4.41068851,15.8409994 4.25588851,15.8105994 4.11074851,15.9650994 Z" id="Shape"></path>
        </g>
    </g>
</svg>