<?xml version="1.0" encoding="UTF-8"?>
<svg width="17px" height="14px" viewBox="0 0 17 14" version="1.1" xmlns="http://www.w3.org/2000/svg" xmlns:xlink="http://www.w3.org/1999/xlink">
    <title>icon-05</title>
    <g id="Page-1" stroke="none" stroke-width="1" fill="none" fill-rule="evenodd">
        <g id="icon-05" transform="translate(0.218750, 0.240720)" fill="#F36D45" fill-rule="nonzero">
            <path d="M1.29902,1.50015 C1.46471,1.50015 1.59902,1.36583 1.59902,1.20015 C1.59902,1.03446 1.46471,0.90015 1.29902,0.90015 C1.13334,0.90015 0.99902,1.03446 0.99902,1.20015 C0.99902,1.36583 1.13334,1.50015 1.29902,1.50015 Z" id="Path"></path>
            <path d="M3.3,1.50015 C3.46569,1.50015 3.6,1.36583 3.6,1.20015 C3.6,1.03446 3.46569,0.90015 3.3,0.90015 C3.13431,0.90015 3,1.03446 3,1.20015 C3,1.36583 3.13431,1.50015 3.3,1.50015 Z" id="Path"></path>
            <path d="M2.30098,1.50015 C2.46666,1.50015 2.60098,1.36583 2.60098,1.20015 C2.60098,1.03446 2.46666,0.90015 2.30098,0.90015 C2.13529,0.90015 2.00098,1.03446 2.00098,1.20015 C2.00098,1.36583 2.13529,1.50015 2.30098,1.50015 Z" id="Path"></path>
            <path d="M4.50023,5.55315 L5.40023,4.65315 C5.45673,4.59666 5.48846,4.52004 5.48846,4.44015 C5.48846,4.36026 5.45673,4.28364 5.40023,4.22715 C5.34374,4.17066 5.26712,4.13892 5.18723,4.13892 C5.10734,4.13892 5.03072,4.17066 4.97423,4.22715 L3.85823,5.34615 C3.80236,5.40235 3.771,5.47839 3.771,5.55765 C3.771,5.6369 3.80236,5.71294 3.85823,5.76915 L4.97423,6.88813 C5.00212,6.91623 5.0353,6.93863 5.07186,6.95383 C5.10842,6.96903 5.14763,6.97693 5.18723,6.97693 C5.22684,6.97693 5.26605,6.96903 5.30261,6.95383 C5.33916,6.93863 5.37234,6.91623 5.40023,6.88813 C5.45611,6.83193 5.48747,6.75593 5.48747,6.67663 C5.48747,6.59743 5.45611,6.52133 5.40023,6.46515 L4.50023,5.55315 Z" id="Path"></path>
            <path d="M8.7962,6.88213 C8.8524,6.93793 8.9284,6.96933 9.0077,6.96933 C9.0869,6.96933 9.163,6.93793 9.2192,6.88213 L10.3382,5.7781 C10.3941,5.72189 10.4254,5.64585 10.4254,5.5666 C10.4254,5.48734 10.3941,5.41131 10.3382,5.3551 L9.2192,4.2361 C9.1627,4.18 9.0862,4.14865 9.0066,4.14892814 C8.927,4.14921 8.8508,4.18111 8.7947,4.2376 C8.7386,4.29409 8.7072,4.37055 8.70749787,4.45016 C8.7078,4.52977 8.7397,4.606 8.7962,4.6621 L9.6962,5.5621 L8.7962,6.4621 C8.7412,6.51813 8.7104,6.59353 8.7104,6.67213 C8.7104,6.75063 8.7412,6.82603 8.7962,6.88213 Z" id="Path"></path>
            <path d="M7.80018,4.32313 C7.76594,4.30329 7.72811,4.29043 7.68888,4.28527 C7.64964,4.28012 7.60978,4.28278 7.57158,4.29309 C7.53337,4.30341 7.49759,4.32118 7.46629,4.34539 C7.43498,4.3696 7.40877,4.39975 7.38918,4.43413 L6.28218,6.37813 C6.26047,6.41228 6.2459,6.45046 6.23933,6.49043 C6.23276,6.53033 6.23434,6.57113 6.24397,6.61043 C6.25359,6.64973 6.27107,6.68673 6.29534,6.71903 C6.31962,6.75143 6.35019,6.77853 6.38522,6.79883 C6.42025,6.81903 6.45901,6.83203 6.49918,6.83693 C6.53934,6.84173 6.58008,6.83843 6.61894,6.82723 C6.6578,6.81593 6.69397,6.79693 6.72529,6.77133 C6.75661,6.74563 6.78242,6.71403 6.80118,6.67813 L7.92018,4.74313 C7.94111,4.70798 7.95463,4.66892 7.95991,4.62835 C7.96519,4.58778 7.96212,4.54655 7.95088,4.50722 C7.93964,4.46788 7.92047,4.43125 7.89455,4.3996 C7.86864,4.36794 7.83652,4.34192 7.80018,4.32313 Z" id="Path"></path>
            <path d="M15.258,8.47803 C15.2403,8.47783 15.2231,8.47233 15.2086,8.46213 C15.1941,8.45193 15.1831,8.43763 15.177,8.42103 C15.0576,8.10703 14.8885,7.81423 14.676,7.55403 C14.6659,7.53943 14.6605,7.52223 14.6605,7.50453 C14.6605,7.48683 14.6659,7.46953 14.676,7.45503 C14.7674,7.29663 14.7922,7.10853 14.7449,6.93183 C14.6977,6.75523 14.5822,6.60463 14.424,6.51303 L14.199,6.378 L14.199,0.9 C14.199,0.66131 14.1042,0.43239 13.9354,0.26361 C13.7666,0.09482 13.5377,0 13.299,0 L0.9,0 C0.66131,0 0.43239,0.09482 0.2636,0.26361 C0.09482,0.43239 0,0.66131 0,0.9 L0,8.50203 C0.00079,8.68713 0.07469,8.86453 0.2056,8.99543 C0.33652,9.12633 0.51386,9.20023 0.699,9.20103 L4.8,9.20103 L4.5,10.31103 L4.101,10.31103 C3.8088,10.31123 3.5252,10.40993 3.29602,10.59123 C3.06685,10.77243 2.90548,11.02573 2.838,11.31003 L2.1,11.31003 C2.02043,11.31003 1.94413,11.34163 1.88787,11.39783 C1.83161,11.45413 1.8,11.53043 1.8,11.61003 C1.8,11.68953 1.83161,11.76583 1.88787,11.82213 C1.94413,11.87843 2.02043,11.91003 2.1,11.91003 L9.741,11.91003 C9.7359,11.98163 9.743,12.05373 9.762,12.12303 C9.7845,12.21103 9.8245,12.29353 9.8797,12.36573 C9.9348,12.43793 10.004,12.49823 10.083,12.54303 L10.716,12.90903 C10.7946,12.95413 10.8813,12.98333 10.9712,12.99493 C11.0611,13.00653 11.1523,13.00033 11.2398,12.97663 C11.3273,12.95293 11.4092,12.91223 11.481,12.85693 C11.5528,12.80153 11.6129,12.73263 11.658,12.65403 C11.6677,12.63873 11.6817,12.62653 11.6982,12.61913 C11.7147,12.61163 11.7331,12.60913 11.751,12.61203 C12.0806,12.66903 12.4174,12.66903 12.747,12.61203 C12.7652,12.60903 12.784,12.61173 12.8006,12.61983 C12.8172,12.62783 12.831,12.64083 12.84,12.65703 C12.9011,12.76173 12.9888,12.84843 13.0941,12.90843 C13.1995,12.96853 13.3188,12.99973 13.44,12.99903 C13.561,13.00013 13.68,12.96913 13.785,12.90903 L14.418,12.54303 C14.4966,12.49763 14.5654,12.43723 14.6205,12.36513 C14.6756,12.29303 14.7159,12.21073 14.739,12.12303 C14.7629,12.03583 14.7691,11.94463 14.7572,11.85503 C14.7454,11.76543 14.7157,11.67903 14.67,11.60103 C14.6597,11.58603 14.6542,11.56823 14.6542,11.55003 C14.6542,11.53183 14.6597,11.51403 14.67,11.49903 C14.8818,11.23943 15.0509,10.94773 15.171,10.63503 C15.1767,10.61813 15.1876,10.60353 15.2022,10.59333 C15.2168,10.58303 15.2342,10.57773 15.252,10.57803 C15.4348,10.57723 15.6098,10.50423 15.739,10.37503 C15.8683,10.24583 15.9412,10.07073 15.942,9.88803 L15.942,9.15603 C15.9389,8.97613 15.8656,8.80453 15.7379,8.67793 C15.6101,8.55123 15.4379,8.47953 15.258,8.47803 Z M0.6,0.9 C0.6,0.82044 0.63161,0.74413 0.68787,0.68787 C0.74413,0.63161 0.82043,0.6 0.9,0.6 L13.299,0.6 C13.3786,0.6 13.4549,0.63161 13.5111,0.68787 C13.5674,0.74413 13.599,0.82044 13.599,0.9 L13.599,1.8 L0.6,1.8 L0.6,0.9 Z M0.699,8.60103 C0.686,8.60103 0.67313,8.59843 0.66111,8.59343 C0.6491,8.58853 0.63819,8.58123 0.629,8.57203 C0.6198,8.56283 0.61251,8.55193 0.60754,8.53993 C0.60256,8.52783 0.6,8.51503 0.6,8.50203 L0.6,2.4 L13.599,2.4 L13.599,6.078 C13.457,6.0403 13.3067,6.04909 13.1701,6.10308 C13.0335,6.15707 12.9178,6.25343 12.84,6.378 C12.8307,6.3928 12.8171,6.40444 12.801,6.41139 C12.785,6.41835 12.7672,6.42031 12.75,6.417 C12.4202,6.36298 12.0838,6.36298 11.754,6.417 C11.7368,6.42075 11.7189,6.419 11.7027,6.412 C11.6866,6.405 11.673,6.39311 11.664,6.378 C11.6189,6.29936 11.5588,6.23041 11.4869,6.17512 C11.4151,6.11984 11.333,6.07932 11.2455,6.05589 C11.1579,6.03247 11.0666,6.0266 10.9767,6.03864 C10.8869,6.05067 10.8003,6.08036 10.722,6.126 L10.089,6.49203 C10.0102,6.53633 9.9411,6.59613 9.886,6.66773 C9.8308,6.73943 9.7907,6.82143 9.768,6.90903 C9.72,7.08583 9.7437,7.27453 9.834,7.43403 C9.8449,7.44823 9.8509,7.46563 9.8509,7.48353 C9.8509,7.50143 9.8449,7.51883 9.834,7.53303 C9.6215,7.79323 9.4524,8.08603 9.333,8.40003 C9.3269,8.41663 9.3159,8.43093 9.3014,8.44113 C9.2869,8.45133 9.2697,8.45683 9.252,8.45703 C9.1051,8.45723 8.9621,8.50453 8.844,8.59203 L0.699,8.60103 Z M8.7,10.31103 L5.1,10.31103 L5.4,9.20103 L8.55,9.20103 L8.55,9.88803 C8.5519,10.04173 8.6047,10.19043 8.7,10.31103 Z M4.104,10.91103 L9.444,10.91103 C9.5126,11.04933 9.5908,11.18263 9.678,11.31003 L3.471,11.31003 C3.52764,11.19083 3.61686,11.09013 3.72835,11.01943 C3.83984,10.94883 3.96903,10.91123 4.101,10.91103 L4.104,10.91103 Z M15.34805,9.88803 C15.34805,9.91183 15.3385,9.93473 15.3216,9.95163 C15.3048,9.96853 15.2819,9.97803 15.258,9.97803 C15.1183,9.97833 14.9819,10.02093 14.8668,10.10013 C14.7517,10.17943 14.6632,10.29163 14.613,10.42203 C14.5171,10.67493 14.3814,10.91093 14.211,11.12103 C14.1231,11.22953 14.0701,11.36203 14.0589,11.50123 C14.0476,11.64043 14.0787,11.77973 14.148,11.90103 C14.1528,11.91133 14.1553,11.92263 14.1553,11.93403 C14.1553,11.94543 14.1528,11.95663 14.148,11.96703 C14.1454,11.97893 14.1403,11.99013 14.1331,11.99993 C14.1258,12.00983 14.1166,12.01793 14.106,12.02403 L13.482,12.37803 C13.4716,12.38383 13.4601,12.38743 13.4483,12.38883 C13.4364,12.39013 13.4244,12.38903 13.413,12.38573 C13.4015,12.38233 13.3909,12.37683 13.3816,12.36923 C13.3723,12.36173 13.3646,12.35253 13.359,12.34203 C13.2881,12.22113 13.1821,12.12453 13.0552,12.06513 C12.9283,12.00563 12.7863,11.98613 12.648,12.00903 C12.3839,12.05403 12.1141,12.05403 11.85,12.00903 C11.7114,11.98633 11.5692,12.00643 11.4422,12.06643 C11.3153,12.12643 11.2095,12.22353 11.139,12.34503 C11.1265,12.36513 11.1069,12.37973 11.084,12.38583 C11.0612,12.39203 11.0369,12.38913 11.016,12.37803 L10.383,12.01203 C10.3724,12.00593 10.3632,11.99783 10.3559,11.98793 C10.3487,11.97813 10.3436,11.96693 10.341,11.95503 C10.3362,11.94463 10.3337,11.93343 10.3337,11.92203 C10.3337,11.91063 10.3362,11.89933 10.341,11.88903 C10.4095,11.76753 10.4401,11.62833 10.4289,11.48933 C10.4177,11.35033 10.3651,11.21793 10.278,11.10903 C10.1061,10.89943 9.9693,10.66333 9.873,10.41003 C9.8227,10.28303 9.7355,10.17403 9.6227,10.09703 C9.5099,10.02003 9.3766,9.97853 9.24,9.97803 C9.2161,9.97803 9.1932,9.96853 9.1764,9.95163 C9.1595,9.93473 9.14995,9.91183 9.14995,9.88803 L9.14995,9.15603 C9.1496,9.14403 9.1516,9.13223 9.156,9.12103 C9.1604,9.10993 9.167,9.09983 9.1754,9.09143 C9.1839,9.08303 9.194,9.07633 9.2051,9.07203 C9.2162,9.06763 9.2281,9.06563 9.24,9.06603 C9.3793,9.06543 9.5152,9.02273 9.6298,8.94353 C9.7444,8.86423 9.8323,8.75213 9.882,8.62203 C9.9776,8.36833 10.1144,8.13213 10.287,7.92303 C10.3741,7.81413 10.4267,7.68163 10.4379,7.54263 C10.4491,7.40363 10.4185,7.26443 10.35,7.14303 C10.3451,7.13213 10.3426,7.12043 10.3426,7.10853 C10.3426,7.09663 10.3451,7.08483 10.35,7.07403 C10.3524,7.06243 10.3575,7.05153 10.3648,7.04213 C10.372,7.03283 10.3814,7.02523 10.392,7.02003 L11.025,6.65403 C11.0397,6.64993 11.0553,6.64993 11.07,6.65403 C11.085,6.65423 11.0997,6.65813 11.1128,6.66543 C11.1259,6.67283 11.137,6.68333 11.145,6.69603 C11.2158,6.81713 11.3216,6.91403 11.4485,6.97403 C11.5754,7.03403 11.7174,7.05423 11.856,7.03203 C12.1201,6.98703 12.3899,6.98703 12.654,7.03203 C12.7935,7.05083 12.9354,7.02713 13.0612,6.96393 C13.187,6.90083 13.2908,6.80113 13.359,6.67803 C13.3649,6.66813 13.3726,6.65943 13.3819,6.65263 C13.3911,6.64573 13.4016,6.64073 13.4127,6.63793 C13.4239,6.63513 13.4355,6.63463 13.4469,6.63633 C13.4582,6.63803 13.4692,6.64203 13.479,6.64803 L14.112,7.01403 C14.1226,7.01923 14.132,7.02683 14.1392,7.03613 C14.1465,7.04553 14.1516,7.05643 14.154,7.06803 C14.1589,7.07883 14.1614,7.09063 14.1614,7.10253 C14.1614,7.11443 14.1589,7.12613 14.154,7.13703 C14.0849,7.25773 14.054,7.39663 14.0653,7.53523 C14.0765,7.67393 14.1294,7.80593 14.217,7.91403 C14.3875,8.12513 14.5232,8.36213 14.619,8.61603 C14.6663,8.74863 14.7527,8.86373 14.8668,8.94623 C14.9808,9.02873 15.1173,9.07463 15.258,9.07803 C15.2699,9.07763 15.2818,9.07963 15.2929,9.08403 C15.304,9.08833 15.3141,9.09503 15.3226,9.10343 C15.331,9.11183 15.3376,9.12193 15.342,9.13303 C15.3464,9.14423 15.3484,9.15603 15.34805,9.16803 L15.34805,9.88803 Z" id="Shape" stroke="#F36D45" stroke-width="0.2"></path>
            <path d="M12.2492,8.15993 C11.9798,8.15993 11.7165,8.23983 11.4925,8.38943 C11.2685,8.53913 11.094,8.75183 10.9909,9.00073 C10.8878,9.24953 10.8608,9.52343 10.9134,9.78763 C10.9659,10.05183 11.0956,10.29453 11.2861,10.48503 C11.4766,10.67543 11.7193,10.80523 11.9835,10.85773 C12.2477,10.91033 12.5216,10.88333 12.7704,10.78023 C13.0193,10.67713 13.232,10.50263 13.3817,10.27863 C13.5313,10.05463 13.6112,9.79133 13.6112,9.52193 C13.6112,9.16073 13.4677,8.81423 13.2123,8.55883 C12.9569,8.30343 12.6104,8.15993 12.2492,8.15993 Z M12.2492,10.28393 C12.0985,10.28393 11.9512,10.23923 11.8259,10.15553 C11.7006,10.07173 11.6029,9.95273 11.5452,9.81353 C11.4875,9.67433 11.4724,9.52103 11.5018,9.37323 C11.5313,9.22543 11.6038,9.08963 11.7104,8.98313 C11.817,8.87653 11.9527,8.80393 12.1005,8.77453 C12.2484,8.74513 12.4016,8.76023 12.5408,8.81793 C12.6801,8.87563 12.7991,8.97323 12.8828,9.09853 C12.9665,9.22393 13.0112,9.37123 13.0112,9.52193 C13.0096,9.72293 12.9286,9.91523 12.7859,10.05683 C12.6432,10.19843 12.4503,10.27793 12.2492,10.27793 L12.2492,10.28393 Z" id="Shape"></path>
        </g>
    </g>
</svg>