<?xml version="1.0" encoding="UTF-8"?>
<svg width="70px" height="70px" viewBox="0 0 70 70" version="1.1" xmlns="http://www.w3.org/2000/svg" xmlns:xlink="http://www.w3.org/1999/xlink">
    <title>icn-3</title>
    <g id="Page-1" stroke="none" stroke-width="1" fill="none" fill-rule="evenodd">
        <g id="icn-3" fill-rule="nonzero">
            <rect id="Rectangle" fill="#F41946" x="0" y="0" width="70" height="70" rx="20"></rect>
            <path d="M35.0004,21.9932 C32.7902,21.9932 30.9996,23.7838 30.9996,25.9939 C30.9996,28.204 32.7902,29.9946 35.0004,29.9946 C37.2105,29.9946 39.0011,28.204 39.0011,25.9939 C39.0011,23.7838 37.2105,21.9932 35.0004,21.9932 Z M35.0004,27.9931 C33.9012,27.9931 33.0012,27.0931 33.0012,25.9939 C33.0012,24.8947 33.9012,23.9947 35.0004,23.9947 C36.0996,23.9947 36.9995,24.8947 36.9995,25.9939 C36.9995,27.0931 36.0996,27.9931 35.0004,27.9931 Z" id="Shape" fill="#FFFFFF"></path>
            <path d="M44.3212,33.7727 C46.5102,24.693 43.3603,16.4834 35.5602,11.1723 C35.2203,10.9426 34.7703,10.9426 34.4305,11.1723 C26.6402,16.4831 23.4807,24.693 25.6694,33.7727 C22.121,36.393 20,40.5346 20,44.9943 C20,46.4638 20.2297,47.9146 20.6797,49.3044 C20.689,49.3349 20.7101,49.3536 20.7195,49.3841 C20.7406,49.424 20.7594,49.4638 20.7804,49.5036 C20.8203,49.5739 20.8695,49.6325 20.9304,49.6935 C20.9609,49.7239 20.9797,49.7544 21.0101,49.7732 C21.1906,49.9138 21.3992,49.9935 21.6288,49.9935 C21.7296,49.9935 21.8398,49.9724 21.9382,49.9443 C21.9382,49.9443 21.9476,49.9443 21.9476,49.9349 C22.0577,49.895 22.1585,49.8341 22.2476,49.7638 C22.278,49.7333 22.3085,49.7146 22.3273,49.6841 C22.3882,49.6232 22.428,49.5646 22.4773,49.4943 C22.4984,49.4544 22.5171,49.4146 22.5382,49.3747 C22.5476,49.3443 22.5687,49.3255 22.578,49.295 C23.6187,46.0561 26.0491,43.4053 29.1383,42.034 C29.5485,42.7043 29.968,43.3535 30.4086,43.9839 L30.0008,43.9839 C29.4501,43.9839 29,44.4339 29,44.9847 L29,48.9855 C29,49.5362 29.45,49.9862 30.0008,49.9862 L40.0015,49.9862 C40.5522,49.9862 41.0023,49.5362 41.0023,48.9855 L41.0023,44.9847 C41.0023,44.4339 40.5523,43.9839 40.0015,43.9839 L39.5819,43.9839 C40.0226,43.3535 40.4421,42.7043 40.8522,42.034 C43.9412,43.4051 46.3717,46.0534 47.4125,49.295 C47.4219,49.3255 47.443,49.3443 47.4524,49.3747 C47.4735,49.4146 47.4922,49.4544 47.5133,49.4943 C47.5532,49.5646 47.6024,49.6232 47.6633,49.6841 C47.6938,49.7146 47.7125,49.745 47.743,49.7638 C47.8321,49.8341 47.9328,49.8927 48.043,49.9349 C48.043,49.9349 48.0524,49.9349 48.0524,49.9443 C48.1532,49.9747 48.2633,49.9935 48.3617,49.9935 C48.5914,49.9935 48.8024,49.9138 48.9829,49.7732 C49.0133,49.7521 49.0438,49.7239 49.0625,49.6935 C49.1235,49.6325 49.1633,49.5739 49.2125,49.5036 C49.2336,49.4638 49.2524,49.424 49.2735,49.3841 C49.2828,49.3536 49.3039,49.3349 49.3133,49.3044 C49.7703,47.9146 50,46.4638 50,44.9943 C50,40.5342 47.8789,36.3929 44.3212,33.7727 L44.3212,33.7727 Z M35.0004,13.2134 C36.5613,14.3431 37.8902,15.6134 39.0011,16.9938 L30.9996,16.9938 C32.1106,15.6134 33.4394,14.3431 35.0004,13.2134 Z M22.0304,45.7443 C22.0116,45.4935 21.9999,45.2428 21.9999,44.9943 C21.9999,41.4249 23.5702,38.0944 26.2608,35.8349 C26.7506,37.3255 27.3905,38.8255 28.1498,40.295 C25.621,41.4645 23.4717,43.3723 22.0305,45.7441 L22.0304,45.7443 Z M39.0011,47.9943 L31.002,47.9943 L31.002,45.9951 L39.0011,45.9951 L39.0011,47.9943 Z M32.9004,43.9935 C32.0004,42.8334 31.1614,41.5936 30.4208,40.2928 C29.2301,38.1928 28.3419,36.0437 27.77,33.9131 C26.2911,28.4335 26.9708,23.2843 29.5911,18.9931 L40.4215,18.9931 C43.0418,23.2821 43.7215,28.4334 42.2426,33.9131 C41.6731,36.0436 40.7825,38.1834 39.6036,40.2832 C38.8396,41.5933 38.0005,42.8332 37.1005,43.9935 L32.9004,43.9935 Z M47.9704,45.7443 C46.5313,43.3748 44.3798,41.4647 41.8511,40.2952 C42.6222,38.8163 43.2502,37.3257 43.7401,35.8351 C46.4307,38.0944 48.001,41.4225 48.001,44.9946 C48.001,45.243 47.9892,45.4938 47.9705,45.7446 L47.9704,45.7443 Z" id="Shape" fill="#FFFFFF"></path>
            <path d="M39.9996,50.9943 C39.4488,50.9943 38.9988,51.4443 38.9988,51.995 L38.9988,57.995 C38.9988,58.5457 39.4488,58.9957 39.9996,58.9957 C40.5504,58.9957 41.0003,58.5457 41.0003,57.995 L41.0003,51.995 C41.0003,51.4443 40.5504,50.9943 39.9996,50.9943 Z" id="Path" fill="#FFFFFF"></path>
            <path d="M35.0003,50.9943 C34.4495,50.9943 33.9995,51.4443 33.9995,51.995 L33.9995,55.9958 C33.9995,56.5466 34.4495,56.9966 35.0003,56.9966 C35.5511,56.9966 36.0011,56.5466 36.0011,55.9958 L36.0011,51.995 C36.0011,51.4443 35.5511,50.9943 35.0003,50.9943 Z" id="Path" fill="#FFFFFF"></path>
            <path d="M30.0013,50.9943 C29.4505,50.9943 29.0005,51.4443 29.0005,51.995 L29.0005,57.995 C29.0005,58.5457 29.4505,58.9957 30.0013,58.9957 C30.5521,58.9957 31.0021,58.5457 31.0021,57.995 L31.0021,51.995 C30.9997,51.4443 30.5497,50.9943 30.0013,50.9943 Z" id="Path" fill="#FFFFFF"></path>
        </g>
    </g>
</svg>