<?xml version="1.0" encoding="UTF-8"?>
<svg width="70px" height="70px" viewBox="0 0 70 70" version="1.1" xmlns="http://www.w3.org/2000/svg" xmlns:xlink="http://www.w3.org/1999/xlink">
    <title>icn-2</title>
    <g id="Page-1" stroke="none" stroke-width="1" fill="none" fill-rule="evenodd">
        <g id="icn-2" fill-rule="nonzero">
            <rect id="Rectangle" fill="#0047AF" x="0" y="0" width="70" height="70" rx="20"></rect>
            <path d="M43.408,26.592 L49.2145,28.4592 L53.8649,23.8107 L48.0584,21.9435 L46.1912,16.137 L41.5428,20.7874 L43.41,26.5939 L43.408,26.592 Z M31.035,19.416 C33.8866,19.416 36.5935,20.0273 39.037,21.125 L38.705,20.0918 L47.3085,11.4883 L50.0331,19.9668 L58.5116,22.6914 C55.6424,25.5605 52.7751,28.4279 49.9061,31.2949 L48.8729,30.9629 C49.9705,33.4062 50.5819,36.1154 50.5819,38.9649 C50.5819,49.7619 41.8279,58.5139 31.0329,58.5139 C20.2359,58.5139 11.4839,49.7599 11.4839,38.9649 C11.4839,28.1679 20.2379,19.4159 31.0329,19.4159 L31.035,19.416 Z M40.1365,24.543 C37.5018,22.8789 34.3805,21.9141 31.035,21.9141 C21.617,21.9141 13.9825,29.5491 13.9825,38.9666 C13.9825,48.3846 21.6175,56.0191 31.035,56.0191 C40.453,56.0191 48.0875,48.3841 48.0875,38.9666 C48.0875,35.6189 47.1227,32.4996 45.4586,29.8651 L42.7672,28.9998 L41.4196,30.3475 C43.361,32.6854 44.5309,35.6895 44.5309,38.9665 C44.5309,46.414 38.4839,52.4625 31.0349,52.4625 C23.5894,52.4625 17.5389,46.4115 17.5389,38.9665 C17.5389,31.5175 23.5859,25.4705 31.0349,25.4705 C34.3123,25.4705 37.3159,26.6404 39.6539,28.5818 L41.0016,27.2342 L40.1365,24.543 Z M31.9175,39.8475 C30.7574,41.0076 28.9917,39.242 30.1539,38.0838 L31.6578,36.5799 C30.1031,36.1795 28.5679,37.3397 28.5679,38.9666 C28.5679,40.3299 29.6714,41.4334 31.0347,41.4334 C32.6656,41.4334 33.8218,39.8983 33.4214,38.3436 L31.9156,39.8494 L31.9175,39.8475 Z M33.5484,34.6895 L37.8804,30.3574 C36.0015,28.8633 33.6246,27.9688 31.0364,27.9688 C24.9584,27.9688 20.0384,32.8907 20.0384,38.9668 C20.0384,45.0468 24.9564,49.9648 31.0364,49.9648 C37.1124,49.9648 42.0344,45.0429 42.0344,38.9668 C42.0344,36.3789 41.1399,34 39.6458,32.1228 L35.3137,36.4548 C37.2356,39.7087 34.9036,43.9313 31.0364,43.9313 C28.2942,43.9313 26.0735,41.7106 26.0735,38.9684 C26.0735,35.1012 30.2922,32.7709 33.548,34.6911 L33.5484,34.6895 Z" id="Shape" fill="#FFFFFF"></path>
        </g>
    </g>
</svg>