<?xml version="1.0" encoding="UTF-8"?>
<svg width="70px" height="70px" viewBox="0 0 70 70" version="1.1" xmlns="http://www.w3.org/2000/svg" xmlns:xlink="http://www.w3.org/1999/xlink">
    <title>icn-1</title>
    <g id="Page-1" stroke="none" stroke-width="1" fill="none" fill-rule="evenodd">
        <g id="icn-1" fill-rule="nonzero">
            <rect id="Rectangle" fill="#11999E" x="0" y="0" width="70" height="70" rx="20"></rect>
            <path d="M25.3565,26.396 L29.4004,26.396 C30.1472,26.396 30.7641,26.9834 30.7995,27.7302 L32.1987,57.121 C32.2371,57.8943 31.6408,58.5496 30.8675,58.585 C30.0941,58.6234 29.4388,58.0271 29.4034,57.2538 L28.0663,29.1945 L22.4019,29.1945 C21.2212,29.1945 20.5718,27.8219 21.3186,26.9099 L33.9167,11.5136 C34.4775,10.8288 35.5225,10.8288 36.0833,11.5136 L48.6814,26.9099 C49.4282,27.8219 48.7788,29.1945 47.5981,29.1945 L41.9337,29.1945 L40.5966,57.2538 C40.5612,58.0271 39.9059,58.6234 39.1325,58.585 C38.3592,58.5496 37.7629,57.8943 37.8013,57.121 L39.2005,27.7302 C39.2359,26.9834 39.8528,26.396 40.5996,26.396 L44.6435,26.396 L35,14.6095 L25.3565,26.396 Z M47.5951,57.2769 C47.5449,58.0502 46.8778,58.6347 46.1074,58.5846 C45.334,58.5344 44.7495,57.8702 44.7997,57.0968 L46.1989,35.4046 C46.2491,34.6312 46.9161,34.0468 47.6866,34.0969 C48.457,34.1471 49.0444,34.8113 48.9942,35.5846 L47.5951,57.2769 Z M25.2001,57.0969 C25.2502,57.8702 24.6628,58.5343 23.8924,58.5846 C23.122,58.6348 22.455,58.0503 22.4047,57.2769 L21.0056,35.5847 C20.9554,34.8113 21.5428,34.1472 22.3132,34.0969 C23.0836,34.0468 23.7507,34.6312 23.8009,35.4046 L25.2001,57.0969 Z" id="Shape" fill="#FFFFFF"></path>
        </g>
    </g>
</svg>