<?xml version="1.0" encoding="UTF-8"?>
<svg width="70px" height="70px" viewBox="0 0 70 70" version="1.1" xmlns="http://www.w3.org/2000/svg" xmlns:xlink="http://www.w3.org/1999/xlink">
    <title>icn-4</title>
    <g id="Page-1" stroke="none" stroke-width="1" fill="none" fill-rule="evenodd">
        <g id="icn-4" fill-rule="nonzero">
            <rect id="Rectangle" fill="#252525" x="0" y="0" width="70" height="70" rx="20"></rect>
            <path d="M18.3341,43.371 C18.3341,46.6522 19.4455,49.486 21.5451,51.572 C24.3712,54.3786 28.8086,55.8005 34.7406,55.8005 L35.0101,55.8005 C45.5941,55.7224 51.6661004,51.1931 51.6661004,43.371 C51.668,35.625 43.9531,28.1935 39.3556,24.453 C39.172,24.3026 39.1505,24.1112 39.1564,24.0096 C39.1603,23.91 39.1993,23.7206 39.3946,23.5897 L43.4102,20.912 C43.8927,20.5897 44.1231,20.0037 43.9923,19.4393 C43.8614,18.8748 43.3907,18.453 42.8184,18.3787 C40.8106,18.1209 39.2325,17.1639 37.7049,16.2401 C36.0448,15.2381 34.3319,14.201 32.2224,14.201 C27.7361,14.201 25.5309,18.2382 25.4394,18.4101 C25.1094,19.0292 25.2949,19.7987 25.8691,20.201 L30.664,23.5565 C30.8574,23.6913 30.8906,23.8788 30.8945,23.9764 C30.8984,24.076 30.8769,24.2635 30.6972,24.41 C26.0781,28.1561 18.3322,35.6015 18.3337,43.371 L18.3341,43.371 Z M32.2581,21.281 L28.6136,18.7302 C29.3167,17.945 30.5257,16.9782 32.223,16.9782 C33.557,16.9782 34.8128,17.738 36.2659,18.6169 C37.2015,19.1833 38.2073,19.7907 39.3558,20.277 L37.8538,21.277 C36.9691,21.8669 36.4319,22.8141 36.3812,23.8747 C36.3304,24.9372 36.7757,25.9333 37.6038,26.6051 C40.9964,29.3688 48.8908,36.5291 48.8888004,43.3706 C48.8869,51.2631 41.3303,52.9741 34.9903,53.0211 C29.7148,53.0875 25.7928,51.8766 23.5018,49.6012 C21.9159,48.0251 21.1111997,45.9313 21.1111997,43.3707 C21.1093,36.5057 29.0372,29.3317 32.4452,26.5682 C33.2597,25.9061 33.7069,24.9276 33.6698,23.8807 C33.6327,22.8299 33.119,21.8846 32.2577,21.2811 L32.2581,21.281 Z" id="Shape" fill="#FFFFFF"></path>
            <path d="M29.791,37.912 C29.791,40.0506 31.5313,41.7909 33.668,41.7909 L36.3282,41.7909 C36.9336,41.7909 37.4278,42.285 37.4278,42.8924 C37.4278,43.4998 36.9336,43.994 36.3282,43.994 L33.3126,43.994 C33.0801,43.994 32.8653,43.8885 32.7247,43.703 C32.2559,43.0956 31.3848,42.9823 30.7774,43.4491 C30.168,43.9178 30.0567,44.7889 30.5215,45.3963 C31.1934,46.2694 32.211,46.7694 33.3125,46.7694 L33.6114,46.7713 L33.6114,46.8045 C33.6114,47.5721 34.2325,48.1932 35,48.1932 C35.7676,48.1932 36.3887,47.5721 36.3887,46.8045 L36.3887,46.7655 C38.4981,46.7342 40.209,45.0116 40.209,42.8924 C40.209,40.7538 38.4687,39.0135 36.332,39.0135 L33.6719,39.0135 C33.0664,39.0135 32.5723,38.5194 32.5723,37.912 C32.5723,37.3046 33.0664,36.8104 33.6719,36.8104 L36.6875,36.8104 C36.9472,36.8104 37.1855,36.9432 37.3242,37.1659 C37.7265,37.8182 38.58,38.0233 39.2343,37.619 C39.8867,37.2167 40.0898,36.3612 39.6855,35.7089 C39.039,34.66 37.9179,34.0331 36.6874,34.0331 L36.3886,34.0331 L36.3886,33.9999 C36.3886,33.2323 35.7675,32.6112 35,32.6112 C34.2324,32.6112 33.6113,33.2323 33.6113,33.9999 L33.6113,34.0389 C31.5019,34.0721 29.791,35.7928 29.791,37.912 L29.791,37.912 Z" id="Path" fill="#FFFFFF"></path>
        </g>
    </g>
</svg>