<?xml version="1.0" encoding="UTF-8"?>
<svg width="200px" height="155px" viewBox="0 0 200 155" version="1.1" xmlns="http://www.w3.org/2000/svg" xmlns:xlink="http://www.w3.org/1999/xlink">
    <title>_Group_ (1)</title>
    <defs>
        <linearGradient x1="-9.06986664%" y1="43.8935583%" x2="10.7128864%" y2="93.5468686%" id="linearGradient-1">
            <stop stop-color="#E85C4B" offset="0%"></stop>
            <stop stop-color="#E85C4B" offset="45.8333%"></stop>
        </linearGradient>
        <linearGradient x1="-0.0887089829%" y1="-10.4279472%" x2="-0.0887089829%" y2="110.066966%" id="linearGradient-2">
            <stop stop-color="#FFFFFF" offset="0%"></stop>
            <stop stop-color="#00ADFF" offset="100%"></stop>
        </linearGradient>
        <linearGradient x1="-0.690703445%" y1="-20.9650679%" x2="-0.690703445%" y2="126.222388%" id="linearGradient-3">
            <stop stop-color="#FB8D8C" offset="50%"></stop>
            <stop stop-color="#FFFFFF" offset="100%"></stop>
        </linearGradient>
        <linearGradient x1="-0.697022502%" y1="-43.9450947%" x2="-0.697022502%" y2="131.345019%" id="linearGradient-4">
            <stop stop-color="#FB8D8C" offset="50%"></stop>
            <stop stop-color="#FFFFFF" offset="100%"></stop>
        </linearGradient>
        <linearGradient x1="-0.749335267%" y1="-64.8649658%" x2="-0.749335267%" y2="131.214655%" id="linearGradient-5">
            <stop stop-color="#FB8D8C" offset="50%"></stop>
            <stop stop-color="#FFFFFF" offset="100%"></stop>
        </linearGradient>
        <linearGradient x1="-0.921248143%" y1="-147.675465%" x2="-0.921248143%" y2="135.960097%" id="linearGradient-6">
            <stop stop-color="#FB8D8C" offset="50%"></stop>
            <stop stop-color="#FFFFFF" offset="100%"></stop>
        </linearGradient>
        <linearGradient x1="-47.4096087%" y1="385.651815%" x2="162.040614%" y2="-32.8368461%" id="linearGradient-7">
            <stop stop-color="#FB8D8C" offset="50%"></stop>
            <stop stop-color="#FFFFFF" offset="100%"></stop>
        </linearGradient>
        <linearGradient x1="35.036762%" y1="224.504674%" x2="86.033059%" y2="14.0493937%" id="linearGradient-8">
            <stop stop-color="#FB8D8C" offset="50%"></stop>
            <stop stop-color="#FFFFFF" offset="100%"></stop>
        </linearGradient>
        <linearGradient x1="29.8573135%" y1="244.464604%" x2="97.3293302%" y2="9.70390693%" id="linearGradient-9">
            <stop stop-color="#FB8D8C" offset="50%"></stop>
            <stop stop-color="#FFFFFF" offset="100%"></stop>
        </linearGradient>
        <linearGradient x1="3.47649641%" y1="320.332318%" x2="124.182086%" y2="9.00245848%" id="linearGradient-10">
            <stop stop-color="#FB8D8C" offset="50%"></stop>
            <stop stop-color="#FFFFFF" offset="100%"></stop>
        </linearGradient>
        <linearGradient x1="99.9891858%" y1="-2.94975686%" x2="0.00986432329%" y2="-2.94975686%" id="linearGradient-11">
            <stop stop-color="#FFFFFF" offset="0%"></stop>
            <stop stop-color="#00ADFF" offset="100%"></stop>
        </linearGradient>
        <linearGradient x1="-0.405675959%" y1="-187.47752%" x2="-0.405675959%" y2="215.898673%" id="linearGradient-12">
            <stop stop-color="#FB8D8C" offset="50%"></stop>
            <stop stop-color="#FFFFFF" offset="100%"></stop>
        </linearGradient>
        <linearGradient x1="-0.405675959%" y1="-200.069632%" x2="-0.405675959%" y2="232.950491%" id="linearGradient-13">
            <stop stop-color="#FB8D8C" offset="50%"></stop>
            <stop stop-color="#FFFFFF" offset="100%"></stop>
        </linearGradient>
        <linearGradient x1="-1.92826042%" y1="-192.391392%" x2="-1.92826042%" y2="218.640849%" id="linearGradient-14">
            <stop stop-color="#FB8D8C" offset="50%"></stop>
            <stop stop-color="#FFFFFF" offset="100%"></stop>
        </linearGradient>
        <linearGradient x1="-1.90752644%" y1="-192.396098%" x2="-1.90752644%" y2="218.644368%" id="linearGradient-15">
            <stop stop-color="#FB8D8C" offset="50%"></stop>
            <stop stop-color="#FFFFFF" offset="100%"></stop>
        </linearGradient>
        <linearGradient x1="-1.92866031%" y1="-192.396098%" x2="-1.92866031%" y2="218.644368%" id="linearGradient-16">
            <stop stop-color="#FB8D8C" offset="50%"></stop>
            <stop stop-color="#FFFFFF" offset="100%"></stop>
        </linearGradient>
        <linearGradient x1="68.2256792%" y1="-0.16757289%" x2="27.7492827%" y2="0.957293708%" id="linearGradient-17">
            <stop stop-color="#FB8D8C" offset="50%"></stop>
            <stop stop-color="#FFFFFF" offset="100%"></stop>
        </linearGradient>
        <linearGradient x1="-35.9286567%" y1="101.724009%" x2="49.8179242%" y2="101.724009%" id="linearGradient-18">
            <stop stop-color="#FB8D8C" offset="50%"></stop>
            <stop stop-color="#FFFFFF" offset="100%"></stop>
        </linearGradient>
        <linearGradient x1="-35.8096388%" y1="102.034374%" x2="49.9678995%" y2="102.034374%" id="linearGradient-19">
            <stop stop-color="#FB8D8C" offset="50%"></stop>
            <stop stop-color="#FFFFFF" offset="100%"></stop>
        </linearGradient>
        <linearGradient x1="-35.6851355%" y1="102.342273%" x2="50.1334621%" y2="102.342273%" id="linearGradient-20">
            <stop stop-color="#FB8D8C" offset="50%"></stop>
            <stop stop-color="#FFFFFF" offset="100%"></stop>
        </linearGradient>
        <linearGradient x1="-35.5809506%" y1="102.750854%" x2="50.2810325%" y2="102.750854%" id="linearGradient-21">
            <stop stop-color="#FB8D8C" offset="50%"></stop>
            <stop stop-color="#FFFFFF" offset="100%"></stop>
        </linearGradient>
        <linearGradient x1="63.7860147%" y1="109.079387%" x2="92.7117512%" y2="65.2655754%" id="linearGradient-22">
            <stop stop-color="#FB8D8C" offset="50%"></stop>
            <stop stop-color="#FFFFFF" offset="100%"></stop>
        </linearGradient>
        <linearGradient x1="-2.4481107%" y1="-131.32448%" x2="-2.4481107%" y2="149.655659%" id="linearGradient-23">
            <stop stop-color="#FB8D8C" offset="50%"></stop>
            <stop stop-color="#FFFFFF" offset="100%"></stop>
        </linearGradient>
        <linearGradient x1="-2.43902439%" y1="-103.374019%" x2="-2.43902439%" y2="155.17746%" id="linearGradient-24">
            <stop stop-color="#FB8D8C" offset="50%"></stop>
            <stop stop-color="#FFFFFF" offset="100%"></stop>
        </linearGradient>
        <linearGradient x1="-2.48514317%" y1="-420.642175%" x2="-2.48514317%" y2="268.062144%" id="linearGradient-25">
            <stop stop-color="#FB8D8C" offset="50%"></stop>
            <stop stop-color="#FFFFFF" offset="100%"></stop>
        </linearGradient>
        <linearGradient x1="5.88951532%" y1="46.8110303%" x2="89.7195783%" y2="54.2266664%" id="linearGradient-26">
            <stop stop-color="#FB8D8C" offset="50%"></stop>
            <stop stop-color="#FFFFFF" offset="100%"></stop>
        </linearGradient>
        <linearGradient x1="-55.0244591%" y1="39.7424103%" x2="80.7703195%" y2="54.332873%" id="linearGradient-27">
            <stop stop-color="#FB8D8C" offset="50%"></stop>
            <stop stop-color="#FFFFFF" offset="100%"></stop>
        </linearGradient>
        <linearGradient x1="31.7746667%" y1="-0.16757289%" x2="72.250775%" y2="0.957293708%" id="linearGradient-28">
            <stop stop-color="#FB8D8C" offset="50%"></stop>
            <stop stop-color="#FFFFFF" offset="100%"></stop>
        </linearGradient>
        <linearGradient x1="36.214131%" y1="109.079387%" x2="7.28814673%" y2="65.2655754%" id="linearGradient-29">
            <stop stop-color="#FB8D8C" offset="50%"></stop>
            <stop stop-color="#FFFFFF" offset="100%"></stop>
        </linearGradient>
        <linearGradient x1="135.930882%" y1="101.724009%" x2="50.1820952%" y2="101.724009%" id="linearGradient-30">
            <stop stop-color="#FB8D8C" offset="50%"></stop>
            <stop stop-color="#FFFFFF" offset="100%"></stop>
        </linearGradient>
        <linearGradient x1="135.809128%" y1="102.034374%" x2="50.0314636%" y2="102.034374%" id="linearGradient-31">
            <stop stop-color="#FB8D8C" offset="50%"></stop>
            <stop stop-color="#FFFFFF" offset="100%"></stop>
        </linearGradient>
        <linearGradient x1="94.1094947%" y1="46.8110747%" x2="10.2795744%" y2="54.2266076%" id="linearGradient-32">
            <stop stop-color="#FB8D8C" offset="50%"></stop>
            <stop stop-color="#FFFFFF" offset="100%"></stop>
        </linearGradient>
        <linearGradient x1="155.028287%" y1="39.7420576%" x2="19.2283392%" y2="54.3327756%" id="linearGradient-33">
            <stop stop-color="#FB8D8C" offset="50%"></stop>
            <stop stop-color="#FFFFFF" offset="100%"></stop>
        </linearGradient>
        <linearGradient x1="100.863217%" y1="143.163848%" x2="100.863217%" y2="39.8974143%" id="linearGradient-34">
            <stop stop-color="#FB8D8C" offset="50%"></stop>
            <stop stop-color="#FFFFFF" offset="100%"></stop>
        </linearGradient>
        <linearGradient x1="72.3065732%" y1="0.0258890456%" x2="9.02149851%" y2="43.0240177%" id="linearGradient-35">
            <stop stop-color="#F98178" offset="0%"></stop>
            <stop stop-color="#BC3C39" offset="100%"></stop>
        </linearGradient>
        <linearGradient x1="20.1981276%" y1="100.880638%" x2="60.2599458%" y2="100.880638%" id="linearGradient-36">
            <stop stop-color="#A30808" offset="0%"></stop>
            <stop stop-color="#BC3C39" offset="100%"></stop>
        </linearGradient>
        <linearGradient x1="100.784655%" y1="105.014113%" x2="100.784655%" y2="46.1659638%" id="linearGradient-37">
            <stop stop-color="#A30808" offset="0%"></stop>
            <stop stop-color="#BC3C39" offset="100%"></stop>
        </linearGradient>
        <linearGradient x1="44.6543078%" y1="1.86603271%" x2="38.7577533%" y2="102.592662%" id="linearGradient-38">
            <stop stop-color="#F9986F" offset="0%"></stop>
            <stop stop-color="#BC3C39" offset="100%"></stop>
        </linearGradient>
        <linearGradient x1="-0.681488677%" y1="-0.40206056%" x2="-0.681488677%" y2="61.6409097%" id="linearGradient-39">
            <stop stop-color="#A30808" offset="0%"></stop>
            <stop stop-color="#BC3C39" offset="100%"></stop>
        </linearGradient>
        <linearGradient x1="-2.61222419%" y1="88.5433377%" x2="-2.61222419%" y2="46.5501312%" id="linearGradient-40">
            <stop stop-color="#FFDCDC" offset="0%"></stop>
            <stop stop-color="#FFC3C2" offset="100%"></stop>
        </linearGradient>
        <linearGradient x1="-0.517570601%" y1="111.035931%" x2="-0.517570601%" y2="40.6207611%" id="linearGradient-41">
            <stop stop-color="#05293C" offset="0%"></stop>
            <stop stop-color="#010D12" offset="100%"></stop>
        </linearGradient>
        <linearGradient x1="13.7718737%" y1="110.206457%" x2="30.7421365%" y2="23.3166274%" id="linearGradient-42">
            <stop stop-color="#EDAC80" offset="0%"></stop>
            <stop stop-color="#BD7E52" offset="100%"></stop>
        </linearGradient>
        <linearGradient x1="46.1487708%" y1="125.790812%" x2="42.894384%" y2="24.0322712%" id="linearGradient-43">
            <stop stop-color="#EDAC80" offset="0%"></stop>
            <stop stop-color="#BD7E52" offset="100%"></stop>
        </linearGradient>
        <linearGradient x1="32.2910928%" y1="116.181728%" x2="38.4289951%" y2="36.4456207%" id="linearGradient-44">
            <stop stop-color="#EDAC80" offset="0%"></stop>
            <stop stop-color="#BD7E52" offset="100%"></stop>
        </linearGradient>
        <linearGradient x1="13.7021202%" y1="100.305024%" x2="-43.8653488%" y2="31.644691%" id="linearGradient-45">
            <stop stop-color="#FFDCDC" offset="0%"></stop>
            <stop stop-color="#D46E72" offset="100%"></stop>
        </linearGradient>
        <linearGradient x1="128.437142%" y1="52.8088731%" x2="9.0003845%" y2="64.218657%" id="linearGradient-46">
            <stop stop-color="#EDAC80" offset="0%"></stop>
            <stop stop-color="#BD7E52" offset="100%"></stop>
        </linearGradient>
        <linearGradient x1="0%" y1="-0.43086854%" x2="100%" y2="-0.43086854%" id="linearGradient-47">
            <stop stop-color="#FFDCDC" offset="0%"></stop>
            <stop stop-color="#D46E72" offset="100%"></stop>
        </linearGradient>
        <linearGradient x1="11.0712978%" y1="44.2861441%" x2="162.609608%" y2="91.9777138%" id="linearGradient-48">
            <stop stop-color="#FFFFFF" offset="0%"></stop>
            <stop stop-color="#D46E72" offset="100%"></stop>
        </linearGradient>
        <linearGradient x1="-31.0309417%" y1="21.5412643%" x2="113.63064%" y2="106.435383%" id="linearGradient-49">
            <stop stop-color="#EDAC80" offset="0%"></stop>
            <stop stop-color="#BD7E52" offset="100%"></stop>
        </linearGradient>
        <linearGradient x1="87.5023736%" y1="94.1141605%" x2="75.2895406%" y2="11.7716789%" id="linearGradient-50">
            <stop stop-color="#05293C" offset="0%"></stop>
            <stop stop-color="#010D12" offset="100%"></stop>
        </linearGradient>
        <linearGradient x1="65.0332427%" y1="124.074028%" x2="76.0625821%" y2="11.4240167%" id="linearGradient-51">
            <stop stop-color="#EDAC80" offset="0%"></stop>
            <stop stop-color="#BD7E52" offset="100%"></stop>
        </linearGradient>
        <linearGradient x1="95.0869402%" y1="56.0640433%" x2="70.8187391%" y2="14.6589477%" id="linearGradient-52">
            <stop stop-color="#FFFFFF" offset="0%"></stop>
            <stop stop-color="#D46E72" offset="100%"></stop>
        </linearGradient>
    </defs>
    <g id="Page-1" stroke="none" stroke-width="1" fill="none" fill-rule="evenodd">
        <g id="_Group_-(1)" transform="translate(0.000031, 0.000000)">
            <path d="M184.408969,153.625254 C194.283969,138.126254 199.999969,119.727254 199.999969,99.992254 C199.999969,44.769054 155.226969,0 99.9999695,0 C44.7725695,0 0,44.769054 0,99.992254 C0,119.727254 5.71633948,138.126254 15.5911695,153.625254 L184.408969,153.625254 Z" id="Path" fill="url(#linearGradient-1)" fill-rule="nonzero" style="mix-blend-mode: soft-light;"></path>
            <path d="M67.9777695,13.189654 C55.1123695,11.405954 48.5429695,9.446294 48.5429695,9.446294 L48.5429695,89.015454 C74.2413695,81.375854 100.791969,82.010554 100.791969,82.010554 C100.791969,82.010554 127.337969,81.375854 153.041969,89.015454 L153.041969,9.446294 C153.041969,9.446294 146.471969,11.405954 133.601969,13.189654 C111.836969,16.205654 89.7475695,16.205654 67.9777695,13.189654 Z" id="Path" fill="url(#linearGradient-2)" fill-rule="nonzero" style="mix-blend-mode: overlay;"></path>
            <polygon id="Path" fill="url(#linearGradient-3)" fill-rule="nonzero" points="86.7778695 70.381954 100.198969 70.122554 100.198969 28.213754 86.7778695 27.555954"></polygon>
            <polygon id="Path" fill="url(#linearGradient-4)" fill-rule="nonzero" points="101.801969 70.034554 115.000969 70.340254 115.000969 34.685854 101.801969 34.380154"></polygon>
            <polygon id="Path" fill="url(#linearGradient-5)" fill-rule="nonzero" points="116.228969 70.423454 128.639969 71.577054 128.639969 39.656654 116.228969 39.429654"></polygon>
            <polygon id="Path" fill="url(#linearGradient-6)" fill-rule="nonzero" points="129.580969 71.781054 139.675969 73.620254 139.675969 51.581754 129.580969 51.396454"></polygon>
            <polygon id="Path" fill="url(#linearGradient-7)" fill-rule="nonzero" points="139.675969 51.581754 129.580969 51.396454 129.580969 59.531754 139.675969 60.328654"></polygon>
            <polygon id="Path" fill="url(#linearGradient-8)" fill-rule="nonzero" points="128.639969 62.116754 128.639969 39.656654 116.228969 39.429654 116.228969 61.333754"></polygon>
            <polygon id="Path" fill="url(#linearGradient-9)" fill-rule="nonzero" points="115.000969 34.685854 101.801969 34.380154 101.801969 54.435754 115.000969 54.718354"></polygon>
            <polygon id="Path" fill="url(#linearGradient-10)" fill-rule="nonzero" points="100.198969 42.890654 100.198969 28.213754 86.7778695 27.555954 86.7778695 42.890654"></polygon>
            <polygon id="Path" fill="#FFFFFF" fill-rule="nonzero" points="88.4225695 42.890754 86.7778695 41.825154 86.7778695 43.979454"></polygon>
            <polygon id="Path" fill="#FFFFFF" fill-rule="nonzero" points="103.446969 54.496254 101.801969 53.430654 101.801969 55.580254"></polygon>
            <polygon id="Path" fill="#FFFFFF" fill-rule="nonzero" points="117.692969 61.427154 116.228969 60.366254 116.228969 62.515854"></polygon>
            <polygon id="Path" fill="#FFFFFF" fill-rule="nonzero" points="130.835969 59.629454 129.580969 58.494354 129.580969 60.648654"></polygon>
            <path d="M128.213969,75.103054 C128.245969,75.103054 128.268969,75.084554 128.273969,75.052154 C128.278969,75.019654 128.255969,74.991854 128.222969,74.987254 C127.986969,74.959454 104.094969,71.971254 75.7746695,74.987254 C75.7421695,74.991854 75.7190695,75.019654 75.7236695,75.052154 C75.7282695,75.084554 75.7514695,75.107754 75.7884695,75.103054 C104.090969,72.087054 127.967969,75.075254 128.208969,75.103054 C128.211969,75.103054 128.213969,75.103054 128.213969,75.103054 Z" id="Path" fill="url(#linearGradient-11)" fill-rule="nonzero" style="mix-blend-mode: overlay;"></path>
            <path d="M76.7849695,32.383554 L59.6943695,30.669454 C58.0033695,30.498054 56.5393695,31.827654 56.5393695,33.523254 L56.5393695,38.758354 C56.5393695,40.296454 57.7531695,41.561254 59.2913695,41.626154 L76.3772695,42.330354 C78.0080695,42.395154 79.3654695,41.093354 79.3654695,39.462554 L79.3654695,35.237454 C79.3654695,33.764154 78.2489695,32.531854 76.7849695,32.383554 Z" id="Path" fill="url(#linearGradient-12)" fill-rule="nonzero"></path>
            <path d="M76.7849695,45.471454 L59.6943695,45.170354 C58.0033695,45.142554 56.5393695,46.587954 56.5393695,48.288254 L56.5393695,53.523354 C56.5393695,55.061454 57.7531695,56.224254 59.2913695,56.159454 L76.3772695,55.450554 C78.0080695,55.381154 79.3654695,53.968054 79.3654695,52.337354 L79.3654695,48.107554 C79.3654695,46.638954 78.2489695,45.494654 76.7849695,45.471454 Z" id="Path" fill="url(#linearGradient-13)" fill-rule="nonzero"></path>
            <path d="M127.722969,24.646454 C127.722969,26.365254 128.802969,27.755154 130.131969,27.755154 C131.465969,27.755154 132.545969,26.365254 132.545969,24.646454 C132.545969,22.932354 131.465969,21.542454 130.131969,21.542454 C128.802969,21.542454 127.722969,22.932354 127.722969,24.646454 Z" id="Path" fill="url(#linearGradient-14)" fill-rule="nonzero"></path>
            <path d="M121.426969,25.249254 C121.426969,26.963454 122.506969,28.353254 123.835969,28.353254 C125.170969,28.353254 126.249969,26.963454 126.249969,25.249254 C126.249969,23.530454 125.170969,22.140654 123.835969,22.140654 C122.506969,22.140654 121.426969,23.530454 121.426969,25.249254 Z" id="Path" fill="url(#linearGradient-15)" fill-rule="nonzero"></path>
            <path d="M115.135969,25.249254 C115.135969,26.963454 116.214969,28.353254 117.548969,28.353254 C118.878969,28.353254 119.957969,26.963454 119.957969,25.249254 C119.957969,23.530454 118.878969,22.140654 117.548969,22.140654 C116.214969,22.140654 115.135969,23.530454 115.135969,25.249254 Z" id="Path" fill="url(#linearGradient-16)" fill-rule="nonzero"></path>
            <g id="Group" opacity="0.3" transform="translate(134.583969, 10.456554)">
                <path d="M54.019,0 C54.019,0 28.353,7.8527 0,10.2339 L0,80.0463 C0,80.0463 29.099,84.0537 54.01,96.7937 L54.019,0 Z" id="Path" fill="url(#linearGradient-17)" fill-rule="nonzero"></path>
                <g opacity="0.7" style="mix-blend-mode: screen;" transform="translate(4.483612, 29.394747)">
                    <g style="mix-blend-mode: screen;" transform="translate(13.499788, 0.915074)" fill="#FFFFFF" id="Shape">
                        <path d="M9.42960019,22.0089791 C13.0246002,19.7897791 14.8356002,13.2250791 13.4786002,7.35057909 C12.1166002,1.47617909 8.09460019,-1.48422091 4.49960019,0.739579094 C0.904600189,2.96327909 -0.906399811,9.52337909 0.450600189,15.3978791 C1.81260019,21.2722791 5.83460019,24.2326791 9.42960019,22.0089791 Z M7.99360019,15.8055791 C6.49160019,16.7320791 4.81960019,15.4997791 4.24960019,13.0536791 C3.68460019,10.6028791 4.43960019,7.86947909 5.93660019,6.94287909 C7.43760019,6.01637909 9.10960019,7.24867909 9.67960019,9.69947909 C10.2446002,12.1455791 9.48960019,14.8789791 7.99360019,15.8055791 Z"></path>
                    </g>
                    <g style="mix-blend-mode: screen;" transform="translate(13.950388, 13.969053)" fill="#FFA69F" fill-rule="nonzero" id="Path">
                        <path d="M2.613,7.7368 L4.888,2.2423 C4.411,1.7141 4.022,0.9497 3.799,0 L2.84217094e-14,2.3442 C0.533,4.6282 1.464,6.4674 2.613,7.7368 Z"></path>
                    </g>
                    <g style="mix-blend-mode: screen;" transform="translate(16.563388, 14.283953)" fill="#E85C4B" fill-rule="nonzero" id="Path">
                        <path d="M6.533,0 C6.222,1.0841 5.666,1.9829 4.93,2.4369 C4.013,3.0021 3.03,2.7612 2.275,1.9273 L0,7.4218 C1.812,9.4186 4.165,10.0023 6.366,8.6403 C8.136,7.5469 9.475,5.3973 10.216,2.7936 L6.533,0 Z"></path>
                    </g>
                    <g style="mix-blend-mode: screen;" transform="translate(22.123388, 2.965553)" fill="#FFA69F" fill-rule="nonzero" id="Path">
                        <path d="M0.973,11.3181 L4.656,14.1117 C5.416,11.4339 5.545,8.2789 4.855,5.3 C4.336,3.0716 3.437,1.2694 2.325,0 L0,5.439 C0.463,5.9671 0.838,6.7177 1.056,7.6489 C1.343,8.8905 1.288,10.2016 0.973,11.3181 Z"></path>
                    </g>
                    <g style="mix-blend-mode: screen;" transform="translate(0.000000, 1.659451)" fill="#E85C4B" id="Shape">
                        <path d="M12.598388,6.888902 C11.333388,1.394302 7.58038805,-1.385398 4.21738805,0.685501996 C0.853388047,2.751702 -0.846611953,8.881002 0.418388047,14.375502 C1.68338805,19.865502 5.43538805,22.645202 8.79938805,20.578902 C12.162388,18.508002 13.863388,12.378802 12.598388,6.888902 Z M9.04438805,9.070902 C9.57338805,11.359602 8.86438805,13.912302 7.46538805,14.774002 C6.06138805,15.635702 4.50038805,14.477502 3.97138805,12.188802 C3.44338805,9.900202 4.15238805,7.347502 5.55138805,6.485802 C6.95538805,5.624102 8.51638805,6.782302 9.04438805,9.070902 Z"></path>
                    </g>
                    <g style="mix-blend-mode: screen;" transform="translate(7.464388, 14.774953)" fill="#FFFFFF" fill-rule="nonzero" id="Path">
                        <path d="M4.425,3.4839 L1.284,0 C0.983,0.732 0.542,1.325 -2.84217094e-14,1.6585 L1.335,7.4635 C2.641,6.6574 3.697,5.2397 4.425,3.4839 Z"></path>
                    </g>
                    <g style="mix-blend-mode: screen;" transform="translate(7.654388, 2.659953)" fill="#FFA69F" fill-rule="nonzero" id="Path">
                        <path d="M-2.84217094e-14,5.6196 C0.617,6.0922 1.131,6.94 1.39,8.0704 C1.714,9.4695 1.571,10.9659 1.094,12.1149 L4.235,15.5988 C5.379,12.8422 5.717,9.2471 4.944,5.8883 C4.318,3.1781 3.09,1.135 1.603,7.10542736e-15 L-2.84217094e-14,5.6196 Z"></path>
                    </g>
                    <g style="mix-blend-mode: screen;" transform="translate(1.178388, 1.658938)" fill="#FFFFFF" fill-rule="nonzero" id="Path">
                        <path d="M6.476,6.62051531 L8.079,1.00081531 C6.551,-0.166684695 4.744,-0.365884695 3.039,0.685815305 C1.76,1.46871531 0.727,2.83541531 -2.84217094e-14,4.53101531 L3.108,8.08911531 C3.414,7.38491531 3.845,6.81501531 4.373,6.48611531 C5.087,6.05061531 5.837,6.13401531 6.476,6.62051531 Z"></path>
                    </g>
                    <g style="mix-blend-mode: screen;" transform="translate(28.256501, 0.000000)" fill="#FFFFFF" id="Shape">
                        <path d="M0.667886559,7.23695314 C-1.04211344,13.4264531 0.644886559,20.6999531 4.43388656,23.4889531 C8.21888656,26.2779531 12.6758866,23.5260531 14.3808866,17.3411531 C16.0908866,11.1563531 14.4038866,3.87815314 10.6188866,1.08915314 C6.82888656,-1.69984686 2.37688656,1.05205314 0.667886559,7.23695314 Z M4.67088656,10.1834531 C5.37888656,7.60755314 7.23688656,6.45865314 8.81188656,7.62145314 C10.3918866,8.78435314 11.0958866,11.8188531 10.3828866,14.3946531 C9.66888656,16.9705531 7.81588656,18.1194531 6.23588656,16.9566531 C4.66088656,15.7938531 3.95688656,12.7639531 4.67088656,10.1834531 Z"></path>
                    </g>
                    <g style="mix-blend-mode: screen;" transform="translate(34.358388, 0.003667)" fill="#FFA69F" fill-rule="nonzero" id="Path">
                        <path d="M0,0.223885642 L0.829,7.26118564 C1.446,7.06658564 2.099,7.16848564 2.71,7.61788564 L4.517,1.08558564 C3.044,0.0014856424 1.473,-0.239414358 0,0.223885642 Z"></path>
                    </g>
                    <g style="mix-blend-mode: screen;" transform="translate(28.258402, 0.227553)" fill="#E85C4B" fill-rule="nonzero" id="Path">
                        <path d="M4.58098607,13.8198 C4.31198607,12.606 4.31598607,11.23 4.66898607,9.956 C5.10398607,8.3808 5.96598607,7.3431 6.92898607,7.0373 L6.09998607,0 C3.78398607,0.732 1.71298607,3.2291 0.665986071,7.0095 C-0.177013929,10.0579 -0.191013929,13.3704 0.461986071,16.2845 L4.58098607,13.8198 Z"></path>
                    </g>
                    <g style="mix-blend-mode: screen;" transform="translate(28.720388, 14.047353)" fill="#FFA69F" fill-rule="nonzero" id="Path">
                        <path d="M4.119,-7.10542736e-15 L0,2.4647 C0.672,5.4575 2.048,8.0287 3.97,9.4418 C5.407,10.4981 6.935,10.7575 8.376,10.3405 L7.612,3.2801 C7.01,3.4561 6.37,3.3496 5.773,2.9095 C4.971,2.3211 4.401,1.2463 4.119,-7.10542736e-15 Z"></path>
                    </g>
                </g>
                <g opacity="0.7" transform="translate(16.238661, 9.832497)" fill-rule="nonzero" id="Path">
                    <path d="M0.240338655,5.37700323 C0.243338655,5.37700323 0.246338655,5.37700323 0.249338655,5.37700323 C12.6193387,4.44120323 31.0123387,0.271603228 31.1973387,0.229903228 C31.2573387,0.211403228 31.2993387,0.151203228 31.2853387,0.0909032276 C31.2713387,0.0261032276 31.2113387,-0.0109967724 31.1463387,0.00290322759 C30.9613387,0.0446032276 12.5823387,4.20950323 0.231338655,5.14540323 C0.171338655,5.15000323 0.120338655,5.20560323 0.12411821,5.27050323 C0.129338655,5.33070323 0.180338655,5.37700323 0.240338655,5.37700323 Z" fill="url(#linearGradient-18)"></path>
                    <path d="M0.199338655,8.91660323 C0.202338655,8.91660323 0.205338655,8.91660323 0.208338655,8.91660323 C14.0933387,7.94840323 30.9753387,4.62200323 31.1423387,4.58960323 C31.2063387,4.57570323 31.2433387,4.51540323 31.2343387,4.45060323 C31.2203387,4.39040323 31.1603387,4.34870323 31.0953387,4.36260323 C30.9283387,4.39500323 14.0603387,7.71670323 0.194338655,8.68500323 C0.129338655,8.68960323 0.0783386554,8.74520323 0.0833386554,8.81010323 C0.0883386554,8.87030323 0.139338655,8.91660323 0.199338655,8.91660323 Z" fill="url(#linearGradient-19)"></path>
                    <path d="M0.157338655,12.6784032 C0.160338655,12.6784032 0.163338655,12.6784032 0.166338655,12.6784032 C11.1923387,11.9465032 30.8873387,8.98140323 31.0863387,8.94900323 C31.1513387,8.93970323 31.1923387,8.87950323 31.1833387,8.81930323 C31.1743387,8.75440323 31.1143387,8.71270323 31.0533387,8.72200323 C30.8543387,8.74980323 11.1653387,11.7148032 0.148338655,12.4468032 C0.0833386554,12.4514032 0.0363386554,12.5070032 0.0413386554,12.5719032 C0.0463386554,12.6321032 0.0973386554,12.6784032 0.157338655,12.6784032 Z" fill="url(#linearGradient-20)"></path>
                    <path d="M0.115338655,16.2781032 C0.115338655,16.2781032 0.117338655,16.2781032 0.120338655,16.2781032 C10.5633387,15.9677032 30.8313387,13.3362032 31.0353387,13.3084032 C31.0953387,13.2992032 31.1423387,13.2436032 31.1323387,13.1787032 C31.1233387,13.1185032 31.0683387,13.0675032 31.0033387,13.0814032 C30.7993387,13.1046032 10.5443387,15.7360032 0.111338655,16.0464032 C0.0463386554,16.0464032 -0.00466134462,16.1020032 0.000338655383,16.1623032 C0.000338655383,16.2271032 0.0513386554,16.2781032 0.115338655,16.2781032 Z" fill="url(#linearGradient-21)"></path>
                </g>
                <path d="M0,26.8612 L54.01,86.0829 L54.019,0 C54.019,0 28.353,7.8527 0,10.2339 L0,26.8612 Z" id="Path" fill="url(#linearGradient-22)" fill-rule="nonzero" style="mix-blend-mode: overlay;"></path>
                <g style="mix-blend-mode: overlay;" transform="translate(30.299000, 60.286900)" fill-rule="nonzero" id="Path">
                    <polygon fill="url(#linearGradient-23)" style="mix-blend-mode: overlay;" points="9.27 14.1117 12.926 15.1865 13.028 3.0392 9.368 2.423"></polygon>
                    <polygon fill="url(#linearGradient-24)" style="mix-blend-mode: overlay;" points="4.563 12.958 8.219 13.8707 8.335 0.6532 4.675 0"></polygon>
                    <polygon fill="url(#linearGradient-25)" style="mix-blend-mode: overlay;" points="0 12.0039 3.66 12.7729 3.702 8.2189 0.042 7.5656"></polygon>
                </g>
                <path d="M45.787,83.4003 C45.838,83.4003 45.879,83.3725 45.898,83.3261 C45.921,83.2659 45.888,83.2011 45.828,83.1779 C45.731,83.1408 35.738,79.3836 23.345,76.905 C23.285,76.8911 23.225,76.9328 23.211,76.993 C23.197,77.0579 23.238,77.1181 23.299,77.132 C35.673,79.606 45.648,83.3539 45.749,83.391 C45.762,83.3972 45.774,83.4003 45.787,83.4003 Z" id="Path" fill="url(#linearGradient-26)" fill-rule="nonzero"></path>
                <path d="M45.787,85.3741 C45.838,85.3741 45.879,85.3417 45.898,85.2953 C45.921,85.2351 45.888,85.1702 45.828,85.1471 C45.768,85.1286 39.736,82.5897 31.944,80.4725 C31.879,80.454 31.819,80.4911 31.8,80.5559 C31.781,80.6162 31.819,80.681 31.883,80.6949 C39.667,82.8121 45.689,85.3463 45.749,85.3648 C45.762,85.371 45.774,85.3741 45.787,85.3741 Z" id="Path" fill="url(#linearGradient-27)" fill-rule="nonzero"></path>
            </g>
            <g id="Group" opacity="0.3" transform="translate(21.765169, 10.456554)" fill-rule="nonzero">
                <path d="M0.0093,96.7937 C24.9247,84.0537 54.019,80.0463 54.019,80.0463 L54.019,10.2339 C25.666,7.8527 7.10542736e-15,0 7.10542736e-15,0 L0.0093,96.7937 Z" id="Path" fill="url(#linearGradient-28)"></path>
                <path d="M54.019,10.2339 C25.666,7.8527 7.10542736e-15,0 7.10542736e-15,0 L0.0093,86.0829 L54.019,26.8612 L54.019,10.2339 Z" id="Path" fill="url(#linearGradient-29)" style="mix-blend-mode: overlay;"></path>
                <g opacity="0.7" transform="translate(6.492716, 9.832497)" id="Path">
                    <path d="M31.163473,5.27050323 C31.1677837,5.20560323 31.1168837,5.15000323 31.0565837,5.14540323 C18.7054837,4.20950323 0.326983663,0.0446032276 0.141583663,0.00290322759 C0.0813836631,-0.0109967724 0.0211836631,0.0261032276 0.00268366315,0.0909032276 C-0.0112163369,0.151203228 0.0304836631,0.211403228 0.0906836631,0.229903228 C0.275983663,0.271603228 18.6683837,4.44120323 31.0380837,5.37700323 C31.0411837,5.37700323 31.0442837,5.37700323 31.0473837,5.37700323 C31.1075837,5.37700323 31.1585837,5.33070323 31.163473,5.27050323 Z" fill="url(#linearGradient-30)"></path>
                    <path d="M31.2049726,8.81010323 C31.2092837,8.74520323 31.1583837,8.68960323 31.0934837,8.68500323 C17.2273837,7.71670323 0.359183663,4.39500323 0.192383663,4.36260323 C0.127583663,4.34870323 0.0672836631,4.39040323 0.0533836631,4.45060323 C0.0441836631,4.51540323 0.0811836631,4.57570323 0.146083663,4.58960323 C0.312883663,4.62200323 17.1949837,7.94840323 31.0795837,8.91660323 C31.0826837,8.91660323 31.0857837,8.91660323 31.0888837,8.91660323 C31.1490837,8.91660323 31.2000837,8.87030323 31.2049726,8.81010323 Z" fill="url(#linearGradient-31)"></path>
                </g>
                <path d="M8.2695,83.391 C8.3714,83.3539 18.3459,79.606 30.7203,77.132 C30.7805,77.1181 30.8222,77.0579 30.8083,76.993 C30.799,76.9328 30.7342,76.8911 30.6739,76.905 C18.2811,79.3836 8.288,83.1408 8.1907,83.1779 C8.1305,83.2011 8.0981,83.2659 8.1212,83.3261 C8.1398,83.3725 8.1861,83.4003 8.2324,83.4003 C8.2448,83.4003 8.2571,83.3972 8.2695,83.391 Z" id="Path" fill="url(#linearGradient-32)"></path>
                <path d="M8.2695,85.3648 C8.3298,85.3463 14.3525,82.8121 22.1357,80.6949 C22.2005,80.681 22.2376,80.6162 22.219,80.5559 C22.2005,80.4911 22.1403,80.454 22.0754,80.4725 C14.283,82.5897 8.251,85.1286 8.1908,85.1471 C8.1306,85.1702 8.0981,85.2351 8.1213,85.2953 C8.1398,85.3417 8.1815,85.3741 8.2325,85.3741 C8.2448,85.3741 8.2572,85.371 8.2695,85.3648 Z" id="Path" fill="url(#linearGradient-33)"></path>
                <g style="mix-blend-mode: screen;" transform="translate(7.704400, 21.023700)" id="Path">
                    <path d="M-3.55271368e-15,19.0085 L10.7389,19.0085 L10.7389,0 C4.8089,0 -3.55271368e-15,8.5105 -3.55271368e-15,19.0085 Z" fill="url(#linearGradient-34)" style="mix-blend-mode: screen;"></path>
                    <path d="M11.9714,41.7557 C18.3462,41.7557 23.5165,32.6058 23.5165,21.3156 C23.5165,10.0253 18.3462,0.8755 11.9714,0.8755 L11.9714,21.3156 L11.9714,41.7557 Z" fill="#E85C4B"></path>
                    <path d="M11.9711,21.3156 L0.4214,21.3156 C0.4214,32.6059 5.5916,41.7558 11.9711,41.7558 L11.9711,21.3156 Z" fill="#FFFFFF"></path>
                </g>
            </g>
            <path d="M104.738969,136.043254 C102.617969,135.524254 100.856969,137.377254 100.805969,137.600254 C100.592969,138.494254 100.082969,139.240254 99.7312695,140.074254 C99.5412695,140.518254 99.3884695,140.986254 99.2957695,141.473254 L102.000969,141.473254 C101.820969,140.556254 101.482969,139.634254 101.834969,138.804254 C102.167969,138.012254 103.061969,138.207254 103.585969,137.762254 C104.094969,137.322254 104.743969,137.183254 105.137969,137.211254 C105.512969,137.229254 105.873969,137.428254 106.249969,137.966254 C106.360969,137.679254 106.230969,136.405254 104.738969,136.043254 Z" id="Path" fill="url(#linearGradient-35)" fill-rule="nonzero"></path>
            <path d="M100.106969,135.441254 C100.291969,132.592254 103.696969,128.232254 103.733969,128.190254 C103.795969,128.113254 103.857969,128.037254 103.919969,127.963254 C106.633969,124.618254 107.083969,119.930254 105.068969,116.015254 C102.459969,110.952254 97.6234695,109.886254 97.5771695,109.872254 L97.5586695,109.946254 C97.6095695,109.955254 102.413969,111.016254 105.003969,116.052254 C107.004969,119.939254 106.559969,124.595254 103.863969,127.917254 C103.801969,127.991254 103.739969,128.067254 103.678969,128.144254 C103.641969,128.186254 100.217969,132.564254 100.032969,135.436254 L100.106969,135.441254 Z" id="Path" fill="#FFCCCC" fill-rule="nonzero"></path>
            <path d="M106.434969,131.563254 C106.110969,131.605254 105.795969,131.711254 105.470969,131.716254 C104.966969,131.716254 104.493969,131.466254 104.011969,131.299254 C103.562969,131.137254 103.094969,131.049254 102.621969,131.030254 C102.241969,131.012254 101.838969,131.049254 101.505969,131.271254 C100.819969,131.721254 100.625969,132.772254 100.073969,133.425254 C99.6155695,133.972254 98.9252695,134.222254 98.5499695,134.848254 C98.3553695,135.167254 98.2673695,135.552254 98.1932695,135.932254 C97.8225695,137.743254 97.6280695,139.610254 97.6558695,141.473254 L100.041969,141.473254 C100.435969,140.996254 100.662969,140.352254 100.754969,139.698254 C100.810969,139.286254 100.801969,138.864254 100.796969,138.447254 C100.796969,137.993254 100.808969,137.539254 100.833969,137.085254 C100.870969,136.478254 100.926969,135.872254 101.088969,135.292254 C101.245969,134.713254 101.514969,134.162254 101.912969,133.768254 C102.505969,133.180254 103.339969,132.999254 104.122969,133.073254 C104.405969,133.101254 104.683969,133.157254 104.965969,133.143254 C105.795969,133.097254 106.564969,132.439254 107.388969,132.545254 C107.819969,132.601254 108.593969,133.180254 108.996969,132.939254 C108.871969,132.471254 108.273969,132.054254 107.912969,131.860254 C107.453969,131.605254 106.939969,131.494254 106.434969,131.563254 Z" id="Path" fill="url(#linearGradient-36)" fill-rule="nonzero"></path>
            <path d="M96.4930695,117.530254 C96.5162695,117.331254 96.7061695,116.729254 96.4837695,116.636254 C96.3077695,116.558254 96.0668695,116.951254 96.0066695,117.095254 C95.0661695,119.323254 94.8993695,122.404254 95.3487695,123.762254 C95.4923695,124.188254 95.6591695,124.614254 95.7378695,125.063254 C95.8027695,125.476254 95.7934695,125.897254 95.7842695,126.319254 C95.7626695,127.171254 95.7409695,128.025254 95.7193695,128.881254 C95.7147695,129.011254 95.7100695,129.145254 95.6637695,129.261254 C95.5757695,129.488254 95.3441695,129.599254 95.1309695,129.590254 C95.1279695,129.590254 95.1263695,129.590254 95.1263695,129.590254 C94.7603695,129.576254 94.4870695,129.201254 94.5055695,128.779254 C94.5657695,127.435254 95.1865695,126.106254 95.0337695,124.758254 C94.9595695,124.086254 94.6862695,123.447254 94.2692695,122.969254 C94.1673695,122.849254 93.9681695,122.923254 93.9727695,123.085254 C94.0422695,124.674254 94.0376695,126.328254 93.3658695,127.704254 C93.2037695,128.028254 93.0137695,128.330254 92.8794695,128.668254 C92.1984695,130.396254 93.2361695,132.420254 92.9767695,134.297254 C92.7404695,133.324254 91.7582695,132.800254 90.8919695,132.911254 C90.4286695,132.967254 89.9653695,133.180254 89.6596695,133.592254 C89.3538695,134.000254 89.2380695,134.621254 89.4557695,135.103254 C89.5159695,135.200254 89.5762695,134.834254 89.7244695,134.626254 C89.8263695,134.482254 89.9375695,134.366254 90.0533695,134.278254 C90.2248695,134.148254 90.8965695,134.000254 91.4154695,134.264254 C91.6609695,134.389254 91.9574695,134.681254 92.1011695,134.950254 C92.1891695,135.112254 92.2169695,135.316254 92.2261695,135.510254 C92.2771695,136.507254 92.1335695,137.674254 92.7404695,138.383254 C92.8840695,138.554254 93.0647695,138.679254 93.2083695,138.851254 C93.7318695,139.476254 93.6438695,140.528254 93.4539695,141.376254 L98.5083695,141.376254 C98.8233695,140.102254 99.5785695,139.041254 100.036969,137.822254 C100.537969,136.483254 100.666969,135.001254 100.754969,133.546254 C100.842969,132.156254 100.828969,130.567254 99.9445695,129.627254 C99.4812695,129.131254 98.7863695,128.825254 98.6102695,128.121254 C98.5639695,127.936254 98.5593695,127.741254 98.5546695,127.547254 C98.5407695,126.606254 99.1106695,125.114254 98.3276695,123.308254 C98.2025695,123.025254 98.0404695,122.761254 97.8643695,122.520254 L96.9053695,121.223254 C96.7246695,120.977254 96.5393695,120.722254 96.4513695,120.417254 C96.3772695,120.171254 96.3725695,119.912254 96.3725695,119.652254 C96.3725695,118.943254 96.4142695,118.235254 96.4930695,117.530254 Z" id="Path" fill="url(#linearGradient-37)" fill-rule="nonzero"></path>
            <path d="M93.9817695,140.671254 L94.0558695,140.671254 C94.0558695,140.644254 93.9817695,137.869254 92.1147695,136.113254 C91.0213695,135.084254 89.5295695,134.602254 87.6856695,134.681254 C86.8517695,134.718254 86.0919695,135.163254 85.6935695,135.849254 C85.3322695,136.474254 85.1793695,137.456254 86.5135695,138.591254 L86.5645695,138.536254 C85.5221695,137.651254 85.2534695,136.761254 85.7584695,135.886254 C86.1429695,135.223254 86.8795695,134.788254 87.6903695,134.755254 C89.5110695,134.677254 90.9842695,135.149254 92.0683695,136.168254 C93.9122695,137.901254 93.9817695,140.644254 93.9817695,140.671254 Z" id="Path" fill="#FFCCCC" fill-rule="nonzero"></path>
            <path d="M94.7557695,140.458254 C94.7788695,138.577254 93.5511695,136.247254 92.5227695,134.625254 C90.9429695,132.133254 90.7483695,129.057254 91.9945695,126.393254 C92.0686695,126.235254 92.1196695,126.143254 92.1196695,126.143254 C93.1017695,123.710254 91.8787695,121.876254 91.8694695,121.857254 L91.8092695,121.899254 C91.8185695,121.917254 93.0184695,123.720254 92.0547695,126.110254 C92.0547695,126.110254 92.0038695,126.203254 91.9296695,126.365254 C90.6695695,129.047254 90.8687695,132.151254 92.4624695,134.662254 C93.3010695,135.987254 94.7047695,138.498254 94.6862695,140.453254 L94.7557695,140.458254 Z" id="Path" fill="#FFCCCC" fill-rule="nonzero"></path>
            <path d="M97.7854695,141.491254 C98.0124695,141.070254 98.3877695,140.792254 98.6564695,140.407254 C99.1660695,139.680254 99.4301695,138.508254 99.3884695,137.572254 C99.3513695,136.641254 99.0409695,135.853254 99.2169695,134.941254 C99.2633695,134.695254 99.3328695,134.454254 99.4532695,134.246254 C99.5505695,134.079254 99.6802695,133.940254 99.7729695,133.768254 C99.9953695,133.351254 99.9814695,132.823254 99.9443695,132.332254 C99.8794695,131.512254 99.7729695,130.701254 99.6246695,129.900254 C99.5598695,129.553254 99.4856695,129.196254 99.5320695,128.844254 C99.5690695,128.538254 99.6941695,128.255254 99.8146695,127.977254 C100.555969,126.277254 101.255969,124.531254 101.069969,122.367254 C101.027969,121.931254 101.009969,121.589254 100.884969,121.218254 C100.819969,121.014254 100.523969,121.061254 100.513969,121.274254 C100.499969,121.783254 100.393969,122.293254 100.235969,122.770254 C99.9814695,123.534254 99.6107695,124.229254 99.2494695,124.934254 C99.0455695,125.327254 98.8463695,125.726254 98.7305695,126.166254 C98.6193695,126.615254 98.6008695,127.092254 98.5822695,127.560254 C98.5498695,128.575254 98.5128695,129.590254 98.6378695,130.595254 C98.7490695,131.452254 98.9668695,132.369254 98.6425695,133.152254 C98.5452695,133.389254 98.4016695,133.597254 98.2904695,133.829254 C97.9985695,134.454254 97.9800695,135.191254 98.0078695,135.909254 C98.0217695,136.177254 97.7761695,136.367254 97.5769695,136.242254 C97.4657695,136.173254 97.3684695,136.066254 97.2989695,135.941254 C97.1461695,135.663254 97.1183695,135.316254 97.0997695,134.987254 C97.0534695,134.125254 97.0488695,133.263254 97.0951695,132.402254 C97.1322695,131.730254 97.1924695,131.058254 97.1322695,130.391254 C97.0997695,129.988254 97.0210695,129.599254 96.9561695,129.200254 C96.7615695,127.982254 96.7291695,126.726254 96.8542695,125.494254 C96.8959695,125.073254 96.9561695,124.642254 96.9700695,124.220254 C96.9747695,124.016254 96.6920695,123.965254 96.6272695,124.160254 C96.4048695,124.855254 96.0388695,125.531254 95.8859695,126.259254 C95.5385695,127.977254 96.4465695,129.747254 96.2751695,131.503254 C96.1593695,132.703254 95.5477695,133.931254 95.9462695,135.047254 C96.0249695,135.260254 96.1361695,135.464254 96.2102695,135.677254 C96.3260695,135.997254 96.1222695,136.349254 95.8257695,136.340254 C95.4087695,136.321254 94.9825695,136.001254 94.7555695,135.571254 C94.4405695,134.978254 94.4034695,134.250254 94.3756695,133.551254 C94.3478695,132.856254 94.3061695,132.124254 93.9865695,131.535254 C93.9216695,131.420254 93.8475695,131.308254 93.7872695,131.188254 C93.6436695,130.896254 93.6066695,130.562254 93.6019695,130.220254 C93.6019695,130.011254 93.3193695,129.942254 93.2267695,130.127254 C93.0275695,130.521254 92.9533695,131.021254 92.9394695,131.489254 C92.9070695,132.568254 93.0923695,133.657254 93.4815695,134.639254 C93.7502695,135.334254 94.1254695,135.988254 94.2830695,136.729254 C94.4451695,137.512254 94.3571695,138.327254 94.3478695,139.129254 C94.3432695,139.930254 94.3942695,140.829254 94.8389695,141.440254 L97.7854695,141.491254 Z" id="Path" fill="url(#linearGradient-38)" fill-rule="nonzero"></path>
            <polygon id="Path" fill="#11455B" fill-rule="nonzero" points="89.7475695 141.491254 105.137969 141.491254 105.137969 140.671254 89.7475695 140.671254"></polygon>
            <polygon id="Path" fill="#05293C" fill-rule="nonzero" points="92.7358695 153.852254 102.149969 153.852254 104.238969 141.491254 90.6510695 141.491254"></polygon>
            <polygon id="Path" fill="url(#linearGradient-39)" fill-rule="nonzero" style="mix-blend-mode: multiply;" points="102.895969 149.450254 104.238969 141.491254 90.6510695 141.491254 91.9760695 149.349254"></polygon>
            <path d="M97.1462695,109.909254 C97.1462695,110.145254 97.3362695,110.331254 97.5678695,110.331254 C97.8041695,110.331254 97.9894695,110.145254 97.9894695,109.909254 C97.9894695,109.677254 97.8041695,109.488254 97.5678695,109.488254 C97.3362695,109.488254 97.1462695,109.677254 97.1462695,109.909254 Z" id="Path" fill="#FFFFFF" fill-rule="nonzero"></path>
            <path d="M91.3970695,121.705254 C91.3970695,121.936254 91.5869695,122.126254 91.8185695,122.126254 C92.0548695,122.126254 92.2448695,121.936254 92.2448695,121.705254 C92.2448695,121.468254 92.0548695,121.278254 91.8185695,121.278254 C91.5869695,121.278254 91.3970695,121.468254 91.3970695,121.705254 Z" id="Path" fill="#FFFFFF" fill-rule="nonzero"></path>
            <path d="M86.2080695,138.712254 C86.2080695,138.943254 86.3979695,139.133254 86.6342695,139.133254 C86.8659695,139.133254 87.0558695,138.943254 87.0558695,138.712254 C87.0558695,138.475254 86.8659695,138.290254 86.6342695,138.290254 C86.3979695,138.290254 86.2080695,138.475254 86.2080695,138.712254 Z" id="Path" fill="#FFFFFF" fill-rule="nonzero"></path>
            <path d="M68.1676695,92.985854 C59.3652695,94.278454 51.7952695,92.902554 48.5105695,92.114954 C46.8797695,108.010254 45.1887695,127.764254 44.2714695,138.781254 C44.0491695,141.445254 43.6506695,147.167254 43.3124695,152.105254 C43.1827695,153.996254 45.8512695,154.542254 46.4674695,152.749254 C52.1009695,136.451254 58.5360695,103.132254 58.5360695,103.132254 C58.2070695,125.040254 60.4308695,142.803254 62.3256695,152.527254 C62.6870695,154.394254 65.4111695,154.227254 65.5408695,152.332254 C65.9485695,146.384254 66.4025695,138.262254 66.5415695,136.029254 C67.8248695,115.455254 68.4039695,84.100054 68.5753695,72.638454 C68.5058695,77.136954 68.3761695,84.090854 68.1676695,92.985854 Z" id="Path" fill="#05293C" fill-rule="nonzero"></path>
            <path d="M94.3524695,70.118254 C95.6032695,69.608554 95.1492695,67.736954 93.4767695,68.010254 L77.2942695,70.229354 C77.2942695,70.229354 66.2356695,63.307954 62.0985695,62.094154 C61.3526695,61.876354 61.0283695,61.357454 60.3334695,61.306554 C59.6431695,61.250954 59.7450695,61.172154 59.0547695,61.255554 C57.7390695,61.408454 55.6079695,61.899554 54.1207695,62.566654 C44.8365695,66.750154 40.3473695,76.599554 40.3473695,76.599554 L45.5916695,77.688254 L51.1325695,71.424654 C50.3913695,75.575654 49.4601695,82.853854 48.5103695,92.114954 C50.5627695,92.606054 53.0505695,93.792054 59.0362695,94.125654 C63.6597695,94.385054 64.8689695,93.467754 68.1675695,92.985954 C68.5011695,78.749154 68.5752695,72.406854 68.5752695,72.406854 L77.1460695,75.617354 L94.3524695,70.118254 Z" id="Path" fill="#FFDCDC" fill-rule="nonzero"></path>
            <path d="M48.5105695,92.114854 L50.2246695,92.601354 L52.0592695,70.845454 L51.1327695,71.424554 C50.4424695,73.328654 48.5105695,92.114854 48.5105695,92.114854 Z" id="Path" fill="url(#linearGradient-40)" fill-rule="nonzero"></path>
            <path d="M65.0173695,57.243554 L66.6017695,54.519354 C66.6017695,54.519354 64.0397695,53.731854 60.8894695,53.212954 C59.0131695,52.902554 57.4843695,54.852954 57.6742695,56.747754 C57.7900695,57.952354 58.3645695,58.934454 59.3189695,61.301854 L62.4368695,60.296554 L65.0173695,57.243554 Z" id="Path" fill="#011721" fill-rule="nonzero"></path>
            <path d="M62.0987695,62.093854 C61.8208695,61.820554 61.9412695,61.343354 62.3165695,61.236854 C62.4416695,61.204354 62.5759695,61.195154 62.7149695,61.222954 L64.2021695,61.510154 L65.9579695,59.624554 L64.7441695,56.566854 C64.7441695,56.566854 63.8500695,58.679454 61.5011695,58.776754 L60.8710695,57.169154 C60.8710695,57.169154 59.3144695,57.757554 59.8843695,59.499454 C59.8843695,59.499454 60.1344695,61.042254 59.0550695,61.255354 L60.8154695,64.618754 L62.0987695,62.093854 Z" id="Path" fill="#EDAC80" fill-rule="nonzero"></path>
            <path d="M43.6044695,147.899254 C43.5025695,149.307254 43.4052695,150.734254 43.3125695,152.105254 C43.1828695,153.996254 45.8513695,154.542254 46.4675695,152.749254 C46.9956695,151.225254 47.5284695,149.548254 48.0658695,147.764254 L43.6044695,147.899254 Z" id="Path" fill="#EDAC80" fill-rule="nonzero"></path>
            <path d="M65.5408695,152.332254 C65.6474695,150.734254 65.7632695,148.983254 65.8698695,147.227254 L61.4176695,147.361254 C61.7234695,149.270254 62.0245695,150.998254 62.3256695,152.527254 C62.6870695,154.394254 65.4111695,154.227254 65.5408695,152.332254 Z" id="Path" fill="#EDAC80" fill-rule="nonzero"></path>
            <path d="M61.4175695,147.361254 L63.4467695,147.301254 L58.8741695,97.933554 L45.5361695,147.843254 L48.0656695,147.764254 C53.2498695,130.502254 58.5359695,103.131254 58.5359695,103.131254 C58.2579695,121.598254 59.7960695,137.118254 61.4175695,147.361254 Z" id="Path" fill="url(#linearGradient-41)" fill-rule="nonzero"></path>
            <polygon id="Path" fill="#FFC3C2" fill-rule="nonzero" points="52.0591695 70.845554 52.3185695 68.997054 45.5916695 77.688254"></polygon>
            <path d="M62.0662695,61.014654 C61.6956695,60.917354 61.3111695,61.093454 61.1350695,61.431654 L60.8154695,64.619054 L62.0987695,62.094154 C61.8207695,61.820754 61.9412695,61.343654 62.3164695,61.237054 C62.4415695,61.204654 62.5759695,61.195354 62.7148695,61.223154 L63.1828695,61.311154 L62.0662695,61.014654 Z" id="Path" fill="url(#linearGradient-42)" fill-rule="nonzero"></path>
            <path d="M63.4468695,147.301254 L61.4176695,147.361254 C61.7234695,149.270254 62.0245695,150.998254 62.3256695,152.527254 C62.4971695,153.416254 63.2105695,153.843254 63.9193695,153.838297 L63.4468695,147.301254 Z" id="Path" fill="url(#linearGradient-43)" fill-rule="nonzero"></path>
            <path d="M45.5360695,147.843254 L44.8457695,153.838254 C45.5082695,153.880254 46.1939695,153.551254 46.4672695,152.749254 C46.9954695,151.225254 47.5282695,149.548254 48.0656695,147.764254 L45.5360695,147.843254 Z" id="Path" fill="url(#linearGradient-44)" fill-rule="nonzero"></path>
            <path d="M40.3475695,76.599354 C40.3475695,76.599354 40.6949695,85.003354 47.1485695,94.977854 C47.6905695,95.816454 48.3947695,96.705954 48.3947695,96.705954 C48.8302695,97.298954 49.7707695,97.113654 49.5205695,95.811754 L49.4417695,95.348554 C49.2703695,94.370954 45.5919695,77.688054 45.5919695,77.688054 L40.3475695,76.599354 Z" id="Path" fill="#FFDCDC" fill-rule="nonzero"></path>
            <path d="M67.1346695,84.475154 C66.3702695,90.521054 65.0035695,93.634354 65.0035695,93.634354 C65.9578695,93.416554 66.9122695,93.166454 68.1677695,92.981054 C68.5013695,78.748954 68.5754695,72.406654 68.5754695,72.406654 L77.1462695,75.617154 L94.3526695,70.117954 C94.8761695,69.904854 95.0984695,69.450854 95.0567695,69.015354 L77.2944695,74.801854 L68.2140695,72.045254 C68.2140695,72.045254 67.5237695,81.408254 67.1346695,84.475154 Z" id="Path" fill="url(#linearGradient-45)" fill-rule="nonzero"></path>
            <path d="M90.9333695,71.211554 L94.3524695,70.118254 C95.6032695,69.608554 95.1492695,67.736954 93.4767695,68.010254 L90.7897695,68.380854 L90.9333695,71.211554 Z" id="Path" fill="#EDAC80" fill-rule="nonzero"></path>
            <path d="M90.9335695,71.211354 L94.3526695,70.117954 C94.8761695,69.904854 95.0984695,69.450854 95.0567695,69.015354 L90.8918695,70.372854 L90.9335695,71.211354 Z" id="Path" fill="url(#linearGradient-46)" fill-rule="nonzero"></path>
            <polygon id="Path" fill="#05293C" fill-rule="nonzero" points="90.5721695 71.327154 90.9428695 71.211254 90.7899695 68.380654 90.4054695 68.431554"></polygon>
            <polygon id="Path" fill="#011721" fill-rule="nonzero" points="90.8918695 70.373054 90.5212695 70.493554 90.5721695 71.327454 90.9335695 71.211554"></polygon>
            <path d="M48.3947695,96.705954 C48.7514695,97.192354 49.4370695,97.141454 49.5390695,96.400154 C44.3455695,90.507154 40.3474695,76.599354 40.3474695,76.599354 C40.3474695,76.599354 40.6949695,85.003354 47.1484695,94.977854 C47.6905695,95.816454 48.3947695,96.705954 48.3947695,96.705954 Z" id="Path" fill="url(#linearGradient-47)" fill-rule="nonzero"></path>
            <path d="M49.4417695,95.348554 C49.4140695,95.191054 49.2889695,94.602654 49.1035695,93.740954 C49.1035695,93.740954 48.7422695,94.681454 47.1995695,95.061354 C47.7369695,95.876754 48.3947695,96.705954 48.3947695,96.705954 C48.8302695,97.298954 49.7707695,97.113654 49.5205695,95.811854 L49.4417695,95.348554 Z" id="Path" fill="#EDAC80" fill-rule="nonzero"></path>
            <path d="M48.6309695,96.919054 C48.6680695,96.943754 48.7081695,96.963854 48.7514695,96.979254 C48.7823695,96.991654 48.8131695,97.000854 48.8440695,97.007054 C48.8718695,97.011654 48.9043695,97.016354 48.9321695,97.016354 C48.9738695,97.020954 49.0154695,97.020954 49.0571695,97.016354 C49.0618695,97.011754 49.0710695,97.011654 49.0803695,97.007054 C49.2980695,96.956154 49.4880695,96.761554 49.5390695,96.400154 C49.0803695,95.881254 48.6309695,95.297554 48.1954695,94.667454 C47.9360695,94.820354 47.6117695,94.959354 47.1994695,95.061254 C47.1994695,95.061254 47.2009695,95.061254 47.2040695,95.061254 C47.7368695,95.876654 48.3947695,96.705954 48.3947695,96.705954 C48.4456695,96.775454 48.5012695,96.831054 48.5614695,96.877354 C48.5846695,96.891254 48.6078695,96.905154 48.6309695,96.919054 Z" id="Path" fill="#D39266" fill-rule="nonzero"></path>
            <path d="M49.4326695,92.406754 C49.4326695,92.406754 49.1037695,95.482954 48.0520695,96.655054 L47.7277695,99.972254 L50.2851695,96.428054 L49.4326695,92.406754 Z" id="Path" fill="#05293C" fill-rule="nonzero"></path>
            <polygon id="Path" fill="#011721" fill-rule="nonzero" points="48.0519695 96.654954 47.7276695 99.972254 49.1962695 97.933654 48.7422695 95.422654"></polygon>
            <path d="M49.0478695,93.472454 C49.0478695,93.472454 48.7235695,94.051554 48.0054695,94.389754 L48.1954695,94.667654 C48.1954695,94.667654 48.8949695,94.269254 49.1034695,93.741154 L49.0478695,93.472454 Z" id="Path" fill="#05293C" fill-rule="nonzero"></path>
            <path d="M48.0055695,94.389654 C48.0055695,94.389654 47.5237695,94.625954 47.0233695,94.792754 L47.1994695,95.061454 C47.1994695,95.061454 47.8573695,94.899254 48.1955695,94.667654 L48.0055695,94.389654 Z" id="Path" fill="#011721" fill-rule="nonzero"></path>
            <path d="M68.7977695,89.275154 L70.8223695,89.469754 L70.9289695,87.542454 C63.0530695,79.615654 60.8153695,64.619154 60.8153695,64.619154 C61.9272695,83.567454 68.7977695,89.275154 68.7977695,89.275154 Z" id="Path" fill="#011721" fill-rule="nonzero"></path>
            <path d="M150.122969,85.341654 L119.906969,71.318054 C118.679969,70.692654 117.687969,72.165854 118.957969,73.087854 C118.957969,73.087854 136.988969,86.161754 147.829969,90.609254 C149.158969,91.155954 150.122969,85.341654 150.122969,85.341654 Z" id="Path" fill="#FFFFFF" fill-rule="nonzero"></path>
            <path d="M118.957969,73.087854 C118.957969,73.087854 119.929969,73.792054 121.565969,74.936354 C121.528969,73.778154 122.376969,72.911754 122.705969,72.615254 L119.906969,71.318054 C118.679969,70.692654 117.687969,72.165854 118.957969,73.087854 Z" id="Path" fill="#EDAC80" fill-rule="nonzero"></path>
            <path d="M118.957969,73.087954 C118.957969,73.087954 135.686969,85.216754 146.605969,90.085854 L146.990969,90.039454 L146.045969,87.176354 L118.433969,71.749054 C118.276969,72.147454 118.387969,72.670954 118.957969,73.087954 Z" id="Path" fill="url(#linearGradient-48)" fill-rule="nonzero"></path>
            <path d="M121.875969,73.671654 L118.433969,71.749054 C118.276969,72.147454 118.387969,72.670954 118.957969,73.087954 C118.957969,73.087954 119.930969,73.792154 121.565969,74.936454 C121.547969,74.454654 121.686969,74.033054 121.875969,73.671654 Z" id="Path" fill="url(#linearGradient-49)" fill-rule="nonzero"></path>
            <path d="M150.089969,76.085354 C148.968969,75.858354 148.931969,77.595654 146.953969,77.655954 C144.877969,77.720754 144.90596,79.087454 144.90596,80.338354 C144.90596,82.728854 146.846969,84.670054 149.242969,84.670054 C154.013969,84.670054 154.722969,77.030454 150.089969,76.085354 Z" id="Path" fill="#011721" fill-rule="nonzero"></path>
            <path d="M153.027969,80.977254 C151.419969,80.977254 150.122969,82.279154 150.122969,83.882054 C150.122969,85.485054 151.419969,86.786854 153.027969,86.786854 C154.630969,86.786854 155.931969,85.485054 155.931969,83.882054 C155.931969,82.279154 154.630969,80.977254 153.027969,80.977254 Z" id="Path" fill="#011721" fill-rule="nonzero"></path>
            <path d="M155.765969,114.945254 C153.421969,110.266254 144.984969,108.844254 144.984969,108.844254 C136.872969,112.462254 126.828969,117.405254 126.828969,117.405254 C125.485969,131.369254 124.785969,144.670254 124.053969,152.430254 C123.919969,153.857254 125.855969,154.403254 126.499969,153.125254 C132.962969,140.296254 136.650969,123.864254 136.650969,123.864254 C145.095969,121.714254 150.127969,119.425254 153.115969,117.498254 C154.171969,116.817254 155.065969,115.946254 155.765969,114.945254 Z" id="Path" fill="#05293C" fill-rule="nonzero"></path>
            <path d="M136.650969,123.864254 C145.095969,121.714254 150.127969,119.425254 153.115969,117.498254 C154.171969,116.817254 155.065969,115.946254 155.765969,114.945254 C154.741969,112.898254 152.550969,111.475254 150.405969,110.521254 L131.600969,120.723254 L128.292969,149.326254 C133.638969,137.276254 136.650969,123.864254 136.650969,123.864254 Z" id="Path" fill="url(#linearGradient-50)" fill-rule="nonzero"></path>
            <path d="M126.499969,153.125254 C127.111969,151.906254 127.699969,150.655254 128.264969,149.391254 C128.264969,149.391254 127.120969,149.446254 126.059969,148.932254 C125.387969,148.612254 124.474969,147.371254 124.474969,147.371254 C124.331969,149.238254 124.192969,150.938254 124.053969,152.430254 C123.919969,153.857254 125.855969,154.403254 126.499969,153.125254 Z" id="Path" fill="#EDAC80" fill-rule="nonzero"></path>
            <path d="M124.864969,153.750254 C125.433969,153.968254 126.152969,153.810254 126.499969,153.125254 C127.111969,151.906254 127.699969,150.655254 128.264969,149.390254 C128.264969,149.390254 127.319969,149.432254 126.355969,149.062254 L124.864969,153.750254 Z" id="Path" fill="url(#linearGradient-51)" fill-rule="nonzero"></path>
            <path d="M124.373969,103.340254 L141.273969,103.340254 L145.258969,98.397054 L144.984969,108.844254 C144.984969,108.844254 153.421969,110.266254 155.765969,114.945254 C156.928969,113.287254 157.558969,111.267254 157.521969,109.177254 C157.312969,97.558454 154.199969,90.247854 151.734969,86.592554 C151.350969,86.013454 150.965969,85.489954 150.590969,85.003454 C149.640969,84.595754 147.745969,85.341654 147.745969,85.341654 C147.714969,85.357054 147.680969,85.374054 147.643969,85.392654 C147.254969,85.591854 146.930969,85.897554 146.684969,86.254354 L145.531969,87.917554 L137.729969,99.193854 L124.238969,102.353254 C123.543969,102.474254 123.664969,103.335254 124.373969,103.340254 Z" id="Path" fill="#FFFFFF" fill-rule="nonzero"></path>
            <path d="M144.238969,82.946554 L145.813969,84.878454 L147.490969,84.526354 C147.704969,84.479954 147.917969,84.600454 147.986969,84.804254 C148.065969,85.017354 147.958969,85.253654 147.745969,85.341754 C147.745969,85.341754 149.645969,84.591154 150.594969,85.003554 C150.178969,84.461454 150.238969,84.517054 149.849969,84.076954 C149.589969,83.780454 149.603969,82.932654 149.751969,82.640754 C150.502969,81.162854 149.339969,81.153654 148.987969,81.681754 C148.487969,82.432254 147.560969,81.774454 147.009969,81.297254 C145.883969,80.315054 145.725969,80.217754 145.725969,80.217754 L144.238969,82.946554 Z" id="Path" fill="#EDAC80" fill-rule="nonzero"></path>
            <path d="M156.585969,118.036254 C157.117969,118.156254 157.655969,117.850254 157.784969,117.350254 L164.178969,92.448654 C164.307969,91.948254 163.979969,91.447954 163.441969,91.327454 C162.908969,91.207054 162.371969,91.517454 162.241969,92.013154 L155.848969,116.914254 C155.718969,117.415254 156.047969,117.915254 156.585969,118.036254 Z" id="Path" fill="#841919" fill-rule="nonzero"></path>
            <path d="M164.122969,91.864754 L156.010969,116.289254 L155.848969,116.914254 C155.718969,117.415254 156.047969,117.915254 156.585969,118.035254 C157.117969,118.156254 157.655969,117.850254 157.785969,117.350254 L164.178969,92.448454 C164.233969,92.244654 164.206969,92.040754 164.122969,91.864754 Z" id="Path" fill="#600C0C" fill-rule="nonzero"></path>
            <path d="M157.938969,119.309254 L159.091969,118.485254 C160.083969,117.771254 159.541969,116.289254 158.290969,116.289254 L137.368969,116.289254 C135.343969,116.289254 134.519969,118.712254 136.168969,119.805254 C143.043969,124.345254 151.188969,124.160254 157.938969,119.309254 Z" id="Path" fill="#841919" fill-rule="nonzero"></path>
            <path d="M131.984969,153.833254 C132.249969,153.889254 132.517969,153.736254 132.582969,153.486254 L140.921969,121.014254 C140.986969,120.764254 140.824969,120.509254 140.555969,120.454254 C140.287969,120.394254 140.018969,120.546254 139.953969,120.797254 L131.614969,153.273254 C131.549969,153.518254 131.716969,153.773254 131.984969,153.833254 Z" id="Path" fill="#600C0C" fill-rule="nonzero"></path>
            <path d="M163.460969,153.273254 L155.121969,120.797254 C155.056969,120.546254 154.787969,120.394254 154.523969,120.454254 C154.254969,120.509254 154.088969,120.764254 154.152969,121.014254 L162.492969,153.486254 C162.556969,153.736254 162.825969,153.889254 163.094969,153.833254 C163.363969,153.773254 163.525969,153.518254 163.460969,153.273254 Z" id="Path" fill="#600C0C" fill-rule="nonzero"></path>
            <path d="M157.937969,119.309254 L159.091969,118.485254 C159.480969,118.202254 159.628969,117.804254 159.596969,117.424254 C157.071969,117.377254 143.608969,117.243254 135.751969,119.434254 C135.871969,119.569254 136.006969,119.694254 136.168969,119.805254 C143.043969,124.345254 151.187969,124.160254 157.937969,119.309254 Z" id="Path" fill="#600C0C" fill-rule="nonzero"></path>
            <path d="M147.347969,84.554354 L147.490969,84.526554 C147.703969,84.480154 147.917969,84.600654 147.986969,84.804454 C148.065969,85.017554 147.958969,85.253854 147.745969,85.341854 C147.745969,85.341854 148.204969,85.165854 148.778969,85.026854 L148.584969,84.693254 C148.454969,84.475554 148.195969,84.364354 147.949969,84.419954 L147.347969,84.554354 Z" id="Path" fill="#D39266" fill-rule="nonzero"></path>
            <path d="M123.789969,102.918254 C123.835969,103.141254 124.035969,103.340254 124.373969,103.340254 L141.273969,103.340254 L145.258969,98.397054 L145.244969,98.957654 L144.984969,108.844254 C144.984969,108.844254 153.421969,110.266254 155.765969,114.945254 C152.786969,104.962254 148.626969,93.203654 148.626969,93.203654 L140.935969,102.418254 L123.789969,102.918254 Z" id="Path" fill="url(#linearGradient-52)" fill-rule="nonzero"></path>
            <path d="M127.907969,101.492254 L124.238969,102.353254 C123.543969,102.474254 123.664969,103.336254 124.372969,103.340254 L128.213969,103.340254 L127.907969,101.492254 Z" id="Path" fill="#EDAC80" fill-rule="nonzero"></path>
            <path d="M124.372969,103.340254 L128.213969,103.340254 L128.125969,102.793254 L123.789969,102.919254 C123.835969,103.141254 124.034969,103.340254 124.372969,103.340254 Z" id="Path" fill="#D39266" fill-rule="nonzero"></path>
            <polygon id="Path" fill="#600C0C" fill-rule="nonzero" points="131.790969 153.843254 133.096969 153.843254 133.096969 103.915254 131.790969 103.915254"></polygon>
            <polygon id="Path" fill="#600C0C" fill-rule="nonzero" points="78.0589695 153.843254 79.3654695 153.843254 79.3654695 103.915254 78.0589695 103.915254"></polygon>
            <path d="M141.945969,103.961254 L141.945969,103.864254 C141.945969,103.553254 141.690969,103.298254 141.380969,103.298254 L69.8264695,103.298254 C69.4882695,103.298254 69.2103695,103.576254 69.2103695,103.915254 C69.2103695,104.253254 69.4882695,104.526254 69.8264695,104.526254 L141.380969,104.526254 C141.690969,104.526254 141.945969,104.276254 141.945969,103.961254 Z" id="Path" fill="#600C0C" fill-rule="nonzero"></path>
            <polygon id="Path" fill="#011721" fill-rule="nonzero" points="129.228969 102.465254 115.171969 102.465254 115.171969 103.299254 129.228969 103.299254"></polygon>
            <polygon id="Path" fill="#011721" fill-rule="nonzero" points="120.977969 102.464254 118.234969 92.494654 112.007969 92.494654 115.172969 102.464254"></polygon>
            <path d="M13.2166695,154.020254 L186.504969,154.020254 C186.588969,154.020254 186.656969,153.946254 186.656969,153.852254 C186.656969,153.758254 186.588969,153.684254 186.504969,153.684254 L13.2166695,153.684254 C13.1327695,153.684254 13.0646695,153.758254 13.0646695,153.852254 C13.0646695,153.946254 13.1327695,154.020254 13.2166695,154.020254 Z" id="Path" fill="#FFFFFF" fill-rule="nonzero"></path>
        </g>
    </g>
</svg>