<?xml version="1.0" encoding="UTF-8"?>
<svg width="201px" height="185px" viewBox="0 0 201 185" version="1.1" xmlns="http://www.w3.org/2000/svg" xmlns:xlink="http://www.w3.org/1999/xlink">
    <title>_Group_</title>
    <g id="Page-1" stroke="none" stroke-width="1" fill="none" fill-rule="evenodd">
        <g id="_Group_">
            <path d="M0,184.5 C0.215155,129.218 45.0885,84.4729 100.424,84.4729 C155.759,84.4729 200.632,129.218 200.847,184.5 L0,184.5 Z" id="Path" fill="#DD5045" fill-rule="nonzero"></path>
            <path d="M150.827,140.114 L121.846,140.114 C121.74,140.114 121.651,140.025 121.651,139.918 C121.651,139.812 121.74,139.723 121.846,139.723 L150.827,139.723 C150.934,139.723 151.023,139.812 151.023,139.918 C151.023,140.025 150.934,140.114 150.827,140.114 Z" id="Path" fill="#FFB9B6" fill-rule="nonzero"></path>
            <path d="M143.104,142.074 L133.278,142.074 C133.177,142.074 133.088,141.985 133.088,141.878 C133.088,141.772 133.177,141.689 133.278,141.689 L143.104,141.689 C143.21,141.689 143.299,141.772 143.299,141.878 C143.299,141.985 143.21,142.074 143.104,142.074 Z" id="Path" fill="#FFB9B6" fill-rule="nonzero"></path>
            <path d="M154.997,142.074 L145.171,142.074 C145.064,142.074 144.981,141.985 144.981,141.878 C144.981,141.772 145.064,141.689 145.171,141.689 L154.997,141.689 C155.104,141.689 155.193,141.772 155.193,141.878 C155.193,141.985 155.104,142.074 154.997,142.074 Z" id="Path" fill="#FFB9B6" fill-rule="nonzero"></path>
            <path d="M166.891,142.074 L157.064,142.074 C156.958,142.074 156.875,141.985 156.875,141.878 C156.875,141.772 156.958,141.689 157.064,141.689 L166.891,141.689 C166.997,141.689 167.086,141.772 167.086,141.878 C167.086,141.985 166.997,142.074 166.891,142.074 Z" id="Path" fill="#FFB9B6" fill-rule="nonzero"></path>
            <path d="M170.468,142.074 L168.957,142.074 C168.851,142.074 168.768,141.985 168.768,141.878 C168.768,141.772 168.851,141.689 168.957,141.689 L170.468,141.689 C170.574,141.689 170.657,141.772 170.657,141.878 C170.657,141.985 170.574,142.074 170.468,142.074 Z" id="Path" fill="#FFB9B6" fill-rule="nonzero"></path>
            <path d="M143.104,155.809 L121.846,155.809 C121.74,155.809 121.651,155.72 121.651,155.614 C121.651,155.513 121.74,155.424 121.846,155.424 L143.104,155.424 C143.21,155.424 143.299,155.513 143.299,155.614 C143.299,155.72 143.21,155.809 143.104,155.809 Z" id="Path" fill="#FFB9B6" fill-rule="nonzero"></path>
            <path d="M155.459,155.809 L145.633,155.809 C145.526,155.809 145.437,155.72 145.437,155.614 C145.437,155.513 145.526,155.424 145.633,155.424 L155.459,155.424 C155.56,155.424 155.649,155.513 155.649,155.614 C155.649,155.72 155.56,155.809 155.459,155.809 Z" id="Path" fill="#FFB9B6" fill-rule="nonzero"></path>
            <path d="M159.031,155.809 L157.526,155.809 C157.42,155.809 157.331,155.72 157.331,155.614 C157.331,155.513 157.42,155.424 157.526,155.424 L159.031,155.424 C159.137,155.424 159.226,155.513 159.226,155.614 C159.226,155.72 159.137,155.809 159.031,155.809 Z" id="Path" fill="#FFB9B6" fill-rule="nonzero"></path>
            <path d="M131.637,157.77 L121.817,157.77 C121.71,157.77 121.621,157.687 121.621,157.58 C121.621,157.473 121.71,157.385 121.817,157.385 L131.637,157.385 C131.744,157.385 131.833,157.473 131.833,157.58 C131.833,157.687 131.744,157.77 131.637,157.77 Z" id="Path" fill="#FFB9B6" fill-rule="nonzero"></path>
            <path d="M135.214,157.77 L133.71,157.77 C133.603,157.77 133.515,157.687 133.515,157.58 C133.515,157.473 133.603,157.385 133.71,157.385 L135.214,157.385 C135.321,157.385 135.41,157.473 135.41,157.58 C135.41,157.687 135.321,157.77 135.214,157.77 Z" id="Path" fill="#FFB9B6" fill-rule="nonzero"></path>
            <path d="M138.638,157.77 L137.128,157.77 C137.021,157.77 136.938,157.687 136.938,157.58 C136.938,157.474 137.021,157.385 137.128,157.385 L138.638,157.385 C138.745,157.385 138.828,157.474 138.828,157.58 C138.828,157.687 138.745,157.77 138.638,157.77 Z" id="Path" fill="#FFB9B6" fill-rule="nonzero"></path>
            <path d="M163.704,159.736 L153.884,159.736 C153.777,159.736 153.688,159.647 153.688,159.541 C153.688,159.434 153.777,159.345 153.884,159.345 L163.704,159.345 C163.811,159.345 163.899,159.434 163.899,159.541 C163.899,159.647 163.811,159.736 163.704,159.736 Z" id="Path" fill="#FFB9B6" fill-rule="nonzero"></path>
            <path d="M131.637,161.697 L121.817,161.697 C121.71,161.697 121.621,161.608 121.621,161.501 C121.621,161.394 121.71,161.312 121.817,161.312 L131.637,161.312 C131.744,161.312 131.833,161.394 131.833,161.501 C131.833,161.608 131.744,161.697 131.637,161.697 Z" id="Path" fill="#FFB9B6" fill-rule="nonzero"></path>
            <path d="M143.104,161.697 L133.278,161.697 C133.177,161.697 133.088,161.608 133.088,161.501 C133.088,161.394 133.177,161.312 133.278,161.312 L143.104,161.312 C143.21,161.312 143.299,161.394 143.299,161.501 C143.299,161.608 143.21,161.697 143.104,161.697 Z" id="Path" fill="#FFB9B6" fill-rule="nonzero"></path>
            <path d="M167.281,159.736 L165.777,159.736 C165.67,159.736 165.581,159.647 165.581,159.541 C165.581,159.434 165.67,159.345 165.777,159.345 L167.281,159.345 C167.388,159.345 167.477,159.434 167.477,159.541 C167.477,159.647 167.388,159.736 167.281,159.736 Z" id="Path" fill="#FFB9B6" fill-rule="nonzero"></path>
            <path d="M147.137,161.697 L145.633,161.697 C145.526,161.697 145.437,161.608 145.437,161.501 C145.437,161.394 145.526,161.312 145.633,161.312 L147.137,161.312 C147.244,161.312 147.333,161.394 147.333,161.501 C147.333,161.608 147.244,161.697 147.137,161.697 Z" id="Path" fill="#FFB9B6" fill-rule="nonzero"></path>
            <path d="M139.195,165.624 L137.69,165.624 C137.584,165.624 137.495,165.535 137.495,165.428 C137.495,165.322 137.584,165.233 137.69,165.233 L139.195,165.233 C139.301,165.233 139.39,165.322 139.39,165.428 C139.39,165.535 139.301,165.624 139.195,165.624 Z" id="Path" fill="#FFB9B6" fill-rule="nonzero"></path>
            <path d="M131.068,167.584 L129.564,167.584 C129.457,167.584 129.369,167.495 129.369,167.389 C129.369,167.282 129.457,167.199 129.564,167.199 L131.068,167.199 C131.175,167.199 131.264,167.282 131.264,167.389 C131.264,167.495 131.175,167.584 131.068,167.584 Z" id="Path" fill="#FFB9B6" fill-rule="nonzero"></path>
            <path d="M146.119,169.544 L144.608,169.544 C144.502,169.544 144.419,169.456 144.419,169.355 C144.419,169.248 144.502,169.159 144.608,169.159 L146.119,169.159 C146.219,169.159 146.308,169.248 146.308,169.355 C146.308,169.456 146.219,169.544 146.119,169.544 Z" id="Path" fill="#FFB9B6" fill-rule="nonzero"></path>
            <path d="M171.498,161.697 L161.672,161.697 C161.566,161.697 161.483,161.608 161.483,161.501 C161.483,161.394 161.566,161.312 161.672,161.312 L171.498,161.312 C171.605,161.312 171.694,161.394 171.694,161.501 C171.694,161.608 171.605,161.697 171.498,161.697 Z" id="Path" fill="#FFB9B6" fill-rule="nonzero"></path>
            <path d="M163.467,163.657 L153.641,163.657 C153.54,163.657 153.451,163.574 153.451,163.467 C153.451,163.361 153.54,163.272 153.641,163.272 L163.467,163.272 C163.574,163.272 163.662,163.361 163.662,163.467 C163.662,163.574 163.574,163.657 163.467,163.657 Z" id="Path" fill="#FFB9B6" fill-rule="nonzero"></path>
            <path d="M175.532,161.697 L174.028,161.697 C173.921,161.697 173.832,161.608 173.832,161.501 C173.832,161.394 173.921,161.312 174.028,161.312 L175.532,161.312 C175.639,161.312 175.727,161.394 175.727,161.501 C175.727,161.608 175.639,161.697 175.532,161.697 Z" id="Path" fill="#FFB9B6" fill-rule="nonzero"></path>
            <path d="M150.981,161.697 L149.477,161.697 C149.37,161.697 149.281,161.608 149.281,161.501 C149.281,161.394 149.37,161.312 149.477,161.312 L150.981,161.312 C151.088,161.312 151.177,161.394 151.177,161.501 C151.177,161.608 151.088,161.697 150.981,161.697 Z" id="Path" fill="#FFB9B6" fill-rule="nonzero"></path>
            <path d="M154.825,161.697 L153.321,161.697 C153.214,161.697 153.125,161.608 153.125,161.501 C153.125,161.394 153.214,161.312 153.321,161.312 L154.825,161.312 C154.932,161.312 155.021,161.394 155.021,161.501 C155.021,161.608 154.932,161.697 154.825,161.697 Z" id="Path" fill="#FFB9B6" fill-rule="nonzero"></path>
            <path d="M158.669,161.697 L157.159,161.697 C157.058,161.697 156.969,161.608 156.969,161.501 C156.969,161.394 157.058,161.312 157.159,161.312 L158.669,161.312 C158.776,161.312 158.859,161.394 158.859,161.501 C158.859,161.608 158.776,161.697 158.669,161.697 Z" id="Path" fill="#FFB9B6" fill-rule="nonzero"></path>
            <path d="M170.705,159.736 L169.2,159.736 C169.094,159.736 169.005,159.647 169.005,159.541 C169.005,159.434 169.094,159.345 169.2,159.345 L170.705,159.345 C170.812,159.345 170.9,159.434 170.9,159.541 C170.9,159.647 170.812,159.736 170.705,159.736 Z" id="Path" fill="#FFB9B6" fill-rule="nonzero"></path>
            <path d="M142.061,157.77 L140.551,157.77 C140.444,157.77 140.362,157.687 140.362,157.58 C140.362,157.473 140.444,157.385 140.551,157.385 L142.061,157.385 C142.168,157.385 142.251,157.473 142.251,157.58 C142.251,157.687 142.168,157.77 142.061,157.77 Z" id="Path" fill="#FFB9B6" fill-rule="nonzero"></path>
            <path d="M143.104,144.034 L133.278,144.034 C133.177,144.034 133.088,143.951 133.088,143.845 C133.088,143.738 133.177,143.649 133.278,143.649 L143.104,143.649 C143.21,143.649 143.299,143.738 143.299,143.845 C143.299,143.951 143.21,144.034 143.104,144.034 Z" id="Path" fill="#FFB9B6" fill-rule="nonzero"></path>
            <path d="M143.104,149.922 L133.278,149.922 C133.177,149.922 133.088,149.833 133.088,149.732 C133.088,149.626 133.177,149.537 133.278,149.537 L143.104,149.537 C143.21,149.537 143.299,149.626 143.299,149.732 C143.299,149.833 143.21,149.922 143.104,149.922 Z" id="Path" fill="#FFB9B6" fill-rule="nonzero"></path>
            <path d="M143.104,151.883 L133.278,151.883 C133.177,151.883 133.088,151.8 133.088,151.693 C133.088,151.586 133.177,151.498 133.278,151.498 L143.104,151.498 C143.21,151.498 143.299,151.586 143.299,151.693 C143.299,151.8 143.21,151.883 143.104,151.883 Z" id="Path" fill="#FFB9B6" fill-rule="nonzero"></path>
            <path d="M143.104,153.849 L133.278,153.849 C133.177,153.849 133.088,153.76 133.088,153.653 C133.088,153.547 133.177,153.464 133.278,153.464 L143.104,153.464 C143.21,153.464 143.299,153.547 143.299,153.653 C143.299,153.76 143.21,153.849 143.104,153.849 Z" id="Path" fill="#FFB9B6" fill-rule="nonzero"></path>
            <path d="M166.393,147.961 L156.567,147.961 C156.46,147.961 156.377,147.873 156.377,147.766 C156.377,147.659 156.46,147.576 156.567,147.576 L166.393,147.576 C166.5,147.576 166.588,147.659 166.588,147.766 C166.588,147.873 166.5,147.961 166.393,147.961 Z" id="Path" fill="#FFB9B6" fill-rule="nonzero"></path>
            <path d="M146.681,144.034 L145.171,144.034 C145.064,144.034 144.981,143.951 144.981,143.845 C144.981,143.738 145.064,143.649 145.171,143.649 L146.681,143.649 C146.788,143.649 146.871,143.738 146.871,143.845 C146.871,143.951 146.788,144.034 146.681,144.034 Z" id="Path" fill="#FFB9B6" fill-rule="nonzero"></path>
            <path d="M154.44,147.961 L152.936,147.961 C152.829,147.961 152.741,147.873 152.741,147.766 C152.741,147.659 152.829,147.576 152.936,147.576 L154.44,147.576 C154.547,147.576 154.636,147.659 154.636,147.766 C154.636,147.873 154.547,147.961 154.44,147.961 Z" id="Path" fill="#FFB9B6" fill-rule="nonzero"></path>
            <path d="M166.529,146.001 L121.846,146.001 C121.74,146.001 121.651,145.912 121.651,145.805 C121.651,145.699 121.74,145.61 121.846,145.61 L166.529,145.61 C166.636,145.61 166.719,145.699 166.719,145.805 C166.719,145.912 166.636,146.001 166.529,146.001 Z" id="Path" fill="#FFB9B6" fill-rule="nonzero"></path>
            <path d="M150.827,147.961 L121.846,147.961 C121.74,147.961 121.651,147.873 121.651,147.766 C121.651,147.659 121.74,147.576 121.846,147.576 L150.827,147.576 C150.934,147.576 151.023,147.659 151.023,147.766 C151.023,147.873 150.934,147.961 150.827,147.961 Z" id="Path" fill="#FFB9B6" fill-rule="nonzero"></path>
            <path d="M150.827,159.736 L121.846,159.736 C121.74,159.736 121.651,159.647 121.651,159.541 C121.651,159.434 121.74,159.345 121.846,159.345 L150.827,159.345 C150.934,159.345 151.023,159.434 151.023,159.541 C151.023,159.647 150.934,159.736 150.827,159.736 Z" id="Path" fill="#FFB9B6" fill-rule="nonzero"></path>
            <path d="M150.827,163.657 L121.846,163.657 C121.74,163.657 121.651,163.574 121.651,163.467 C121.651,163.361 121.74,163.272 121.846,163.272 L150.827,163.272 C150.934,163.272 151.023,163.361 151.023,163.467 C151.023,163.574 150.934,163.657 150.827,163.657 Z" id="Path" fill="#FFB9B6" fill-rule="nonzero"></path>
            <path d="M135.955,165.624 L121.846,165.624 C121.74,165.624 121.651,165.535 121.651,165.428 C121.651,165.322 121.74,165.233 121.846,165.233 L135.955,165.233 C136.061,165.233 136.144,165.322 136.144,165.428 C136.144,165.535 136.061,165.624 135.955,165.624 Z" id="Path" fill="#FFB9B6" fill-rule="nonzero"></path>
            <path d="M182.349,167.584 L132.312,167.584 C132.205,167.584 132.123,167.495 132.123,167.389 C132.123,167.282 132.205,167.199 132.312,167.199 L182.349,167.199 C182.456,167.199 182.545,167.282 182.545,167.389 C182.545,167.495 182.456,167.584 182.349,167.584 Z" id="Path" fill="#FFB9B6" fill-rule="nonzero"></path>
            <path d="M142.186,169.544 L132.312,169.544 C132.205,169.544 132.123,169.456 132.123,169.355 C132.123,169.248 132.205,169.159 132.312,169.159 L142.186,169.159 C142.292,169.159 142.381,169.248 142.381,169.355 C142.381,169.456 142.292,169.544 142.186,169.544 Z" id="Path" fill="#FFB9B6" fill-rule="nonzero"></path>
            <path d="M146.119,175.432 L144.608,175.432 C144.502,175.432 144.419,175.343 144.419,175.237 C144.419,175.136 144.502,175.047 144.608,175.047 L146.119,175.047 C146.219,175.047 146.308,175.136 146.308,175.237 C146.308,175.343 146.219,175.432 146.119,175.432 Z" id="Path" fill="#FFB9B6" fill-rule="nonzero"></path>
            <path d="M142.186,175.432 L132.312,175.432 C132.205,175.432 132.123,175.343 132.123,175.237 C132.123,175.136 132.205,175.047 132.312,175.047 L142.186,175.047 C142.292,175.047 142.381,175.136 142.381,175.237 C142.381,175.343 142.292,175.432 142.186,175.432 Z" id="Path" fill="#FFB9B6" fill-rule="nonzero"></path>
            <path d="M131.927,171.505 L121.846,171.505 C121.74,171.505 121.651,171.422 121.651,171.315 C121.651,171.209 121.74,171.12 121.846,171.12 L131.927,171.12 C132.034,171.12 132.123,171.209 132.123,171.315 C132.123,171.422 132.034,171.505 131.927,171.505 Z" id="Path" fill="#FFB9B6" fill-rule="nonzero"></path>
            <path d="M146.118,171.505 L136.032,171.505 C135.925,171.505 135.842,171.422 135.842,171.315 C135.842,171.209 135.925,171.12 136.032,171.12 L146.118,171.12 C146.219,171.12 146.308,171.209 146.308,171.315 C146.308,171.422 146.219,171.505 146.118,171.505 Z" id="Path" fill="#FFB9B6" fill-rule="nonzero"></path>
            <path d="M160.304,171.505 L150.223,171.505 C150.117,171.505 150.028,171.422 150.028,171.315 C150.028,171.209 150.117,171.12 150.223,171.12 L160.304,171.12 C160.411,171.12 160.494,171.209 160.494,171.315 C160.494,171.422 160.411,171.505 160.304,171.505 Z" id="Path" fill="#FFB9B6" fill-rule="nonzero"></path>
            <path d="M150.827,173.472 L121.846,173.472 C121.74,173.472 121.651,173.383 121.651,173.276 C121.651,173.17 121.74,173.087 121.846,173.087 L150.827,173.087 C150.934,173.087 151.023,173.17 151.023,173.276 C151.023,173.383 150.934,173.472 150.827,173.472 Z" id="Path" fill="#FFB9B6" fill-rule="nonzero"></path>
            <path d="M161.939,140.114 L153.884,140.114 C153.777,140.114 153.688,140.025 153.688,139.918 C153.688,139.812 153.777,139.723 153.884,139.723 L161.939,139.723 C162.046,139.723 162.128,139.812 162.128,139.918 C162.128,140.025 162.046,140.114 161.939,140.114 Z" id="Path" fill="#FFB9B6" fill-rule="nonzero"></path>
            <path d="M189.326,140.114 L164.492,140.114 C164.391,140.114 164.302,140.025 164.302,139.918 C164.302,139.812 164.391,139.723 164.492,139.723 L189.326,139.723 C189.433,139.723 189.522,139.812 189.522,139.918 C189.522,140.025 189.433,140.114 189.326,140.114 Z" id="Path" fill="#FFB9B6" fill-rule="nonzero"></path>
            <path d="M200.58,184.447 L0.324956,184.447 C0.165037,184.447 0.0288086,184.316 0.0288086,184.151 C0.0288086,183.985 0.165037,183.854 0.324956,183.854 L200.58,183.854 C200.74,183.854 200.876,183.985 200.876,184.151 C200.876,184.316 200.74,184.447 200.58,184.447 Z" id="Path" fill="#FFFFFF" fill-rule="nonzero"></path>
            <path d="M56.0956,173.856 L15.8017,173.856 C14.3624,173.856 13.2015,172.69 13.2015,171.256 L13.2015,100.986 C13.2015,99.553 14.3624,98.3921 15.8017,98.3921 L56.0956,98.3921 C57.5289,98.3921 58.6898,99.553 58.6898,100.986 L58.6898,171.256 C58.6898,172.69 57.5289,173.856 56.0956,173.856 Z" id="Path" fill="#FF8980" fill-rule="nonzero"></path>
            <path d="M113.004,98.3922 L67.3139,98.3922 C65.8746,98.3922 64.7137,97.2254 64.7137,95.7921 L64.7137,16.5725 C64.7137,15.1392 65.8746,13.9783 67.3139,13.9783 L113.004,13.9783 C114.437,13.9783 115.598,15.1392 115.598,16.5725 L115.598,95.7921 C115.598,97.2254 114.437,98.3922 113.004,98.3922 Z" id="Path" fill="#FF8980" fill-rule="nonzero"></path>
            <path d="M177.925,132.793 L124.222,132.793 C122.782,132.793 121.621,131.626 121.621,130.192 L121.621,37.6758 C121.621,36.2424 122.782,35.0815 124.222,35.0815 L177.925,35.0815 C179.358,35.0815 180.519,36.2424 180.519,37.6758 L180.519,130.192 C180.519,131.626 179.358,132.793 177.925,132.793 Z" id="Path" fill="#FF8980" fill-rule="nonzero"></path>
            <path d="M56.0958,89.4367 L22.3823,89.4367 C20.949,89.4367 19.7881,88.2758 19.7881,86.8424 L19.7881,27.4944 C19.7881,26.061 20.949,24.9001 22.3823,24.9001 L56.0958,24.9001 C57.5291,24.9001 58.6901,26.061 58.6901,27.4944 L58.6901,86.8424 C58.6901,88.2758 57.5291,89.4367 56.0958,89.4367 Z" id="Path" fill="#FF8980" fill-rule="nonzero"></path>
            <path d="M49.1598,48.598 C49.1598,54.0767 44.7176,58.513 39.2388,58.513 C33.7601,58.513 29.3179,54.0767 29.3179,48.598 C29.3179,43.1192 33.7601,38.677 39.2388,38.677 C44.7176,38.677 49.1598,43.1192 49.1598,48.598 Z" id="Path" fill="#FFCECC" fill-rule="nonzero"></path>
            <path d="M37.6042,50.108 C36.4848,49.5216 35.7207,48.3489 35.7207,46.9985 C35.7207,45.0557 37.2962,43.4802 39.2389,43.4802 C41.1817,43.4802 42.7572,45.0557 42.7572,46.9985 C42.7572,48.3489 41.9931,49.5216 40.8737,50.108 C43.5745,50.7358 45.6831,52.874 46.2754,55.5808 C44.4807,57.3932 41.9931,58.5127 39.2389,58.5127 C36.4848,58.5127 33.9971,57.3932 32.1965,55.5808 C32.7948,52.874 34.9033,50.7358 37.6042,50.108 Z" id="Path" fill="#FFFFFF" fill-rule="nonzero"></path>
            <path d="M46.8973,65.5434 L31.5806,65.5434 C31.2844,65.5434 31.0475,65.3006 31.0475,65.0104 C31.0475,64.7142 31.2844,64.4773 31.5806,64.4773 L46.8973,64.4773 C47.1935,64.4773 47.4304,64.7142 47.4304,65.0104 C47.4304,65.3006 47.1935,65.5434 46.8973,65.5434 Z" id="Path" fill="#FFCECC" fill-rule="nonzero"></path>
            <path d="M46.8973,68.5166 L31.5806,68.5166 C31.2844,68.5166 31.0475,68.2737 31.0475,67.9835 C31.0475,67.6874 31.2844,67.4504 31.5806,67.4504 L46.8973,67.4504 C47.1935,67.4504 47.4304,67.6874 47.4304,67.9835 C47.4304,68.2737 47.1935,68.5166 46.8973,68.5166 Z" id="Path" fill="#FFCECC" fill-rule="nonzero"></path>
            <path d="M53.9397,121 L38.6171,121 C38.3268,121 38.084,120.763 38.084,120.467 C38.084,120.177 38.3268,119.934 38.6171,119.934 L53.9397,119.934 C54.23,119.934 54.4728,120.177 54.4728,120.467 C54.4728,120.763 54.23,121 53.9397,121 Z" id="Path" fill="#FF9E99" fill-rule="nonzero"></path>
            <path d="M43.8352,123.203 L38.2972,123.203 C38.1788,123.203 38.084,123.103 38.084,122.99 C38.084,122.872 38.1788,122.777 38.2972,122.777 L43.8352,122.777 C43.9536,122.777 44.0484,122.872 44.0484,122.99 C44.0484,123.103 43.9536,123.203 43.8352,123.203 Z" id="Path" fill="#FF9E99" fill-rule="nonzero"></path>
            <path d="M43.8352,132.479 L38.2972,132.479 C38.1788,132.479 38.084,132.384 38.084,132.265 C38.084,132.147 38.1788,132.052 38.2972,132.052 L43.8352,132.052 C43.9536,132.052 44.0484,132.147 44.0484,132.265 C44.0484,132.384 43.9536,132.479 43.8352,132.479 Z" id="Path" fill="#FF9E99" fill-rule="nonzero"></path>
            <path d="M43.8352,141.754 L38.2972,141.754 C38.1788,141.754 38.084,141.659 38.084,141.541 C38.084,141.428 38.1788,141.333 38.2972,141.333 L43.8352,141.333 C43.9536,141.333 44.0484,141.428 44.0484,141.541 C44.0484,141.659 43.9536,141.754 43.8352,141.754 Z" id="Path" fill="#FF9E99" fill-rule="nonzero"></path>
            <path d="M43.8352,151.029 L38.2972,151.029 C38.1788,151.029 38.084,150.935 38.084,150.822 C38.084,150.704 38.1788,150.609 38.2972,150.609 L43.8352,150.609 C43.9536,150.609 44.0484,150.704 44.0484,150.822 C44.0484,150.935 43.9536,151.029 43.8352,151.029 Z" id="Path" fill="#FF9E99" fill-rule="nonzero"></path>
            <path d="M43.8352,160.31 L38.2972,160.31 C38.1788,160.31 38.084,160.216 38.084,160.097 C38.084,159.979 38.1788,159.884 38.2972,159.884 L43.8352,159.884 C43.9536,159.884 44.0484,159.979 44.0484,160.097 C44.0484,160.216 43.9536,160.31 43.8352,160.31 Z" id="Path" fill="#FF9E99" fill-rule="nonzero"></path>
            <path d="M43.8352,169.586 L38.2972,169.586 C38.1788,169.586 38.084,169.491 38.084,169.373 C38.084,169.26 38.1788,169.165 38.2972,169.165 L43.8352,169.165 C43.9536,169.165 44.0484,169.26 44.0484,169.373 C44.0484,169.491 43.9536,169.586 43.8352,169.586 Z" id="Path" fill="#FF9E99" fill-rule="nonzero"></path>
            <path d="M53.9397,130.281 L38.6171,130.281 C38.3268,130.281 38.084,130.038 38.084,129.748 C38.084,129.452 38.3268,129.215 38.6171,129.215 L53.9397,129.215 C54.23,129.215 54.4728,129.452 54.4728,129.748 C54.4728,130.038 54.23,130.281 53.9397,130.281 Z" id="Path" fill="#FF9E99" fill-rule="nonzero"></path>
            <path d="M53.9397,139.557 L38.6171,139.557 C38.3268,139.557 38.084,139.32 38.084,139.024 C38.084,138.733 38.3268,138.49 38.6171,138.49 L53.9397,138.49 C54.23,138.49 54.4728,138.733 54.4728,139.024 C54.4728,139.32 54.23,139.557 53.9397,139.557 Z" id="Path" fill="#FF9E99" fill-rule="nonzero"></path>
            <path d="M53.9397,148.832 L38.6171,148.832 C38.3268,148.832 38.084,148.595 38.084,148.299 C38.084,148.009 38.3268,147.766 38.6171,147.766 L53.9397,147.766 C54.23,147.766 54.4728,148.009 54.4728,148.299 C54.4728,148.595 54.23,148.832 53.9397,148.832 Z" id="Path" fill="#FF9E99" fill-rule="nonzero"></path>
            <path d="M53.9397,158.113 L38.6171,158.113 C38.3268,158.113 38.084,157.87 38.084,157.58 C38.084,157.284 38.3268,157.047 38.6171,157.047 L53.9397,157.047 C54.23,157.047 54.4728,157.284 54.4728,157.58 C54.4728,157.87 54.23,158.113 53.9397,158.113 Z" id="Path" fill="#FF9E99" fill-rule="nonzero"></path>
            <path d="M53.9397,167.389 L38.6171,167.389 C38.3268,167.389 38.084,167.152 38.084,166.856 C38.084,166.565 38.3268,166.323 38.6171,166.323 L53.9397,166.323 C54.23,166.323 54.4728,166.565 54.4728,166.856 C54.4728,167.152 54.23,167.389 53.9397,167.389 Z" id="Path" fill="#FF9E99" fill-rule="nonzero"></path>
            <path d="M19.5867,101.857 L16.874,101.857 C16.7674,101.857 16.6726,101.768 16.6726,101.656 C16.6726,101.543 16.7674,101.454 16.874,101.454 L19.5867,101.454 C19.6992,101.454 19.7881,101.543 19.7881,101.656 C19.7881,101.768 19.6992,101.857 19.5867,101.857 Z" id="Path" fill="#FFCECC" fill-rule="nonzero"></path>
            <path d="M19.5867,102.651 L16.874,102.651 C16.7674,102.651 16.6726,102.562 16.6726,102.449 C16.6726,102.337 16.7674,102.248 16.874,102.248 L19.5867,102.248 C19.6992,102.248 19.7881,102.337 19.7881,102.449 C19.7881,102.562 19.6992,102.651 19.5867,102.651 Z" id="Path" fill="#FFCECC" fill-rule="nonzero"></path>
            <path d="M19.5867,103.444 L16.874,103.444 C16.7674,103.444 16.6726,103.355 16.6726,103.243 C16.6726,103.136 16.7674,103.042 16.874,103.042 L19.5867,103.042 C19.6992,103.042 19.7881,103.136 19.7881,103.243 C19.7881,103.355 19.6992,103.444 19.5867,103.444 Z" id="Path" fill="#FFCECC" fill-rule="nonzero"></path>
            <path d="M52.6131,112.814 L19.2787,112.814 C17.8454,112.814 16.6726,111.642 16.6726,110.208 C16.6726,108.775 17.8454,107.602 19.2787,107.602 L52.6131,107.602 C54.0465,107.602 55.2192,108.775 55.2192,110.208 C55.2192,111.642 54.0465,112.814 52.6131,112.814 Z" id="Path" fill="#FF9E99" fill-rule="nonzero"></path>
            <path d="M72.0286,18.8351 L69.3159,18.8351 C69.2093,18.8351 69.1145,18.7463 69.1145,18.6338 C69.1145,18.5212 69.2093,18.4324 69.3159,18.4324 L72.0286,18.4324 C72.1411,18.4324 72.23,18.5212 72.23,18.6338 C72.23,18.7463 72.1411,18.8351 72.0286,18.8351 Z" id="Path" fill="#FFCECC" fill-rule="nonzero"></path>
            <path d="M72.0286,19.6286 L69.3159,19.6286 C69.2093,19.6286 69.1145,19.5397 69.1145,19.4272 C69.1145,19.3147 69.2093,19.2258 69.3159,19.2258 L72.0286,19.2258 C72.1411,19.2258 72.23,19.3147 72.23,19.4272 C72.23,19.5397 72.1411,19.6286 72.0286,19.6286 Z" id="Path" fill="#FFCECC" fill-rule="nonzero"></path>
            <path d="M72.0286,20.4223 L69.3159,20.4223 C69.2093,20.4223 69.1145,20.3334 69.1145,20.2209 C69.1145,20.1143 69.2093,20.0195 69.3159,20.0195 L72.0286,20.0195 C72.1411,20.0195 72.23,20.1143 72.23,20.2209 C72.23,20.3334 72.1411,20.4223 72.0286,20.4223 Z" id="Path" fill="#FFCECC" fill-rule="nonzero"></path>
            <path d="M108.591,29.7925 L71.7206,29.7925 C70.2872,29.7925 69.1145,28.6198 69.1145,27.1864 C69.1145,25.7531 70.2872,24.5803 71.7206,24.5803 L108.591,24.5803 C110.024,24.5803 111.197,25.7531 111.197,27.1864 C111.197,28.6198 110.024,29.7925 108.591,29.7925 Z" id="Path" fill="#FF9E99" fill-rule="nonzero"></path>
            <path d="M25.8058,123.203 L19.4031,123.203 C17.9046,123.203 16.6726,121.971 16.6726,120.467 C16.6726,118.969 17.9046,117.737 19.4031,117.737 L25.8058,117.737 C27.3102,117.737 28.5363,118.969 28.5363,120.467 C28.5363,121.971 27.3102,123.203 25.8058,123.203 Z" id="Path" fill="#FF9E99" fill-rule="nonzero"></path>
            <path d="M25.8058,132.479 L19.4031,132.479 C17.9046,132.479 16.6726,131.247 16.6726,129.748 C16.6726,128.244 17.9046,127.018 19.4031,127.018 L25.8058,127.018 C27.3102,127.018 28.5363,128.244 28.5363,129.748 C28.5363,131.247 27.3102,132.479 25.8058,132.479 Z" id="Path" fill="#FF9E99" fill-rule="nonzero"></path>
            <path d="M25.8058,141.754 L19.4031,141.754 C17.9046,141.754 16.6726,140.528 16.6726,139.024 C16.6726,137.525 17.9046,136.293 19.4031,136.293 L25.8058,136.293 C27.3102,136.293 28.5363,137.525 28.5363,139.024 C28.5363,140.528 27.3102,141.754 25.8058,141.754 Z" id="Path" fill="#FF9E99" fill-rule="nonzero"></path>
            <path d="M25.8058,151.029 L19.4031,151.029 C17.9046,151.029 16.6726,149.803 16.6726,148.299 C16.6726,146.8 17.9046,145.568 19.4031,145.568 L25.8058,145.568 C27.3102,145.568 28.5363,146.8 28.5363,148.299 C28.5363,149.803 27.3102,151.029 25.8058,151.029 Z" id="Path" fill="#FF9E99" fill-rule="nonzero"></path>
            <path d="M25.8058,160.311 L19.4031,160.311 C17.9046,160.311 16.6726,159.079 16.6726,157.58 C16.6726,156.076 17.9046,154.85 19.4031,154.85 L25.8058,154.85 C27.3102,154.85 28.5363,156.076 28.5363,157.58 C28.5363,159.079 27.3102,160.311 25.8058,160.311 Z" id="Path" fill="#FF9E99" fill-rule="nonzero"></path>
            <path d="M25.8058,169.586 L19.4031,169.586 C17.9046,169.586 16.6726,168.36 16.6726,166.855 C16.6726,165.357 17.9046,164.125 19.4031,164.125 L25.8058,164.125 C27.3102,164.125 28.5363,165.357 28.5363,166.855 C28.5363,168.36 27.3102,169.586 25.8058,169.586 Z" id="Path" fill="#FF9E99" fill-rule="nonzero"></path>
            <polygon id="Path" fill="#FF9E99" fill-rule="nonzero" points="111.197 56.6058 91.6395 56.6058 91.6395 36.1064 111.197 36.1064"></polygon>
            <path d="M102.218,59.9168 L91.9711,59.9168 C91.7875,59.9168 91.6394,59.7688 91.6394,59.5852 C91.6394,59.4016 91.7875,59.2476 91.9711,59.2476 L102.218,59.2476 C102.401,59.2476 102.555,59.4016 102.555,59.5852 C102.555,59.7688 102.401,59.9168 102.218,59.9168 Z" id="Path" fill="#FF9E99" fill-rule="nonzero"></path>
            <path d="M110.859,59.9168 L106.719,59.9168 C106.536,59.9168 106.382,59.7688 106.382,59.5852 C106.382,59.4016 106.536,59.2476 106.719,59.2476 L110.859,59.2476 C111.043,59.2476 111.197,59.4016 111.197,59.5852 C111.197,59.7688 111.043,59.9168 110.859,59.9168 Z" id="Path" fill="#FF9E99" fill-rule="nonzero"></path>
            <path d="M102.218,61.7112 L91.971,61.7112 C91.7874,61.7112 91.6393,61.5632 91.6393,61.3795 C91.6393,61.1959 91.7874,61.0479 91.971,61.0479 L102.218,61.0479 C102.401,61.0479 102.555,61.1959 102.555,61.3795 C102.555,61.5632 102.401,61.7112 102.218,61.7112 Z" id="Path" fill="#FF9E99" fill-rule="nonzero"></path>
            <polygon id="Path" fill="#FF9E99" fill-rule="nonzero" points="88.678 56.6058 69.1145 56.6058 69.1145 36.1064 88.678 36.1064"></polygon>
            <path d="M79.6988,59.9168 L69.4521,59.9168 C69.2685,59.9168 69.1145,59.7688 69.1145,59.5852 C69.1145,59.4016 69.2685,59.2476 69.4521,59.2476 L79.6988,59.2476 C79.8824,59.2476 80.0364,59.4016 80.0364,59.5852 C80.0364,59.7688 79.8824,59.9168 79.6988,59.9168 Z" id="Path" fill="#FF9E99" fill-rule="nonzero"></path>
            <path d="M88.3404,59.9168 L84.2003,59.9168 C84.0108,59.9168 83.8627,59.7688 83.8627,59.5852 C83.8627,59.4016 84.0108,59.2476 84.2003,59.2476 L88.3404,59.2476 C88.524,59.2476 88.678,59.4016 88.678,59.5852 C88.678,59.7688 88.524,59.9168 88.3404,59.9168 Z" id="Path" fill="#FF9E99" fill-rule="nonzero"></path>
            <path d="M79.6988,61.7112 L69.4521,61.7112 C69.2685,61.7112 69.1145,61.5632 69.1145,61.3795 C69.1145,61.1959 69.2685,61.0479 69.4521,61.0479 L79.6988,61.0479 C79.8824,61.0479 80.0364,61.1959 80.0364,61.3795 C80.0364,61.5632 79.8824,61.7112 79.6988,61.7112 Z" id="Path" fill="#FF9E99" fill-rule="nonzero"></path>
            <path d="M129.463,40.5545 L126.229,40.5545 C126.099,40.5545 125.993,40.4419 125.993,40.3116 C125.993,40.1813 126.099,40.0747 126.229,40.0747 L129.463,40.0747 C129.594,40.0747 129.706,40.1813 129.706,40.3116 C129.706,40.4419 129.594,40.5545 129.463,40.5545 Z" id="Path" fill="#FFCECC" fill-rule="nonzero"></path>
            <path d="M129.464,41.5022 L126.23,41.5022 C126.099,41.5022 125.993,41.3897 125.993,41.2594 C125.993,41.1291 126.099,41.0225 126.23,41.0225 L129.464,41.0225 C129.594,41.0225 129.706,41.1291 129.706,41.2594 C129.706,41.3897 129.594,41.5022 129.464,41.5022 Z" id="Path" fill="#FFCECC" fill-rule="nonzero"></path>
            <path d="M129.464,42.4498 L126.23,42.4498 C126.099,42.4498 125.993,42.3373 125.993,42.207 C125.993,42.0766 126.099,41.9641 126.23,41.9641 L129.464,41.9641 C129.594,41.9641 129.706,42.0766 129.706,42.207 C129.706,42.3373 129.594,42.4498 129.464,42.4498 Z" id="Path" fill="#FFCECC" fill-rule="nonzero"></path>
            <path d="M173.045,53.6145 L129.096,53.6145 C127.391,53.6145 125.993,52.2167 125.993,50.505 C125.993,48.7992 127.391,47.4014 129.096,47.4014 L173.045,47.4014 C174.75,47.4014 176.148,48.7992 176.148,50.505 C176.148,52.2167 174.75,53.6145 173.045,53.6145 Z" id="Path" fill="#FF9E99" fill-rule="nonzero"></path>
            <path d="M157.722,126.68 L144.419,126.68 C142.802,126.68 141.481,125.359 141.481,123.748 C141.481,122.131 142.802,120.811 144.419,120.811 L157.722,120.811 C159.339,120.811 160.66,122.131 160.66,123.748 C160.66,125.359 159.339,126.68 157.722,126.68 Z" id="Path" fill="#FF9E99" fill-rule="nonzero"></path>
            <polygon id="Path" fill="#FF9E99" fill-rule="nonzero" points="176.148 90.9469 125.993 90.9469 125.993 61.1367 176.148 61.1367"></polygon>
            <path d="M145.473,96.1416 L126.609,96.1416 C126.265,96.1416 125.993,95.8691 125.993,95.5256 C125.993,95.188 126.265,94.9155 126.609,94.9155 L145.473,94.9155 C145.811,94.9155 146.089,95.188 146.089,95.5256 C146.089,95.8691 145.811,96.1416 145.473,96.1416 Z" id="Path" fill="#FF9E99" fill-rule="nonzero"></path>
            <path d="M175.538,96.1416 L167.909,96.1416 C167.566,96.1416 167.293,95.8691 167.293,95.5256 C167.293,95.188 167.566,94.9155 167.909,94.9155 L175.538,94.9155 C175.876,94.9155 176.148,95.188 176.148,95.5256 C176.148,95.8691 175.876,96.1416 175.538,96.1416 Z" id="Path" fill="#FF9E99" fill-rule="nonzero"></path>
            <path d="M145.473,99.4465 L126.609,99.4465 C126.265,99.4465 125.993,99.174 125.993,98.8364 C125.993,98.4929 126.265,98.2205 126.609,98.2205 L145.473,98.2205 C145.811,98.2205 146.089,98.4929 146.089,98.8364 C146.089,99.174 145.811,99.4465 145.473,99.4465 Z" id="Path" fill="#FF9E99" fill-rule="nonzero"></path>
            <polygon id="Path" fill="#FF9E99" fill-rule="nonzero" points="111.197 85.8353 91.6395 85.8353 91.6395 65.3359 111.197 65.3359"></polygon>
            <path d="M102.218,89.1525 L91.9711,89.1525 C91.7875,89.1525 91.6394,88.9985 91.6394,88.8148 C91.6394,88.6312 91.7875,88.4832 91.9711,88.4832 L102.218,88.4832 C102.401,88.4832 102.555,88.6312 102.555,88.8148 C102.555,88.9985 102.401,89.1525 102.218,89.1525 Z" id="Path" fill="#FF9E99" fill-rule="nonzero"></path>
            <path d="M110.859,89.1525 L106.719,89.1525 C106.536,89.1525 106.382,88.9985 106.382,88.8148 C106.382,88.6312 106.536,88.4832 106.719,88.4832 L110.859,88.4832 C111.043,88.4832 111.197,88.6312 111.197,88.8148 C111.197,88.9985 111.043,89.1525 110.859,89.1525 Z" id="Path" fill="#FF9E99" fill-rule="nonzero"></path>
            <path d="M102.218,90.9469 L91.971,90.9469 C91.7874,90.9469 91.6393,90.7988 91.6393,90.6093 C91.6393,90.4257 91.7874,90.2776 91.971,90.2776 L102.218,90.2776 C102.401,90.2776 102.555,90.4257 102.555,90.6093 C102.555,90.7988 102.401,90.9469 102.218,90.9469 Z" id="Path" fill="#FF9E99" fill-rule="nonzero"></path>
            <polygon id="Path" fill="#FF9E99" fill-rule="nonzero" points="88.678 85.8353 69.1145 85.8353 69.1145 65.3359 88.678 65.3359"></polygon>
            <path d="M79.6988,89.1525 L69.4521,89.1525 C69.2685,89.1525 69.1145,88.9985 69.1145,88.8148 C69.1145,88.6312 69.2685,88.4832 69.4521,88.4832 L79.6988,88.4832 C79.8824,88.4832 80.0364,88.6312 80.0364,88.8148 C80.0364,88.9985 79.8824,89.1525 79.6988,89.1525 Z" id="Path" fill="#FF9E99" fill-rule="nonzero"></path>
            <path d="M88.3404,89.1525 L84.2003,89.1525 C84.0108,89.1525 83.8627,88.9985 83.8627,88.8148 C83.8627,88.6312 84.0108,88.4832 84.2003,88.4832 L88.3404,88.4832 C88.524,88.4832 88.678,88.6312 88.678,88.8148 C88.678,88.9985 88.524,89.1525 88.3404,89.1525 Z" id="Path" fill="#FF9E99" fill-rule="nonzero"></path>
            <path d="M79.6988,90.9469 L69.4521,90.9469 C69.2685,90.9469 69.1145,90.7988 69.1145,90.6093 C69.1145,90.4257 69.2685,90.2776 69.4521,90.2776 L79.6988,90.2776 C79.8824,90.2776 80.0364,90.4257 80.0364,90.6093 C80.0364,90.7988 79.8824,90.9469 79.6988,90.9469 Z" id="Path" fill="#FF9E99" fill-rule="nonzero"></path>
            <polygon id="Path" fill="#FF9E99" fill-rule="nonzero" points="111.197 98.392 91.6395 98.392 91.6395 95.395 111.197 95.395"></polygon>
            <polygon id="Path" fill="#FF9E99" fill-rule="nonzero" points="88.678 98.392 69.1145 98.392 69.1145 95.395 88.678 95.395"></polygon>
            <g id="Group" opacity="0.3" style="mix-blend-mode: multiply;" transform="translate(121.621000, 86.090100)" fill="#FF8980" fill-rule="nonzero">
                <g style="mix-blend-mode: multiply;" id="Path">
                    <path d="M23.769,0 C23.769,0 14.038,26.7299 3.264,46.7029 L2.601,46.7029 C1.161,46.7029 1.42108547e-14,45.5359 1.42108547e-14,44.1019 L1.42108547e-14,36.7399 L1.694,33.2989 L21.596,1.5814 L23.769,0 Z"></path>
                </g>
            </g>
            <path d="M49.7701,140.149 C53.8037,145.853 61.0474,154.092 65.922,161.318 C65.922,161.318 73.308,158.09 87.0788,146.41 C87.1203,146.38 87.523,146.019 87.9554,145.628 C89.0808,144.615 89.7797,143.17 89.7205,141.653 C89.602,138.597 89.6968,136.115 89.6968,136.115 C91.0413,132.781 87.9732,127.806 87.9732,127.806 L94.8912,131.312 L94.6661,134.599 C94.5773,135.902 93.9554,137.116 92.9425,137.94 L90.9287,139.592 C90.5023,139.942 90.3364,140.522 90.5141,141.049 C90.8162,141.944 91.9238,142.246 92.6346,141.63 C99.9672,135.197 111.416,124.027 117.807,116.89 C123.973,110.001 133.503,98.0842 143.927,85.2432 C144.603,84.414 145.799,85.1129 145.39,86.1021 C142.21,93.719 137.187,102.029 112.713,144.088 C110.463,147.955 110.948,170.587 110.925,183.854 L79.7284,183.854 L79.7284,167.335 C79.7284,167.335 75.1796,170.196 63.2863,173.365 C63.2863,173.365 51.2864,157.657 48.2657,140.812 C48.1058,139.912 49.2371,139.403 49.7701,140.149 Z" id="Path" fill="#FFFFFF" fill-rule="nonzero"></path>
            <path d="M89.6965,136.115 C91.4142,144.425 87.973,146.226 87.973,146.226 C84.893,145.089 82.6127,143.063 81.0372,141.162 C78.6384,138.271 78.5259,134.137 80.7114,131.081 C83.3235,127.438 87.0016,123.819 87.0016,123.819 C88.5712,125.33 88.8022,128.226 88.8022,128.226 C91.8762,133.231 89.6965,136.115 89.6965,136.115 Z" id="Path" fill="#071923" fill-rule="nonzero"></path>
            <path d="M139.876,90.2185 C141.155,88.6548 142.5,87.0023 143.927,85.2432 C144.602,84.414 145.799,85.1129 145.39,86.1021 C144.318,88.6726 143.43,90.799 141.777,94.098 L139.876,90.2185 Z" id="Path" fill="#071923" fill-rule="nonzero"></path>
            <path d="M49.9536,147.6 C49.2606,145.385 48.6743,143.111 48.2656,140.812 C48.1057,139.912 49.2369,139.403 49.77,140.149 C50.7651,141.559 51.9674,143.128 53.2705,144.799 L49.9536,147.6 Z" id="Path" fill="#071923" fill-rule="nonzero"></path>
            <path d="M112.713,144.088 C110.462,147.955 110.948,170.587 110.924,183.854 L79.7283,183.854 C96.4488,168.94 112.713,144.088 112.713,144.088 Z" id="Path" fill="#EAEAEA" fill-rule="nonzero"></path>
            <path d="M118.026,2.81348 C123.392,3.48869 127.651,7.7473 128.326,13.1135 L127.698,13.1135 C127.029,8.09083 123.049,4.1106 118.026,3.44131 L118.026,2.81348 Z" id="Path" fill="#FFFFFF" fill-rule="nonzero"></path>
            <path d="M129.262,16.0869 C128.581,21.9684 123.908,26.6416 118.026,27.3287 L118.026,24.8233 C122.533,24.1658 126.105,20.6002 126.757,16.0869 L129.262,16.0869 Z" id="Path" fill="#FF8980" fill-rule="nonzero"></path>
            <path d="M115.053,27.9506 C108.828,27.2635 103.876,22.3119 103.183,16.0869 L106.944,16.0869 C107.59,20.2567 110.883,23.5498 115.053,24.1954 L115.053,27.9506 Z" id="Path" fill="#BC3F35" fill-rule="nonzero"></path>
            <path d="M101.933,13.1134 C102.632,6.20726 108.141,0.698909 115.053,0 L115.053,6.26056 C111.564,6.88247 108.816,9.63073 108.2,13.1134 L101.933,13.1134 Z" id="Path" fill="#490A0A" fill-rule="nonzero"></path>
            <path d="M116.924,21.9269 C113.134,21.9269 110.048,18.8411 110.048,15.0504 C110.048,11.2538 113.134,8.17383 116.924,8.17383 C120.715,8.17383 123.801,11.2538 123.801,15.0504 C123.801,18.8411 120.715,21.9269 116.924,21.9269 Z M116.924,8.48182 C113.3,8.48182 110.356,11.4255 110.356,15.0504 C110.356,18.6693 113.3,21.613 116.924,21.613 C120.543,21.613 123.487,18.6693 123.487,15.0504 C123.487,11.4255 120.543,8.48182 116.924,8.48182 Z" id="Shape" fill="#BC3F35"></path>
            <path d="M57.4876,124.98 C57.4876,130.643 52.9033,135.227 47.2409,135.227 C41.5786,135.227 36.9883,130.643 36.9883,124.98 C36.9883,119.318 41.5786,114.728 47.2409,114.728 C52.9033,114.728 57.4876,119.318 57.4876,124.98 Z" id="Path" fill="#BC3F35" fill-rule="nonzero"></path>
            <path d="M45.251,127.936 C45.5175,128.208 45.5175,128.641 45.251,128.913 C44.9785,129.18 44.5402,129.18 44.2737,128.913 L41.3122,125.957 L40.3408,124.98 L41.3122,124.003 L44.2737,121.047 C44.5402,120.775 44.9785,120.775 45.251,121.047 C45.5175,121.314 45.5175,121.752 45.251,122.025 L42.2895,124.98 L45.251,127.936 Z" id="Path" fill="#FFFFFF" fill-rule="nonzero"></path>
            <path d="M52.1867,124.98 L49.2311,122.025 C48.9646,121.752 48.9646,121.314 49.2311,121.047 C49.5036,120.775 49.936,120.775 50.2084,121.047 L53.164,124.003 L54.1413,124.98 L53.164,125.957 L50.2084,128.913 C49.936,129.18 49.5036,129.18 49.2311,128.913 C48.9646,128.641 48.9646,128.208 49.2311,127.936 L52.1867,124.98 Z" id="Path" fill="#FFFFFF" fill-rule="nonzero"></path>
            <path d="M46.4414,129.47 C46.092,129.405 45.8551,129.073 45.9202,128.724 L47.2943,121.006 C47.3595,120.657 47.6912,120.426 48.0406,120.491 C48.3901,120.55 48.6211,120.888 48.5619,121.237 L47.1818,128.949 C47.1226,129.298 46.7909,129.529 46.4414,129.47 Z" id="Path" fill="#FFFFFF" fill-rule="nonzero"></path>
            <path d="M196.209,112.814 C196.209,121.48 189.184,128.498 180.519,128.498 C171.854,128.498 164.835,121.48 164.835,112.814 C164.835,104.149 171.854,97.1245 180.519,97.1245 C189.184,97.1245 196.209,104.149 196.209,112.814 Z" id="Path" fill="#BC3F35" fill-rule="nonzero"></path>
            <path d="M190.032,106.518 C191.406,107.887 191.406,110.131 190.032,111.5 L181.745,119.786 C180.377,121.154 178.138,121.154 176.77,119.786 L171.007,114.023 C169.639,112.655 169.639,110.416 171.007,109.047 C172.375,107.673 174.62,107.673 175.988,109.047 L179.258,112.317 L185.056,106.518 C186.425,105.15 188.663,105.15 190.032,106.518 Z" id="Path" fill="#FFFFFF" fill-rule="nonzero"></path>
            <path d="M181.733,183.997 L135.09,183.997 C134.433,183.997 133.9,183.458 133.9,182.806 C133.9,182.155 134.433,181.616 135.09,181.616 L181.733,181.616 C182.391,181.616 182.924,182.155 182.924,182.806 C182.924,183.458 182.391,183.997 181.733,183.997 Z" id="Path" fill="#071923" fill-rule="nonzero"></path>
            <polygon id="Path" fill="#071923" fill-rule="nonzero" points="181.97 183.997 145.118 183.997 153.203 158.113 190.055 158.113"></polygon>
            <path d="M171.741,171.629 C171.333,173.377 169.894,174.532 168.519,174.212 C167.145,173.898 166.363,172.222 166.766,170.474 C167.169,168.733 168.614,167.572 169.982,167.892 C171.356,168.212 172.144,169.882 171.741,171.629 Z" id="Path" fill="#BC3F35" fill-rule="nonzero"></path>
            <path d="M39.239,99.636 C39.1975,99.636 39.162,99.6004 39.162,99.559 L39.162,87.7071 C39.162,87.6657 39.1975,87.6301 39.239,87.6301 C39.2804,87.6301 39.3101,87.6657 39.3101,87.7071 L39.3101,99.559 C39.3101,99.6004 39.2804,99.636 39.239,99.636 Z" id="Path" fill="#FFFFFF" fill-rule="nonzero"></path>
            <path d="M61.6101,144.165 L55.9122,144.165 C55.8707,144.165 55.8352,144.129 55.8352,144.088 C55.8352,144.046 55.8707,144.017 55.9122,144.017 L61.462,144.017 L61.462,47.3245 L67.5212,47.3245 C67.5627,47.3245 67.5982,47.36 67.5982,47.4015 C67.5982,47.4429 67.5627,47.4725 67.5212,47.4725 L61.6101,47.4725 L61.6101,144.165 Z" id="Path" fill="#FFFFFF" fill-rule="nonzero"></path>
            <path d="M118.548,101.508 L90.0818,101.508 L90.0818,96.1413 C90.0818,96.0999 90.1173,96.0702 90.1588,96.0702 C90.1943,96.0702 90.2299,96.0999 90.2299,96.1413 L90.2299,101.359 L118.399,101.359 L118.399,74.7891 L123.541,74.7891 C123.582,74.7891 123.612,74.8187 123.612,74.8601 C123.612,74.9016 123.582,74.9371 123.541,74.9371 L118.548,74.9371 L118.548,101.508 Z" id="Path" fill="#FFFFFF" fill-rule="nonzero"></path>
        </g>
    </g>
</svg>