<?xml version="1.0" encoding="UTF-8"?>
<svg width="223px" height="172px" viewBox="0 0 223 172" version="1.1" xmlns="http://www.w3.org/2000/svg" xmlns:xlink="http://www.w3.org/1999/xlink">
    <title>ill-004</title>
    <g id="Page-1" stroke="none" stroke-width="1" fill="none" fill-rule="evenodd">
        <g id="ill-004" transform="translate(0.000018, 0.000000)" fill-rule="nonzero">
            <path d="M20.0729942,170.890003 C20.0729942,170.890003 -20.3516058,137.415003 13.5332942,93.0777027 C39.6590942,58.8936027 -7.59351583,29.6974027 25.9587942,7.70604268 C62.2710942,-16.1252973 98.6720942,24.4988027 149.072994,7.67279268 C196.867994,-8.28866732 215.212994,34.9181027 195.493994,67.2401027 C180.075994,92.5013027 242.225994,99.7616027 209.781994,169.593003 L20.0729942,170.890003 Z" id="Path" fill="#EBF3FA"></path>
            <path d="M54.3901942,36.6473027 L36.9987942,36.6473027 C36.2006942,36.6473027 35.5467942,35.9933027 35.5467942,35.1953027 L35.5467942,18.4025027 C35.5467942,17.6044027 36.2006942,16.9504027 36.9987942,16.9504027 L54.3901942,16.9504027 C55.1881942,16.9504027 55.8421942,17.6044027 55.8421942,18.4025027 L55.8421942,35.1953027 C55.8421942,35.9933027 55.1881942,36.6473027 54.3901942,36.6473027 Z" id="Path" fill="#C0D8FB"></path>
            <path d="M53.6363942,35.7936027 L37.7525942,35.7936027 C37.0209942,35.7936027 36.4223942,35.1951027 36.4223942,34.4635027 L36.4223942,19.1338027 C36.4223942,18.4023027 37.0209942,17.8037027 37.7525942,17.8037027 L53.6363942,17.8037027 C54.3679942,17.8037027 54.9665942,18.4023027 54.9665942,19.1338027 L54.9665942,34.4635027 C54.9665942,35.1951027 54.3679942,35.7936027 53.6363942,35.7936027 Z" id="Path" fill="#DFEBFD"></path>
            <path d="M45.2788942,19.5994027 C45.2788942,19.3667027 45.4672942,19.1782027 45.6889942,19.1782027 C45.9216942,19.1782027 46.1101942,19.3667027 46.1101942,19.5994027 C46.1101942,19.8322027 45.9216942,20.0206027 45.6889942,20.0206027 C45.4672942,20.0206027 45.2788942,19.8322027 45.2788942,19.5994027 Z" id="Path" fill="#B7D3F3"></path>
            <path d="M48.6706942,20.1980027 C48.7814942,19.9984027 49.0364942,19.9209027 49.2359942,20.0317027 C49.4465942,20.1425027 49.5130942,20.4086027 49.4021942,20.6081027 C49.2913942,20.8076027 49.0364942,20.8852027 48.8258942,20.7744027 C48.6262942,20.6524027 48.5486942,20.3975027 48.6706942,20.1980027 Z" id="Path" fill="#B7D3F3"></path>
            <path d="M51.5747942,22.5037027 C51.7631942,22.3818027 52.0291942,22.4372027 52.1511942,22.6368027 C52.2841942,22.8252027 52.2287942,23.0912027 52.0291942,23.2131027 C51.8296942,23.3351027 51.5747942,23.2796027 51.4528942,23.0912027 C51.3197942,22.8917027 51.3752942,22.6368027 51.5747942,22.5037027 Z" id="Path" fill="#B7D3F3"></path>
            <path d="M53.0156942,26.0840027 C53.2484942,26.0840027 53.4368942,26.2724027 53.4368942,26.5052027 C53.4368942,26.7380027 53.2484942,26.9264027 53.0156942,26.9264027 C52.7829942,26.9264027 52.5944942,26.7380027 52.5944942,26.5052027 C52.5944942,26.2724027 52.7829942,26.0840027 53.0156942,26.0840027 Z" id="Path" fill="#B7D3F3"></path>
            <path d="M52.2730942,30.2294027 C52.4393942,30.3957027 52.4393942,30.6617027 52.2730942,30.8280027 C52.1178942,30.9832027 51.8518942,30.9832027 51.6855942,30.8280027 C51.5193942,30.6617027 51.5193942,30.3957027 51.6855942,30.2294027 C51.8518942,30.0632027 52.1178942,30.0632027 52.2730942,30.2294027 Z" id="Path" fill="#B7D3F3"></path>
            <path d="M49.6349942,32.8788027 C49.8012942,33.0451027 49.8012942,33.3111027 49.6349942,33.4663027 C49.4687942,33.6326027 49.2026942,33.6326027 49.0474942,33.4663027 C48.8812942,33.3111027 48.8812942,33.0451027 49.0474942,32.8788027 C49.2026942,32.7126027 49.4687942,32.7126027 49.6349942,32.8788027 Z" id="Path" fill="#B7D3F3"></path>
            <path d="M45.2788942,34.2420027 C45.2788942,34.0092027 45.4672942,33.8208027 45.6889942,33.8208027 C45.9217942,33.8208027 46.1101942,34.0092027 46.1101942,34.2420027 C46.1101942,34.4748027 45.9217942,34.6632027 45.6889942,34.6632027 C45.4672942,34.6632027 45.2788942,34.4748027 45.2788942,34.2420027 Z" id="Path" fill="#B7D3F3"></path>
            <path d="M42.5409942,20.7744027 C42.3414942,20.8852027 42.0865942,20.8076027 41.9756942,20.6081027 C41.8648942,20.4086027 41.9313942,20.1425027 42.1419942,20.0317027 C42.3414942,19.9209027 42.5963942,19.9984027 42.7072942,20.1980027 C42.8180942,20.3975027 42.7515942,20.6524027 42.5409942,20.7744027 Z" id="Path" fill="#B7D3F3"></path>
            <path d="M39.9250942,23.0910027 C39.8031942,23.2794027 39.5371942,23.3348027 39.3486942,23.2129027 C39.1491942,23.0910027 39.0937942,22.8249027 39.2156942,22.6365027 C39.3486942,22.4370027 39.6036942,22.3816027 39.8031942,22.5035027 C40.0026942,22.6365027 40.0580942,22.8914027 39.9250942,23.0910027 Z" id="Path" fill="#B7D3F3"></path>
            <path d="M38.7833942,26.5049027 C38.7833942,26.7377027 38.5949942,26.9262027 38.3621942,26.9262027 C38.1294942,26.9262027 37.9409942,26.7377027 37.9409942,26.5049027 C37.9409942,26.2722027 38.1294942,26.0837027 38.3621942,26.0837027 C38.5949942,26.0837027 38.7833942,26.2722027 38.7833942,26.5049027 Z" id="Path" fill="#B7D3F3"></path>
            <path d="M39.6922942,30.2292027 C39.8585942,30.3955027 39.8585942,30.6615027 39.6922942,30.8277027 C39.5260942,30.9829027 39.2600942,30.9829027 39.0937942,30.8277027 C38.9385942,30.6615027 38.9385942,30.3955027 39.0937942,30.2292027 C39.2600942,30.0629027 39.5260942,30.0629027 39.6922942,30.2292027 Z" id="Path" fill="#B7D3F3"></path>
            <path d="M42.3303942,32.8786027 C42.4966942,33.0449027 42.4966942,33.3109027 42.3303942,33.4661027 C42.1641942,33.6323027 41.8980942,33.6323027 41.7428942,33.4661027 C41.5766942,33.3109027 41.5766942,33.0449027 41.7428942,32.8786027 C41.8980942,32.7123027 42.1641942,32.7123027 42.3303942,32.8786027 Z" id="Path" fill="#B7D3F3"></path>
            <path d="M45.5780942,26.5054027 C45.5780942,26.2727027 45.7665942,26.0842027 45.9992942,26.0842027 C46.2320942,26.0842027 46.4204942,26.2727027 46.4204942,26.5054027 C46.4204942,26.7382027 46.2320942,26.9266027 45.9992942,26.9266027 C45.7665942,26.9266027 45.5780942,26.7382027 45.5780942,26.5054027 Z" id="Path" fill="#B7D3F3"></path>
            <polygon id="Path" fill="#B7D3F3" points="46.0547942 26.5052027 45.9438942 26.5052027 45.9438942 21.2512027 46.0547942 21.2512027"></polygon>
            <polygon id="Path" fill="#B7D3F3" points="46.0547942 26.6271027 45.8440942 26.3611027 48.6262942 24.1775027 48.8368942 24.4435027"></polygon>
            <path d="M221.996994,171.156003 L6.63878417,171.156003 C6.41709417,171.156003 6.22866417,170.967003 6.22866417,170.746003 L6.22866417,169.970003 C6.22866417,169.748003 6.41709417,169.560003 6.63878417,169.560003 L221.996994,169.560003 C222.217994,169.560003 222.406994,169.748003 222.406994,169.970003 L222.406994,170.746003 C222.406994,170.967003 222.217994,171.156003 221.996994,171.156003 Z" id="Path" fill="#2E3552"></path>
            <path d="M35.4691942,151.115003 C35.3028942,153.044003 31.5674942,154.729003 29.2619942,155.072003 C26.9563942,155.416003 27.6768942,154.474003 28.4638942,153.066003 C29.2619942,151.670003 31.7669942,151.038003 32.3433942,150.395003 C32.9086942,149.741003 31.7337942,149.741003 30.3370942,150.373003 C28.9515942,151.016003 28.7631942,152.700003 26.5462942,153.765003 C24.3182942,154.829003 20.9708942,151.138003 20.9708942,151.138003 C22.7443942,151.049003 25.2715942,149.120003 25.1828942,148.533003 C25.0941942,147.945003 20.8932942,149.552003 20.1727942,149.630003 C19.4522942,149.708003 17.8117942,148.810003 17.5568942,145.917003 C17.3129942,143.024003 22.0570942,142.215003 22.0570942,142.215003 C22.0570942,142.215003 26.7679942,145.717003 27.6768942,145.507003 C28.5968942,145.285003 24.2406942,141.727003 24.2406942,141.727003 C25.8811942,140.929003 30.9799942,141.428003 30.9799942,141.428003 C30.9799942,141.428003 32.6758942,146.903003 33.5182942,146.471003 C34.3496942,146.039003 31.7669942,141.705003 31.7669942,141.705003 C33.5958942,141.594003 35.8349942,142.946003 35.8349942,142.946003 C38.9052942,145.374003 35.6354942,149.187003 35.6354942,149.187003 C35.6354942,149.187003 35.6354942,149.187003 35.4691942,151.115003 Z" id="Path" fill="#AEC3FF"></path>
            <path d="M19.8956942,145.994003 C19.8956942,145.994003 32.7867942,145.495003 35.6353942,149.187003 C35.6353942,149.187003 36.2561942,151.071003 38.1958942,152.789003 L38.4951942,153.609003 C38.4951942,153.609003 36.2671942,151.259003 35.4691942,151.115003 C35.4691942,151.115003 36.7216942,146.548003 19.8956942,145.994003 Z" id="Path" fill="#AEC3FF"></path>
            <path d="M38.1958942,152.789003 C38.1958942,152.789003 40.9669942,154.829003 41.1554942,158.486003 L40.6566942,158.531003 C40.6566942,158.531003 39.7698942,154.751003 38.1737942,153.277003 C36.5775942,151.791003 38.1958942,152.789003 38.1958942,152.789003 Z" id="Path" fill="#AEC3FF"></path>
            <path d="M47.0633942,144.387003 C47.0633942,144.387003 41.8647942,141.472003 44.2922942,137.526003 C44.2922942,137.526003 46.2320942,135.098003 48.3048942,134.466003 C48.3048942,134.466003 47.1963942,140.363003 48.3048942,140.507003 C49.4243942,140.640003 49.0696942,133.846003 49.0696942,133.846003 C49.0696942,133.846003 54.5563942,131.208003 56.6956942,131.418003 C56.6956942,131.418003 53.3038942,137.171003 54.4122942,137.038003 C55.5207942,136.894003 59.3337942,131.075003 59.3337942,131.075003 C59.3337942,131.075003 64.9534942,130.033003 65.8513942,133.358003 C66.7602942,136.694003 65.2971942,138.357003 64.4657942,138.568003 C63.6344942,138.767003 58.2918942,138.701003 58.4359942,139.399003 C58.5689942,140.086003 62.1824942,141.195003 64.1886942,140.574003 C64.1886942,140.574003 61.9718942,146.050003 59.0566942,145.772003 C56.1414942,145.495003 55.2436942,143.689003 53.4368942,143.556003 C51.6411942,143.411003 50.3221942,143.899003 51.2199942,144.387003 C52.1289942,144.875003 55.1771942,144.542003 56.6291942,145.783003 C58.0922942,147.025003 59.2672942,147.790003 56.5626942,148.344003 C53.8580942,148.898003 49.0031942,148.543003 48.0276942,146.471003 C47.0633942,144.387003 47.0633942,144.387003 47.0633942,144.387003 Z" id="Path" fill="#D4E4F8"></path>
            <path d="M48.0277942,146.470003 C47.1963942,146.958003 45.6778942,150.494003 45.6778942,150.494003 L45.6778942,149.452003 C47.1298942,146.747003 47.0633942,144.386003 47.0633942,144.386003 C48.7260942,139.121003 63.2908942,134.399003 63.2908942,134.399003 C44.7689942,141.892003 48.0277942,146.470003 48.0277942,146.470003 Z" id="Path" fill="#D4E4F8"></path>
            <path d="M45.8995942,149.984003 C44.7245942,152.279003 45.2898942,156.857003 45.2898942,156.857003 L44.7134942,157.012003 C43.4277942,152.855003 45.6778942,149.452003 45.6778942,149.452003 C45.6778942,149.452003 47.0744942,147.679003 45.8995942,149.984003 Z" id="Path" fill="#D4E4F8"></path>
            <path d="M37.5086942,143.112003 C36.2339942,145.850003 29.8271942,146.316003 26.2691942,145.584003 C22.6999942,144.853003 24.2517942,143.844003 26.1693942,142.214003 C28.0980942,140.585003 32.1105942,141.006003 33.3076942,140.374003 C34.4937942,139.732003 32.7534942,139.089003 30.3814942,139.277003 C27.9982942,139.454003 26.8122942,141.838003 22.9770942,142.203003 C19.1307942,142.569003 16.2156942,135.342003 16.2156942,135.342003 C18.8647942,136.162003 23.6199942,134.699003 23.7973942,133.790003 C23.9857942,132.870003 16.9471942,132.970003 15.8498942,132.693003 C14.7524942,132.416003 12.8238942,130.221003 14.0209942,125.843003 C15.2069942,121.454003 22.6112942,122.817003 22.6112942,122.817003 C22.6112942,122.817003 27.6324942,130.498003 29.0956942,130.687003 C30.5587942,130.864003 26.0806942,123.282003 26.0806942,123.282003 C28.9182942,123.005003 36.1341942,126.475003 36.1341942,126.475003 C36.1341942,126.475003 35.6797942,135.431003 37.1428942,135.254003 C38.6059942,135.065003 37.1428942,127.295003 37.1428942,127.295003 C39.8806942,128.126003 42.4411942,131.319003 42.4411942,131.319003 C45.6445942,136.528003 38.7833942,140.374003 38.7833942,140.374003 C38.7833942,140.374003 38.7833942,140.374003 37.5086942,143.112003 Z" id="Path" fill="#D2E0FF"></path>
            <path d="M17.4016942,127.206003 C17.4016942,127.206003 36.5997942,133.425003 38.7833942,140.375003 C38.7833942,140.375003 38.6946942,143.478003 40.6122942,147.047003 L40.6122942,148.411003 C40.6122942,148.411003 38.6060942,143.755003 37.5086942,143.112003 C37.5086942,143.112003 41.8093942,137.082003 17.4016942,127.206003 Z" id="Path" fill="#D2E0FF"></path>
            <path d="M40.6122942,147.047003 C40.6122942,147.047003 43.5717942,151.537003 41.8869942,157.012003 L41.1221942,156.802003 C41.1221942,156.802003 41.8648942,150.783003 40.3129942,147.746003 C38.7722942,144.720003 40.6122942,147.047003 40.6122942,147.047003 Z" id="Path" fill="#D2E0FF"></path>
            <path d="M39.0161942,168.872003 C31.6007942,168.872003 25.5929942,162.865003 25.5929942,155.449003 L52.4503942,155.449003 C52.4503942,162.865003 46.4315942,168.872003 39.0161942,168.872003 Z" id="Path" fill="#AEC3FF"></path>
            <path d="M27.0671942,167.908003 L50.9761942,167.908003 C51.8961942,167.908003 52.6277942,168.651003 52.6277942,169.560003 L25.4045942,169.560003 C25.4045942,168.651003 26.1471942,167.908003 27.0671942,167.908003 Z" id="Path" fill="#AEC3FF"></path>
            <polygon id="Path" fill="#D2E0FF" points="25.2826942 155.449003 52.8937942 155.449003 52.8937942 155.859003 25.2826942 155.859003"></polygon>
            <path d="M146.101994,92.9003027 L145.990994,92.8781027 L152.209994,31.2603027 L152.319994,31.2713027 C154.459994,31.4930027 156.010994,33.4328027 155.789994,35.6164027 L150.369994,89.3644027 C150.147994,91.5369027 148.240994,93.1220027 146.101994,92.9003027 Z" id="Path" fill="#2C3A64"></path>
            <path d="M155.988994,100.271003 L149.748994,100.271003 L149.748994,97.3229027 L155.988994,97.3229027 C158.360994,97.3229027 160.533994,96.2034027 161.941994,94.2525027 C163.404994,92.2241027 163.781994,89.6968027 162.994994,87.3137027 L154.381994,61.5204027 L157.174994,60.5894027 L165.787994,86.3826027 C166.873994,89.6193027 166.330994,93.2106027 164.335994,95.9706027 C162.362994,98.7084027 159.325994,100.271003 155.988994,100.271003 Z" id="Path" fill="#2C3A64"></path>
            <path d="M151.244994,70.0000027 L152.907994,53.5952027 C155.512994,53.8612027 157.407994,56.2444027 157.141994,58.8935027 L156.454994,65.6882027 C156.188994,68.3374027 153.860994,70.2772027 151.244994,70.0000027 Z" id="Path" fill="#2C3A64"></path>
            <path d="M175.497994,98.7973027 L149.083994,98.7973027 C148.451994,98.7973027 147.919994,98.2763027 147.919994,97.6334027 L147.919994,97.6224027 C147.919994,96.9795027 148.451994,96.4585027 149.083994,96.4585027 L175.497994,96.4585027 C176.129994,96.4585027 176.650994,96.9795027 176.650994,97.6224027 L176.650994,97.6334027 C176.650994,98.2763027 176.129994,98.7973027 175.497994,98.7973027 Z" id="Path" fill="#2C3A64"></path>
            <path d="M187.435994,99.5733027 C187.435994,100.338003 186.814994,100.959003 186.049994,100.959003 L110.609994,100.959003 C109.844994,100.959003 109.223994,100.338003 109.223994,99.5733027 C109.223994,98.8085027 109.844994,98.1877027 110.609994,98.1877027 L118.401994,98.1877027 L186.049994,98.1877027 C186.814994,98.1877027 187.435994,98.8085027 187.435994,99.5733027 Z" id="Path" fill="#2C3A64"></path>
            <path d="M181.438994,169.560003 L180.418994,169.560003 L180.285994,167.010003 L176.594994,98.6862027 C176.583994,98.4313027 176.794994,98.1985027 177.071994,98.1870612 C177.348994,98.1764027 177.581994,98.3759027 177.603994,98.6419027 L181.294994,167.010003 L181.438994,169.560003 Z" id="Path" fill="#2C3A64"></path>
            <path d="M181.294994,167.454003 L181.438994,169.560003 L157.385994,169.560003 C157.385994,168.396003 158.327994,167.454003 159.491994,167.454003 L181.294994,167.454003 Z" id="Path" fill="#2C3A64"></path>
            <polygon id="Path" fill="#2C3A64" points="118.401994 96.4585027 135.671994 94.5520027 135.671994 98.2431027 118.401994 98.2431027"></polygon>
            <path d="M153.339994,169.560003 L143.585994,169.560003 C143.585994,169.560003 136.036994,169.560003 135.826994,169.549003 C134.596994,169.460003 134.817994,163.541003 134.939994,161.335003 C134.961994,160.836003 134.995994,160.526003 134.995994,160.526003 C134.995994,160.526003 135.116994,160.349003 135.327994,160.094003 C136.247994,158.985003 138.785994,156.403003 140.249994,159.717003 C140.492994,160.282003 140.825994,160.814003 141.224994,161.313003 C141.701994,161.945003 142.299994,162.521003 142.942994,163.042003 C145.303994,165.004003 148.440994,166.223003 150.335994,166.567003 C153.162994,167.088003 153.339994,169.560003 153.339994,169.560003 Z" id="Path" fill="#163560"></path>
            <path d="M147.265994,169.560003 L137.511994,169.560003 C137.511994,169.560003 129.962994,169.560003 129.763994,169.549003 C128.521994,169.460003 128.743994,163.541003 128.865994,161.335003 C128.887994,160.836003 128.920994,160.526003 128.920994,160.526003 C128.920994,160.526003 129.042994,160.349003 129.253994,160.094003 C130.173994,158.985003 132.711994,156.403003 134.174994,159.717003 C134.418994,160.282003 134.751994,160.814003 135.150994,161.313003 C135.626994,161.945003 136.225994,162.521003 136.868994,163.042003 C139.229994,165.004003 142.366994,166.223003 144.272994,166.567003 C147.088994,167.088003 147.265994,169.560003 147.265994,169.560003 Z" id="Path" fill="#204572"></path>
            <path d="M141.169994,160.692003 C141.169994,160.692003 140.559994,161.047003 139.240994,161.313003 C138.630994,161.424003 137.876994,161.524003 136.968994,161.535003 C135.394994,161.579003 134.208994,161.490003 133.432994,161.413003 C133.254994,161.380003 133.088994,161.368003 132.955994,161.335003 C132.456994,161.269003 132.212994,161.202003 132.212994,161.202003 C122.902994,131.507003 128.732994,130.310003 125.407994,127.650003 C122.835994,125.577003 115.741994,124.868003 115.741994,124.868003 L81.6575942,124.868003 C80.6156942,122.884003 80.1390942,118.117003 79.9616942,115.490003 C79.8841942,114.393003 79.8508942,113.672003 79.8508942,113.672003 C79.8508942,113.672003 89.8711942,110.813003 97.1535942,109.239003 C99.7805942,108.662003 101.032994,109.926003 102.351994,109.893003 L104.435994,110.558003 C108.747994,110.691003 132.035994,113.750003 135.948994,117.774003 C136.679994,118.516003 137.865994,119.824003 138.375994,121.952003 C141.169994,133.369003 141.169994,160.692003 141.169994,160.692003 Z" id="Path" fill="#153C6B"></path>
            <path d="M137.067994,162.355003 C137.067994,162.355003 134.873994,163.308003 131.913994,163.308003 C129.796994,163.308003 128.233994,162.255003 126.925994,161.900003 C117.614994,132.205003 126.016994,130.310003 122.691994,127.650003 C120.119994,125.577003 113.014994,124.868003 113.014994,124.868003 L78.9419942,124.868003 C77.9000942,122.883003 77.4233942,118.117003 77.2460942,115.490003 C77.1684942,114.393003 77.1352942,113.672003 77.1352942,113.672003 C77.1352942,113.672003 87.1554942,110.813003 94.4378942,109.239003 C97.0648942,108.662003 99.3371942,108.252003 100.655994,108.208003 L101.021994,108.208003 C105.344994,108.352003 129.896994,113.484003 133.809994,117.508003 C134.540994,118.250003 135.881994,119.769003 135.660994,121.952003 C133.864994,139.421003 137.067994,162.355003 137.067994,162.355003 Z" id="Path" fill="#1C468A"></path>
            <path d="M90.8908942,63.9368027 C93.7173942,65.2115027 94.2826942,68.4038027 94.2826942,68.4038027 C88.1308942,70.8867027 77.9554942,65.0341027 77.9554942,65.0341027 C77.9554942,65.0341027 81.6908942,61.7421027 82.4224942,55.5016027 C82.4593942,55.1839027 82.4852942,54.8624027 82.5000942,54.5373027 C82.5665942,53.4953027 82.5554942,52.3758027 82.4224942,51.1787027 L85.6812942,53.4178027 L91.1125942,57.1310027 C91.1125942,57.1310027 91.2344942,58.9599027 91.0349942,62.1411027 C90.9980942,62.6953027 90.9499942,63.2939027 90.8908942,63.9368027 Z" id="Path" fill="#FFB27D"></path>
            <path d="M98.8494942,96.8574027 C98.8161942,98.3094027 99.4036942,99.3957027 99.7583942,100.427003 C99.8913942,100.814003 99.9911942,101.202003 100.001994,101.590003 C100.168994,105.570003 100.899994,107.110003 100.622994,108.441003 C100.622994,108.441003 99.9800942,108.274003 97.3863942,109.671003 C96.2446942,110.281003 94.8812942,110.946003 93.2961942,111.611003 C93.2148942,111.648003 93.1336942,111.685003 93.0523942,111.721003 C86.9115942,114.271003 80.2831942,115.512003 78.3877942,115.701003 C74.7631942,116.078003 72.8455942,107.033003 72.6792942,95.3388027 C72.4132942,77.1162027 74.0980942,68.0492027 80.7043942,60.7889027 C81.1255942,60.3345027 80.9814942,61.7200027 83.6417942,62.6068027 C86.0913942,63.4159027 88.9067942,63.3051027 91.0017942,62.5513027 L92.9304942,64.0699027 C97.0094942,68.9581027 98.1843942,75.2429027 98.5834942,80.5523027 C99.0932942,87.2694027 98.9492942,92.7008027 98.8494942,96.8574027 Z" id="Path" fill="#8C9DF4"></path>
            <path d="M91.1125942,57.1312027 C91.1125942,57.1312027 91.3342942,56.8319027 91.1347942,60.0132027 C85.5482942,59.1597027 83.4311942,56.6435027 82.4778942,54.9254027 C82.2007942,54.4377027 84.3732942,53.8724027 85.6812942,53.4180027 L91.1125942,57.1312027 Z" id="Path" fill="#ED975D"></path>
            <path d="M93.6176942,56.8207027 C93.6176942,56.8207027 83.4200942,59.6694027 81.7462942,53.2959027 C80.0725942,46.9224027 77.6339942,42.9985027 84.0740942,40.9036027 C90.5029942,38.8197027 92.4094942,40.9257027 93.4846942,42.9098027 C94.5708942,44.9050027 96.2224942,55.9228027 93.6176942,56.8207027 Z" id="Path" fill="#FFB27D"></path>
            <path d="M76.9024942,41.9787027 C76.8026942,41.8900027 76.6031942,41.8346027 76.1708942,41.8679027 C76.1708942,41.8679027 76.4922942,41.6129027 76.9467942,41.5353027 C76.9689942,40.9257027 77.1573942,39.8284027 78.1549942,39.4404027 C78.1549942,39.4404027 77.6339942,39.8062027 77.6450942,40.4491027 C78.6870942,39.0746027 81.1477942,37.8664027 88.3193942,37.5561027 C97.7742942,37.1459027 95.4243942,43.5194027 94.2937942,44.3840027 C93.1742942,45.2486027 89.8821942,43.6635027 87.6431942,44.1180027 C85.4041942,44.5724027 85.3819942,47.8867027 84.6725942,48.4298027 C83.9520942,48.9729027 84.1626942,48.1416027 83.0653942,47.8091027 C81.9679942,47.4655027 82.0788942,49.1946027 82.5221942,50.2698027 C82.9544942,51.3561027 81.7130942,52.9966027 81.7130942,52.9966027 C81.7130942,52.9966027 81.7130942,52.9966027 80.0836942,51.6332027 C78.4542942,50.2587027 76.2927942,43.8520027 76.7804942,42.3778027 C76.8174942,42.2447027 76.8580942,42.1117027 76.9024942,41.9787027 Z" id="Path" fill="#2C3A64"></path>
            <path d="M101.032994,108.219003 C101.032994,108.219003 98.6610942,109.383003 95.9009942,110.436003 C83.9520942,101.712003 84.8720942,80.7851027 84.8055942,80.4304027 L99.8137942,93.6540027 L100.312994,101.280003 C100.389994,101.690003 100.445994,102.089003 100.411994,102.477003 C100.057994,106.434003 101.464994,106.944003 101.032994,108.219003 Z" id="Path" fill="#6980E2"></path>
            <path d="M117.271994,94.6738027 C117.271994,94.6738027 118.811994,94.5187027 119.853994,94.1085027 C120.895994,93.6984027 124.487994,92.4126027 125.129994,92.6565027 C125.772994,92.9003027 127.834994,94.2415027 128.322994,94.5076027 C128.809994,94.7736027 129.630994,96.0040027 129.630994,96.0040027 C129.242994,96.3476027 127.989994,95.4165027 127.413994,95.3943027 C126.825994,95.3721027 122.392994,97.4560027 121.106994,97.4228027 C119.831994,97.3895027 117.570994,97.2121027 117.570994,97.2121027 L117.271994,94.6738027 Z" id="Path" fill="#FFB27D"></path>
            <path d="M127.091994,95.0396027 L128.311994,96.4030027 C127.080994,96.8796027 125.639994,95.0397027 125.628994,94.9731027 L127.091994,95.0396027 Z" id="Path" fill="#FFB27D"></path>
            <path d="M119.853994,94.1085027 C119.853994,94.1085027 121.328994,92.9003027 121.837994,92.3018027 C121.837994,92.3018027 122.103994,92.4569027 122.103994,92.6897027 C122.092994,93.0777027 121.671994,93.7760027 121.671994,93.7760027 L119.853994,94.1085027 Z" id="Path" fill="#FFB27D"></path>
            <path d="M101.221994,88.9876027 C104.324994,92.1798027 117.858994,94.3080027 117.858994,94.3080027 C119.465994,96.6025027 118.667994,98.1765027 118.667994,98.1765027 C105.510994,101.025003 98.4282942,100.061003 96.1670942,98.5866027 C92.5313942,96.2256027 86.4682942,91.6589027 80.9703942,82.7803027 C76.2262942,75.1210027 82.6552942,66.1427027 90.8465942,69.9003027 C90.9130942,69.9336027 99.5588942,87.2806027 101.221994,88.9876027 Z" id="Path" fill="#8C9DF4"></path>
            <polygon id="Path" fill="#2B478B" points="92.5868942 167.587003 89.5496942 167.587003 88.7072942 128.980003 93.3405942 128.980003"></polygon>
            <polygon id="Path" fill="#2B478B" points="105.776994 167.587003 76.2706942 167.587003 76.2706942 164.927003 91.3120942 163.563003 105.776994 164.927003"></polygon>
            <path d="M73.3997942,167.165003 C73.3997942,165.824003 74.4860942,164.738003 75.8272942,164.738003 C77.1684942,164.738003 78.2547942,165.824003 78.2547942,167.165003 C78.2547942,168.507003 77.1684942,169.593003 75.8272942,169.593003 C74.4860942,169.593003 73.3997942,168.507003 73.3997942,167.165003 Z" id="Path" fill="#2B478B"></path>
            <path d="M102.905994,167.165003 C102.905994,165.824003 103.992994,164.738003 105.333994,164.738003 C106.674994,164.738003 107.760994,165.824003 107.760994,167.165003 C107.760994,168.507003 106.674994,169.593003 105.333994,169.593003 C103.992994,169.593003 102.905994,168.507003 102.905994,167.165003 Z" id="Path" fill="#2B478B"></path>
            <path d="M104.712994,131.507003 L77.3236942,131.507003 C75.9270942,131.507003 74.7964942,130.377003 74.7964942,128.980003 L107.250994,128.980003 C107.250994,130.377003 106.120994,131.507003 104.712994,131.507003 Z" id="Path" fill="#2B478B"></path>
            <polygon id="Path" fill="#2B478B" points="71.8147942 124.469003 70.1298942 124.469003 70.1298942 113.672003 71.8147942 113.672003"></polygon>
            <path d="M70.6397942,115.158003 C70.5584942,115.158003 70.4771942,115.154003 70.3959942,115.147003 C68.8884942,115.014003 67.7800942,113.683003 67.9130942,112.187003 C68.8995942,101.225003 67.4363942,89.4974027 66.0397942,81.5832027 C64.5101942,72.9485027 62.7144942,66.8632027 62.7033942,66.7967027 C62.2710942,65.3557027 63.0913942,63.8371027 64.5433942,63.4049027 C65.9843942,62.9837027 67.5028942,63.8039027 67.9351942,65.2449027 C68.0127942,65.4998027 69.8195942,71.6405027 71.3934942,80.5634027 C72.8677942,88.8213027 74.3973942,101.092003 73.3554942,112.675003 C73.2224942,114.094003 72.0363942,115.158003 70.6397942,115.158003 Z" id="Path" fill="#F99746"></path>
            <path d="M118.013994,132.970003 C117.570994,132.970003 117.116994,132.871003 116.694994,132.638003 L112.006994,130.055003 C110.764994,129.379003 109.356994,129.013003 107.938994,129.013003 L70.0744942,129.013003 C68.5670942,129.013003 67.3477942,127.794003 67.3477942,126.287003 C67.3477942,124.779003 68.5670942,123.560003 70.0744942,123.560003 L107.938994,123.560003 C110.265994,123.560003 112.582994,124.147003 114.633994,125.278003 L119.321994,127.849003 C120.651994,128.581003 121.128994,130.233003 120.408994,131.563003 C119.909994,132.461003 118.978994,132.970003 118.013994,132.970003 Z" id="Path" fill="#F99746"></path>
        </g>
    </g>
</svg>