<?xml version="1.0" encoding="UTF-8"?>
<svg width="248px" height="152px" viewBox="0 0 248 152" version="1.1" xmlns="http://www.w3.org/2000/svg" xmlns:xlink="http://www.w3.org/1999/xlink">
    <title>ill-001</title>
    <g id="Page-1" stroke="none" stroke-width="1" fill="none" fill-rule="evenodd">
        <g id="ill-001" transform="translate(0.000013, 0.000003)">
            <path d="M16.073,144.358 C9.41014,130.384 5.53926,113.079 6.67383,91.6718 C9.42127,40.1801 55.3714,-8.57232 116.961,10.8321 C126.138,13.7162 134.135,19.8947 150.453,24.2028 C160.842,26.9421 204.634,7.76698 234.878,53.9128 C238.06,58.7639 240.618,64.1942 242.309,69.4436 C251.096,96.7763 249.383,122.685 239.406,144.358 L16.073,144.358 Z" id="Path" fill="#E9F0F8" fill-rule="nonzero"></path>
            <path d="M87.9037,122.691 C86.6952,120.311 85.4627,116.867 86.1635,112.758 C86.804,109.06 88.8825,106.462 89.9822,105.508 C96.5922,99.7798 110.308,96.4566 124.918,95.224 C136.156,94.2694 142.416,94.4506 151.708,95.224 C166.318,96.4324 180.034,99.7798 186.644,105.508 C187.744,106.462 189.822,109.06 190.462,112.758 C191.163,116.867 189.931,120.311 188.722,122.691 C183.877,132.286 179.502,138.208 175.393,144.624 L101.233,144.624 C97.1239,138.208 92.7494,132.286 87.9037,122.691 Z" id="Path" fill="#0058B5" fill-rule="nonzero"></path>
            <path d="M108,132.975 C102.501,142.594 97.4865,136.383 98.2236,131.887 C98.7795,128.504 100.399,122.594 102.973,113.519 C110.646,86.5109 118.428,79.6592 121.776,85.0246 C131.069,99.9486 108.266,132.503 108,132.975 Z" id="Path" fill="#EC7D40" fill-rule="nonzero"></path>
            <path d="M220.649,134.691 C219.162,138.159 215.876,140.213 213.918,140.926 C213.507,142.485 213.084,143.73 212.673,144.528 C212.601,144.66 212.456,144.745 212.311,144.745 L202.994,144.745 C202.849,144.745 202.704,144.66 202.631,144.528 C201.229,141.796 199.574,133.833 199.683,125.918 C199.695,125.809 199.779,125.712 199.9,125.712 L215.404,125.712 C215.525,125.712 215.61,125.809 215.61,125.918 C215.626,126.667 215.622,127.412 215.598,128.153 C216.178,127.984 216.891,127.924 217.737,128.069 C218.993,128.298 219.96,128.987 220.54,130.051 C221.35,131.549 221.181,133.458 220.649,134.691 Z M219.199,130.764 C218.848,130.111 218.268,129.712 217.459,129.567 C216.613,129.41 215.996,129.567 215.537,129.809 C215.356,133.205 214.909,136.443 214.341,139.09 C215.984,138.256 218.196,136.564 219.259,134.099 C219.622,133.229 219.767,131.815 219.199,130.764 Z" id="Shape" fill="#F2BA0F"></path>
            <path d="M243.476,48.1078 L161.219,48.1078 C160.542,48.1078 159.998,47.564 159.998,46.8873 L159.998,43.9629 C159.998,43.2862 160.542,42.7424 161.219,42.7424 L243.476,42.7424 C244.153,42.7424 244.696,43.2862 244.696,43.9629 L244.696,46.8873 C244.696,47.564 244.153,48.1078 243.476,48.1078 Z" id="Path" fill="#96C0E6" fill-rule="nonzero"></path>
            <polygon id="Path" fill="#B5D8EE" fill-rule="nonzero" points="198.208 42.0412 162.645 42.0412 162.645 6.47729 198.208 6.47729"></polygon>
            <polygon id="Path" fill="#FFFFFF" fill-rule="nonzero" points="187.937 34.6699 172.928 34.6699 172.928 13.8608 187.937 13.8608"></polygon>
            <path d="M188.336,35.0687 L172.529,35.0687 L172.529,13.4622 L188.336,13.4622 L188.336,35.0687 Z M173.327,34.2712 L187.538,34.2712 L187.538,14.2597 L173.327,14.2597 L173.327,34.2712 Z" id="Shape" fill="#96C0E6"></path>
            <path d="M224.057,41.6912 L217.483,41.6912 C217.289,41.6912 217.132,41.5341 217.132,41.3408 L217.132,7.28745 C217.132,7.09411 217.289,6.93701 217.483,6.93701 L224.057,6.93701 C224.25,6.93701 224.407,7.09411 224.407,7.28745 L224.407,41.3408 C224.407,41.5341 224.25,41.6912 224.057,41.6912 Z" id="Path" fill="#96C0E6" fill-rule="nonzero"></path>
            <path d="M228.588,41.6912 L225.35,41.6912 C225.193,41.6912 225.072,41.5704 225.072,41.4133 L225.072,7.22703 C225.072,7.06994 225.193,6.93701 225.35,6.93701 L228.588,6.93701 C228.745,6.93701 228.878,7.06994 228.878,7.22703 L228.878,41.4133 C228.878,41.5704 228.745,41.6912 228.588,41.6912 Z" id="Path" fill="#B5D8EE" fill-rule="nonzero"></path>
            <path d="M207.489,41.5096 L204.359,40.6637 C204.214,40.6154 204.118,40.4583 204.166,40.3133 L213.133,7.32338 C213.169,7.16629 213.326,7.08169 213.483,7.11795 L216.601,7.97593 C216.758,8.01218 216.842,8.16927 216.806,8.32637 L207.84,41.3042 C207.791,41.4613 207.634,41.5459 207.489,41.5096 Z" id="Path" fill="#B5D8EE" fill-rule="nonzero"></path>
            <path d="M238.775,41.6912 L232.201,41.6912 C232.008,41.6912 231.851,41.5341 231.851,41.3408 L231.851,7.28745 C231.851,7.09411 232.008,6.93701 232.201,6.93701 L238.775,6.93701 C238.969,6.93701 239.126,7.09411 239.126,7.28745 L239.126,41.3408 C239.126,41.5341 238.969,41.6912 238.775,41.6912 Z" id="Path" fill="#B5D8EE" fill-rule="nonzero"></path>
            <polygon id="Path" fill="#96C0E6" fill-rule="nonzero" points="231.851 11.9758 239.126 11.9758 239.126 12.8217 231.851 12.8217"></polygon>
            <polygon id="Path" fill="#96C0E6" fill-rule="nonzero" points="231.851 35.9268 239.126 35.9268 239.126 36.7847 231.851 36.7847"></polygon>
            <path d="M120.543,141.699 C117.172,113.616 107.118,112.395 111.891,104.468 C118.392,93.6404 112.58,88.2388 116.229,83.973 C118.936,80.807 123.298,83.2117 128.688,79.7677 C134.114,76.3116 134.21,76.5533 137.219,76.3962 C143.696,76.0458 143.37,79.8523 155.116,81.0003 C158.089,81.3024 159.273,81.3266 163.14,87.7433 C167.164,94.438 159.491,106.486 153.908,123.09 C150.935,131.959 155.708,140.394 157.267,143.488 C157.485,143.923 157.702,144.297 157.908,144.624 L120.41,144.624 C120.579,143.778 120.676,142.811 120.543,141.699 Z" id="Path" fill="#FFFFFF" fill-rule="nonzero"></path>
            <path d="M173.375,133.338 C173.569,137.447 172.493,137.857 171.031,139.175 C162.294,147.041 135.129,143.996 112.072,144.48 C108.821,144.552 107.166,144.431 106.852,142.449 C106.646,141.217 111.214,136.117 118.416,135.706 C120.592,135.586 125.208,139.211 129.739,139.126 C137.92,138.981 144.059,129.459 161.642,130.8 C162.089,130.836 162.765,130.704 162.56,129.991 C161.617,126.873 158.874,122.837 155.624,110.728 C148.965,85.9799 155.297,78.2822 160.373,83.5751 C170.693,94.3301 172.916,123.332 173.375,133.338 Z" id="Path" fill="#F79556" fill-rule="nonzero"></path>
            <path d="M157.34,144.902 L66.5871,144.902 C66.2124,144.902 65.8983,144.636 65.8983,144.31 L65.8983,142.884 C65.8983,142.546 66.2124,142.28 66.5871,142.28 L155.189,142.28 C155.563,142.28 157.799,144.044 157.799,144.044 C158.101,144.382 157.847,144.89 157.352,144.902 C157.352,144.902 157.348,144.902 157.34,144.902 Z" id="Path" fill="#282444" fill-rule="nonzero"></path>
            <path d="M147.358,58.9594 C143.286,67.0679 136.325,68.3247 130.211,68.0347 C124.579,67.7688 118.682,67.5755 116.712,55.1046 C115.081,44.7 118.513,41.0144 121.002,40.1564 C122.682,39.5763 122.368,40.0597 123.274,39.7818 C124.688,39.3467 124.93,37.3287 129.691,36.8453 C130.239,36.7889 130.774,36.7486 131.298,36.7245 C126.005,29.7398 135.491,22.9122 140.627,27.7096 C145.28,32.0479 143.914,36.6399 140.748,38.7063 C148.784,43.1291 149.956,53.7632 147.358,58.9594 Z" id="Path" fill="#282444" fill-rule="nonzero"></path>
            <path d="M138.5,60.5059 C141.28,59.2734 141.449,67.6356 142.5,78.5598 C142.923,82.9343 137.679,87.3692 134.827,87.6471 C129.473,88.1667 128.47,75.2366 131.636,68.0948 C133.63,63.6116 135.83,61.6781 138.5,60.5059 Z" id="Path" fill="#F79556" fill-rule="nonzero"></path>
            <path d="M131.721,75.1879 C134.355,74.2453 136.047,72.1669 137.34,69.895 C135.806,73.3149 134.005,77.7618 129.848,79.3449 C129.824,78.076 129.884,76.7589 130.029,75.4658 C130.045,75.4658 130.061,75.4658 130.078,75.4658 C130.223,75.4658 131.044,75.4296 131.721,75.1879 Z" id="Path" fill="#EC7D40" fill-rule="nonzero"></path>
            <path d="M144.965,58.2945 C144.772,61.7144 142.536,64.3608 141.582,64.0708 C140.482,63.7324 140.518,63.0799 140.253,63.6116 C138.476,67.2248 136.736,73.3394 131.721,75.14 C131.032,75.3816 130.174,75.4179 130.029,75.43 C127.359,75.5508 125.534,73.3273 124.543,72.2397 C120.314,67.5994 119.311,60.7839 118.912,56.6269 C118.851,55.9744 118.803,55.3702 118.767,54.7901 C118.972,53.775 119.129,52.5304 119.238,51.1165 C119.311,52.5666 119.48,53.7388 119.625,54.5243 C119.746,55.1043 120.084,55.4306 120.869,55.4668 C120.869,55.4668 122.791,55.7569 126.996,55.5514 C131.298,55.346 134.645,54.488 134.645,54.488 C135.383,54.4397 135.636,53.7267 135.419,53.0017 C135.226,52.337 135.008,51.3945 134.863,50.186 C136.579,53.2917 139.552,56.5544 141.546,55.7448 C142.21,55.5877 145.255,53.2071 144.965,58.2945 Z" id="Path" fill="#F79556" fill-rule="nonzero"></path>
            <path d="M112.193,144.902 L66.4421,144.902 C64.5449,144.902 62.8652,143.633 62.3577,141.808 L52.2069,105.749 C51.6752,103.852 53.1012,101.979 55.0709,101.979 L98.7554,101.979 C100.665,101.979 102.332,103.248 102.852,105.072 L113.546,143.113 C113.8,144.008 113.123,144.902 112.193,144.902 Z" id="Path" fill="#FFFFFF" fill-rule="nonzero"></path>
            <path d="M110.707,144.902 L66.4179,144.902 C64.5811,144.902 62.9618,143.682 62.4542,141.905 L52.0981,105.085 C51.8564,104.215 52.5089,103.344 53.4152,103.344 L97.7039,103.344 C99.5407,103.344 101.16,104.577 101.668,106.353 L112.024,143.174 C112.265,144.044 111.613,144.902 110.707,144.902 Z" id="Path" fill="#282444" fill-rule="nonzero"></path>
            <path d="M242.854,151.761 L1.4441,151.761 C0.649283,151.761 0,151.018 0,150.08 L0,146.039 C0,145.114 0.649283,144.358 1.4441,144.358 L242.854,144.358 C243.66,144.358 244.299,145.114 244.299,146.039 L244.299,150.08 C244.299,151.018 243.66,151.761 242.854,151.761 Z" id="Path" fill="#0058B5" fill-rule="nonzero"></path>
            <path d="M32.8842,124.54 C30.6366,121.181 32.3283,115.247 37.7058,112.516 C38.9626,111.864 40.6785,110.643 41.2465,108.939 C41.4036,108.444 41.2586,108.009 41.3915,108.021 C41.5486,108.033 41.5849,109.084 41.5969,109.374 C41.6936,111.562 41.2102,113.374 41.0048,114.401 C40.3281,117.845 41.4399,122.377 38.31,125.459 C36.0624,127.67 33.996,126.196 32.8842,124.54 Z" id="Path" fill="#282444" fill-rule="nonzero"></path>
            <path d="M28.0746,111.079 C28.1834,111.091 27.9296,111.248 28.0505,111.634 C28.2197,112.178 28.6668,112.505 28.9447,112.807 C29.9356,113.894 30.1531,115.284 30.0927,116.698 C30.0323,117.749 29.2468,119.247 28.4976,118.728 C24.9448,116.226 27.3979,112.686 27.688,112.057 C28.0384,111.296 27.9176,111.066 28.0746,111.079 Z" id="Path" fill="#282444" fill-rule="nonzero"></path>
            <path d="M28.2439,128.516 C27.7726,122.981 18.6853,122.981 21.4042,114.317 C21.6459,113.531 20.8362,113.386 20.945,113.29 C21.1867,113.108 22.4676,114.003 23.241,114.486 C30.7816,119.066 32.9809,128.359 31.3133,130.002 C30.3707,130.933 28.3889,130.147 28.2439,128.516 Z" id="Path" fill="#3A4A1D" fill-rule="nonzero"></path>
            <path d="M49.923,115.368 C49.4275,115.828 47.8928,115.646 46.4669,116.275 C45.1255,116.855 44.5576,118.184 43.9654,120.093 C42.9504,123.368 40.0622,128.383 36.014,128.419 C29.4644,128.48 35.3977,121.036 41.2465,117.012 C43.7721,115.272 47.2524,115.248 48.8112,115.223 C49.7417,115.211 50.1526,115.151 49.923,115.368 Z" id="Path" fill="#3A4A1D" fill-rule="nonzero"></path>
            <path d="M32.3404,108.069 C32.8359,107.828 32.1712,109.809 34.6727,112.347 C40.0018,117.761 38.9022,128.697 33.3192,129.241 C31.0957,129.47 22.8543,120.637 31.7483,110.293 C32.7996,109.072 32.1592,108.166 32.3404,108.069 Z" id="Path" fill="#3A4A1D" fill-rule="nonzero"></path>
            <path d="M38.2979,116.323 C38.3342,115.936 39.6513,119.852 39.8205,121.773 C40.1589,125.93 39.6151,128.214 38.0079,129.954 C36.1227,131.96 32.9325,132.794 31.0474,130.981 C29.3556,129.362 29.2589,126.486 30.7211,124.48 C31.7603,123.054 32.1229,122.994 34.9989,119.936 C36.7753,118.039 38.1529,118.075 38.2979,116.323 Z" id="Path" fill="#516123" fill-rule="nonzero"></path>
            <path d="M43.2767,135.658 L43.2767,136.721 C43.2767,140.782 39.9897,144.443 35.9294,144.443 L35.6032,144.443 L32.6667,144.443 L32.3284,144.443 C28.2801,144.443 24.9932,140.782 24.9932,136.721 L24.9932,135.658 L25.6458,128.214 C25.6941,127.658 26.1533,127.247 26.7092,127.247 L32.6667,127.247 L35.6032,127.247 L41.5607,127.247 C42.1166,127.247 42.5758,127.658 42.6241,128.214 L43.2767,135.658 Z" id="Path" fill="#F2BA0F" fill-rule="nonzero"></path>
            <path d="M57.9902,102.921 C57.9224,102.921 57.8547,102.903 57.7931,102.872 C56.7091,102.33 55.4404,101.69 54.2148,101.018 C53.9992,100.901 53.9253,100.63 54.0423,100.415 C54.1593,100.199 54.4303,100.125 54.6397,100.242 C55.853,100.907 57.1095,101.542 58.1873,102.084 C58.409,102.188 58.4952,102.459 58.3905,102.675 C58.3104,102.829 58.1565,102.921 57.9902,102.921 Z M49.922,98.1974 C49.8296,98.1974 49.7311,98.1666 49.651,98.1051 C48.4808,97.2059 47.4954,96.3005 46.6455,95.3212 C46.4854,95.1365 46.5038,94.8593 46.6886,94.6992 C46.8734,94.5391 47.1505,94.5575 47.3106,94.7423 C48.1236,95.6723 49.0659,96.5407 50.193,97.403 C50.3839,97.5508 50.4209,97.8279 50.2731,98.0188 C50.1869,98.1359 50.0514,98.1974 49.922,98.1974 Z M50.7596,96.0234 C50.5564,96.0234 50.3716,95.8817 50.3285,95.6785 C50.2731,95.4383 50.4271,95.2042 50.6672,95.1488 C51.1168,95.0502 51.5664,94.9209 51.9914,94.7669 C52.749,94.4898 53.4757,94.1079 54.1532,93.6275 C54.3564,93.4859 54.6336,93.529 54.7752,93.7322 C54.9169,93.9293 54.8676,94.2065 54.6705,94.3481 C53.9253,94.8716 53.1246,95.2966 52.2994,95.5984 C51.8313,95.7708 51.3447,95.9063 50.852,96.0172 C50.8233,96.0213 50.7925,96.0234 50.7596,96.0234 Z M45.4568,95.9248 C45.4199,95.9248 45.385,95.9207 45.3521,95.9125 C44.0156,95.5922 42.7284,95.0749 41.5213,94.3728 C41.3119,94.2496 41.238,93.9786 41.3612,93.7692 C41.4843,93.5598 41.7553,93.4859 41.9647,93.6091 C43.098,94.2681 44.3051,94.7546 45.5554,95.0503 C45.7956,95.1057 45.9434,95.3459 45.8818,95.5861 C45.8387,95.7893 45.6539,95.9248 45.4568,95.9248 Z M37.7212,90.9484 C37.5919,90.9484 37.4626,90.893 37.3763,90.7883 C36.5326,89.7536 35.7997,88.5834 35.1838,87.3147 C35.0729,87.0991 35.1653,86.8343 35.387,86.7234 C35.6087,86.6187 35.8736,86.7111 35.9783,86.9328 C36.5634,88.1338 37.2655,89.2424 38.0662,90.2278 C38.2201,90.4188 38.1893,90.6959 37.9984,90.8499 C37.9183,90.9176 37.8198,90.9484 37.7212,90.9484 Z M44.3051,90.8868 C44.1142,90.8868 43.9356,90.7637 43.8801,90.5727 C43.5414,89.4518 43.369,88.2755 43.369,87.0683 C43.369,86.8651 43.3689,86.6618 43.3813,86.4586 C43.3936,86.2122 43.603,86.0275 43.8432,86.0398 C44.0895,86.0521 44.2743,86.2554 44.2682,86.5017 C44.2558,86.6865 44.2497,86.8774 44.2497,87.0683 C44.2497,88.1831 44.4098,89.2794 44.7239,90.3141 C44.7978,90.5481 44.6685,90.7945 44.4344,90.8684 C44.3893,90.8807 44.3462,90.8868 44.3051,90.8868 Z M57.8054,90.3695 C57.7438,90.3695 57.6822,90.3572 57.6206,90.3264 C57.3989,90.2217 57.3004,89.963 57.4051,89.7413 C57.9471,88.5773 58.2242,87.3763 58.2242,86.1814 C58.2242,86.1363 58.2222,86.0911 58.2181,86.046 C58.2181,85.8058 58.409,85.6025 58.6553,85.5964 C58.6594,85.5964 58.6615,85.5964 58.6615,85.5964 C58.9017,85.5964 59.1049,85.7873 59.1049,86.0336 C59.1049,86.0829 59.1049,86.1322 59.1049,86.1814 C59.1049,87.5056 58.8032,88.8298 58.2119,90.1108 C58.1318,90.271 57.9717,90.3695 57.8054,90.3695 Z M33.8904,82.5046 C33.6872,82.5046 33.5024,82.3568 33.4593,82.1474 C33.1945,80.8232 33.0405,79.4559 32.9974,78.0887 C32.9912,77.8423 33.1821,77.6391 33.4285,77.6329 C33.6749,77.6267 33.8781,77.8177 33.8843,78.064 C33.9212,79.382 34.069,80.7 34.3277,81.9749 C34.377,82.209 34.223,82.443 33.9828,82.4923 C33.9541,82.5005 33.9233,82.5046 33.8904,82.5046 Z M45.3644,81.8641 C45.2844,81.8641 45.1981,81.8394 45.1242,81.7902 C44.921,81.6547 44.8656,81.3837 44.9949,81.1743 C45.8202,79.9117 46.8918,78.9817 48.1729,78.4151 C48.3946,78.3165 48.6533,78.4151 48.758,78.643 C48.8565,78.8647 48.7518,79.1234 48.5301,79.2281 C47.4092,79.7208 46.4669,80.5399 45.7401,81.6608 C45.6539,81.7901 45.5123,81.8641 45.3644,81.8641 Z M56.7707,81.5931 C56.6475,81.5931 56.5244,81.5438 56.432,81.4391 C55.5944,80.4598 54.5412,79.69 53.3895,79.2219 C53.1616,79.1295 53.0507,78.8708 53.1431,78.6491 C53.2355,78.4212 53.4942,78.3104 53.7221,78.4028 C55.0093,78.9263 56.1795,79.7762 57.1095,80.8663 C57.2634,81.0511 57.245,81.3282 57.0602,81.4884 C56.974,81.5561 56.8754,81.5931 56.7707,81.5931 Z M33.8165,73.1862 C33.796,73.1862 33.7734,73.1841 33.7488,73.18 C33.5086,73.1431 33.3423,72.9152 33.3792,72.675 C33.5825,71.4001 33.8781,70.0636 34.2415,68.7086 C34.3092,68.4746 34.5494,68.333 34.7896,68.4007 C35.0237,68.4623 35.1653,68.7087 35.0976,68.9427 C34.7403,70.2669 34.4509,71.5725 34.2538,72.8166 C34.2168,73.0322 34.0321,73.1862 33.8165,73.1862 Z M36.354,64.188 C36.3006,64.188 36.2472,64.1798 36.1938,64.1634 C35.966,64.071 35.8551,63.8185 35.9413,63.5906 C36.3909,62.4266 36.896,61.2071 37.4872,59.8583 C37.5858,59.6366 37.8444,59.5381 38.0723,59.6366 C38.294,59.7351 38.3926,59.9938 38.294,60.2155 C37.7089,61.5459 37.2101,62.753 36.7666,63.9047 C36.6989,64.0833 36.5326,64.188 36.354,64.188 Z M40.1294,55.621 C40.0678,55.621 40,55.6087 39.9385,55.5779 C39.7167,55.4732 39.6244,55.2084 39.7291,54.9866 C40.1725,54.0566 40.6282,53.1143 41.0717,52.1967 L41.4659,51.3714 C41.5767,51.1496 41.8415,51.0573 42.0571,51.162 C42.2788,51.2667 42.3712,51.5315 42.2665,51.7532 L41.8662,52.5847 C41.4289,53.4962 40.9732,54.4385 40.5297,55.3685 C40.4558,55.5286 40.2957,55.621 40.1294,55.621 Z M44.1573,47.1648 C44.0957,47.1648 44.028,47.1525 43.9725,47.1217 C43.7508,47.0232 43.6523,46.7583 43.7508,46.5366 C43.8452,46.3313 43.9397,46.126 44.0341,45.9207 C43.525,45.9659 43.022,45.9987 42.5252,46.0193 C42.2788,46.0316 42.0694,45.8407 42.0633,45.5943 C42.051,45.348 42.2419,45.1447 42.4882,45.1324 C43.1349,45.1078 43.7878,45.0585 44.4468,44.9969 C44.7793,44.2578 45.0811,43.5557 45.3644,42.8782 C45.463,42.6504 45.7217,42.5457 45.9495,42.638 C46.1713,42.7366 46.276,42.9953 46.1836,43.2231 C45.9557,43.759 45.7155,44.3133 45.463,44.886 C45.7873,44.845 46.1097,44.8019 46.4299,44.7567 C46.6763,44.7197 46.898,44.886 46.935,45.1262 C46.9719,45.3726 46.8056,45.5943 46.5654,45.6313 C46.0604,45.7052 45.5554,45.7709 45.0503,45.8284 C44.8902,46.1774 44.726,46.5366 44.5576,46.9062 C44.4837,47.0663 44.3236,47.1648 44.1573,47.1648 Z M37.1608,45.8407 C37.1444,45.8407 37.1279,45.8407 37.1115,45.8407 C35.7504,45.6867 34.4016,45.4527 33.1082,45.1386 C32.868,45.077 32.7202,44.8429 32.7818,44.6027 C32.8372,44.3625 33.0774,44.2209 33.3115,44.2763 C34.5741,44.5843 35.8859,44.8121 37.2101,44.9599 C37.4503,44.9846 37.6289,45.2063 37.5981,45.4465 C37.5734,45.6744 37.3825,45.8407 37.1608,45.8407 Z M51.7266,44.5042 C51.5295,44.5042 51.3509,44.3749 51.2955,44.1839 C51.2339,43.9437 51.3694,43.7035 51.6034,43.6358 C52.866,43.2724 54.1286,42.8474 55.3665,42.3732 C55.5944,42.2808 55.853,42.3978 55.9393,42.6257 C56.0317,42.8536 55.9146,43.1061 55.6867,43.1985 C54.4242,43.6851 53.1308,44.1162 51.8436,44.4857 C51.8025,44.498 51.7635,44.5042 51.7266,44.5042 Z M28.1503,43.4325 C28.0887,43.4325 28.0271,43.4202 27.9656,43.3956 C26.7399,42.8413 25.539,42.1884 24.3872,41.4432 C24.184,41.3139 24.1224,41.0367 24.2579,40.8335 C24.3872,40.6241 24.6644,40.5687 24.8676,40.698 C25.9824,41.4186 27.1464,42.0529 28.3289,42.5888 C28.5507,42.6873 28.6554,42.946 28.5506,43.1739 C28.4767,43.334 28.3166,43.4325 28.1503,43.4325 Z M60.3922,40.9936 C60.232,40.9936 60.078,40.9136 59.998,40.7596 C59.8871,40.544 59.9672,40.2792 60.1827,40.1622 C61.2913,39.5709 62.4184,38.9181 63.6317,38.1667 C63.8411,38.0435 64.1121,38.1051 64.2415,38.3145 C64.3708,38.5177 64.3031,38.7949 64.0998,38.9242 C62.868,39.6818 61.7286,40.3469 60.5954,40.9443 C60.5338,40.9813 60.4599,40.9936 60.3922,40.9936 Z M47.6925,38.4993 C47.6473,38.4993 47.6001,38.4911 47.5509,38.4746 C47.3168,38.3946 47.1936,38.142 47.2737,37.908 C47.7233,36.6085 48.1113,35.3274 48.4377,34.1018 C48.4993,33.8678 48.7457,33.7261 48.9797,33.7877 C49.2138,33.8493 49.3554,34.0957 49.2938,34.3297 C48.9612,35.5738 48.5671,36.8795 48.1113,38.1975 C48.0497,38.3822 47.8773,38.4993 47.6925,38.4993 Z M20.4394,38.1913 C20.3285,38.1913 20.2177,38.1544 20.1314,38.0681 C19.1522,37.1258 18.2345,36.1096 17.4092,35.038 C17.2614,34.847 17.2922,34.5699 17.4893,34.4221 C17.6802,34.2681 17.9573,34.3051 18.1052,34.496 C18.912,35.5307 19.7989,36.5161 20.7473,37.4338 C20.9259,37.6001 20.9259,37.8834 20.7596,38.0558 C20.6734,38.1482 20.5564,38.1913 20.4394,38.1913 Z M68.331,36.0357 C68.1893,36.0357 68.0477,35.9741 67.9676,35.8509 C67.8259,35.6477 67.8752,35.3705 68.0784,35.235 C69.0454,34.5576 70.0308,33.8678 70.9793,33.1965 L71.3611,32.9255 C71.5582,32.79 71.8354,32.8331 71.977,33.0363 C72.1187,33.2334 72.0694,33.5106 71.8662,33.6522 L71.4905,33.917 C70.5359,34.5945 69.5566,35.2843 68.5835,35.9618 C68.5034,36.0111 68.4172,36.0357 68.331,36.0357 Z M14.921,30.6898 C14.7547,30.6898 14.6008,30.5974 14.5207,30.4434 C13.911,29.2055 13.4059,27.9306 13.0179,26.6434 C12.9502,26.4093 13.0795,26.163 13.3135,26.0952 C13.5476,26.0213 13.7939,26.1568 13.8678,26.3909 C14.2374,27.6288 14.7239,28.8544 15.3152,30.0493 C15.426,30.271 15.3337,30.5358 15.1119,30.6405 C15.0504,30.6713 14.9826,30.6898 14.921,30.6898 Z M76.0111,30.6836 C75.8694,30.6836 75.7278,30.6159 75.6477,30.4865 C75.5122,30.2833 75.5615,30.0123 75.7648,29.8768 C76.9904,29.0515 78.1051,28.3432 79.1706,27.7027 C79.38,27.5795 79.651,27.6473 79.7742,27.8567 C79.9035,28.0661 79.8358,28.3371 79.6264,28.4603 C78.5732,29.0946 77.4708,29.7967 76.2575,30.6097 C76.1836,30.659 76.0973,30.6836 76.0111,30.6836 Z M49.9405,29.4211 C49.92,29.4211 49.8994,29.419 49.8789,29.4149 C49.6387,29.3841 49.4663,29.1562 49.5032,28.916 C49.5402,28.645 49.5771,28.374 49.6079,28.1092 C49.7311,27.0868 49.7989,26.0337 49.8112,24.9743 C49.8173,24.7341 50.0144,24.537 50.2546,24.537 C50.2546,24.537 50.2567,24.537 50.2608,24.537 C50.501,24.5432 50.698,24.7403 50.698,24.9866 C50.6857,26.0706 50.6118,27.1607 50.4886,28.2139 C50.4517,28.4849 50.4147,28.7682 50.3778,29.0392 C50.347,29.2609 50.1561,29.4211 49.9405,29.4211 Z M84.1101,25.9967 C83.9438,25.9967 83.7836,25.8982 83.7036,25.738 C83.605,25.5163 83.7036,25.2515 83.9253,25.1529 C85.1694,24.574 86.4381,24.069 87.6884,23.644 C87.9224,23.5639 88.1749,23.6871 88.255,23.9212 C88.3289,24.149 88.2057,24.4015 87.9778,24.4816 C86.7522,24.8943 85.5143,25.3931 84.2948,25.9536 C84.2332,25.9844 84.1716,25.9967 84.1101,25.9967 Z M93.0158,23.1944 C92.8003,23.1944 92.6155,23.0404 92.5785,22.8249 C92.5416,22.5785 92.7017,22.3568 92.9481,22.3137 C94.3277,22.092 95.6949,21.9688 97.0068,21.9626 C97.2532,21.9626 97.4502,22.1597 97.4564,22.3999 C97.4564,22.6463 97.2593,22.8433 97.0129,22.8495 C95.7442,22.8557 94.4262,22.9727 93.0897,23.1882 C93.0651,23.1924 93.0405,23.1944 93.0158,23.1944 Z M12.519,21.704 C12.285,21.704 12.0879,21.5192 12.0756,21.2851 C12.0571,20.9218 12.051,20.5646 12.051,20.2073 C12.051,19.5422 12.0818,18.8709 12.1433,18.2119 C12.1741,17.8731 12.2173,17.5282 12.2727,17.1895 C12.3096,16.9493 12.5314,16.783 12.7777,16.8199 C13.0179,16.8569 13.1842,17.0848 13.1473,17.325 C13.098,17.6452 13.0549,17.9717 13.0241,18.2981 C12.9625,18.9263 12.9317,19.5668 12.9317,20.2073 C12.9317,20.5461 12.944,20.8971 12.9625,21.2359 C12.9748,21.4822 12.7839,21.6916 12.5375,21.704 C12.5334,21.704 12.5273,21.704 12.519,21.704 Z M49.8481,20.0903 C49.6325,20.0903 49.4416,19.9363 49.4108,19.7208 C49.1953,18.4151 48.8935,17.1156 48.5178,15.8715 C48.4439,15.6374 48.5794,15.3911 48.8134,15.3172 C49.0475,15.2494 49.2938,15.3788 49.3616,15.6128 C49.7496,16.9 50.0637,18.2303 50.2854,19.5791 C50.3224,19.8193 50.1561,20.0472 49.9159,20.0842 C49.8912,20.0883 49.8686,20.0903 49.8481,20.0903 Z M14.2743,12.6011 C14.2127,12.6011 14.1512,12.5888 14.0896,12.5641 C13.8678,12.4594 13.7693,12.1946 13.874,11.9729 C14.4468,10.7473 15.1489,9.56477 15.9619,8.45001 C16.1097,8.25292 16.3868,8.20981 16.5839,8.35762 C16.781,8.49928 16.8241,8.77643 16.6763,8.97351 C15.9003,10.0452 15.2228,11.1784 14.6747,12.3486 C14.6008,12.5087 14.4406,12.6011 14.2743,12.6011 Z M46.9165,11.24 C46.7564,11.24 46.6024,11.1538 46.5285,10.9998 C45.8941,9.81112 45.1797,8.70252 44.4037,7.69246 C44.2497,7.49538 44.2866,7.21823 44.4837,7.07041 C44.6746,6.9226 44.9518,6.95955 45.0996,7.15048 C45.9126,8.19749 46.6517,9.35537 47.3045,10.5871 C47.4215,10.8027 47.3414,11.0737 47.1259,11.1846 C47.0581,11.2215 46.9842,11.24 46.9165,11.24 Z M19.9836,5.27201 C19.8543,5.27201 19.7311,5.21659 19.6449,5.11188 C19.4848,4.92096 19.5156,4.64381 19.7003,4.48984 C20.7658,3.60912 21.9114,2.83925 23.0939,2.19873 C23.3094,2.08171 23.5804,2.16793 23.6974,2.37733 C23.8145,2.59289 23.7344,2.86389 23.5188,2.98091 C22.3794,3.59064 21.2893,4.3297 20.2669,5.17347 C20.1807,5.24122 20.0822,5.27201 19.9836,5.27201 Z M40.9608,4.11414 C40.8685,4.11414 40.7761,4.08335 40.696,4.02792 C39.6367,3.23958 38.4973,2.58674 37.3148,2.08787 C37.093,1.99548 36.9822,1.73681 37.0807,1.50893 C37.1731,1.28721 37.4318,1.17635 37.6597,1.27489 C38.9099,1.7984 40.1047,2.48819 41.2257,3.31349 C41.4227,3.4613 41.4597,3.73845 41.318,3.93554 C41.2318,4.05256 41.0963,4.11414 40.9608,4.11414 Z M28.3105,1.20098 C28.1072,1.20098 27.9224,1.05933 27.8793,0.849927 C27.8301,0.60973 27.984,0.375692 28.2242,0.326421 C29.302,0.110859 30.3922,0 31.4577,0 C31.7471,0 32.0427,0.0061604 32.3261,0.0246371 C32.5724,0.0369549 32.7572,0.246356 32.7449,0.492712 C32.7325,0.732909 32.5231,0.923835 32.2829,0.905359 C32.0119,0.893041 31.7348,0.886883 31.4577,0.886883 C30.4476,0.886883 29.4191,0.991584 28.4028,1.19483 C28.3741,1.19893 28.3433,1.20098 28.3105,1.20098 Z" id="Shape" fill="#96BFD8" fill-rule="nonzero"></path>
            <polygon id="Path" fill="#F36D45" fill-rule="nonzero" points="118.142 1.85083 112.343 20.6802 111.418 23.6957 108.766 21.4608 101.843 15.6238"></polygon>
            <polygon id="Path" fill="#E73A07" fill-rule="nonzero" points="118.142 1.85083 97.9984 13.4859 88.8358 10.4462"></polygon>
            <polygon id="Path" fill="#9D2B09" fill-rule="nonzero" points="118.142 1.85083 101.843 15.6238 98.7111 21.8825 97.9985 13.4859"></polygon>
        </g>
    </g>
</svg>