<?xml version="1.0" encoding="UTF-8"?>
<svg width="222px" height="166px" viewBox="0 0 222 166" version="1.1" xmlns="http://www.w3.org/2000/svg" xmlns:xlink="http://www.w3.org/1999/xlink">
    <title>_Group_</title>
    <g id="Page-1" stroke="none" stroke-width="1" fill="none" fill-rule="evenodd">
        <g id="_Group_" transform="translate(0.149292, 0.000000)" fill-rule="nonzero">
            <path d="M206.579708,164.487 L19.466508,164.487 C19.466508,112.814 61.350708,70.9302 113.023708,70.9302 C164.689708,70.9302 206.579708,112.814 206.579708,164.487 Z" id="Path" fill="#F36D45"></path>
            <polygon id="Path" fill="#FFB3B3" points="115.033708 164.573 115.033708 117.124 167.333708 117.124 167.333708 164.573"></polygon>
            <polygon id="Path" fill="#FFEEEE" points="115.033708 128.986 115.033708 117.124 167.333708 117.124 167.333708 128.986"></polygon>
            <polygon id="Path" fill="#F36D45" points="115.033708 140.849 115.033708 128.987 167.333708 128.987 167.333708 140.849"></polygon>
            <polygon id="Path" fill="#FFEEEE" points="115.033708 152.711 115.033708 140.849 167.333708 140.849 167.333708 152.711"></polygon>
            <polygon id="Path" fill="#F36D45" points="115.033708 164.574 115.033708 152.712 167.333708 152.712 167.333708 164.574"></polygon>
            <polygon id="Path" fill="#FFEEEE" points="167.257708 117.124 202.629708 140.849 167.257708 164.573"></polygon>
            <polygon id="Path" fill="#011721" points="182.315708 127.221 202.629708 140.849 182.315708 154.472"></polygon>
            <polygon id="Path" fill="#EAEAEA" points="167.333708 140.849 202.629708 140.849 167.257708 164.574"></polygon>
            <polygon id="Path" fill="#FFC2C2" points="133.843708 117.124 141.639708 164.573 115.033708 164.573 115.033708 117.124"></polygon>
            <path d="M180.624708,40.3906 L31.601908,40.3906 C31.520608,40.3906 31.456708,40.3267 31.456708,40.2453 C31.456708,40.1698 31.520608,40.1001 31.601908,40.1001 L180.624708,40.1001 C180.705708,40.1001 180.769708,40.1698 180.769708,40.2453 C180.769708,40.3267 180.705708,40.3906 180.624708,40.3906 Z" id="Path" fill="#B47272"></path>
            <path d="M157.724708,92.4353 C157.643708,92.4353 157.579708,92.3714 157.579708,92.2901 C157.579708,63.9123 134.493708,40.8266 106.110708,40.8266 C77.732608,40.8266 54.646908,63.9123 54.646908,92.2901 C54.646908,92.3714 54.577208,92.4353 54.501708,92.4353 C54.420308,92.4353 54.356408,92.3714 54.356408,92.2901 C54.356408,63.7554 77.569908,40.5361 106.110708,40.5361 C134.650708,40.5361 157.869708,63.7554 157.869708,92.2901 C157.869708,92.3714 157.806708,92.4353 157.724708,92.4353 Z" id="Path" fill="#B47272"></path>
            <path d="M78.900308,46.299 C78.900308,46.299 77.755908,43.5861 79.934308,41.6284 C79.934308,41.6284 81.572508,43.162 84.523508,43.3073 C84.523508,43.3073 90.820708,44.4749 85.882908,55.1057 L83.367508,54.1182 L78.900308,46.299 Z" id="Path" fill="#011721"></path>
            <path d="M96.310308,58.8408 L82.763308,79.7422 C81.450508,76.2161 79.179108,72.2774 77.122608,69.0707 C74.647908,65.2135 71.011408,62.2508 66.753308,60.5429 C57.505008,56.8308 43.865108,50.371 35.772908,46.4614 C34.738908,45.9618 35.261708,44.3876 36.394508,44.6199 C52.009608,47.7801 74.369108,52.7934 74.369108,52.7934 C76.797308,53.1827 76.582408,53.1478 78.540108,53.5486 L80.067908,53.8275 C80.567508,53.9204 81.055508,53.6474 81.247208,53.1768 C81.392408,52.7993 81.165808,52.3868 80.770808,52.3113 L79.434708,52.0557 L77.279508,49.6391 L79.411508,45.2357 C79.411508,45.2357 80.701108,48.7328 83.402408,47.0888 C83.402408,47.0888 85.819008,46.1477 85.110208,50.0225 C85.110208,50.0225 84.837208,51.9802 85.348408,53.5603 C85.679608,54.5246 86.469608,55.2507 87.451408,55.5179 C94.155108,57.342 96.310308,58.8408 96.310308,58.8408 Z" id="Path" fill="#E44F22"></path>
            <path d="M41.349808,49.1337 C39.316508,48.1693 37.428608,47.2631 35.778808,46.4614 C34.738908,45.9618 35.267508,44.3876 36.400308,44.6199 C37.602808,44.8639 38.851808,45.1195 40.118208,45.3809 L41.349808,49.1337 Z" id="Path" fill="#011721"></path>
            <path d="M82.763408,79.7422 C82.037308,77.7846 81.009008,75.7049 79.893708,73.6949 L79.893708,73.6891 L96.310408,58.8408 L82.763408,79.7422 Z" id="Path" fill="#C6370C"></path>
            <path d="M86.847308,55.2804 L82.124408,58.8414 L80.067908,53.8281 C80.567508,53.9211 81.055508,53.648 81.247208,53.1775 C81.392408,52.8057 81.165908,52.3874 80.770808,52.3119 L79.434708,52.0563 L77.279508,49.6397 L79.411508,45.2363 C79.411508,45.2363 80.701108,48.7335 83.402408,47.0895 C83.402408,47.0895 85.819008,46.1484 85.110308,50.0231 C85.110308,50.0231 84.837308,51.9808 85.348508,53.5609 C85.609908,54.3161 86.150208,54.926 86.847308,55.2804 Z" id="Path" fill="#FFFFFF"></path>
            <path d="M143.318708,59.0035 C143.318708,59.0035 144.561708,56.0757 146.228708,55.791 C146.228708,55.791 152.368708,62.7911 149.156708,66.8691 C149.156708,66.8691 146.454708,69.5646 140.256708,68.6467 L140.256708,63.6566 L143.318708,59.0035 Z" id="Path" fill="#011721"></path>
            <path d="M155.807708,117.107 C151.032708,109.073 143.178708,95.4447 139.484708,86.7193 L133.349708,102.247 L119.697708,83.2105 L124.310708,72.237 C126.000708,68.2054 125.977708,63.6627 124.234708,59.6543 C121.016708,52.236 112.024708,34.2043 108.596708,26.3097 C108.201708,25.3918 109.462708,24.6831 110.037708,25.5022 C115.625708,33.4375 128.951708,52.8576 137.572708,64.8768 C137.719708,65.0859 137.865708,65.295 138.008708,65.5042 C138.281708,65.905 138.844708,65.9805 139.222708,65.6726 C139.553708,65.4054 139.629708,64.9349 139.396708,64.5805 L138.229708,62.7506 L139.571708,59.3522 L144.555708,58.8933 C144.555708,58.8933 143.434708,60.0145 143.445708,61.4436 C143.451708,62.344 144.003708,63.1689 144.799708,63.5813 C145.804708,64.1042 147.378708,65.3067 144.096708,66.6834 C143.318708,67.0088 142.574708,67.4212 141.923708,67.9498 C141.916708,67.9537 141.910708,67.9576 141.906708,67.9615 C140.976708,68.7225 140.715708,70.0353 141.226708,71.1216 C141.621708,71.9659 141.987708,72.8237 142.324708,73.6951 C145.862708,82.9085 153.623708,103.409 157.672708,116.276 C158.038708,117.438 156.435708,118.159 155.807708,117.107 Z" id="Path" fill="#E44F22"></path>
            <path d="M110.037708,25.5022 C110.687708,26.4258 111.396708,27.4308 112.151708,28.5055 L110.403708,30.4632 C109.758708,28.9877 109.154708,27.5877 108.596708,26.3097 C108.201708,25.3918 109.462708,24.6831 110.037708,25.5022 Z" id="Path" fill="#011721"></path>
            <path d="M157.672708,116.276 C158.038708,117.438 156.435708,118.158 155.807708,117.107 C155.110708,115.933 154.343708,114.632 153.536708,113.249 L156.133708,111.542 C156.684708,113.203 157.202708,114.789 157.672708,116.276 Z" id="Path" fill="#011721"></path>
            <path d="M141.203708,71.0517 L134.761708,70.3371 L137.822708,65.2425 C137.886708,65.3296 137.950708,65.4168 138.008708,65.5039 C138.281708,65.9047 138.844708,65.9803 139.222708,65.6724 C139.553708,65.4052 139.629708,64.9346 139.396708,64.5803 L138.229708,62.7504 L139.571708,59.352 L144.555708,58.8931 C144.555708,58.8931 143.434708,60.0142 143.445708,61.4433 C143.451708,62.3437 144.003708,63.1686 144.799708,63.5811 C145.804708,64.1039 147.378708,65.3064 144.096708,66.6832 C143.318708,67.0085 142.574708,67.4209 141.923708,67.9496 C141.916708,67.9535 141.910708,67.9573 141.906708,67.9612 C140.994708,68.7048 140.732708,69.977 141.203708,71.0517 Z" id="Path" fill="#FFFFFF"></path>
            <path d="M129.004708,70.2959 C130.224708,76.2155 132.739708,89.6521 133.349708,102.246 L119.697708,83.2097 L124.310708,72.2362 C126.000708,68.2046 125.977708,63.6618 124.234708,59.6535 C121.527708,53.4203 114.760708,39.7106 110.629708,30.7993 C112.209708,33.1753 121.858708,47.9887 127.063708,63.139 C127.865708,65.4801 128.504708,67.8735 129.004708,70.2959 Z" id="Path" fill="#C6370C"></path>
            <path d="M138.775708,93.5732 C138.775708,93.5732 132.559708,110.78 128.231708,130.874 L106.110708,130.874 L83.989108,130.874 C79.661308,110.78 73.445508,93.5732 73.445508,93.5732 L106.110708,42.772 L138.775708,93.5732 Z" id="Path" fill="#FFFFFF"></path>
            <path d="M130.078708,140.849 L82.141808,140.849 C79.388308,140.849 77.157508,138.618 77.157508,135.859 C77.157508,133.105 79.388308,130.875 82.141808,130.875 L130.078708,130.875 C132.832708,130.875 135.069708,133.105 135.069708,135.859 C135.069708,138.618 132.832708,140.849 130.078708,140.849 Z" id="Path" fill="#D0461D"></path>
            <polygon id="Path" fill="#D0461D" points="129.782708 164.573 82.443908 164.573 82.443908 140.849 129.782708 140.849"></polygon>
            <polygon id="Path" fill="#B73109" points="106.110708 164.573 82.443908 164.573 82.443908 140.849 106.110708 140.849"></polygon>
            <path d="M106.110708,140.849 L82.217308,140.849 C79.423108,140.849 77.157508,138.618 77.157508,135.859 C77.157508,133.105 79.423108,130.875 82.217308,130.875 L106.110708,130.875 L106.110708,140.849 Z" id="Path" fill="#B73109"></path>
            <path d="M106.110708,42.772 L106.110708,130.874 L83.989108,130.874 C79.661308,110.78 73.445508,93.5732 73.445508,93.5732 L106.110708,42.772 Z" id="Path" fill="#FFDEDE"></path>
            <path d="M106.650708,43.6143 L106.650708,101.003 C108.317708,101.265 109.589708,102.699 109.589708,104.436 C109.589708,106.353 108.033708,107.91 106.110708,107.91 C104.193708,107.91 102.636708,106.353 102.636708,104.436 C102.636708,102.699 103.908708,101.265 105.570708,101.003 L105.570708,43.6143 L106.110708,42.772 L106.650708,43.6143 Z" id="Path" fill="#FFA58A"></path>
            <g id="Group" opacity="0.3" style="mix-blend-mode: multiply;" transform="translate(82.263708, 141.058000)" fill="#B73109">
                <g style="mix-blend-mode: multiply;" id="Path">
                    <polygon points="47.519 2.12 1.42108547e-14 2.12 1.42108547e-14 0 47.519 0"></polygon>
                </g>
            </g>
            <path d="M76.472008,138.345 C75.920108,140.808 75.565708,144.015 71.011308,150.109 L70.354908,144.48 L72.027908,138.397 L69.204708,133.268 C68.803908,132.298 68.199708,133.175 68.199708,134.354 L68.199708,145.56 L59.340708,145.56 L50.481708,145.56 L50.702508,134.279 C50.702508,133.094 49.912408,133.396 49.529008,134.656 L47.263408,139.548 L48.326508,144.48 L47.670108,150.109 C42.860108,143.672 43.226008,140.448 42.250108,138.148 C41.901608,137.317 42.279208,136.498 42.732308,135.714 C45.485808,130.915 46.932308,127.43 49.749808,125.408 C51.016208,124.502 53.612908,123.932 56.523308,123.706 C56.993808,123.665 57.359808,123.27 57.359808,122.8 L57.359808,121.771 L61.315808,121.771 L61.315808,122.776 C61.315808,123.259 61.687608,123.648 62.164008,123.683 C65.109208,123.898 68.037008,124.601 68.914208,125.396 C72.446208,128.597 73.584808,130.874 76.094408,135.516 C76.489408,136.254 76.657908,137.526 76.472008,138.345 Z" id="Path" fill="#FFFFFF"></path>
            <path d="M48.512408,164.574 L45.305808,164.574 C43.981308,164.574 42.761308,163.865 42.221108,162.756 C42.209508,162.732 42.197808,162.709 42.186208,162.686 C41.884108,162.041 42.418608,161.327 43.185408,161.327 L48.512408,161.327 L48.512408,164.574 Z" id="Path" fill="#FFFFFF"></path>
            <path d="M68.083608,145.647 C68.083608,145.647 78.383208,147.704 85.249708,150.26 C87.974208,151.277 89.153508,154.228 87.776708,156.615 C86.016508,159.665 82.118508,163.336 73.497708,164.574 L48.512408,164.574 L48.512408,161.326 L68.083608,145.647 Z" id="Path" fill="#011721"></path>
            <path d="M48.512408,161.326 C48.512408,161.326 63.151608,152.444 80.143408,154.837 C80.143408,154.837 58.440308,155.999 48.512408,162.947 L48.512408,161.326 Z" id="Path" fill="#05293C"></path>
            <path d="M58.846908,153.432 L55.483408,156.011 L69.431208,161.326 L69.431208,164.574 L48.512408,164.574 C40.309808,162.209 32.908908,161.704 30.167008,156.615 C28.859908,154.187 29.975308,151.271 32.705608,150.26 C39.595308,147.704 49.970508,145.647 49.970508,145.647 L58.846908,153.432 Z" id="Path" fill="#011721"></path>
            <path d="M69.431308,151.648 C72.765708,152.27 80.143408,154.838 80.143408,154.838 C70.215508,153.908 58.974708,156.859 58.974708,156.859 L56.587208,156.952 C50.876708,154.472 37.800308,154.838 37.800308,154.838 L45.305708,152.026 L69.431308,151.648 Z" id="Path" fill="#000B0F"></path>
            <path d="M88.235508,155.442 C88.142608,155.837 87.997408,156.232 87.776608,156.615 C86.016408,159.665 82.118508,163.337 73.497708,164.574 L69.431208,164.574 L69.431208,161.327 L66.991408,160.397 L67.159908,160.112 C67.159908,160.112 82.885308,162.558 88.235508,155.442 Z" id="Path" fill="#000B0F"></path>
            <path d="M69.431308,161.327 L74.758308,161.327 C75.525108,161.327 76.059508,162.041 75.757508,162.686 C75.745808,162.709 75.736208,162.732 75.728408,162.756 C75.182408,163.865 73.968208,164.574 72.637908,164.574 L69.431308,164.574 L69.431308,161.327 Z" id="Path" fill="#FFFFFF"></path>
            <path d="M69.431308,162.947 C59.503408,155.999 37.800308,154.837 37.800308,154.837 C54.792108,152.444 69.431308,161.326 69.431308,161.326 L69.431308,162.947 Z" id="Path" fill="#05293C"></path>
            <path d="M69.431208,164.573 L48.512408,164.573 C40.309808,162.209 32.908908,161.704 30.167008,156.615 C30.045008,156.383 29.946208,156.144 29.864908,155.9 C40.728108,163.377 69.431208,163.667 69.431208,163.667 L69.431208,164.573 Z" id="Path" fill="#000B0F"></path>
            <path d="M72.812208,155.111 L45.869208,155.111 L43.057608,138.642 C42.883308,137.637 43.661708,136.719 44.678308,136.719 L73.997208,136.719 C75.019708,136.719 75.792308,137.637 75.623808,138.642 L72.812208,155.111 Z" id="Path" fill="#B22E28"></path>
            <path d="M62.843708,118.873 C63.238708,119.076 62.582208,120.604 62.233708,121.243 C61.484308,122.619 60.177308,123.653 59.317508,123.653 C58.353208,123.653 57.110008,122.654 56.395508,121.318 C56.046908,120.656 55.245308,119.477 55.826208,119.169 C57.812908,118.112 57.388808,115.085 59.317508,115.085 C61.246108,115.085 60.827908,117.856 62.843708,118.873 Z" id="Path" fill="#FFFFFF"></path>
            <path d="M61.269408,145.915 C61.269408,146.786 60.403808,147.495 59.340808,147.495 C58.271908,147.495 57.412108,146.786 57.412108,145.915 C57.412108,145.038 58.271908,144.329 59.340808,144.329 C60.403808,144.329 61.269408,145.038 61.269408,145.915 Z" id="Path" fill="#DB4D42"></path>
            <path d="M60.200508,115.085 C60.200508,117.252 58.440308,119.006 56.279308,119.006 C54.112508,119.006 52.358108,117.252 52.358108,115.085 C52.358108,112.924 54.112508,111.17 56.279308,111.17 C58.440308,111.17 60.200508,112.924 60.200508,115.085 Z" id="Path" fill="#000B0F"></path>
            <path d="M64.075208,115.94 C64.075208,117.142 63.105108,118.112 61.902608,118.112 C60.705908,118.112 59.730008,117.142 59.730008,115.94 C59.730008,114.743 60.705908,113.767 61.902608,113.767 C63.105108,113.767 64.075208,114.743 64.075208,115.94 Z" id="Path" fill="#000B0F"></path>
            <path d="M65.480908,117.705 C65.480908,118.907 64.505008,119.883 63.308308,119.883 C62.105808,119.883 61.135708,118.907 61.135708,117.705 C61.135708,116.508 62.105808,115.532 63.308308,115.532 C64.505008,115.532 65.480908,116.508 65.480908,117.705 Z" id="Path" fill="#000B0F"></path>
            <path d="M65.480908,115.086 C65.480908,116.288 64.505008,117.258 63.308308,117.258 C62.105808,117.258 61.135708,116.288 61.135708,115.086 C61.135708,113.889 62.105808,112.913 63.308308,112.913 C64.505008,112.913 65.480908,113.889 65.480908,115.086 Z" id="Path" fill="#000B0F"></path>
            <path d="M64.812908,112.367 C64.812908,113.389 63.982208,114.214 62.965608,114.214 C61.949008,114.214 61.118308,113.389 61.118308,112.367 C61.118308,111.35 61.949008,110.525 62.965608,110.525 C63.982208,110.525 64.812908,111.35 64.812908,112.367 Z" id="Path" fill="#000B0F"></path>
            <path d="M62.820408,111.286 C62.820408,113.273 61.205408,114.882 59.218708,114.882 C57.231908,114.882 55.622808,113.273 55.622808,111.286 C55.622808,109.3 57.231908,107.685 59.218708,107.685 C61.205408,107.685 62.820408,109.3 62.820408,111.286 Z" id="Path" fill="#000B0F"></path>
            <path d="M56.279208,119.007 C56.279208,119.721 55.698308,120.308 54.978008,120.308 C54.263508,120.308 53.682508,119.721 53.682508,119.007 C53.682508,118.292 54.263508,117.706 54.978008,117.706 C55.698308,117.706 56.279208,118.292 56.279208,119.007 Z" id="Path" fill="#000B0F"></path>
            <path d="M56.279208,111.071 C56.279208,111.786 55.698308,112.367 54.978008,112.367 C54.263508,112.367 53.682508,111.786 53.682508,111.071 C53.682508,110.351 54.263508,109.77 54.978008,109.77 C55.698308,109.77 56.279208,110.351 56.279208,111.071 Z" id="Path" fill="#000B0F"></path>
            <path d="M108.166708,40.2454 C108.166708,41.384 107.248708,42.3019 106.110708,42.3019 C104.977708,42.3019 104.053708,41.384 104.053708,40.2454 C104.053708,39.1126 104.977708,38.189 106.110708,38.189 C107.248708,38.189 108.166708,39.1126 108.166708,40.2454 Z" id="Path" fill="#B97B7B"></path>
            <path d="M182.680708,40.2454 C182.680708,41.384 181.757708,42.3019 180.624708,42.3019 C179.485708,42.3019 178.568708,41.384 178.568708,40.2454 C178.568708,39.1126 179.485708,38.189 180.624708,38.189 C181.757708,38.189 182.680708,39.1126 182.680708,40.2454 Z" id="Path" fill="#B97B7B"></path>
            <path d="M159.781708,92.2903 C159.781708,93.4289 158.863708,94.3526 157.724708,94.3526 C156.586708,94.3526 155.668708,93.4289 155.668708,92.2903 C155.668708,91.1576 156.586708,90.2339 157.724708,90.2339 C158.863708,90.2339 159.781708,91.1576 159.781708,92.2903 Z" id="Path" fill="#B97B7B"></path>
            <path d="M56.558208,92.2903 C56.558208,93.4289 55.634508,94.3526 54.501708,94.3526 C53.363108,94.3526 52.439408,93.4289 52.439408,92.2903 C52.439408,91.1576 53.363108,90.2339 54.501708,90.2339 C55.634508,90.2339 56.558208,91.1576 56.558208,92.2903 Z" id="Path" fill="#B97B7B"></path>
            <path d="M33.658408,40.2454 C33.658408,41.384 32.734708,42.3019 31.601908,42.3019 C30.463308,42.3019 29.545508,41.384 29.545508,40.2454 C29.545508,39.1126 30.463308,38.189 31.601908,38.189 C32.734708,38.189 33.658408,39.1126 33.658408,40.2454 Z" id="Path" fill="#B97B7B"></path>
            <path d="M115.195708,9.07974 C115.195708,14.0931 111.129708,18.1595 106.110708,18.1595 C101.096708,18.1595 97.030808,14.0931 97.030808,9.07974 C97.030808,4.06642 101.096708,0 106.110708,0 C111.129708,0 115.195708,4.06642 115.195708,9.07974 Z" id="Path" fill="#011721"></path>
            <path d="M103.245708,4.94473 L103.245708,4.94478 C103.077708,5.83928 103.313708,6.73759 103.896708,7.41095 L103.245708,4.94473 Z M103.245708,4.94473 C103.459708,3.81093 104.357708,2.88992 105.479708,2.65409 M103.245708,4.94473 L105.479708,2.65409 M105.479708,2.65409 C105.690708,2.61277 105.898708,2.59219 106.104708,2.59219 C106.778708,2.59219 107.424708,2.81689 107.952708,3.24382 C108.637708,3.79994 109.030708,4.62531 109.030708,5.50716 C109.030708,6.25425 108.750708,6.96172 108.239708,7.50672 C107.638708,8.14298 107.317708,9.01066 107.317708,9.95118 C107.317708,10.0179 107.263708,10.0719 107.196708,10.0719 L105.029708,10.0719 C104.962708,10.0719 104.908708,10.0179 104.908708,9.95118 C104.908708,9.05265 104.555708,8.17025 103.896708,7.41097 L105.479708,2.65409 Z M103.524708,7.7332 L103.525708,7.73361 C104.110708,8.40963 104.418708,9.17712 104.418708,9.95118 C104.418708,10.2845 104.689708,10.5624 105.029708,10.5624 L107.196708,10.5624 C107.531708,10.5624 107.807708,10.2845 107.807708,9.94537 C107.807708,9.12588 108.090708,8.37858 108.593708,7.84129 C109.192708,7.20701 109.521708,6.38084 109.521708,5.50716 C109.521708,4.47765 109.060708,3.51396 108.258708,2.86192 C107.456708,2.2094 106.403708,1.95834 105.380708,2.17357 C104.063708,2.44909 103.010708,3.5261 102.764708,4.8497 C102.567708,5.89001 102.848708,6.94318 103.524708,7.7332 Z" id="Shape" stroke="#FFFFFF" stroke-width="0.2" fill="#FFFFFF"></path>
            <path d="M104.989708,12.7787 L107.231708,12.7787 C107.646708,12.7787 107.982708,12.4435 107.982708,12.0281 C107.982708,11.6127 107.646708,11.2774 107.231708,11.2774 L104.989708,11.2774 C104.573708,11.2774 104.238708,11.6127 104.238708,12.0281 C104.238708,12.4435 104.573708,12.7787 104.989708,12.7787 Z M104.728708,12.0281 C104.728708,11.8858 104.846708,11.7679 104.989708,11.7679 L107.231708,11.7679 C107.373708,11.7679 107.491708,11.8858 107.491708,12.0281 C107.491708,12.1704 107.373708,12.2882 107.231708,12.2882 L104.989708,12.2882 C104.846708,12.2882 104.728708,12.1704 104.728708,12.0281 Z" id="Shape" stroke="#FFFFFF" stroke-width="0.2" fill="#FFFFFF"></path>
            <path d="M104.989708,14.9887 L107.231708,14.9887 C107.646708,14.9887 107.982708,14.6535 107.982708,14.2381 C107.982708,13.8279 107.646708,13.4933 107.231708,13.4933 L104.989708,13.4933 C104.574708,13.4933 104.238708,13.8279 104.238708,14.2381 C104.238708,14.6535 104.573708,14.9887 104.989708,14.9887 Z M104.728708,14.2381 C104.728708,14.0979 104.844708,13.9837 104.989708,13.9837 L107.231708,13.9837 C107.375708,13.9837 107.491708,14.0979 107.491708,14.2381 C107.491708,14.3851 107.374708,14.4983 107.231708,14.4983 L104.989708,14.4983 C104.845708,14.4983 104.728708,14.3851 104.728708,14.2381 Z" id="Shape" stroke="#FFFFFF" stroke-width="0.2" fill="#FFFFFF"></path>
            <path d="M69.384808,26.548 C69.384808,31.5671 65.318408,35.6278 60.305108,35.6278 C55.286008,35.6278 51.219508,31.5671 51.219508,26.548 C51.219508,21.5347 55.286008,17.4683 60.305108,17.4683 C65.318408,17.4683 69.384808,21.5347 69.384808,26.548 Z" id="Path" fill="#011721"></path>
            <path d="M54.049708,27.9719 L54.049608,27.9719 L54.051208,27.9763 C55.025008,30.4985 57.396108,32.1285 60.094508,32.1285 C63.330208,32.1285 66.090208,29.7057 66.513108,26.4986 L66.522408,26.4286 L66.530308,26.3699 L66.482508,26.3348 L63.184808,23.9118 L63.131108,23.8723 L63.074108,23.9066 L61.123508,25.0788 L58.882008,22.9331 L58.810008,22.8642 L58.740808,22.936 L54.049208,27.8007 L54.007108,27.8443 L54.026308,27.9017 L54.049708,27.9719 Z M61.007708,25.5661 L61.062808,25.6189 L61.128208,25.5796 L63.105908,24.393 L66.063008,26.5678 C65.614308,29.497 63.074408,31.6946 60.094508,31.6946 C57.621808,31.6946 55.448208,30.2298 54.509508,27.9443 L58.824908,23.4785 L61.007708,25.5661 Z" id="Shape" stroke="#FFFFFF" stroke-width="0.2" fill="#FFFFFF"></path>
            <path d="M60.364008,21.3306 C60.364008,21.9565 60.871808,22.4644 61.497708,22.4644 C62.123608,22.4644 62.631508,21.9565 62.631508,21.3306 C62.631508,20.7097 62.123908,20.1969 61.497708,20.1969 C60.871508,20.1969 60.364008,20.7097 60.364008,21.3306 Z M60.797908,21.3306 C60.797908,20.9462 61.113308,20.6308 61.497708,20.6308 C61.882208,20.6308 62.197608,20.9462 62.197608,21.3306 C62.197608,21.7194 61.882608,22.0305 61.497708,22.0305 C61.112908,22.0305 60.797908,21.7194 60.797908,21.3306 Z" id="Shape" stroke="#FFFFFF" stroke-width="0.2" fill="#FFFFFF"></path>
            <path d="M158.183708,26.548 C158.183708,31.5671 154.117708,35.6278 149.098708,35.6278 C144.084708,35.6278 140.018708,31.5671 140.018708,26.548 C140.018708,21.5347 144.084708,17.4683 149.098708,17.4683 C154.117708,17.4683 158.183708,21.5347 158.183708,26.548 Z" id="Path" fill="#011721"></path>
            <path d="M144.561708,22.39 L153.641708,22.39 C153.777708,22.39 153.886708,22.2813 153.886708,22.1447 C153.886708,22.0082 153.777708,21.8995 153.641708,21.8995 L144.561708,21.8995 C144.424708,21.8995 144.316708,22.0082 144.316708,22.1447 C144.316708,22.2813 144.424708,22.39 144.561708,22.39 Z" id="Path" stroke="#FFFFFF" stroke-width="0.2" fill="#FFFFFF"></path>
            <path d="M144.561708,24.1497 L147.332708,24.1497 C147.460708,24.1497 147.577708,24.0436 147.577708,23.9045 C147.577708,23.8361 147.546708,23.7753 147.503708,23.7329 C147.461708,23.6904 147.400708,23.6593 147.332708,23.6593 L144.561708,23.6593 C144.422708,23.6593 144.316708,23.7764 144.316708,23.9045 C144.316708,24.0411 144.424708,24.1497 144.561708,24.1497 Z" id="Path" stroke="#FFFFFF" stroke-width="0.2" fill="#FFFFFF"></path>
            <path d="M148.209708,24.1497 L150.980708,24.1497 C151.116708,24.1497 151.225708,24.0411 151.225708,23.9045 C151.225708,23.7764 151.119708,23.6593 150.980708,23.6593 L148.209708,23.6593 C148.070708,23.6593 147.964708,23.7764 147.964708,23.9045 C147.964708,24.0411 148.072708,24.1497 148.209708,24.1497 Z" id="Path" stroke="#FFFFFF" stroke-width="0.2" fill="#FFFFFF"></path>
            <path d="M144.561708,25.9158 L145.943708,25.9158 C146.082708,25.9158 146.189708,25.7988 146.189708,25.6706 C146.189708,25.5341 146.080708,25.4254 145.943708,25.4254 L144.561708,25.4254 C144.424708,25.4254 144.316708,25.5341 144.316708,25.6706 C144.316708,25.7988 144.422708,25.9158 144.561708,25.9158 Z" id="Path" stroke="#FFFFFF" stroke-width="0.2" fill="#FFFFFF"></path>
            <path d="M147.332708,25.9158 L148.714708,25.9158 C148.853708,25.9158 148.960708,25.7988 148.960708,25.6706 C148.960708,25.5341 148.851708,25.4254 148.714708,25.4254 L147.332708,25.4254 C147.195708,25.4254 147.086708,25.5341 147.086708,25.6706 C147.086708,25.7988 147.193708,25.9158 147.332708,25.9158 Z" id="Path" stroke="#FFFFFF" stroke-width="0.2" fill="#FFFFFF"></path>
            <path d="M144.561708,27.6761 L151.328708,27.6761 C151.465708,27.6761 151.574708,27.5674 151.574708,27.4309 C151.574708,27.2943 151.465708,27.1856 151.328708,27.1856 L144.561708,27.1856 C144.424708,27.1856 144.316708,27.2943 144.316708,27.4309 C144.316708,27.5674 144.424708,27.6761 144.561708,27.6761 Z" id="Path" stroke="#FFFFFF" stroke-width="0.2" fill="#FFFFFF"></path>
            <path d="M144.561708,29.4354 L153.641708,29.4354 C153.777708,29.4354 153.886708,29.3267 153.886708,29.1902 C153.886708,29.0536 153.777708,28.9449 153.641708,28.9449 L144.561708,28.9449 C144.424708,28.9449 144.316708,29.0536 144.316708,29.1902 C144.316708,29.3267 144.424708,29.4354 144.561708,29.4354 Z" id="Path" stroke="#FFFFFF" stroke-width="0.2" fill="#FFFFFF"></path>
            <path d="M144.561708,31.1971 L150.265708,31.1971 C150.402708,31.1971 150.511708,31.0884 150.511708,30.9519 C150.511708,30.8153 150.402708,30.7066 150.265708,30.7066 L144.561708,30.7066 C144.424708,30.7066 144.316708,30.8153 144.316708,30.9519 C144.316708,31.0884 144.424708,31.1971 144.561708,31.1971 Z" id="Path" stroke="#FFFFFF" stroke-width="0.2" fill="#FFFFFF"></path>
            <path d="M37.440108,57.3825 C37.440108,62.3958 33.373708,66.4622 28.360408,66.4622 C23.347108,66.4622 19.280608,62.3958 19.280608,57.3825 C19.280608,52.3692 23.347108,48.3027 28.360408,48.3027 C33.373708,48.3027 37.440108,52.3692 37.440108,57.3825 Z" id="Path" fill="#011721"></path>
            <path d="M27.634308,55.9199 L33.571308,55.9199 C33.683608,55.9199 33.787508,55.8352 33.787508,55.7095 C33.787508,55.5838 33.683608,55.4991 33.571308,55.4991 L27.634308,55.4991 C27.515208,55.4991 27.423908,55.5904 27.423908,55.7095 C27.423908,55.8286 27.515208,55.9199 27.634308,55.9199 Z" id="Path" stroke="#FFFFFF" stroke-width="0.2" fill="#FFFFFF"></path>
            <path d="M23.149708,57.935 L33.571308,57.935 C33.683608,57.935 33.787508,57.8504 33.787508,57.7246 C33.787508,57.608 33.687108,57.5143 33.571308,57.5143 L23.149708,57.5143 C23.027108,57.5143 22.939308,57.6148 22.939308,57.7246 C22.939308,57.8438 23.030508,57.935 23.149708,57.935 Z" id="Path" stroke="#FFFFFF" stroke-width="0.2" fill="#FFFFFF"></path>
            <path d="M23.149708,59.956 L33.571308,59.956 C33.687108,59.956 33.787508,59.8622 33.787508,59.7456 C33.787508,59.6199 33.683608,59.5353 33.571308,59.5353 L23.149708,59.5353 C23.030508,59.5353 22.939308,59.6265 22.939308,59.7456 C22.939308,59.8555 23.027108,59.956 23.149708,59.956 Z" id="Path" stroke="#FFFFFF" stroke-width="0.2" fill="#FFFFFF"></path>
            <path d="M23.149708,61.9721 L33.571308,61.9721 C33.683608,61.9721 33.787508,61.8875 33.787508,61.7618 C33.787508,61.6452 33.687108,61.5514 33.571308,61.5514 L23.149708,61.5514 C23.027108,61.5514 22.939308,61.6519 22.939308,61.7618 C22.939308,61.8809 23.030508,61.9721 23.149708,61.9721 Z" id="Path" stroke="#FFFFFF" stroke-width="0.2" fill="#FFFFFF"></path>
            <path d="M23.829308,56.7797 L23.900408,56.7797 L23.923708,56.7126 L24.208208,55.8967 L25.535908,55.8967 L25.820408,56.7126 L25.843808,56.7797 L25.914808,56.7797 L26.600308,56.7797 L26.745108,56.7797 L26.693808,56.6442 L25.259008,52.8567 L25.234508,52.7921 L25.165408,52.7921 L24.578708,52.7921 L24.509608,52.7921 L24.485108,52.8568 L23.056108,56.6444 L23.005008,56.7797 L23.149708,56.7797 L23.829308,56.7797 Z M24.464308,55.1622 L24.874508,53.9965 L25.280308,55.1622 L24.464308,55.1622 Z" id="Shape" stroke="#FFFFFF" stroke-width="0.2" fill="#FFFFFF"></path>
            <path d="M190.122708,57.3825 C190.122708,62.3958 186.056708,66.4622 181.042708,66.4622 C176.029708,66.4622 171.963708,62.3958 171.963708,57.3825 C171.963708,52.3692 176.029708,48.3027 181.042708,48.3027 C186.056708,48.3027 190.122708,52.3692 190.122708,57.3825 Z" id="Path" fill="#011721"></path>
            <path d="M178.882708,53.6111 L178.882708,53.611 L178.879708,53.6075 C178.785708,53.5229 178.631708,53.5178 178.538708,53.6111 L175.691708,56.4576 C175.100708,57.0485 175.100708,58.0122 175.691708,58.6032 L178.241708,61.1534 C178.292708,61.2045 178.355708,61.2234 178.417708,61.2234 C178.466708,61.2234 178.540708,61.208 178.590708,61.1497 C178.683708,61.0523 178.682708,60.8988 178.586708,60.8028 L176.036708,58.2526 C175.640708,57.8563 175.639708,57.205 176.036708,56.8021 C176.036708,56.802 176.036708,56.8019 176.036708,56.8018 L178.882708,53.9617 L178.882708,53.9616 C178.980708,53.8645 178.980708,53.7082 178.882708,53.6111 Z" id="Path" stroke="#FFFFFF" stroke-width="0.2" fill="#FFFFFF"></path>
            <path d="M183.202708,53.9616 L183.202708,53.9617 L186.048708,56.8018 C186.048708,56.8019 186.049708,56.802 186.049708,56.8021 C186.446708,57.205 186.445708,57.8563 186.049708,58.2526 L183.499708,60.8028 C183.403708,60.8988 183.402708,61.0523 183.495708,61.1497 C183.545708,61.208 183.619708,61.2234 183.668708,61.2234 C183.730708,61.2234 183.792708,61.2045 183.843708,61.1534 L186.394708,58.6032 C186.985708,58.0122 186.985708,57.0485 186.394708,56.4576 L183.547708,53.6111 C183.454708,53.5178 183.300708,53.5229 183.206708,53.6075 L183.206708,53.6074 L183.202708,53.6111 C183.105708,53.7082 183.105708,53.8645 183.202708,53.9616 Z" id="Path" stroke="#FFFFFF" stroke-width="0.2" fill="#FFFFFF"></path>
            <path d="M179.754708,62.481 L179.765708,62.4836 L179.776708,62.4836 L179.776708,62.4836 L179.776708,62.4836 L179.776708,62.4836 L179.776708,62.4836 L179.776708,62.4836 L179.776708,62.4836 L179.776708,62.4836 L179.777708,62.4836 L179.777708,62.4836 L179.777708,62.4836 L179.777708,62.4836 L179.777708,62.4836 L179.777708,62.4836 L179.777708,62.4836 L179.777708,62.4836 L179.777708,62.4836 L179.777708,62.4836 L179.777708,62.4836 L179.777708,62.4836 L179.777708,62.4836 L179.777708,62.4836 L179.777708,62.4836 L179.778708,62.4836 L179.778708,62.4836 L179.778708,62.4836 L179.778708,62.4836 L179.778708,62.4836 L179.778708,62.4836 L179.778708,62.4836 L179.778708,62.4836 L179.778708,62.4836 L179.778708,62.4836 L179.778708,62.4836 L179.778708,62.4836 L179.778708,62.4836 L179.778708,62.4836 L179.779708,62.4836 L179.779708,62.4836 L179.779708,62.4836 L179.779708,62.4836 L179.779708,62.4836 L179.779708,62.4836 L179.779708,62.4836 L179.779708,62.4836 L179.779708,62.4836 L179.779708,62.4836 L179.779708,62.4836 L179.779708,62.4836 L179.779708,62.4836 L179.779708,62.4836 L179.779708,62.4836 L179.780708,62.4836 L179.780708,62.4836 L179.780708,62.4836 L179.780708,62.4836 L179.780708,62.4836 L179.780708,62.4836 L179.780708,62.4836 L179.780708,62.4836 L179.780708,62.4836 L179.780708,62.4836 L179.780708,62.4836 L179.780708,62.4836 L179.780708,62.4836 L179.780708,62.4836 L179.780708,62.4836 L179.781708,62.4836 L179.781708,62.4836 L179.781708,62.4836 L179.781708,62.4836 L179.781708,62.4836 L179.781708,62.4836 L179.781708,62.4836 L179.781708,62.4836 L179.781708,62.4836 L179.781708,62.4836 L179.781708,62.4836 L179.781708,62.4836 L179.781708,62.4836 L179.781708,62.4836 L179.782708,62.4836 L179.782708,62.4836 L179.782708,62.4836 L179.782708,62.4836 L179.782708,62.4836 L179.782708,62.4836 L179.782708,62.4836 L179.782708,62.4836 L179.782708,62.4836 L179.782708,62.4836 L179.782708,62.4836 L179.782708,62.4836 L179.782708,62.4836 L179.782708,62.4836 L179.782708,62.4836 L179.783708,62.4836 L179.783708,62.4836 L179.783708,62.4836 L179.783708,62.4836 L179.783708,62.4836 L179.783708,62.4836 L179.783708,62.4836 L179.783708,62.4836 L179.783708,62.4836 L179.783708,62.4836 L179.783708,62.4836 L179.783708,62.4836 L179.783708,62.4836 L179.783708,62.4836 L179.783708,62.4836 L179.784708,62.4836 L179.784708,62.4836 L179.784708,62.4836 L179.784708,62.4836 L179.784708,62.4836 L179.784708,62.4836 L179.784708,62.4836 L179.784708,62.4836 L179.784708,62.4836 L179.784708,62.4836 L179.784708,62.4836 L179.784708,62.4836 L179.784708,62.4836 L179.784708,62.4836 L179.784708,62.4836 L179.785708,62.4836 L179.785708,62.4836 L179.785708,62.4836 L179.785708,62.4836 L179.785708,62.4836 L179.785708,62.4836 L179.785708,62.4836 L179.785708,62.4836 L179.785708,62.4836 L179.785708,62.4836 L179.785708,62.4836 L179.785708,62.4836 L179.785708,62.4836 L179.785708,62.4836 L179.786708,62.4836 L179.786708,62.4836 L179.786708,62.4836 L179.786708,62.4836 L179.786708,62.4836 L179.786708,62.4836 L179.786708,62.4836 L179.786708,62.4836 L179.786708,62.4836 L179.786708,62.4836 L179.786708,62.4836 L179.786708,62.4836 L179.786708,62.4836 L179.786708,62.4836 L179.786708,62.4836 L179.787708,62.4836 L179.787708,62.4836 L179.787708,62.4836 L179.787708,62.4836 L179.787708,62.4836 L179.787708,62.4836 L179.787708,62.4836 L179.787708,62.4836 L179.787708,62.4836 L179.787708,62.4836 L179.787708,62.4836 L179.787708,62.4836 L179.787708,62.4836 L179.787708,62.4836 L179.787708,62.4836 L179.788708,62.4836 L179.788708,62.4836 L179.788708,62.4836 L179.788708,62.4836 L179.788708,62.4836 L179.788708,62.4836 L179.788708,62.4836 L179.788708,62.4836 L179.788708,62.4836 L179.788708,62.4836 L179.788708,62.4836 L179.788708,62.4836 L179.788708,62.4836 L179.788708,62.4836 L179.789708,62.4836 L179.789708,62.4836 L179.789708,62.4836 L179.789708,62.4836 L179.789708,62.4836 L179.789708,62.4836 L179.789708,62.4836 L179.789708,62.4836 L179.789708,62.4836 L179.789708,62.4836 L179.789708,62.4836 L179.789708,62.4836 L179.789708,62.4836 L179.789708,62.4836 L179.789708,62.4836 L179.790708,62.4836 L179.790708,62.4836 L179.790708,62.4836 L179.790708,62.4836 L179.790708,62.4836 L179.790708,62.4836 L179.790708,62.4836 L179.790708,62.4836 L179.790708,62.4836 L179.790708,62.4836 L179.790708,62.4836 L179.790708,62.4836 L179.790708,62.4836 L179.790708,62.4836 L179.790708,62.4836 L179.791708,62.4836 L179.791708,62.4836 L179.791708,62.4836 L179.791708,62.4836 L179.791708,62.4836 L179.791708,62.4836 L179.791708,62.4836 L179.791708,62.4836 L179.791708,62.4836 L179.791708,62.4836 L179.791708,62.4836 L179.791708,62.4836 L179.791708,62.4836 L179.791708,62.4836 L179.792708,62.4836 L179.792708,62.4836 L179.792708,62.4836 L179.792708,62.4836 L179.792708,62.4836 L179.792708,62.4836 L179.792708,62.4836 L179.792708,62.4836 L179.792708,62.4836 L179.792708,62.4836 L179.792708,62.4836 L179.792708,62.4836 L179.792708,62.4836 L179.792708,62.4836 L179.792708,62.4836 L179.793708,62.4836 L179.793708,62.4836 L179.793708,62.4836 L179.793708,62.4836 L179.793708,62.4836 L179.793708,62.4836 L179.793708,62.4836 L179.793708,62.4836 L179.793708,62.4836 L179.793708,62.4836 L179.793708,62.4836 L179.793708,62.4836 L179.793708,62.4836 L179.793708,62.4836 L179.793708,62.4836 L179.794708,62.4836 L179.794708,62.4836 L179.794708,62.4836 L179.794708,62.4836 L179.794708,62.4836 L179.794708,62.4836 L179.794708,62.4836 L179.794708,62.4836 L179.794708,62.4836 L179.794708,62.4836 L179.794708,62.4836 L179.794708,62.4836 L179.794708,62.4836 L179.794708,62.4836 L179.795708,62.4836 L179.795708,62.4836 L179.795708,62.4836 L179.795708,62.4836 L179.795708,62.4836 L179.795708,62.4836 L179.795708,62.4836 L179.795708,62.4836 L179.795708,62.4836 L179.795708,62.4836 L179.795708,62.4836 L179.795708,62.4836 L179.795708,62.4836 L179.795708,62.4836 L179.795708,62.4836 L179.796708,62.4836 L179.796708,62.4836 L179.796708,62.4836 L179.796708,62.4836 L179.796708,62.4836 L179.796708,62.4836 L179.796708,62.4836 L179.796708,62.4836 L179.796708,62.4836 L179.796708,62.4836 L179.796708,62.4836 L179.796708,62.4836 L179.796708,62.4836 L179.796708,62.4836 L179.796708,62.4836 L179.797708,62.4836 L179.797708,62.4836 L179.797708,62.4836 L179.797708,62.4836 L179.797708,62.4836 L179.797708,62.4836 L179.797708,62.4836 L179.797708,62.4836 L179.797708,62.4836 L179.797708,62.4836 L179.797708,62.4836 L179.797708,62.4836 L179.797708,62.4836 L179.797708,62.4836 L179.798708,62.4836 L179.798708,62.4836 L179.798708,62.4836 L179.798708,62.4836 L179.798708,62.4836 L179.798708,62.4836 L179.798708,62.4836 L179.798708,62.4836 L179.798708,62.4836 L179.798708,62.4836 L179.798708,62.4836 L179.798708,62.4836 L179.798708,62.4836 L179.798708,62.4836 L179.798708,62.4836 L179.799708,62.4836 L179.799708,62.4836 L179.799708,62.4836 L179.799708,62.4836 L179.799708,62.4836 L179.799708,62.4836 L179.799708,62.4836 L179.799708,62.4836 L179.799708,62.4836 L179.799708,62.4836 L179.799708,62.4836 L179.799708,62.4836 L179.799708,62.4836 L179.799708,62.4836 L179.799708,62.4836 L179.800708,62.4836 L179.800708,62.4836 L179.800708,62.4836 L179.800708,62.4836 L179.800708,62.4836 L179.800708,62.4836 L179.800708,62.4836 L179.800708,62.4836 L179.800708,62.4836 L179.800708,62.4836 L179.800708,62.4836 L179.800708,62.4836 L179.800708,62.4836 L179.800708,62.4836 L179.801708,62.4836 L179.801708,62.4836 L179.801708,62.4836 L179.801708,62.4836 L179.801708,62.4836 L179.801708,62.4836 L179.801708,62.4836 L179.801708,62.4836 L179.801708,62.4836 L179.801708,62.4836 L179.801708,62.4836 L179.801708,62.4836 L179.801708,62.4836 L179.801708,62.4836 L179.801708,62.4836 L179.802708,62.4836 L179.802708,62.4836 L179.802708,62.4836 L179.802708,62.4836 L179.802708,62.4836 L179.802708,62.4836 L179.802708,62.4836 L179.802708,62.4836 L179.802708,62.4836 L179.802708,62.4836 L179.802708,62.4836 L179.802708,62.4836 L179.802708,62.4836 L179.802708,62.4836 L179.802708,62.4836 L179.803708,62.4836 L179.803708,62.4836 L179.803708,62.4836 L179.803708,62.4836 L179.803708,62.4836 L179.803708,62.4836 L179.803708,62.4836 L179.803708,62.4836 L179.803708,62.4836 L179.803708,62.4836 L179.803708,62.4836 L179.803708,62.4836 L179.803708,62.4836 L179.803708,62.4836 L179.803708,62.4836 L179.804708,62.4836 L179.804708,62.4836 L179.804708,62.4836 L179.804708,62.4836 L179.804708,62.4836 L179.804708,62.4836 L179.804708,62.4836 L179.804708,62.4836 L179.804708,62.4836 L179.804708,62.4836 L179.804708,62.4836 L179.804708,62.4836 L179.804708,62.4836 L179.804708,62.4836 L179.805708,62.4836 L179.805708,62.4836 L179.805708,62.4836 L179.805708,62.4836 L179.805708,62.4836 L179.805708,62.4836 L179.805708,62.4836 L179.805708,62.4836 L179.805708,62.4836 L179.805708,62.4836 L179.805708,62.4836 L179.805708,62.4836 L179.805708,62.4836 L179.805708,62.4836 L179.805708,62.4836 L179.806708,62.4836 L179.806708,62.4836 L179.806708,62.4836 L179.806708,62.4836 L179.806708,62.4836 L179.806708,62.4836 L179.806708,62.4836 L179.806708,62.4836 L179.806708,62.4836 L179.806708,62.4836 L179.806708,62.4836 L179.806708,62.4836 L179.806708,62.4836 L179.806708,62.4836 L179.806708,62.4836 L179.807708,62.4836 L179.807708,62.4836 L179.807708,62.4836 L179.807708,62.4836 L179.807708,62.4836 L179.807708,62.4836 L179.807708,62.4836 L179.807708,62.4836 L179.807708,62.4836 L179.807708,62.4836 L179.807708,62.4836 L179.807708,62.4836 L179.807708,62.4836 L179.807708,62.4836 L179.808708,62.4836 L179.808708,62.4836 L179.808708,62.4836 L179.808708,62.4836 L179.808708,62.4836 L179.808708,62.4836 L179.808708,62.4836 L179.808708,62.4836 L179.808708,62.4836 L179.808708,62.4836 L179.808708,62.4836 L179.808708,62.4836 L179.808708,62.4836 L179.808708,62.4836 L179.808708,62.4836 L179.809708,62.4836 L179.809708,62.4836 L179.809708,62.4836 L179.809708,62.4836 L179.809708,62.4836 L179.809708,62.4836 L179.809708,62.4836 L179.809708,62.4836 L179.809708,62.4836 L179.809708,62.4836 L179.809708,62.4836 L179.809708,62.4836 L179.809708,62.4836 L179.809708,62.4836 L179.809708,62.4836 L179.810708,62.4836 L179.810708,62.4836 L179.810708,62.4836 L179.810708,62.4836 L179.810708,62.4836 L179.810708,62.4836 L179.810708,62.4836 L179.810708,62.4836 L179.810708,62.4836 L179.810708,62.4836 L179.810708,62.4836 L179.810708,62.4836 L179.810708,62.4836 L179.810708,62.4836 L179.811708,62.4836 L179.811708,62.4836 L179.811708,62.4836 L179.811708,62.4836 L179.811708,62.4836 L179.811708,62.4836 C179.925708,62.4836 180.020708,62.4015 180.047708,62.2916 L180.047708,62.2916 L180.048708,62.2889 L182.191708,52.5769 C182.191708,52.5767 182.191708,52.5766 182.191708,52.5764 C182.221708,52.446 182.140708,52.3176 182.005708,52.2884 C181.875708,52.2587 181.746708,52.3405 181.717708,52.475 C181.717708,52.4751 181.717708,52.4753 181.717708,52.4754 L179.568708,62.1868 C179.568708,62.187 179.568708,62.1871 179.568708,62.1873 C179.538708,62.318 179.626708,62.4515 179.754708,62.481 Z" id="Path" stroke="#FFFFFF" stroke-width="0.2" fill="#FFFFFF"></path>
            <path d="M221.556708,164.719 L0.145229,164.719 C0.063901,164.719 0,164.649 0,164.574 C0,164.493 0.063901,164.429 0.145229,164.429 L221.556708,164.429 C221.637708,164.429 221.701708,164.493 221.701708,164.574 C221.701708,164.649 221.637708,164.719 221.556708,164.719 Z" id="Path" fill="#FFFFFF"></path>
        </g>
    </g>
</svg>