<?xml version="1.0" encoding="UTF-8"?>
<svg width="200px" height="169px" viewBox="0 0 200 169" version="1.1" xmlns="http://www.w3.org/2000/svg" xmlns:xlink="http://www.w3.org/1999/xlink">
    <title>_Group_ (1)</title>
    <g id="Page-1" stroke="none" stroke-width="1" fill="none" fill-rule="evenodd">
        <g id="_Group_-(1)" transform="translate(0.000000, 0.608887)">
            <path d="M161.343,149.975113 C159.967,131.418113 157.733,128.335113 157.733,128.335113 C166.882,125.547113 171.504,137.490113 171.504,137.490113 C179.778,125.025113 192.068,126.159113 192.068,126.159113 C190.15,127.292113 190.239,131.128113 190.239,131.128113 C191.894,127.292113 197.47,126.159113 197.47,126.159113 C202.614,138.185113 192.242,147.772113 192.242,147.772113 C197.997,143.155113 200,144.546113 200,144.546113 C199.178,152.694113 196.817,157.922113 193.86,161.237113 C186.434,169.554113 162.961,171.741113 161.343,149.975113 Z" id="Path" fill="#ED695F" fill-rule="nonzero"></path>
            <g id="Group" opacity="0.7" transform="translate(16.122042, 12.808834)" fill="#DD544A" fill-rule="nonzero">
                <path d="M153.526958,52.8107793 C161.842958,60.0309793 166.870958,71.4357793 167.481958,83.0723793 C167.898958,91.0412793 166.306958,99.0672793 163.186958,106.261279 C161.716958,109.655279 159.397958,112.628279 158.016958,115.985279 C156.577958,119.479279 155.881958,123.605279 155.860958,127.426279 C155.765958,148.681279 176.019958,154.341279 176.019958,154.341279 L5.55425848,154.341279 C1.00085848,144.950279 6.36595848,136.001279 12.1789585,129.292279 C15.1988585,125.808279 18.2081585,121.634279 18.0605585,116.828279 C17.9762585,113.987279 16.7851585,111.347279 15.6415585,108.801279 C8.34225848,92.5112793 1.95475848,75.2724793 0.294558484,57.0532793 C-0.743641516,45.6537793 0.858558484,33.5849793 6.76645848,24.1459793 C17.6283585,6.79107932 39.6052585,0.61967932 57.6663585,0.0346793196 C81.5720585,-0.74002068 103.601958,11.5342793 120.186958,29.8799793 C125.061958,35.2714793 130.547958,39.2978793 136.745958,42.6181793 C138.316958,43.4560793 139.902958,44.2729793 141.483958,45.1056793 C145.689958,47.3086793 149.852958,49.6275793 153.526958,52.8107793 Z" id="Path"></path>
            </g>
            <path d="M136.72,141.732113 L75.3378,141.732113 C71.7066,141.732113 68.75,138.776113 68.75,135.144113 L68.75,6.587783 C68.75,2.951323 71.7066,0 75.3378,0 L136.72,0 C140.351,0 143.308,2.951323 143.308,6.587783 L143.308,135.144113 C143.308,138.776113 140.351,141.732113 136.72,141.732113 Z M75.3378,0.527023 C71.9965,0.527023 69.277,3.246453 69.277,6.587783 L69.277,135.144113 C69.277,138.486113 71.9965,141.205113 75.3378,141.205113 L136.72,141.205113 C140.061,141.205113 142.781,138.486113 142.781,135.144113 L142.781,6.587783 C142.781,3.246453 140.061,0.527023 136.72,0.527023 L75.3378,0.527023 Z" id="Shape" fill="#FDAB92"></path>
            <path d="M106.026,8.305853 C104.456,8.305853 103.17,7.025183 103.17,5.449383 C103.17,3.873583 104.456,2.587643 106.026,2.587643 C107.602,2.587643 108.888,3.873583 108.888,5.449383 C108.888,7.025183 107.602,8.305853 106.026,8.305853 Z M106.026,3.114673 C104.746,3.114673 103.697,4.163443 103.697,5.449383 C103.697,6.735313 104.746,7.778823 106.026,7.778823 C107.312,7.778823 108.361,6.735313 108.361,5.449383 C108.361,4.163443 107.312,3.114673 106.026,3.114673 Z" id="Shape" fill="#FDAB92"></path>
            <path d="M136.531,138.549113 L75.5276,138.549113 C73.1033,138.549113 71.127,136.578113 71.127,134.154113 L71.127,7.910643 C71.127,5.301883 73.2509,3.177983 75.8596,3.177983 L98.0789,3.177983 C98.2265,3.177983 98.3424,3.293923 98.3424,3.441493 C98.3424,3.589053 98.2265,3.705003 98.0789,3.705003 L75.8596,3.705003 C73.5407,3.705003 71.654,5.591743 71.654,7.910643 L71.654,134.154113 C71.654,136.288113 73.3932,138.022113 75.5276,138.022113 L136.531,138.022113 C138.665,138.022113 140.404,136.288113 140.404,134.154113 L140.404,7.910643 C140.404,5.591743 138.517,3.705003 136.198,3.705003 L113.979,3.705003 C113.832,3.705003 113.716,3.589053 113.716,3.441493 C113.716,3.293923 113.832,3.177983 113.979,3.177983 L136.198,3.177983 C138.807,3.177983 140.931,5.301883 140.931,7.910643 L140.931,134.154113 C140.931,136.578113 138.955,138.549113 136.531,138.549113 Z" id="Path" fill="#FDAB92" fill-rule="nonzero"></path>
            <path d="M165.643,77.314313 C165.143,80.044313 165.127,82.832213 165.475,85.583313 C170.582,126.248113 165.143,163.725113 165.143,163.725113 L162.16,163.725113 C160.057,148.357113 157.843,107.665113 157.843,107.665113 C156.631,112.751113 147.951,125.463113 147.951,125.463113 C148.831,130.886113 151.319,155.872113 151.319,155.872113 L148.668,155.872113 C141.59,142.386113 139.545,123.476113 139.545,123.476113 C139.746,119.682113 143.809,109.979113 147.451,102.411113 C148.531,100.171113 149.611,97.541413 150.049,95.934013 C151.751,89.673013 148.932,81.873013 143.472,79.464513 C119.64,68.966213 117.684,52.986913 117.684,52.986913 L119.919,51.769513 C128.22,70.847713 144.294,71.880713 151.899,71.179813 C151.927,71.179813 151.953,71.178013 151.978,71.174513 C152.7,71.100713 153.169,70.368113 152.963,69.672513 L152.895,69.451113 L152.758,69.403713 C151.856,69.087513 151.256,68.239013 151.256,67.290313 L151.256,65.978013 C154.745,65.182213 156.236,70.078313 156.257,70.146813 C159.62,68.823913 162.465,66.373313 164.12,63.068913 C169.649,52.043513 162.27,35.458113 162.27,35.458113 L163.931,33.908713 C172.4,44.955113 172.458,55.716913 170.777,63.200613 C169.385,69.387913 166.803,73.330013 166.803,73.330013 C166.276,74.447313 165.902,75.896613 165.643,77.314313 Z" id="Path" fill="#05293C" fill-rule="nonzero"></path>
            <path d="M142.596,139.408113 C142.997,111.665113 159.74,100.034113 159.74,100.034113 C167.098,109.304113 167.013022,143.566113 167.013022,143.698113 C166.27,155.972113 165.142,163.725113 165.142,163.725113 L162.16,163.725113 C160.057,148.357113 157.843,107.665113 157.843,107.665113 C156.631,112.751113 147.951,125.463113 147.951,125.463113 C148.831,130.886113 151.319,155.872113 151.319,155.872113 L148.668,155.872113 C145.964,150.723113 143.998,144.784113 142.596,139.408113 Z" id="Path" fill="#011721" fill-rule="nonzero"></path>
            <path d="M162.271,35.458213 L162.271,29.181413 L162.94,29.935013 C163.73,30.809913 164.115,31.979913 163.999,33.149913 L163.931,33.908813 L162.271,35.458213 Z" id="Path" fill="#011721" fill-rule="nonzero"></path>
            <path d="M117.684,52.986613 L117.416,52.960313 C116.567,52.876013 115.777,52.496513 115.181,51.885213 L114.433,51.115713 L119.545,51.115713 L119.919,51.769213 L117.684,52.986613 Z" id="Path" fill="#011721" fill-rule="nonzero"></path>
            <path d="M163.931,33.908713 C172.4,44.955113 172.458,55.716913 170.777,63.200613 C169.385,69.387913 166.803,73.330013 166.803,73.330013 C166.276,74.447313 165.902,75.896613 165.643,77.314313 C165.143,80.044313 165.127,82.832213 165.475,85.583313 C166.06,90.247413 168.626,96.055213 167.672,101.278113 C166.887,105.594113 150.818,103.244113 148.953,99.032913 C148.61,98.252913 149.891,96.524313 150.049,95.934013 C151.751,89.673013 148.932,81.873013 143.472,79.464513 C119.64,68.966213 117.684,52.986913 117.684,52.986913 L119.919,51.769513 C128.22,70.847713 144.294,71.880713 151.899,71.179713 C151.927,71.179713 151.953,71.178013 151.978,71.174513 C152.705,71.100713 153.169,70.368113 152.963,69.672513 L152.895,69.451113 L152.758,69.403713 C151.556,69.535413 151.04,68.797613 150.618,68.128313 C150.439,67.843713 150.391,67.490613 150.486,67.169113 L150.987,65.461513 C154.471,64.665713 156.236,70.078313 156.257,70.146813 C159.62,68.823913 162.465,66.373313 164.12,63.068913 C169.649,52.043513 162.27,35.458113 162.27,35.458113 L163.931,33.908713 Z" id="Path" fill="#FFFFFF" fill-rule="nonzero"></path>
            <path d="M148.953,99.032913 C148.61,98.252913 149.891,96.524313 150.049,95.934013 C154.017,80.845413 163.425,74.436813 167.377,72.344513 C167.029,72.982213 166.803,73.330013 166.803,73.330013 C166.276,74.447313 165.902,75.896613 165.643,77.314313 C165.143,80.044313 165.127,82.832213 165.475,85.583313 C166.06,90.247513 168.626,96.055213 167.672,101.278113 C166.887,105.594113 150.818,103.244113 148.953,99.032913 Z" id="Path" fill="#E5E5E5" fill-rule="nonzero"></path>
            <path d="M151.192,154.576113 L151.63,158.028113 C151.756,158.934113 151.055,159.746113 150.138,159.746113 L142.939,159.746113 C142.233,159.746113 141.99,158.808113 142.607,158.465113 L148.668,155.872113 L151.192,154.576113 Z" id="Path" fill="#E5E5E5" fill-rule="nonzero"></path>
            <path d="M165.311,162.333113 L165.369,164.810113 C165.411,166.207113 164.7,167.150113 163.467,167.150113 L157.221,167.150113 C156.484,167.150113 156.262,166.149113 156.932,165.838113 L162.16,163.725113 L165.311,162.333113 Z" id="Path" fill="#E5E5E5" fill-rule="nonzero"></path>
            <path d="M161.854,161.564113 C161.749,161.564113 161.649,161.501113 161.606,161.401113 C161.554,161.264113 161.617,161.111113 161.754,161.058113 L163.472,160.368113 C163.604,160.315113 163.757,160.384113 163.815,160.515113 C163.867,160.652113 163.799,160.805113 163.667,160.858113 L161.949,161.548113 C161.917,161.559113 161.886,161.564113 161.854,161.564113 Z" id="Path" fill="#FFFFFF" fill-rule="nonzero"></path>
            <path d="M147.561,154.370113 C147.477,154.370113 147.387,154.323113 147.34,154.244113 C147.261,154.123113 147.298,153.959113 147.424,153.880113 L149.522,152.552113 C149.643,152.478113 149.806,152.515113 149.885,152.636113 C149.964,152.758113 149.928,152.921113 149.801,153.000113 L147.704,154.328113 C147.661,154.354113 147.609,154.370113 147.561,154.370113 Z" id="Path" fill="#FFFFFF" fill-rule="nonzero"></path>
            <path d="M155.772,63.216513 C158.576,63.785713 158.265,66.262713 157.485,68.360213 C157.116,69.345813 156.589,71.011213 153.943,70.015113 C153.3,69.772613 153.385,67.211313 152.895,66.700113 C152.547,66.341713 151.751,67.121713 151.314,66.510413 C150.275,65.066313 150.502,63.859413 151.198,62.568213 C152.547,60.080713 153,62.652613 155.772,63.216513 Z" id="Path" fill="#011721" fill-rule="nonzero"></path>
            <path d="M161.622,51.121213 L106.659,51.121213 C106.311,51.121213 106.026,50.836613 106.026,50.488713 L106.026,11.536513 C106.026,11.188613 106.311,10.904013 106.659,10.904013 L161.622,10.904013 C161.97,10.904013 162.254,11.188613 162.254,11.536513 L162.254,50.488713 C162.254,50.836613 161.97,51.121213 161.622,51.121213 Z" id="Path" fill="#E55955" fill-rule="nonzero"></path>
            <path d="M155.93,51.121213 L112.351,51.121213 C108.872,51.121213 106.026,48.275213 106.026,44.796913 L106.026,17.465513 C110.332,15.763213 115.012,14.819813 119.919,14.819813 C140.214,14.819813 156.779,30.793913 157.733,50.857613 C157.158,51.026313 156.557,51.121213 155.93,51.121213 Z" id="Path" fill="#D84E44" fill-rule="nonzero"></path>
            <path d="M155.93,51.384813 L112.351,51.384813 C108.72,51.384813 105.763,48.433413 105.763,44.797013 L105.763,17.228413 C105.763,13.597213 108.72,10.640613 112.351,10.640613 L155.93,10.640613 C159.561,10.640613 162.518,13.597213 162.518,17.228413 L162.518,44.797013 C162.518,48.433413 159.561,51.384813 155.93,51.384813 Z M112.351,11.167613 C109.009,11.167613 106.29,13.887113 106.29,17.228413 L106.29,44.797013 C106.29,48.143613 109.009,50.857713 112.351,50.857713 L155.93,50.857713 C159.272,50.857713 161.991,48.143613 161.991,44.797013 L161.991,17.228413 C161.991,13.887113 159.272,11.167613 155.93,11.167613 L112.351,11.167613 Z" id="Shape" fill="#05293C"></path>
            <g id="Group" opacity="0.2" style="mix-blend-mode: multiply;" transform="translate(103.434000, 8.848633)" fill="#D84E44" fill-rule="nonzero">
                <g style="mix-blend-mode: multiply;" transform="translate(0.000000, -0.000000)" id="Path">
                    <path d="M43.669,31.68988 L0.632,31.68988 C0.284,31.68988 0,31.40528 0,31.05748 L0,0.63238 C0,0.28459 0.284,0 0.632,0 L43.669,0 C44.017,0 44.301,0.28459 44.301,0.63238 L44.301,31.05748 C44.301,31.40528 44.017,31.68988 43.669,31.68988 Z"></path>
                </g>
            </g>
            <path d="M99.1225,51.785213 L84.4765,51.785213 C84.2868,51.785213 84.1287,51.627113 84.1287,51.437413 L84.1287,36.854713 C84.1287,36.659713 84.2868,36.506813 84.4765,36.506813 L99.1225,36.506813 C99.3122,36.506813 99.4703,36.659713 99.4703,36.854713 L99.4703,51.437413 C99.4703,51.627113 99.3122,51.785213 99.1225,51.785213 Z" id="Path" fill="#E85C4B" fill-rule="nonzero"></path>
            <path d="M95.9815,52.048813 L87.6176,52.048813 C85.5517,52.048813 83.8652,50.362313 83.8652,48.291113 L83.8652,39.995813 C83.8652,37.924613 85.5517,36.243413 87.6176,36.243413 L95.9815,36.243413 C98.0474,36.243413 99.7339,37.924613 99.7339,39.995813 L99.7339,48.291113 C99.7339,50.362313 98.0474,52.048813 95.9815,52.048813 Z M87.6176,36.770413 C85.8416,36.770413 84.3923,38.219713 84.3923,39.995813 L84.3923,48.291113 C84.3923,50.072513 85.8416,51.521813 87.6176,51.521813 L95.9815,51.521813 C97.7576,51.521813 99.2069,50.072513 99.2069,48.291113 L99.2069,39.995813 C99.2069,38.219713 97.7576,36.770413 95.9815,36.770413 L87.6176,36.770413 Z" id="Shape" fill="#FFFFFF"></path>
            <path d="M127.239,84.123313 L112.598,84.123313 C112.403,84.123313 112.25,83.970513 112.25,83.775513 L112.25,69.192813 C112.25,69.003113 112.403,68.845013 112.598,68.845013 L127.239,68.845013 C127.434,68.845013 127.592,69.003113 127.592,69.192813 L127.592,83.775513 C127.592,83.970513 127.434,84.123313 127.239,84.123313 Z" id="Path" fill="#E85C4B" fill-rule="nonzero"></path>
            <path d="M124.098,84.386913 L115.739,84.386913 C113.668,84.386913 111.987,82.705713 111.987,80.634513 L111.987,72.339213 C111.987,70.268013 113.668,68.581513 115.739,68.581513 L124.098,68.581513 C126.169,68.581513 127.856,70.268013 127.856,72.339213 L127.856,80.634513 C127.856,82.705713 126.169,84.386913 124.098,84.386913 Z M115.739,69.108613 C113.958,69.108613 112.514,70.557913 112.514,72.339213 L112.514,80.634513 C112.514,82.415913 113.958,83.859913 115.739,83.859913 L124.098,83.859913 C125.879,83.859913 127.329,82.415913 127.329,80.634513 L127.329,72.339213 C127.329,70.557913 125.879,69.108613 124.098,69.108613 L115.739,69.108613 Z" id="Shape" fill="#FFFFFF"></path>
            <path d="M127.239,105.262113 L112.598,105.262113 C112.403,105.262113 112.25,105.104113 112.25,104.914113 L112.25,90.331713 C112.25,90.136713 112.403,89.983913 112.598,89.983913 L127.239,89.983913 C127.434,89.983913 127.592,90.136713 127.592,90.331713 L127.592,104.914113 C127.592,105.104113 127.434,105.262113 127.239,105.262113 Z" id="Path" fill="#E85C4B" fill-rule="nonzero"></path>
            <path d="M124.098,105.526113 L115.739,105.526113 C113.668,105.526113 111.987,103.839113 111.987,101.768113 L111.987,93.472813 C111.987,91.401613 113.668,89.720413 115.739,89.720413 L124.098,89.720413 C126.169,89.720413 127.856,91.401613 127.856,93.472813 L127.856,101.768113 C127.856,103.839113 126.169,105.526113 124.098,105.526113 Z M115.739,90.247513 C113.958,90.247513 112.514,91.691513 112.514,93.472813 L112.514,101.768113 C112.514,103.549113 113.958,104.999113 115.739,104.999113 L124.098,104.999113 C125.879,104.999113 127.329,103.549113 127.329,101.768113 L127.329,93.472813 C127.329,91.691513 125.879,90.247513 124.098,90.247513 L115.739,90.247513 Z" id="Shape" fill="#FFFFFF"></path>
            <path d="M100.456,118.854113 L85.815,118.854113 C85.62,118.854113 85.4619,118.696113 85.4619,118.506113 L85.4619,103.923113 C85.4619,103.728113 85.62,103.576113 85.815,103.576113 L100.456,103.576113 C100.651,103.576113 100.804,103.728113 100.804,103.923113 L100.804,118.506113 C100.804,118.696113 100.651,118.854113 100.456,118.854113 Z" id="Path" fill="#E85C4B" fill-rule="nonzero"></path>
            <path d="M97.3148,119.118113 L88.9562,119.118113 C86.885,119.118113 85.1985,117.431113 85.1985,115.360113 L85.1985,107.065113 C85.1985,104.993113 86.885,103.312113 88.9562,103.312113 L97.3148,103.312113 C99.386,103.312113 101.067,104.993113 101.067,107.065113 L101.067,115.360113 C101.067,117.431113 99.386,119.118113 97.3148,119.118113 Z M88.9562,103.839113 C87.1748,103.839113 85.7255,105.283113 85.7255,107.065113 L85.7255,115.360113 C85.7255,117.141113 87.1748,118.591113 88.9562,118.591113 L97.3148,118.591113 C99.0961,118.591113 100.54,117.141113 100.54,115.360113 L100.54,107.065113 C100.54,105.283113 99.0961,103.839113 97.3148,103.839113 L88.9562,103.839113 Z" id="Shape" fill="#FFFFFF"></path>
            <path d="M102.759,84.123213 L83.5119,84.123213 C81.6462,84.123213 80.1284,82.610713 80.1284,80.745013 L80.1284,61.603613 C80.1284,59.737913 81.6462,58.225313 83.5119,58.225313 L102.759,58.225313 C104.624,58.225313 106.137,59.737913 106.137,61.603613 L106.137,80.745013 C106.137,82.610713 104.624,84.123213 102.759,84.123213 Z" id="Path" fill="#05293C" fill-rule="nonzero"></path>
            <path d="M102.648,84.386813 L83.6227,84.386813 C81.5515,84.386813 79.865,82.705613 79.865,80.634413 L79.865,61.714313 C79.865,59.643113 81.5515,57.961913 83.6227,57.961913 L102.648,57.961913 C104.719,57.961913 106.401,59.643113 106.401,61.714313 L106.401,80.634413 C106.401,82.705613 104.719,84.386813 102.648,84.386813 Z M83.6227,58.488913 C81.8413,58.488913 80.392,59.933013 80.392,61.714313 L80.392,80.634413 C80.392,82.415813 81.8413,83.859813 83.6227,83.859813 L102.648,83.859813 C104.43,83.859813 105.874,82.415813 105.874,80.634413 L105.874,61.714313 C105.874,59.933013 104.43,58.488913 102.648,58.488913 L83.6227,58.488913 Z" id="Shape" fill="#FFFFFF"></path>
            <path d="M118.833,100.635113 C118.643,100.635113 118.448,100.566113 118.295,100.424113 L116.303,98.595413 C115.95,98.273913 115.887,97.741613 116.156,97.378013 C116.303,97.177713 116.535,97.046013 116.788,97.024913 C117.036,96.998513 117.283,97.082913 117.473,97.251513 L118.796,98.469013 L122.338,94.874613 C122.511,94.695513 122.759,94.600613 123.007,94.611113 C123.26,94.621713 123.492,94.732413 123.655,94.932613 C123.945,95.280513 123.908,95.818013 123.571,96.160613 L119.402,100.398113 C119.249,100.556113 119.038,100.635113 118.833,100.635113 Z M118.385,100.329113 C118.648,100.572113 119.054,100.561113 119.307,100.303113 L123.476,96.065713 C123.766,95.770613 123.803,95.312113 123.555,95.016913 C123.413,94.848313 123.218,94.748213 123.002,94.742913 C122.991,94.742913 122.981,94.742913 122.97,94.742913 C122.77,94.742913 122.575,94.821913 122.427,94.969513 L118.801,98.653413 L117.384,97.351713 C117.225,97.204113 117.009,97.130313 116.799,97.156713 C116.582,97.172513 116.393,97.283113 116.261,97.457113 C116.029,97.762713 116.087,98.221213 116.393,98.500613 L118.385,100.329113 Z" id="Shape" fill="#05293C"></path>
            <g id="Group" opacity="0.5" style="mix-blend-mode: multiply;" transform="translate(83.206300, 62.705313)" fill="#D84E44" fill-rule="nonzero">
                <g style="mix-blend-mode: multiply;" id="Path">
                    <path d="M25.6557,25.9032 L0.3478,25.9032 C0.1528,25.9032 0,25.7451 0,25.5501 L0,0.3478 C0,0.1581 0.1528,0 0.3478,0 L25.6557,0 C25.8507,0 26.0087,0.1581 26.0087,0.3478 L26.0087,25.5501 C26.0087,25.7451 25.8507,25.9032 25.6557,25.9032 Z"></path>
                </g>
            </g>
            <path d="M49.3187,79.959913 C49.3187,79.959913 49.5664,82.895513 51.1159,98.938013 C51.2476,100.277113 51.7588,101.552113 52.5863,102.611113 C55.5481,106.401113 62.9581,116.562113 65.8145,126.881113 C65.8145,126.881113 63.4377,144.220113 52.3702,157.538113 L49.4874,155.730113 C49.4874,155.730113 53.2872,138.117113 56.481,128.962113 L45.7086,113.974113 C45.7086,113.974113 48.2014,148.425113 43.6216,164.099113 L40.2908,164.099113 C40.2908,164.099113 32.8545,137.611113 35.4896,103.902113 C35.4896,103.902113 36.5068,85.456813 36.043,80.602913 L40.275,78.173313 L49.3187,79.959913 Z" id="Path" fill="#05293C" fill-rule="nonzero"></path>
            <path d="M22.7991,90.621613 C26.8571,82.442213 28.9969,78.595013 32.9443,76.149613 C35.5003,74.563213 38.3937,73.778013 41.2976,73.751613 C41.6191,73.240413 42.32,71.886013 41.9405,70.236413 C41.9405,70.236413 42.652,68.876713 42.8259,69.677713 C42.8259,69.677713 43.4636,70.721213 43.6745,69.503813 C43.6745,69.503813 43.8115,68.813413 44.2963,68.845013 L45.0342,70.758113 L44.5967,72.355013 C44.4755,72.486813 44.3016,72.523713 44.1224,72.523713 L43.5954,72.486813 C43.3582,72.486813 43.158,72.676513 43.1527,72.918913 C43.1474,73.430113 43.5111,73.878113 44.017,73.957213 C46.2147,74.305013 74.89,71.938713 74.89,71.938713 L75.0429,73.435413 C55.5641,78.837413 49.9776,78.067913 50.0303,83.227513 C50.0567,86.110313 50.5574,93.156613 51.116,98.938013 C51.2003,99.818113 51.4586,100.672113 51.8538,101.457113 C51.8538,101.457113 48.2701,101.921113 41.9353,106.142113 C40.6388,107.012113 37.0498,105.188113 35.0049,104.013113 C34.246,103.581113 33.972,102.617113 34.3988,101.852113 C35.0524,100.677113 35.8429,98.690313 35.8692,95.897113 C25.2814,95.322713 22.8096,90.648013 22.7991,90.621613 Z M35.9852,92.835113 C36.08,90.110413 36.1538,87.311913 36.1644154,84.982513 C36.1696,83.817813 34.8574,83.111513 33.8982,83.770313 C30.4936,86.089213 28.5805,90.115713 28.5805,90.115713 C30.4514,91.464913 33.271,92.308113 35.9852,92.835113 Z" id="Shape" fill="#FFFFFF"></path>
            <path d="M74.8899,71.938513 L79.3116,71.685513 C79.3116,71.685513 79.1535,72.365413 77.7464,72.465513 C77.5777,72.481313 77.4143,72.560413 77.3195,72.708013 C76.9716,73.208613 76.2338,74.341713 75.0427,73.435313 L74.8899,71.938513 Z" id="Path" fill="#011721" fill-rule="nonzero"></path>
            <path d="M37.7034,68.281313 C37.8984,68.191713 38.0354,68.007213 38.0512,67.796413 C38.0828,67.369513 38.6099,67.448613 38.6099,67.448613 C39.49,64.697513 41.8194,64.876713 42.299,65.087513 C44.5652,66.088913 44.2964,68.845213 44.2964,68.845213 C43.8116,68.813613 43.6745,69.504013 43.6745,69.504013 C43.4637,70.721413 43.3583,70.484313 43.3583,70.484313 C43.1897,69.688413 43.0896,70.589713 43.0896,70.589713 C43.5217,72.476413 42.8419,72.966513 42.6258,73.266913 C42.6258,73.266913 45.0132,81.736213 36.7442,82.553113 C34.3146,82.795513 32.2487,80.429213 32.1011,77.667613 C31.8323,72.592313 36.4438,68.839913 37.7034,68.281313 Z" id="Path" fill="#011721" fill-rule="nonzero"></path>
            <path d="M59.0475,147.303113 C57.282,150.744113 55.0896,154.260113 52.3701,157.538113 L49.4873,155.730113 C49.4873,155.730113 53.2872,138.117113 56.4809,128.962113 L45.7086,113.974113 C45.7086,113.974113 48.2014,148.425113 43.6216,164.099113 L40.2908,164.099113 L45.0814,109.315113 C45.0814,109.315113 69.277,118.875113 59.0475,147.303113 Z" id="Path" fill="#011721" fill-rule="nonzero"></path>
            <path d="M52.3703,157.538113 L54.7103,162.576113 C54.8947,163.040113 54.3677,163.456113 53.9566,163.177113 L48.6021,158.855113 C47.8379,158.328113 47.7799,157.221113 48.4809,156.610113 L49.4875,155.730113 L52.3703,157.538113 Z" id="Path" fill="#FFFFFF" fill-rule="nonzero"></path>
            <path d="M43.6217,164.099113 L44.7389,166.265113 C44.9498,166.671113 44.6546,167.150113 44.2014,167.150113 L40.9549,167.150113 C39.8798,167.150113 39.2105,165.991113 39.7428,165.058113 L40.2909,164.099113 L43.6217,164.099113 Z" id="Path" fill="#FFFFFF" fill-rule="nonzero"></path>
            <path d="M44.8075,162.075113 L40.9708,162.075113 C40.8232,162.075113 40.7073,161.960113 40.7073,161.812113 C40.7073,161.664113 40.8232,161.548113 40.9708,161.548113 L44.8075,161.548113 C44.9551,161.548113 45.071,161.664113 45.071,161.812113 C45.071,161.960113 44.9551,162.075113 44.8075,162.075113 Z" id="Path" fill="#FFFFFF" fill-rule="nonzero"></path>
            <path d="M54.2836,155.998113 C54.2257,155.998113 54.1677,155.977113 54.115,155.935113 L51.6222,153.901113 C51.5062,153.811113 51.4904,153.643113 51.5853,153.532113 C51.6749,153.421113 51.8435,153.400113 51.9542,153.495113 L54.4523,155.529113 C54.563,155.619113 54.5788,155.788113 54.4892,155.898113 C54.4365,155.962113 54.3627,155.998113 54.2836,155.998113 Z" id="Path" fill="#FFFFFF" fill-rule="nonzero"></path>
            <path d="M50.2201,87.638713 C50.4256,90.732313 50.5574,93.156613 51.116,98.938013 C51.2003,99.818113 51.4586,100.672113 51.8538,101.457113 C51.8538,101.457113 48.2701,101.921113 41.9353,106.142113 C40.6388,107.012113 37.0498,105.188113 35.0049,104.013113 C34.246,103.581113 33.9719,102.617113 34.3988,101.852113 C34.831,101.078113 35.3159,99.945113 35.6057,98.469013 L35.611,98.463713 C40.9181,91.180213 50.2201,87.638713 50.2201,87.638713 Z" id="Path" fill="#EAEAEA" fill-rule="nonzero"></path>
            <path d="M102.501,131.914113 C101.884,131.914113 101.384,131.413113 101.384,130.797113 C101.384,130.175113 101.884,129.674113 102.501,129.674113 C103.123,129.674113 103.623,130.175113 103.623,130.797113 C103.623,131.413113 103.123,131.914113 102.501,131.914113 Z M102.501,130.201113 C102.174,130.201113 101.911,130.464113 101.911,130.797113 C101.911,131.123113 102.174,131.387113 102.501,131.387113 C102.833,131.387113 103.096,131.123113 103.096,130.797113 C103.096,130.464113 102.833,130.201113 102.501,130.201113 Z" id="Shape" fill="#FFFFFF"></path>
            <path d="M106.026,131.914113 C105.41,131.914113 104.909,131.413113 104.909,130.797113 C104.909,130.175113 105.41,129.674113 106.026,129.674113 C106.648,129.674113 107.149,130.175113 107.149,130.797113 C107.149,131.413113 106.648,131.914113 106.026,131.914113 Z M106.026,130.201113 C105.699,130.201113 105.436,130.464113 105.436,130.797113 C105.436,131.123113 105.699,131.387113 106.026,131.387113 C106.358,131.387113 106.622,131.123113 106.622,130.797113 C106.622,130.464113 106.358,130.201113 106.026,130.201113 Z" id="Shape" fill="#FFFFFF"></path>
            <path d="M109.552,131.914113 C108.936,131.914113 108.435,131.413113 108.435,130.797113 C108.435,130.175113 108.936,129.674113 109.552,129.674113 C110.174,129.674113 110.675,130.175113 110.675,130.797113 C110.675,131.413113 110.174,131.914113 109.552,131.914113 Z M109.552,130.201113 C109.226,130.201113 108.962,130.464113 108.962,130.797113 C108.962,131.123113 109.226,131.387113 109.552,131.387113 C109.884,131.387113 110.148,131.123113 110.148,130.797113 C110.148,130.464113 109.884,130.201113 109.552,130.201113 Z" id="Shape" fill="#FFFFFF"></path>
            <path d="M91.7969,24.759413 C91.428,24.759413 91.1224,24.453713 91.1224,24.079513 L91.1224,22.171713 L89.2145,22.171713 C88.8403,22.171713 88.5347,21.871313 88.5347,21.497113 C88.5347,21.122913 88.8403,20.817313 89.2145,20.817313 L91.1224,20.817313 L91.1224,18.909413 C91.1224,18.535313 91.428,18.234913 91.7969,18.234913 C92.1711,18.234913 92.4768,18.535313 92.4768,18.909413 L92.4768,20.817313 L94.3846,20.817313 C94.7588,20.817313 95.0645,21.122913 95.0645,21.497113 C95.0645,21.871313 94.7588,22.171713 94.3846,22.171713 L92.4768,22.171713 L92.4768,24.079513 C92.4768,24.453713 92.1711,24.759413 91.7969,24.759413 Z M89.2145,20.949013 C88.9141,20.949013 88.6664,21.196713 88.6664,21.497113 C88.6664,21.797513 88.9141,22.040013 89.2145,22.040013 L91.2541,22.040013 L91.2541,24.079513 C91.2541,24.379913 91.4965,24.627613 91.7969,24.627613 C92.1026,24.627613 92.345,24.379913 92.345,24.079513 L92.345,22.040013 L94.3846,22.040013 C94.685,22.040013 94.9327,21.797513 94.9327,21.497113 C94.9327,21.196713 94.685,20.949013 94.3846,20.949013 L92.345,20.949013 L92.345,18.909413 C92.345,18.609013 92.1026,18.366613 91.7969,18.366613 C91.4965,18.366613 91.2541,18.609013 91.2541,18.909413 L91.2541,20.949013 L89.2145,20.949013 Z" id="Shape" fill="#FFFFFF"></path>
            <path d="M4.74844,152.710113 C5.04884,150.317113 5.71289,148.035113 6.54032,145.801113 L8.52192,147.102113 L7.1095,144.330113 C8.32165,141.305113 9.74989,138.343113 10.883,135.297113 C11.5997,133.363113 12.132,131.397113 12.4482,129.416113 L13.5181,130.828113 L12.5642,128.636113 C13.0385,124.946113 12.7434,121.210113 11.4416,117.547113 C10.7301,115.560113 8.84868,112.409113 9.91326,110.279113 C10.5457,109.009113 12.1057,109.051113 13.0859,110.048113 C17.6869,114.743113 18.5248,122.933113 18.2244,129.895113 C18.1612,131.313113 18.1559,132.731113 18.1928,134.143113 L15.8265,136.836113 L18.235,135.466113 C18.3931,138.660113 18.8252,141.838113 19.5947,144.947113 C19.9267,146.286113 20.401,147.608113 20.8912,148.931113 L17.8608,153.664113 L21.7976,151.361113 C22.6725,153.801113 23.384,156.273113 23.2048,158.881113 C22.9992,161.833113 21.5288,164.816113 18.9306,166.228113 C15.368,168.168113 10.8039,166.861113 7.93693,164.104113 C7.21491,163.409113 6.59829,162.613113 6.13451,161.759113 C4.65884,159.029113 4.35844,155.788113 4.74844,152.710113 Z" id="Path" fill="#ED695F" fill-rule="nonzero"></path>
            <path d="M60.8923,63.596113 L56.2334,63.596113 C55.1056,63.596113 54.1833,62.679113 54.1833,61.546013 L54.1833,58.847613 C54.1833,58.241513 53.788,57.709213 53.1978,57.519513 C52.2175,57.213813 51.2636,56.818613 50.3519,56.344313 C49.7985,56.059713 49.1397,56.154513 48.7128,56.581413 L46.805,58.489213 C46.4203,58.874013 45.9038,59.090013 45.3557,59.090013 C44.8076,59.090013 44.2911,58.874013 43.9064,58.489213 L40.6125,55.195313 C40.2225,54.810613 40.0117,54.294113 40.0117,53.746013 C40.0117,53.197913 40.2225,52.681413 40.6125,52.296713 L42.5203,50.388913 C42.9472,49.962013 43.042,49.303213 42.7575,48.749813 C42.2831,47.838113 41.8879,46.884213 41.5769,45.903913 C41.3925,45.313713 40.8602,44.918413 40.2541,44.918413 L37.5557,44.918413 C36.4226,44.918413 35.5056,43.996113 35.5056,42.868313 L35.5056,38.209413 C35.5056,37.076313 36.4226,36.159313 37.5557,36.159313 L40.2541,36.159313 C40.8602,36.159313 41.3925,35.758713 41.5769,35.168513 C41.8879,34.193513 42.2831,33.234313 42.7575,32.322513 C43.042,31.769213 42.9472,31.115713 42.5203,30.688813 L40.6125,28.775713 C40.2225,28.390913 40.0117,27.874513 40.0117,27.326413 C40.0117,26.778313 40.2225,26.267013 40.6125,25.877013 L43.9064,22.583213 C44.2753,22.214213 44.8023,22.003413 45.3557,22.003413 C45.9091,22.003413 46.4361,22.214213 46.805,22.583213 L48.7128,24.491013 C49.1397,24.917913 49.7985,25.012713 50.3519,24.728113 C51.2583,24.253813 52.2175,23.858513 53.1978,23.552913 C53.788,23.363113 54.1833,22.830913 54.1833,22.230113 L54.1833,19.526413 C54.1833,18.398613 55.1056,17.476313 56.2334,17.476313 L60.8923,17.476313 C62.0254,17.476313 62.9424,18.398613 62.9424,19.526413 L62.9424,22.230113 C62.9424,22.830913 63.343,23.363113 63.9332,23.552913 C64.9135,23.858513 65.8727,24.259113 66.7792,24.728113 L66.7159,24.844113 C65.8147,24.375013 64.8661,23.985013 63.8911,23.674113 C63.2481,23.473813 62.8107,22.888813 62.8107,22.230113 L62.8107,19.526413 C62.8107,18.467113 61.9516,17.608113 60.8923,17.608113 L56.2334,17.608113 C55.1794,17.608113 54.3151,18.467113 54.3151,19.526413 L54.3151,22.230113 C54.3151,22.888813 53.8829,23.473813 53.2347,23.674113 C52.2649,23.985013 51.311,24.375013 50.4098,24.844113 C49.809,25.155013 49.087,25.054913 48.6232,24.585813 L46.7101,22.678013 C46.3676,22.330213 45.8722,22.135213 45.3557,22.135213 C44.8392,22.135213 44.3438,22.330213 44.0012,22.678013 L40.7021,25.971913 C40.3437,26.335613 40.1434,26.815113 40.1434,27.326413 C40.1434,27.842813 40.3437,28.322413 40.7021,28.686113 L42.6152,30.593913 C43.0789,31.063013 43.1843,31.779713 42.8734,32.380513 C42.4043,33.287013 42.0091,34.240913 41.7034,35.210613 C41.5031,35.853613 40.9181,36.291013 40.2541,36.291013 L37.5557,36.291013 C36.4964,36.291013 35.6374,37.150113 35.6374,38.209413 L35.6374,42.868313 C35.6374,43.922313 36.4964,44.786613 37.5557,44.786613 L40.2541,44.786613 C40.9181,44.786613 41.5031,45.218813 41.7034,45.867013 C42.0091,46.836813 42.4043,47.785413 42.8734,48.691913 C43.1896,49.292713 43.0842,50.009413 42.6152,50.478513 L40.7021,52.386313 C40.3437,52.749913 40.1434,53.234813 40.1434,53.746013 C40.1434,54.257213 40.3437,54.742113 40.7021,55.100513 L44.0012,58.394413 C44.3596,58.758013 44.8445,58.958313 45.3557,58.958313 C45.8669,58.958313 46.3517,58.758013 46.7101,58.394413 L48.6232,56.486513 C49.087,56.017513 49.809,55.912113 50.4098,56.228313 C51.3163,56.697413 52.2649,57.092613 53.2347,57.398313 C53.8829,57.598613 54.3151,58.183613 54.3151,58.847613 L54.3151,61.546013 C54.3151,62.605313 55.1794,63.464313 56.2334,63.464313 L60.8923,63.464313 C61.9516,63.464313 62.8107,62.605313 62.8107,61.546013 L62.8107,58.847613 C62.8107,58.183613 63.2481,57.598613 63.8911,57.398313 C64.8608,57.092613 65.8147,56.697413 66.7159,56.228313 L66.7792,56.344313 C65.8674,56.818613 64.9082,57.213813 63.9332,57.519513 C63.343,57.709213 62.9424,58.241513 62.9424,58.847613 L62.9424,61.546013 C62.9424,62.679113 62.0254,63.596113 60.8923,63.596113 Z" id="Path" fill="#FFFFFF" fill-rule="nonzero"></path>
            <path d="M58.5629,49.466513 C53.6405,49.466513 49.6299,45.461113 49.6299,40.538713 C49.6299,35.611113 53.6405,31.605713 58.5629,31.605713 C63.4906,31.605713 67.496,35.611113 67.496,40.538713 C67.496,45.461113 63.4906,49.466513 58.5629,49.466513 Z M58.5629,31.737513 C53.7143,31.737513 49.7616,35.684913 49.7616,40.538713 C49.7616,45.387413 53.7143,49.334813 58.5629,49.334813 C63.4168,49.334813 67.3642,45.387413 67.3642,40.538713 C67.3642,35.684913 63.4168,31.737513 58.5629,31.737513 Z" id="Shape" fill="#FFFFFF"></path>
            <path d="M99.0382,167.282113 L0.131756,167.282113 C0.0579725,167.282113 0,167.224113 0,167.151113 C0,167.082113 0.0579725,167.019113 0.131756,167.019113 L99.0382,167.019113 C99.1119,167.019113 99.1699,167.082113 99.1699,167.151113 C99.1699,167.224113 99.1119,167.282113 99.0382,167.282113 Z" id="Path" fill="#FFFFFF" fill-rule="nonzero"></path>
            <path d="M77.0983,152.910113 L62.6315,152.910113 C62.5577,152.910113 62.4998,152.852113 62.4998,152.778113 C62.4998,152.705113 62.5577,152.647113 62.6315,152.647113 L77.0983,152.647113 C77.1721,152.647113 77.23,152.705113 77.23,152.778113 C77.23,152.852113 77.1721,152.910113 77.0983,152.910113 Z" id="Path" fill="#FFFFFF" fill-rule="nonzero"></path>
            <path d="M153.142,159.878113 L120.978,159.878113 C120.904,159.878113 120.846,159.814113 120.846,159.746113 C120.846,159.672113 120.904,159.614113 120.978,159.614113 L153.142,159.614113 C153.216,159.614113 153.274,159.672113 153.274,159.746113 C153.274,159.814113 153.216,159.878113 153.142,159.878113 Z" id="Path" fill="#FFFFFF" fill-rule="nonzero"></path>
        </g>
    </g>
</svg>