<?xml version="1.0" encoding="UTF-8"?>
<svg width="200px" height="124px" viewBox="0 0 200 124" version="1.1" xmlns="http://www.w3.org/2000/svg" xmlns:xlink="http://www.w3.org/1999/xlink">
    <title>_Group_ (2)</title>
    <g id="Page-1" stroke="none" stroke-width="1" fill="none" fill-rule="evenodd">
        <g id="_Group_-(2)" transform="translate(0.000000, 0.348389)">
            <path d="M37.3545,123.286865 C1.24066,94.786765 6.46471,56.913865 12.94,36.595165 C18.4848,19.179865 34.8146,6.106395 54.759,3.876685 C69.2388,2.256535 80.8846,5.742795 80.8846,5.742795 C115.753,15.549265 124.142,47.893365 124.142,47.893365 C126.447,48.262365 128.628,48.674065 130.644,49.101865 C142.552,51.636265 153.353,57.496665 160.994,66.116065 C184.815,93.000865 159.325,122.954865 159.325,122.954865 L37.3545,123.286865 Z" id="Path" fill="#FF7871" fill-rule="nonzero"></path>
            <path d="M9.20205,52.780365 C28.8738,40.690765 49.3047,51.951565 49.3047,51.951565 C7.14345,49.326165 8.67804,73.468065 9.45336,78.515665 C7.83321,69.409665 8.07918,60.608465 9.20205,52.780365 Z" id="Path" fill="#FF8380" fill-rule="nonzero"></path>
            <path d="M138.472,123.013865 C172.067,104.314865 146.845,64.864865 146.845,64.864865 C132.836,46.358765 92.76,42.188165 92.76,42.188165 C84.6486,16.142765 68.3294,6.796155 53.978,3.978275 C54.2347,3.946195 54.4967,3.903425 54.7587,3.876685 C69.2384,2.256535 80.8843,5.742795 80.8843,5.742795 C115.752,15.549265 124.142,47.893365 124.142,47.893365 C126.446,48.262365 128.628,48.674065 130.644,49.101865 C142.551,51.636265 153.352,57.496665 160.993,66.116065 C184.814,93.000865 159.325,122.954865 159.325,122.954865 L138.472,123.013865 Z" id="Path" fill="#FF8380" fill-rule="nonzero"></path>
            <path d="M88.7125,63.116065 C87.9104,63.329965 87.2367,63.869965 86.825,64.586465 L84.2958,69.013865 C83.0767,71.141965 80.0129,71.141965 78.7991,69.013865 L76.27,64.586465 C75.8582,63.864665 75.1738,63.329965 74.3718,63.116065 C62.1698,59.832965 53.3152,48.401065 54.0156,35.012065 C54.7589,20.885265 66.3352,9.485365 80.4674,8.945355 C96.1876,8.346495 109.117,20.911965 109.117,36.493265 C109.117,49.240565 100.465,59.961365 88.7125,63.116065 Z" id="Path" fill="#FFC483" fill-rule="nonzero"></path>
            <path d="M43.7495,49.155165 L35.6434,54.908565 C28.9649,48.903765 29.7563,44.300065 31.061,42.647765 C32.3282,41.038365 33.7505,40.081265 35.6648,39.835265 C39.9049,39.284565 46.177,42.337665 46.177,42.337665 L44.3269,46.524365 L43.7495,49.155165 Z" id="Path" fill="#010F14" fill-rule="nonzero"></path>
            <polygon id="Path" fill="#05293C" fill-rule="nonzero" points="54.3684 123.055865 38.8834 123.055865 37.1189 119.345865 35.3597 123.055865 19.8748 123.055865 22.9921 102.223865 51.4275 102.223865"></polygon>
            <path d="M22.8479,103.202865 L22.9923,102.223865 L51.4277,102.223865 L51.6898,104.079865 C34.2424,109.271865 22.8479,103.202865 22.8479,103.202865 Z" id="Path" fill="#061A23" fill-rule="nonzero"></path>
            <polygon id="Path" fill="#061A23" fill-rule="nonzero" points="38.8835 123.055865 37.119 119.345865 35.3598 123.055865 32.4243 123.055865 37.119 116.372865 41.942 123.055865"></polygon>
            <path d="M74.4252,77.280565 C74.4252,77.280565 68.3671,86.787565 51.4277,97.299765 L51.4277,102.346865 C51.4277,102.346865 45.8828,104.202865 37.2099,104.202865 C28.0826,104.202865 22.9922,102.346865 22.9922,102.346865 L22.9922,97.299765 C6.05818,86.787565 0,77.280565 0,77.280565 C10.2289,66.650665 20.2118,61.041565 27.2591,58.122165 C28.89,57.443065 31.7132,56.844165 33.4403,56.512665 C35.0123,56.207865 36.1405,54.785565 36.0122,53.192165 C36.0122,53.174365 36.0122,53.158265 36.0122,53.144065 C35.9587,52.550565 35.7662,51.983765 35.4882,51.459765 C33.8894,48.411965 36.2421,47.256965 36.2421,47.256965 L36.98,49.155165 C39.0654,50.823465 40.0439,48.321065 40.0439,48.321065 C44.9417,48.128565 43.6424,44.738565 43.6424,44.738565 L45.9951,50.887565 L43.3751,53.347265 C42.7495,53.930065 41.9314,54.256265 41.0758,54.256265 L40.3861,54.256265 C39.8139,54.256265 39.3434,54.721465 39.3434,55.293565 C39.3434,55.817565 39.7284,56.266665 40.2471,56.325565 C42.6051,56.603565 44.9364,57.197065 47.1661,58.122165 C54.2135,61.041565 64.191,66.650665 74.4252,77.280565 Z M22.9922,71.473665 L10.5069,79.012965 C15.5759,83.846665 22.9922,90.797765 22.9922,90.797765 L22.9922,71.473665 Z M63.9183,79.018265 L51.4277,71.473665 L51.4277,90.198965 C51.4277,90.198965 59.2183,83.354765 63.9183,79.018265 Z" id="Shape" fill="#FFFFFF"></path>
            <path d="M51.4277,92.278865 L51.4277,97.299765 L51.4277,102.346865 C51.4277,102.346865 45.8828,104.202865 37.2099,104.202865 C28.0826,104.202865 22.9922,102.346865 22.9922,102.346865 L22.9922,97.299765 L22.9922,92.278865 L22.9922,90.337965 C42.5302,88.236565 51.4277,71.473665 51.4277,71.473665 L51.4277,92.278865 Z" id="Path" fill="#EDEDED" fill-rule="nonzero"></path>
            <path d="M31.2053,95.102265 L26.1631,95.396365 L26.3609,90.541265 C42.2683,83.654265 37.6432,59.726365 37.6432,59.726365 C45.0167,83.082165 31.2053,95.102265 31.2053,95.102265 Z" id="Path" fill="#010F14" fill-rule="nonzero"></path>
            <path d="M169.009,102.592865 C156.593,89.097365 148.086,77.713565 148.086,77.713565 L153.112,123.055865 L116.106,123.055865 L121.955,76.146865 L111.603,80.606265 C109.481,81.525965 107.016,81.087465 105.342,79.494065 L82.8686,58.351965 C82.2162,57.726365 83.0023,56.689065 83.7776,57.148865 L107.722,72.013565 C108.989,72.762165 109.005,73.286165 110.283,72.558965 L126.463,62.757865 C128.687,61.453265 130.912,60.603065 133.093,60.180665 C133.473,60.105765 133.751,59.784965 133.751,59.399965 C133.751,58.961465 133.393,58.603265 132.954,58.603265 L131.66,58.603265 C130.89,58.603265 130.147,58.287765 129.612,57.737065 L127.115,55.165165 L129.543,51.117465 C129.543,51.117465 130.249,56.619465 136.622,56.951065 C136.622,56.951065 136.612,56.972465 136.595,57.004465 C135.879,58.250365 136.713,59.806365 138.141,59.972065 C142.675,60.490765 146.872,62.950365 150.332,67.142465 C159.47,78.205465 166.993,93.695765 170.57,101.566865 C171.014,102.544865 169.736,103.378865 169.009,102.592865 Z" id="Path" fill="#D34A40" fill-rule="nonzero"></path>
            <path d="M144.766,50.828665 C144.766,55.320165 141.13,58.956165 136.638,58.956165 C132.152,58.956165 128.511,55.320165 128.511,50.828665 C128.511,46.342465 132.152,42.701165 136.638,42.701165 C141.13,42.701165 144.766,46.342465 144.766,50.828665 Z" id="Path" fill="#010F14" fill-rule="nonzero"></path>
            <path d="M147.952,45.551265 C147.952,47.192765 146.616,48.529565 144.974,48.529565 C143.327,48.529565 141.99,47.192765 141.99,45.551265 C141.99,43.904365 143.327,42.567665 144.974,42.567665 C146.616,42.567665 147.952,43.904365 147.952,45.551265 Z" id="Path" fill="#010F14" fill-rule="nonzero"></path>
            <path d="M88.483,63.634965 L82.8686,58.352065 C82.2162,57.726465 83.0023,56.689165 83.7776,57.149065 L88.483,60.068465 L88.483,63.634965 Z" id="Path" fill="#FFFFFF" fill-rule="nonzero"></path>
            <path d="M170.571,101.566865 C171.014,102.544865 169.737,103.379865 169.009,102.592865 C167.641,101.106865 166.325,99.646865 165.063,98.224865 L167.635,95.348165 C168.79,97.706165 169.779,99.823865 170.571,101.566865 Z" id="Path" fill="#FFFFFF" fill-rule="nonzero"></path>
            <path d="M129.543,51.117465 C129.543,51.117465 130.249,56.619465 136.622,56.951065 C136.622,56.951065 136.612,56.972465 136.596,57.004465 C135.906,58.207565 136.655,59.694065 137.991,59.945365 C133.307,62.506565 133.093,60.180665 133.093,60.180665 C133.473,60.105765 133.751,59.784965 133.751,59.399965 C133.751,58.961465 133.393,58.603265 132.954,58.603265 L131.66,58.603265 C130.89,58.603265 130.147,58.287765 129.613,57.737065 L127.115,55.165165 L129.543,51.117465 Z" id="Path" fill="#FFFFFF" fill-rule="nonzero"></path>
            <path d="M116.106,123.056865 L121.955,76.147265 C121.955,76.147265 122.95,100.791865 151.423,107.806865 L153.112,123.056865 L116.106,123.056865 Z" id="Path" fill="#C43A37" fill-rule="nonzero"></path>
            <path d="M155.053,82.451265 C155.053,82.451265 151.16,77.328765 155.422,75.040265 C155.422,75.040265 157.031,74.730165 157.956,76.275465 C157.956,76.275465 158.635,73.248965 162.469,72.323965 C162.469,72.323965 168.159,71.393565 170.57,79.494365 C170.57,79.494365 172.115,78.756465 171.864,81.071665 C171.864,81.071665 183.922,87.520165 176.88,98.727565 C176.88,98.727565 164.635,90.509165 164.822,90.386265 C165.004,90.263265 160.042,85.563165 160.042,85.563165 L155.053,82.451265 Z" id="Path" fill="#010F14" fill-rule="nonzero"></path>
            <path d="M160.726,89.776665 C161.277,89.188465 161.812,88.402465 161.646,87.739465 C161.539,87.317065 161.111,87.049665 160.683,87.156665 L159.422,87.456065 C158.673,87.637865 157.882,87.509565 157.229,87.097765 L154.197,85.178265 L155.609,80.676065 C155.609,80.676065 157.588,85.857265 163.865,84.691665 C163.865,84.691665 163.822,84.718365 163.844,84.745065 C165.512,86.814365 167.351,87.931965 168.848,88.931865 C175.864,93.610465 187.028,113.372865 192.22,123.056865 L160.026,123.056865 L156.662,110.554865 L139.108,123.056865 L136.183,123.056865 L132.553,116.393865 L156.727,93.316365 C156.727,93.316365 160.363,90.161665 160.726,89.776665 Z" id="Path" fill="#FFFFFF" fill-rule="nonzero"></path>
            <path d="M136.184,123.056865 L136.018,122.751865 L157.368,105.731865 C167.009,122.419865 189.868,118.741865 189.868,118.741865 C190.739,120.318865 191.531,121.772865 192.22,123.056865 L160.026,123.056865 L156.663,110.554865 L139.108,123.056865 L136.184,123.056865 Z" id="Path" fill="#E5E5E5" fill-rule="nonzero"></path>
            <path d="M199.733,123.323865 L1.09059,123.323865 C0.940877,123.323865 0.823242,123.206865 0.823242,123.056865 C0.823242,122.906865 0.940877,122.788865 1.09059,122.788865 L199.733,122.788865 C199.877,122.788865 200,122.906865 200,123.056865 C200,123.206865 199.877,123.323865 199.733,123.323865 Z" id="Path" fill="#FDB7B7" fill-rule="nonzero"></path>
            <path d="M145.354,122.109865 C145.354,122.606865 144.947,123.013865 144.45,123.013865 L95.2682,123.013865 C94.7709,123.013865 94.3645,122.606865 94.3645,122.109865 C94.3645,121.606865 94.7709,121.205865 95.2682,121.205865 L144.45,121.205865 C144.947,121.205865 145.354,121.606865 145.354,122.109865 Z" id="Path" fill="#FFFFFF" fill-rule="nonzero"></path>
            <polygon id="Path" fill="#FFFFFF" fill-rule="nonzero" points="136.205 121.205865 95.0596 121.205865 85.5793 90.792465 126.725 90.792465"></polygon>
            <path d="M110.828,103.790865 C111.117,105.213865 110.427,106.549865 109.288,106.779865 C108.149,107.009865 107,106.041865 106.711,104.614865 C106.427,103.191865 107.117,101.849865 108.251,101.625865 C109.39,101.395865 110.545,102.363865 110.828,103.790865 Z" id="Path" fill="#E5E5E5" fill-rule="nonzero"></path>
            <path d="M72.5322,27.729865 C72.3825,27.729865 72.2114,27.703065 72.0189,27.649665 C70.8799,27.355565 70.0832,26.644365 69.5806,25.484065 C69.381,25.017065 69.2295,24.544765 69.1261,24.067165 L69.1154,24.954765 C69.1047,26.264765 68.538,27.045365 67.4311,27.275365 C67.3937,27.280665 67.3563,27.259265 67.3509,27.221865 C67.3456,27.184465 67.367,27.152365 67.4044,27.141665 C68.4577,26.922465 68.9711,26.205965 68.9818,24.954765 L68.9978,23.254365 C68.9515,22.765965 68.955,22.275865 69.0085,21.783965 L69.1422,21.794665 L69.1315,23.249065 C69.201,23.981565 69.3935,24.714065 69.7036,25.430565 C70.1848,26.553465 70.9548,27.237865 72.0509,27.521265 C72.313,27.590765 72.5161,27.606865 72.6979,27.580065 C73.0883,27.521265 73.2701,27.253965 73.3717,27.056065 C73.6604,26.510665 73.8262,25.933265 73.8689,25.355765 C73.7941,25.050965 73.778,24.740865 73.8315,24.436065 L73.9064,24.035065 L73.9652,24.436065 C74.0133,24.735465 74.024,25.040265 74.0026,25.345065 C74.1844,26.040165 74.7084,26.703165 75.5158,27.221865 C75.6174,27.291365 75.7404,27.360865 75.8955,27.376965 C76.227,27.414365 76.4569,27.184465 76.5906,26.991965 L77.5477,25.607065 L77.6546,26.291465 C77.9915,25.783465 79.109,25.526865 80.0768,25.612365 C80.911,25.687265 81.9536,25.986665 82.3707,26.601565 C82.3921,26.628365 82.3867,26.671165 82.3547,26.692465 C82.3279,26.713865 82.2851,26.708565 82.2638,26.676465 C81.9376,26.200565 81.0767,25.836965 80.0661,25.746065 C79.0128,25.655165 77.7776,25.975965 77.6974,26.548165 L77.6332,26.991965 L77.4675,25.954565 L76.7029,27.066765 C76.4836,27.387665 76.1895,27.542665 75.8794,27.510565 C75.7083,27.494565 75.5693,27.414365 75.441,27.334165 C74.7191,26.868965 74.2165,26.286165 73.9705,25.671265 C73.8957,26.163165 73.7353,26.649765 73.4893,27.114965 C73.377,27.339465 73.1685,27.644265 72.7193,27.713765 C72.6587,27.724465 72.5963,27.729865 72.5322,27.729865 Z" id="Path" fill="#05293C" fill-rule="nonzero"></path>
            <path d="M85.2904,28.371465 L85.1567,28.360765 L85.3171,25.623065 C85.3385,25.307665 85.3867,24.986765 85.7449,24.778265 C85.8198,24.735465 85.9053,24.698065 85.9909,24.660665 C86.1246,24.607165 86.2582,24.548365 86.3277,24.468165 C86.4026,24.382565 86.3973,24.280965 86.3759,24.152665 L85.9802,21.735865 C85.9748,21.698365 86.0016,21.666365 86.039,21.660965 C86.0764,21.655665 86.1085,21.676965 86.1139,21.714465 L86.5042,24.131265 C86.5256,24.248965 86.5523,24.414665 86.4293,24.553665 C86.3384,24.660665 86.1887,24.719465 86.0443,24.783665 C85.9641,24.815665 85.8786,24.853165 85.8091,24.890565 C85.5096,25.067065 85.4669,25.339765 85.4508,25.628465 L85.4027,26.467965 C85.4241,26.403765 85.4615,26.339665 85.531,26.286165 C85.6914,26.163165 85.9695,26.141765 86.2101,26.120365 L86.2315,26.115065 C87.1458,26.040165 88.0174,25.826265 88.7553,25.494765 L88.8195,25.468065 L88.8462,25.526865 C89.0975,26.115065 89.3435,26.697865 89.5734,27.264665 L90.8299,25.307665 L91.6159,26.489365 C92.2309,26.248665 92.68,25.874465 92.8618,25.457365 L92.9046,25.350465 L94.129,26.874365 C94.3269,26.628365 94.4606,26.371665 94.5408,26.098965 L94.5515,26.061565 L94.5889,26.050865 C95.7331,25.831665 97.0004,25.810265 98.1661,25.986665 C98.2035,25.992065 98.2249,26.024165 98.2195,26.061565 C98.2142,26.098965 98.1821,26.125765 98.1447,26.120365 C97.0111,25.943965 95.7759,25.965365 94.6584,26.179165 C94.5675,26.473265 94.4017,26.756665 94.1772,27.024065 L94.1237,27.088165 L92.9367,25.607065 C92.7121,26.029465 92.2362,26.403765 91.6106,26.633665 L91.5625,26.655065 L90.8353,25.553565 L89.552,27.553365 L89.5039,27.435765 C89.2633,26.852965 89.0066,26.248765 88.7499,25.644465 C88.0067,25.965365 87.1458,26.173865 86.2422,26.248665 L86.2208,26.254065 C85.9962,26.270065 85.7396,26.291465 85.6112,26.393065 C85.531,26.457265 85.515,26.537465 85.5043,26.639065 L85.2904,28.371465 Z" id="Path" fill="#05293C" fill-rule="nonzero"></path>
            <path d="M63.4956,35.231565 L63.4689,35.049765 C63.3512,34.172865 63.0678,33.311965 62.6294,32.499265 C62.4422,33.290565 61.9503,34.039165 61.2231,34.621965 L61.1803,34.654065 L61.1429,34.621965 C60.5013,34.140765 60.0414,33.504465 59.8436,32.830765 C59.8329,32.798665 59.8543,32.761265 59.8917,32.750565 C59.9238,32.739865 59.9612,32.755865 59.9719,32.793265 C60.159,33.424265 60.5868,34.023165 61.1803,34.488265 C61.9129,33.884065 62.3941,33.103465 62.5331,32.296065 L62.5652,32.108865 L62.6615,32.274665 C63.1267,33.098065 63.4314,33.964265 63.5758,34.857265 L64.7201,33.082065 L65.5916,34.220965 C65.6397,34.279765 65.6825,34.327865 65.7467,34.349265 C65.8269,34.365365 65.9124,34.338565 65.998,34.301165 C66.1103,34.253065 66.2226,34.199565 66.3349,34.146065 C66.8321,33.916165 67.3401,33.675565 67.8802,33.814565 C68.0566,33.857365 68.2063,33.937565 68.3507,34.017765 C68.4362,34.065865 68.5218,34.114065 68.6127,34.151465 C68.8373,34.247665 69.1581,34.285165 69.3345,34.151465 C69.4201,34.081965 69.4522,33.974965 69.4789,33.884065 L70.0083,32.215865 L70.0885,32.312065 C70.3719,32.664965 70.6071,33.044565 70.7996,33.429565 C70.8157,33.467065 70.7996,33.504465 70.7675,33.520465 C70.7355,33.536565 70.6927,33.525865 70.6766,33.488465 C70.5109,33.146165 70.3024,32.814665 70.0617,32.499265 L69.6072,33.926865 C69.5752,34.028465 69.5324,34.162165 69.4147,34.253065 C69.1955,34.429465 68.8266,34.386765 68.5592,34.274465 C68.463,34.231665 68.3774,34.183565 68.2865,34.135365 C68.1422,34.060565 68.0031,33.985665 67.8427,33.942865 C67.3561,33.819965 66.8642,34.049865 66.3937,34.269065 C66.276,34.322565 66.1638,34.376065 66.0515,34.424165 C65.9499,34.466965 65.8322,34.509665 65.7146,34.477565 C65.597,34.445565 65.5328,34.359965 65.4847,34.301165 L64.7308,33.311965 L63.4956,35.231565 Z" id="Path" fill="#05293C" fill-rule="nonzero"></path>
            <path d="M69.3507,31.194665 C68.8801,31.194665 68.4132,31.187565 67.9498,31.173265 C67.9123,31.173265 67.8802,31.141165 67.8856,31.103765 C67.8856,31.066365 67.9123,31.039565 67.9498,31.039565 C69.5325,31.082365 71.1366,31.055665 72.7193,30.943365 C72.7567,30.943365 72.7888,30.970065 72.7888,31.007565 C72.7942,31.044965 72.7674,31.077065 72.73,31.077065 C71.6071,31.157265 70.4736,31.194665 69.3507,31.194665 Z" id="Path" fill="#05293C" fill-rule="nonzero"></path>
            <path d="M87.509,42.963465 C87.042,42.963465 86.5751,42.956365 86.1081,42.942065 C86.0707,42.942065 86.0386,42.909965 86.0386,42.872565 C86.0439,42.840465 86.0707,42.808365 86.1081,42.808365 C87.6908,42.856565 89.2949,42.824465 90.8776,42.712165 C90.9151,42.712165 90.9471,42.738865 90.9471,42.776365 C90.9525,42.813765 90.9258,42.845865 90.8883,42.845865 C89.7654,42.926065 88.6372,42.963465 87.509,42.963465 Z" id="Path" fill="#05293C" fill-rule="nonzero"></path>
            <path d="M78.8684,34.900165 L78.1198,33.542065 C77.9914,33.306765 77.831,33.055465 77.5316,32.991265 C77.4567,32.975265 77.3765,32.975265 77.2963,32.969865 C77.2108,32.964565 77.1252,32.959165 77.0397,32.943165 C76.8525,32.900365 76.7082,32.798765 76.5691,32.702565 C76.5264,32.670465 76.4818,32.640165 76.4355,32.611665 C76.2857,32.510065 76.0505,32.429865 75.874,32.488665 C75.858,33.135665 75.6388,33.777265 75.2324,34.349465 L75.1896,34.413565 L75.1308,34.354765 C74.4303,33.606165 73.9277,32.729265 73.6925,31.825665 C73.6818,31.788165 73.7031,31.750765 73.7406,31.745465 C73.7727,31.734765 73.8101,31.756165 73.8208,31.793565 C74.0453,32.649065 74.5159,33.483165 75.1736,34.199665 C75.5372,33.659665 75.735,33.055465 75.7404,32.445865 L75.7404,32.403065 L75.7778,32.387065 C76.0077,32.269465 76.3071,32.365665 76.505,32.499365 C76.5549,32.527865 76.6012,32.558165 76.644,32.590265 C76.7777,32.686465 76.906,32.777365 77.0664,32.814865 C77.1413,32.830865 77.2215,32.830865 77.3017,32.836265 C77.3872,32.841565 77.4728,32.841565 77.5583,32.862965 C77.9005,32.937865 78.0877,33.199865 78.2374,33.472565 L78.7347,34.376165 C78.74,33.584765 78.8042,32.793465 78.9218,32.007465 L78.9379,31.900465 L79.0288,31.964665 C79.3496,32.199965 79.526,32.542165 79.51,32.878965 C79.8736,32.697165 80.3655,32.665165 80.7612,32.809465 C81.0553,32.916465 81.2852,33.124965 81.4029,33.365565 L81.4135,33.263965 C81.4189,33.231865 81.4563,33.205165 81.4938,33.210465 C81.5258,33.215865 81.5526,33.247965 81.5472,33.285365 L81.4777,33.750565 L81.344,33.734565 C81.3654,33.408365 81.1088,33.082165 80.7131,32.932465 C80.3121,32.788065 79.7934,32.836265 79.4619,33.066165 L79.3229,33.157065 L79.3603,32.991265 C79.4245,32.691865 79.3015,32.376365 79.0341,32.141065 C78.9165,32.969865 78.863,33.804065 78.8684,34.638165 L78.8684,34.900165 Z" id="Path" fill="#05293C" fill-rule="nonzero"></path>
            <path d="M88.6586,34.247665 L88.6265,34.188865 C88.3431,33.654165 88.1239,33.065965 87.9742,32.467065 C87.9207,33.007165 87.7496,33.536465 87.4662,33.974965 C87.4448,34.007065 87.4021,34.017765 87.37,33.996365 C87.3379,33.980265 87.3326,33.937565 87.3486,33.905465 C87.7336,33.306565 87.91,32.547265 87.8405,31.820065 C87.8227,31.723865 87.8084,31.625865 87.7977,31.526065 L87.9314,31.504665 C87.9492,31.604465 87.9635,31.704265 87.9742,31.804065 C88.1025,32.595465 88.3538,33.370765 88.7121,34.065865 C89.4072,33.670165 89.9152,32.916265 90.0435,32.071465 L90.0702,31.905665 L90.9097,33.151565 C90.9739,33.242465 91.0488,33.360065 91.1503,33.402865 C91.2626,33.450965 91.3963,33.413565 91.5193,33.370765 C92.3374,33.103365 93.102,32.697065 93.7971,32.162365 L93.8666,32.114165 L94.3853,33.199665 C94.4334,33.301265 94.4815,33.392165 94.5564,33.434865 C94.6633,33.499065 94.8024,33.450965 94.9521,33.386765 C96.4332,32.782565 98.0373,32.632865 99.5933,32.959065 C99.8286,33.012465 100.123,33.071365 100.31,32.910865 C100.337,32.889565 100.379,32.889565 100.401,32.916265 C100.427,32.948365 100.422,32.991065 100.395,33.012465 C100.16,33.215665 99.8286,33.146165 99.5666,33.092665 C98.0373,32.766565 96.4599,32.916265 95.0002,33.515165 C94.8665,33.568565 94.6633,33.654165 94.4922,33.552565 C94.3746,33.483065 94.3104,33.354665 94.2677,33.258465 L93.8132,32.322765 C93.1234,32.836065 92.3695,33.237065 91.5621,33.499065 C91.4177,33.547165 91.2519,33.589965 91.1022,33.525865 C90.9578,33.466965 90.8723,33.333365 90.7974,33.226365 L90.1504,32.258565 C89.9686,33.098065 89.4286,33.835965 88.7174,34.215565 L88.6586,34.247665 Z" id="Path" fill="#05293C" fill-rule="nonzero"></path>
            <path d="M74.3931,41.065065 L74.3824,40.893965 C74.3075,39.583965 74.1685,38.257865 73.9707,36.947865 C73.575,37.862165 73.0189,38.728465 72.3238,39.535865 L72.2489,39.626765 L71.8853,38.423665 C71.8746,38.391565 71.896,38.354165 71.9334,38.343465 C71.9655,38.332765 72.003,38.354165 72.0136,38.386265 L72.3024,39.354065 C73.0082,38.525265 73.5589,37.621565 73.9439,36.680565 L74.0348,36.455965 L74.0722,36.696565 C74.2754,38.022665 74.4252,39.375465 74.5054,40.712165 C75.6175,39.295165 76.3554,37.685765 76.6388,36.054965 L76.6656,35.889165 L76.7565,36.028165 C77.3072,36.840965 77.7189,37.701765 77.9863,38.589365 C78.3552,38.263265 78.6226,37.872865 78.7669,37.455865 L78.8365,37.257965 L79.5209,39.578565 C79.7829,39.198965 79.9807,38.803265 80.1144,38.391565 L80.1785,38.209765 L80.2427,38.386265 C80.2463,38.400465 80.2516,38.414765 80.2588,38.428965 C80.2766,38.407565 80.2962,38.389765 80.3176,38.375565 L80.3443,38.359465 C81.3014,38.097465 82.4617,38.359465 83.0873,38.974365 C83.3814,38.664265 83.5632,38.289965 83.5953,37.910365 L83.606,37.803365 L83.6969,37.862165 C84.0551,38.081465 84.3385,38.359465 84.5203,38.680265 C84.8465,38.338065 85.0925,37.953065 85.2475,37.546765 L85.2903,37.434465 L86.8356,39.418165 C86.9265,39.530465 87.0281,39.664165 87.1778,39.739065 C87.5521,39.931465 88.0922,39.749665 88.3916,39.460965 C88.5253,39.332665 88.6376,39.188265 88.7445,39.049265 C88.8835,38.867465 89.0225,38.680265 89.2204,38.525265 C89.8781,38.001265 90.8245,38.001265 91.8297,38.001265 C92.5997,38.001265 93.3911,38.001265 94.0434,37.744565 C94.0755,37.733865 94.1129,37.749965 94.1289,37.781965 C94.1396,37.814065 94.1236,37.856865 94.0915,37.867565 C93.4178,38.134865 92.605,38.140265 91.8297,38.134865 C90.8566,38.140265 89.9262,38.134865 89.3006,38.626865 C89.1188,38.771165 88.9905,38.947665 88.8514,39.129465 C88.7391,39.273865 88.6269,39.423565 88.4825,39.557265 C88.1456,39.878065 87.5468,40.075865 87.119,39.861965 C86.9372,39.771065 86.8302,39.626765 86.7287,39.498365 L85.3277,37.701765 C85.1513,38.113565 84.8946,38.493165 84.5578,38.840765 L84.4883,38.910265 L84.4455,38.824665 C84.2904,38.519865 84.0391,38.247165 83.7129,38.033365 C83.6541,38.423665 83.4509,38.808665 83.1355,39.118765 L83.082,39.166865 L83.0392,39.113465 C82.4617,38.503865 81.3282,38.231165 80.3924,38.487865 C80.3603,38.512765 80.3301,38.541265 80.3015,38.573365 C80.3924,38.915565 80.3924,39.273865 80.2962,39.616065 L80.2641,39.733665 L80.1839,39.642765 C80.0449,39.487665 79.97,39.300565 79.9647,39.102765 C79.847,39.330865 79.7098,39.553665 79.553,39.771065 L79.4727,39.878065 L78.8204,37.680365 C78.6493,38.081465 78.3659,38.450365 77.9916,38.760465 L77.9168,38.824665 L77.8847,38.728465 C77.6387,37.867565 77.2537,37.028065 76.7404,36.242065 C76.4196,37.894265 75.6496,39.509065 74.5054,40.931365 L74.3931,41.065065 Z M80.1946,38.712365 C80.1358,38.803265 80.1037,38.910265 80.093,39.017165 C80.0823,39.166865 80.1197,39.316565 80.1946,39.439565 C80.2427,39.198965 80.2427,38.952965 80.1946,38.712365 Z" id="Shape" fill="#05293C"></path>
            <path d="M65.5865,47.813065 C65.501,47.813065 65.4154,47.791665 65.3299,47.754265 L65.2978,47.738165 L65.2924,47.700765 C65.1962,46.770365 64.9449,45.856065 64.5385,44.979165 C64.5225,44.947065 64.5385,44.904265 64.5706,44.893565 C64.6027,44.877565 64.6455,44.888265 64.6615,44.925665 C65.0679,45.802565 65.3245,46.716865 65.4208,47.647265 C65.7416,47.764965 66.1373,47.481565 66.2496,47.385265 C67.7628,46.166165 68.7038,44.508565 68.8268,42.834965 L68.9605,42.834965 L69.2653,46.331965 C69.292,46.331965 69.3241,46.331965 69.3562,46.315865 C69.4471,46.278465 69.5273,46.166165 69.554,46.075265 L70.5272,43.166465 L70.5967,43.316165 C71.0138,44.209165 71.2704,45.134165 71.3613,46.075265 C71.6447,45.823965 71.9762,45.610065 72.3505,45.433665 L72.404,45.406865 L72.4361,45.460365 C72.5591,45.679565 72.6446,45.909465 72.6981,46.144765 C72.789,45.818565 72.928,45.503165 73.1045,45.203665 L73.1258,45.171665 L73.1633,45.171665 C73.174,45.171665 73.1829,45.171665 73.19,45.171665 C73.6178,45.171665 74.0509,45.385465 74.3129,45.727665 C74.4786,45.941565 74.5695,46.182165 74.6337,46.417465 L74.8208,45.198365 L75.6871,46.770365 C75.8689,46.257065 75.9223,45.711665 75.8421,45.187665 L75.9705,45.160965 C76.0934,45.626065 76.6388,46.011065 77.2644,46.075265 C77.3019,46.080565 77.3286,46.112665 77.3286,46.150165 C77.3233,46.182165 77.2912,46.208965 77.2537,46.208965 C76.7351,46.155465 76.2645,45.893465 76.0079,45.545865 C76.0293,46.016465 75.9437,46.497665 75.7619,46.952165 L75.7085,47.080465 L74.8957,45.604765 L74.6551,47.123265 L74.5802,46.775765 C74.5054,46.444165 74.4305,46.101965 74.2059,45.807865 C73.976,45.503165 73.5803,45.305265 73.2007,45.305265 C72.9761,45.684965 72.8264,46.096665 72.7462,46.508365 C72.7569,46.732965 72.7355,46.952165 72.682,47.171365 L72.5537,47.700765 L72.5484,47.155365 C72.5484,46.937865 72.5698,46.720465 72.6125,46.503065 C72.5911,46.187565 72.5056,45.872065 72.3505,45.583365 C71.9709,45.765165 71.634,45.995065 71.356,46.267765 L71.2544,46.363965 L71.2437,46.224965 C71.1688,45.305265 70.9336,44.401665 70.5432,43.530065 L69.6824,46.118065 C69.6449,46.235665 69.5433,46.380065 69.4097,46.438865 C69.3348,46.476265 69.2492,46.476265 69.1744,46.444165 L69.137,46.428165 L68.8803,43.455265 C68.5969,44.952365 67.6933,46.396065 66.3351,47.492265 C66.2014,47.599165 65.8967,47.813065 65.5865,47.813065 Z" id="Path" fill="#05293C" fill-rule="nonzero"></path>
            <path d="M82.4831,50.219365 C81.8682,50.219365 81.2372,49.994765 80.7827,49.588365 C80.3977,49.251565 80.1945,48.839765 80.2052,48.428065 C80.2266,47.422865 81.4458,46.529865 82.8092,46.519165 C82.8467,46.524565 82.8734,46.551265 82.8734,46.588765 C82.8788,46.626165 82.8467,46.652865 82.8092,46.652865 C81.5367,46.663565 80.355,47.513765 80.3389,48.433465 C80.3282,48.802365 80.5207,49.176665 80.8736,49.486765 C81.3869,49.941265 82.1302,50.165865 82.8092,50.064265 C83.0445,50.032165 83.2156,49.968065 83.3386,49.882465 C83.6166,49.684665 83.6327,49.347765 83.622,49.048365 C83.5953,48.107265 83.5204,47.166165 83.3974,46.225165 C83.3119,46.214465 83.2281,46.201965 83.1461,46.187665 L83.0873,46.176965 L83.0873,46.118165 C83.0926,45.808065 83.0552,45.369565 83.0231,44.947165 C82.9857,44.524765 82.9536,44.080965 82.9536,43.760165 L82.9643,43.193365 L83.0873,43.749465 C83.2637,44.530065 83.4081,45.316165 83.5151,46.107465 C83.8519,46.155565 84.1781,46.166265 84.4668,46.091465 C84.5043,45.706465 84.7342,45.251965 84.9374,44.845565 C85.055,44.615665 85.1673,44.396465 85.2314,44.203965 L85.317,43.974065 L85.3598,44.214665 C85.4239,44.551465 85.4935,44.925765 85.4132,45.289365 C85.3223,45.695765 85.0283,46.032665 84.6326,46.176965 C84.6183,46.184165 84.6058,46.189465 84.5951,46.193065 C84.5916,46.228665 84.5916,46.262565 84.5951,46.294665 C84.6058,46.358765 84.6165,46.396265 84.6486,46.417565 C84.7181,46.460365 84.8358,46.428265 84.9213,46.401565 C85.4828,46.219765 86.0602,46.032665 86.5308,45.733165 C87.012,45.423065 87.3007,45.011365 87.3061,44.626365 L87.3061,44.567565 L87.4398,44.567565 C87.4398,44.585365 87.4398,44.604965 87.4398,44.626365 L87.4505,45.369565 C88.0868,44.941865 88.5306,44.348265 88.6803,43.717365 L88.8086,43.744065 C88.7124,44.310865 88.7605,44.899065 88.9423,45.455165 L90.648,43.589065 L90.6694,43.583665 C90.9207,43.551565 91.1559,43.701365 91.327,44.016765 L92.1238,45.460465 C92.3056,45.016665 92.4072,44.556865 92.4178,44.091665 L92.4232,43.984665 L92.5194,44.032865 C92.6745,44.113065 92.7654,44.257365 92.7654,44.401765 C92.7654,44.439165 92.7387,44.471265 92.7012,44.471265 C92.6638,44.471265 92.6317,44.439165 92.6317,44.401765 C92.6317,44.337565 92.5996,44.273465 92.5462,44.219965 C92.5194,44.706565 92.3965,45.182465 92.1933,45.642265 L92.1345,45.765265 L91.2094,44.080965 C91.1292,43.936565 90.9581,43.695965 90.7121,43.717365 L88.8888,45.706465 L88.8514,45.604865 C88.6963,45.166365 88.6161,44.706565 88.6268,44.252065 C88.3862,44.754665 87.9638,45.209165 87.4184,45.546065 L87.3221,45.610165 L87.3114,45.102265 C87.1778,45.374965 86.9318,45.631565 86.6003,45.845465 C86.1137,46.155565 85.5309,46.342765 84.9587,46.529865 C84.8411,46.567365 84.6914,46.599365 84.5791,46.529865 C84.4829,46.471065 84.4722,46.364165 84.4668,46.310665 C84.4633,46.285665 84.4615,46.258965 84.4615,46.230465 C84.1727,46.299965 83.8573,46.289265 83.5311,46.246465 C83.6541,47.176865 83.7289,48.112665 83.7557,49.042965 C83.7664,49.401265 83.7343,49.764865 83.4135,49.989465 C83.2744,50.090965 83.0819,50.160565 82.8306,50.197965 C82.7166,50.212265 82.6007,50.219365 82.4831,50.219365 Z M83.221,46.064665 C83.2744,46.071865 83.3261,46.080765 83.376,46.091465 C83.3083,45.588865 83.2263,45.089765 83.1301,44.594265 C83.1372,44.708365 83.1461,44.822365 83.1568,44.936465 C83.1889,45.337465 83.221,45.749265 83.221,46.064665 Z M85.2689,44.465965 C85.2101,44.604965 85.1352,44.754665 85.055,44.909765 C84.8679,45.284065 84.6593,45.695765 84.6058,46.043265 C84.948,45.909665 85.1994,45.615565 85.2849,45.257265 C85.3437,45.000665 85.317,44.733265 85.2689,44.465965 Z" id="Shape" fill="#05293C"></path>
            <path d="M96.0804,47.882465 L95.4923,46.738265 C95.0806,47.005565 94.6421,47.240865 94.1716,47.438665 L94.1127,47.460065 L94.086,47.406565 C93.6369,46.465565 93.7438,45.385465 94.3747,44.508465 L94.4389,44.422965 L95.5404,46.545765 C95.7044,46.435265 95.863,46.319365 96.0163,46.198165 C96.0858,44.203765 96.1286,42.193265 96.1393,40.209465 C96.1393,40.054465 96.1018,39.787065 95.8612,39.754965 C95.8238,39.749665 95.7971,39.717565 95.8024,39.680165 C95.8077,39.642765 95.8398,39.621365 95.8773,39.621365 C96.1286,39.653465 96.2729,39.872665 96.2729,40.209465 C96.2622,42.161165 96.2248,44.128865 96.1553,46.080565 C96.8665,45.487065 97.4225,44.786565 97.7754,44.032665 L97.9038,43.759965 L97.9038,44.059365 C97.9038,44.326765 97.9572,44.588765 98.0642,44.845365 C98.6898,44.717065 99.2084,44.326665 99.3635,43.850865 L99.4116,43.695765 L100.593,46.150065 L100.797,45.700865 C100.807,45.668865 100.85,45.652765 100.882,45.668765 C100.914,45.684865 100.93,45.722265 100.914,45.759765 L100.599,46.470865 L99.4277,44.037965 C99.2084,44.503165 98.6684,44.877465 98.0374,44.984365 L97.984,44.995065 L97.9626,44.946965 C97.8699,44.740165 97.8111,44.528165 97.7861,44.310665 C97.4065,45.032565 96.8451,45.695565 96.1446,46.262365 C96.1303,46.718665 96.1125,47.174865 96.0911,47.631165 L96.0804,47.882465 Z M95.6046,46.663365 L95.9682,47.374565 C95.9824,47.039465 95.9967,46.704365 96.0109,46.369265 C95.879,46.472665 95.7436,46.570665 95.6046,46.663365 Z M94.4229,44.679665 C93.8882,45.476365 93.7973,46.438765 94.1823,47.288965 C94.6261,47.096465 95.0431,46.871865 95.4281,46.620565 L94.4229,44.679665 Z" id="Shape" fill="#05293C"></path>
            <path d="M186.772,67.212165 L171.271,67.212165 C171.041,67.212165 170.821,67.292365 170.645,67.436765 L168.725,68.998065 C168.073,69.527465 167.095,69.056865 167.105,68.217365 C167.116,67.666665 166.667,67.212165 166.116,67.212165 L165.341,67.212165 C164.795,67.212165 164.352,66.768365 164.352,66.222965 L164.352,54.539765 C164.352,53.988965 164.795,53.545165 165.341,53.545165 L186.772,53.545165 C187.317,53.545165 187.766,53.988965 187.766,54.539765 L187.766,66.222965 C187.766,66.768365 187.317,67.212165 186.772,67.212165 Z" id="Path" fill="#FF8380" fill-rule="nonzero"></path>
            <path d="M110.336,22.505665 L102.909,22.505665 L102.877,22.425465 C102.738,22.088665 99.4338,14.169665 99.4338,11.597765 C99.4338,7.635625 102.658,4.411375 106.626,4.411375 C110.588,4.411375 113.812,7.635625 113.812,11.597765 C113.812,14.169665 110.513,22.088665 110.374,22.425465 L110.336,22.505665 Z M103.086,22.238365 L110.155,22.238365 C110.513,21.372165 113.545,13.977165 113.545,11.597765 C113.545,7.779995 110.438,4.673375 106.62,4.673375 C102.802,4.673375 99.7012,7.779995 99.7012,11.597765 C99.7012,13.977165 102.728,21.372165 103.086,22.238365 Z" id="Shape" fill="#FFFFFF"></path>
            <path d="M109.732,26.034465 L103.519,26.034465 C102.819,26.034465 102.247,25.462365 102.247,24.767265 C102.247,24.066765 102.819,23.499965 103.519,23.499965 L109.732,23.499965 C110.433,23.499965 111,24.066765 111,24.767265 C111,25.462365 110.433,26.034465 109.732,26.034465 Z M103.519,23.767365 C102.963,23.767365 102.514,24.216465 102.514,24.767265 C102.514,25.317965 102.963,25.767165 103.519,25.767165 L109.732,25.767165 C110.283,25.767165 110.732,25.317965 110.732,24.767265 C110.732,24.216465 110.283,23.767365 109.732,23.767365 L103.519,23.767365 Z" id="Shape" fill="#FFFFFF"></path>
            <path d="M106.669,2.951555 L106.583,2.951555 C106.353,2.951555 106.166,2.764405 106.166,2.534485 L106.166,0.417065 C106.166,0.187145 106.353,-1.33226763e-15 106.583,-1.33226763e-15 L106.669,-1.33226763e-15 C106.899,-1.33226763e-15 107.086,0.187145 107.086,0.417065 L107.086,2.534485 C107.086,2.764405 106.899,2.951555 106.669,2.951555 Z M106.583,0.267355 C106.498,0.267355 106.433,0.336855 106.433,0.417065 L106.433,2.534485 C106.433,2.620035 106.498,2.684205 106.583,2.684205 L106.669,2.684205 C106.749,2.684205 106.818,2.620035 106.818,2.534485 L106.818,0.417065 C106.818,0.336855 106.749,0.267355 106.669,0.267355 L106.583,0.267355 Z" id="Shape" fill="#FFFFFF"></path>
            <path d="M113.379,4.908775 C113.267,4.908775 113.165,4.860655 113.085,4.785795 L113.021,4.721635 C112.946,4.641425 112.898,4.539835 112.898,4.427545 C112.898,4.315255 112.946,4.213665 113.021,4.133455 L114.523,2.630945 C114.679,2.475885 114.951,2.475885 115.112,2.630945 L115.176,2.695105 C115.251,2.775315 115.293,2.876905 115.293,2.989195 C115.293,3.101485 115.251,3.208425 115.176,3.283285 L113.673,4.785795 C113.598,4.860655 113.491,4.903435 113.379,4.908775 Z M113.213,4.320605 C113.155,4.379425 113.155,4.475665 113.213,4.534485 L113.272,4.593305 C113.304,4.625385 113.342,4.641425 113.379,4.641425 C113.422,4.641425 113.459,4.625385 113.486,4.593305 L114.983,3.096135 C115.015,3.069395 115.031,3.031975 115.031,2.989195 C115.031,2.951765 115.015,2.914345 114.983,2.887605 L114.924,2.823435 C114.866,2.764625 114.769,2.764625 114.711,2.823435 L113.213,4.320605 Z" id="Shape" fill="#FFFFFF"></path>
            <path d="M116.004,10.544265 C115.833,10.544265 115.667,10.437265 115.609,10.266165 L115.582,10.185965 C115.545,10.079065 115.55,9.966765 115.598,9.865165 C115.646,9.763565 115.732,9.688765 115.839,9.651265 L117.838,8.950835 C117.94,8.913405 118.052,8.918755 118.154,8.966875 C118.255,9.014995 118.33,9.100555 118.368,9.207465 L118.394,9.287665 C118.432,9.394665 118.427,9.506965 118.378,9.608565 C118.33,9.704765 118.245,9.784965 118.143,9.817065 L116.143,10.522865 C116.097,10.537165 116.051,10.544265 116.004,10.544265 Z M117.977,9.191465 C117.96,9.191465 117.942,9.195065 117.924,9.202165 L115.924,9.902565 C115.887,9.918665 115.855,9.945365 115.839,9.982765 C115.823,10.014865 115.817,10.057665 115.833,10.095065 L115.86,10.175265 C115.892,10.255465 115.978,10.298265 116.052,10.271565 L118.052,9.565765 C118.09,9.555065 118.122,9.528365 118.138,9.490865 C118.154,9.453465 118.159,9.416065 118.143,9.378565 L118.116,9.293065 C118.1,9.255565 118.074,9.223565 118.042,9.207465 C118.02,9.196765 117.999,9.191465 117.977,9.191465 Z" id="Shape" fill="#FFFFFF"></path>
            <path d="M117.48,16.853965 C117.456,16.853965 117.431,16.852165 117.406,16.848565 L115.32,16.458265 C115.096,16.415465 114.946,16.196265 114.989,15.971665 L115.005,15.886165 C115.048,15.656265 115.267,15.506465 115.491,15.549265 L117.577,15.939665 C117.684,15.960965 117.78,16.025165 117.844,16.116065 C117.903,16.206965 117.93,16.319265 117.908,16.426165 L117.892,16.511765 C117.855,16.714965 117.678,16.853965 117.48,16.853965 Z M115.417,15.811265 C115.347,15.811265 115.283,15.859365 115.267,15.934265 L115.251,16.019865 C115.245,16.057265 115.251,16.100065 115.277,16.132065 C115.299,16.164165 115.331,16.185565 115.368,16.196265 L117.454,16.586565 C117.534,16.597265 117.614,16.543865 117.63,16.463665 L117.646,16.378065 C117.652,16.340665 117.646,16.297865 117.619,16.265765 C117.598,16.233665 117.566,16.212365 117.529,16.201665 L115.443,15.811265 C115.433,15.811265 115.424,15.811265 115.417,15.811265 Z" id="Shape" fill="#FFFFFF"></path>
            <path d="M99.8727,4.908715 C99.7604,4.908715 99.6535,4.860595 99.5733,4.785735 L98.0761,3.283215 C97.9959,3.208355 97.9531,3.101415 97.9531,2.989125 C97.9531,2.876835 97.9959,2.775245 98.0761,2.695045 L98.1403,2.636225 C98.3007,2.470465 98.568,2.470465 98.7284,2.630875 L100.226,4.133395 C100.391,4.293805 100.391,4.561155 100.226,4.721565 L100.167,4.785735 C100.087,4.860595 99.9796,4.908715 99.8727,4.908715 Z M98.4344,2.780595 C98.3969,2.780595 98.3595,2.791285 98.3274,2.823375 L98.2686,2.882185 C98.2365,2.914265 98.2205,2.951695 98.2205,2.989125 C98.2205,3.031905 98.2365,3.069335 98.2633,3.096065 L99.7658,4.593235 C99.8192,4.652055 99.9208,4.652055 99.9743,4.593235 L100.038,4.534415 C100.097,4.475605 100.097,4.379355 100.038,4.320535 L98.5413,2.823375 C98.5092,2.791285 98.4718,2.780595 98.4344,2.780595 Z" id="Shape" fill="#FFFFFF"></path>
            <path d="M97.2472,10.544265 C97.2008,10.544265 97.1545,10.537165 97.1082,10.522865 L95.1084,9.817065 C95.0014,9.784965 94.9159,9.704765 94.8678,9.608565 C94.8196,9.506965 94.8143,9.394665 94.8517,9.287665 L94.8838,9.207465 C94.9212,9.100555 94.9961,9.014995 95.0923,8.966875 C95.1939,8.918755 95.3062,8.913405 95.4131,8.950835 L97.4129,9.651265 C97.5199,9.688765 97.6001,9.763565 97.6535,9.865165 C97.7017,9.966765 97.707,10.079065 97.6696,10.185965 L97.6375,10.266165 C97.5787,10.437265 97.4183,10.544265 97.2472,10.544265 Z M95.2741,9.191465 C95.2527,9.191465 95.2313,9.196765 95.21,9.207465 C95.1725,9.223565 95.1458,9.255565 95.1351,9.293065 L95.103,9.378565 C95.0763,9.453465 95.1191,9.538965 95.1939,9.565765 L97.199,10.271565 C97.2739,10.298265 97.3595,10.255465 97.3862,10.175265 L97.4183,10.095065 C97.429,10.057665 97.429,10.014865 97.4076,9.982765 C97.3915,9.945365 97.3648,9.918665 97.3274,9.902565 L97.322,9.902565 L95.3223,9.202165 C95.308,9.195065 95.2919,9.191465 95.2741,9.191465 Z" id="Shape" fill="#FFFFFF"></path>
            <path d="M95.7661,16.853965 C95.5736,16.853965 95.3972,16.714965 95.3598,16.511765 L95.3437,16.426165 C95.3223,16.319265 95.3437,16.206965 95.4079,16.116065 C95.472,16.025165 95.5629,15.960965 95.6752,15.939665 L97.7606,15.549265 C97.9851,15.506465 98.2044,15.656265 98.2472,15.886165 L98.2632,15.971665 C98.2792,16.078665 98.2578,16.190965 98.1937,16.281865 C98.1349,16.372765 98.0386,16.436865 97.9263,16.458265 L95.8463,16.848565 C95.8178,16.852165 95.7911,16.853965 95.7661,16.853965 Z M97.8087,15.811265 L95.7234,16.201665 C95.6859,16.212365 95.6485,16.233665 95.6271,16.265765 C95.6057,16.297865 95.595,16.340665 95.6057,16.378065 L95.6218,16.463665 C95.6378,16.543865 95.7127,16.597265 95.7929,16.586565 L97.8782,16.196265 C97.9156,16.185565 97.9531,16.164165 97.9744,16.132065 C97.9958,16.100065 98.0065,16.057265 97.9958,16.019865 L97.9798,15.934265 C97.9691,15.854065 97.8889,15.800565 97.8087,15.811265 Z" id="Shape" fill="#FFFFFF"></path>
            <path d="M109.732,29.189465 L103.519,29.189465 C102.819,29.189465 102.247,28.622765 102.247,27.922265 C102.247,27.221765 102.819,26.655065 103.519,26.655065 L109.732,26.655065 C110.433,26.655065 111,27.221765 111,27.922265 C111,28.622765 110.433,29.189465 109.732,29.189465 Z M103.519,26.922365 C102.963,26.922365 102.514,27.371565 102.514,27.922265 C102.514,28.472965 102.963,28.922165 103.519,28.922165 L109.732,28.922165 C110.283,28.922165 110.732,28.472965 110.732,27.922265 C110.732,27.371565 110.283,26.922365 109.732,26.922365 L103.519,26.922365 Z" id="Shape" fill="#FFFFFF"></path>
            <path d="M106.626,22.505665 C106.289,22.505665 106.011,22.232965 106.011,21.890665 L106.011,13.624165 C106.011,13.287365 106.289,13.014665 106.626,13.014665 C106.963,13.014665 107.241,13.287365 107.241,13.624165 L107.241,21.890665 C107.241,22.232965 106.963,22.505665 106.626,22.505665 Z M106.626,13.281965 C106.433,13.281965 106.278,13.437065 106.278,13.624165 L106.278,21.890665 C106.278,22.083165 106.433,22.238265 106.626,22.238265 C106.818,22.238265 106.973,22.083165 106.973,21.890665 L106.973,13.624165 C106.973,13.437065 106.818,13.281965 106.626,13.281965 Z" id="Shape" fill="#FFFFFF"></path>
            <path d="M72.7249,59.795865 C72.7178,59.795865 72.7107,59.794065 72.7036,59.790465 C64.9664,57.277365 59.5231,52.796565 56.5288,46.481765 C53.3206,39.707065 53.5505,32.007365 54.3098,26.740465 C55.1332,21.035265 56.732,16.875265 56.748,16.832465 C56.7641,16.800365 56.8015,16.784365 56.8389,16.795065 C56.871,16.811065 56.8871,16.848565 56.8764,16.880565 C56.8603,16.923365 55.2616,21.072665 54.4435,26.761865 C53.6842,32.012665 53.4543,39.680365 56.6518,46.428265 C59.6301,52.705665 65.0413,57.159765 72.7463,59.662165 C72.7784,59.678165 72.7998,59.715565 72.7891,59.747665 C72.7784,59.774465 72.7517,59.795865 72.7249,59.795865 Z" id="Path" fill="#FFFFFF" fill-rule="nonzero"></path>
            <path d="M10.5072,60.399965 C10.5072,60.399965 10.5054,60.399965 10.5019,60.399965 C10.4645,60.399965 10.4377,60.362565 10.4431,60.330465 C11.5125,47.016365 15.3249,35.632565 21.7788,26.499865 C26.944,19.190465 33.7989,13.298065 42.1509,8.983015 C56.3687,1.630855 70.1961,1.411625 70.3351,1.411625 C70.3725,1.411625 70.4046,1.438355 70.4046,1.475785 C70.4046,1.513215 70.3725,1.545295 70.3404,1.545295 C70.2014,1.545295 56.4007,1.764525 42.2097,9.100645 C29.1095,15.869965 12.9936,30.253465 10.5767,60.341165 C10.5714,60.373265 10.5447,60.399965 10.5072,60.399965 Z" id="Path" fill="#FFFFFF" fill-rule="nonzero"></path>
            <path d="M20.0409,48.401165 C19.8644,48.588365 19.7789,48.839665 19.7895,49.096365 L19.8484,50.668365 C19.8804,51.427565 19.0784,51.924865 18.4154,51.571965 L17.0251,50.828765 C16.8006,50.705765 16.5332,50.679065 16.2872,50.753865 C12.5604,51.892765 8.3683,50.358165 6.35782,46.738265 C4.23505,42.925865 5.39536,38.044065 9.0046,35.589765 C13.0149,32.852065 18.4581,34.023065 21.014,38.097465 C23.0994,41.428665 22.5967,45.652865 20.0409,48.401165 Z" id="Path" fill="#C43A37" fill-rule="nonzero"></path>
            <path d="M85.5791,99.192865 C85.5524,99.192865 85.5257,99.170865 85.515,99.144565 L82.2266,87.771465 L96.2625,87.771465 C96.2946,87.771465 96.3267,87.798265 96.3267,87.835665 C96.3267,87.873065 96.2946,87.905165 96.2625,87.905165 L82.4084,87.905165 L85.6433,99.107165 C85.654,99.144565 85.638,99.181865 85.6005,99.187865 C85.5934,99.190865 85.5863,99.192865 85.5791,99.192865 Z" id="Path" fill="#FFFFFF" fill-rule="nonzero"></path>
            <path d="M107.085,79.643965 C102.535,79.643965 96.6849,78.114765 90.8352,72.334565 C90.8085,72.313165 90.8085,72.270465 90.8352,72.243665 C90.862,72.216965 90.9048,72.216965 90.9315,72.243665 C98.0858,79.312465 105.235,79.986165 109.978,79.301765 C115.116,78.563865 118.608,76.120265 118.64,76.093565 C118.672,76.072165 118.715,76.077465 118.736,76.109565 C118.757,76.141665 118.752,76.179065 118.72,76.200465 C118.683,76.227265 115.17,78.686865 110.004,79.435465 C109.111,79.563765 108.133,79.643965 107.085,79.643965 Z" id="Path" fill="#FFFFFF" fill-rule="nonzero"></path>
        </g>
    </g>
</svg>