<?xml version="1.0" encoding="UTF-8"?>
<svg width="200px" height="156px" viewBox="0 0 200 156" version="1.1" xmlns="http://www.w3.org/2000/svg" xmlns:xlink="http://www.w3.org/1999/xlink">
    <title>Group 1</title>
    <defs>
        <linearGradient x1="50.33535%" y1="51.7680337%" x2="43.3249141%" y2="52.0365572%" id="linearGradient-1">
            <stop stop-color="#921914" offset="0%"></stop>
            <stop stop-color="#921914" offset="100%"></stop>
        </linearGradient>
        <linearGradient x1="133.31915%" y1="36.6377564%" x2="45.5967468%" y2="121.83222%" id="linearGradient-2">
            <stop stop-color="#FFFFFF" offset="0%"></stop>
            <stop stop-color="#F36F56" offset="100%"></stop>
        </linearGradient>
        <linearGradient x1="88.3819374%" y1="58.2331279%" x2="46.6902975%" y2="143.911354%" id="linearGradient-3">
            <stop stop-color="#FFFFFF" offset="0%"></stop>
            <stop stop-color="#F36F56" offset="100%"></stop>
        </linearGradient>
        <linearGradient x1="77.4619008%" y1="56.8532695%" x2="47.0125065%" y2="136.564034%" id="linearGradient-4">
            <stop stop-color="#FFFFFF" offset="0%"></stop>
            <stop stop-color="#F36F56" offset="100%"></stop>
        </linearGradient>
    </defs>
    <g id="Page-1" stroke="none" stroke-width="1" fill="none" fill-rule="evenodd">
        <g id="Group-1" transform="translate(0.000000, 0.375244)" fill-rule="nonzero">
            <path d="M16.9006,147.10501 C6.25434,131.92601 0,113.44301 0,93.49401 C0,41.85701 41.8699,0 93.5162,0 C145.163,0 187.027,41.85701 187.027,93.49401 C187.027,113.44301 180.778,131.92601 170.132,147.10501 L16.9006,147.10501 Z" id="Path" fill="#FCC7AB"></path>
            <path d="M192.697,125.06901 C192.697,126.43301 191.798,127.56401 190.63,127.66801 L60.3999,138.64901 C59.7632,138.70101 59.1116,138.67101 58.4749,138.55901 L4.79353,128.92701 C3.67002,128.72401 2.83862,127.59301 2.83862,126.26801 L2.83862,121.37701 L192.697,123.02501 L192.697,125.06901 Z" id="Path" fill="url(#linearGradient-1)"></path>
            <path d="M131.578,115.10001 L4.92841,124.05101 C2.66641,124.20801 0.823853,122.50801 0.823853,120.24601 L0.823853,29.70551 C0.823853,27.44351 2.66641,25.61601 4.92841,25.61601 L131.578,25.61601 C133.451,25.61601 134.956,27.27131 134.956,29.31611 L134.956,111.16001 C134.956,113.20501 133.451,114.96501 131.578,115.10001 Z" id="Path" fill="#B22E28"></path>
            <path d="M133.6,115.10001 L6.95067,124.05101 C4.68118,124.20801 2.83862,122.50801 2.83862,120.24601 L2.83862,29.70551 C2.83862,27.44351 4.68118,25.61601 6.95067,25.61601 L133.6,25.61601 C135.465,25.61601 136.978,27.27131 136.978,29.31611 L136.978,111.16001 C136.978,113.20501 135.465,114.96501 133.6,115.10001 Z" id="Path" fill="#B22E28"></path>
            <path d="M129.653,109.32501 L11.6918,117.10001 C9.84921,117.22001 8.3512,115.82601 8.3512,113.98401 L8.3512,34.71651 C8.3512,32.86641 9.84921,31.36841 11.6918,31.36091 L129.653,30.8739798 C131.196,30.86661 132.439,32.22231 132.439,33.90001 L132.439,106.09701 C132.439,107.78201 131.196,109.22801 129.653,109.32501 Z" id="Path" fill="url(#linearGradient-2)"></path>
            <path d="M132.469,114.75501 L192.697,123.02401 L60.3999,134.18501 C59.7632,134.23701 59.1116,134.20701 58.4749,134.09501 L2.83862,124.11101 L130.44,114.68801 C131.114,114.64301 131.795,114.66601 132.469,114.75501 Z" id="Path" fill="#B22E28"></path>
            <path d="M98.2023,73.03591 C98.2023,84.46571 89.0494,93.73101 77.7619,93.73101 C66.4818,93.73101 57.329,84.46571 57.329,73.03591 C57.329,61.60601 66.4818,52.34081 77.7619,52.34081 C89.0494,52.34081 98.2023,61.60601 98.2023,73.03591 Z" id="Path" fill="#FFFFFF"></path>
            <path d="M77.0427,84.18851 C76.1588,84.18851 75.3349,83.71661 74.878,82.94511 L67.1932,69.98731 C66.4742,68.77391 66.8562,67.19351 68.0546,66.46691 C69.253,65.74041 70.8109,66.12991 71.53,67.34331 L76.8629,76.33891 L83.9186,62.31001 C84.5477,61.04411 86.0757,60.54231 87.3191,61.18641 C88.5624,61.83061 89.0568,63.37351 88.4276,64.63191 L79.2972,82.78781 C78.8852,83.61921 78.0538,84.15101 77.1326,84.18101 C77.1026,84.18601 77.0726,84.18851 77.0427,84.18851 Z" id="Path" fill="#FDCB18"></path>
            <polygon id="Path" fill="#B22E28" opacity="0.3" style="mix-blend-mode: multiply;" points="21.459 124.35001 127.691 116.38801 160.565 120.86701 55.2542 129.37601"></polygon>
            <g id="Group" opacity="0.5" style="mix-blend-mode: soft-light;" transform="translate(2.838620, 25.616010)" fill="#FFFFFF">
                <path d="M114.07338,81.582 C117.78138,84.855 123.58638,88.023 133.03838,88.368 C132.67938,88.907 132.11738,89.274 131.48038,89.319 L2.40432,98.479 C1.07857,98.577 -5.77315973e-15,97.581 -5.77315973e-15,96.255 L-5.77315973e-15,2.4043 C-5.77315973e-15,1.071 1.07857,-7.10542736e-15 2.40432,-7.10542736e-15 L9.97678,-7.10542736e-15 C10.93548,4.1794 12.76308,8.1042 16.10368,10.8081 C23.84088,17.0698 32.60428,11.0254 40.73848,17.5567 C47.43468,22.9421 43.54728,28.7768 51.32198,36.2744 C57.47878,42.2065 61.46358,39.997 67.58298,46.5807 C73.11058,52.5353 70.90858,55.5014 75.39508,59.4861 C82.80278,66.0549 90.48008,59.3963 100.24738,64.6468 C108.07438,68.8637 106.81638,75.178 114.07338,81.582 Z" id="Path"></path>
            </g>
            <path d="M174.114,72.85581 L174.114,143.54701 C174.114,144.60301 172.953,144.91001 171.642,145.03801 L126.26,150.11601 L125.571,150.18301 C124.148,150.31801 122.979,149.53201 122.979,148.42301 L122.979,74.56351 C122.979,73.45501 124.148,72.51881 125.571,72.47381 L126.507,72.44391 L172.054,72.59371 C173.365,72.54871 174.114,71.79971 174.114,72.85581 Z" id="Path" fill="#A2231E"></path>
            <path d="M175.515,72.78091 L175.515,143.44201 C175.515,144.50601 174.444,145.47201 173.133,145.59901 L126.994,150.07901 C125.571,150.22101 124.402,149.42701 124.402,148.32601 L124.402,74.48121 C124.402,73.37271 125.571,72.43641 126.994,72.39151 L173.133,70.93091 C174.444,70.89341 175.515,71.72481 175.515,72.78091 Z" id="Path" fill="#A2231E"></path>
            <path d="M174.032,76.75081 L174.032,142.23601 C174.032,143.21801 173.036,144.12401 171.807,144.24401 L128.425,148.40101 C127.099,148.52801 126.013,147.78701 126.013,146.76001 L126.013,78.51091 C126.013,77.48481 127.099,76.60101 128.425,76.55601 L171.807,75.03551 C173.036,74.99061 174.032,75.76211 174.032,76.75081 Z" id="Path" fill="url(#linearGradient-3)"></path>
            <path d="M167.118,105.50501 C167.118,114.35101 159.995,121.99801 151.172,122.59001 C142.319,123.18201 135.128,116.44801 135.128,107.54301 C135.128,98.64441 142.319,90.98961 151.172,90.45031 C159.995,89.91851 167.118,96.65961 167.118,105.50501 Z" id="Path" fill="#FFFFFF"></path>
            <path d="M150.61,115.21201 C149.914,115.25701 149.27,114.93501 148.91,114.35801 L142.881,104.67401 C142.311,103.76701 142.618,102.52401 143.562,101.90201 C144.498,101.27301 145.719,101.50501 146.281,102.41201 L150.468,109.13001 L155.988,97.89521 C156.483,96.88401 157.674,96.41961 158.64,96.86161 C159.613,97.29601 160.003,98.47191 159.509,99.47601 L152.371,114.01401 C152.048,114.68001 151.397,115.13701 150.678,115.21201 C150.658,115.21201 150.635,115.21201 150.61,115.21201 Z" id="Path" fill="#FDCB18"></path>
            <g id="Group" opacity="0.5" style="mix-blend-mode: soft-light;" transform="translate(124.402000, 72.121810)" fill="#FFFFFF">
                <g style="mix-blend-mode: soft-light;" id="Path">
                    <path d="M35.369,63.8232 C35.796,66.9392 36.971,70.5342 39.72,74.3542 L2.592,77.9572 C1.169,78.0992 1.42108547e-14,77.3052 1.42108547e-14,76.2042 L1.42108547e-14,2.3594 C1.42108547e-14,1.2509 1.169,0.3146 2.592,0.2697 L11.086,1.42108547e-14 C13.842,2.8313 16.284,6.434 17.392,10.958 C19.04,17.6466 16.306,20.2457 18.508,25.7209 C22.194,34.9112 31.998,32.8962 36.2,41.3232 C39.923,48.8052 34.058,54.1532 35.369,63.8232 Z"></path>
                </g>
            </g>
            <path d="M199.243,102.41901 L199.243,151.20201 C199.243,151.92901 198.622,152.13101 197.91,152.20601 L173.56,155.22401 L173.185,155.26201 C172.429,155.34401 171.8,154.78201 171.8,154.02601 L171.8,103.28101 C171.8,102.52401 172.429,101.88001 173.185,101.85701 L173.687,101.84301 L198.135,102.22501 C198.839,102.20201 199.243,101.69301 199.243,102.41901 Z" id="Path" fill="#A2231E"></path>
            <path d="M200,102.37401 L200,151.15001 C200,151.87601 199.416,152.53501 198.712,152.61001 L173.949,155.20901 C173.185,155.28401 172.564,154.73001 172.564,153.97301 L172.564,103.23601 C172.564,102.47201 173.185,101.83501 173.949,101.81301 L198.712,101.08601 C199.416,101.06401 200,101.64001 200,102.37401 Z" id="Path" fill="#A2231E"></path>
            <path d="M199.198,105.10101 L199.198,150.29601 C199.198,150.97701 198.659,151.59201 198,151.65901 L174.713,154.06301 C174.009,154.13801 173.425,153.62101 173.425,152.91701 L173.425,106.01401 C173.425,105.31001 174.009,104.71101 174.713,104.68901 L198,103.90201 C198.659,103.88001 199.198,104.41901 199.198,105.10101 Z" id="Path" fill="url(#linearGradient-4)"></path>
            <path d="M196.45,125.18901 C196.45,130.45501 192.233,135.01601 187.012,135.37601 C181.784,135.73501 177.537,131.73601 177.537,126.45501 C177.537,121.16701 181.784,116.60601 187.012,116.26101 C192.233,115.92401 196.45,119.91601 196.45,125.18901 Z" id="Path" fill="#FFFFFF"></path>
            <path d="M186.675,130.98701 C186.271,131.01701 185.889,130.82901 185.671,130.48501 L182.114,124.73201 C181.776,124.20101 181.956,123.45901 182.51,123.08501 C183.065,122.71001 183.791,122.84501 184.121,123.38401 L186.593,127.37601 L189.858,120.68001 C190.15,120.07401 190.854,119.79601 191.431,120.05901 C192.008,120.31301 192.233,121.01001 191.941,121.61601 L187.724,130.27501 C187.529,130.67201 187.147,130.94201 186.72,130.98701 C186.705,130.98701 186.69,130.98701 186.675,130.98701 Z" id="Path" fill="#FDCB18"></path>
            <g id="Group" opacity="0.5" style="mix-blend-mode: soft-light;" transform="translate(172.564000, 101.700010)" fill="#FFFFFF">
                <g style="mix-blend-mode: soft-light;" id="Path">
                    <path d="M18.021,45.098 C18.231,46.918 18.845,49.113 20.373,51.517 L1.385,53.51 C0.621,53.584 2.84217094e-14,53.03 2.84217094e-14,52.274 L2.84217094e-14,1.536 C2.84217094e-14,0.772 0.621,0.135 1.385,0.113 L5.16,0 C7.063,1.641 8.928,3.903 9.684,6.944 C11.033,12.374 7.587,15.115 9.13,19.804 C11.033,25.549 17.122,24.201 19.384,29.886 C21.451,35.091 17.234,38.462 18.021,45.098 Z"></path>
                </g>
            </g>
            <path d="M61.3651,115.31001 C60.6536,118.48601 60.1967,122.62001 54.3245,130.47701 L53.4781,123.21901 L55.6352,115.37701 L51.9951,108.76401 C51.4782,107.51301 50.6993,108.64401 50.6993,110.16401 L50.6993,124.61301 L39.2769,124.61301 L27.8545,124.61301 L28.1392,110.06701 C28.1392,108.53901 27.1205,108.92801 26.6262,110.55401 L23.705,116.86001 L25.0757,123.21901 L24.2293,130.47701 C18.0276,122.17801 18.4994,118.02101 17.2411,115.05501 C16.7917,113.98401 17.2786,112.92801 17.8628,111.91701 C21.4131,105.73001 23.2781,101.23601 26.9108,98.62941 C28.5436,97.46101 31.8917,96.72701 35.6442,96.43481 C36.2509,96.38241 36.7228,95.87311 36.7228,95.26641 L36.7228,93.94071 L41.8235,93.94071 L41.8235,95.23641 C41.8235,95.85811 42.3029,96.36001 42.9171,96.40491 C46.7146,96.68201 50.4895,97.58831 51.6205,98.61451 C56.1745,102.74101 57.6426,105.67801 60.8783,111.66201 C61.3876,112.61301 61.6048,114.25401 61.3651,115.31001 Z" id="Path" fill="#FFFFFF"></path>
            <path d="M25.3155,149.12801 L21.181,149.12801 C19.4732,149.12801 17.9003,148.21401 17.2037,146.78301 C17.1888,146.75301 17.1738,146.72301 17.1588,146.69301 C16.7693,145.86201 17.4584,144.94101 18.4471,144.94101 L25.3155,144.94101 L25.3155,149.12801 Z" id="Path" fill="#FFFFFF"></path>
            <path d="M50.5495,124.72501 C50.5495,124.72501 63.8294,127.37601 72.6827,130.67201 C76.1955,131.98301 77.716,135.78801 75.9408,138.86601 C73.6714,142.79801 68.6455,147.53201 57.5302,149.12701 L25.3154,149.12701 L25.3154,144.94101 L50.5495,124.72501 Z" id="Path" fill="#011721"></path>
            <path d="M25.3154,144.94101 C25.3154,144.94101 44.1904,133.48801 66.0989,136.57401 C66.0989,136.57401 38.116,138.07201 25.3154,147.03001 L25.3154,144.94101 Z" id="Path" fill="#05293C"></path>
            <path d="M38.6402,134.76201 L34.3035,138.08701 L52.2871,144.94101 L52.2871,149.12701 L25.3154,149.12701 C14.7394,146.07901 5.19703,145.42701 1.66171,138.86601 C-0.023556,135.73501 1.41454,131.97501 4.93488,130.67201 C13.8181,127.37601 27.1954,124.72501 27.1954,124.72501 L38.6402,134.76201 Z" id="Path" fill="#011721"></path>
            <path d="M52.2872,132.46201 C56.5865,133.26401 66.0989,136.57401 66.0989,136.57401 C53.2984,135.37601 38.8051,139.18101 38.8051,139.18101 L35.7267,139.30101 C28.3639,136.10201 11.5038,136.57401 11.5038,136.57401 L21.181,132.94901 L52.2872,132.46201 Z" id="Path" fill="#000B0F"></path>
            <path d="M76.5326,137.35301 C76.4127,137.86201 76.2255,138.37201 75.9409,138.86601 C73.6714,142.79801 68.6455,147.53201 57.5302,149.12701 L52.2872,149.12701 L52.2872,144.94001 L49.1414,143.74201 L49.3586,143.37501 C49.3586,143.37501 69.6342,146.52801 76.5326,137.35301 Z" id="Path" fill="#000B0F"></path>
            <path d="M52.2871,144.94101 L59.1555,144.94101 C60.1442,144.94101 60.8333,145.86201 60.4438,146.69301 C60.4288,146.72301 60.4163,146.75301 60.4064,146.78301 C59.7023,148.21401 58.1369,149.12801 56.4216,149.12801 L52.2871,149.12801 L52.2871,144.94101 Z" id="Path" fill="#FFFFFF"></path>
            <path d="M52.2872,147.03001 C39.4867,138.07201 11.5038,136.57401 11.5038,136.57401 C33.4123,133.48801 52.2872,144.94101 52.2872,144.94101 L52.2872,147.03001 Z" id="Path" fill="#05293C"></path>
            <path d="M52.2874,149.12701 L25.3156,149.12701 C14.7396,146.07901 5.19726,145.42701 1.66194,138.86601 C1.50465,138.56601 1.37732,138.25901 1.27246,137.94501 C15.2789,147.58501 52.2874,147.95901 52.2874,147.95901 L52.2874,149.12701 Z" id="Path" fill="#000B0F"></path>
            <path d="M56.6463,136.92601 L21.9074,136.92601 L18.2822,115.69201 C18.0575,114.39601 19.0612,113.21301 20.3719,113.21301 L58.1743,113.21301 C59.4926,113.21301 60.4888,114.39601 60.2715,115.69201 L56.6463,136.92601 Z" id="Path" fill="#B22E28"></path>
            <path d="M43.7935,90.20311 C44.3028,90.46521 43.4564,92.43511 43.007,93.25911 C42.0408,95.03421 40.3555,96.36741 39.247,96.36741 C38.0037,96.36741 36.4008,95.07911 35.4795,93.35641 C35.0301,92.50261 33.9965,90.98211 34.7455,90.58511 C37.3071,89.22191 36.7603,85.31961 39.247,85.31961 C41.7337,85.31961 41.1944,88.89231 43.7935,90.20311 Z" id="Path" fill="#FFFFFF"></path>
            <path d="M41.7636,125.06901 C41.7636,126.19301 40.6476,127.10601 39.2769,127.10601 C37.8987,127.10601 36.7902,126.19301 36.7902,125.06901 C36.7902,123.93801 37.8987,123.02401 39.2769,123.02401 C40.6476,123.02401 41.7636,123.93801 41.7636,125.06901 Z" id="Path" fill="#DB4D42"></path>
            <path d="M40.3853,85.31951 C40.3853,88.11331 38.1158,90.37531 35.3295,90.37531 C32.5357,90.37531 30.2737,88.11331 30.2737,85.31951 C30.2737,82.53321 32.5357,80.27121 35.3295,80.27121 C38.1158,80.27121 40.3853,82.53321 40.3853,85.31951 Z" id="Path" fill="#000B0F"></path>
            <path d="M45.3814,86.42041 C45.3814,87.97091 44.1305,89.22171 42.5801,89.22171 C41.0371,89.22171 39.7788,87.97091 39.7788,86.42041 C39.7788,84.87751 41.0371,83.61911 42.5801,83.61911 C44.1305,83.61911 45.3814,84.87751 45.3814,86.42041 Z" id="Path" fill="#000B0F"></path>
            <path d="M47.194,88.69781 C47.194,90.24821 45.9357,91.50661 44.3927,91.50661 C42.8423,91.50661 41.5914,90.24821 41.5914,88.69781 C41.5914,87.15481 42.8423,85.89651 44.3927,85.89651 C45.9357,85.89651 47.194,87.15481 47.194,88.69781 Z" id="Path" fill="#000B0F"></path>
            <path d="M47.194,85.31961 C47.194,86.87001 45.9357,88.12091 44.3927,88.12091 C42.8423,88.12091 41.5914,86.87001 41.5914,85.31961 C41.5914,83.77661 42.8423,82.51831 44.3927,82.51831 C45.9357,82.51831 47.194,83.77661 47.194,85.31961 Z" id="Path" fill="#000B0F"></path>
            <path d="M46.3324,81.81431 C46.3324,83.13251 45.2613,84.19611 43.9506,84.19611 C42.6398,84.19611 41.5687,83.13251 41.5687,81.81431 C41.5687,80.50351 42.6398,79.43991 43.9506,79.43991 C45.2613,79.43991 46.3324,80.50351 46.3324,81.81431 Z" id="Path" fill="#000B0F"></path>
            <path d="M43.7636,80.42091 C43.7636,82.98251 41.6814,85.05731 39.1197,85.05731 C36.5581,85.05731 34.4834,82.98251 34.4834,80.42091 C34.4834,77.85931 36.5581,75.77711 39.1197,75.77711 C41.6814,75.77711 43.7636,77.85931 43.7636,80.42091 Z" id="Path" fill="#000B0F"></path>
            <path d="M35.3297,90.37551 C35.3297,91.29681 34.5807,92.05331 33.652,92.05331 C32.7307,92.05331 31.9817,91.29681 31.9817,90.37551 C31.9817,89.45421 32.7307,88.69771 33.652,88.69771 C34.5807,88.69771 35.3297,89.45421 35.3297,90.37551 Z" id="Path" fill="#000B0F"></path>
            <path d="M35.3297,80.14381 C35.3297,81.06511 34.5807,81.81411 33.652,81.81411 C32.7307,81.81411 31.9817,81.06511 31.9817,80.14381 C31.9817,79.21511 32.7307,78.46611 33.652,78.46611 C34.5807,78.46611 35.3297,79.21511 35.3297,80.14381 Z" id="Path" fill="#000B0F"></path>
        </g>
    </g>
</svg>