<?xml version="1.0" encoding="UTF-8"?>
<svg width="200px" height="194px" viewBox="0 0 200 194" version="1.1" xmlns="http://www.w3.org/2000/svg" xmlns:xlink="http://www.w3.org/1999/xlink">
    <title>_Group_</title>
    <g id="Page-1" stroke="none" stroke-width="1" fill="none" fill-rule="evenodd">
        <g id="_Group_" transform="translate(0.000000, 0.203125)">
            <path d="M27.2323,150.211129 C15.8248,137.712129 6.49434,121.825129 8.21361,105.341129 C9.84504,89.6981288 22.4447,79.0311288 35.6906,72.3548288 C49.5451,65.3711288 64.868,61.4620288 78.9986,54.9927288 C93.832,48.2035288 108.101,40.1907288 121.579,30.9982288 C127.69,26.8318288 133.664,22.4082288 140.252,19.0449288 C152.13,12.9836288 168.055,11.4965288 178.798,20.7077288 C190.017,30.3206288 194.202,46.9736288 190.883,61.1168288 C187.087,77.2742288 176.953,91.5680288 175.861,108.434129 C175.202,118.656129 178.227,128.909129 177.016,139.067129 C175.83,149.013129 172.849,158.827129 167.66,167.435129 C161.737,177.255129 152.846,185.438129 142.172,189.635129 C127.433,195.427129 110.78,193.306129 95.4634,189.278129 C74.9828,183.900129 55.0229,175.028129 38.7589,161.274129 C34.8999,158.011129 30.9532,154.290129 27.2323,150.211129 Z" id="Path" fill="#EAEAEA" fill-rule="nonzero"></path>
            <path d="M164.761,96.1991288 C164.805,96.7074288 160.632,104.871129 159.553,105.404129 C158.474,105.937129 147.016,106.239129 146.652,106.157129 C146.282,106.075129 141.237,97.5168288 141.237,97.5168288 L142.291,93.7394288 L155.079,87.4145288 L161.109,88.9707288 C161.109,88.9707288 164.717,95.6909288 164.761,96.1991288 Z" id="Path" fill="#A0704E" fill-rule="nonzero"></path>
            <path d="M155.933,88.7261288 C155.933,88.7261288 147.437,90.0940288 141.815,97.6739288 L134.084,95.5593288 L131.976,90.3701288 L137.065,85.0743288 L148.228,82.2444288 L158.399,87.8414288 L155.933,88.7261288 Z" id="Path" fill="#B7835F" fill-rule="nonzero"></path>
            <path d="M127.81,98.1694288 C125.726,107.839129 116.289,104.425129 116.289,104.425129 L121.077,91.2610288 L127.81,98.1694288 Z" id="Path" fill="#E0A47C" fill-rule="nonzero"></path>
            <path d="M120.832,91.9387288 L121.98,92.2713288 L118.83,104.952129 C117.35,104.808129 116.289,104.425129 116.289,104.425129 L120.832,91.9387288 Z" id="Path" fill="#EDAC80" fill-rule="nonzero"></path>
            <path d="M124.854,84.4530288 L144.243,78.5046288 L147.098,83.8381288 C147.098,83.8381288 141.877,84.4091288 134.712,90.4203288 L130.777,91.4117288 L124.854,84.4530288 Z" id="Path" fill="#C18C68" fill-rule="nonzero"></path>
            <path d="M141.532,82.1815288 C134.9,82.6897288 115.743,88.3370288 115.743,88.3370288 C104.442,91.6375288 102.579,82.4199288 102.579,82.4199288 L136.701,71.3137288 L141.532,82.1815288 Z" id="Path" fill="#EDAC80" fill-rule="nonzero"></path>
            <path d="M103.928,85.4004288 C102.874,83.8631288 102.579,82.4199288 102.579,82.4199288 L136.701,71.3137288 L138.338,74.8652288 C123.812,77.7892288 107.097,84.1643288 103.928,85.4004288 Z" id="Path" fill="#FFC69F" fill-rule="nonzero"></path>
            <g id="Group" opacity="0.4" transform="translate(104.568000, 81.575168)" fill="#CE9772" fill-rule="nonzero">
                <path d="M-1.42108547e-14,4.65976118 C0.019,4.65976118 30.426,-2.00403882 36.964,0.606261176 C30.332,1.11456118 11.175,6.76176118 11.175,6.76176118 C5.152,8.52496118 1.807,6.72416118 -1.42108547e-14,4.65976118 Z" id="Path"></path>
            </g>
            <path d="M134.931,105.266129 C133.105,114.496129 124.189,109.909129 124.189,109.909129 L128.293,99.4491288 L134.931,105.266129 Z" id="Path" fill="#D69D76" fill-rule="nonzero"></path>
            <path d="M142.348,112.131129 C141.055,120.696129 133.645,116.172129 133.645,116.172129 L136.933,106.603129 L142.348,112.131129 Z" id="Path" fill="#CE9772" fill-rule="nonzero"></path>
            <path d="M124.189,109.909129 L128.293,99.4491288 L128.757,99.8511288 L125.664,110.499129 C124.773,110.210129 124.189,109.909129 124.189,109.909129 Z" id="Path" fill="#E0A47C" fill-rule="nonzero"></path>
            <path d="M133.645,116.172129 L136.663,107.387129 L137.209,107.983129 L134.737,116.711129 C134.072,116.429129 133.645,116.172129 133.645,116.172129 Z" id="Path" fill="#D69D76" fill-rule="nonzero"></path>
            <path d="M104.192,83.5430288 C104.129,83.5618288 104.06,83.5242288 104.041,83.4614288 C104.022,83.3924288 104.06,83.3296288 104.129,83.3108288 L108.032,82.1751288 C108.766,81.9618288 109.199,81.2151288 109.023,80.4684288 C109.004,80.4056288 109.042,80.3366288 109.111,80.3178288 C109.18,80.3052288 109.243,80.3429288 109.262,80.4119288 C109.475,81.2841288 108.96,82.1626288 108.101,82.4136288 L104.192,83.5430288 Z" id="Path" fill="#FFFFFF" fill-rule="nonzero"></path>
            <path d="M145.736,124.661129 C145.732,124.665129 145.73,124.667129 145.73,124.667129 C145.699,124.674129 145.661,124.649129 145.661,124.617129 C145.078,121.085129 140.786,114.070129 140.742,114.000129 C137.805,108.535129 120.054,92.3780288 119.872,92.2148288 C119.847,92.1960288 119.847,92.1583288 119.866,92.1332288 C119.891,92.1019288 119.929,92.1019288 119.954,92.1270288 C120.136,92.2901288 137.899,108.460129 140.848,113.938129 C140.892,114.007129 145.197,121.041129 145.78,124.592129 C145.787,124.624129 145.768,124.655129 145.736,124.661129 Z" id="Path" fill="#FFFFFF" fill-rule="nonzero"></path>
            <path d="M116.013,116.454129 L63.9518,116.454129 C59.4529,116.454129 55.7759,112.777129 55.7759,108.278129 L55.7759,56.2169288 C55.7759,51.7180288 59.4529,48.0410288 63.9518,48.0410288 L116.013,48.0410288 C120.512,48.0410288 124.189,51.7180288 124.189,56.2169288 L124.189,108.278129 C124.189,112.777129 120.512,116.454129 116.013,116.454129 Z" id="Path" fill="#E95D4C" fill-rule="nonzero"></path>
            <g id="Group" opacity="0.3" transform="translate(55.775900, 48.041029)" fill="#CE3936" fill-rule="nonzero">
                <path d="M68.4131,22.865 C68.1181,22.9027 67.8171,22.9215 67.5161,22.8964 C62.9411,22.4572 55.4371,23.7184 53.8931,28.964 C53.5861,30.0056 53.7111,31.1162 53.7621,32.1955 C53.9371,35.6654 53.3471,39.1667 52.0491,42.3856 C50.0161,47.4179 46.7401,48.4345 41.9088,49.8525 C37.5416,51.1326 33.6952,54.0131 31.1225,57.7521 C29.8739,59.5661 29.2715,61.7051 27.866,63.3741 C26.2032,65.3571 24.4776,67.1771 22.0744,68.2561 C21.9656,68.3061 21.8611,68.3591 21.7607,68.4131 L8.1759,68.4131 C3.677,68.4131 -7.10542736e-15,64.7361 -7.10542736e-15,60.2371 L-7.10542736e-15,20.6375 C0.069,20.6375 0.138,20.6187 0.2133,20.6249 C3.3632,20.6375 6.419,19.9285 8.8599,17.8264 C10.0207,16.8225 10.9933,15.5675 12.3047,14.7706 C13.5847,13.9863 15.1534,13.6914 16.6342,13.9549 C17.9519,14.1871 19.2069,14.8397 20.5434,14.7832 C21.7983,14.7267 22.9968,13.9989 23.618,12.9071 C24.4274,11.5015 24.2329,9.7634 24.2015,8.1446 C24.1137,2.7546 29.6229,0.5522 34.2097,0.0627 C34.3289,0.0502 34.4418,0.0188 34.5611,7.10542736e-15 L60.2371,7.10542736e-15 C64.7361,7.10542736e-15 68.4131,3.677 68.4131,8.1759 L68.4131,22.865 Z" id="Path"></path>
            </g>
            <path d="M84.8466,72.6940288 C84.8466,74.7270288 83.2026,76.3772288 81.1634,76.3772288 C79.1303,76.3772288 77.4801,74.7270288 77.4801,72.6940288 C77.4801,70.6610288 79.1303,69.0107288 81.1634,69.0107288 C83.2026,69.0107288 84.8466,70.6610288 84.8466,72.6940288 Z" id="Path" fill="#B52B21" fill-rule="nonzero"></path>
            <path d="M102.679,72.6937288 C102.679,74.7267288 101.029,76.3770288 98.9961,76.3770288 C96.9631,76.3770288 95.3129,74.7267288 95.3129,72.6937288 C95.3129,70.6607288 96.9631,69.0105288 98.9961,69.0105288 C101.029,69.0105288 102.679,70.6607288 102.679,72.6937288 Z" id="Path" fill="#B52B21" fill-rule="nonzero"></path>
            <path d="M90.0794,96.1114288 C84.6957,96.1114288 79.6258,93.7396288 76.1747,89.5983288 C75.5723,88.8767288 75.6664,87.8037288 76.388,87.2013288 C77.1096,86.5990288 78.1889,86.6931288 78.7912,87.4210288 C81.596,90.7779288 85.7122,92.7105288 90.0794,92.7105288 C94.4529,92.7105288 98.5691,90.7779288 101.374,87.4210288 C101.976,86.6931288 103.049,86.5990288 103.771,87.2013288 C104.492,87.8037288 104.587,88.8767288 103.984,89.5983288 C100.533,93.7396288 95.4631,96.1114288 90.0794,96.1114288 Z" id="Path" fill="#B52B21" fill-rule="nonzero"></path>
            <path d="M84.6521,72.0668288 C84.6521,74.0998288 83.0019,75.7500288 80.9689,75.7500288 C78.9359,75.7500288 77.2856,74.0998288 77.2856,72.0668288 C77.2856,70.0275288 78.9359,68.3835288 80.9689,68.3835288 C83.0019,68.3835288 84.6521,70.0275288 84.6521,72.0668288 Z" id="Path" fill="#FFB45A" fill-rule="nonzero"></path>
            <path d="M102.479,72.0668288 C102.479,74.0998288 100.835,75.7500288 98.7953,75.7500288 C96.7623,75.7500288 95.1121,74.0998288 95.1121,72.0668288 C95.1121,70.0275288 96.7623,68.3835288 98.7953,68.3835288 C100.835,68.3835288 102.479,70.0275288 102.479,72.0668288 Z" id="Path" fill="#FFB45A" fill-rule="nonzero"></path>
            <path d="M89.885,95.4840288 C84.5013,95.4840288 79.4314,93.1122288 75.974,88.9709288 C75.3716,88.2493288 75.472,87.1763288 76.1936,86.5740288 C76.9152,85.9716288 77.9882,86.0657288 78.5905,86.7873288 C81.3953,90.1505288 85.5115,92.0769288 89.885,92.0769288 C94.2522,92.0769288 98.3684,90.1505288 101.173,86.7873288 C101.776,86.0657288 102.849,85.9716288 103.57,86.5740288 C104.292,87.1763288 104.392,88.2493288 103.79,88.9709288 C100.332,93.1122288 95.2687,95.4840288 89.885,95.4840288 Z" id="Path" fill="#FFB45A" fill-rule="nonzero"></path>
            <polygon id="Path" fill="#CE3936" fill-rule="nonzero" points="124.177 93.7208288 124.189 108.278129 110.768 83.9448288"></polygon>
            <path d="M110.768,83.9446288 C110.768,83.9446288 116.44,78.2033288 123.035,81.2465288 C123.806,81.6041288 124.503,82.0936288 125.168,82.6332288 C128.136,85.0615288 139.424,93.3567288 145.473,97.7427288 C145.473,97.7427288 150.913,100.830129 154.935,97.0211288 C154.935,97.0211288 158.16,94.1849288 155.833,90.2695288 C155.833,90.2695288 153.774,86.3666288 141.532,82.1814288 L136.701,71.3136288 L142.43,69.5442288 C145.806,68.5026288 149.37,68.1951288 152.871,68.7096288 C156.41,69.2241288 160.683,70.6611288 164.868,73.1521288 C168.388,75.2541288 175.203,79.7280288 178.566,82.4889288 C183.448,86.4984288 187.394,91.5119288 188.618,97.7113288 C189.189,100.641129 189.641,104.061129 189.728,107.826129 L192.69,144.872129 L163.218,152.333129 C163.218,152.333129 151.233,146.177129 146.232,126.449129 C144.689,120.332129 141.696,114.653129 137.768,109.721129 C137.496,109.382129 137.218,109.043129 136.933,108.705129 C136.933,108.705129 121.723,93.3127288 110.768,83.9446288 Z" id="Path" fill="#EDAC80" fill-rule="nonzero"></path>
            <path d="M189.728,107.826129 L190.443,116.811129 C190.343,115.563129 190.211,114.370129 190.054,113.228129 C188.611,103.038129 184.52,91.6309288 177.43,86.2284288 C164.698,76.5277288 156.133,74.0178288 156.133,74.0178288 C151.917,72.8319288 145.385,73.4405288 138.338,74.8649288 L136.701,71.3134288 L142.429,69.5439288 C145.805,68.5023288 149.369,68.1948288 152.87,68.7094288 C156.409,69.2239288 160.683,70.6608288 164.868,73.1519288 C168.388,75.2539288 175.202,79.7278288 178.565,82.4886288 C183.447,86.4982288 187.394,91.5117288 188.617,97.7111288 C189.188,100.641129 189.64,104.061129 189.728,107.826129 Z" id="Path" fill="#FFC69F" fill-rule="nonzero"></path>
            <g id="Group" opacity="0.1" style="mix-blend-mode: multiply;" transform="translate(110.768000, 82.024429)" fill="#EDAC80" fill-rule="nonzero">
                <g style="mix-blend-mode: multiply;" id="Path">
                    <path d="M81.922,62.8477 L52.45,70.3077 C52.45,70.3077 40.465,64.1527 35.464,44.4247 C33.921,38.3067 30.928,32.6287 27,27.6967 C26.728,27.3577 26.45,27.0187 26.165,26.6797 C26.165,26.6797 10.955,11.2882 2.84217094e-14,1.9201 C2.84217094e-14,1.9201 0.972,0.9412 2.578,0 L19.081,15.6366 C25.167,21.4027 30.928,27.4957 36.343,33.8897 C39.718,37.8807 43.057,41.8267 44.908,44.0237 C46.282,45.6547 53.535,54.4147 62.74,52.7957 C73.884,50.8377 79.939,38.0557 79.939,38.0557 L81.922,62.8477 Z"></path>
                </g>
            </g>
            <path d="M200,146.441129 L153.988,158.093129 L153.04,154.340129 C152.664,152.866129 153.561,151.360129 155.042,150.983129 L195.689,140.693129 C197.17,140.316129 198.676,141.214129 199.046,142.695129 L200,146.441129 Z" id="Path" fill="#05293C" fill-rule="nonzero"></path>
            <g id="Group" opacity="0.6" transform="translate(110.768000, 80.356674)" fill="#FFC69F" fill-rule="nonzero">
                <path d="M17.199,7.38385433 C7.899,0.117754335 2.698,5.94075433 2.698,5.94075433 L2.685,5.92815433 C1.769,5.11875433 0.872,4.33435433 0,3.58765433 C0,3.58765433 5.672,-2.15364567 12.267,0.889554335 C13.038,1.24725433 13.735,1.73665433 14.4,2.27625433 C17.368,4.70465433 28.656,12.9997543 34.705,17.3857543 C34.705,17.3857543 39.411,20.0464543 43.301,17.3606543 L43.308,17.3606543 C41.952,19.2054543 39.304,19.5384543 37.246,19.4754543 C35.464,19.4254543 33.739,18.9042543 32.176,18.0446543 C26.096,14.6688543 17.199,7.38385433 17.199,7.38385433 Z" id="Path"></path>
            </g>
            <path d="M115.862,87.8663288 C115.818,87.8789288 115.775,87.8663288 115.743,87.8350288 C115.693,87.7848288 115.693,87.7032288 115.743,87.6593288 C116.289,87.1259288 116.32,86.2600288 115.812,85.6890288 L113.102,82.6520288 C113.058,82.6018288 113.064,82.5266288 113.114,82.4764288 C113.164,82.4324288 113.24,82.4387288 113.29,82.4889288 L115.994,85.5259288 C116.59,86.1910288 116.559,87.2075288 115.913,87.8350288 C115.9,87.8517288 115.883,87.8622288 115.862,87.8663288 Z" id="Path" fill="#FFFFFF" fill-rule="nonzero"></path>
            <path d="M194.855,147.809129 C194.846,147.809129 194.84,147.809129 194.836,147.809129 C194.798,147.809129 194.773,147.777129 194.773,147.746129 L195.068,142.199129 C195.068,142.168129 195.099,142.142129 195.131,142.142129 C195.162,142.142129 195.193,142.174129 195.187,142.205129 L194.899,147.752129 C194.899,147.777129 194.88,147.802129 194.855,147.809129 Z" id="Path" fill="#FFFFFF" fill-rule="nonzero"></path>
            <path d="M193.261,148.210129 C193.253,148.214129 193.246,148.216129 193.242,148.216129 C193.205,148.210129 193.179,148.185129 193.179,148.147129 L193.474,142.601129 C193.474,142.569129 193.506,142.544129 193.537,142.544129 C193.568,142.544129 193.6,142.575129 193.594,142.607129 L193.305,148.154129 C193.305,148.185129 193.286,148.204129 193.261,148.210129 Z" id="Path" fill="#FFFFFF" fill-rule="nonzero"></path>
            <path d="M191.667,148.618129 C191.659,148.618129 191.653,148.618129 191.648,148.618129 C191.611,148.618129 191.586,148.586129 191.586,148.555129 L191.881,143.008129 C191.881,142.971129 191.912,142.945129 191.943,142.945129 C191.981,142.952129 192.006,142.977129 192,143.014129 L191.711,148.561129 C191.711,148.586129 191.692,148.611129 191.667,148.618129 Z" id="Path" fill="#FFFFFF" fill-rule="nonzero"></path>
            <path d="M155.738,102.185129 C155.261,102.304129 154.797,102.386129 154.358,102.436129 C151.754,102.743129 149.056,102.078129 146.753,100.560129 C141.036,96.7887288 129.177,87.2323288 129.064,87.1381288 C129.033,87.1130288 129.033,87.0754288 129.052,87.0503288 C129.071,87.0252288 129.115,87.0189288 129.14,87.0440288 C129.259,87.1381288 141.105,96.6883288 146.822,100.459129 C149.099,101.959129 151.766,102.618129 154.345,102.317129 C157.564,101.934129 161.969,99.9451288 164.68,92.6411288 C164.692,92.6097288 164.723,92.5909288 164.755,92.6034288 C164.793,92.6160288 164.805,92.6473288 164.793,92.6787288 C162.433,99.0475288 158.788,101.413129 155.738,102.185129 Z" id="Path" fill="#FFFFFF" fill-rule="nonzero"></path>
            <path d="M51.8542,102.806129 L51.8542,142.268129 C51.8542,145.675129 49.0682,148.467129 45.661,148.467129 L6.19941,148.467129 C2.79224,148.467129 0,145.675129 0,142.268129 L0,102.806129 C0,99.3991288 2.79224,96.6133288 6.19941,96.6133288 L45.661,96.6133288 C49.0682,96.6133288 51.8542,99.3991288 51.8542,102.806129 Z" id="Path" fill="#EDAC80" fill-rule="nonzero"></path>
            <g id="Group" opacity="0.4" transform="translate(0.000000, 96.613329)" fill="#FFC69F" fill-rule="nonzero">
                <path d="M17.3307,-1.42108547e-14 C17.3621,0.2196 17.3747,0.4517 17.3558,0.6776 C17.0233,4.1478 17.977,9.8328 21.9552,11.0058 C22.7458,11.2378 23.5866,11.1438 24.4086,11.0998 C27.0314,10.9678 29.6919,11.4138 32.1265,12.3988 C35.9415,13.9428 36.7133,16.4268 37.7863,20.0848 C38.7589,23.3988 40.9362,26.3098 43.7724,28.2608 C45.1465,29.2088 46.7717,29.6668 48.0329,30.7268 C49.5388,31.9888 50.9193,33.2998 51.735,35.1198 C51.7726,35.2028 51.8123,35.2828 51.8542,35.3578 L51.8542,45.6548 C51.8542,49.0618 49.0682,51.8538 45.661,51.8538 L15.6428,51.8538 C15.6428,51.7978 15.6303,51.7478 15.6303,51.6908 C15.6428,49.3008 15.1095,46.9848 13.5157,45.1338 C12.7502,44.2558 11.8027,43.5218 11.1941,42.5238 C10.6043,41.5508 10.3784,40.3648 10.5792,39.2478 C10.7548,38.2438 11.2506,37.2908 11.2066,36.2808 C11.169,35.3328 10.6105,34.4168 9.78855,33.9458 C8.71557,33.3378 7.40416,33.4818 6.17431,33.5068 C2.08948,33.5758 0.420405,29.3968 0.0501969,25.9208 C0.0439222,25.8328 0.0188241,25.7448 0,25.6568 L0,6.1928 C0,2.7858 2.79224,-1.42108547e-14 6.19941,-1.42108547e-14 L17.3307,-1.42108547e-14 Z" id="Path"></path>
            </g>
            <path d="M22.0366,115.299129 C22.0366,116.843129 20.788,118.091129 19.2444,118.091129 C17.7071,118.091129 16.4521,116.843129 16.4521,115.299129 C16.4521,113.755129 17.7071,112.507129 19.2444,112.507129 C20.788,112.507129 22.0366,113.755129 22.0366,115.299129 Z" id="Path" fill="#A0704E" fill-rule="nonzero"></path>
            <path d="M35.5524,115.299129 C35.5524,116.843129 34.3037,118.091129 32.7601,118.091129 C31.2166,118.091129 29.9679,116.843129 29.9679,115.299129 C29.9679,113.755129 31.2166,112.507129 32.7601,112.507129 C34.3037,112.507129 35.5524,113.755129 35.5524,115.299129 Z" id="Path" fill="#A0704E" fill-rule="nonzero"></path>
            <path d="M25.8519,126.493129 C29.9304,126.493129 33.7768,128.288129 36.3934,131.425129 C36.8514,131.971129 36.7761,132.787129 36.2302,133.245129 C35.6843,133.703129 34.8686,133.627129 34.4106,133.081129 C32.2835,130.534129 29.1649,129.072129 25.8519,129.072129 C22.5388,129.072129 19.4203,130.534129 17.2932,133.081129 C16.8351,133.627129 16.0257,133.703129 15.4798,133.245129 C14.9276,132.787129 14.8586,131.971129 15.3104,131.425129 C17.9332,128.288129 21.7733,126.493129 25.8519,126.493129 Z" id="Path" fill="#A0704E" fill-rule="nonzero"></path>
            <path d="M21.8861,114.822129 C21.8861,116.366129 20.6375,117.615129 19.0939,117.615129 C17.5566,117.615129 16.3016,116.366129 16.3016,114.822129 C16.3016,113.279129 17.5566,112.030129 19.0939,112.030129 C20.6375,112.030129 21.8861,113.279129 21.8861,114.822129 Z" id="Path" fill="#FFFFFF" fill-rule="nonzero"></path>
            <path d="M35.4018,114.822129 C35.4018,116.366129 34.1531,117.614129 32.6095,117.614129 C31.0659,117.614129 29.8173,116.366129 29.8173,114.822129 C29.8173,113.279129 31.0659,112.030129 32.6095,112.030129 C34.1531,112.030129 35.4018,113.279129 35.4018,114.822129 Z" id="Path" fill="#FFFFFF" fill-rule="nonzero"></path>
            <path d="M26.0024,125.991129 C30.081,125.991129 33.9274,127.792129 36.5439,130.930129 C37.002,131.475129 36.9267,132.291129 36.3808,132.749129 C35.8286,133.207129 35.0192,133.132129 34.5611,132.586129 C32.434,130.039129 29.3154,128.577129 26.0024,128.577129 C22.6894,128.577129 19.5708,130.039129 17.4437,132.586129 C16.9857,133.132129 16.1762,133.207129 15.6303,132.749129 C15.0781,132.291129 15.0091,131.475129 15.4609,130.930129 C18.0837,127.792129 21.9238,125.991129 26.0024,125.991129 Z" id="Path" fill="#FFFFFF" fill-rule="nonzero"></path>
            <path d="M108.653,133.841129 L108.653,173.993129 C108.653,177.463129 105.817,180.299129 102.353,180.299129 L62.1948,180.299129 C58.7312,180.299129 55.895,177.463129 55.895,173.993129 L55.895,133.841129 C55.895,130.371129 58.7312,127.535129 62.1948,127.535129 L102.353,127.535129 C105.817,127.535129 108.653,130.371129 108.653,133.841129 Z" id="Path" fill="#011721" fill-rule="nonzero"></path>
            <path d="M73.527,127.535129 C73.5583,127.761129 73.5709,127.993129 73.552,128.225129 C73.2132,131.758129 74.1858,137.543129 78.233,138.735129 C79.0361,138.974129 79.8895,138.873129 80.724,138.836129 C83.3971,138.698129 86.1015,139.156129 88.5863,140.153129 C92.464,141.722129 93.2484,144.251129 94.3402,147.978129 C95.3316,151.341129 97.5465,154.309129 100.433,156.298129 C101.832,157.258129 103.482,157.723129 104.769,158.808129 C106.293,160.088129 107.699,161.418129 108.534,163.276129 C108.571,163.355129 108.611,163.435129 108.653,163.514129 L108.653,173.993129 C108.653,177.463129 105.817,180.299129 102.353,180.299129 L71.814,180.299129 C71.8077,180.243129 71.7951,180.186129 71.7951,180.136129 C71.8077,177.701129 71.2618,175.342129 69.6429,173.466129 C68.8648,172.569129 67.9048,171.822129 67.2836,170.805129 C66.6812,169.820129 66.4554,168.609129 66.6561,167.474129 C66.8318,166.451129 67.3401,165.484129 67.2962,164.449129 C67.2522,163.489129 66.6875,162.560129 65.8467,162.077129 C64.7612,161.462129 63.4247,161.607129 62.176,161.632129 C58.0159,161.701129 56.3217,157.453129 55.9452,153.914129 C55.9327,153.820129 55.9138,153.732129 55.895,153.644129 L55.895,133.841129 C55.895,130.371129 58.7312,127.535129 62.1948,127.535129 L73.527,127.535129 Z" id="Path" fill="#05293C" fill-rule="nonzero"></path>
            <path d="M78.3146,146.547129 C78.3146,148.116129 77.0471,149.390129 75.4784,149.390129 C73.9035,149.390129 72.636,148.116129 72.636,146.547129 C72.636,144.979129 73.9035,143.711129 75.4784,143.711129 C77.0471,143.711129 78.3146,144.979129 78.3146,146.547129 Z" id="Path" fill="#000000" fill-rule="nonzero"></path>
            <path d="M92.0689,146.547129 C92.0689,148.116129 90.7952,149.390129 89.2265,149.390129 C87.6578,149.390129 86.384,148.116129 86.384,146.547129 C86.384,144.979129 87.6578,143.711129 89.2265,143.711129 C90.7952,143.711129 92.0689,144.979129 92.0689,146.547129 Z" id="Path" fill="#000000" fill-rule="nonzero"></path>
            <path d="M78.164,146.064129 C78.164,147.633129 76.8902,148.906129 75.3216,148.906129 C73.7529,148.906129 72.4791,147.633129 72.4791,146.064129 C72.4791,144.495129 73.7529,143.222129 75.3216,143.222129 C76.8902,143.222129 78.164,144.495129 78.164,146.064129 Z" id="Path" fill="#FFFFFF" fill-rule="nonzero"></path>
            <path d="M91.9119,146.064129 C91.9119,147.632129 90.6444,148.906129 89.0757,148.906129 C87.507,148.906129 86.2333,147.632129 86.2333,146.064129 C86.2333,144.495129 87.507,143.221129 89.0757,143.221129 C90.6444,143.221129 91.9119,144.495129 91.9119,146.064129 Z" id="Path" fill="#FFFFFF" fill-rule="nonzero"></path>
            <path d="M91.2593,163.332129 L73.2886,163.332129 C72.5231,163.332129 71.9019,162.711129 71.9019,161.946129 C71.9019,161.180129 72.5231,160.559129 73.2886,160.559129 L91.2593,160.559129 C92.0248,160.559129 92.646,161.180129 92.646,161.946129 C92.646,162.711129 92.0248,163.332129 91.2593,163.332129 Z" id="Path" fill="#000000" fill-rule="nonzero"></path>
            <path d="M91.2593,162.912129 L73.2886,162.912129 C72.5231,162.912129 71.9019,162.291129 71.9019,161.525129 C71.9019,160.759129 72.5231,160.138129 73.2886,160.138129 L91.2593,160.138129 C92.0248,160.138129 92.646,160.759129 92.646,161.525129 C92.646,162.291129 92.0248,162.912129 91.2593,162.912129 Z" id="Path" fill="#FFFFFF" fill-rule="nonzero"></path>
            <path d="M46.2259,81.7609288 C45.887,81.8801288 45.5921,82.0997288 45.4164,82.4197288 L44.4501,84.1641288 C44.1552,84.7100288 43.3771,84.7100288 43.076,84.1641288 L42.0971,82.4009288 C41.9277,82.0934288 41.6453,81.8801288 41.319,81.7672288 C38.075,80.6691288 35.8036,77.4564288 36.1738,73.7669288 C36.544,70.0397288 39.7064,67.0843288 43.4462,66.9275288 C47.8008,66.7518288 51.3899,70.2343288 51.3899,74.5513288 C51.3899,77.9019288 49.2314,80.7381288 46.2259,81.7609288 Z" id="Path" fill="#E95D4C" fill-rule="nonzero"></path>
            <path d="M42.2162,74.6954288 C42.2162,75.0907288 41.8962,75.4045288 41.5071,75.4045288 C41.1181,75.4045288 40.7981,75.0907288 40.7981,74.6954288 C40.7981,74.3064288 41.1181,73.9926288 41.5071,73.9926288 C41.8962,73.9926288 42.2162,74.3064288 42.2162,74.6954288 Z" id="Path" fill="#FFFFFF" fill-rule="nonzero"></path>
            <path d="M44.4688,74.6954288 C44.4688,75.0907288 44.1551,75.4045288 43.7661,75.4045288 C43.3707,75.4045288 43.057,75.0907288 43.057,74.6954288 C43.057,74.3064288 43.3707,73.9926288 43.7661,73.9926288 C44.1551,73.9926288 44.4688,74.3064288 44.4688,74.6954288 Z" id="Path" fill="#FFFFFF" fill-rule="nonzero"></path>
            <path d="M46.7278,74.6954288 C46.7278,75.0907288 46.414,75.4045288 46.0187,75.4045288 C45.6297,75.4045288 45.3097,75.0907288 45.3097,74.6954288 C45.3097,74.3064288 45.6297,73.9926288 46.0187,73.9926288 C46.414,73.9926288 46.7278,74.3064288 46.7278,74.6954288 Z" id="Path" fill="#FFFFFF" fill-rule="nonzero"></path>
            <path d="M134.442,30.4149288 C134.103,30.5342288 133.808,30.7538288 133.632,31.0675288 L132.666,32.8182288 C132.365,33.3578288 131.587,33.3578288 131.286,32.8182288 L130.313,31.0550288 C130.144,30.7475288 129.861,30.5342288 129.529,30.4212288 C126.285,29.3231288 124.02,26.1105288 124.39,22.4210288 C124.76,18.6938288 127.916,15.7384288 131.656,15.5815288 C136.017,15.4058288 139.606,18.8883288 139.606,23.2053288 C139.606,26.5560288 137.441,29.3922288 134.442,30.4149288 Z" id="Path" fill="#011721" fill-rule="nonzero"></path>
            <path d="M130.426,23.3496288 C130.426,23.7449288 130.113,24.0587288 129.717,24.0587288 C129.328,24.0587288 129.008,23.7449288 129.008,23.3496288 C129.008,22.9606288 129.328,22.6406288 129.717,22.6406288 C130.113,22.6406288 130.426,22.9606288 130.426,23.3496288 Z" id="Path" fill="#FFFFFF" fill-rule="nonzero"></path>
            <path d="M132.685,23.3496288 C132.685,23.7449288 132.365,24.0587288 131.976,24.0587288 C131.587,24.0587288 131.267,23.7449288 131.267,23.3496288 C131.267,22.9606288 131.587,22.6406288 131.976,22.6406288 C132.365,22.6406288 132.685,22.9606288 132.685,23.3496288 Z" id="Path" fill="#FFFFFF" fill-rule="nonzero"></path>
            <path d="M134.944,23.3496288 C134.944,23.7449288 134.624,24.0587288 134.235,24.0587288 C133.84,24.0587288 133.526,23.7449288 133.526,23.3496288 C133.526,22.9606288 133.84,22.6406288 134.235,22.6406288 C134.624,22.6406288 134.944,22.9606288 134.944,23.3496288 Z" id="Path" fill="#FFFFFF" fill-rule="nonzero"></path>
            <path d="M134.442,142.375129 C134.103,142.494129 133.808,142.713129 133.632,143.027129 L132.666,144.778129 C132.365,145.317129 131.587,145.317129 131.286,144.778129 L130.313,143.015129 C130.144,142.707129 129.861,142.494129 129.529,142.381129 C126.285,141.283129 124.02,138.070129 124.39,134.381129 C124.76,130.653129 127.916,127.698129 131.656,127.541129 C136.017,127.365129 139.606,130.848129 139.606,135.165129 C139.606,138.516129 137.441,141.352129 134.442,142.375129 Z" id="Path" fill="#E95D4C" fill-rule="nonzero"></path>
            <path d="M130.426,135.309129 C130.426,135.705129 130.113,136.018129 129.717,136.018129 C129.328,136.018129 129.008,135.705129 129.008,135.309129 C129.008,134.920129 129.328,134.600129 129.717,134.600129 C130.113,134.600129 130.426,134.920129 130.426,135.309129 Z" id="Path" fill="#FFFFFF" fill-rule="nonzero"></path>
            <path d="M132.685,135.310129 C132.685,135.705129 132.365,136.019129 131.976,136.019129 C131.587,136.019129 131.267,135.705129 131.267,135.310129 C131.267,134.920129 131.587,134.600129 131.976,134.600129 C132.365,134.600129 132.685,134.920129 132.685,135.310129 Z" id="Path" fill="#FFFFFF" fill-rule="nonzero"></path>
            <path d="M134.944,135.310129 C134.944,135.705129 134.624,136.019129 134.235,136.019129 C133.84,136.019129 133.526,135.705129 133.526,135.310129 C133.526,134.920129 133.84,134.600129 134.235,134.600129 C134.624,134.600129 134.944,134.920129 134.944,135.310129 Z" id="Path" fill="#FFFFFF" fill-rule="nonzero"></path>
            <path d="M46.2259,176.785129 C45.887,176.904129 45.5921,177.124129 45.4164,177.438129 L44.4501,179.188129 C44.1552,179.728129 43.3771,179.728129 43.076,179.188129 L42.0971,177.425129 C41.9277,177.118129 41.6453,176.904129 41.319,176.791129 C38.075,175.693129 35.8036,172.481129 36.1738,168.785129 C36.544,165.064129 39.7064,162.102129 43.4462,161.952129 C47.8008,161.776129 51.3899,165.252129 51.3899,169.575129 C51.3899,172.920129 49.2314,175.762129 46.2259,176.785129 Z" id="Path" fill="#EDAC80" fill-rule="nonzero"></path>
            <path d="M42.2162,169.719129 C42.2162,170.108129 41.8962,170.428129 41.5071,170.428129 C41.1181,170.428129 40.7981,170.108129 40.7981,169.719129 C40.7981,169.330129 41.1181,169.010129 41.5071,169.010129 C41.8962,169.010129 42.2162,169.330129 42.2162,169.719129 Z" id="Path" fill="#FFFFFF" fill-rule="nonzero"></path>
            <path d="M44.4688,169.719129 C44.4688,170.108129 44.1551,170.428129 43.7661,170.428129 C43.3707,170.428129 43.057,170.108129 43.057,169.719129 C43.057,169.330129 43.3707,169.010129 43.7661,169.010129 C44.1551,169.010129 44.4688,169.330129 44.4688,169.719129 Z" id="Path" fill="#FFFFFF" fill-rule="nonzero"></path>
            <path d="M46.7278,169.719129 C46.7278,170.108129 46.414,170.428129 46.0187,170.428129 C45.6297,170.428129 45.3097,170.108129 45.3097,169.719129 C45.3097,169.330129 45.6297,169.010129 46.0187,169.010129 C46.414,169.010129 46.7278,169.330129 46.7278,169.719129 Z" id="Path" fill="#FFFFFF" fill-rule="nonzero"></path>
            <path d="M10.2027,88.2177288 L0.351386,88.2177288 C0.15687,88.2177288 0,88.0608288 0,87.8726288 C0,87.6781288 0.15687,87.5212288 0.351386,87.5212288 L10.2027,87.5212288 C10.3972,87.5212288 10.5541,87.6781288 10.5541,87.8726288 C10.5541,88.0608288 10.3972,88.2177288 10.2027,88.2177288 Z" id="Path" fill="#011721" fill-rule="nonzero"></path>
            <path d="M10.2027,90.1567288 L0.351386,90.1567288 C0.15687,90.1567288 0,89.9998288 0,89.8116288 C0,89.6170288 0.15687,89.4602288 0.351386,89.4602288 L10.2027,89.4602288 C10.3972,89.4602288 10.5541,89.6170288 10.5541,89.8116288 C10.5541,89.9998288 10.3972,90.1567288 10.2027,90.1567288 Z" id="Path" fill="#011721" fill-rule="nonzero"></path>
            <path d="M10.2027,92.1960288 L0.351386,92.1960288 C0.15687,92.1960288 0,92.0455288 0,91.8509288 C0,91.6627288 0.15687,91.5058288 0.351386,91.5058288 L10.2027,91.5058288 C10.3972,91.5058288 10.5541,91.6627288 10.5541,91.8509288 C10.5541,92.0455288 10.3972,92.1960288 10.2027,92.1960288 Z" id="Path" fill="#011721" fill-rule="nonzero"></path>
            <path d="M125.388,176.314129 L115.53,176.314129 C115.342,176.314129 115.185,176.164129 115.185,175.969129 C115.185,175.775129 115.342,175.624129 115.53,175.624129 L125.388,175.624129 C125.576,175.624129 125.733,175.775129 125.733,175.969129 C125.733,176.164129 125.576,176.314129 125.388,176.314129 Z" id="Path" fill="#E95D4C" fill-rule="nonzero"></path>
            <path d="M125.388,178.254129 L115.53,178.254129 C115.342,178.254129 115.185,178.103129 115.185,177.908129 C115.185,177.720129 115.342,177.563129 115.53,177.563129 L125.388,177.563129 C125.576,177.563129 125.733,177.720129 125.733,177.908129 C125.733,178.103129 125.576,178.254129 125.388,178.254129 Z" id="Path" fill="#E95D4C" fill-rule="nonzero"></path>
            <path d="M125.388,180.299129 L115.53,180.299129 C115.342,180.299129 115.185,180.142129 115.185,179.954129 C115.185,179.759129 115.342,179.602129 115.53,179.602129 L125.388,179.602129 C125.576,179.602129 125.733,179.759129 125.733,179.954129 C125.733,180.142129 125.576,180.299129 125.388,180.299129 Z" id="Path" fill="#E95D4C" fill-rule="nonzero"></path>
            <g id="Group" opacity="0.3" transform="translate(55.775900, 38.135129)" fill="#CE3936" fill-rule="nonzero">
                <path d="M10.2027,0.8451 L0.3451,0.8451 C0.1568,0.8451 -7.10542736e-15,0.6945 -7.10542736e-15,0.5 C-7.10542736e-15,0.3055 0.1568,0.1549 0.3451,0.1549 L10.2027,0.1549 C10.3909,0.1549 10.5478,0.3055 10.5478,0.5 C10.5478,0.6945 10.3909,0.8451 10.2027,0.8451 Z" id="Path"></path>
                <path d="M10.2027,2.7836 L0.3451,2.7836 C0.1568,2.7836 -7.10542736e-15,2.633 -7.10542736e-15,2.4385 C-7.10542736e-15,2.2503 0.1568,2.0934 0.3451,2.0934 L10.2027,2.0934 C10.3909,2.0934 10.5478,2.2503 10.5478,2.4385 C10.5478,2.633 10.3909,2.7836 10.2027,2.7836 Z" id="Path"></path>
                <path d="M10.2027,4.8294 L0.3451,4.8294 C0.1568,4.8294 -7.10542736e-15,4.6726 -7.10542736e-15,4.4843 C-7.10542736e-15,4.2898 0.1568,4.1329 0.3451,4.1329 L10.2027,4.1329 C10.3909,4.1329 10.5478,4.2898 10.5478,4.4843 C10.5478,4.6726 10.3909,4.8294 10.2027,4.8294 Z" id="Path"></path>
            </g>
            <path d="M109.104,193.614129 C91.9306,193.614129 78.4337,188.399129 78.2957,188.343129 C78.2706,188.337129 78.258,188.305129 78.2705,188.280129 C78.2768,188.249129 78.3082,188.236129 78.3333,188.249129 C78.4776,188.305129 93.0349,193.927129 111.15,193.488129 C127.866,193.080129 151.12,187.270129 166.982,161.920129 C166.995,161.895129 167.026,161.882129 167.051,161.901129 C167.076,161.914129 167.089,161.951129 167.07,161.970129 C160.055,173.183129 151.026,181.547129 140.227,186.831129 C131.587,191.054129 121.804,193.331129 111.15,193.595129 C110.464,193.607129 109.782,193.614129 109.104,193.614129 Z" id="Path" fill="#000000" fill-rule="nonzero"></path>
            <path d="M53.5608,99.8951288 C53.5294,99.8951288 53.5106,99.8701288 53.5106,99.8381288 L53.5106,60.2953288 C53.5106,60.2702288 53.5294,60.2451288 53.5608,60.2451288 C53.5922,60.2451288 53.611,60.2702288 53.611,60.2953288 L53.611,99.8381288 C53.611,99.8701288 53.5922,99.8951288 53.5608,99.8951288 Z" id="Path" fill="#000000" fill-rule="nonzero"></path>
            <path d="M2.43464,135.366129 C2.40327,135.366129 2.37817,135.341129 2.37817,135.309129 L2.37817,106.169129 C2.37817,106.144129 2.40327,106.119129 2.43464,106.119129 C2.45974,106.119129 2.48484,106.144129 2.48484,106.169129 L2.48484,135.309129 C2.48484,135.341129 2.45974,135.366129 2.43464,135.366129 Z" id="Path" fill="#FFFFFF" fill-rule="nonzero"></path>
            <path d="M148.303,63.2255288 C148.284,63.2255288 148.271,63.2192288 148.259,63.2067288 C148.24,63.1816288 148.246,63.1502288 148.271,63.1314288 C154.672,58.2559288 159.967,51.9561288 163.174,45.4116288 C166.826,37.9447288 166.901,28.9593288 163.368,21.9567288 C159.44,14.1824288 150.856,9.5140288 140.955,9.7775288 C140.44,9.7943288 139.926,9.8256288 139.411,9.8716288 C143.283,14.4961288 145.655,20.2124288 146.119,26.0416288 C146.376,29.3421288 145.743,32.7806288 144.381,35.4662288 C143.245,37.6937288 141.055,40.4608288 137.077,40.9942288 C130.959,41.8036288 124.484,38.2333288 121.667,32.4982288 C119.401,27.8738288 119.458,23.3497288 121.836,19.4092288 C124.923,14.3079288 131.882,10.4991288 139.167,9.7901288 C135.069,4.9773988 129.479,1.5325888 123.304,0.478438798 C112.311,-1.3976992 102.679,4.0424688 96.5301,8.9430188 C96.5112,8.9618388 96.4799,8.9618388 96.4611,8.9367388 C96.4422,8.9116488 96.4422,8.8802688 96.4673,8.8614488 C100.533,5.6174288 104.769,3.2204888 109.048,1.7333788 C113.905,0.0454837983 118.711,-0.412571202 123.323,0.371768798 C129.228,1.3819988 134.793,4.5758288 138.985,9.3634288 C139.102,9.4973288 139.217,9.6332288 139.33,9.7713288 C139.869,9.7211288 140.411,9.6897288 140.955,9.6771288 C141.219,9.6688288 141.482,9.6646288 141.746,9.6646288 C151.352,9.6646288 159.622,14.3079288 163.462,21.9128288 C165.244,25.4392288 166.148,29.5115288 166.085,33.6904288 C166.022,37.7502288 165.044,41.8225288 163.268,45.4555288 C160.049,52.0189288 154.747,58.3249288 148.334,63.2192288 C148.322,63.2234288 148.311,63.2255288 148.303,63.2255288 Z M139.248,9.8842288 C131.97,10.5744288 125.011,14.3706288 121.924,19.4657288 C119.565,23.3685288 119.508,27.8612288 121.761,32.4543288 C124.559,38.1455288 130.991,41.6970288 137.065,40.8875288 C140.999,40.3667288 143.164,37.6247288 144.287,35.4160288 C145.642,32.7492288 146.276,29.3358288 146.012,26.0478288 C145.536,20.0304288 143.038,14.3706288 139.248,9.8842288 Z" id="Shape" fill="#000000"></path>
        </g>
    </g>
</svg>