<?xml version="1.0" encoding="UTF-8"?>
<svg width="47px" height="43px" viewBox="0 0 47 43" version="1.1" xmlns="http://www.w3.org/2000/svg" xmlns:xlink="http://www.w3.org/1999/xlink">
    <title>noun-customization-4416623 1</title>
    <defs>
        <rect id="path-1" x="0" y="0" width="32" height="42"></rect>
        <path d="M23.7508,33.8128 C23.1258,33.8128 22.7092,34.2294 22.7092,34.8544 L22.7092,38.6045 L17.605,38.6045 L17.605,34.8544 L17.605,34.7503 L17.605,34.5419 C17.605,34.4378 17.605,34.4378 17.5009,34.3336 C17.5009,34.2294 17.3967,34.2294 17.3967,34.1253 C17.3967,34.0211 17.2925,34.0211 17.2925,34.0211 C17.2925,34.0211 17.1883,33.9169 17.0842,33.9169 C16.98,33.9169 16.98,33.8128 16.8758,33.8128 L16.7717,33.8128 C14.3758,33.1878 12.1883,31.9378 10.4175,30.1669 L10.3134,30.1669 C10.2092,30.1669 10.2092,30.0627 10.105,30.0627 C10.0009,30.0627 10.0009,29.9586 9.8967,29.9586 L9.6884,29.9586 L9.48,29.9586 L9.2717,29.9586 C9.1675,29.9586 9.1675,29.9586 9.0634,30.0627 L8.9592,30.0627 L5.72998,31.9377 L3.12583,27.4585 L6.35504,25.5835 L6.45921,25.5835 C6.56338,25.5835 6.56338,25.4793 6.66755,25.4793 L6.77171,25.3752 C6.77171,25.271 6.87588,25.271 6.87588,25.1668 C6.87588,25.0627 6.87588,25.0627 6.98005,24.9585 L6.98005,24.7502 L6.98005,24.5418 L6.98005,24.4377 C6.66755,23.2918 6.45921,22.0418 6.45921,20.7918 C6.45921,19.5418 6.66755,18.2918 6.98005,17.1459 L6.98005,17.0418 L6.98005,16.8334 L6.98005,16.6251 C6.98005,16.5209 6.98005,16.5209 6.87588,16.4168 C6.87588,16.3126 6.87588,16.3126 6.77171,16.2084 C6.77171,16.1042 6.66755,16.1042 6.66755,16.1042 C6.66755,16.1042 6.56338,16.0001 6.45921,16.0001 L6.35504,16.0001 L3.12583,14.1251 L5.72998,9.6459 L8.9592,11.5209 L9.0634,11.5209 C9.1675,11.5209 9.1675,11.5209 9.2717,11.625 L9.48,11.625 L9.5842,11.625 L9.6884,11.625 L9.8967,11.625 C10.0009,11.625 10.0009,11.625 10.105,11.5209 C10.2092,11.5209 10.2092,11.4167 10.3134,11.4167 L10.4175,11.4167 C12.1883,9.6459 14.3759,8.3959 16.7717,7.7708 L16.8758,7.7708 C16.98,7.7708 16.98,7.6667 17.0842,7.6667 C17.1883,7.6667 17.1883,7.5625 17.2925,7.5625 L17.3967,7.4583 C17.3967,7.3542 17.5009,7.3542 17.5009,7.25 C17.5009,7.1458 17.5009,7.1458 17.605,7.0417 L17.605,6.8333 L17.605,6.7292 L17.605,2.97914 L22.7092,2.97914 L22.7092,6.7292 L22.7092,6.8333 L22.7092,7.0417 C22.7092,7.1458 22.7092,7.1458 22.8133,7.25 C22.8133,7.3542 22.9175,7.3542 22.9175,7.4583 C22.9175,7.5625 23.0217,7.5625 23.0217,7.5625 C23.0217,7.5625 23.1258,7.6667 23.23,7.6667 C23.3342,7.6667 23.3342,7.7708 23.4383,7.7708 L23.5425,7.7708 C25.9384,8.3958 28.1259,9.6458 29.8967,11.4167 C30.105,11.625 30.4175,11.7292 30.6259,11.7292 C30.9384,11.7292 31.1467,11.625 31.3551,11.4167 C31.7717,11 31.7717,10.375 31.3551,9.9584 C29.5843,8.0834 27.2925,6.7292 24.8967,6 L24.8967,2.04167 C24.8967,1.41667 24.48,1 23.855,1 L16.6677,1 C16.0427,1 15.626,1.41667 15.626,2.04167 L15.626,6 C13.4385,6.7292 11.4593,7.875 9.6885,9.4375 L6.25105,7.4583 C6.04271,7.3541 5.73021,7.25 5.41771,7.3541 C5.10521,7.4583 4.89687,7.5625 4.79271,7.875 L1.14683,14.125 C0.83433,14.6458 1.04266,15.2708 1.5635,15.5833 L5.00097,17.5625 C4.79264,18.7084 4.58431,19.8542 4.58431,21 C4.58431,22.1458 4.68847,23.2917 5.00097,24.4375 L1.5635,26.4167 C1.04266,26.7292 0.93849,27.3542 1.14683,27.875 L4.79271,34.125 C4.89687,34.3334 5.20938,34.5417 5.41771,34.6459 L5.73021,34.6459 C5.93854,34.6459 6.04271,34.6459 6.25105,34.5417 L9.6885,32.5625 C11.3552,34.125 13.4385,35.2708 15.626,36 L15.626,39.9583 C15.626,40.5833 16.0427,41 16.6677,41 L23.855,41 C24.48,41 24.8967,40.5833 24.8967,39.9583 L24.8967,35.1666 C24.7925,34.3333 24.2717,33.8125 23.7508,33.8125 L23.7508,33.8128 Z" id="path-3"></path>
    </defs>
    <g id="Page-1" stroke="none" stroke-width="1" fill="none" fill-rule="evenodd">
        <g id="noun-customization-4416623-1" transform="translate(0.500000, 0.914060)">
            <path d="M23.7508,33.8128 C23.1258,33.8128 22.7092,34.2294 22.7092,34.8544 L22.7092,38.6045 L17.605,38.6045 L17.605,34.8544 L17.605,34.7503 L17.605,34.5419 C17.605,34.4378 17.605,34.4378 17.5009,34.3336 C17.5009,34.2294 17.3967,34.2294 17.3967,34.1253 C17.3967,34.0211 17.2925,34.0211 17.2925,34.0211 C17.2925,34.0211 17.1883,33.9169 17.0842,33.9169 C16.98,33.9169 16.98,33.8128 16.8758,33.8128 L16.7717,33.8128 C14.3758,33.1878 12.1883,31.9378 10.4175,30.1669 L10.3134,30.1669 C10.2092,30.1669 10.2092,30.0627 10.105,30.0627 C10.0009,30.0627 10.0009,29.9586 9.8967,29.9586 L9.6884,29.9586 L9.48,29.9586 L9.2717,29.9586 C9.1675,29.9586 9.1675,29.9586 9.0634,30.0627 L8.9592,30.0627 L5.72998,31.9377 L3.12583,27.4585 L6.35504,25.5835 L6.45921,25.5835 C6.56338,25.5835 6.56338,25.4793 6.66755,25.4793 L6.77171,25.3752 C6.77171,25.271 6.87588,25.271 6.87588,25.1668 C6.87588,25.0627 6.87588,25.0627 6.98005,24.9585 L6.98005,24.7502 L6.98005,24.5418 L6.98005,24.4377 C6.66755,23.2918 6.45921,22.0418 6.45921,20.7918 C6.45921,19.5418 6.66755,18.2918 6.98005,17.1459 L6.98005,17.0418 L6.98005,16.8334 L6.98005,16.6251 C6.98005,16.5209 6.98005,16.5209 6.87588,16.4168 C6.87588,16.3126 6.87588,16.3126 6.77171,16.2084 C6.77171,16.1042 6.66755,16.1042 6.66755,16.1042 C6.66755,16.1042 6.56338,16.0001 6.45921,16.0001 L6.35504,16.0001 L3.12583,14.1251 L5.72998,9.6459 L8.9592,11.5209 L9.0634,11.5209 C9.1675,11.5209 9.1675,11.5209 9.2717,11.625 L9.48,11.625 L9.5842,11.625 L9.6884,11.625 L9.8967,11.625 C10.0009,11.625 10.0009,11.625 10.105,11.5209 C10.2092,11.5209 10.2092,11.4167 10.3134,11.4167 L10.4175,11.4167 C12.1883,9.6459 14.3759,8.3959 16.7717,7.7708 L16.8758,7.7708 C16.98,7.7708 16.98,7.6667 17.0842,7.6667 C17.1883,7.6667 17.1883,7.5625 17.2925,7.5625 L17.3967,7.4583 C17.3967,7.3542 17.5009,7.3542 17.5009,7.25 C17.5009,7.1458 17.5009,7.1458 17.605,7.0417 L17.605,6.8333 L17.605,6.7292 L17.605,2.97914 L22.7092,2.97914 L22.7092,6.7292 L22.7092,6.8333 L22.7092,7.0417 C22.7092,7.1458 22.7092,7.1458 22.8133,7.25 C22.8133,7.3542 22.9175,7.3542 22.9175,7.4583 C22.9175,7.5625 23.0217,7.5625 23.0217,7.5625 C23.0217,7.5625 23.1258,7.6667 23.23,7.6667 C23.3342,7.6667 23.3342,7.7708 23.4383,7.7708 L23.5425,7.7708 C25.9384,8.3958 28.1259,9.6458 29.8967,11.4167 C30.105,11.625 30.4175,11.7292 30.6259,11.7292 C30.9384,11.7292 31.1467,11.625 31.3551,11.4167 C31.7717,11 31.7717,10.375 31.3551,9.9584 C29.5843,8.0834 27.2925,6.7292 24.8967,6 L24.8967,2.04167 C24.8967,1.41667 24.48,1 23.855,1 L16.6677,1 C16.0427,1 15.626,1.41667 15.626,2.04167 L15.626,6 C13.4385,6.7292 11.4593,7.875 9.6885,9.4375 L6.25105,7.4583 C6.04271,7.3541 5.73021,7.25 5.41771,7.3541 C5.10521,7.4583 4.89687,7.5625 4.79271,7.875 L1.14683,14.125 C0.83433,14.6458 1.04266,15.2708 1.5635,15.5833 L5.00097,17.5625 C4.79264,18.7084 4.58431,19.8542 4.58431,21 C4.58431,22.1458 4.68847,23.2917 5.00097,24.4375 L1.5635,26.4167 C1.04266,26.7292 0.93849,27.3542 1.14683,27.875 L4.79271,34.125 C4.89687,34.3334 5.20938,34.5417 5.41771,34.6459 L5.73021,34.6459 C5.93854,34.6459 6.04271,34.6459 6.25105,34.5417 L9.6885,32.5625 C11.3552,34.125 13.4385,35.2708 15.626,36 L15.626,39.9583 C15.626,40.5833 16.0427,41 16.6677,41 L23.855,41 C24.48,41 24.8967,40.5833 24.8967,39.9583 L24.8967,35.1666 C24.7925,34.3333 24.2717,33.8125 23.7508,33.8125 L23.7508,33.8128 Z" id="Path" fill="#F36D45" fill-rule="nonzero"></path>
            <g id="Clipped">
                <mask id="mask-2" fill="white">
                    <use xlink:href="#path-1"></use>
                </mask>
                <g id="Rectangle"></g>
                <path d="M23.7508,33.8128 C23.1258,33.8128 22.7092,34.2294 22.7092,34.8544 L22.7092,38.6045 L17.605,38.6045 L17.605,34.8544 L17.605,34.7503 L17.605,34.5419 C17.605,34.4378 17.605,34.4378 17.5009,34.3336 C17.5009,34.2294 17.3967,34.2294 17.3967,34.1253 C17.3967,34.0211 17.2925,34.0211 17.2925,34.0211 C17.2925,34.0211 17.1883,33.9169 17.0842,33.9169 C16.98,33.9169 16.98,33.8128 16.8758,33.8128 L16.7717,33.8128 C14.3758,33.1878 12.1883,31.9378 10.4175,30.1669 L10.3134,30.1669 C10.2092,30.1669 10.2092,30.0627 10.105,30.0627 C10.0009,30.0627 10.0009,29.9586 9.8967,29.9586 L9.6884,29.9586 L9.48,29.9586 L9.2717,29.9586 C9.1675,29.9586 9.1675,29.9586 9.0634,30.0627 L8.9592,30.0627 L5.72998,31.9377 L3.12583,27.4585 L6.35504,25.5835 L6.45921,25.5835 C6.56338,25.5835 6.56338,25.4793 6.66755,25.4793 L6.77171,25.3752 C6.77171,25.271 6.87588,25.271 6.87588,25.1668 C6.87588,25.0627 6.87588,25.0627 6.98005,24.9585 L6.98005,24.7502 L6.98005,24.5418 L6.98005,24.4377 C6.66755,23.2918 6.45921,22.0418 6.45921,20.7918 C6.45921,19.5418 6.66755,18.2918 6.98005,17.1459 L6.98005,17.0418 L6.98005,16.8334 L6.98005,16.6251 C6.98005,16.5209 6.98005,16.5209 6.87588,16.4168 C6.87588,16.3126 6.87588,16.3126 6.77171,16.2084 C6.77171,16.1042 6.66755,16.1042 6.66755,16.1042 C6.66755,16.1042 6.56338,16.0001 6.45921,16.0001 L6.35504,16.0001 L3.12583,14.1251 L5.72998,9.6459 L8.9592,11.5209 L9.0634,11.5209 C9.1675,11.5209 9.1675,11.5209 9.2717,11.625 L9.48,11.625 L9.5842,11.625 L9.6884,11.625 L9.8967,11.625 C10.0009,11.625 10.0009,11.625 10.105,11.5209 C10.2092,11.5209 10.2092,11.4167 10.3134,11.4167 L10.4175,11.4167 C12.1883,9.6459 14.3759,8.3959 16.7717,7.7708 L16.8758,7.7708 C16.98,7.7708 16.98,7.6667 17.0842,7.6667 C17.1883,7.6667 17.1883,7.5625 17.2925,7.5625 L17.3967,7.4583 C17.3967,7.3542 17.5009,7.3542 17.5009,7.25 C17.5009,7.1458 17.5009,7.1458 17.605,7.0417 L17.605,6.8333 L17.605,6.7292 L17.605,2.97914 L22.7092,2.97914 L22.7092,6.7292 L22.7092,6.8333 L22.7092,7.0417 C22.7092,7.1458 22.7092,7.1458 22.8133,7.25 C22.8133,7.3542 22.9175,7.3542 22.9175,7.4583 C22.9175,7.5625 23.0217,7.5625 23.0217,7.5625 C23.0217,7.5625 23.1258,7.6667 23.23,7.6667 C23.3342,7.6667 23.3342,7.7708 23.4383,7.7708 L23.5425,7.7708 C25.9384,8.3958 28.1259,9.6458 29.8967,11.4167 C30.105,11.625 30.4175,11.7292 30.6259,11.7292 C30.9384,11.7292 31.1467,11.625 31.3551,11.4167 C31.7717,11 31.7717,10.375 31.3551,9.9584 C29.5843,8.0834 27.2925,6.7292 24.8967,6 L24.8967,2.04167 C24.8967,1.41667 24.48,1 23.855,1 L16.6677,1 C16.0427,1 15.626,1.41667 15.626,2.04167 L15.626,6 C13.4385,6.7292 11.4593,7.875 9.6885,9.4375 L6.25105,7.4583 C6.04271,7.3541 5.73021,7.25 5.41771,7.3541 C5.10521,7.4583 4.89687,7.5625 4.79271,7.875 L1.14683,14.125 C0.83433,14.6458 1.04266,15.2708 1.5635,15.5833 L5.00097,17.5625 C4.79264,18.7084 4.58431,19.8542 4.58431,21 C4.58431,22.1458 4.68847,23.2917 5.00097,24.4375 L1.5635,26.4167 C1.04266,26.7292 0.93849,27.3542 1.14683,27.875 L4.79271,34.125 C4.89687,34.3334 5.20938,34.5417 5.41771,34.6459 L5.73021,34.6459 C5.93854,34.6459 6.04271,34.6459 6.25105,34.5417 L9.6885,32.5625 C11.3552,34.125 13.4385,35.2708 15.626,36 L15.626,39.9583 C15.626,40.5833 16.0427,41 16.6677,41 L23.855,41 C24.48,41 24.8967,40.5833 24.8967,39.9583 L24.8967,35.1666 C24.7925,34.3333 24.2717,33.8125 23.7508,33.8125 L23.7508,33.8128 Z" id="Path" stroke="#F36D45" stroke-width="0.6" mask="url(#mask-2)"></path>
                <mask id="mask-4" fill="white">
                    <use xlink:href="#path-3"></use>
                </mask>
                <g id="Path"></g>
            </g>
            <path d="M20.1055,12.7255 C15.6476,12.7255 12.0388,16.3343 12.0388,20.7922 C12.0388,25.25 15.6476,28.8589 20.1055,28.8589 C24.5634,28.8589 28.1722,25.25 28.1722,20.7922 C28.1722,16.3343 24.5634,12.7255 20.1055,12.7255 Z M20.1055,26.4755 C16.9591,26.4755 14.4222,23.9385 14.4222,20.7922 C14.4222,17.6458 16.9591,15.1088 20.1055,15.1088 C23.2519,15.1088 25.7889,17.6458 25.7889,20.7922 C25.7889,23.9385 23.2519,26.4755 20.1055,26.4755 Z" id="Shape" stroke="#F36D45" stroke-width="0.3" fill="#F36D45" fill-rule="nonzero"></path>
            <path d="M42.659,5.7559 C41.2701,5.22186 39.6655,5.22081 38.2719,5.86405 C36.8854,6.504 35.8176,7.5717 35.1777,8.9582 L35.1774,8.959 L34.6565,10.1048 L34.6564,10.1048 L34.6536,10.1118 L26.6329,30.4246 L26.6224,30.4511 L26.6224,30.4797 C26.6224,30.4894 26.6166,30.508 26.5862,30.5688 C26.5849,30.5714 26.5835,30.5742 26.582,30.5771 C26.5591,30.6226 26.5182,30.7035 26.5182,30.7922 L26.5182,30.8963 L26.5182,31.0005 L26.5182,31.0143 L26.5208,31.0278 L28.0833,39.4652 L28.0852,39.4754 L28.0885,39.4853 C28.2016,39.8246 28.4283,40.1665 28.7726,40.396 L28.8104,40.4212 L28.8558,40.4212 C28.8573,40.4212 28.8648,40.4216 28.8856,40.4289 C28.9003,40.4341 28.9132,40.4395 28.9301,40.4465 C28.941,40.451 28.9536,40.4562 28.9693,40.4625 C29.0426,40.4918 29.1411,40.5254 29.2725,40.5254 C29.5166,40.5254 29.7524,40.4074 29.9489,40.309 L29.9645,40.3012 L29.9763,40.2953 L29.9869,40.2874 L36.8616,35.1833 L36.8704,35.1767 L36.8782,35.1689 L36.9494,35.0978 C36.9635,35.0937 36.9792,35.088 36.9955,35.0798 C37.0263,35.0644 37.0617,35.039 37.089,34.998 C37.1048,34.9743 37.116,34.9484 37.1227,34.9208 C37.2261,34.7952 37.234,34.6662 37.2346,34.5709 L45.7654,13.1388 L45.766,13.1371 C46.3002,11.7482 46.3013,10.1434 45.658,8.7496 C45.0211,7.3695 44.0583,6.294 42.659,5.7558 L42.659,5.7559 Z M41.8155,8.0124 L41.8154,8.0126 L41.8238,8.0157 C42.6165,8.313 43.3137,9.0102 43.611,9.8029 L43.6137,9.8103 L43.6173,9.8174 C44.0112,10.6053 44.0149,11.4944 43.6157,12.3946 L43.575,12.4761 L37.3958,9.9845 L37.4272,9.9216 L37.432,9.912 L37.4354,9.9019 C37.7309,9.0155 38.4225,8.4158 39.2352,8.0094 C40.024,7.615 40.9142,7.6118 41.8155,8.0124 Z M42.7239,14.6253 L35.5427,32.6799 L29.3626,30.1879 L36.5438,12.1333 L42.7239,14.6253 Z M30.109,37.296 L29.36,32.8023 L33.7601,34.581 L30.109,37.296 Z" id="Shape" stroke="#F36D45" stroke-width="0.3" fill="#F36D45" fill-rule="nonzero"></path>
        </g>
    </g>
</svg>