<?xml version="1.0" encoding="UTF-8"?>
<svg width="48px" height="51px" viewBox="0 0 48 51" version="1.1" xmlns="http://www.w3.org/2000/svg" xmlns:xlink="http://www.w3.org/1999/xlink">
    <title>noun-prototyping-1871644 1</title>
    <g id="Page-1" stroke="none" stroke-width="1" fill="none" fill-rule="evenodd">
        <g id="noun-prototyping-1871644-1" transform="translate(1.040382, 1.000000)" fill="#E85C4B" fill-rule="nonzero" stroke="#E85C4B">
            <path d="M46.63249,5.384469 L46.55169,5.384619 C46.50269,3.657709 45.81999,2.324629 44.80559,1.416349 C43.75559,0.47631 42.36029,0 40.96959,0 C38.47859,0 35.88559,1.607059 35.48329,4.615249 L0.96955,4.615249 C0.69342,4.615249 0.4477,4.708559 0.2705,4.885749 C0.09331,5.062939 0,5.308659 0,5.584799 L0,39.739279 C0,40.015479 0.0933,40.261179 0.27049,40.438379 C0.44768,40.615579 0.69341,40.708879 0.96955,40.708879 L38.73909,40.708879 C43.07999,40.708879 46.63059,37.158379 46.63059,32.817379 L46.63249,5.584869 L46.63249,5.384469 Z M44.53459,33.890279 C44.02399,36.322679 41.95939,38.738979 38.72549,38.769779 L38.66289,38.769779 L1.9389,38.769779 L1.9389,6.554799 L35.46289,6.554799 L35.46289,32.739779 C35.46289,33.015979 35.55619,33.261679 35.73339,33.438879 C35.91059,33.616079 36.15629,33.709379 36.43249,33.709379 C36.70859,33.709379 36.95429,33.616079 37.13149,33.438879 C37.30869,33.261679 37.40199,33.015979 37.40199,32.739779 C37.40199,31.488079 37.87839,30.582479 38.56389,29.987279 C39.25369,29.388179 40.16679,29.094079 41.04769,29.094079 L41.04779,29.094079 C42.54489,29.093679 43.52999,29.694579 44.08649,30.574579 C44.64899,31.463979 44.79139,32.667079 44.53459,33.890279 Z M40.96959,1.939299 C41.96379,1.939299 42.87439,2.270639 43.53459,2.885639 C44.19269,3.498589 44.61529,4.405429 44.61529,5.584999 L44.61529,28.441479 C43.59969,27.600479 42.25189,27.154479 40.96959,27.154479 C39.68719,27.154479 38.33939,27.600479 37.32389,28.441479 L37.32389,5.584999 C37.32389,4.333289 37.80019,3.427669 38.48569,2.832439 C39.17559,2.233389 40.08859,1.939299 40.96959,1.939299 Z" id="Shape" stroke-width="0.4"></path>
            <path d="M5.3091,18.919579 L5.3091,18.939479 L5.5091,18.939479 L31.81759,18.939479 C32.09369,18.939479 32.33949,18.846179 32.51669,18.668979 C32.69389,18.491779 32.78719,18.246079 32.78719,17.969979 L32.78719,12.278479 C32.78719,12.002279 32.69389,11.756579 32.51669,11.579379 C32.33949,11.402179 32.09379,11.308879 31.81759,11.308879 L5.50911,11.306979 L5.5091,11.306979 C5.23297,11.306979 4.98724,11.400279 4.81005,11.577479 C4.63286,11.754679 4.53955,12.000379 4.53955,12.276479 L4.53955,17.967979 C4.53955,18.394179 4.83845,18.823379 5.3091,18.919579 Z M6.47865,13.245979 L30.84819,13.245979 L30.84819,17.000279 L6.47865,17.000279 L6.47865,13.245979 Z" id="Shape" stroke-width="0.4"></path>
            <path d="M15.12409,21.922379 L15.12409,21.922379 L5.5091,21.924379 C5.50909,21.924379 5.50907,21.924379 5.50906,21.924379 C5.23294,21.924379 4.98724,22.017679 4.81005,22.194879 C4.63286,22.372079 4.53955,22.617779 4.53955,22.893879 L4.53955,28.432879 C4.53955,28.913479 4.92535,29.400479 5.5091,29.400479 L5.7091,29.400479 L5.7091,29.400479 L15.12409,29.400479 C15.40019,29.400479 15.64599,29.307179 15.82319,29.130079 C16.00039,28.952879 16.09369,28.707079 16.09369,28.430979 L16.09369,22.891979 C16.09369,22.615879 16.00039,22.370079 15.82319,22.192879 C15.64599,22.015779 15.40029,21.922379 15.12409,21.922379 Z M6.47865,23.785479 L14.15469,23.785479 L14.15469,27.385479 L6.47865,27.385479 L6.47865,23.785479 Z" id="Shape" stroke-width="0.4"></path>
            <path d="M31.81759,21.845979 L22.20259,21.845979 C21.92649,21.845979 21.68069,21.939279 21.50349,22.116479 C21.32639,22.293679 21.23299,22.539379 21.23299,22.815579 L21.23299,28.354579 C21.23299,28.630679 21.32629,28.876379 21.50349,29.053579 C21.68069,29.230779 21.92639,29.324079 22.20259,29.324079 L31.81759,29.324079 C32.09369,29.324079 32.33939,29.230779 32.51659,29.053579 C32.69379,28.876379 32.78709,28.630679 32.78709,28.354579 L32.78709,22.815579 C32.78709,22.333379 32.40159,21.845979 31.81759,21.845979 Z M30.84609,23.860979 L30.84789,27.460979 L23.16999,27.460979 L23.16999,23.860979 L30.84609,23.860979 Z" id="Shape" stroke-width="0.4"></path>
            <path d="M33.55709,33.045979 L33.55709,33.045179 C33.55469,32.489379 33.17329,32.076479 32.66369,32.076479 L32.66349,32.076479 L4.66352,32.076479 C4.38739,32.076479 4.14166,32.169779 3.96447,32.346979 C3.78728,32.524179 3.69397,32.769879 3.69397,33.045979 C3.69397,33.322179 3.78727,33.567879 3.96446,33.745079 C4.14165,33.922279 4.38738,34.015579 4.66352,34.015579 L32.58749,34.015579 C32.86369,34.015579 33.10939,33.922279 33.28659,33.745079 C33.46379,33.567879 33.55709,33.322179 33.55709,33.045979 Z" id="Path" stroke-width="0.4"></path>
            <path d="M40.00049,7.891429 L40.00049,7.892449 C40.00179,8.149419 40.12879,8.389719 40.30099,8.561909 C40.47309,8.734039 40.71329,8.860979 40.96999,8.860979 C41.24619,8.860979 41.49189,8.767679 41.66909,8.590489 C41.84629,8.413299 41.93959,8.167569 41.93959,7.891429 L41.93959,5.582829 C41.93959,5.306699 41.84629,5.060979 41.66909,4.883789 C41.49189,4.706589 41.24619,4.613279 40.96999,4.613279 C40.69389,4.613279 40.44819,4.706589 40.27099,4.883779 C40.09379,5.060969 40.00049,5.306689 40.00049,5.582829 L40.00049,7.891429 Z" id="Path" stroke-width="0.4"></path>
            <path d="M40.00049,13.430879 L40.00049,13.431979 C40.00179,13.688879 40.12879,13.929179 40.30099,14.101379 C40.47309,14.273579 40.71329,14.400479 40.96999,14.400479 C41.24619,14.400479 41.49189,14.307179 41.66909,14.129979 C41.84629,13.952779 41.93959,13.707079 41.93959,13.430879 L41.93959,11.122279 C41.93959,10.846179 41.84629,10.600479 41.66909,10.423279 C41.49189,10.246079 41.24619,10.152779 40.96999,10.152779 C40.69389,10.152779 40.44819,10.246079 40.27099,10.423279 C40.09379,10.600479 40.00049,10.846179 40.00049,11.122279 L40.00049,13.430879 Z" id="Path" stroke-width="0.4"></path>
            <path d="M40.00049,18.891479 L40.00049,18.892279 C40.00299,19.477479 40.48969,19.860979 40.96999,19.860979 C41.24619,19.860979 41.49189,19.767679 41.66909,19.590479 C41.84629,19.413279 41.93959,19.167579 41.93959,18.891479 L41.93959,16.582879 C41.93959,16.306679 41.84629,16.060979 41.66909,15.883779 C41.49189,15.706579 41.24619,15.613279 40.96999,15.613279 C40.69389,15.613279 40.44819,15.706579 40.27099,15.883779 C40.09379,16.060979 40.00049,16.306679 40.00049,16.582879 L40.00049,18.891479 Z" id="Path" stroke-width="0.4"></path>
            <path d="M40.00049,24.430879 L40.00049,24.431979 C40.00179,24.688879 40.12879,24.929179 40.30099,25.101379 C40.47309,25.273579 40.71329,25.400479 40.96999,25.400479 C41.24619,25.400479 41.49189,25.307179 41.66909,25.129979 C41.84629,24.952779 41.93959,24.707079 41.93959,24.430879 L41.93959,22.122279 C41.93959,21.846179 41.84629,21.600479 41.66909,21.423279 C41.49189,21.246079 41.24619,21.152779 40.96999,21.152779 C40.69389,21.152779 40.44819,21.246079 40.27099,21.423279 C40.09379,21.600479 40.00049,21.846179 40.00049,22.122279 L40.00049,24.430879 Z" id="Path" stroke-width="0.4"></path>
            <path d="M11.81259,42.762279 L5.37768,45.291079 L5.37746,45.290579 L5.36546,45.296579 C5.19336,45.382579 5.05572,45.494479 4.96146,45.636179 C4.86659,45.778779 4.82161,45.942679 4.82161,46.122079 C4.82161,46.312579 4.89205,46.495579 4.99235,46.640379 C5.0907,46.782379 5.22843,46.902679 5.38124,46.954479 L11.83869,49.492179 L11.86509,49.502579 L11.89119,49.502579 C11.89259,49.502879 11.89619,49.503779 11.90279,49.506079 C11.91279,49.509579 11.92099,49.512979 11.93239,49.517579 C11.94049,49.520979 11.95029,49.524979 11.96359,49.530179 C12.01999,49.552479 12.09819,49.578679 12.20219,49.578679 L41.04769,49.578679 C41.31239,49.578679 41.54479,49.489479 41.71129,49.322879 C41.87789,49.156279 41.96719,48.923879 41.96719,48.659179 L41.96719,43.583179 L41.96719,43.558679 L41.95939,43.535379 C41.79249,43.038879 41.44049,42.665679 40.89349,42.665579 L40.89349,42.6654726 L12.12399,42.6654726 C12.12229,42.6654726 12.12049,42.6654726 12.11859,42.6654726 C12.04569,42.665379 11.92589,42.665279 11.81259,42.762279 Z M13.04349,44.504579 L31.28249,44.504579 L31.28249,47.743579 L13.04349,47.741679 L13.04349,44.504579 Z M33.11949,44.504579 L34.43479,44.504579 L34.43479,47.743579 L33.11949,47.743579 L33.11949,44.504579 Z M11.20449,44.955479 L11.20449,47.288779 L8.15862,46.122079 L11.20449,44.955479 Z M39.97399,47.741679 L36.19789,47.741679 L36.19789,44.502579 L39.97399,44.502579 L39.97399,47.741679 Z" id="Shape" stroke-width="0.3"></path>
        </g>
    </g>
</svg>