<?xml version="1.0" encoding="UTF-8"?>
<svg width="40px" height="36px" viewBox="0 0 40 36" version="1.1" xmlns="http://www.w3.org/2000/svg" xmlns:xlink="http://www.w3.org/1999/xlink">
    <title>noun-product-1410036 1</title>
    <g id="Page-1" stroke="none" stroke-width="1" fill="none" fill-rule="evenodd">
        <g id="noun-product-1410036-1" transform="translate(0.800000, 0.800000)" fill="#F36D45" fill-rule="nonzero" stroke="#F36D45" stroke-width="0.4">
            <path d="M38.4,1.59706 L38.4,1.39706 L38.2,1.39706 L18.2935,1.39706 L18.2935,0.2 L18.2935,-8.8817842e-16 L18.0935,-8.8817842e-16 L6.6265,-8.8817842e-16 L6.4265,-8.8817842e-16 L6.4265,0.2 L6.4265,1.39706 L0.2,1.39706 L-8.8817842e-16,1.39706 L-8.8817842e-16,1.59706 L-8.8817842e-16,11.6559 L-8.8817842e-16,11.8559 L0.2,11.8559 L1.67647,11.8559 L1.67647,34.5676 L1.67647,34.7676 L1.87647,34.7676 L36.5235,34.7676 L36.7235,34.7676 L36.7235,34.5676 L36.7235,11.8559 L38.2,11.8559 L38.4,11.8559 L38.4,11.6559 L38.4,1.59706 Z M18.2935,21.2408 L18.2935,11.8559 L34.6471,11.8559 L34.6471,32.6912 L3.75294,32.6912 L3.75294,11.8559 L6.4265,11.8559 L6.427,21.1993 L6.4271,21.5636 L6.7344,21.3681 L12.4614,17.7249 L17.9826,21.4072 L18.2935,21.6146 L18.2935,21.2408 Z M12.5964,15.3182 L12.488,15.2459 L12.378,15.3158 L8.5029,17.7812 L8.5027,2.0763 L16.2168,2.0763 L16.2168,17.7325 L12.5964,15.3182 Z M2.07647,9.7794 L2.07647,3.4735 L6.4265,3.4735 L6.4265,9.7794 L2.07647,9.7794 Z M36.3235,9.7794 L18.2935,9.7794 L18.2935,3.4735 L36.3235,3.4735 L36.3235,9.7794 Z" id="Shape"></path>
        </g>
    </g>
</svg>