<?xml version="1.0" encoding="UTF-8"?>
<svg width="49px" height="49px" viewBox="0 0 49 49" version="1.1" xmlns="http://www.w3.org/2000/svg" xmlns:xlink="http://www.w3.org/1999/xlink">
    <title>noun-iot-4321640 1</title>
    <defs>
        <rect id="path-1" x="-1.11022302e-15" y="-4.4408921e-16" width="48" height="48"></rect>
        <path d="M24.249878,37.500397 C27.763478,37.500397 31.134878,36.103897 33.618878,33.619497 C36.102878,31.135197 37.499678,27.763997 37.499678,24.250497 C37.499678,20.736997 36.103178,17.365497 33.618878,14.881497 C31.134478,12.397497 27.763378,11.000697 24.249878,11.000697 C20.736378,11.000697 17.364878,12.397197 14.880878,14.881497 C12.396878,17.365897 10.999978,20.736997 10.999978,24.250497 C11.003878,27.764197 12.400378,31.131497 14.884778,33.615497 C17.369078,36.099497 20.736278,37.496397 24.249778,37.500397 L24.249878,37.500397 Z M19.054378,31.285397 C20.499678,30.851797 21.991878,30.599797 23.499678,30.535397 L23.499678,35.914397 C21.710578,35.529597 20.114878,33.785497 19.054378,31.285497 L19.054378,31.285397 Z M24.999878,30.535397 C26.507678,30.599897 27.999878,30.851797 29.445178,31.285397 C28.384578,33.785397 26.790878,35.529497 24.999878,35.916197 L24.999878,30.535397 Z M24.999878,29.035397 L24.999878,25.000197 L30.775378,25.000197 C30.720678,26.654497 30.449178,28.293197 29.964778,29.875197 C28.353478,29.383097 26.683578,29.099797 24.999978,29.035397 L24.999878,29.035397 Z M24.999878,23.500397 L24.999878,19.461297 C26.683478,19.396897 28.353378,19.115597 29.964678,18.619497 C30.447078,20.203497 30.720578,21.846097 30.775278,23.500397 L24.999878,23.500397 Z M24.999878,17.965397 L24.999878,12.586397 C26.788878,12.971197 28.384578,14.717197 29.445178,17.217197 L29.445178,17.215297 C27.999878,17.648897 26.507678,17.900797 24.999878,17.965297 L24.999878,17.965397 Z M23.499878,17.965397 C21.992078,17.900897 20.499878,17.648997 19.054578,17.215397 C20.115078,14.715397 21.708878,12.971197 23.499878,12.584497 L23.499878,17.965397 Z M23.499878,19.465397 L23.499878,23.500497 L17.749878,23.500497 C17.804478,21.846197 18.075978,20.203597 18.560378,18.619697 C20.163878,19.113797 21.824078,19.395097 23.499878,19.461497 L23.499878,19.465397 Z M23.499878,25.004397 L23.499878,29.039497 C21.816278,29.105997 20.146378,29.387197 18.534978,29.881297 C18.060378,28.295397 17.794778,26.654797 17.749878,25.000497 L23.499878,25.004397 Z M17.095378,30.381397 C16.353178,30.668497 15.630478,31.002497 14.929378,31.381397 C13.513378,29.539597 12.675478,27.318897 12.525078,25.000397 L16.220378,25.000397 C16.269178,26.824597 16.564078,28.635097 17.095378,30.381397 Z M15.939078,32.551297 C16.478178,32.271997 17.034778,32.016097 17.599278,31.791497 L17.599278,31.789597 C18.062078,32.943897 18.694978,34.021997 19.480078,34.984897 C18.159778,34.396997 16.960578,33.572797 15.939078,32.551297 L15.939078,32.551297 Z M29.019078,34.986797 L29.019078,34.984897 C29.804278,34.021997 30.437078,32.943897 30.899978,31.789597 C31.464378,32.014197 32.019078,32.289597 32.560078,32.549297 L32.560078,32.551297 C31.538578,33.572797 30.339378,34.396997 29.019078,34.984897 L29.019078,34.986797 Z M33.569878,31.396997 L33.569878,31.394997 C32.868778,31.016097 32.146078,30.682097 31.403878,30.394997 C31.937078,28.644997 32.231978,26.830597 32.278878,25.000497 L35.974178,25.000497 C35.825778,27.324697 34.989778,29.549397 33.569878,31.394997 L33.569878,31.396997 Z M32.278878,23.500497 C32.230078,21.676297 31.935178,19.865697 31.403878,18.119497 C32.146078,17.832397 32.868778,17.498397 33.569878,17.119497 C34.985878,18.961297 35.823778,21.181997 35.974178,23.500497 L32.278878,23.500497 Z M32.558178,15.949497 L32.560178,15.949497 C32.021078,16.230697 31.466378,16.482697 30.899978,16.705297 C30.437078,15.552997 29.804278,14.478797 29.019178,13.515897 C30.339478,14.103797 31.538678,14.927997 32.560178,15.949497 L32.558178,15.949497 Z M19.480178,13.515897 C18.695078,14.478797 18.062278,15.552997 17.599378,16.705297 C17.032978,16.482697 16.478278,16.230697 15.939178,15.949497 C16.960678,14.927997 18.159878,14.103797 19.480178,13.515897 Z M14.929378,17.105697 C15.630578,17.482697 16.353278,17.816697 17.095378,18.105697 C16.562178,19.855697 16.267278,21.670197 16.220378,23.500197 L12.525078,23.500197 C12.673478,21.175997 13.509478,18.951397 14.929378,17.105697 Z M7.899878,34.420197 C8.116678,34.771797 8.009258,35.234697 7.659648,35.455397 C7.540508,35.527697 7.403788,35.5648171 7.265118,35.5648171 C7.007308,35.566697 6.767068,35.433897 6.630368,35.215197 C5.804218,33.892897 5.134268,32.480797 4.630368,31.006197 C4.491698,30.613597 4.696768,30.183897 5.089348,30.045197 C5.481928,29.906497 5.911598,30.113597 6.050298,30.506197 C6.517098,31.875297 7.138198,33.187797 7.899898,34.420197 L7.899878,34.420197 Z M9.519078,38.865497 C9.370578,38.724897 9.286578,38.531597 9.28264491,38.328397 C9.280778,38.125297 9.360778,37.929997 9.505378,37.785497 C9.649878,37.642897 9.847178,37.564797 10.050278,37.568697 C10.253378,37.574597 10.446778,37.660497 10.585378,37.810897 L10.640078,37.861697 L10.640078,37.859697 C11.642078,38.867497 12.753378,39.760097 13.954578,40.519897 C14.237778,40.699597 14.368578,41.043297 14.274878,41.365597 C14.181078,41.687797 13.884278,41.908497 13.550278,41.904597 C13.407678,41.904597 13.268978,41.863597 13.149878,41.785497 C11.858878,40.965197 10.661578,40.006197 9.579578,38.926097 L9.519078,38.865497 Z M9.683078,10.525497 L9.685078,10.525497 C9.392078,10.232597 9.392078,9.757897 9.685078,9.464997 C10.794478,8.371247 12.024878,7.406397 13.349078,6.586097 C13.700678,6.373207 14.157678,6.482577 14.374478,6.832187 C14.591278,7.181797 14.485878,7.640787 14.140078,7.859537 C12.911578,8.621237 11.774878,9.519697 10.749478,10.535297 C10.614778,10.666197 10.436978,10.742397 10.249478,10.750197 C10.038578,10.759997 9.831578,10.677897 9.685078,10.525597 L9.683078,10.525497 Z M38.919578,37.859497 C39.062178,38.000197 39.140278,38.191597 39.140278,38.390797 C39.140278,38.589997 39.062178,38.779497 38.919578,38.920097 C37.819978,40.025497 36.599278,41.002097 35.278978,41.830197 C34.931378,42.025597 34.489978,41.914197 34.277078,41.574397 C34.064178,41.234497 34.155978,40.789197 34.484078,40.560697 C35.706678,39.789197 36.839478,38.882997 37.859078,37.859597 C38.153978,37.570497 38.626678,37.570497 38.919578,37.859597 L38.919578,37.859497 Z M40.679378,14.204997 C40.464478,13.853497 40.575878,13.392497 40.927378,13.177697 C41.278978,12.962897 41.739878,13.072197 41.954778,13.425697 C42.769178,14.751897 43.431278,16.167897 43.925478,17.644497 C43.989878,17.833897 43.976178,18.038997 43.888378,18.218697 C43.800478,18.396397 43.644178,18.533097 43.454778,18.595597 C43.378578,18.622997 43.296578,18.636697 43.214478,18.634697 C42.896178,18.636697 42.610978,18.435497 42.505478,18.134697 C42.044578,16.761697 41.433278,15.443297 40.679378,14.204997 L40.679378,14.204997 Z M40.400078,34.749997 C41.187178,33.539097 41.835578,32.242197 42.329778,30.884797 C42.487978,30.525397 42.896178,30.347697 43.267278,30.480497 C43.638378,30.611397 43.843378,31.005897 43.739878,31.384797 C43.204778,32.849697 42.505478,34.248097 41.653978,35.554697 C41.515278,35.767597 41.278978,35.894497 41.025078,35.894497 C40.878578,35.894497 40.737978,35.851597 40.614878,35.775397 C40.276978,35.548797 40.181278,35.093797 40.400078,34.749997 L40.400078,34.749997 Z M34.449078,7.025547 C34.556478,6.857577 34.726378,6.738437 34.919778,6.697417 C35.115078,6.654447 35.318178,6.691557 35.484178,6.800937 C36.726378,7.599787 37.878778,8.533337 38.919778,9.580197 L39.095578,9.750197 C39.384578,10.043097 39.384578,10.515797 39.095578,10.810697 C38.960778,10.943497 38.783078,11.019697 38.595578,11.0256285 C38.392378,11.027497 38.199078,10.943497 38.060378,10.795097 L37.900278,10.640797 C36.931478,9.670097 35.865078,8.804837 34.714678,8.060687 C34.540878,7.959127 34.413878,7.793107 34.363078,7.597797 C34.314278,7.404437 34.345578,7.197407 34.449078,7.025547 L34.449078,7.025547 Z M4.705048,17.249997 C5.228498,15.787097 5.914048,14.388697 6.749948,13.080097 C6.982368,12.755897 7.427698,12.671897 7.763598,12.886797 C8.099538,13.103597 8.206958,13.542997 8.009698,13.890697 C7.238198,15.101597 6.603448,16.396497 6.119098,17.750097 C6.013628,18.048897 5.732378,18.250097 5.413998,18.250097 C5.328058,18.250097 5.242118,18.234497 5.160088,18.205197 C4.972588,18.138797 4.818298,18.001997 4.734308,17.822397 C4.648368,17.642697 4.638608,17.437597 4.705008,17.250097 L4.705048,17.249997 Z M17.810578,6.060547 C17.890678,6.058587 17.972678,6.044917 18.050778,6.019527 C19.011778,5.695307 19.998078,5.449227 20.999978,5.279277 L20.999978,6.749977 C20.999978,6.949197 21.078078,7.140607 21.218778,7.281227 C21.359378,7.421857 21.550778,7.499977 21.749978,7.499977 L26.749978,7.499977 C27.164078,7.499977 27.499978,7.164037 27.499978,6.749977 L27.499978,5.279277 C28.623078,5.470687 29.728478,5.759747 30.800778,6.144527 C30.880878,6.173827 30.968778,6.189447 31.054678,6.189447 C31.404278,6.171867 31.695278,5.916007 31.755878,5.572247 C31.818378,5.226547 31.632778,4.886697 31.310578,4.749997 C30.074178,4.296877 28.798878,3.960947 27.499978,3.749997 L27.499978,1.749997 C27.499978,1.335937 27.164078,0.999997 26.749978,0.999997 L21.749978,0.999997 C21.335878,0.999997 20.999978,1.335937 20.999978,1.749997 L20.999978,3.749997 C19.833978,3.933597 18.687478,4.216797 17.570278,4.595697 C17.222578,4.712887 17.011678,5.064447 17.072278,5.425797 C17.130878,5.789077 17.443378,6.054697 17.810578,6.054697 L17.810578,6.060547 Z M22.499978,2.499997 L25.999978,2.499997 L25.999978,5.999997 L22.499978,5.999997 L22.499978,2.499997 Z M26.749978,40.999997 L21.749978,40.999997 C21.335978,40.999997 20.999978,41.335897 20.999978,41.749997 L20.999978,43.249997 C19.925778,43.064397 18.869178,42.790997 17.839878,42.429697 C17.449178,42.290997 17.021478,42.496097 16.882778,42.886697 C16.744078,43.277397 16.949178,43.706997 17.339878,43.845697 C18.529278,44.259797 19.753878,44.562497 20.999978,44.749997 L20.999978,46.749997 C20.999978,47.164097 21.335878,47.499997 21.749978,47.499997 L26.749978,47.499997 C27.164078,47.499997 27.499978,47.164097 27.499978,46.749997 L27.499978,44.749997 C28.716778,44.560597 29.915978,44.261697 31.080078,43.859397 C31.472678,43.722697 31.677778,43.292997 31.539078,42.900397 C31.402378,42.507797 30.972678,42.302797 30.580078,42.439497 C29.578078,42.794997 28.546878,43.064497 27.499978,43.249997 L27.499978,41.749997 C27.499978,41.335997 27.163978,40.999997 26.749978,40.999997 L26.749978,40.999997 Z M25.999978,45.999997 L22.499978,45.999997 L22.499978,42.499997 L25.999978,42.499997 L25.999978,45.999997 Z M40.999978,21.749997 L40.999978,26.749997 C40.999978,27.164097 41.335978,27.499997 41.749978,27.499997 L44.095678,27.499997 C44.123078,27.501997 44.152378,27.501997 44.179678,27.499997 L46.749978,27.499997 C47.164078,27.499997 47.499978,27.164097 47.499978,26.749997 L47.499978,21.749997 C47.499978,21.335897 47.164078,20.999997 46.749978,20.999997 L41.749978,20.999997 C41.335878,20.999997 40.999978,21.335897 40.999978,21.749997 L40.999978,21.749997 Z M42.499978,22.499997 L45.999978,22.499997 L45.999978,25.999997 L42.499978,25.999997 L42.499978,22.499997 Z M1.749998,27.499997 L6.749998,27.499997 C7.164058,27.499997 7.499998,27.164097 7.499998,26.749997 L7.499998,21.749997 C7.499998,21.335897 7.164058,20.999997 6.749998,20.999997 L1.749998,20.999997 C1.335938,20.999997 0.999998,21.335897 0.999998,21.749997 L0.999998,26.749997 C0.999998,27.164097 1.335938,27.499997 1.749998,27.499997 Z M2.499998,22.499997 L5.999998,22.499997 L5.999998,25.999997 L2.499998,25.999997 L2.499998,22.499997 Z" id="path-3"></path>
    </defs>
    <g id="Page-1" stroke="none" stroke-width="1" fill="none" fill-rule="evenodd">
        <g id="noun-iot-4321640-1" transform="translate(0.068994, 0.565082)">
            <path d="M24.249878,37.500397 C27.763478,37.500397 31.134878,36.103897 33.618878,33.619497 C36.102878,31.135197 37.499678,27.763997 37.499678,24.250497 C37.499678,20.736997 36.103178,17.365497 33.618878,14.881497 C31.134478,12.397497 27.763378,11.000697 24.249878,11.000697 C20.736378,11.000697 17.364878,12.397197 14.880878,14.881497 C12.396878,17.365897 10.999978,20.736997 10.999978,24.250497 C11.003878,27.764197 12.400378,31.131497 14.884778,33.615497 C17.369078,36.099497 20.736278,37.496397 24.249778,37.500397 L24.249878,37.500397 Z M19.054378,31.285397 C20.499678,30.851797 21.991878,30.599797 23.499678,30.535397 L23.499678,35.914397 C21.710578,35.529597 20.114878,33.785497 19.054378,31.285497 L19.054378,31.285397 Z M24.999878,30.535397 C26.507678,30.599897 27.999878,30.851797 29.445178,31.285397 C28.384578,33.785397 26.790878,35.529497 24.999878,35.916197 L24.999878,30.535397 Z M24.999878,29.035397 L24.999878,25.000197 L30.775378,25.000197 C30.720678,26.654497 30.449178,28.293197 29.964778,29.875197 C28.353478,29.383097 26.683578,29.099797 24.999978,29.035397 L24.999878,29.035397 Z M24.999878,23.500397 L24.999878,19.461297 C26.683478,19.396897 28.353378,19.115597 29.964678,18.619497 C30.447078,20.203497 30.720578,21.846097 30.775278,23.500397 L24.999878,23.500397 Z M24.999878,17.965397 L24.999878,12.586397 C26.788878,12.971197 28.384578,14.717197 29.445178,17.217197 L29.445178,17.215297 C27.999878,17.648897 26.507678,17.900797 24.999878,17.965297 L24.999878,17.965397 Z M23.499878,17.965397 C21.992078,17.900897 20.499878,17.648997 19.054578,17.215397 C20.115078,14.715397 21.708878,12.971197 23.499878,12.584497 L23.499878,17.965397 Z M23.499878,19.465397 L23.499878,23.500497 L17.749878,23.500497 C17.804478,21.846197 18.075978,20.203597 18.560378,18.619697 C20.163878,19.113797 21.824078,19.395097 23.499878,19.461497 L23.499878,19.465397 Z M23.499878,25.004397 L23.499878,29.039497 C21.816278,29.105997 20.146378,29.387197 18.534978,29.881297 C18.060378,28.295397 17.794778,26.654797 17.749878,25.000497 L23.499878,25.004397 Z M17.095378,30.381397 C16.353178,30.668497 15.630478,31.002497 14.929378,31.381397 C13.513378,29.539597 12.675478,27.318897 12.525078,25.000397 L16.220378,25.000397 C16.269178,26.824597 16.564078,28.635097 17.095378,30.381397 Z M15.939078,32.551297 C16.478178,32.271997 17.034778,32.016097 17.599278,31.791497 L17.599278,31.789597 C18.062078,32.943897 18.694978,34.021997 19.480078,34.984897 C18.159778,34.396997 16.960578,33.572797 15.939078,32.551297 L15.939078,32.551297 Z M29.019078,34.986797 L29.019078,34.984897 C29.804278,34.021997 30.437078,32.943897 30.899978,31.789597 C31.464378,32.014197 32.019078,32.289597 32.560078,32.549297 L32.560078,32.551297 C31.538578,33.572797 30.339378,34.396997 29.019078,34.984897 L29.019078,34.986797 Z M33.569878,31.396997 L33.569878,31.394997 C32.868778,31.016097 32.146078,30.682097 31.403878,30.394997 C31.937078,28.644997 32.231978,26.830597 32.278878,25.000497 L35.974178,25.000497 C35.825778,27.324697 34.989778,29.549397 33.569878,31.394997 L33.569878,31.396997 Z M32.278878,23.500497 C32.230078,21.676297 31.935178,19.865697 31.403878,18.119497 C32.146078,17.832397 32.868778,17.498397 33.569878,17.119497 C34.985878,18.961297 35.823778,21.181997 35.974178,23.500497 L32.278878,23.500497 Z M32.558178,15.949497 L32.560178,15.949497 C32.021078,16.230697 31.466378,16.482697 30.899978,16.705297 C30.437078,15.552997 29.804278,14.478797 29.019178,13.515897 C30.339478,14.103797 31.538678,14.927997 32.560178,15.949497 L32.558178,15.949497 Z M19.480178,13.515897 C18.695078,14.478797 18.062278,15.552997 17.599378,16.705297 C17.032978,16.482697 16.478278,16.230697 15.939178,15.949497 C16.960678,14.927997 18.159878,14.103797 19.480178,13.515897 Z M14.929378,17.105697 C15.630578,17.482697 16.353278,17.816697 17.095378,18.105697 C16.562178,19.855697 16.267278,21.670197 16.220378,23.500197 L12.525078,23.500197 C12.673478,21.175997 13.509478,18.951397 14.929378,17.105697 Z M7.899878,34.420197 C8.116678,34.771797 8.009258,35.234697 7.659648,35.455397 C7.540508,35.527697 7.403788,35.5648171 7.265118,35.5648171 C7.007308,35.566697 6.767068,35.433897 6.630368,35.215197 C5.804218,33.892897 5.134268,32.480797 4.630368,31.006197 C4.491698,30.613597 4.696768,30.183897 5.089348,30.045197 C5.481928,29.906497 5.911598,30.113597 6.050298,30.506197 C6.517098,31.875297 7.138198,33.187797 7.899898,34.420197 L7.899878,34.420197 Z M9.519078,38.865497 C9.370578,38.724897 9.286578,38.531597 9.28264491,38.328397 C9.280778,38.125297 9.360778,37.929997 9.505378,37.785497 C9.649878,37.642897 9.847178,37.564797 10.050278,37.568697 C10.253378,37.574597 10.446778,37.660497 10.585378,37.810897 L10.640078,37.861697 L10.640078,37.859697 C11.642078,38.867497 12.753378,39.760097 13.954578,40.519897 C14.237778,40.699597 14.368578,41.043297 14.274878,41.365597 C14.181078,41.687797 13.884278,41.908497 13.550278,41.904597 C13.407678,41.904597 13.268978,41.863597 13.149878,41.785497 C11.858878,40.965197 10.661578,40.006197 9.579578,38.926097 L9.519078,38.865497 Z M9.683078,10.525497 L9.685078,10.525497 C9.392078,10.232597 9.392078,9.757897 9.685078,9.464997 C10.794478,8.371247 12.024878,7.406397 13.349078,6.586097 C13.700678,6.373207 14.157678,6.482577 14.374478,6.832187 C14.591278,7.181797 14.485878,7.640787 14.140078,7.859537 C12.911578,8.621237 11.774878,9.519697 10.749478,10.535297 C10.614778,10.666197 10.436978,10.742397 10.249478,10.750197 C10.038578,10.759997 9.831578,10.677897 9.685078,10.525597 L9.683078,10.525497 Z M38.919578,37.859497 C39.062178,38.000197 39.140278,38.191597 39.140278,38.390797 C39.140278,38.589997 39.062178,38.779497 38.919578,38.920097 C37.819978,40.025497 36.599278,41.002097 35.278978,41.830197 C34.931378,42.025597 34.489978,41.914197 34.277078,41.574397 C34.064178,41.234497 34.155978,40.789197 34.484078,40.560697 C35.706678,39.789197 36.839478,38.882997 37.859078,37.859597 C38.153978,37.570497 38.626678,37.570497 38.919578,37.859597 L38.919578,37.859497 Z M40.679378,14.204997 C40.464478,13.853497 40.575878,13.392497 40.927378,13.177697 C41.278978,12.962897 41.739878,13.072197 41.954778,13.425697 C42.769178,14.751897 43.431278,16.167897 43.925478,17.644497 C43.989878,17.833897 43.976178,18.038997 43.888378,18.218697 C43.800478,18.396397 43.644178,18.533097 43.454778,18.595597 C43.378578,18.622997 43.296578,18.636697 43.214478,18.634697 C42.896178,18.636697 42.610978,18.435497 42.505478,18.134697 C42.044578,16.761697 41.433278,15.443297 40.679378,14.204997 L40.679378,14.204997 Z M40.400078,34.749997 C41.187178,33.539097 41.835578,32.242197 42.329778,30.884797 C42.487978,30.525397 42.896178,30.347697 43.267278,30.480497 C43.638378,30.611397 43.843378,31.005897 43.739878,31.384797 C43.204778,32.849697 42.505478,34.248097 41.653978,35.554697 C41.515278,35.767597 41.278978,35.894497 41.025078,35.894497 C40.878578,35.894497 40.737978,35.851597 40.614878,35.775397 C40.276978,35.548797 40.181278,35.093797 40.400078,34.749997 L40.400078,34.749997 Z M34.449078,7.025547 C34.556478,6.857577 34.726378,6.738437 34.919778,6.697417 C35.115078,6.654447 35.318178,6.691557 35.484178,6.800937 C36.726378,7.599787 37.878778,8.533337 38.919778,9.580197 L39.095578,9.750197 C39.384578,10.043097 39.384578,10.515797 39.095578,10.810697 C38.960778,10.943497 38.783078,11.019697 38.595578,11.0256285 C38.392378,11.027497 38.199078,10.943497 38.060378,10.795097 L37.900278,10.640797 C36.931478,9.670097 35.865078,8.804837 34.714678,8.060687 C34.540878,7.959127 34.413878,7.793107 34.363078,7.597797 C34.314278,7.404437 34.345578,7.197407 34.449078,7.025547 L34.449078,7.025547 Z M4.705048,17.249997 C5.228498,15.787097 5.914048,14.388697 6.749948,13.080097 C6.982368,12.755897 7.427698,12.671897 7.763598,12.886797 C8.099538,13.103597 8.206958,13.542997 8.009698,13.890697 C7.238198,15.101597 6.603448,16.396497 6.119098,17.750097 C6.013628,18.048897 5.732378,18.250097 5.413998,18.250097 C5.328058,18.250097 5.242118,18.234497 5.160088,18.205197 C4.972588,18.138797 4.818298,18.001997 4.734308,17.822397 C4.648368,17.642697 4.638608,17.437597 4.705008,17.250097 L4.705048,17.249997 Z M17.810578,6.060547 C17.890678,6.058587 17.972678,6.044917 18.050778,6.019527 C19.011778,5.695307 19.998078,5.449227 20.999978,5.279277 L20.999978,6.749977 C20.999978,6.949197 21.078078,7.140607 21.218778,7.281227 C21.359378,7.421857 21.550778,7.499977 21.749978,7.499977 L26.749978,7.499977 C27.164078,7.499977 27.499978,7.164037 27.499978,6.749977 L27.499978,5.279277 C28.623078,5.470687 29.728478,5.759747 30.800778,6.144527 C30.880878,6.173827 30.968778,6.189447 31.054678,6.189447 C31.404278,6.171867 31.695278,5.916007 31.755878,5.572247 C31.818378,5.226547 31.632778,4.886697 31.310578,4.749997 C30.074178,4.296877 28.798878,3.960947 27.499978,3.749997 L27.499978,1.749997 C27.499978,1.335937 27.164078,0.999997 26.749978,0.999997 L21.749978,0.999997 C21.335878,0.999997 20.999978,1.335937 20.999978,1.749997 L20.999978,3.749997 C19.833978,3.933597 18.687478,4.216797 17.570278,4.595697 C17.222578,4.712887 17.011678,5.064447 17.072278,5.425797 C17.130878,5.789077 17.443378,6.054697 17.810578,6.054697 L17.810578,6.060547 Z M22.499978,2.499997 L25.999978,2.499997 L25.999978,5.999997 L22.499978,5.999997 L22.499978,2.499997 Z M26.749978,40.999997 L21.749978,40.999997 C21.335978,40.999997 20.999978,41.335897 20.999978,41.749997 L20.999978,43.249997 C19.925778,43.064397 18.869178,42.790997 17.839878,42.429697 C17.449178,42.290997 17.021478,42.496097 16.882778,42.886697 C16.744078,43.277397 16.949178,43.706997 17.339878,43.845697 C18.529278,44.259797 19.753878,44.562497 20.999978,44.749997 L20.999978,46.749997 C20.999978,47.164097 21.335878,47.499997 21.749978,47.499997 L26.749978,47.499997 C27.164078,47.499997 27.499978,47.164097 27.499978,46.749997 L27.499978,44.749997 C28.716778,44.560597 29.915978,44.261697 31.080078,43.859397 C31.472678,43.722697 31.677778,43.292997 31.539078,42.900397 C31.402378,42.507797 30.972678,42.302797 30.580078,42.439497 C29.578078,42.794997 28.546878,43.064497 27.499978,43.249997 L27.499978,41.749997 C27.499978,41.335997 27.163978,40.999997 26.749978,40.999997 L26.749978,40.999997 Z M25.999978,45.999997 L22.499978,45.999997 L22.499978,42.499997 L25.999978,42.499997 L25.999978,45.999997 Z M40.999978,21.749997 L40.999978,26.749997 C40.999978,27.164097 41.335978,27.499997 41.749978,27.499997 L44.095678,27.499997 C44.123078,27.501997 44.152378,27.501997 44.179678,27.499997 L46.749978,27.499997 C47.164078,27.499997 47.499978,27.164097 47.499978,26.749997 L47.499978,21.749997 C47.499978,21.335897 47.164078,20.999997 46.749978,20.999997 L41.749978,20.999997 C41.335878,20.999997 40.999978,21.335897 40.999978,21.749997 L40.999978,21.749997 Z M42.499978,22.499997 L45.999978,22.499997 L45.999978,25.999997 L42.499978,25.999997 L42.499978,22.499997 Z M1.749998,27.499997 L6.749998,27.499997 C7.164058,27.499997 7.499998,27.164097 7.499998,26.749997 L7.499998,21.749997 C7.499998,21.335897 7.164058,20.999997 6.749998,20.999997 L1.749998,20.999997 C1.335938,20.999997 0.999998,21.335897 0.999998,21.749997 L0.999998,26.749997 C0.999998,27.164097 1.335938,27.499997 1.749998,27.499997 Z M2.499998,22.499997 L5.999998,22.499997 L5.999998,25.999997 L2.499998,25.999997 L2.499998,22.499997 Z" id="Shape" fill="#E85C4B" fill-rule="nonzero"></path>
            <g id="Clipped">
                <mask id="mask-2" fill="white">
                    <use xlink:href="#path-1"></use>
                </mask>
                <g id="Rectangle"></g>
                <path d="M24.249878,37.500397 C27.763478,37.500397 31.134878,36.103897 33.618878,33.619497 C36.102878,31.135197 37.499678,27.763997 37.499678,24.250497 C37.499678,20.736997 36.103178,17.365497 33.618878,14.881497 C31.134478,12.397497 27.763378,11.000697 24.249878,11.000697 C20.736378,11.000697 17.364878,12.397197 14.880878,14.881497 C12.396878,17.365897 10.999978,20.736997 10.999978,24.250497 C11.003878,27.764197 12.400378,31.131497 14.884778,33.615497 C17.369078,36.099497 20.736278,37.496397 24.249778,37.500397 L24.249878,37.500397 Z M19.054378,31.285397 C20.499678,30.851797 21.991878,30.599797 23.499678,30.535397 L23.499678,35.914397 C21.710578,35.529597 20.114878,33.785497 19.054378,31.285497 L19.054378,31.285397 Z M24.999878,30.535397 C26.507678,30.599897 27.999878,30.851797 29.445178,31.285397 C28.384578,33.785397 26.790878,35.529497 24.999878,35.916197 L24.999878,30.535397 Z M24.999878,29.035397 L24.999878,25.000197 L30.775378,25.000197 C30.720678,26.654497 30.449178,28.293197 29.964778,29.875197 C28.353478,29.383097 26.683578,29.099797 24.999978,29.035397 L24.999878,29.035397 Z M24.999878,23.500397 L24.999878,19.461297 C26.683478,19.396897 28.353378,19.115597 29.964678,18.619497 C30.447078,20.203497 30.720578,21.846097 30.775278,23.500397 L24.999878,23.500397 Z M24.999878,17.965397 L24.999878,12.586397 C26.788878,12.971197 28.384578,14.717197 29.445178,17.217197 L29.445178,17.215297 C27.999878,17.648897 26.507678,17.900797 24.999878,17.965297 L24.999878,17.965397 Z M23.499878,17.965397 C21.992078,17.900897 20.499878,17.648997 19.054578,17.215397 C20.115078,14.715397 21.708878,12.971197 23.499878,12.584497 L23.499878,17.965397 Z M23.499878,19.465397 L23.499878,23.500497 L17.749878,23.500497 C17.804478,21.846197 18.075978,20.203597 18.560378,18.619697 C20.163878,19.113797 21.824078,19.395097 23.499878,19.461497 L23.499878,19.465397 Z M23.499878,25.004397 L23.499878,29.039497 C21.816278,29.105997 20.146378,29.387197 18.534978,29.881297 C18.060378,28.295397 17.794778,26.654797 17.749878,25.000497 L23.499878,25.004397 Z M17.095378,30.381397 C16.353178,30.668497 15.630478,31.002497 14.929378,31.381397 C13.513378,29.539597 12.675478,27.318897 12.525078,25.000397 L16.220378,25.000397 C16.269178,26.824597 16.564078,28.635097 17.095378,30.381397 Z M15.939078,32.551297 C16.478178,32.271997 17.034778,32.016097 17.599278,31.791497 L17.599278,31.789597 C18.062078,32.943897 18.694978,34.021997 19.480078,34.984897 C18.159778,34.396997 16.960578,33.572797 15.939078,32.551297 L15.939078,32.551297 Z M29.019078,34.986797 L29.019078,34.984897 C29.804278,34.021997 30.437078,32.943897 30.899978,31.789597 C31.464378,32.014197 32.019078,32.289597 32.560078,32.549297 L32.560078,32.551297 C31.538578,33.572797 30.339378,34.396997 29.019078,34.984897 L29.019078,34.986797 Z M33.569878,31.396997 L33.569878,31.394997 C32.868778,31.016097 32.146078,30.682097 31.403878,30.394997 C31.937078,28.644997 32.231978,26.830597 32.278878,25.000497 L35.974178,25.000497 C35.825778,27.324697 34.989778,29.549397 33.569878,31.394997 L33.569878,31.396997 Z M32.278878,23.500497 C32.230078,21.676297 31.935178,19.865697 31.403878,18.119497 C32.146078,17.832397 32.868778,17.498397 33.569878,17.119497 C34.985878,18.961297 35.823778,21.181997 35.974178,23.500497 L32.278878,23.500497 Z M32.558178,15.949497 L32.560178,15.949497 C32.021078,16.230697 31.466378,16.482697 30.899978,16.705297 C30.437078,15.552997 29.804278,14.478797 29.019178,13.515897 C30.339478,14.103797 31.538678,14.927997 32.560178,15.949497 L32.558178,15.949497 Z M19.480178,13.515897 C18.695078,14.478797 18.062278,15.552997 17.599378,16.705297 C17.032978,16.482697 16.478278,16.230697 15.939178,15.949497 C16.960678,14.927997 18.159878,14.103797 19.480178,13.515897 Z M14.929378,17.105697 C15.630578,17.482697 16.353278,17.816697 17.095378,18.105697 C16.562178,19.855697 16.267278,21.670197 16.220378,23.500197 L12.525078,23.500197 C12.673478,21.175997 13.509478,18.951397 14.929378,17.105697 Z M7.899878,34.420197 C8.116678,34.771797 8.009258,35.234697 7.659648,35.455397 C7.540508,35.527697 7.403788,35.5648171 7.265118,35.5648171 C7.007308,35.566697 6.767068,35.433897 6.630368,35.215197 C5.804218,33.892897 5.134268,32.480797 4.630368,31.006197 C4.491698,30.613597 4.696768,30.183897 5.089348,30.045197 C5.481928,29.906497 5.911598,30.113597 6.050298,30.506197 C6.517098,31.875297 7.138198,33.187797 7.899898,34.420197 L7.899878,34.420197 Z M9.519078,38.865497 C9.370578,38.724897 9.286578,38.531597 9.28264491,38.328397 C9.280778,38.125297 9.360778,37.929997 9.505378,37.785497 C9.649878,37.642897 9.847178,37.564797 10.050278,37.568697 C10.253378,37.574597 10.446778,37.660497 10.585378,37.810897 L10.640078,37.861697 L10.640078,37.859697 C11.642078,38.867497 12.753378,39.760097 13.954578,40.519897 C14.237778,40.699597 14.368578,41.043297 14.274878,41.365597 C14.181078,41.687797 13.884278,41.908497 13.550278,41.904597 C13.407678,41.904597 13.268978,41.863597 13.149878,41.785497 C11.858878,40.965197 10.661578,40.006197 9.579578,38.926097 L9.519078,38.865497 Z M9.683078,10.525497 L9.685078,10.525497 C9.392078,10.232597 9.392078,9.757897 9.685078,9.464997 C10.794478,8.371247 12.024878,7.406397 13.349078,6.586097 C13.700678,6.373207 14.157678,6.482577 14.374478,6.832187 C14.591278,7.181797 14.485878,7.640787 14.140078,7.859537 C12.911578,8.621237 11.774878,9.519697 10.749478,10.535297 C10.614778,10.666197 10.436978,10.742397 10.249478,10.750197 C10.038578,10.759997 9.831578,10.677897 9.685078,10.525597 L9.683078,10.525497 Z M38.919578,37.859497 C39.062178,38.000197 39.140278,38.191597 39.140278,38.390797 C39.140278,38.589997 39.062178,38.779497 38.919578,38.920097 C37.819978,40.025497 36.599278,41.002097 35.278978,41.830197 C34.931378,42.025597 34.489978,41.914197 34.277078,41.574397 C34.064178,41.234497 34.155978,40.789197 34.484078,40.560697 C35.706678,39.789197 36.839478,38.882997 37.859078,37.859597 C38.153978,37.570497 38.626678,37.570497 38.919578,37.859597 L38.919578,37.859497 Z M40.679378,14.204997 C40.464478,13.853497 40.575878,13.392497 40.927378,13.177697 C41.278978,12.962897 41.739878,13.072197 41.954778,13.425697 C42.769178,14.751897 43.431278,16.167897 43.925478,17.644497 C43.989878,17.833897 43.976178,18.038997 43.888378,18.218697 C43.800478,18.396397 43.644178,18.533097 43.454778,18.595597 C43.378578,18.622997 43.296578,18.636697 43.214478,18.634697 C42.896178,18.636697 42.610978,18.435497 42.505478,18.134697 C42.044578,16.761697 41.433278,15.443297 40.679378,14.204997 L40.679378,14.204997 Z M40.400078,34.749997 C41.187178,33.539097 41.835578,32.242197 42.329778,30.884797 C42.487978,30.525397 42.896178,30.347697 43.267278,30.480497 C43.638378,30.611397 43.843378,31.005897 43.739878,31.384797 C43.204778,32.849697 42.505478,34.248097 41.653978,35.554697 C41.515278,35.767597 41.278978,35.894497 41.025078,35.894497 C40.878578,35.894497 40.737978,35.851597 40.614878,35.775397 C40.276978,35.548797 40.181278,35.093797 40.400078,34.749997 L40.400078,34.749997 Z M34.449078,7.025547 C34.556478,6.857577 34.726378,6.738437 34.919778,6.697417 C35.115078,6.654447 35.318178,6.691557 35.484178,6.800937 C36.726378,7.599787 37.878778,8.533337 38.919778,9.580197 L39.095578,9.750197 C39.384578,10.043097 39.384578,10.515797 39.095578,10.810697 C38.960778,10.943497 38.783078,11.019697 38.595578,11.0256285 C38.392378,11.027497 38.199078,10.943497 38.060378,10.795097 L37.900278,10.640797 C36.931478,9.670097 35.865078,8.804837 34.714678,8.060687 C34.540878,7.959127 34.413878,7.793107 34.363078,7.597797 C34.314278,7.404437 34.345578,7.197407 34.449078,7.025547 L34.449078,7.025547 Z M4.705048,17.249997 C5.228498,15.787097 5.914048,14.388697 6.749948,13.080097 C6.982368,12.755897 7.427698,12.671897 7.763598,12.886797 C8.099538,13.103597 8.206958,13.542997 8.009698,13.890697 C7.238198,15.101597 6.603448,16.396497 6.119098,17.750097 C6.013628,18.048897 5.732378,18.250097 5.413998,18.250097 C5.328058,18.250097 5.242118,18.234497 5.160088,18.205197 C4.972588,18.138797 4.818298,18.001997 4.734308,17.822397 C4.648368,17.642697 4.638608,17.437597 4.705008,17.250097 L4.705048,17.249997 Z M17.810578,6.060547 C17.890678,6.058587 17.972678,6.044917 18.050778,6.019527 C19.011778,5.695307 19.998078,5.449227 20.999978,5.279277 L20.999978,6.749977 C20.999978,6.949197 21.078078,7.140607 21.218778,7.281227 C21.359378,7.421857 21.550778,7.499977 21.749978,7.499977 L26.749978,7.499977 C27.164078,7.499977 27.499978,7.164037 27.499978,6.749977 L27.499978,5.279277 C28.623078,5.470687 29.728478,5.759747 30.800778,6.144527 C30.880878,6.173827 30.968778,6.189447 31.054678,6.189447 C31.404278,6.171867 31.695278,5.916007 31.755878,5.572247 C31.818378,5.226547 31.632778,4.886697 31.310578,4.749997 C30.074178,4.296877 28.798878,3.960947 27.499978,3.749997 L27.499978,1.749997 C27.499978,1.335937 27.164078,0.999997 26.749978,0.999997 L21.749978,0.999997 C21.335878,0.999997 20.999978,1.335937 20.999978,1.749997 L20.999978,3.749997 C19.833978,3.933597 18.687478,4.216797 17.570278,4.595697 C17.222578,4.712887 17.011678,5.064447 17.072278,5.425797 C17.130878,5.789077 17.443378,6.054697 17.810578,6.054697 L17.810578,6.060547 Z M22.499978,2.499997 L25.999978,2.499997 L25.999978,5.999997 L22.499978,5.999997 L22.499978,2.499997 Z M26.749978,40.999997 L21.749978,40.999997 C21.335978,40.999997 20.999978,41.335897 20.999978,41.749997 L20.999978,43.249997 C19.925778,43.064397 18.869178,42.790997 17.839878,42.429697 C17.449178,42.290997 17.021478,42.496097 16.882778,42.886697 C16.744078,43.277397 16.949178,43.706997 17.339878,43.845697 C18.529278,44.259797 19.753878,44.562497 20.999978,44.749997 L20.999978,46.749997 C20.999978,47.164097 21.335878,47.499997 21.749978,47.499997 L26.749978,47.499997 C27.164078,47.499997 27.499978,47.164097 27.499978,46.749997 L27.499978,44.749997 C28.716778,44.560597 29.915978,44.261697 31.080078,43.859397 C31.472678,43.722697 31.677778,43.292997 31.539078,42.900397 C31.402378,42.507797 30.972678,42.302797 30.580078,42.439497 C29.578078,42.794997 28.546878,43.064497 27.499978,43.249997 L27.499978,41.749997 C27.499978,41.335997 27.163978,40.999997 26.749978,40.999997 L26.749978,40.999997 Z M25.999978,45.999997 L22.499978,45.999997 L22.499978,42.499997 L25.999978,42.499997 L25.999978,45.999997 Z M40.999978,21.749997 L40.999978,26.749997 C40.999978,27.164097 41.335978,27.499997 41.749978,27.499997 L44.095678,27.499997 C44.123078,27.501997 44.152378,27.501997 44.179678,27.499997 L46.749978,27.499997 C47.164078,27.499997 47.499978,27.164097 47.499978,26.749997 L47.499978,21.749997 C47.499978,21.335897 47.164078,20.999997 46.749978,20.999997 L41.749978,20.999997 C41.335878,20.999997 40.999978,21.335897 40.999978,21.749997 L40.999978,21.749997 Z M42.499978,22.499997 L45.999978,22.499997 L45.999978,25.999997 L42.499978,25.999997 L42.499978,22.499997 Z M1.749998,27.499997 L6.749998,27.499997 C7.164058,27.499997 7.499998,27.164097 7.499998,26.749997 L7.499998,21.749997 C7.499998,21.335897 7.164058,20.999997 6.749998,20.999997 L1.749998,20.999997 C1.335938,20.999997 0.999998,21.335897 0.999998,21.749997 L0.999998,26.749997 C0.999998,27.164097 1.335938,27.499997 1.749998,27.499997 Z M2.499998,22.499997 L5.999998,22.499997 L5.999998,25.999997 L2.499998,25.999997 L2.499998,22.499997 Z" id="Shape" stroke="#E85C4B" stroke-width="0.4" mask="url(#mask-2)"></path>
                <mask id="mask-4" fill="white">
                    <use xlink:href="#path-3"></use>
                </mask>
                <g id="Shape"></g>
            </g>
        </g>
    </g>
</svg>