<?xml version="1.0" encoding="UTF-8"?>
<svg width="38px" height="37px" viewBox="0 0 38 37" version="1.1" xmlns="http://www.w3.org/2000/svg" xmlns:xlink="http://www.w3.org/1999/xlink">
    <title>noun-event-2080340 1</title>
    <g id="Page-1" stroke="none" stroke-width="1" fill="none" fill-rule="evenodd">
        <g id="noun-event-2080340-1" transform="translate(0.249268, 0.180302)" fill="#F36D45" fill-rule="nonzero">
            <path d="M33.4978,2.90107 L27.9737,2.90107 L27.9737,1.31162 C27.9737,0.59604 27.3776,0 26.662,0 C25.9465,0 25.3504,0.59604 25.3504,1.31162 L25.3504,2.90107 L12.4377,2.90107 L12.4377,1.31162 C12.4377,0.59604 11.8417,0 11.1261,0 C10.4105,0 9.8145,0.59604 9.8145,1.31162 L9.8145,2.90107 L4.2514,2.90107 C1.90758,2.90107 0,4.8087 0,7.1525 L0,32.0282 C0,34.372 1.90766,36.2796 4.2514,36.2796 L33.4981,36.2796 C35.8419,36.2796 37.7495,34.3719 37.7495,32.0282 L37.7495,7.1139 C37.7495,4.8089 35.8419,2.90107 33.4981,2.90107 L33.4978,2.90107 Z M35.1261,31.9877 C35.1261,32.8615 34.4105,33.5771 33.4963,33.5771 L4.2511,33.5771 C3.37723,33.5771 2.62129,32.8615 2.62129,31.9877 L2.62284,15.1403 L35.087,15.1403 L35.087,31.9877 L35.1261,31.9877 Z M35.1261,12.4779 L2.62296,12.4779 L2.62296,7.1135 C2.62296,6.2396 3.33853,5.5241 4.2528,5.5241 L9.7753,5.5241 L9.7753,7.1135 C9.7753,7.8291 10.3714,8.4251 11.087,8.4251 C11.8025,8.4251 12.3986,7.8291 12.3986,7.1135 L12.3986,5.5241 L25.3129,5.5241 L25.3129,7.1135 C25.3129,7.8291 25.9089,8.4251 26.6245,8.4251 C27.3401,8.4251 27.9361,7.8291 27.9361,7.1135 L27.9361,5.5241 L33.4587,5.5241 C34.3325,5.5241 35.0885,6.2396 35.0885,7.1135 L35.0869,12.4779 L35.1261,12.4779 Z" id="Shape"></path>
            <path d="M16.6099,29.3257 C16.8489,29.6035 17.2059,29.7634 17.5629,29.7634 C17.9199,29.7634 18.2785,29.6051 18.516,29.3257 L25.6685,21.6967 C26.1854,21.1798 26.145,20.3463 25.5893,19.8294 C25.0724,19.3529 24.2389,19.3529 23.722,19.9085 L17.5629,26.5056 L14.2645,22.9697 C13.7476,22.4528 12.9529,22.414 12.3972,22.8905 C11.8803,23.4074 11.8415,24.2409 12.318,24.7578 L16.6099,29.3257 Z" id="Path"></path>
        </g>
    </g>
</svg>