<?xml version="1.0" encoding="UTF-8"?>
<svg width="50px" height="50px" viewBox="0 0 50 50" version="1.1" xmlns="http://www.w3.org/2000/svg" xmlns:xlink="http://www.w3.org/1999/xlink">
    <title>noun-responsive-1802402 1</title>
    <g id="Page-1" stroke="none" stroke-width="1" fill="none" fill-rule="evenodd">
        <g id="noun-responsive-1802402-1" fill="#F36D45" fill-rule="nonzero">
            <path d="M36.459,43.75 L3.125,43.75 C1.39845,43.75 0,42.3515 0,40.625 L0,15.625 C0,13.8985 1.39845,12.5 3.125,12.5 L27.084,12.5 L27.084,14.584 L3.125,14.584 C2.54885,14.584 2.084,15.0488 2.084,15.625 L2.084,40.625 C2.084,40.9004 2.19338,41.166 2.38869,41.3614 C2.584,41.5567 2.84963,41.666 3.12504,41.666 L36.459,41.666 C36.7344,41.666 37,41.5567 37.1954,41.3614 C37.3907,41.166 37.5001,40.9004 37.5001,40.625 L37.5001,33.334 L39.5841,33.334 L39.5841,40.625 C39.5841,42.3515 38.1837,43.75 36.4591,43.75 L36.459,43.75 Z" id="Path"></path>
            <polygon id="Path" points="10.416 47.916 29.166 47.916 29.166 50 10.416 50"></polygon>
            <polygon id="Path" points="12.5 43.75 14.584 43.75 14.584 48.959 12.5 48.959"></polygon>
            <polygon id="Path" points="25 42.709 27.084 42.709 27.084 48.959 25 48.959"></polygon>
            <polygon id="Path" points="1.04102 35.416 38.541 35.416 38.541 37.5 1.04102 37.5"></polygon>
            <path d="M46.875,31.25 L32.291,31.25 C30.5664,31.25 29.166,29.8515 29.166,28.125 L29.166,3.125 C29.166,1.39845 30.5664,0 32.291,0 L46.875,0 C48.6016,0 50,1.39845 50,3.125 L50,28.125 C50,29.8515 48.6016,31.25 46.875,31.25 Z M32.291,2.08396 C31.7168,2.08396 31.25,2.54885 31.25,3.125 L31.25,28.125 C31.25,28.4004 31.3594,28.666 31.5547,28.8613 C31.75,29.0567 32.0156,29.166 32.2911,29.166 L46.8751,29.166 C47.1504,29.166 47.4161,29.0567 47.6114,28.8613 C47.8068,28.666 47.9161,28.4004 47.9161,28.125 L47.9161,3.125 C47.9161,2.84961 47.8067,2.584 47.6114,2.38865 C47.4161,2.1933 47.1505,2.08396 46.8751,2.08396 L32.291,2.08396 Z" id="Shape"></path>
            <polygon id="Path" points="37.5 25 41.666 25 41.666 27.084 37.5 27.084"></polygon>
            <path d="M13.541,28.1251 L5.20897,28.1251 C4.63282,28.1251 4.16602,27.6582 4.16602,27.084 L4.16602,18.75 C4.16602,18.1738 4.63281,17.709 5.20897,17.709 L13.543,17.709 L13.541,17.709 C13.8184,17.709 14.082,17.8184 14.2774,18.0137 C14.4727,18.209 14.584,18.4746 14.584,18.75 L14.584,27.084 C14.584,27.3594 14.4727,27.625 14.2774,27.8204 C14.082,28.0157 13.8184,28.1251 13.541,28.1251 L13.541,28.1251 Z M6.24997,26.041 L12.5,26.041 L12.5,19.791 L6.24997,19.791 L6.24997,26.041 Z" id="Shape"></path>
            <polygon id="Path" points="16.666 17.709 27.082 17.709 27.082 19.793 16.666 19.793"></polygon>
            <polygon id="Path" points="16.666 21.875 27.082 21.875 27.082 23.959 16.666 23.959"></polygon>
            <polygon id="Path" points="16.666 26.041 27.082 26.041 27.082 28.125 16.666 28.125"></polygon>
            <polygon id="Path" points="4.16602 30.209 27.082 30.209 27.082 32.293 4.16602 32.293"></polygon>
            <polygon id="Path" points="43.75 4.16602 45.834 4.16602 45.834 6.25002 43.75 6.25002"></polygon>
            <polygon id="Path" points="43.75 8.33398 45.834 8.33398 45.834 10.418 43.75 10.418"></polygon>
            <polygon id="Path" points="39.584 4.16602 41.668 4.16602 41.668 6.25002 39.584 6.25002"></polygon>
        </g>
    </g>
</svg>