<?xml version="1.0" encoding="UTF-8"?>
<svg width="47px" height="40px" viewBox="0 0 47 40" version="1.1" xmlns="http://www.w3.org/2000/svg" xmlns:xlink="http://www.w3.org/1999/xlink">
    <title>noun-computer-search-2174544 1</title>
    <g id="Page-1" stroke="none" stroke-width="1" fill="none" fill-rule="evenodd">
        <g id="noun-computer-search-2174544-1" transform="translate(1.000000, 0.800000)" fill="#F36D45" fill-rule="nonzero" stroke="#F36D45">
            <path d="M34.7935,36.5621 L31.7579,36.5621 L31.7579,33.8671 L42.6691,33.8671 C44.175,33.8671 45.4,32.642 45.4,31.1362 L45.4,2.73085 C45.4,1.22505 44.175,0 42.6691,0 L42.669,0 L2.73085,0 C1.22505,0 0,1.22505 0,2.73085 L0,31.1362 C0,32.642 1.22505,33.8671 2.73085,33.8671 L13.6403,33.8671 L13.6403,36.5621 L10.0441,36.5621 L9.8441,36.5621 L9.8441,36.7621 L9.8441,38.4493 L9.8441,38.6493 L10.0441,38.6493 L34.7935,38.6493 L34.9935,38.6493 L34.9935,38.4493 L34.9935,36.7621 L34.9935,36.5621 L34.7935,36.5621 Z M29.6705,36.5638 L15.7275,36.5638 L15.7275,33.8687 L29.6705,33.8687 L29.6705,36.5638 Z M43.3123,31.1377 C43.3123,31.4936 43.0245,31.7814 42.6687,31.7814 L2.73058,31.7814 C2.37625,31.7814 2.08695,31.4933 2.08695,31.1377 L2.08695,2.73053 C2.08695,2.37497 2.37623,2.0869 2.73058,2.0869 L42.6687,2.0869 C43.0245,2.0869 43.3123,2.37468 43.3123,2.73053 L43.3123,31.1377 Z" id="Shape" stroke-width="0.4"></path>
            <path d="M26.4655,8.172 C24.8234,6.6537 22.7011,5.8221 20.4523,5.8221 C18.0848,5.8221 15.8573,6.7438 14.183,8.4183 L14.183,8.4183 C10.7269,11.8762 10.7268,17.5011 14.183,20.9573 C15.8575,22.6317 18.0848,23.5534 20.4523,23.5534 C22.4859,23.5534 24.4148,22.8731 25.9787,21.6207 L32.1264,27.7684 L32.2324,27.8745 L32.3385,27.7684 L33.531,26.576 L33.637,26.4699 L33.531,26.3639 L27.3831,20.2142 C30.1591,16.7363 29.9405,11.6391 26.7216,8.4182 L26.4655,8.162 L26.4655,8.172 Z M25.3166,9.825 L25.4227,9.719 L25.3166,9.825 C27.9989,12.5073 27.9989,16.8707 25.3167,19.5527 C24.017,20.8506 22.2914,21.5662 20.4537,21.5662 C18.6158,21.5662 16.8883,20.8505 15.5888,19.5527 C12.9067,16.8723 12.9083,12.5071 15.5888,9.8251 C16.8885,8.5272 18.6159,7.8115 20.4537,7.8115 C22.2916,7.8115 24.0189,8.5273 25.3166,9.825 Z" id="Shape" stroke-width="0.3"></path>
        </g>
    </g>
</svg>