<?xml version="1.0" encoding="UTF-8"?>
<svg width="48px" height="49px" viewBox="0 0 48 49" version="1.1" xmlns="http://www.w3.org/2000/svg" xmlns:xlink="http://www.w3.org/1999/xlink">
    <title>noun-product-development-4520542 1</title>
    <g id="Page-1" stroke="none" stroke-width="1" fill="none" fill-rule="evenodd">
        <g id="noun-product-development-4520542-1" transform="translate(0.218872, 0.715479)" fill="#E85C4B" fill-rule="nonzero" stroke="#E85C4B" stroke-width="0.2">
            <path d="M35.8108,20.2052995 L35.8089,10.1042995 L42.9859,10.1042995 L42.9859,32.4802995 L4.59188,32.4802995 L4.59188,10.1042995 L11.7689,10.1042995 L11.7689,20.2052995 C11.7689,20.5041995 11.9282,20.7836995 12.1883,20.9325995 L12.2114,20.9458995 L12.2118,20.9458995 L23.368,27.3874995 L23.3681,27.3874995 C23.4986,27.4626995 23.6428,27.5004995 23.7891,27.5004995 C23.9334,27.5004995 24.0795,27.4627995 24.2102,27.3874995 L24.2102,27.3874995 L35.3897,20.9324995 L35.39,20.9322995 C35.6488,20.7818995 35.8108,20.5050995 35.8108,20.2052995 Z M36.3987,44.2248995 C36.8564,44.2265995 37.2296,44.5970995 37.2346,45.0531995 L37.2346,45.0623995 L37.2346,45.8998995 L10.3446,45.8998995 L10.3446,45.0623995 C10.3446,44.5999995 10.7197,44.2248995 11.1821,44.2248995 L36.3987,44.2248995 Z M30.4384,37.0723995 C30.7079,39.0096995 31.417,40.7910995 32.6198,42.5463995 L14.9592,42.5463995 C16.1621,40.7913995 16.8729,39.0098995 17.1407,37.0723995 L30.4384,37.0723995 Z M43.8268,8.4229795 L35.8098,8.4229795 L35.8098,7.2944795 C35.8098,7.2590895 35.8077,7.2240495 35.8033,7.1893995 L45.8991,7.1893995 L45.8986,35.3918995 L1.6806,35.3918995 L1.6806,7.1913595 L11.7764,7.1913595 C11.772,7.2259995 11.7698,7.2610395 11.7698,7.2964395 L11.7698,8.4249095 L3.75283,8.4229795 L3.7528,8.4229795 C3.28937,8.4229795 2.91255,8.7997795 2.91255,9.2631995 L2.91255,33.3196995 C2.91255,33.7831995 3.28935,34.1599995 3.7528,34.1599995 L43.8288,34.1599995 C44.2922,34.1599995 44.669,33.7831995 44.669,33.3196995 L44.6671,9.2631995 C44.6671,8.7997995 44.2903,8.4229795 43.8268,8.4229795 Z M46.7385,5.5116095 L33.5583,5.5116095 L24.2108,0.1131495 C23.9512,-0.0377185 23.6296,-0.0377145 23.37,0.1131495 L14.0205,5.5116095 L0.84025,5.5116095 C0.37682,5.5116095 1.44328993e-15,5.8884095 1.44328993e-15,6.3518595 L1.44328993e-15,36.2328995 C1.44328993e-15,36.6962995 0.3768,37.0730995 0.84025,37.0730995 L15.4403,37.0730995 C15.1279,38.9945995 14.2969,40.7588995 12.8648,42.5470995 L11.1822,42.5470995 C9.793,42.5470995 8.6643,43.6758995 8.6643,45.0650995 L8.6643,46.7427995 C8.6643,47.2061995 9.0411,47.5830995 9.5045,47.5830995 L38.0771,47.5830995 C38.5405,47.5830995 38.9173,47.2062995 38.9173,46.7427995 L38.9173,45.0650995 C38.9173,43.6757995 37.7885,42.5470995 36.3994,42.5470995 L34.7168,42.5470995 C33.2847,40.7609995 32.4537,38.9947995 32.1413,37.0730995 L46.7413,37.0730995 C47.2048,37.0730995 47.5816,36.6962995 47.5816,36.2328995 L47.5816,6.3518595 C47.5816,5.8861295 47.2045,5.5116095 46.7394,5.5116095 L46.7385,5.5116095 Z M24.6295,25.2038995 L24.6295,14.2357995 L34.1285,8.7518095 L34.1285,19.7198995 L24.6295,25.2038995 Z M22.9491,14.2357995 L22.9491,25.2038995 L13.45,19.7198995 L13.45,8.7518095 L22.9491,14.2357995 Z M23.7896,12.7808995 L14.2905,7.2948695 L23.7896,1.8108295 L33.2886,7.2948695 L23.7896,12.7808995 Z" id="Shape"></path>
        </g>
    </g>
</svg>