<svg width="50" height="50" viewBox="0 0 50 50" fill="none" xmlns="http://www.w3.org/2000/svg">
<path d="M10.9845 20.8809H29.01V23.8809H10.9845V20.8809Z" fill="#F36D45"/>
<path d="M10.9845 27.3809H20.01V30.3809H10.9845V27.3809Z" fill="#F36D45"/>
<path d="M36.2891 26.8905V12.3145L25.2206 1H4.90405V41.0295H23.6796V44.9494C23.6815 45.1017 23.7069 45.2521 23.7557 45.3947C24.6151 48.9006 33.3457 49.0002 34.3907 49.0002C35.4357 49.0002 44.8907 48.881 45.0897 44.9396V44.8498V31.0003C45.0956 27.8811 39.4137 27.0901 36.2887 26.8909L36.2891 26.8905ZM41.7206 30.9999C40.6854 31.4999 38.1405 32.1855 34.3906 32.1855C30.6407 32.1855 28.0896 31.5351 27.0606 30.9999C28.0957 30.4999 30.6407 29.8144 34.3906 29.8144C38.1405 29.8144 40.6856 30.4999 41.7206 30.9999ZM23.6796 30.9999V37.9999H7.90405V3.9999H22.9996V14.8944H33.2886V26.8494C30.4995 26.9646 23.6791 27.5896 23.6791 30.9998L23.6796 30.9999ZM42.0956 44.5859C41.4999 45.1152 38.7499 46 34.3906 46C30.0292 46 27.3006 45.1152 26.6796 44.5859V43.2949C29.5995 44.3593 33.6796 44.4043 34.3906 44.4043C35.1016 44.4043 39.1796 44.3535 42.1016 43.2949L42.0956 44.5859ZM42.0956 39.9804C41.4764 40.5098 38.746 41.4062 34.3846 41.4062C30.0252 41.4043 27.3006 40.5 26.6796 40V38.6894C29.5995 39.7539 33.6796 39.7989 34.3906 39.7989C35.1016 39.7989 39.1796 39.7481 42.1016 38.6894L42.0956 39.9804ZM42.0956 35.375C41.4764 35.9043 38.746 36.8008 34.3846 36.8008C30.0252 36.8008 27.3006 35.9043 26.6796 35.375V34.0859C29.5995 35.1504 33.6796 35.1954 34.3906 35.1954C35.1016 35.1954 39.1796 35.1446 42.1016 34.0859L42.0956 35.375Z" fill="#F36D45"/>
</svg>
