<svg width="50" height="50" viewBox="0 0 50 50" fill="none" xmlns="http://www.w3.org/2000/svg">
<path d="M18.0585 11.2755C19.4882 10.0411 21.0819 9.30674 22.7987 9.08994C24.3788 8.89072 25.7558 9.18564 26.5526 9.51767L26.1679 10.6739C26.0858 10.9181 26.1542 11.1856 26.3397 11.3614C26.4647 11.4806 26.6288 11.5431 26.7948 11.5431C26.8768 11.5431 26.9589 11.5294 27.037 11.4962L32.617 9.29894C32.8025 9.22667 32.9451 9.07238 33.0057 8.88292C33.0662 8.69152 33.035 8.48448 32.9256 8.31847L29.6951 3.46497C29.5565 3.25403 29.3045 3.13685 29.0584 3.17591C28.8084 3.20911 28.5995 3.38294 28.5194 3.62122C28.5194 3.62122 28.3905 4.00599 28.2655 4.38292C27.1561 3.97863 24.9198 3.42782 22.486 4.35753C20.0836 5.27353 18.2418 7.35168 17.0115 10.535C16.9021 10.8182 16.9998 11.1385 17.2478 11.3143C17.492 11.4882 17.8279 11.4745 18.0584 11.2753L18.0585 11.2755ZM22.955 5.59399C25.1718 4.74829 27.3964 5.36157 28.363 5.85961C28.5348 5.9475 28.736 5.95336 28.9157 5.88305C29.0935 5.80883 29.2321 5.66039 29.2927 5.4768L29.3435 5.32446L31.3689 8.36936L27.8669 9.74825L27.9841 9.39474C28.0798 9.10763 27.9685 8.78929 27.7107 8.62714C27.1072 8.24433 25.7087 7.69939 23.8474 7.69939C23.4606 7.69939 23.0544 7.72283 22.6325 7.77556C21.4685 7.92204 20.3552 8.27361 19.3044 8.82441C20.2829 7.23066 21.5036 6.14861 22.9548 5.59396L22.955 5.59399Z" fill="#E85C4B"/>
<path d="M8.994 24.9335C9.08775 24.9335 9.18346 24.912 9.27135 24.8729C9.54674 24.746 9.69908 24.4471 9.64244 24.1483C9.28893 22.2968 9.44908 20.5468 10.121 18.9508C10.7382 17.486 11.6835 16.4391 12.3671 15.9137L13.1757 16.8278C13.3456 17.0192 13.6093 17.0934 13.8593 17.0231C14.1054 16.9489 14.287 16.7399 14.3241 16.4879L15.2108 10.5564C15.2401 10.3592 15.1796 10.158 15.0428 10.0115C14.9081 9.86309 14.7245 9.78888 14.5135 9.79864L8.69703 10.1658C8.44508 10.1815 8.22438 10.3397 8.12673 10.574C8.03103 10.8065 8.07595 11.076 8.24392 11.2635C8.24392 11.2635 8.51345 11.5662 8.77712 11.865C7.87282 12.6209 6.28102 14.283 5.86697 16.8572C5.45877 19.3963 6.33768 22.0332 8.47832 24.6872C8.60918 24.8474 8.79863 24.9333 8.99392 24.9333L8.994 24.9335ZM7.17175 17.0665C7.54871 14.7247 9.19325 13.1055 10.1054 12.5157C10.2675 12.4102 10.3749 12.2383 10.4022 12.0469C10.4276 11.8555 10.369 11.6622 10.2401 11.5176L10.1346 11.3985L13.785 11.168L13.2284 14.8907L12.9823 14.6114C12.7792 14.3848 12.4472 14.3282 12.1815 14.4649C11.4159 14.8672 9.86705 16.1543 8.90415 18.4375C8.44907 19.5196 8.1971 20.6602 8.1483 21.8438C7.25375 20.1992 6.92565 18.5996 7.17175 17.0664V17.0665Z" fill="#E85C4B"/>
<path d="M16.5839 37.873C14.8027 37.2538 13.3691 36.2382 12.3222 34.8593C11.3613 33.5917 10.9277 32.2519 10.8144 31.3964L12.0097 31.1504C12.2617 31.0996 12.4609 30.9062 12.5214 30.6562C12.582 30.4082 12.4902 30.1445 12.289 29.9843L7.5976 26.2539C7.44135 26.1289 7.23822 26.0878 7.0429 26.1269C6.84758 26.1699 6.68352 26.2988 6.59368 26.4785L4.00383 31.701C3.8925 31.9275 3.91789 32.1971 4.07219 32.3982C4.22453 32.5974 4.48039 32.6951 4.72844 32.6424C4.72844 32.6424 5.14445 32.5584 5.51554 32.4802C5.71866 33.6423 6.35929 35.8552 8.38469 37.5017C9.89249 38.7283 11.8163 39.3455 14.1232 39.3455C14.8654 39.3455 15.6505 39.281 16.4708 39.1541C16.7716 39.1072 17.0001 38.8611 17.0275 38.5603C17.0529 38.2557 16.8712 37.9744 16.5841 37.8728L16.5839 37.873ZM9.21692 36.4726C7.37902 34.9765 6.79702 32.7421 6.74232 31.6581C6.72474 31.3066 6.43568 31.0292 6.08217 31.0292C6.04311 31.0292 6.02553 31.0292 5.78725 31.0781L7.41225 27.7988L10.3575 30.1406L9.99231 30.2167C9.69544 30.2773 9.47671 30.5331 9.46301 30.8359C9.42786 31.6992 9.7677 33.6855 11.2658 35.6601C11.9767 36.5937 12.8361 37.3827 13.838 38.0175C11.9708 37.9687 10.422 37.453 9.21691 36.4726H9.21692Z" fill="#E85C4B"/>
<path d="M31.9415 38.7265C30.5137 39.957 28.92 40.6933 27.2012 40.9121C25.6231 41.1035 24.2442 40.8144 23.4473 40.4843L23.8321 39.3281C23.9141 39.0839 23.8458 38.8144 23.6602 38.6386C23.4747 38.4609 23.2012 38.4101 22.963 38.5039L17.383 40.6992C17.1974 40.7714 17.0548 40.9257 16.9943 41.1152C16.9337 41.3066 16.963 41.5136 17.0744 41.6796L20.3009 46.5351C20.424 46.7206 20.631 46.83 20.8517 46.83C20.881 46.83 20.9103 46.8261 20.9396 46.8241C21.1896 46.7909 21.3986 46.6171 21.4787 46.3788L21.7326 45.6152C22.842 46.0214 25.0744 46.5683 27.5121 45.6406C29.9164 44.7265 31.7582 42.6464 32.9886 39.4631C33.0979 39.1799 33.0003 38.8576 32.7522 38.6838C32.5081 38.5119 32.1721 38.5275 31.9417 38.7267L31.9415 38.7265ZM27.043 44.406C24.8282 45.2498 22.6016 44.6365 21.637 44.1404C21.5433 44.0916 21.4398 44.0662 21.3362 44.0662C21.2523 44.0662 21.1663 44.0818 21.0862 44.117C20.9065 44.1892 20.7698 44.3357 20.7093 44.5193L20.6565 44.6775L18.6311 41.6287L22.1311 40.2498L22.014 40.6013C21.9183 40.8904 22.0296 41.2068 22.2874 41.3689C23.0159 41.8318 24.9104 42.533 27.3654 42.2185C28.5294 42.072 29.6427 41.7205 30.6935 41.1716C29.7169 42.7693 28.4943 43.8533 27.0431 44.406L27.043 44.406Z" fill="#E85C4B"/>
<path d="M40.7284 25.127C40.453 25.254 40.2987 25.5528 40.3573 25.8516C40.7089 27.7032 40.5487 29.4532 39.8788 31.0471C39.2616 32.5139 38.3183 33.5588 37.6327 34.0862L36.8222 33.1721C36.6542 32.9807 36.3905 32.9084 36.1386 32.9768C35.8925 33.051 35.7108 33.26 35.6737 33.5119L34.787 39.4414C34.7577 39.6407 34.8183 39.8399 34.953 39.9863C35.078 40.1231 35.2558 40.2012 35.4413 40.2012C35.455 40.2012 35.4687 40.1992 35.4843 40.1992L41.3008 39.832C41.5527 39.8164 41.7734 39.6582 41.8711 39.4238C41.9668 39.1914 41.9219 38.9238 41.7539 38.7324L41.2207 38.1309C42.1269 37.3731 43.7187 35.7129 44.1328 33.1387C44.541 30.5996 43.6621 27.9647 41.5195 25.3087C41.3281 25.0782 41.0019 25.004 40.7285 25.1271L40.7284 25.127ZM42.828 32.9335C42.453 35.2734 40.8065 36.8945 39.8944 37.4843C39.746 37.58 39.6405 37.7304 39.6054 37.9062C39.5702 38.0781 39.6034 38.2597 39.703 38.4062C39.705 38.4081 39.7733 38.4863 39.8749 38.6034L36.2167 38.832L36.7714 35.1113L37.0194 35.3906C37.2187 35.6171 37.5526 35.6738 37.8202 35.537C38.5858 35.1367 40.1366 33.8476 41.0976 31.5624C41.5507 30.4804 41.8046 29.3417 41.8534 28.1581C42.748 29.7987 43.0741 31.4003 42.828 32.9335L42.828 32.9335Z" fill="#E85C4B"/>
<path d="M45.9294 17.6035C45.7751 17.4043 45.5173 17.3027 45.2732 17.3593C45.2732 17.3593 44.8591 17.4433 44.488 17.5214C44.2868 16.3593 43.6443 14.1503 41.6228 12.5039C39.6267 10.8789 36.904 10.3203 33.5328 10.8496C33.232 10.8965 33.0035 11.1407 32.9761 11.4434C32.9488 11.7461 33.1304 12.0274 33.4175 12.127C35.1988 12.7461 36.6343 13.7617 37.6812 15.1406C38.6421 16.4082 39.0757 17.748 39.187 18.6035L37.9937 18.8496C37.7417 18.9004 37.5425 19.0938 37.4839 19.3438C37.4234 19.5918 37.5152 19.8555 37.7144 20.0157L42.4077 23.7481C42.5249 23.8418 42.6714 23.8926 42.8198 23.8926C42.8687 23.8926 42.9175 23.8867 42.9644 23.877C43.1597 23.834 43.3237 23.7051 43.4136 23.5254L46.0034 18.3029C46.1089 18.0744 46.0816 17.8029 45.9292 17.6037L45.9294 17.6035ZM42.5857 22.2011L39.6404 19.8574L40.0056 19.7832C40.3025 19.7226 40.5212 19.4667 40.5329 19.164C40.57 18.3027 40.2322 16.3183 38.7302 14.3398C38.0212 13.4062 37.1618 12.6172 36.1599 11.9824C38.031 12.0312 39.5818 12.5469 40.7849 13.5293C42.6228 15.0274 43.2028 17.2598 43.2575 18.3418C43.2751 18.6934 43.5661 18.9707 43.9177 18.9707C43.9567 18.9707 43.9743 18.9707 44.2126 18.9238L42.5857 22.2011Z" fill="#E85C4B"/>
<path d="M34.2928 19.8105V19.8007C34.2928 19.6952 34.2635 19.5995 34.2186 19.5116C34.2147 19.5019 34.2167 19.4921 34.2108 19.4843L31.621 14.7519C31.5038 14.541 31.2811 14.4081 31.0409 14.4081H18.9549C18.7127 14.4081 18.49 14.541 18.3748 14.7519L15.7849 19.4843C15.781 19.4921 15.783 19.5038 15.7771 19.5116C15.7341 19.5995 15.7029 19.6952 15.7029 19.8007V19.8105V19.8124V33.4764C15.7029 33.8416 15.9998 34.1385 16.363 34.1385H33.6325C33.9978 34.1385 34.2927 33.8416 34.2927 33.4764V19.8124V19.8105H34.2928ZM32.5174 19.1386H27.6541V15.7284H30.6502L32.5174 19.1386ZM26.3339 15.7304V24.0114L25.4081 23.2868C25.289 23.1911 25.1445 23.1442 24.9999 23.1442C24.8535 23.1442 24.705 23.195 24.5839 23.2907L23.7245 23.984V15.728L26.3339 15.7304ZM19.3494 15.7304H22.4041V19.1405H17.4822L19.3494 15.7304ZM32.9724 32.8144H17.0269V20.4629H22.4039V25.3691C22.4039 25.625 22.5504 25.8574 22.7789 25.9668C22.8688 26.0097 22.9664 26.0312 23.0641 26.0312C23.2125 26.0312 23.359 25.9804 23.4801 25.8847L25.0055 24.6523L26.5856 25.8906C26.7848 26.0488 27.0544 26.0781 27.2829 25.9649C27.5094 25.8555 27.654 25.625 27.654 25.3711V20.4649H32.9705L32.9724 32.8144Z" fill="#E85C4B"/>
</svg>
