<?xml version="1.0" encoding="UTF-8"?>
<svg width="50px" height="40px" viewBox="0 0 50 40" version="1.1" xmlns="http://www.w3.org/2000/svg" xmlns:xlink="http://www.w3.org/1999/xlink">
    <title>noun-laptop-chat-1394202 1</title>
    <g id="Page-1" stroke="none" stroke-width="1" fill="none" fill-rule="evenodd">
        <g id="noun-laptop-chat-1394202-1" transform="translate(0.532471, 0.310523)" fill="#F36D45" fill-rule="nonzero">
            <path d="M22.7470294,24.4140766 C24.2900294,23.4726766 25.0185294,21.6191766 24.5302294,19.8788766 C24.0400294,18.1386766 22.4541294,16.9355766 20.6455294,16.9355766 C18.8369294,16.9355766 17.2509294,18.1386766 16.7607294,19.8788766 C16.2725294,21.6191766 16.9990294,23.4726766 18.5420294,24.4140766 C16.6221294,24.7538766 14.4619294,25.7187766 14.4619294,28.3280766 C14.4619294,30.4276766 17.6670294,31.3827766 20.6474294,31.3827766 C23.6278294,31.3827766 26.8329294,30.4276766 26.8329294,28.3280766 C26.8329294,25.7186766 24.6727294,24.7538766 22.7469294,24.4140766 L22.7470294,24.4140766 Z M20.6474294,18.9140766 C21.4716294,18.9140766 22.2119294,19.4101766 22.5283294,20.1698766 C22.8427294,20.9315766 22.6689294,21.8065766 22.0869294,22.3886766 C21.5048294,22.9706766 20.6298294,23.1444766 19.8681294,22.8300766 C19.1084294,22.5136766 18.6123294,21.7733766 18.6123294,20.9491766 C18.6299294,19.8358766 19.5342294,18.9413766 20.6474294,18.9394766 L20.6474294,18.9140766 Z M20.6474294,29.3595766 C18.0322294,29.3595766 16.5869294,28.5743766 16.4619294,28.3048766 C16.4619294,26.5743766 18.7373294,26.2091766 20.6474294,26.2091766 C22.5576294,26.2091766 24.8017294,26.5685766 24.8330294,28.2735766 C24.6572294,28.6251766 23.2177294,29.3849766 20.6474294,29.3849766 L20.6474294,29.3595766 Z" id="Shape"></path>
            <path d="M48.6180294,1.04890662 C48.2293294,0.394606617 47.5242294,-0.00384338334 46.7625294,2.81020757e-05 L27.0025294,2.81020757e-05 C26.2408294,-0.00385338334 25.5357294,0.394586617 25.1471294,1.04890662 C24.9361294,1.39265662 24.8267294,1.78720662 24.8326294,2.18950662 L24.8326294,12.4044766 L5.21762937,12.4044766 C4.62387937,12.3986766 4.05162937,12.6310766 3.62972937,13.0490766 C3.20782937,13.4670766 2.96957937,14.0353766 2.96762937,14.6291766 L2.96762937,34.6896766 L0.256682366,37.6896766 C-0.0069876345,37.9825766 -0.0733976345,38.4044766 0.0848073655,38.7638766 C0.244962366,39.1251766 0.602409366,39.3595766 0.996909366,39.3595766 L40.2919294,39.3595766 C40.6884294,39.3595766 41.0438294,39.1251766 41.2040294,38.7638766 C41.3641294,38.4044766 41.2977294,37.9825766 41.0321294,37.6896766 L38.3017294,34.6896766 L38.3036294,17.3206766 L46.7626294,17.3206766 C47.7353294,17.3167766 48.5888294,16.6663766 48.8525294,15.7288766 C48.9071294,15.5413766 48.9345294,15.3460766 48.9384294,15.1507766 L48.9384294,2.18975662 C48.9364294,1.79326662 48.8251294,1.40655662 48.6181294,1.07060662 L48.6180294,1.04890662 Z M33.0730294,15.3203766 C32.8054294,15.3184766 32.5495294,15.4258766 32.3620294,15.6152766 L29.5222294,18.4551766 L29.5222294,16.3203766 C29.5222294,16.0547766 29.4167294,15.8008766 29.2292294,15.6133766 C29.0417294,15.4258766 28.7878294,15.3203766 28.5221294,15.3203766 L27.0221294,15.3203766 C26.9577294,15.3203766 26.8991294,15.2832766 26.8717294,15.2246766 L26.8717294,2.18969662 C26.8737294,2.16039662 26.8815294,2.13110662 26.8971294,2.10375662 C26.9284294,2.05297662 26.9831294,2.01977662 27.0417294,2.01977662 L46.7622294,2.01977662 C46.8227294,2.01977662 46.8774294,2.05297662 46.9067294,2.10375662 C46.9262294,2.12914662 46.9360294,2.15844662 46.9379294,2.18969662 L46.9379294,15.1956766 C46.9184294,15.2679766 46.8520294,15.3206766 46.7778294,15.3206766 L33.0730294,15.3203766 Z M3.25248937,37.3788766 L4.57278937,35.9237766 L36.7233294,35.9237766 L38.0377294,37.3788766 L3.25248937,37.3788766 Z M36.3035294,33.9237766 L4.96748937,33.9237766 L4.96748937,14.6287766 C4.96943937,14.5037766 5.07295937,14.4041766 5.19795937,14.4041766 L24.8329294,14.4041766 L24.8329294,15.1502766 C24.8271294,15.1990766 24.8271294,15.2498766 24.8329294,15.2987766 L24.8778294,15.6092766 C24.8739294,15.6483766 24.8739294,15.6854766 24.8778294,15.7244766 C25.1376294,16.6639766 25.9931294,17.3162766 26.9677294,17.3201766 L27.4677294,17.3201766 L27.4677294,20.8709766 L27.4677294,20.8690766 C27.4677294,21.2733766 27.7099294,21.6385766 28.0829294,21.7948766 C28.2060294,21.8436766 28.3349294,21.8690766 28.4677294,21.8690766 C28.7333294,21.8690766 28.9853294,21.7616766 29.1728294,21.5741766 L33.4677294,17.3202766 L36.2880294,17.3202766 L36.3035294,33.9237766 Z" id="Shape"></path>
        </g>
    </g>
</svg>