<?xml version="1.0" encoding="UTF-8"?>
<svg width="50px" height="45px" viewBox="0 0 50 45" version="1.1" xmlns="http://www.w3.org/2000/svg" xmlns:xlink="http://www.w3.org/1999/xlink">
    <title>noun-product-design-4620175 1</title>
    <g id="Page-1" stroke="none" stroke-width="1" fill="none" fill-rule="evenodd">
        <g id="noun-product-design-4620175-1" transform="translate(1.066138, 1.146849)" fill="#E85C4B" fill-rule="nonzero">
            <path d="M3.737104,36.42173 L16.718634,36.42173 L16.718634,38.29513 L15.236934,38.29513 C13.595234,38.29513 12.263534,39.62693 12.263534,41.26863 L12.263534,41.81863 L10.039634,41.81863 C9.618634,41.81863 9.271334,42.16593 9.271334,42.58693 C9.271334,43.00793 9.618634,43.35533 10.039634,43.35533 L38.471134,43.35533 C38.892134,43.35533 39.239534,43.00793 39.239534,42.58693 C39.239534,42.16593 38.892134,41.81863 38.471134,41.81863 L35.768834,41.81863 L35.768834,41.26863 C35.768834,39.62693 34.437034,38.29513 32.795334,38.29513 L31.313734,38.29513 L31.313734,36.42173 L44.779734,36.42173 C46.837234,36.42173 48.516834,34.74833 48.516834,32.68463 L48.516834,32.68453 L48.505234,3.7371 C48.505234,3.73707 48.505234,3.73705 48.505234,3.73702 C48.505134,1.67114 46.823434,0 44.768134,0 L3.737104,0 C1.671184,0 0,1.68171 0,3.7371 L0,32.68463 C0,34.74213 1.673324,36.42173 3.737104,36.42173 Z M34.226234,41.25283 L34.226234,41.45283 L34.226234,41.45283 L34.226234,41.80283 L13.792234,41.80283 L13.792234,41.25283 C13.792234,40.46093 14.437034,39.81613 15.228934,39.81613 L32.788534,39.81613 C33.582934,39.82353 34.226234,40.46283 34.226234,41.25283 Z M29.763234,36.41383 L29.764834,38.28723 L18.247134,38.28723 L18.247134,36.41383 L29.763234,36.41383 Z M40.975734,24.73213 L46.970234,24.73213 L46.970234,27.03723 L40.975734,27.03723 L40.975734,24.73213 Z M46.968234,23.19543 L40.973734,23.19543 L40.975634,13.11893 L46.970134,13.11893 L46.968234,23.19543 Z M39.438734,27.03723 L9.065204,27.03723 L9.065204,1.5272 L39.438734,1.5272 L39.438734,27.03723 Z M44.767734,1.5272 C45.983434,1.5272 46.970034,2.51381 46.970034,3.72955 L46.970034,11.57453 L40.975534,11.57453 L40.975534,1.52706 L44.767734,1.5272 Z M1.536204,3.73735 C1.536204,2.52166 2.522814,1.535 3.738554,1.535 L7.530754,1.535 L7.530754,27.04303 L1.536204,27.04493 L1.536204,3.73735 Z M46.968634,32.67673 C46.968634,33.89243 45.982034,34.87913 44.766234,34.87913 L3.736764,34.87713 C2.521054,34.87713 1.534404,33.89053 1.534404,32.67483 L1.534404,28.57993 L46.968634,28.57993 L46.968634,32.67673 Z" id="Shape" stroke="#E85C4B" stroke-width="0.4"></path>
            <path d="M23.389234,32.39763 L25.123634,32.39763 C25.489334,32.39763 25.791934,32.09503 25.791934,31.72923 C25.791934,31.36343 25.489334,31.06083 25.123634,31.06083 L23.389234,31.06083 C23.023434,31.06083 22.720834,31.36343 22.720834,31.72923 C22.720834,32.09413 23.014734,32.39763 23.389234,32.39763 Z" id="Path" stroke="#E85C4B" stroke-width="0.2"></path>
            <path d="M5.74505538,4.60076 C5.747164,4.23541 5.452894,3.93209 5.078644,3.93209 L4.039594,3.93209 C3.673814,3.93209 3.371244,4.23468 3.371244,4.60044 C3.371244,4.96622 3.673824,5.26879 4.039594,5.26879 L5.076694,5.26879 C5.442364,5.26879 5.744864,4.96639 5.74505538,4.60076 Z" id="Shape" stroke="#E85C4B" stroke-width="0.2"></path>
            <path d="M5.74505538,8.47923 C5.747164,8.11393 5.452894,7.81053 5.078644,7.81053 L4.039594,7.81053 C3.673814,7.81053 3.371244,8.11313 3.371244,8.47893 C3.371244,8.84473 3.673824,9.14723 4.039594,9.14723 L5.076694,9.14723 C5.442364,9.14723 5.744864,8.84483 5.74505538,8.47923 Z" id="Shape" stroke="#E85C4B" stroke-width="0.2"></path>
            <path d="M5.74505538,12.35073 C5.747164,11.98543 5.452894,11.68213 5.078644,11.68213 L4.039594,11.68213 C3.673814,11.68213 3.371244,11.98473 3.371244,12.35043 C3.371244,12.71623 3.673824,13.01883 4.039594,13.01883 L5.076694,13.01883 C5.442364,13.01883 5.744864,12.71643 5.74505538,12.35073 Z" id="Shape" stroke="#E85C4B" stroke-width="0.2"></path>
            <path d="M5.74505538,16.22183 C5.747164,15.85643 5.452894,15.55313 5.078644,15.55313 L4.039594,15.55313 C3.673814,15.55313 3.371244,15.85573 3.371244,16.22143 C3.371244,16.58723 3.673824,16.88983 4.039594,16.88983 L5.076694,16.88983 C5.442364,16.88983 5.744864,16.58743 5.74505538,16.22183 Z" id="Shape" stroke="#E85C4B" stroke-width="0.2"></path>
            <path d="M5.74505538,20.09273 C5.747164,19.72743 5.452894,19.42413 5.078644,19.42413 L4.039594,19.42413 C3.673814,19.42413 3.371244,19.72673 3.371244,20.09243 C3.371244,20.45823 3.673824,20.76083 4.039594,20.76083 L5.076694,20.76083 C5.442364,20.76083 5.744864,20.45843 5.74505538,20.09273 Z" id="Shape" stroke="#E85C4B" stroke-width="0.2"></path>
            <path d="M5.74505538,23.96373 C5.747164,23.59843 5.452894,23.29503 5.078644,23.29503 L4.039594,23.29503 C3.673814,23.29503 3.371244,23.59763 3.371244,23.96343 C3.371244,24.32923 3.673824,24.63173 4.039594,24.63173 L5.076694,24.63173 C5.442364,24.63173 5.744864,24.32933 5.74505538,23.96373 Z" id="Shape" stroke="#E85C4B" stroke-width="0.2"></path>
            <path d="M43.450234,5.26861 L44.487334,5.26861 C44.853134,5.26861 45.155734,4.96603 45.155734,4.60026 C45.155734,4.23449 44.853134,3.93191 44.487334,3.93191 L43.450234,3.93191 C43.084434,3.93191 42.781934,4.2345 42.781934,4.60026 C42.781934,4.96604 43.084434,5.26861 43.450234,5.26861 Z" id="Path" stroke="#E85C4B" stroke-width="0.2"></path>
            <path d="M43.450234,9.14753 L44.487334,9.14753 C44.853134,9.14753 45.155734,8.84503 45.155734,8.47923 C45.155734,8.11343 44.853134,7.81083 44.487334,7.81083 L43.450234,7.81083 C43.084434,7.81083 42.781934,8.11343 42.781934,8.47923 C42.781934,8.84503 43.084434,9.14753 43.450234,9.14753 Z" id="Path" stroke="#E85C4B" stroke-width="0.2"></path>
            <path d="M43.450234,16.88963 L44.487334,16.88963 C44.853134,16.88963 45.155734,16.58703 45.155734,16.22123 C45.155734,15.85543 44.853134,15.55293 44.487334,15.55293 L43.450234,15.55293 C43.084434,15.55293 42.781934,15.85543 42.781934,16.22123 C42.781934,16.58703 43.084434,16.88963 43.450234,16.88963 Z" id="Path" stroke="#E85C4B" stroke-width="0.2"></path>
            <path d="M44.487134,19.42413 L43.450034,19.42413 C43.084234,19.42413 42.781634,19.72673 42.781634,20.09243 C42.781634,20.45823 43.084234,20.76083 43.450034,20.76083 L44.487134,20.76083 C44.852834,20.76083 45.155434,20.45823 45.155434,20.09243 C45.155434,19.72753 44.861534,19.42413 44.487134,19.42413 Z" id="Path" stroke="#E85C4B" stroke-width="0.2"></path>
            <path d="M31.692134,11.51613 L24.534134,9.60013 C24.436534,9.57663 24.336934,9.57663 24.239234,9.60013 L17.081234,11.51613 C16.673034,11.64503 16.657434,11.99263 16.657434,12.06103 L16.657434,20.17453 C16.626134,20.64323 17.065634,20.71943 17.081234,20.71943 L24.239234,22.63543 C24.284134,22.65103 24.336834,22.65883 24.383734,22.65883 C24.428634,22.65883 24.481434,22.65103 24.528334,22.63543 L31.459834,20.77993 C31.491034,20.78773 32.112134,20.54553 32.112134,20.22723 L32.108234,12.06323 C32.139434,11.66083 31.707834,11.51633 31.692234,11.51633 L31.692134,11.51613 Z M17.789634,12.80513 L23.813134,14.41843 L23.813134,17.82663 L17.789634,19.43993 L17.789634,12.80513 Z M24.949634,14.41843 L30.973134,12.80513 L30.973134,19.44163 L24.949634,17.82833 L24.949634,14.41843 Z M24.381334,10.73683 L29.344234,12.07083 L24.465334,13.38133 C24.434034,13.37353 24.412534,13.36573 24.381334,13.36573 C24.350034,13.36573 24.328534,13.38133 24.297334,13.38133 L19.418434,12.07083 L24.381334,10.73683 Z M23.812934,19.00233 L23.812934,21.35773 L19.410634,20.18393 L23.812934,19.00233 Z M24.949634,21.35773 L24.949634,19.00233 L29.344234,20.17613 L24.949634,21.35773 Z" id="Shape"></path>
            <path d="M16.197534,6.38383 L16.197534,6.38383 C16.330734,6.51709 16.501334,6.57914 16.670534,6.57914 C16.840334,6.57914 17.008434,6.51677 17.143034,6.38443 L17.143634,6.38383 C17.401434,6.12603 17.401434,5.69746 17.143634,5.43966 L16.980334,5.27639 L31.784534,5.27639 L31.621234,5.43966 C31.363434,5.69746 31.363434,6.12603 31.621234,6.38383 C31.754534,6.51709 31.925034,6.57914 32.094334,6.57914 C32.264034,6.57914 32.432134,6.51677 32.566734,6.38444 L32.567634,6.38357 L33.868134,5.07328 C33.868134,5.07327 33.868134,5.07325 33.868234,5.07324 C33.992434,4.94903 34.063434,4.77908 34.063434,4.60023 C34.063434,4.42083 33.992034,4.25333 33.868834,4.12782 L33.867934,4.12696 L32.557634,2.82442 C32.557634,2.82441 32.557534,2.8244 32.557534,2.82439 C32.299734,2.56662 31.871234,2.56663 31.613434,2.82442 C31.355634,3.08222 31.355634,3.51079 31.613434,3.76859 L31.776734,3.93187 L16.978534,3.93187 L17.141834,3.76859 C17.399634,3.51079 17.399634,3.08222 17.141834,2.82442 C16.884034,2.56666 16.455534,2.56662 16.197734,2.82431 C16.197734,2.82435 16.197734,2.82438 16.197634,2.82442 L14.887334,4.12696 L14.887134,4.12717 C14.762834,4.25139 14.691834,4.42135 14.691834,4.60023 C14.691834,4.77962 14.763234,4.94712 14.886434,5.07263 L14.886434,5.07263 L14.887134,5.07328 L16.197534,6.38383 Z" id="Path" stroke="#E85C4B" stroke-width="0.2"></path>
            <path d="M11.858234,9.91863 L12.192234,9.58463 L12.192234,22.66063 L11.858234,22.32663 C11.639434,22.10783 11.274234,22.10783 11.055434,22.32663 C10.836734,22.54533 10.836734,22.91063 11.055434,23.12933 L12.366034,24.43993 C12.471534,24.54543 12.616034,24.60593 12.768334,24.60593 C12.920734,24.60593 13.063234,24.54543 13.170734,24.43993 L14.473434,23.12933 C14.692234,22.91063 14.692234,22.54533 14.473434,22.32663 C14.254734,22.10783 13.889434,22.10783 13.670734,22.32663 L13.336734,22.66063 L13.336734,9.58463 L13.670734,9.91863 C13.784034,10.03183 13.928534,10.08463 14.073034,10.08463 C14.217634,10.08463 14.360134,10.03183 14.475434,9.91863 C14.694134,9.69983 14.694134,9.33463 14.475434,9.11583 L13.172634,7.80533 C13.067134,7.69983 12.922634,7.63923 12.770334,7.63923 C12.617934,7.63923 12.475334,7.69983 12.367934,7.80533 L11.057434,9.11583 C10.838634,9.33463 10.838634,9.69983 11.057434,9.91863 C11.276134,10.13733 11.639434,10.14513 11.858234,9.91863 L11.858234,9.91863 Z" id="Path"></path>
            <path d="M32.692134,21.63163 C32.487134,21.82883 32.405034,22.11593 32.449934,22.40503 L32.873834,24.71563 C32.934334,25.03393 33.160934,25.29173 33.471434,25.3816343 C33.555434,25.41283 33.645334,25.41873 33.729234,25.41873 C33.955834,25.41873 34.176534,25.32693 34.342534,25.16873 L34.887434,24.62383 L35.653034,25.38943 C35.766334,25.50263 35.910834,25.55543 36.055434,25.55543 C36.199934,25.55543 36.342534,25.50263 36.457734,25.38943 C36.676534,25.17063 36.676534,24.80543 36.457734,24.58663 L35.692134,23.82103 L36.237034,23.27613 C36.463634,23.04963 36.547634,22.71563 36.449934,22.40503 C36.352334,22.09453 36.094434,21.86793 35.776134,21.81323 L33.465534,21.39723 C33.184334,21.34253 32.897234,21.43433 32.692134,21.63163 L32.692134,21.63163 Z M35.063234,22.84253 L33.905034,24.00073 L33.647234,22.58473 L35.063234,22.84253 Z" id="Shape"></path>
        </g>
    </g>
</svg>