<?xml version="1.0" encoding="UTF-8"?>
<svg width="46px" height="49px" viewBox="0 0 46 49" version="1.1" xmlns="http://www.w3.org/2000/svg" xmlns:xlink="http://www.w3.org/1999/xlink">
    <title>noun-web-sitemap-4236787 1</title>
    <defs>
        <rect id="path-1" x="-4.4408921e-16" y="-4.4408921e-16" width="43" height="29"></rect>
        <path d="M39.96667,28.744404 L2.9297,28.744404 C1.86525,28.744404 1,27.879104 1,26.814704 L1,2.929704 C1,1.865254 1.86525,1.000004 2.9297,1.000004 L39.96467,1.000004 C41.02917,1.000004 41.8943735,1.865254 41.8943735,2.929704 L41.8943735,26.814704 C41.89637,27.879104 41.02917,28.744404 39.96667,28.744404 L39.96667,28.744404 Z M2.9297,2.470904 C2.67189,2.470904 2.47072,2.672074 2.47072,2.929884 L2.47072,26.814904 C2.47072,27.064904 2.68166,27.273904 2.9297,27.273904 L39.96467,27.273904 C40.21277,27.273904 40.42367,27.062904 40.42367,26.814904 L40.42567,2.929884 C40.42567,2.672074 40.22447,2.470904 39.96667,2.470904 L2.9297,2.470904 Z" id="path-3"></path>
    </defs>
    <g id="Page-1" stroke="none" stroke-width="1" fill="none" fill-rule="evenodd">
        <g id="noun-web-sitemap-4236787-1" transform="translate(0.878782, 0.286075)">
            <path d="M21.60569,41.162004 C21.60569,41.623504 21.97859,41.996404 22.44009,41.996404 C22.90159,41.996404 23.27449,41.623504 23.27449,41.162004 L23.27449,37.497904 C23.27449,37.036404 22.90159,36.663504 22.44009,36.663504 C21.98069,36.663504 21.60569,37.036304 21.60569,37.497904 L21.60569,41.162004 Z" id="Path" stroke="#E85C4B" stroke-width="0.2" fill="#E85C4B" fill-rule="nonzero"></path>
            <path d="M21.60569,31.982504 C21.60569,32.444004 21.97859,32.816904 22.44009,32.816904 C22.90159,32.816904 23.27449,32.444004 23.27449,31.982504 L23.27449,28.009804 C23.27449,27.548304 22.90159,27.175404 22.44009,27.175404 C21.98069,27.175404 21.60569,27.548204 21.60569,28.009804 L21.60569,31.982504 Z" id="Path" stroke="#E85C4B" stroke-width="0.2" fill="#E85C4B" fill-rule="nonzero"></path>
            <path d="M3.91242,41.996404 L3.91243,41.996504 C4.37411,41.996504 4.74683,41.623404 4.74683,41.160104 L4.74683,36.232304 C4.74683,35.869604 5.04189,35.574504 5.40463,35.574504 L16.61759,35.574504 C17.07699,35.574504 17.45199,35.201804 17.45199,34.740204 C17.45199,34.278604 17.07909,33.905704 16.61759,33.905704 L5.40663,33.905704 C4.1229,33.905704 3.07813,34.950504 3.07813,36.234204 L3.07813,41.162004 C3.07813,41.623504 3.45099,41.996304 3.91242,41.996404 Z" id="Path" stroke="#E85C4B" stroke-width="0.2" fill="#E85C4B" fill-rule="nonzero"></path>
            <path d="M40.96749,42.006404 L41.19689,42.006404 L41.17319,41.980904 C41.53519,41.889604 41.80379,41.562704 41.80379,41.171904 L41.80379,36.232504 C41.80379,34.948804 40.75909,33.904004 39.47529,33.904004 L39.47529,33.904004 L28.26429,33.905904 C28.26429,33.905904 28.26429,33.905904 28.26429,33.905904 C27.80499,33.906004 27.42989,34.278704 27.42989,34.740304 C27.42989,35.201904 27.80289,35.574704 28.26429,35.574704 L39.47529,35.574704 C39.83809,35.574704 40.13309,35.869804 40.13309,36.232504 L40.13309,41.172004 C40.13309,41.633504 40.50609,42.006404 40.96749,42.006404 Z" id="Path" stroke="#E85C4B" stroke-width="0.2" fill="#E85C4B" fill-rule="nonzero"></path>
            <path d="M19.37349,38.332404 L25.50649,38.332404 C27.48749,38.332404 29.09869,36.721204 29.09869,34.738204 C29.09869,32.755304 27.48749,31.144104 25.50649,31.144104 L19.37349,31.144104 C17.39039,31.144104 15.77929,32.757204 15.77929,34.738204 C15.77929,36.721304 17.39249,38.332404 19.37349,38.332404 Z M17.44999,34.740304 C17.44999,33.680304 18.31339,32.816904 19.37349,32.816904 L25.50649,32.816904 C26.56449,32.816904 27.42799,33.680304 27.42799,34.740304 C27.42799,35.800504 26.56639,36.663804 25.50649,36.663804 L19.37349,36.663804 C18.31339,36.663804 17.44999,35.800404 17.44999,34.740304 Z" id="Shape" stroke="#E85C4B" stroke-width="0.2" fill="#E85C4B" fill-rule="nonzero"></path>
            <path d="M1.33226763e-15,44.248304 C1.33226763e-15,46.405204 1.75579,48.158904 3.9125,48.158904 C6.06928,48.158904 7.82309,46.405104 7.82309,44.248304 C7.82309,42.086004 6.06958,40.326104 3.9125,40.326104 C1.75549,40.326104 1.33226763e-15,42.085904 1.33226763e-15,44.248304 Z M1.6707,44.248404 C1.6707,43.006404 2.67711,41.996904 3.9125,41.996904 C5.14781,41.996904 6.15243,43.006404 6.1543,44.246604 C6.15422,45.482304 5.14822,46.488304 3.9125,46.488304 C2.67662,46.488304 1.6707,45.484104 1.6707,44.248404 Z" id="Shape" stroke="#E85C4B" stroke-width="0.2" fill="#E85C4B" fill-rule="nonzero"></path>
            <path d="M18.52959,44.248304 C18.52959,46.405104 20.28329,48.158904 22.44009,48.158904 C24.59679,48.158904 26.35259,46.405204 26.35259,44.248304 C26.35259,42.085904 24.59709,40.326104 22.44009,40.326104 C20.28299,40.326104 18.52959,42.086004 18.52959,44.248304 Z M20.19829,44.248404 C20.19829,43.006404 21.20469,41.996904 22.44009,41.996904 C23.67559,41.996904 24.68189,43.006504 24.68189,44.246504 C24.68189,45.482304 23.67589,46.488304 22.44009,46.488304 C21.20419,46.488304 20.19829,45.484104 20.19829,44.248404 Z" id="Shape" stroke="#E85C4B" stroke-width="0.2" fill="#E85C4B" fill-rule="nonzero"></path>
            <path d="M37.05489,44.248304 C37.05489,46.405204 38.81069,48.158904 40.96739,48.158904 C43.12419,48.158904 44.87989,46.405204 44.87989,44.248304 C44.87989,42.085904 43.12449,40.326104 40.96739,40.326104 C38.81039,40.326104 37.05489,42.085904 37.05489,44.248304 Z M40.96739,46.488304 C39.73169,46.488304 38.72759,45.484304 38.72559,44.248404 C38.72569,43.006404 39.73209,41.996904 40.96739,41.996904 C42.20289,41.996904 43.20919,43.006504 43.20919,44.246504 C43.20919,45.482304 42.20319,46.488304 40.96739,46.488304 Z" id="Shape" stroke="#E85C4B" stroke-width="0.2" fill="#E85C4B" fill-rule="nonzero"></path>
            <path d="M40.95949,28.744404 L3.92252,28.744404 C2.85807,28.744404 1.99282,27.879104 1.99282,26.814704 L1.99282,2.929704 C1.99282,1.865254 2.85807,1.000004 3.92252,1.000004 L40.95749,1.000004 C42.02199,1.000004 42.8871935,1.865254 42.8871935,2.929704 L42.8871935,26.814704 C42.88919,27.879104 42.02199,28.744404 40.95949,28.744404 L40.95949,28.744404 Z M3.92252,2.470904 C3.66471,2.470904 3.46354,2.672074 3.46354,2.929884 L3.46354,26.814904 C3.46354,27.064904 3.67448,27.273904 3.92252,27.273904 L40.95749,27.273904 C41.20559,27.273904 41.41649,27.062904 41.41649,26.814904 L41.41849,2.929884 C41.41849,2.672074 41.21729,2.470904 40.95949,2.470904 L3.92252,2.470904 Z" id="Shape" fill="#E85C4B" fill-rule="nonzero"></path>
            <g id="Clipped" transform="translate(0.992820, 0.000000)">
                <mask id="mask-2" fill="white">
                    <use xlink:href="#path-1"></use>
                </mask>
                <g id="Rectangle"></g>
                <path d="M41.89437,26.814704 L41.69437,26.814704 L41.69437,26.815104 L41.89437,26.814704 Z M40.42367,26.814904 L40.22367,26.814904 L40.22367,26.814904 L40.42367,26.814904 Z M40.42567,2.929884 L40.62567,2.929904 L40.62567,2.929884 L40.42567,2.929884 Z M39.96667,28.544404 L2.9297,28.544404 L2.9297,28.944404 L39.96667,28.944404 L39.96667,28.544404 Z M2.9297,28.544404 C1.97571,28.544404 1.2,27.768704 1.2,26.814704 L0.8,26.814704 C0.8,27.989604 1.7548,28.944404 2.9297,28.944404 L2.9297,28.544404 Z M1.2,26.814704 L1.2,2.929704 L0.8,2.929704 L0.8,26.814704 L1.2,26.814704 Z M1.2,2.929704 C1.2,1.975704 1.97571,1.200004 2.9297,1.200004 L2.9297,0.800004 C1.7548,0.800004 0.8,1.754794 0.8,2.929704 L1.2,2.929704 Z M2.9297,1.200004 L39.96467,1.200004 L39.96467,0.800004 L2.9297,0.800004 L2.9297,1.200004 Z M39.96467,1.200004 C40.91867,1.200004 41.69437,1.975704 41.69437,2.929704 L42.09437,2.929704 C42.09437,1.754794 41.13957,0.800004 39.96467,0.800004 L39.96467,1.200004 Z M41.69437,2.929704 L41.69437,26.814704 L42.09437,26.814704 L42.09437,2.929704 L41.69437,2.929704 Z M41.69437,26.815104 C41.69617,27.768604 40.91887,28.544404 39.96667,28.544404 L39.96667,28.944404 C41.13937,28.944404 42.09657,27.989704 42.0943738,26.814304 L41.69437,26.815104 Z M39.96667,28.944404 L39.96667,28.944404 L39.96667,28.544404 L39.96667,28.544404 L39.96667,28.944404 Z M2.9297,2.270904 C2.56144,2.270904 2.27072,2.561614 2.27072,2.929884 L2.67072,2.929884 C2.67072,2.782524 2.78235,2.670904 2.9297,2.670904 L2.9297,2.270904 Z M2.27072,2.929884 L2.27072,26.814904 L2.67072,26.814904 L2.67072,2.929884 L2.27072,2.929884 Z M2.27072,26.814904 C2.27072,27.175904 2.57175,27.473904 2.9297,27.473904 L2.9297,27.073904 C2.79157,27.073904 2.67072,26.953904 2.67072,26.814904 L2.27072,26.814904 Z M2.9297,27.473904 L39.96467,27.473904 L39.96467,27.073904 L2.9297,27.073904 L2.9297,27.473904 Z M39.96467,27.473904 C40.32317,27.473904 40.62367,27.173404 40.62367,26.814904 L40.22367,26.814904 C40.22367,26.952504 40.10227,27.073904 39.96467,27.073904 L39.96467,27.473904 Z M40.62367,26.814904 L40.62567,2.929874 L40.22567,2.929874 L40.22367,26.814904 L40.62367,26.814904 Z M40.62567,2.929884 C40.62567,2.561614 40.33497,2.270904 39.96667,2.270904 L39.96667,2.670904 C40.11397,2.670904 40.22567,2.782534 40.22567,2.929884 L40.62567,2.929884 Z M39.96667,2.270904 L2.9297,2.270904 L2.9297,2.670904 L39.96667,2.670904 L39.96667,2.270904 Z" id="Shape" fill="#E85C4B" fill-rule="nonzero" mask="url(#mask-2)"></path>
                <mask id="mask-4" fill="white">
                    <use xlink:href="#path-3"></use>
                </mask>
                <g id="Shape"></g>
            </g>
            <path d="M2.72698,10.433904 L42.15299,10.433904 L42.88739,9.599504 L42.98739,9.599504 C42.98739,9.599304 42.98739,9.599204 42.98739,9.599004 C42.98739,9.137734 42.61429,8.765094 42.15299,8.765094 L2.72698,8.765094 C2.26761,8.765094 1.89258,9.137824 1.89258,9.599504 C1.89258,10.061004 2.2655,10.433904 2.72698,10.433904 Z" id="Path" stroke="#E85C4B" stroke-width="0.2" fill="#E85C4B" fill-rule="nonzero"></path>
            <path d="M6.20923,5.529244 C6.20923,5.763294 6.31785,5.983974 6.47875,6.144874 C6.63965,6.305774 6.86033,6.414394 7.09438,6.414394 C7.32843,6.414394 7.54909,6.305774 7.70999,6.144874 C7.87089,5.983974 7.97949,5.763294 7.97949,5.529244 C7.97949,5.295194 7.87089,5.074514 7.70999,4.913614 C7.54909,4.752724 7.32843,4.644094 7.09438,4.644094 C6.86033,4.644094 6.63965,4.752724 6.47875,4.913614 C6.31786,5.074514 6.20923,5.295194 6.20923,5.529244 Z" id="Path" stroke="#E85C4B" stroke-width="0.2" fill="#E85C4B" fill-rule="nonzero"></path>
            <path d="M6.20923,14.634704 C6.20923,14.868804 6.31785,15.089504 6.47875,15.250404 C6.63965,15.411304 6.86033,15.519904 7.09438,15.519904 C7.32843,15.519904 7.54909,15.411304 7.70999,15.250404 C7.87089,15.089504 7.97949,14.868804 7.97949,14.634704 C7.97949,14.400704 7.87089,14.180004 7.70999,14.019104 C7.54909,13.858204 7.32843,13.749604 7.09438,13.749604 C6.86033,13.749604 6.63965,13.858204 6.47875,14.019104 C6.31786,14.180004 6.20923,14.400704 6.20923,14.634704 Z" id="Path" stroke="#E85C4B" stroke-width="0.2" fill="#E85C4B" fill-rule="nonzero"></path>
            <path d="M6.20923,18.804804 C6.20923,19.038804 6.31785,19.259504 6.47875,19.420404 C6.63965,19.581304 6.86033,19.689904 7.09438,19.689904 C7.32843,19.689904 7.54909,19.581304 7.70999,19.420404 C7.87089,19.259504 7.97949,19.038804 7.97949,18.804804 C7.97949,18.570704 7.87089,18.350004 7.70999,18.189104 C7.54909,18.028204 7.32843,17.919604 7.09438,17.919604 C6.86033,17.919604 6.63965,18.028204 6.47875,18.189104 C6.31786,18.350004 6.20923,18.570704 6.20923,18.804804 Z" id="Path" stroke="#E85C4B" stroke-width="0.2" fill="#E85C4B" fill-rule="nonzero"></path>
            <path d="M6.20923,22.972804 C6.20923,23.206804 6.31785,23.427504 6.47875,23.588404 C6.63965,23.749304 6.86033,23.857904 7.09438,23.857904 C7.32843,23.857904 7.54909,23.749304 7.70999,23.588404 C7.87089,23.427504 7.97949,23.206804 7.97949,22.972804 C7.97949,22.738704 7.87089,22.518004 7.70999,22.357104 C7.54909,22.196204 7.32843,22.087604 7.09438,22.087604 C6.86033,22.087604 6.63965,22.196204 6.47875,22.357104 C6.31786,22.518004 6.20923,22.738704 6.20923,22.972804 Z" id="Path" stroke="#E85C4B" stroke-width="0.2" fill="#E85C4B" fill-rule="nonzero"></path>
            <path d="M9.63699,5.529244 C9.63699,5.763294 9.74559,5.983974 9.90649,6.144874 C10.06739,6.305774 10.28809,6.414394 10.52209,6.414394 C10.75619,6.414394 10.97689,6.305774 11.13779,6.144874 C11.29859,5.983974 11.40729,5.763294 11.40729,5.529244 C11.40729,5.295194 11.29859,5.074514 11.13779,4.913614 C10.97689,4.752724 10.75619,4.644094 10.52209,4.644094 C10.28809,4.644094 10.06739,4.752724 9.90649,4.913614 C9.74559,5.074514 9.63699,5.295194 9.63699,5.529244 Z" id="Path" stroke="#E85C4B" stroke-width="0.2" fill="#E85C4B" fill-rule="nonzero"></path>
            <path d="M13.06279,5.529404 C13.06279,5.818264 13.17209,6.042264 13.34169,6.193024 C13.50939,6.342164 13.73029,6.414584 13.94789,6.414584 C14.16549,6.414584 14.38639,6.342164 14.55409,6.193024 C14.72369,6.042264 14.83309,5.818264 14.83309,5.529404 C14.83309,5.240544 14.72369,5.016554 14.55409,4.865784 C14.38639,4.716654 14.16549,4.644234 13.94789,4.644234 C13.73029,4.644234 13.50939,4.716654 13.34169,4.865784 C13.17209,5.016554 13.06279,5.240544 13.06279,5.529404 Z" id="Path" stroke="#E85C4B" stroke-width="0.2" fill="#E85C4B" fill-rule="nonzero"></path>
            <path d="M18.26049,5.529724 L18.26049,5.529724 L18.26049,5.529244 C18.26049,5.295194 18.15189,5.074514 17.99099,4.913614 C17.83009,4.752724 17.60939,4.644094 17.37539,4.644094 C17.14129,4.644094 16.92069,4.752724 16.75979,4.913614 C16.59889,5.074514 16.49019,5.295194 16.49019,5.529244 C16.49019,5.763294 16.59889,5.983974 16.75979,6.144874 C16.92069,6.305774 17.14129,6.414394 17.37539,6.414394 C17.60859,6.414394 17.82879,6.305664 17.98959,6.144874 C18.15039,5.984064 18.25939,5.763574 18.26049,5.529724 Z" id="Path" stroke="#E85C4B" stroke-width="0.2" fill="#E85C4B" fill-rule="nonzero"></path>
            <path d="M38.6688972,5.579994 C38.6688972,5.118494 38.29589,4.745594 37.83449,4.745594 L30.34249,4.745594 C29.88309,4.745594 29.50809,5.118324 29.50809,5.579994 C29.50809,6.041504 29.88099,6.414394 30.34249,6.414394 L37.83449,6.414394 C38.29549,6.414394 38.67079,6.039944 38.6688972,5.579994 Z M38.66889,5.579994 L38.56889,5.579994 L38.66889,5.579514 C38.66889,5.579674 38.66889,5.579834 38.66889,5.579994 Z" id="Shape" stroke="#E85C4B" stroke-width="0.2" fill="#E85C4B" fill-rule="nonzero"></path>
            <path d="M38.4034972,14.637004 C38.4034972,14.175504 38.03059,13.802604 37.56909,13.802604 L16.59859,13.802604 C16.13919,13.802604 15.76419,14.175304 15.76419,14.637004 C15.76419,15.098504 16.13709,15.471404 16.59859,15.471404 L37.56909,15.471404 C38.03009,15.471404 38.40539,15.096904 38.4034972,14.637004 Z M38.40349,14.637004 L38.30349,14.637004 L38.40349,14.636504 C38.40349,14.636704 38.40349,14.636804 38.40349,14.637004 Z" id="Shape" stroke="#E85C4B" stroke-width="0.2" fill="#E85C4B" fill-rule="nonzero"></path>
            <path d="M38.4034988,18.804804 C38.4034988,18.343404 38.03049,17.970604 37.56909,17.970604 L16.59859,17.970604 C16.13919,17.970604 15.76419,18.343304 15.76419,18.805004 C15.76419,19.266504 16.13709,19.639404 16.59859,19.639404 L37.56909,19.639404 C38.03009,19.639404 38.40559,19.266904 38.4034988,18.804804 Z M38.40349,18.804804 C38.40349,18.804704 38.40349,18.804604 38.40349,18.804504 L38.30349,18.805004 L38.40349,18.805004 C38.40349,18.804904 38.40349,18.804804 38.40349,18.804804 Z" id="Shape" stroke="#E85C4B" stroke-width="0.2" fill="#E85C4B" fill-rule="nonzero"></path>
            <path d="M38.4034988,22.972304 C38.4034988,22.510904 38.03049,22.138104 37.56909,22.138104 L16.59859,22.138104 C16.13919,22.138104 15.76419,22.510804 15.76419,22.972504 C15.76419,23.434004 16.13709,23.806904 16.59859,23.806904 L37.56909,23.806904 C38.03009,23.806904 38.40559,23.434404 38.4034988,22.972304 Z M38.40349,22.972304 C38.40349,22.972204 38.40349,22.972104 38.40349,22.972004 L38.30349,22.972504 L38.40349,22.972504 C38.40349,22.972404 38.40349,22.972304 38.40349,22.972304 Z" id="Shape" stroke="#E85C4B" stroke-width="0.2" fill="#E85C4B" fill-rule="nonzero"></path>
            <path d="M10.41819,9.599504 L10.41819,9.599504 L11.98699,27.791004 L12.08699,27.791004 L12.08699,27.790804 L12.08699,9.599504 C12.08699,9.137994 11.71409,8.765094 11.25259,8.765094 C10.79319,8.765094 10.41819,9.137844 10.41819,9.599504 Z" id="Path" stroke="#E85C4B" stroke-width="0.2" fill="#E85C4B" fill-rule="nonzero"></path>
        </g>
    </g>
</svg>