<svg width="50" height="50" viewBox="0 0 50 50" fill="none" xmlns="http://www.w3.org/2000/svg">
<g clip-path="url(#clip0_283_1941)">
<path d="M10.156 22.3225C10.1619 23.471 10.5798 24.5803 11.3357 25.4475C10.5799 26.3128 10.1619 27.4221 10.156 28.5725C10.2126 30.5862 11.4334 32.385 13.283 33.1799C13.3708 36.0061 16.0232 38.2814 19.2715 38.2814C21.082 38.3087 22.8164 37.551 24.0273 36.2033C24.1504 36.0607 24.2187 35.8791 24.2187 35.6897V14.3107C24.2187 14.1212 24.1504 13.9396 24.0273 13.797C22.8164 12.4494 21.082 11.6916 19.2715 11.7189C15.9687 11.7189 13.2815 14.0724 13.2815 16.9649C13.2815 17.209 13.3049 17.4512 13.3498 17.6915C11.4612 18.4669 10.2092 20.2813 10.1565 22.3223L10.156 22.3225ZM12.7634 26.2288H16.5173C16.8103 27.1057 17.6775 27.6585 18.5974 27.551C19.5154 27.4436 20.2341 26.7073 20.3181 25.7854C20.4021 24.8655 19.8279 24.01 18.9431 23.7405C18.0584 23.469 17.1052 23.8557 16.658 24.6663H12.7634C12.115 24.0569 11.738 23.2112 11.7185 22.3226C11.783 20.8792 12.699 19.6136 14.0466 19.0999L15.029 20.2542C15.1774 20.428 15.3962 20.5296 15.6247 20.5296H17.3532C17.7223 21.3772 18.6364 21.8479 19.5427 21.6604C20.447 21.471 21.0954 20.6721 21.0954 19.7483C21.0954 18.8225 20.447 18.0257 19.5427 17.8362C18.6364 17.6468 17.7224 18.1194 17.3532 18.9671H15.986L14.986 17.7932C14.8981 17.5257 14.8512 17.2463 14.8434 16.9651C14.8434 14.9339 16.8298 13.2815 19.2712 13.2815C20.5309 13.2601 21.7497 13.7405 22.6559 14.6175V35.383C21.7497 36.2599 20.5309 36.7404 19.2712 36.7189C16.9509 36.7189 15.0466 35.2248 14.863 33.3342L15.9489 32.2482H17.3532C17.7224 33.0959 18.6364 33.5666 19.5427 33.3791C20.447 33.1896 21.0954 32.3908 21.0954 31.467C21.0954 30.5412 20.447 29.7443 19.5427 29.5549C18.6364 29.3654 17.7224 29.8381 17.3532 30.6857H15.6247C15.4177 30.6857 15.2185 30.7678 15.072 30.9143L14.1423 31.844C12.7497 31.342 11.7927 30.051 11.7184 28.5725C11.738 27.6819 12.1149 26.8361 12.7633 26.2287L12.7634 26.2288ZM17.9684 25.6077C17.9684 25.4494 18.0641 25.3069 18.2086 25.2463C18.3551 25.1858 18.5231 25.219 18.6344 25.3303C18.7477 25.4436 18.7809 25.6116 18.7204 25.7561C18.6598 25.9026 18.5172 25.9983 18.359 25.9983C18.1442 25.9983 17.9684 25.8225 17.9684 25.6077ZM19.1403 19.3577C19.2985 19.3577 19.4411 19.4514 19.5016 19.5979C19.5622 19.7444 19.529 19.9123 19.4157 20.0237C19.3044 20.135 19.1364 20.1682 18.9899 20.1096C18.8454 20.0491 18.7497 19.9065 18.7497 19.7483C18.7497 19.5315 18.9255 19.3577 19.1403 19.3577ZM18.7497 31.4672C18.7497 31.3089 18.8454 31.1664 18.9899 31.1058C19.1364 31.0453 19.3044 31.0785 19.4157 31.1898C19.529 31.3031 19.5622 31.4711 19.5016 31.6156C19.4411 31.7621 19.2985 31.8578 19.1403 31.8578C18.9255 31.8578 18.7497 31.682 18.7497 31.4672Z" fill="#E85C4B"/>
<path d="M25.0001 49.219C28.6348 49.2288 32.2226 48.4123 35.4961 46.8323L34.8183 45.4241H34.8163C31.7558 46.9026 28.3983 47.6663 24.9998 47.6565C16.9098 47.6545 9.43535 43.3401 5.38635 36.336C1.3375 29.332 1.32775 20.701 5.36291 13.6895L4.00941 12.9082H4.01136C-0.303086 20.4042 -0.295286 29.6307 4.03285 37.1172C8.36098 44.6037 16.3513 49.2168 24.9998 49.2188L25.0001 49.219Z" fill="#E85C4B"/>
<path d="M25 0.781247C20.7481 0.779294 16.5725 1.8965 12.8905 4.0215L13.6737 5.375H13.6718C19.7478 1.86915 27.1052 1.375 33.5938 4.0371C40.0837 6.69725 44.9768 12.2146 46.8398 18.9766C48.705 25.7381 47.3339 32.9826 43.1249 38.5956L44.3749 39.5331C47.9902 34.7108 49.6794 28.7146 49.1113 22.7146C48.541 16.7126 45.7558 11.1406 41.2967 7.0856C36.8377 3.02895 31.0272 0.781097 24.9997 0.781097L25 0.781247Z" fill="#E85C4B"/>
<path d="M8.59407 12.5C10.1742 12.5 11.598 11.5488 12.2035 10.0879C12.807 8.6289 12.473 6.94925 11.3558 5.83205C10.2386 4.71485 8.55892 4.3809 7.09997 4.9844C5.63902 5.58985 4.68787 7.0137 4.68787 8.5938C4.68982 10.75 6.43787 12.4981 8.59412 12.5L8.59407 12.5ZM8.59407 6.25C9.54132 6.25 10.3968 6.8203 10.7601 7.69725C11.1214 8.57225 10.9222 9.58005 10.2523 10.2519C9.58037 10.9218 8.57257 11.1211 7.69757 10.7597C6.82062 10.3965 6.25032 9.541 6.25032 8.59375C6.25227 7.3008 7.30112 6.25195 8.59407 6.25Z" fill="#E85C4B"/>
<path d="M39.844 39.0625C38.2639 39.0625 36.8401 40.0136 36.2346 41.4746C35.6311 42.9336 35.9651 44.6132 37.0823 45.7304C38.1995 46.8476 39.8792 47.1816 41.3381 46.5781C42.7991 45.9726 43.7502 44.5488 43.7502 42.9687C43.7483 40.8124 42.0002 39.0644 39.844 39.0624L39.844 39.0625ZM39.844 45.3125C38.8968 45.3125 38.0413 44.7422 37.678 43.8652C37.3167 42.9902 37.5159 41.9824 38.1858 41.3105C38.8577 40.6406 39.8655 40.4414 40.7405 40.8027C41.6175 41.166 42.1878 42.0215 42.1878 42.9687C42.1858 44.2617 41.137 45.3105 39.844 45.3125Z" fill="#E85C4B"/>
<path d="M27.699 28.906C27.3904 28.906 27.0838 28.8611 26.7889 28.7712C26.5525 28.699 26.2967 28.7439 26.0975 28.8904C25.8982 29.0388 25.781 29.2712 25.781 29.5193V37.4393C25.781 37.8377 26.0818 38.1737 26.4802 38.2166C26.8845 38.2596 27.2927 38.2811 27.7009 38.2811C27.7537 38.2811 27.8064 38.2811 27.8592 38.2791C28.9412 38.2596 30.0154 38.0936 31.0525 37.785C31.3845 37.6854 31.6131 37.3807 31.6131 37.035V35.5272C31.5974 35.2127 31.7576 34.9139 32.0271 34.7498C32.5584 34.4842 33.0662 34.1737 33.5408 33.8201C33.7673 33.6658 34.0662 33.6639 34.2947 33.8162L35.5232 34.5701H35.5212C35.8357 34.7635 36.2419 34.7107 36.4958 34.4451C38.1228 32.7283 39.2693 30.615 39.822 28.3141C39.902 27.986 39.7595 27.6422 39.4704 27.4645L37.7829 26.4294H37.7849C37.9099 25.4802 37.9099 24.5192 37.7849 23.57L39.4704 22.5348C39.7595 22.3571 39.9001 22.0133 39.82 21.6852C39.2712 19.3844 38.1267 17.2692 36.5017 15.5502C36.2478 15.2846 35.8415 15.2319 35.5271 15.4252L34.2927 16.183H34.2946C34.0661 16.3354 33.7692 16.3334 33.5427 16.1791C33.0642 15.8256 32.5583 15.5151 32.0271 15.2494C31.7556 15.0854 31.5974 14.7865 31.613 14.4721V12.9584C31.613 12.6127 31.3845 12.3061 31.0525 12.2084C29.9119 11.8686 28.7283 11.7026 27.5388 11.7201C27.1814 11.724 26.8279 11.7475 26.4783 11.7846C26.0818 11.8276 25.781 12.1615 25.781 12.56V20.48C25.781 20.728 25.8982 20.9605 26.0974 21.1089C26.2966 21.2554 26.5525 21.3003 26.7888 21.228C27.0837 21.1382 27.3904 21.0933 27.699 21.0933C29.7341 21.2202 31.2869 22.9624 31.1794 24.9995C31.2868 27.0366 29.7341 28.7788 27.699 28.9058L27.699 28.906ZM27.699 19.531C27.5799 19.531 27.4627 19.5349 27.3435 19.5447V13.2867C27.4158 13.2847 27.4861 13.2828 27.5584 13.2808V13.2828C28.3982 13.271 29.2342 13.3648 30.0506 13.5601V14.4722C30.033 15.3804 30.5291 16.2222 31.3318 16.6499C31.781 16.8726 32.2088 17.1343 32.6111 17.4332C33.3494 17.9703 34.3416 18.0035 35.1111 17.5132L35.7908 17.0953H35.7928C36.8846 18.3824 37.6893 19.8863 38.158 21.5074L36.5252 22.5093C36.2537 22.6773 36.1092 22.9937 36.1639 23.3082C36.367 24.4273 36.367 25.5718 36.1639 26.691C36.1092 27.0054 36.2537 27.3218 36.5252 27.4898L38.158 28.4918C37.6873 30.1129 36.8807 31.6148 35.7869 32.9L35.1111 32.4859C34.3396 31.9957 33.3494 32.0289 32.6111 32.566C32.2088 32.8648 31.781 33.1265 31.3318 33.3492C30.5291 33.7769 30.0349 34.6187 30.0506 35.5269V36.4332C29.326 36.609 28.5838 36.7047 27.8377 36.7164C27.6756 36.7203 27.5096 36.7183 27.3435 36.7105V30.4545C27.4607 30.4623 27.5799 30.4682 27.699 30.4682C30.5975 30.3432 32.8515 27.8998 32.742 24.9992C32.8514 22.0988 30.5975 19.6552 27.699 19.5302L27.699 19.531Z" fill="#E85C4B"/>
</g>
<defs>
<clipPath id="clip0_283_1941">
<rect width="50" height="50" fill="white"/>
</clipPath>
</defs>
</svg>
