<?xml version="1.0" encoding="UTF-8"?>
<svg width="48px" height="46px" viewBox="0 0 48 46" version="1.1" xmlns="http://www.w3.org/2000/svg" xmlns:xlink="http://www.w3.org/1999/xlink">
    <title>noun-cloud-technology-1652405 1</title>
    <g id="Page-1" stroke="none" stroke-width="1" fill="none" fill-rule="evenodd" stroke-linejoin="round">
        <g id="noun-cloud-technology-1652405-1" transform="translate(2.203642, 1.756869)" stroke="#E85C4B" stroke-width="2.5">
            <path d="M37.11593,22.50031 C41.05743,22.50031 44.23123,19.32641 44.23123,15.38501 C44.23123,11.44351 41.05733,8.26971 37.11593,8.26971 L37.02023,8.26971 C36.63543,5.09583 33.94403,2.5958 30.67443,2.5958 C28.17443,2.5958 26.05923,4.03726 25.00053,6.15441 C24.03963,2.5958 20.86573,1.77635684e-15 17.01993,1.77635684e-15 C12.40473,1.77635684e-15 8.75033,3.75005 8.75033,8.26961 L8.75033,8.46101 C8.26983,8.36531 7.69173,8.26961 7.11553,8.26961 C3.17403,8.17391 0.00024,11.44351 0.00024,15.28921 C0.00024,19.23071 3.17412,22.40451 7.11553,22.40451 L37.11583,22.40451 L37.11593,22.50031 Z" id="Path"></path>
            <path d="M5.76968,39.32831 C5.76968,40.92211 4.47861,42.21321 2.88484,42.21321 C1.29107,42.21321 4.4408921e-16,40.92211 4.4408921e-16,39.32831 C4.4408921e-16,37.73461 1.29107,36.44351 2.88484,36.44351 C4.47861,36.44351 5.76968,37.73461 5.76968,39.32831 Z" id="Path"></path>
            <path d="M25.00013,39.32831 C25.00013,40.92211 23.70903,42.21321 22.11533,42.21321 C20.52153,42.21321 19.23043,40.92211 19.23043,39.32831 C19.23043,37.73461 20.52153,36.44351 22.11533,36.44351 C23.70903,36.44351 25.00013,37.73461 25.00013,39.32831 Z" id="Path"></path>
            <path d="M44.23113,39.32831 C44.23113,40.92211 42.94003,42.21321 41.34623,42.21321 C39.75253,42.21321 38.46143,40.92211 38.46143,39.32831 C38.46143,37.73461 39.75253,36.44351 41.34623,36.44351 C42.94003,36.44351 44.23113,37.73461 44.23113,39.32831 Z" id="Path"></path>
            <line x1="22.11543" y1="36.44371" x2="22.11543" y2="22.50031" id="Path"></line>
            <polyline id="Path" points="5.76977 39.32841 10.57643 39.32841 10.57643 22.50031"></polyline>
            <polyline id="Path" points="38.46193 39.32841 33.65523 39.32841 33.65523 22.50031"></polyline>
        </g>
    </g>
</svg>