<svg width="50" height="50" viewBox="0 0 50 50" fill="none" xmlns="http://www.w3.org/2000/svg">
<path d="M48.3495 9.9005C48.3495 6.31065 45.4394 3.4005 41.8495 3.4005H8.15051C4.56066 3.4005 1.65051 6.31065 1.65051 9.9005V40.0995C1.65051 43.6893 4.56066 46.5995 8.15051 46.5995H41.8495C45.4394 46.5995 48.3495 43.6893 48.3495 40.0995V9.9005ZM8.15051 6.4005H41.8495C43.7831 6.4005 45.3495 7.9669 45.3495 9.9005V15.586H4.65051V9.9005C4.65051 7.9669 6.21691 6.4005 8.15051 6.4005ZM41.8495 43.5995H8.15051C6.21691 43.5995 4.65051 42.0331 4.65051 40.0995V18.5995H45.3495V40.0995C45.3495 41.0272 44.9804 41.9178 44.3241 42.5741C43.6679 43.2303 42.7772 43.5995 41.8495 43.5995Z" fill="#E85C4B"/>
<path d="M9 12.16H12.5C13.3281 12.16 14 11.4881 14 10.66C14 9.8319 13.3281 9.16 12.5 9.16H9C8.1719 9.16 7.5 9.8319 7.5 10.66C7.5 11.4881 8.1719 12.16 9 12.16Z" fill="#E85C4B"/>
<path d="M18.9141 12.16H22.4141C23.2442 12.16 23.9141 11.4881 23.9141 10.66C23.9141 9.8319 23.2442 9.16 22.4141 9.16H18.9141C18.086 9.16 17.4141 9.8319 17.4141 10.66C17.4141 11.4881 18.086 12.16 18.9141 12.16Z" fill="#E85C4B"/>
<path d="M18.9295 24C18.3299 23.4297 17.3807 23.4551 16.8104 24.0547L11.4489 29.7107C10.9 30.2888 10.9 31.1951 11.4489 31.7751L16.8044 37.4256C17.3747 38.0311 18.3278 38.0604 18.9352 37.4901C19.5407 36.9198 19.57 35.9666 18.9997 35.3592L14.6247 30.744L18.9997 26.1444C19.279 25.8534 19.4294 25.4608 19.4157 25.0584C19.404 24.6541 19.2282 24.2733 18.9294 23.9998L18.9295 24Z" fill="#E85C4B"/>
<path d="M33.1896 24.074C32.6193 23.4705 31.6642 23.4432 31.0607 24.0154C30.4552 24.5857 30.4279 25.5408 31.0001 26.1443L35.3751 30.7439L31.0001 35.3592C30.4532 35.9646 30.4884 36.8924 31.0802 37.4549C31.67 38.0154 32.5997 38.0018 33.1759 37.4256L38.5509 31.7751C39.0997 31.195 39.0997 30.2887 38.5509 29.7106L33.1896 24.074Z" fill="#E85C4B"/>
<path d="M27.8905 21.3595C27.5077 21.2443 27.0976 21.2833 26.744 21.4708C26.3925 21.6583 26.1307 21.9786 26.0155 22.3595L21.1151 38.2735V38.2754C20.8729 39.0723 21.3241 39.9141 22.119 40.1543C22.9159 40.3965 23.7577 39.9473 23.9999 39.1504L28.9003 23.2364V23.2345C29.0155 22.8517 28.9745 22.4396 28.785 22.088C28.5956 21.7345 28.2733 21.4727 27.8905 21.3595L27.8905 21.3595Z" fill="#E85C4B"/>
</svg>
