<svg width="50" height="50" viewBox="0 0 50 50" fill="none" xmlns="http://www.w3.org/2000/svg">
<path d="M39.844 12.5H35.1565V4.6875C35.1545 2.9629 33.7561 1.56445 32.0315 1.5625H10.1565C8.43189 1.56445 7.03344 2.9629 7.03149 4.6875V45.3125C7.03345 47.0371 8.43189 48.4356 10.1565 48.4375H32.0315C33.7561 48.4355 35.1545 47.0371 35.1565 45.3125V39.0625H39.844C41.5686 39.0605 42.967 37.6621 42.969 35.9375V15.625C42.967 13.9004 41.5686 12.502 39.844 12.5ZM25 3.125V3.90625C25 4.33789 24.6504 4.6875 24.2187 4.6875H17.9687C17.5371 4.6875 17.1875 4.33789 17.1875 3.90625V3.125H25ZM33.594 45.3125C33.592 46.1758 32.8948 46.8731 32.0315 46.875H10.1565C9.29319 46.873 8.59594 46.1758 8.59399 45.3125V4.6875C8.59595 3.8242 9.29319 3.12695 10.1565 3.125H15.6255V3.90625C15.6274 5.1992 16.6763 6.24805 17.9692 6.25H24.2192C25.5122 6.24805 26.561 5.1992 26.563 3.90625V3.125H32.032C32.8953 3.12695 33.5925 3.8242 33.5945 4.6875V12.5H13.282C11.5574 12.502 10.1589 13.9004 10.157 15.625V35.9375C10.1589 37.6621 11.5574 39.0606 13.282 39.0625H33.5945L33.594 45.3125ZM41.4065 35.9375C41.4045 36.8008 40.7073 37.4981 39.844 37.5H13.2815C12.4182 37.498 11.7209 36.8008 11.719 35.9375V15.625C11.7209 14.7617 12.4182 14.0645 13.2815 14.0625H39.844C40.7073 14.0645 41.4045 14.7617 41.4065 15.625V35.9375Z" fill="#E85C4B"/>
<path d="M21.3225 26.334C21.6291 26.6289 22.1155 26.6231 22.4163 26.3223C22.717 26.0215 22.7229 25.5352 22.428 25.2285L19.0745 21.875L22.428 18.5215C22.7229 18.2149 22.717 17.7286 22.4163 17.4278C22.1155 17.127 21.6292 17.1211 21.3225 17.4161L17.4163 21.3223C17.2698 21.4688 17.1877 21.668 17.1877 21.8751C17.1877 22.0821 17.2698 22.2813 17.4163 22.4278L21.3225 26.334Z" fill="#E85C4B"/>
<path d="M31.8025 17.416C31.4958 17.1211 31.0095 17.1269 30.7087 17.4277C30.408 17.7285 30.4021 18.2148 30.697 18.5215L34.0505 21.875L30.697 25.2285C30.5486 25.375 30.4665 25.5742 30.4646 25.7832C30.4646 25.9902 30.5466 26.1894 30.6931 26.3379C30.8416 26.4844 31.0408 26.5664 31.2478 26.5664C31.4568 26.5644 31.656 26.4824 31.8025 26.334L35.7088 22.4277C35.8552 22.2812 35.9373 22.082 35.9373 21.875C35.9373 21.6679 35.8552 21.4687 35.7088 21.3222L31.8025 17.416Z" fill="#E85C4B"/>
<path d="M29.2129 15.6875C29.0235 15.6074 28.8087 15.6035 28.6153 15.6816C28.4239 15.7578 28.2696 15.9082 28.1876 16.0996L23.5001 27.0371C23.3301 27.4336 23.5157 27.8926 23.9122 28.0625C24.3087 28.2325 24.7676 28.0469 24.9376 27.6504L29.6251 16.7129C29.7052 16.5234 29.7091 16.3086 29.6309 16.1152C29.5548 15.9238 29.4044 15.7695 29.213 15.6875L29.2129 15.6875Z" fill="#E85C4B"/>
<path d="M24.219 30.469H14.844C14.4124 30.469 14.0627 30.8186 14.0627 31.2502C14.0627 31.6819 14.4124 32.0315 14.844 32.0315H24.219C24.6467 32.0256 24.9885 31.678 24.9885 31.2502C24.9885 30.8225 24.6467 30.4748 24.219 30.469Z" fill="#E85C4B"/>
<path d="M21.094 33.594H14.844C14.4163 33.5999 14.0745 33.9475 14.0745 34.3752C14.0745 34.803 14.4163 35.1506 14.844 35.1565H21.094C21.5217 35.1506 21.8636 34.803 21.8636 34.3752C21.8636 33.9475 21.5218 33.5998 21.094 33.594Z" fill="#E85C4B"/>
<path d="M17.969 45.3125H24.219C24.6467 45.3066 24.9886 44.959 24.9886 44.5312C24.9886 44.1035 24.6468 43.7558 24.219 43.75H17.969C17.5413 43.7559 17.1995 44.1035 17.1995 44.5312C17.1995 44.959 17.5413 45.3067 17.969 45.3125Z" fill="#E85C4B"/>
</svg>
