<svg width="50" height="50" viewBox="0 0 50 50" fill="none" xmlns="http://www.w3.org/2000/svg">
<path d="M12.3368 13.1303H6.79327C6.47636 13.1303 6.15943 12.9727 6.08061 12.6558C6.00018 12.3389 6.00018 12.022 6.23826 11.7839L11.7818 6.24038C12.0199 6.00391 12.3368 5.92347 12.6537 6.08273C12.9706 6.24038 13.1282 6.47847 13.1282 6.79539V12.3389C13.1282 12.8134 12.8113 13.1304 12.3367 13.1304L12.3368 13.1303ZM8.69312 11.5474H11.5437L11.5453 8.6952L8.69312 11.5474Z" fill="#E85C4B"/>
<path d="M28.8882 37.4439C26.6715 37.4439 24.4529 36.572 22.7109 34.9102C19.3054 31.5047 19.3054 25.9614 22.7109 22.5556C26.1164 19.1501 31.6598 19.1501 35.0655 22.5556C38.4711 25.9612 38.4711 31.5045 35.0655 34.9102C33.3233 36.6524 31.1066 37.4439 28.8882 37.4439ZM28.8882 21.6049C27.0672 21.6049 25.2445 22.3175 23.8191 23.664C21.0474 26.4357 21.0474 30.9495 23.8191 33.7214C26.5909 36.4932 31.1046 36.4932 33.8766 33.7214C36.6483 30.9497 36.6483 26.4359 33.8766 23.664C32.5317 22.3175 30.7091 21.6049 28.8882 21.6049Z" fill="#E85C4B"/>
<path d="M29.9178 36.8922H9.16908C7.42688 36.8922 6.00161 35.4669 6.00161 33.7247L6 12.0238L12.0196 6.00586H26.591C28.3332 6.00586 29.7585 7.43113 29.7585 9.17334V21.6857H28.967C26.9867 21.6069 25.1657 22.3983 23.8193 23.7448C21.0475 26.5165 21.0475 31.0303 23.8193 33.8023C24.5319 34.5149 25.3233 34.9895 26.1953 35.3868L29.9178 36.8922ZM7.58481 12.6573V33.7228C7.58481 34.5947 8.29747 35.3074 9.16937 35.3074H23.1087C22.951 35.1497 22.8706 35.0693 22.7129 34.9116C21.0495 33.2482 20.1793 31.1103 20.1793 28.7343C20.1777 26.3583 21.048 24.2203 22.7113 22.6357C24.2154 21.1316 26.1169 20.2597 28.1762 20.102V9.1727C28.1762 8.3008 27.4635 7.58814 26.5916 7.58814H12.654L7.58481 12.6573Z" fill="#E85C4B"/>
<path d="M33.9236 34.9025L35.0432 33.7828L37.2825 36.0221L36.1629 37.1418L33.9236 34.9025Z" fill="#E85C4B"/>
<path d="M41.798 44.0168C41.1642 44.0168 40.6108 43.7788 40.1346 43.3042L35.3826 38.5522C34.9081 38.0776 34.9081 37.365 35.3826 36.8888L37.046 35.2254C37.5206 34.7509 38.2332 34.7509 38.7094 35.2254L43.4614 39.9774C43.9359 40.452 44.1741 41.007 44.1741 41.6408C44.1741 42.2746 43.936 42.9084 43.4614 43.3042C42.9853 43.7803 42.3514 44.0168 41.798 44.0168ZM36.7289 37.7609L41.2429 42.2748C41.5598 42.5917 42.0344 42.5917 42.3513 42.2748C42.5089 42.1172 42.5893 41.9579 42.5893 41.7198C42.5893 41.4817 42.5105 41.3241 42.3513 41.1648L37.8373 36.6508L36.7289 37.7609Z" fill="#E85C4B"/>
<path d="M17.0889 22.6342H10.7539C10.2793 22.6342 9.9624 22.3173 9.9624 21.8427C9.9624 21.3682 10.2793 21.0513 10.7539 21.0513H17.0889C17.5634 21.0513 17.8804 21.3682 17.8804 21.8427C17.8804 22.3173 17.5635 22.6342 17.0889 22.6342Z" fill="#E85C4B"/>
<path d="M22.6322 17.8823H10.752C10.2775 17.8823 9.96057 17.5654 9.96057 17.0908C9.96057 16.6163 10.2775 16.2993 10.752 16.2993H22.6322C23.1068 16.2993 23.4237 16.6162 23.4237 17.0908C23.4237 17.5653 23.1068 17.8823 22.6322 17.8823Z" fill="#E85C4B"/>
<path d="M17.0889 27.3867H10.7539C10.2793 27.3867 9.9624 27.0698 9.9624 26.5952C9.9624 26.1206 10.2793 25.8037 10.7539 25.8037H17.0889C17.5634 25.8037 17.8804 26.1206 17.8804 26.5952C17.8804 27.0698 17.5635 27.3867 17.0889 27.3867Z" fill="#E85C4B"/>
<path d="M17.0889 32.1389H10.7539C10.2793 32.1389 9.9624 31.822 9.9624 31.3474C9.9624 30.8728 10.2793 30.5559 10.7539 30.5559H17.0889C17.5634 30.5559 17.8804 30.8728 17.8804 31.3474C17.8804 31.8219 17.5635 32.1389 17.0889 32.1389Z" fill="#E85C4B"/>
</svg>
