<?xml version="1.0" encoding="UTF-8"?>
<svg width="48px" height="46px" viewBox="0 0 48 46" version="1.1" xmlns="http://www.w3.org/2000/svg" xmlns:xlink="http://www.w3.org/1999/xlink">
    <title>noun-design-4200607 1</title>
    <defs>
        <rect id="path-1" x="1.33226763e-15" y="-8.8817842e-16" width="47" height="46"></rect>
        <path d="M23.65431,1 C22.07031,1 20.74021,2.1133 20.38281,3.59375 L7.4258,3.59375 L7.4258,1.94335 L7.42385,1.94335 C7.4258,1.51171 7.07814,1.1621 6.6465,1.16015 L1.7793,1.16015 C1.34766,1.1621 1,1.51171 1,1.94335 L1,6.81055 C1.00195,7.24024 1.34961,7.58985 1.7793,7.5918 L6.6465,7.5918 C7.07619,7.58984 7.42385,7.24024 7.42385,6.81055 L7.42385,5.15625 L16.79281,5.15625 C11.47431,7.70705 7.81635,13.12876 7.81635,19.42976 L7.81635,20.73056 C6.3359,21.08796 5.22065,22.41806 5.22065,24.00206 C5.22065,25.85746 6.74605,27.38096 8.59955,27.38096 C10.45501,27.38096 11.97261,25.85746 11.97261,24.00206 C11.97261,22.41606 10.85931,21.08406 9.37691,20.72856 L9.37691,19.42776 C9.37691,12.79676 13.83591,7.2678 19.92591,5.6388 L20.48251,5.49036 C20.94741,6.79896 22.18961,7.74816 23.65241,7.74816 C25.11531,7.74816 26.35951,6.79896 26.82431,5.49036 L27.37711,5.6388 C33.46711,7.2677 37.93161,12.79676 37.93161,19.42776 L37.93161,20.72856 C36.44921,21.08406 35.33591,22.41606 35.33591,24.00206 C35.33591,25.85746 36.85351,27.38096 38.70891,27.38096 C40.56441,27.38096 42.08201,25.85746 42.08201,24.00206 C42.08201,22.41606 40.96871,21.08406 39.48631,20.72856 L39.48631,19.42776 C39.48631,13.12676 35.82811,7.7053 30.50981,5.1543 L39.87881,5.1543 L39.87881,6.8086 L39.88071,6.81055 C39.88271,7.01954 39.96471,7.2168 40.11121,7.3633 C40.25971,7.50979 40.45891,7.59182 40.66591,7.59182 L45.52731,7.59182 C45.73431,7.59182 45.93351,7.50979 46.08201,7.3633 C46.22841,7.21682 46.31051,7.01955 46.31241,6.81055 L46.31241,1.94335 C46.31241,1.73632 46.23041,1.53515 46.08201,1.38865 C45.93551,1.24217 45.73631,1.15818 45.52731,1.16014 L40.66591,1.16014 C40.45691,1.15818 40.25771,1.24217 40.11121,1.38865 C39.96281,1.53514 39.88071,1.73631 39.88071,1.94335 L39.88071,3.59375 L26.92971,3.59375 C26.57041,2.1133 25.23831,1 23.65431,1 L23.65431,1 Z M23.65431,2.5625 C24.66601,2.5625 25.47071,3.3672 25.47071,4.3789 C25.47071,5.3906 24.66601,6.18945 23.65431,6.18945 C22.64261,6.18945 21.84371,5.38865 21.84371,4.3789 C21.84371,3.3672 22.64451,2.5625 23.65431,2.5625 Z M2.5643,2.72461 L5.869,2.72461 L5.869,4.30861 L5.869,4.30665 C5.8651,4.34962 5.8651,4.39259 5.869,4.43556 L5.869,6.02736 L2.5643,6.02736 L2.5643,2.72461 Z M41.44731,2.72461 L44.75001,2.72461 L44.75001,6.02736 L41.44731,6.02736 L41.44731,4.43166 L41.44531,4.43166 C41.44731,4.39845 41.44731,4.36525 41.44531,4.334 L41.44731,2.72461 Z M23.66231,11.83806 L23.66031,11.83806 C23.63491,11.83806 23.60961,11.83806 23.58421,11.84006 C23.31271,11.86546 23.07441,12.02956 22.95531,12.27366 L13.72281,30.73466 C13.60361,30.97486 13.61731,31.26006 13.75791,31.49046 L17.79891,38.11746 L16.73251,38.11746 C16.30091,38.11746 15.95321,38.46906 15.95521,38.90066 L15.95521,44.04516 C15.95321,44.47686 16.30091,44.82646 16.73251,44.8283957 L30.57451,44.8283957 C30.78161,44.83036 30.98271,44.74836 31.12921,44.59986 C31.27771,44.45336 31.35971,44.25226 31.35771,44.04516 L31.35771,38.90066 C31.35971,38.69366 31.27771,38.49246 31.12921,38.34596 C30.98271,38.19756 30.78161,38.11556 30.57451,38.11746 L29.51591,38.11746 L33.55691,31.49046 L33.55501,31.49046 C33.69561,31.25996 33.70541,30.97486 33.58621,30.73466 L24.35171,12.27366 C24.22281,12.00996 23.95521,11.84196 23.66031,11.83806 L23.66231,11.83806 Z M22.87711,15.92596 L22.87711,26.61746 C21.60561,26.96516 20.65641,28.12726 20.65641,29.50616 C20.65641,31.15456 22.00801,32.51006 23.65641,32.51006 C25.30491,32.51006 26.66031,31.15456 26.66031,29.50616 C26.66031,28.12916 25.71111,26.96906 24.43961,26.61946 L24.43961,15.93596 L31.99411,31.04746 L27.68751,38.11796 L19.62501,38.11796 L15.31831,31.04746 L22.87711,15.92596 Z M8.60365,22.19346 C9.61531,22.19346 10.41421,22.99426 10.41421,24.00406 C10.41421,25.01576 9.61341,25.82046 8.60365,25.82046 C7.59195,25.82046 6.78725,25.01376 6.78725,24.00406 C6.78725,22.99236 7.59195,22.19346 8.60365,22.19346 Z M38.71311,22.19346 C39.72481,22.19346 40.52951,22.99426 40.52951,24.00406 C40.52951,25.01576 39.72291,25.82046 38.71311,25.82046 C37.70141,25.82046 36.89671,25.01376 36.89671,24.00406 C36.89671,22.99236 37.70141,22.19346 38.71311,22.19346 Z M23.65461,28.06446 C24.45931,28.06446 25.09601,28.70116 25.09601,29.50586 C25.09601,30.31056 24.45931,30.94726 23.65461,30.94726 C22.84991,30.94726 22.21911,30.31056 22.21911,29.50586 C22.21911,28.70116 22.84991,28.06446 23.65461,28.06446 Z M17.51811,39.67946 L29.79761,39.67946 L29.79761,43.26736 L17.51811,43.26546 L17.51811,39.67946 Z" id="path-3"></path>
    </defs>
    <g id="Page-1" stroke="none" stroke-width="1" fill="none" fill-rule="evenodd">
        <g id="noun-design-4200607-1" transform="translate(0.343690, 0.000000)">
            <path d="M23.65431,1 C22.07031,1 20.74021,2.1133 20.38281,3.59375 L7.4258,3.59375 L7.4258,1.94335 L7.42385,1.94335 C7.4258,1.51171 7.07814,1.1621 6.6465,1.16015 L1.7793,1.16015 C1.34766,1.1621 1,1.51171 1,1.94335 L1,6.81055 C1.00195,7.24024 1.34961,7.58985 1.7793,7.5918 L6.6465,7.5918 C7.07619,7.58984 7.42385,7.24024 7.42385,6.81055 L7.42385,5.15625 L16.79281,5.15625 C11.47431,7.70705 7.81635,13.12876 7.81635,19.42976 L7.81635,20.73056 C6.3359,21.08796 5.22065,22.41806 5.22065,24.00206 C5.22065,25.85746 6.74605,27.38096 8.59955,27.38096 C10.45501,27.38096 11.97261,25.85746 11.97261,24.00206 C11.97261,22.41606 10.85931,21.08406 9.37691,20.72856 L9.37691,19.42776 C9.37691,12.79676 13.83591,7.2678 19.92591,5.6388 L20.48251,5.49036 C20.94741,6.79896 22.18961,7.74816 23.65241,7.74816 C25.11531,7.74816 26.35951,6.79896 26.82431,5.49036 L27.37711,5.6388 C33.46711,7.2677 37.93161,12.79676 37.93161,19.42776 L37.93161,20.72856 C36.44921,21.08406 35.33591,22.41606 35.33591,24.00206 C35.33591,25.85746 36.85351,27.38096 38.70891,27.38096 C40.56441,27.38096 42.08201,25.85746 42.08201,24.00206 C42.08201,22.41606 40.96871,21.08406 39.48631,20.72856 L39.48631,19.42776 C39.48631,13.12676 35.82811,7.7053 30.50981,5.1543 L39.87881,5.1543 L39.87881,6.8086 L39.88071,6.81055 C39.88271,7.01954 39.96471,7.2168 40.11121,7.3633 C40.25971,7.50979 40.45891,7.59182 40.66591,7.59182 L45.52731,7.59182 C45.73431,7.59182 45.93351,7.50979 46.08201,7.3633 C46.22841,7.21682 46.31051,7.01955 46.31241,6.81055 L46.31241,1.94335 C46.31241,1.73632 46.23041,1.53515 46.08201,1.38865 C45.93551,1.24217 45.73631,1.15818 45.52731,1.16014 L40.66591,1.16014 C40.45691,1.15818 40.25771,1.24217 40.11121,1.38865 C39.96281,1.53514 39.88071,1.73631 39.88071,1.94335 L39.88071,3.59375 L26.92971,3.59375 C26.57041,2.1133 25.23831,1 23.65431,1 L23.65431,1 Z M23.65431,2.5625 C24.66601,2.5625 25.47071,3.3672 25.47071,4.3789 C25.47071,5.3906 24.66601,6.18945 23.65431,6.18945 C22.64261,6.18945 21.84371,5.38865 21.84371,4.3789 C21.84371,3.3672 22.64451,2.5625 23.65431,2.5625 Z M2.5643,2.72461 L5.869,2.72461 L5.869,4.30861 L5.869,4.30665 C5.8651,4.34962 5.8651,4.39259 5.869,4.43556 L5.869,6.02736 L2.5643,6.02736 L2.5643,2.72461 Z M41.44731,2.72461 L44.75001,2.72461 L44.75001,6.02736 L41.44731,6.02736 L41.44731,4.43166 L41.44531,4.43166 C41.44731,4.39845 41.44731,4.36525 41.44531,4.334 L41.44731,2.72461 Z M23.66231,11.83806 L23.66031,11.83806 C23.63491,11.83806 23.60961,11.83806 23.58421,11.84006 C23.31271,11.86546 23.07441,12.02956 22.95531,12.27366 L13.72281,30.73466 C13.60361,30.97486 13.61731,31.26006 13.75791,31.49046 L17.79891,38.11746 L16.73251,38.11746 C16.30091,38.11746 15.95321,38.46906 15.95521,38.90066 L15.95521,44.04516 C15.95321,44.47686 16.30091,44.82646 16.73251,44.8283957 L30.57451,44.8283957 C30.78161,44.83036 30.98271,44.74836 31.12921,44.59986 C31.27771,44.45336 31.35971,44.25226 31.35771,44.04516 L31.35771,38.90066 C31.35971,38.69366 31.27771,38.49246 31.12921,38.34596 C30.98271,38.19756 30.78161,38.11556 30.57451,38.11746 L29.51591,38.11746 L33.55691,31.49046 L33.55501,31.49046 C33.69561,31.25996 33.70541,30.97486 33.58621,30.73466 L24.35171,12.27366 C24.22281,12.00996 23.95521,11.84196 23.66031,11.83806 L23.66231,11.83806 Z M22.87711,15.92596 L22.87711,26.61746 C21.60561,26.96516 20.65641,28.12726 20.65641,29.50616 C20.65641,31.15456 22.00801,32.51006 23.65641,32.51006 C25.30491,32.51006 26.66031,31.15456 26.66031,29.50616 C26.66031,28.12916 25.71111,26.96906 24.43961,26.61946 L24.43961,15.93596 L31.99411,31.04746 L27.68751,38.11796 L19.62501,38.11796 L15.31831,31.04746 L22.87711,15.92596 Z M8.60365,22.19346 C9.61531,22.19346 10.41421,22.99426 10.41421,24.00406 C10.41421,25.01576 9.61341,25.82046 8.60365,25.82046 C7.59195,25.82046 6.78725,25.01376 6.78725,24.00406 C6.78725,22.99236 7.59195,22.19346 8.60365,22.19346 Z M38.71311,22.19346 C39.72481,22.19346 40.52951,22.99426 40.52951,24.00406 C40.52951,25.01576 39.72291,25.82046 38.71311,25.82046 C37.70141,25.82046 36.89671,25.01376 36.89671,24.00406 C36.89671,22.99236 37.70141,22.19346 38.71311,22.19346 Z M23.65461,28.06446 C24.45931,28.06446 25.09601,28.70116 25.09601,29.50586 C25.09601,30.31056 24.45931,30.94726 23.65461,30.94726 C22.84991,30.94726 22.21911,30.31056 22.21911,29.50586 C22.21911,28.70116 22.84991,28.06446 23.65461,28.06446 Z M17.51811,39.67946 L29.79761,39.67946 L29.79761,43.26736 L17.51811,43.26546 L17.51811,39.67946 Z" id="Shape" fill="#F36D45" fill-rule="nonzero"></path>
            <g id="Clipped">
                <mask id="mask-2" fill="white">
                    <use xlink:href="#path-1"></use>
                </mask>
                <g id="Rectangle"></g>
                <path d="M23.65431,1 C22.07031,1 20.74021,2.1133 20.38281,3.59375 L7.4258,3.59375 L7.4258,1.94335 L7.42385,1.94335 C7.4258,1.51171 7.07814,1.1621 6.6465,1.16015 L1.7793,1.16015 C1.34766,1.1621 1,1.51171 1,1.94335 L1,6.81055 C1.00195,7.24024 1.34961,7.58985 1.7793,7.5918 L6.6465,7.5918 C7.07619,7.58984 7.42385,7.24024 7.42385,6.81055 L7.42385,5.15625 L16.79281,5.15625 C11.47431,7.70705 7.81635,13.12876 7.81635,19.42976 L7.81635,20.73056 C6.3359,21.08796 5.22065,22.41806 5.22065,24.00206 C5.22065,25.85746 6.74605,27.38096 8.59955,27.38096 C10.45501,27.38096 11.97261,25.85746 11.97261,24.00206 C11.97261,22.41606 10.85931,21.08406 9.37691,20.72856 L9.37691,19.42776 C9.37691,12.79676 13.83591,7.2678 19.92591,5.6388 L20.48251,5.49036 C20.94741,6.79896 22.18961,7.74816 23.65241,7.74816 C25.11531,7.74816 26.35951,6.79896 26.82431,5.49036 L27.37711,5.6388 C33.46711,7.2677 37.93161,12.79676 37.93161,19.42776 L37.93161,20.72856 C36.44921,21.08406 35.33591,22.41606 35.33591,24.00206 C35.33591,25.85746 36.85351,27.38096 38.70891,27.38096 C40.56441,27.38096 42.08201,25.85746 42.08201,24.00206 C42.08201,22.41606 40.96871,21.08406 39.48631,20.72856 L39.48631,19.42776 C39.48631,13.12676 35.82811,7.7053 30.50981,5.1543 L39.87881,5.1543 L39.87881,6.8086 L39.88071,6.81055 C39.88271,7.01954 39.96471,7.2168 40.11121,7.3633 C40.25971,7.50979 40.45891,7.59182 40.66591,7.59182 L45.52731,7.59182 C45.73431,7.59182 45.93351,7.50979 46.08201,7.3633 C46.22841,7.21682 46.31051,7.01955 46.31241,6.81055 L46.31241,1.94335 C46.31241,1.73632 46.23041,1.53515 46.08201,1.38865 C45.93551,1.24217 45.73631,1.15818 45.52731,1.16014 L40.66591,1.16014 C40.45691,1.15818 40.25771,1.24217 40.11121,1.38865 C39.96281,1.53514 39.88071,1.73631 39.88071,1.94335 L39.88071,3.59375 L26.92971,3.59375 C26.57041,2.1133 25.23831,1 23.65431,1 L23.65431,1 Z M23.65431,2.5625 C24.66601,2.5625 25.47071,3.3672 25.47071,4.3789 C25.47071,5.3906 24.66601,6.18945 23.65431,6.18945 C22.64261,6.18945 21.84371,5.38865 21.84371,4.3789 C21.84371,3.3672 22.64451,2.5625 23.65431,2.5625 Z M2.5643,2.72461 L5.869,2.72461 L5.869,4.30861 L5.869,4.30665 C5.8651,4.34962 5.8651,4.39259 5.869,4.43556 L5.869,6.02736 L2.5643,6.02736 L2.5643,2.72461 Z M41.44731,2.72461 L44.75001,2.72461 L44.75001,6.02736 L41.44731,6.02736 L41.44731,4.43166 L41.44531,4.43166 C41.44731,4.39845 41.44731,4.36525 41.44531,4.334 L41.44731,2.72461 Z M23.66231,11.83806 L23.66031,11.83806 C23.63491,11.83806 23.60961,11.83806 23.58421,11.84006 C23.31271,11.86546 23.07441,12.02956 22.95531,12.27366 L13.72281,30.73466 C13.60361,30.97486 13.61731,31.26006 13.75791,31.49046 L17.79891,38.11746 L16.73251,38.11746 C16.30091,38.11746 15.95321,38.46906 15.95521,38.90066 L15.95521,44.04516 C15.95321,44.47686 16.30091,44.82646 16.73251,44.8283957 L30.57451,44.8283957 C30.78161,44.83036 30.98271,44.74836 31.12921,44.59986 C31.27771,44.45336 31.35971,44.25226 31.35771,44.04516 L31.35771,38.90066 C31.35971,38.69366 31.27771,38.49246 31.12921,38.34596 C30.98271,38.19756 30.78161,38.11556 30.57451,38.11746 L29.51591,38.11746 L33.55691,31.49046 L33.55501,31.49046 C33.69561,31.25996 33.70541,30.97486 33.58621,30.73466 L24.35171,12.27366 C24.22281,12.00996 23.95521,11.84196 23.66031,11.83806 L23.66231,11.83806 Z M22.87711,15.92596 L22.87711,26.61746 C21.60561,26.96516 20.65641,28.12726 20.65641,29.50616 C20.65641,31.15456 22.00801,32.51006 23.65641,32.51006 C25.30491,32.51006 26.66031,31.15456 26.66031,29.50616 C26.66031,28.12916 25.71111,26.96906 24.43961,26.61946 L24.43961,15.93596 L31.99411,31.04746 L27.68751,38.11796 L19.62501,38.11796 L15.31831,31.04746 L22.87711,15.92596 Z M8.60365,22.19346 C9.61531,22.19346 10.41421,22.99426 10.41421,24.00406 C10.41421,25.01576 9.61341,25.82046 8.60365,25.82046 C7.59195,25.82046 6.78725,25.01376 6.78725,24.00406 C6.78725,22.99236 7.59195,22.19346 8.60365,22.19346 Z M38.71311,22.19346 C39.72481,22.19346 40.52951,22.99426 40.52951,24.00406 C40.52951,25.01576 39.72291,25.82046 38.71311,25.82046 C37.70141,25.82046 36.89671,25.01376 36.89671,24.00406 C36.89671,22.99236 37.70141,22.19346 38.71311,22.19346 Z M23.65461,28.06446 C24.45931,28.06446 25.09601,28.70116 25.09601,29.50586 C25.09601,30.31056 24.45931,30.94726 23.65461,30.94726 C22.84991,30.94726 22.21911,30.31056 22.21911,29.50586 C22.21911,28.70116 22.84991,28.06446 23.65461,28.06446 Z M17.51811,39.67946 L29.79761,39.67946 L29.79761,43.26736 L17.51811,43.26546 L17.51811,39.67946 Z" id="Shape" stroke="#F36D45" mask="url(#mask-2)"></path>
                <mask id="mask-4" fill="white">
                    <use xlink:href="#path-3"></use>
                </mask>
                <g id="Shape"></g>
            </g>
        </g>
    </g>
</svg>