<svg width="72" height="53" viewBox="0 0 72 53" fill="none" xmlns="http://www.w3.org/2000/svg">
<path d="M54.9381 19.6382L47.9473 43.4147C46.4952 48.3521 40.3283 52.4013 34.9691 52.4498H34.8735C29.492 52.4498 27.9305 48.3809 27.2519 43.4147L23.5918 15.3407L22.8464 9.61474L22.8215 9.70185L10.349 52.1085H0L12.4981 9.61474C13.6116 5.83015 17.4931 2.56628 21.6602 1.23074C22.961 0.811537 24.2907 0.580322 25.5719 0.580322C30.9533 0.580322 32.5149 4.64984 33.1928 9.61932L37.5996 43.4219L40.162 34.7104L40.4744 33.6447L45.5539 16.3704C49.3333 15.8379 52.1989 16.8413 54.9381 19.6382Z" fill="#FF7259"/>
<path opacity="0.2" d="M22.8209 9.70117L10.349 52.1085H0L12.4981 9.61471C13.6116 5.82947 17.4931 2.56626 21.6602 1.23071L22.8209 9.70117Z" fill="#1B1E13"/>
<path opacity="0.2" d="M54.9382 19.6382L47.9447 43.4147C46.4926 48.352 40.3258 52.4013 34.9666 52.4497L40.1633 34.7058L40.4758 33.6401L45.5553 16.3658C49.3333 15.8378 52.1989 16.8413 54.9382 19.6382Z" fill="#1B1E13"/>
<path d="M71.1553 13.7452L67.072 13.6332L66.3784 13.6142L64.9164 13.5736L60.3104 13.4472L59.4347 16.151L58.2498 19.798C58.2328 19.7705 58.2158 19.745 58.1948 19.7175C58.1738 19.69 58.1607 19.671 58.1463 19.652C57.3525 18.5496 56.5697 17.6038 55.7726 16.8125C54.3853 15.4246 52.9613 14.4938 51.3998 13.9901C49.8763 13.4976 48.2244 13.4085 46.3452 13.6921C45.197 13.8657 43.9636 14.1788 42.6241 14.6229C42.5671 14.6399 42.5075 14.6609 42.4506 14.6799L44.5112 8.32636L38.8454 4.45466L35.5534 2.20342L55.8833 0.0334056L55.8938 0L55.9298 0.0294758H55.9737L55.9612 0.0609185L55.9848 0.081875L71.1553 13.7452Z" fill="#FF7259"/>
<path d="M63.4282 12.3711L63.4209 17.5836L64.8206 17.5856L64.8279 12.3731L63.4282 12.3711Z" fill="#FF7259"/>
<path d="M64.94 19.004C65.3971 18.5469 65.3971 17.8058 64.94 17.3487C64.4829 16.8916 63.7418 16.8916 63.2847 17.3487C62.8276 17.8058 62.8276 18.5469 63.2847 19.004C63.7418 19.4612 64.4829 19.4612 64.94 19.004Z" fill="#FF7259"/>
<path d="M64.1127 18.287L62.715 20.7007L65.504 20.7039L64.1127 18.287Z" fill="#FF7259"/>
<path opacity="0.2" d="M55.9842 0.0799121L51.3992 13.9862C49.8756 13.4937 48.2237 13.4046 46.3445 13.6882C45.1963 13.8618 43.9629 14.1749 42.6235 14.6189C42.5665 14.636 42.5069 14.6569 42.4499 14.6759L44.5105 8.32243L38.8448 4.45073L35.5527 2.19949L55.8833 0.0334056L55.8938 0L55.9298 0.0294758H55.9737L55.9612 0.0609185L55.9842 0.0799121Z" fill="#1B1E13"/>
</svg>
